<svg xmlns="http://www.w3.org/2000/svg" viewBox="0 0 1080 1080"><defs><style>.cls-1{fill:#f6f6f6;}.cls-2{fill:#8e8e8e;}</style></defs><g id="Capa_2" data-name="Capa 2"><g id="Capa_1-2" data-name="Capa 1"><g id="background"><rect class="cls-1" x="1079" y="1079" width="1" height="1"/><rect class="cls-1" width="1" height="1"/><rect class="cls-1" x="1079" y="1079" width="1" height="1"/><rect class="cls-1" x="1079" width="1" height="1"/><rect class="cls-1" y="1079" width="1" height="1"/><rect class="cls-1" y="1079" width="1" height="1"/></g><path class="cls-2" d="M812.15,368c-42.18-24.31-84.36-48.7-125.87-74.17-21.41-13.16-41.53-20-63-1.43a18.92,18.92,0,0,1-5.18,5.31c-3.43,2.23-5.66,0-5.66,0-12.39-4.55-39.1-5.16-39.1-5.16-35.62.44-61.92,19.47-82.75,46.18-24.26,31.2-35.81,66.94-31.48,106.82,1.28,11.74-2.5,19.13-13.34,24.33-17.68,8.42-30.88,21.6-32.46,42.15a155.11,155.11,0,0,0,2.21,28.47L161,688.79l0,0-.34.22-.34.28-.16.14a4.06,4.06,0,0,0-.42.51l-.14.2a4.23,4.23,0,0,0-.22.42,2.4,2.4,0,0,0-.11.23,3.94,3.94,0,0,0-.19.61,2,2,0,0,0-.05.24,4,4,0,0,0-.08.78v.08l-.14,34.17a4.19,4.19,0,0,0,2.24,3.71l74.3,38.79a4.14,4.14,0,0,0,1.9.47h0a3.91,3.91,0,0,0,1.47-.28l.1,0h0a5.11,5.11,0,0,0,.48-.22l.19-.13L468.73,636.55a126.32,126.32,0,0,0,16.68,13.13c23.16,12.75,45.24,8.51,66.51-4.88,5.68-3.56,9.26-4.38,10.81,4,3,16.49,13.62,27.44,27.48,35.74,19.84,11.73,40.27,22.47,59.45,35.2,34.53,22.86,72.29,26.84,112.1,21.93,18.65-2.25,34.83-10.09,49.6-20.85,11.77-8.53,18.14-19.9,17.71-35.22-.36-13.65,1.86-27.45,1-41.11-.94-15.48,4-33.44-9.13-45.48-11.94-11-14.56-23.28-13.25-38.09a139.13,139.13,0,0,0,.09-21.22c-.55-8.32,2-14.14,9.73-18.43,12.18-6.94,17.39-17.83,17.2-32.14-.31-26.55-.37-53.19.49-79.73C835.86,390.46,828.51,377.45,812.15,368Zm-246-54.69c14.55,2.06,28.6,5.78,41.72,12.9,3.16,1.76,7.89,5.78,10.24,1,2.18-4.48-3.89-6.17-7-7.93a146.75,146.75,0,0,0-51.7-16.7c15.58-5.67,31.14-2.86,46.18,1.94,38.9,12.48,69,37.74,94.35,68.72,48.36,59.21,78,125.33,72.31,203.79-1.5,21.3-8.82,40.08-23.53,55.66,6.65-17.45,11.13-35.32,11.46-54,0-2.91,1.11-7.32-2.55-8-5.24-1-4.93,4.31-5.27,7.3-1.65,15-3.2,30-9.26,44-9.91,23.1-26.7,37.59-52.52,43.15,2.44-5.9,7.18-6.71,10.85-8.61,31.7-16.85,47.29-44.33,47.6-79,1.1-105.19-45.84-185.53-132.66-242.49-31.46-20.6-66.32-24-100.86-4.16-2.08,1.24-4.25,3.32-8.49,1.47C523.57,314.52,543.73,310.27,566.11,313.28Zm-77.93,47c21.57-23.71,48.45-22.43,76.13-14.58,7.15,2,13.79,6,20.69,8.91,2.74,1.09,6.31,3.35,8.24-.39,1.76-3.65-1.89-5.66-4.55-7-16.2-8.55-33.32-14.2-54-15.53,12.93-7.11,24.5-6.89,36.31-4.85,34.18,6.06,61.56,24.81,85.19,48.71,42.68,43.29,71.76,94.59,82.08,154.89,4.72,27.82,6,56.54-6.66,83.45-4.12,8.72-9.06,16.77-20.16,24.64,8.56-17.7,11.37-33.25,12.68-49.14.35-4.08,2-10.48-3.7-10.92-4.66-.35-3.77,6-4.37,9.72-.94,6.57-1.55,13.23-2.82,19.72-8.67,42.4-37.13,62.43-80,56.68-17.88-2.41-45.46-16.42-60.38-31.05,8.42-4.46,13.73.89,19.63,3.08,15.37,5.81,28.56,16,47.13,14.18,35.14-3.52,62.54-28.46,64.18-64.32,4.13-92-35.11-162.19-110-213.85A80.9,80.9,0,0,0,558.18,359c-48.33-6.52-77,18.49-80.6,70.08-.62,8.15.34,16.73-6,24.11C460.1,429.86,468.78,381.54,488.18,360.31ZM663.85,606.89c-4.23-2.85-4.8-6.6-3-11.67,16.26-46.54.95-88-22.11-127.59-3.55-6.17-6.36-11.1-4.25-18.16,2.45-8.31-.1-15.4-5.82-22-21.95-25.3-47.17-45.55-80.59-53.34-16.8-3.9-20.72-1.09-22.46,15.72-.43,4.82-1.53,8.65-6.12,10.87a30.09,30.09,0,0,0-3.58,1.82c-6.18,3.3-12.35,6.52-18.94,10,2-36.19,28.69-55,63.61-45.09,39.15,11.06,66.51,38,89.68,69.53C677,473.45,694,514,696.67,559.59c1.09,18.81-1.07,37.19-10.12,54.13-4,7.48-9.13,13.78-17.72,18C676.45,620.92,673.48,613.25,663.85,606.89Zm-81-189.68c-7.3-4.27-14.27-8.88-22.25-11.91-15.46-5.8-19.71-3.49-23.11,14.31-1.07-4.25-1.89-6.59-2.21-9.08-3.06-25.32-3.24-23.07,21.39-20.72,29.45,2.87,45.59,23.24,63,41.95,5.22,5.69,8.35,15.35.74,24.56-6.19,7.38-3.58,18.71-8.11,28.6C600.4,475.13,599.36,463.56,601,452,603.22,435.61,596.36,425,582.82,417.21Zm9.46,28.26c-.11,5.41-.3,11.73-5.39,14-5.5,2.47-7.88-4.19-11.12-7.29a129.32,129.32,0,0,0-22.32-16.4c-6.39-3.69-8.45-10-5.18-15.75,3.86-6.81,9.25-1.05,13.57,1,5.89,2.85,11.29,5.95,18.19,7C589.1,429.39,593.07,436.23,592.28,445.47ZM633,582c-9.43-15.43-8.94-31.58-12.88-46.49-4-15.41-10.78-29.76-19.7-45.86C632.94,514.38,634.89,546.6,633,582Zm18.14,1c-.32-4.82,3.88-12.38-2.86-13.57-5.82-1-2.28,8.31-7.37,12.2,5-26.94-1.29-51.44-11.27-75-4.78-11.26-1-21.65.72-32.63,24,22.41,36.59,88.79,20.75,115.44C651.12,587.28,651.29,585.2,651.14,583Zm-32.68,32.83c2.26-2.74,4.93-5.14,6.69-8.13,4-6.81,8.28-8.62,14.32-2.19,2.41,2.59,5.48,4.77,9.31,4.28a12.61,12.61,0,0,1,13.7,8.22c2.38,6.75-5,9.13-9.29,12.52-6.93,5.39-13.62,11.27-23.52,12.48-8.07-1.87-12-9-16.42-15.47C609.2,621.48,615.62,619.26,618.46,615.86ZM560.35,458.73c36.66,30.28,57.81,68.82,55,117.91-1,15.73-17.62,35.8-32.37,40.49-6.83,2.21-6.24-1.61-5.72-6.1C583.75,557,561,514.92,522.65,479.47c-10.7-10-23.91-16-38.12-20.8C515.08,436.91,533.06,436.15,560.35,458.73ZM294,620.93l-10.85,16a4.15,4.15,0,0,0,1.1,5.78,4.07,4.07,0,0,0,2.32.72,4.14,4.14,0,0,0,3.46-1.82l12.44-18.33a4.18,4.18,0,0,0-1.1-5.79,5.2,5.2,0,0,0-.77-.41l116.61-68L426,544l10.37-6a3.85,3.85,0,0,0-.19.47L414.56,616a4.16,4.16,0,0,0,8,2.23l21.62-77.56a4.16,4.16,0,0,0-2.9-5.12,2.91,2.91,0,0,0-.59-.1l8.3-4.81,70.54,33.61-68.08,40.09L444,608.81,238.81,729.64l-67.34-37.31ZM167.2,699.45l67.35,37.36-1.15,22L167.1,724.2Zm295.31-68.84L241.77,758.12l1.11-21.28L449,615.41l7.43-4.3,68-40.08h0l-.1,23.8L513.64,601a4.46,4.46,0,0,0-3.21,1.85l-40.32,23.29Zm107.06-27.52c-1,9.57-3.73,18.63-14.09,26.24.95-7.57,1.72-12.73,2.08-17.89.17-2.08,0-4.66-2.73-5.33s-3.83,1.73-4.43,3.81c-.84,2.91-1.35,6-1.95,9.06-5.18,26.11-26.78,37.68-51,27.17A125.65,125.65,0,0,1,476.66,632l37.41-21.63,14.09,6.21A4.36,4.36,0,0,0,530,617a4.5,4.5,0,0,0,1.81-8.62l-8.06-3.56,6.82-3.94a4.16,4.16,0,0,0,2.1-3.57l.13-33.46a3.61,3.61,0,0,0-.32-1.67,2.82,2.82,0,0,0-.91-1.25,1.13,1.13,0,0,0-.42-.42,2.3,2.3,0,0,0-.41-.25,1.93,1.93,0,0,1-.42-.25l-79.84-37.82a3.93,3.93,0,0,0-3.83.24l-22.34,12.93a139.92,139.92,0,0,1-2.41-20.65c.27-26.55,23.72-41.6,49.32-32,4.82,1.85,12.11,9.12,14.63,2.56,2.61-6.82-8-7.11-13-9.79-2.91-1.6-6.32-2.36-12.55-4.63,15-3.69,26.31-3.31,37.53,2.07C540.48,493.53,575,555.84,569.57,603.09Zm239-1.76c14.78,7.8,17.78,26.45,6.07,41.22-3.85,4.73-9.11,8.37-13.7,12.51-1.92,1.74-4.93,3.81-3.27,6.4,2.23,3.67,5.65,1.18,8.07-.39,4.84-3.06,9.35-6.53,15.11-10.67,2.44,13.16.81,25.3.6,37.37-.1,3.49-1.69,5.15-5.94,5.3-22,.58-28.32,5.88-30.65,26.09-.86,7.32-5.2,9.72-11.11,11.11-34.08,8.35-67.95,9-99.76-7.57-27.49-14.18-54-30.43-80.71-46.19-10.79-6.37-19.16-15.14-22.43-28.81,2.33.18,3.83-.06,4.66.52,40,28.88,84.26,31.06,130.66,21.43,17.82-3.67,36.37-1.26,54.12-5.44,10-2.29,19.91-4.82,28.26-11.12,3-2.31,8.67-4.54,6.19-8.71-2.89-4.75-7,0-10.16,1.79-16.43,9.42-33.93,14.43-53.15,13.76.25-1.66.09-3,.51-3.24,40.78-21.3,48.68-59.06,50.1-100.08.09-2.66-.31-5.33-.3-8,.2-8.41,6.46-12.46,12.87-12.6,7.07-.14,4.38,7.34,4.61,11.67C800.33,569.75,798,592,800.65,614c.4,3.24-.95,7.23,4.2,9.92C809.88,616.48,805.83,608.39,808.61,601.33Zm17.62-116.11c-.25,19.64-20.22,40.94-39.54,43.36-5.75.64-6.73-3-7.46-7.11-4.64-26.23-13-51.4-23.74-75.83-3.38-7.67-1.29-12.16,5.8-16.12,14.35-7.85,28.45-16.2,42.47-24.63,4.34-2.56,10.09-4.2,10.7-10.94-6.07-2.86-10.25,1.54-14.58,3.85-14.35,7.85-28.7,15.86-42.72,24.29-7.34,4.38-11.83,3.12-16-4.31-26.36-46.8-60.4-86.14-108.65-111.64-2.58-1.34-6.15-2.43-3.05-6.75,5.86-8.3,25.35-13,34.4-7.76q73,42.36,145.8,84.82c11.79,6.88,17.49,16.55,17.18,30.45C826.28,433,826.67,459.17,826.23,485.22Z"/><path class="cls-2" d="M247.11,700.3a4.19,4.19,0,0,0,2.22-.62l59.24-36.87a4.16,4.16,0,0,0-.48-7.33l-22.63-10.22a4.09,4.09,0,0,0-3.8.18l-61.05,35.35a4.15,4.15,0,0,0,.28,7.35l24.44,11.75A4,4,0,0,0,247.11,700.3ZM284,653.72l13.59,6.13-50.7,31.55-15.29-7.35Z"/><path class="cls-2" d="M210,683l-28.88,5.4a4.17,4.17,0,0,0,.74,8.26,5.27,5.27,0,0,0,.79-.07l28.88-5.41A4.16,4.16,0,1,0,210,683Z"/><path class="cls-2" d="M242.86,724.15l5.69-18.31a4.16,4.16,0,1,0-8-2.47l-5.69,18.3a4.18,4.18,0,0,0,2.74,5.22,4.24,4.24,0,0,0,1.22.18A4.17,4.17,0,0,0,242.86,724.15Z"/><path class="cls-2" d="M317.59,661a3.9,3.9,0,0,0,.59,0l38.51-5.33a4.17,4.17,0,0,0,3.55-4.69,4.23,4.23,0,0,0-4.69-3.56L317,652.68a4.16,4.16,0,0,0,.55,8.28Z"/><path class="cls-2" d="M453.41,513.36a4.5,4.5,0,0,0,2.2,6l74,34.11a4.57,4.57,0,0,0,1.89.41,4.49,4.49,0,0,0,1.88-8.58l-74-34.11A4.5,4.5,0,0,0,453.41,513.36Z"/></g></g></svg>