<svg xmlns="http://www.w3.org/2000/svg" viewBox="0 0 1080 1080"><defs><style>.cls-1{fill:#8e8e8e;}.cls-2{fill:#f6f6f6;}</style></defs><g id="Capa_2" data-name="Capa 2"><g id="Capa_1-2" data-name="Capa 1"><path class="cls-1" d="M454.49,737.11c-8-6.28-16.72-7.15-26.19-4q-35.64,12-71.35,23.79c-24,7.9-27.94,5.07-28.31-20.51-.53-36.11-.07-72.16,3.22-108.21s8.32-70.69,37.24-96.51c.22-.2.34-.5.54-.72,8.42-9,11.82-19.44,11.19-31.87-.53-10.38.79-20.85,1.05-31.29.12-5.09,1.5-10.2,5.43-12.73,6.11-3.93,10.21-10,16.37-13.65,9.06-5.31,14.15-13.16,16.93-23.16,3-10.85,5.57-21.89,13.72-30.72,6.51-7.07,6-10.43-2.29-15.61-5.52-3.46-8-7.45-7.53-13.83a53.6,53.6,0,0,0-.85-10.69c-1.27-9.47-9.35-15-18.69-12.55a64,64,0,0,0-12.59,4.59c-6.24,3.14-11.66,2.51-17.63-1-14.9-8.81-30.23-16.9-45.08-25.78-6.12-3.66-10.2-2.83-14.55,2.52-5.86,7.18-12.31,13.93-13.7,23.63-2.21,15.29-9.8,26.58-24.11,33-3.74,1.68-6.24,7.16-10.54,5.85-7.65-2.32-10.15,2.35-13.1,7.39-30.22,51.77-55.42,105.71-70.52,164-16.36,63.17-23,126.87-7.79,191.23C186.69,788.12,210.74,827.18,255,852c30.74,17.18,60.9,35.4,91.36,53.08,14.46,8.4,28.81,17.33,45.4,20.78a121,121,0,0,0,25,4.85c7.09,1.14,12.21-1.23,14-8.93a9.08,9.08,0,0,1,5.32-6.66c7-3.22,18.18-28.32,16.19-35.75a9.92,9.92,0,0,0-3.2-5.17c-3.95-2.9-2.79-5.52-.95-9.14,7.09-13.89,13.1-28.38,14.26-44,1.68-22.61,2.58-45.28.63-68A21.22,21.22,0,0,0,454.49,737.11ZM395.71,344.26c3.55-1.46,7.14-2.85,11.92-4.76-.85,3.64-6.11,3.27-4.44,6.74,1.3,2.7,4.23,1,6.42.46,3.06-.7,6.8-3.11,8.58,1.06s1.3,8.79.33,13.14c-.46,2-2.46,1.15-3.69.44-6.71-3.81-13.42-7.62-20-11.62C391.06,347.44,392.49,345.58,395.71,344.26ZM307,338.35c12,28.26.7,37.13-21.06,35.22C300.78,367.18,303.84,353.48,307,338.35ZM276,381.06c1.1-2.7,3.16-2.35,5.91-1.55,10.47,3.06,20-.52,28.88-5.68,6.5-3.79,6.91-10.68,6.59-19.35-1.09-5.58.23-13.93-6.38-19.62-2.58-2.22-1-3.69.07-5.27,1.62-2.49,3.76-4.65,5.34-7.17,3.78-6,8.12-6.57,14.24-3,24.69,14.49,49.57,28.66,74.38,43,5.94,3.42,11.89,6.84,17.77,10.37,2,1.17,5.49,2.68,3.86,5.07-6,8.9-1.5,23.76-9.34,28.26-10.29,5.89-7.26,19.18-18.08,23.41-6.52,2.56-4.1,13.57-12.27,16.17-1.92.62-2.5,3.35-5.7,1-25.22-18.72-53.71-32.07-80.41-48.38-7.12-4.35-14.41-8.44-21.58-12.71C277.62,384.55,274.94,383.75,276,381.06ZM425.37,919c-.39,5.47-4.64,6.34-9.22,5.88-34.26-3.4-62.77-18.37-85.45-43.91-23-25.94-35.28-57.1-41.59-90.86-.79-4.23-.63-9-6.76-13.82,1.09,21.25,6.44,39.38,13.13,57.23a172.61,172.61,0,0,0,29.6,50.31c-3.61,1.18-5.39-.7-7.24-1.78-20.11-11.71-39.93-24-60.32-35.17-39.72-21.83-62.3-56.31-74.26-98.77-15.67-55.69-12.48-111.63-1.31-167.53,13.67-68.37,40.89-131.4,75.66-191.46,3.24-5.58,6.39-5.78,11.49-2.81q46.42,27,93.08,53.66c7.1,4,3.81,8.14,1.17,12.46a585.43,585.43,0,0,0-41.09,81.44c-1.59,3.85-4.47,7.7-1.09,12.89,16.23-33.42,30.86-67.65,52.59-99.66,2.48,5.77-.89,8.3-2.46,11a628.15,628.15,0,0,0-65.2,155.58c-14.69,54.51-19.79,109.86-10.46,165.74,7.39,44.24,25.37,83.28,62.59,111,17.62,13.13,37.75,20.14,59.25,23.8C420.43,914.71,425.78,913.23,425.37,919Zm-9.25-12.93c-2.21-1.4-9.72-2.15-1.7-7.15,2.83-1.76-.55-4.3-3-4.08a18.64,18.64,0,0,0-8.37,2.67c-7.4,4.93-14.32,3.8-21.86.15-28.89-14-49.13-36.39-63.08-64.73-15-30.53-20.37-63.36-21.8-97a26.08,26.08,0,0,1,.61-4.09c3.92,1.65,5.27,3.65,4.8,6.77-2.42,16.12-1,32,2.69,47.8,10.55,45.14,31.9,82.68,74,105.68a68.4,68.4,0,0,0,8.83,4.28c2.66,1,6.48,3.62,8.2.89,2.69-4.28-4.34-3.45-5-7,7.67-1.37,15.24.17,22.83.57,2.79.14,4.74,1.5,5.36,3.93,2.06,8.2,7.24,12.32,15.86,12.76C428,910.15,421.78,909.62,416.12,906.07ZM445,889.36c-1.51,3.83-1.88,9-5.64,10.87-5.53,2.69-11.31,2-13.89-4.91-2.94-7.92-8.48-10.78-16.71-10.23s-16.7.19-25,.62c-6.6.35-10.7-3.78-16.76-7.71,2.57-.41,3.67-.86,4.69-.72,20.65,2.9,41,.57,61.37-3C443.39,872.48,448.78,879.61,445,889.36Zm.95-32.24c-2.89,5.75-6.21,9.78-12.73,11.26-23.29,5.27-46.56,6.26-70.11,1.62-6.94-1.36-12-4.77-16.44-9.83-18.63-21.1-29.74-45.83-36.25-73-3.67-15.28-6.26-30,1.81-45,4.32-8.07,3.43-16.91-4.54-23.5-3.51-2.91-4.64-6.67-4.38-11.16a443.8,443.8,0,0,1,5.6-51.56c.59-3.34,2.33-6.09,4-8.92,2.91-5,4.77-10.33,4.5-16.16-1.15-25.31,8.47-47.63,19.41-69.54,1.46-2.92,3.37-5.61,4-8.9,5.21-27.82,20.49-51.19,33.63-75.62,3.4,21.52,2.66,41.75-14.79,57.79-24,22-28.83,51.46-32.05,82A857.08,857.08,0,0,0,324,746.14c.93,20.25,13.89,29.69,33.42,24,6.23-1.81,13.38-2.27,18.31-8.16-4.38-3.36-7.89-.49-11.39.31-3.7.85-7.27,2.22-11.37,1.94l69.41-23.35c-2.4,4.66-2.59,7.85,3.15,6.17s11.34-3.77,17.14-5.11c8.38-1.94,15.05,2,15.17,10.52C458.33,787.8,462.75,823.65,445.92,857.12Z"/><path class="cls-1" d="M913,387.9c.4-19.66-4.47-45-4.47-45-2.06-9.32-3.79-18.74-6.42-27.9-11.7-40.81-33.41-74.58-70.69-96.5-38.85-22.85-78.13-45-117.14-67.55-4.75-2.75-7.78-2.75-10.95,2.41-7.06,11.47-12.91,12.88-25.23,6.71-8-4-16-8-25.22-8.65-4.62-.34-8.09.74-9.87,5.64s.06,8,4,10.57c3.71,2.46,9.08,3.86,10.52,8,3.45,10,12.17,13.38,19.94,18.15,8.66,5.32,9.2,6.13.91,11.29-14.13,8.78-17.63,21.33-16.71,36.78.5,8.38,3,14.47,11.38,17.12,3.75,1.18,5.86,3.3,6.33,7.59,1.48,13.38,3.42,15.57,17.15,17.81,5.89,1,8.36,3.49,8.29,9.31q-.15,13.89.2,27.76c.43,17.55,4.87,22.47,22.31,25a71,71,0,0,0,7.14.51c11.64.53,12.43,1.63,14.79,13.37,9.23,45.75,7.49,92,7.55,138.29,0,27.78-11,49.32-32.4,66.59C697,587.32,670,610,643,632.54c-10.66,8.91-19.21,20.39-19.93,34-1.51,28.25-3.06,56.76,1.11,84.89,2,13.31,10.87,23.27,23.86,27.91,4.83,1.73,9.37,3.28,13.41,6.51,8.59,6.86,17.6,8.91,28.16,3.62,8.5-4.27,17.66-7.25,26.59-10.65L735,772.26c8.12-4,16.22-11.37,25.14-9.85,7.25,1.24,10.27-.81,14-5.46A649.13,649.13,0,0,0,886.21,552.26C904,499,914.82,444.43,913,387.9ZM705.71,161.16c1.13-2.36,2.15-5,5.78-5,1.45.76,3.06,1.53,4.61,2.41q46.14,26.57,92.26,53.16c3.51,2,7.85,3.55,4.7,9.41-3.23,6-6.58,3-10.2.92q-46.17-26.49-92.35-53C707.58,167.38,703.34,166.12,705.71,161.16Zm-54.46,2.4c-1-.59-2.15-1-3.23-1.51l2-2.74,63,35.39,1.68-2.87c-12.91-11.32-29-18-42.68-28.43,5,2.39,10,4.92,15.09,7.14,3.68,1.61,7.28,4.28,11.59.76,2.21-1.8,4.58.25,6.56,1.39C724.63,183.85,744,195,763.3,206.35c5.64,3.32,10.75,7.32-.37,13.49,9.2,1.11,11.26,6.85,13,12.51,2.34,7.64,7.13,10.42,14.7,8.71-5.31,4.3-9.33,4.51-16,0-7.35-4.89-16.58-7.38-23.87-13.73,5.2,1.51,10.41,3,15.59,4.56,1.67.51,3.49,1.75,4.48-.67.78-1.93-.38-4.19-2-4.42-5.64-.85-9-7.47-15.65-5.83-1.42.35-3.39-.91-4.91-1.77Q699.73,191.43,651.25,163.56ZM758.93,724.43c2.68,11.2-1.52,17.13-6.08,25.79-5.12,9.73-12.83,13-21.43,16.51-14.4,5.79-28.88,11.39-43.34,17-12.18,4.75-19.17,3.08-27.52-6.86-1.81-2.15-3.22-4.61-6.43-3.52-6.31,2.16-10.32-1.57-14-5.47-7.48-7.81-12-17.07-12.08-28.09-.13-18.2.67-36.46-.36-54.61-1.35-23.82,8.68-41.05,26.86-55.35,24.4-19.18,48.08-39.28,72.13-58.89,19-15.48,33.5-34.41,34.94-59.26A849.5,849.5,0,0,0,761,402.55c-1-14.4-3.88-28.67-5.9-43,7,25.78,7.88,52.55,11.87,79.8,4.1-2.67,4.2-4.88,4.06-6.9-1.79-26.21-4.51-52.31-10.15-78-1.53-6.95-6.56-10.53-13.34-11.49s-13.63-1.64-20.46-2.22c-4.46-.37-7.19-2.12-7.84-6.89-.36-2.7.46-6.85-3.3-7.3-3.53-.42-1.36,5.07-4.55,6.85V289.73c2.45,2.67,1.76,4.88,2.07,6.88s-.43,5,2.29,5.1c3.25.12,2.92-3.23,3.12-5.41.88-9.49-3.88-15.68-13.63-16-8.88-.33-13.11-3.56-13.08-12.79,0-4.38-1.39-10.24-6.23-10.94-9.25-1.32-10.38-7.14-10.59-14.42,0-1.36-.53-3-2.6-3.16-4.33,2-.43,7.3-3.75,9.88-5.41-21.43,4.31-40,23.86-44-2,1.74-3.32,2.82-4.54,4-2,2-6.41,3.69-4,6.71s5.58-.53,7.53-2.34c5.94-5.5,11.47-4.33,17.85-.63,20.41,11.8,41.14,23,61.51,34.93,6.63,3.86,12.76,4.74,19.24.59,5.8-3.71,9.44-1.8,13.33,3.38,11.61,15.51,19.43,32.79,25.39,51.07.85,2.61,1.4,7.29,4.89,6.3,3.86-1.1,1.28-5.1.48-7.63-5.94-18.91-13.91-36.84-26-52.74-1.32-1.72-3.78-3.11-2.57-6.54,10.28,3.83,18.86,10,27,17,20.49,17.6,33.67,40,42.91,65.05.86,2.32,1.38,6.27,4.7,5.24,2.89-.89,1-4.21.34-6.28-10.79-33.11-29.33-60.36-59.1-79.52-10.19-6.56-19.81-10.61-30.83-2.61.56-1.84,2.49-5.07-.23-4.92-11.48.64-9.36-9.55-12.9-15.13-.91-1.43-1.46-3.72.49-4.71,1-.49,2.86.32,4.07,1,9.64,5.39,19,11.33,28.85,16.27,24.25,12.15,42.7,30.14,56.27,53.49,9.38,16.15,15.54,33.52,20.64,51.36,4.13,18.44,6.21,35.25,6.21,35.25,0,3.88-.42,7.9.44,11.61,2.88,12.53-1.71,23.13-6.56,34.29-2.4,5.52-6.78,4.49-10,6.23-2.82,1.5-3-3.4-4.59-5.22-1.86-2.08-2.21-5.68-7.95-6.09,3.08,10.05,7.25,18.89,13,26.34C886,450.2,886.53,460,884.12,471c-2.37,10.78-3.21,22.05-6.88,32.34-2.63,7.35,3.11,12.81,1.27,19.48-9.91,36.09-22.8,71-40,104.33-.82,1.59-1.58,4.32-2.67,4.47C826.15,633,825.49,642,821.66,648.2c-6.12,9.89-12.15,19.88-17.48,30.22s-12.94,15.31-24.9,16.93C755.83,698.52,753.39,701.34,758.93,724.43ZM907.42,396.74c.3,39.37-5.57,77.91-15.3,115.93C869.78,600,828.66,677.8,773.43,748.52c-1.93,2.48-3.9,8.27-7.28,5.52-3-2.44,2.06-6,4.07-8.56,32.33-41,59.66-85,81.15-132.55,33.13-73.33,53.19-149.44,49.06-230.69-.16-3-.29-6-.59-8.92a238.89,238.89,0,0,0-6.3-35.48c-11.38-44.27-31.79-82.33-73.22-105.76-3.43-1.93-5.35-3.44-2.85-7.47,2.19-3.52,4.5-5.6,8.66-3,1.52.94,3.07,1.83,4.6,2.77,36.25,22.24,56.06,56,67,95.91,2.13,7.77,4.56,15.52,5.68,23.49C908.52,380.24,907.42,396.74,907.42,396.74Z"/><path class="cls-1" d="M844.81,361.74c-.42-8.62-1.57-17.2-2.56-25.78-.2-1.65-.81-3.87-3.13-3.63s-2.18,2.56-2,4.21c.41,4.75,1.24,9.46,1.58,14.21,4.43,62.31-6,122.45-26.81,181C781,618.54,733.23,694.75,668,759.9c-2.33,2.32-5.9,4.25-5.23,8.62,5.77-1.19,5.83-1.12,11.58-7,53.45-54.4,96.12-116.14,126.48-186.19C830.34,507.23,848.49,436.71,844.81,361.74Z"/><path class="cls-1" d="M705,597.45c-4.35-1.08-6.16.7-8,2.1-16.5,12.75-33,25.49-48.23,39.81-11.64,11-17.71,24.49-17.75,40.55q-.07,28.15.1,56.32c0,2.67-1.13,6,2.36,7.92,3-2.31,1.78-5.51,2.07-8.27,1.93-18.42,1.41-36.92,1.17-55.37-.18-14.11,5-25.49,14.41-35.34s20.8-17.82,31.2-26.73C689.88,612,698.49,606.56,705,597.45Z"/><path class="cls-1" d="M739.37,297.86c-3.77-.21-9.61-2.77-10.85,2.78a42.76,42.76,0,0,0,.45,22,2.42,2.42,0,0,0,2.15,1c8.33-3.55,16.31-1.72,24.32,1.19a3.74,3.74,0,0,0,3.16-.78c.9-.86.24-2-.4-3.15-7.18-12.6-7-13.46,4.42-19.4C755.21,296.28,747,298.29,739.37,297.86Z"/><path class="cls-1" d="M789.92,403.57c3.08-.55,7.39-1.35,6.8-5.5-.61-4.39-4.93.67-7.24-1.62,6-5.5,9.52-12.26,11.58-20.71,2.87,3.22,0,7.22,3.69,8.72.49.2,1.76-.53,2.09-1.14a10.65,10.65,0,0,0,.32-9.46c-2.39-5.56-6.85-7.17-12.43-5.56-9.56,2.74-18,17.59-15.55,27.25C780.57,401.17,783.73,404.69,789.92,403.57Z"/><path class="cls-1" d="M745,644.33c4.73-1.4,5.18-2.76,1.21-6.15-2.5-2.13-.49-3,.46-4.1,4.06-4.55,5.94-10.16,9.13-15.54.16,1.15.3,2.29.46,3.44.23,1.67-.17,4.07,2.34,4,2.34-.09,2.24-2.45,2.31-4.16.19-4.2.44-8.65-3.59-11.35-4.25-2.85-8.65-1.72-12.59.87C736,617,732,625.41,732.56,635.67,733,643,738.19,646.35,745,644.33Z"/><path class="cls-1" d="M707.45,231.1c-7.44,2.93-13.73,14-12.51,21.93.72,4.62,2.89,7.9,8,7.89,3,0,7-.51,7.32-3.75.58-5.22-4.68-1.12-7.52-4.18,5.23-3.77,6.67-9.72,9.4-14.65,3.46,1.14,1.14,8.51,6.11,5.67,3-1.74,1.9-6.67.06-9.86C715.83,229.82,711.8,229.38,707.45,231.1Z"/><path class="cls-1" d="M795.28,277.4c-.61,1.64-1.13,2.91-1.55,4.2-.6,1.85-2.35,4.19.49,5.26,2.36.9,3.7-1.48,4.68-3.22,1.69-3,3.06-6.2,4.56-9.31,3.25,1.13,1.16,8.31,5.82,5.78,3.36-1.83,1.53-6.57-.12-9.71-3.56-6.77-12.14-5.79-19.07,2.32-2.6,3-7.26,7.72-3.94,10.47C790.55,286.83,790.14,278.22,795.28,277.4Z"/><g id="background"><rect class="cls-2" x="1079" y="1079" width="1" height="1"/><rect class="cls-2" width="1" height="1"/><rect class="cls-2" x="1079" y="1079" width="1" height="1"/><rect class="cls-2" x="1079" width="1" height="1"/><rect class="cls-2" y="1079" width="1" height="1"/><rect class="cls-2" y="1079" width="1" height="1"/></g></g></g></svg>