<svg xmlns="http://www.w3.org/2000/svg" viewBox="0 0 1080 1080"><defs><style>.cls-1{fill:#8e8e8e;}.cls-2{fill:#f6f6f6;}</style></defs><g id="Capa_2" data-name="Capa 2"><g id="Capa_1-2" data-name="Capa 1"><path class="cls-1" d="M932.48,143.88l-379.81,64q-45.42,7.24-90.73,15.24c-23.63,4.19-47.34,6.79-71.22,3.41-20.45-2.89-38.83-11.89-57.07-21.09Q301.31,189.11,268.87,173c-7.87-3.89-12.54-2.74-17.76,4-9,11.5-17.76,23.14-26.76,34.62-6.81,8.7-11.4,18.3-13,29.29-1.79,12.19-4,24.33-5.49,36.55-8.56,69.75-10.29,139.86-9.85,210,.43,67.9,2.38,135.77,6.87,203.55,2.41,36.38,5.47,72.68,9,109,.48,4.95,2.45,8.39,6.73,11,11.41,6.89,22.61,14.12,34,21.06,49.85,30.34,100.15,59.88,152.87,85.1,26.08,12.48,54.09,16.8,82.3,15.06,37.66-2.33,74.5-11.23,111.42-18.9,8.62-1.79,15-6.54,19.64-14,12.75-20.5,25.92-40.75,38.47-61.37C713.67,745.2,766.74,650.71,813.84,553c41.76-86.65,78.3-175.41,107-267.3,13.19-42.16,22.87-84.92,25.4-129.15C946.89,145.85,943.06,142.12,932.48,143.88Zm8.61,14.82c-2.46,41.42-11.5,81.48-23.68,121.05C886,381.69,844.65,479.51,797.51,575.06,744.59,682.31,684.71,785.58,621,886.68c-2.68,4.25-5.57,8.38-8.51,12.45-3.5,4.85-8.1,8.48-14,9.59-33.58,6.3-66.94,13.93-101,17.62-41.29,4.49-78.91-6.19-115.08-25.84-53.5-29.06-106.4-59-157.71-91.84-5.09-3.25-7.57-6.83-8.34-13.06-4.54-36.69-7.07-73.55-9.33-110.41-4.05-66.28-5.76-132.67-5.92-199.05-.2-78.94,1.83-157.82,13.68-236.12,2.2-14.52,6.71-27.66,16.37-39,9.27-10.9,16.92-23.13,26.73-33.62l.62-.62c5.25-1.65,9.2,1.75,13.35,3.74,27.87,13.4,55.6,27.1,83.49,40.45,26.33,12.61,54.21,13.9,82.63,10.49,1.74-.21,3.48-.55,5.22-.75,1.49-.17,3-.23,4.88-.37-1.55,1.84-5.38,1.26-4.67,4,.79,3.06,3.71,1.61,5.8,1.26q109.31-18.36,218.6-36.79,116.75-19.62,233.48-39.24c9.66-1.62,19.3-3.44,29-5.09,3.62-.62,6.26-1.48,2.34-5.33C940.57,148.1,941.64,149.57,941.09,158.7Z"/><path class="cls-1" d="M857.53,177.35c-39.44,6.35-78.8,13.27-118.22,19.84-96.68,16.11-193.43,31.82-290,48.4-39,6.7-76,2.48-111.45-15.34-19.32-9.72-38.66-19.38-58.12-28.82-24-11.66-22.07-11.38-37.95,8.9-7.24,9.26-15.17,18.09-17.32,30.44a929.76,929.76,0,0,0-12.31,114.6c-1.59,32.14-3.26,64.28-2.54,96.46,1.25,55.67-4.53,111.37,2.18,167.06,3,24.89,2.84,50.18,3.56,75.31.74,25.64,2,51.19,4.61,76.74,2.3,22.72,11.7,39.69,31.87,51.38,53.51,31,106.23,63.31,165.61,82.77,22.75,7.46,45.34,13.11,66,11.75,32.47-.26,60.48-8.47,89.11-11.86,21.3-2.51,33.71-13.26,44.39-30.93,39.52-65.44,79.35-130.68,116-197.76C793.3,566.05,847.63,453.08,888.8,334.13c11.6-33.5,22.44-67.26,31-101.68,3.45-13.82,1.73-27-7.52-38.51C897.84,175.91,878.29,174,857.53,177.35ZM214,460.27c9.65,14.08,20.82,24.41,34.58,32.07-5.94,3.63-5.94,3.63,6.39,10.9-7.35,4-12.36,12.27-22.76,6.81-4.37-2.3-9.79-.22-14.54,1.56,1-7.73,4.44-13.68,12.19-16.5,1.57-.56,3.9-1.18,2.69-3.5-.95-1.83-3.07-1.17-4.78-.71-4.93,1.33-8.61,4.68-12.86,9.33Zm700.6-226.62c-12.28,47.53-28,94-45.44,139.84C812.76,521.34,739.19,660.65,658.4,796.33c-16.33,27.44-33.72,54.25-50.15,81.64-7.32,12.19-16.42,19.43-31.35,21.28-23.16,2.87-45.93,8.79-69,12.15-21.77,3.16-43.54,1-65-3.75,14.67.1,29.36,1.35,43.88-1.71s28.88-7,41.13-16.06c1.85-1.36,5.54-2.86,3.66-5.48s-4.52.37-6.5,1.63c-23.54,15.05-49.5,17.73-76.75,16.67-42.85-1.68-79.21-21.11-115.79-40.22-27.43-14.32-53.92-30.3-80.54-46.06-15-8.86-23.65-21.43-26-38.5a572,572,0,0,1-5.06-82.73c.1-10.72,5.71-18.34,19.18-11.19,29.31,15.57,59.28,29.88,89,44.65,2.6,1.3,5.09,3.15,8.6,2.94.59-3.67-2.19-4.51-4.17-5.52q-47.37-24.2-94.84-48.17c-2-1-4.31-1.33-6.44-2.08-2.77-1-7.1,1.83-8.2-1.2-1.21-3.37,1.47-7.11,2.89-10.6,1-2.42,6.81-4,3-6.84-3.48-2.57-6.05,1.68-7.88,4.76-.6,1-1.22,2-2.91,4.8l-.92-40c31.05,24.69,68.76,38.31,103.16,57.75,12.91,7.3,26.32,13.71,39.55,20.42,2,1,4.82,3.93,6.49.91,1.58-2.85-2.14-4.09-4.18-5.16-23.17-12.12-46.42-24.1-69.62-36.17-18.29-9.53-36.67-18.89-54.76-28.78-16.51-9-25.54-22.73-25.38-42.18.19-23.38-.07-46.76,1.7-70.08.29-3.81,1.51-7.55,2.35-11.31-.09,2.75.75,4.62,4.22,3.42,6.52-2.26,12.42-.23,18.14,2.6q52.71,26.14,105.4,52.36c9.46,4.68,18.85,9.58,29.16,12.25,2.12.55,5.28,2.21,6.13-.19,1.18-3.37-2.75-3.42-4.86-4.25-36.11-14.21-69.51-34-104.92-50.42,14.49-11.64,10.35-12.62,18.82-6.65-1.1,3.11-8.1,4-5.13,7.53,2.74,3.23,5.94-1.57,8.3-3.86,2.93-2.85,5.19-.35,7.44.75q30.8,15.13,61.5,30.47c33.24,16.62,68.82,19.44,105.14,17.82,2.26-.1,6,.28,5.69-3-.22-2.53-3.73-1.84-5.87-1.79-19.37.37-38.66.43-57.92-2.74-24.28-4-45.61-15.16-67-26.39,13.41,5.32,27.19,9.48,41,13.73,30.05,9.29,60.44,9.09,91.11,4.54,3-.44,6-.62,9-1.09,2.25-.36,6.18.57,5.67-2.92-.43-3-4.15-1.83-6.53-1.62-4.5.4-9,.86-13.48,1.56-44.55,7-86.62-1.69-126.78-20.76-28.62-13.59-56.83-28-85.07-42.41-11.92-6.08-22.76-13.68-31.32-24.37A45,45,0,0,1,214.89,439,556.55,556.55,0,0,1,222,333.11c2.62-15.58,18-24.62,34-20.48,7.1,1.83,13.69,5,20.24,8.23,20.76,10.2,41.47,20.52,62.26,30.67,2.54,1.24,5,3.54,8.37,2.28.21-3.48-2.76-4.09-4.71-5.17q-38.06-20.86-77.6-38.74c-15.23-6.85-23.95-5.22-39.53,5.32,5.36-14.76,12.74-26,27-31.51,1.94-.74,5.37-.64,4.51-3.62-.77-2.67-3.82-1.6-5.95-1-9.86,2.59-16.44,9.38-21.88,17.48-2.5,3.71-4.69,7.63-8.18,11.29,1.33-11.52,2.54-23.06,4-34.57,1.19-9.22,2.86-18.38,4-27.61.73-5.76,2.48-6.95,8.17-4.17,34.79,17,69.76,33.67,104.72,50.34,2.52,1.21,5,3.53,8.47,1.91-.83-4.06-4.5-4.55-7.19-5.94-34.23-17.61-69.33-33.39-104.08-49.92-7.89-3.76-8.12-4.12-2.9-11.34s11.13-14.28,16.41-21.63c4.26-5.93,9-7,15.53-3.66,21.1,10.67,42.59,20.56,63.52,31.54,40.58,21.28,83,24.48,127.58,16.63,78.47-13.84,157.13-26.59,235.71-39.8Q769.67,197,844.77,184.38c9.41-1.57,18.83-3.08,28.45-3.12C903.22,181.13,922.05,204.61,914.55,233.65Z"/><path class="cls-1" d="M264,184.23q35.4,17.66,70.87,35.16c2,1,4.1,3,8.22,0-28.3-15.58-56-29.89-84.58-42.57l-.61.62C257.87,181.49,261.12,182.8,264,184.23Z"/><path class="cls-1" d="M882.77,269.6c-1.46.06-3.29-.1-3.45,2-.12,1.53,1.28,2.1,2.49,2.34,7.64,1.46,7,6.53,5.38,12.09-.65,2.17-1.27,4.34-2,6.5-29.7,91.86-67.74,180.3-110.41,266.76-39.64,80.33-83.28,158.51-129.5,235.25-16.48,27.37-32.81,54.82-50.32,81.55-3.72,5.68-7.46,11.44-15,12.75-6.69,1.15-13.32,2.61-20,3.83-2.78.5-5.59.77-7-2.67-.71-1.78-.17-5.63-3.71-3.68-2.42,1.34-1.84,4.45-.77,6.88,1.49,3.42,4.33,4.7,7.81,4.49,19.8-1.76,36.27-6.25,48.35-25.9,49.4-80.4,97.11-161.72,141.35-245.06,55-103.7,103-210.51,140.44-321.89a209.72,209.72,0,0,0,6.36-22.48C894.38,275.15,889.39,269.3,882.77,269.6Z"/><path class="cls-1" d="M818.38,343.22c5.76-16.9,11.62-33.77,17-50.78,3.29-10.37,9.73-16,20.68-16.52a93.87,93.87,0,0,0,9.74-1.08c1.22-.18,2.56-1,2.28-2.42-.13-.7-1.28-1.46-2.12-1.76-9.77-3.51-28.09,4.07-32.42,13.57-4.91,10.78-8.05,22.2-11.76,33.42C777.2,452.52,718,581,650.85,705.9,621.8,760,591.31,813.22,560.27,866.16c-2.17,3.7-5.18,7.23-5.19,12.84,1.7-.79,2.87-1,3.3-1.59,3.92-5.85,8-11.63,11.49-17.7C614.56,783,658,705.58,697.77,626.15,743.78,534.29,785.23,440.53,818.38,343.22Z"/><path class="cls-1" d="M754.93,297q-71.13,15.38-142.19,31c-2.18.48-5.09.34-5.75,3.6,3.24,2.17,6.22.79,9,.2,22.15-4.61,44.26-9.39,66.39-14.07,24.58-5.21,49.14-10.56,73.78-15.5,16.87-3.39,21.59.36,19.34,15.6A741.94,741.94,0,0,1,730.6,484.17c-5.77,14.52-16.1,23.22-30.06,28.67-13.17,5.15-26.9,8.24-40.72,10.94-14.8,2.9-29.64,5.55-44.45,8.4-1.84.36-4.53.63-3.67,3.53.64,2.13,2.87,1.58,4.58,1.28,5-.86,9.91-1.68,14.82-2.74,23.32-5,47.2-7.55,69.7-16.07,16.21-6.13,28.22-16,34.89-33a795.42,795.42,0,0,0,38.78-131.46C777.7,338,781,322.21,780.94,306c0-10.39-5.36-16.35-15.66-17.82a69.55,69.55,0,0,0-19.54.4q-55.23,7.81-110.44,15.69c-6.47.92-12.91,2-19.35,3.12-1.46.24-3.37.58-3.1,2.5s2.26,1.59,3.7,1.52c2.51-.13,5-.3,7.51-.65,22.64-3.2,45.26-6.55,67.91-9.63,22.39-3.05,44.6-7.56,67.27-8.44,4.57-.18,9,0,13.41,4.36C765.9,296,760.34,295.87,754.93,297Z"/><path class="cls-1" d="M827,361.47a31.07,31.07,0,0,0,3.84-1.12c7-2.88,13.27-7.75,21.52-7.43,6.55.26,9.71-3,11.54-9.79,1.24-4.53,2.84-9.25,4.43-13.83,2.87-8.26,5.76-16.51,8.54-24.8,2.22-6.61,3.85-13.45,6.59-19.83,1.62-3.77.68-4.68-2.66-5.84-6.32-2.2-12.57.08-18.48.87-11.15,1.49-21.19,4-25,18.77-4.3,16.87-9.08,33.95-16.38,50.07C817,357.52,819.23,361.75,827,361.47Z"/><path class="cls-1" d="M256.5,759.57c.72,3.2,3.68,1.41,5.62.91,21.18-5.43,42.22-11.46,63.55-16.23,11-2.46,19.85-7.64,28.42-14.44C415.26,681.28,462.48,621.07,501.43,554c44.77-77.13,77.86-159.32,105.12-244,1.08-3.35,1.92-6.77,2.83-10,0-1.45.11-3-1.56-3-2.6,0-3,2.4-3.58,4.2-5.61,16.41-11,32.89-16.73,49.26-29.94,86-67.09,168.63-117.72,244.68C434,648.85,391.24,696.26,339,734.77a17.7,17.7,0,0,1-7.34,3.4c-23.95,4.68-47.21,12.08-70.78,18.26C259.1,756.9,256,757.33,256.5,759.57Z"/><path class="cls-1" d="M639.15,782.84c-3.74,1.43-7.28,3.45-11.09,4.6-3.31,1-6,3.08-10.34,2.39-5.21-.83-4.77,5.83-7.1,9-9.16,12.45-15.42,26.59-23.7,39.56-9,14.18-16.28,29.55-25.89,43.46-1,1.47-2.3,3.06-1.38,4.82,1.19,2.29,3,.56,4.59.24,3.07-.61,6.16-1.14,8.51-1.57,3.63.64,6-.63,8.6-1.62,10.27-3.86,12.73-14.13,18-21.8,8.9-12.89,16.41-26.73,24.61-40.1,6.81-11.13,14.76-21.57,19.65-33.86.55-1.38,2.87-2.19,1.13-4.05A5,5,0,0,0,639.15,782.84Z"/><path class="cls-1" d="M547,645.88c57-87.57,95.76-183.44,127.77-282.34.88-2.7,2.6-5.58.42-9-3.66,1.47-3.82,4.52-4.69,7q-5,14.22-9.78,28.54C637.41,459.58,610.06,527.35,574,591.4c-40.12,71.34-87.36,136.92-151.79,188.69a63.91,63.91,0,0,0-4.95,4.65c-.89.89-1.8,2-.89,3.27s2.42.68,3.39,0c3.26-2.36,6.46-4.8,9.56-7.36C475.9,742.12,514.14,696.33,547,645.88Z"/><path class="cls-1" d="M573.91,823.11q19.74-33.87,39.09-68c7.46-13.19.77-25-14.32-25.83a37.36,37.36,0,0,0-6.76.39q-56,7.2-112.08,14.49c-2.51.33-5.41,0-8.08,5,44-2.78,85.81-10.85,128-14.88-24.65,4.57-49.32,8.9-74,13.28q-21.51,3.82-43,7.83c-2.08.39-5.62.51-5.15,3.19.6,3.33,4,1.92,6.37,1.56,3.47-.52,6.93-1.16,10.4-1.77,33.39-5.9,66.77-11.89,100.19-17.64,5.09-.88,10.73-1.9,14.45,3.5,3.6,5.21-.49,9.11-2.74,13-20.82,36.16-41.8,72.22-62.65,108.35-1.27,2.2-3.83,4.24-2.13,7.52,3.8-.35,4.6-3.71,6-6.09C556.44,852.49,565.3,837.88,573.91,823.11Z"/><path class="cls-1" d="M463.14,299.68c1.14-.14,2.14-.21,3.13-.37Q534.64,287.69,603,276q118.85-20.49,237.66-41.14c10.64-1.85,21.29-3.66,31.92-5.63,1.76-.33,4.78-.32,4.28-3.06s-3.26-1.39-5.11-1.49a10.71,10.71,0,0,0-2.24.27q-62.4,10.77-124.78,21.55L538.24,282.12c-25,4.31-50,8.58-75,13-2,.35-5.42.16-5.09,3.15C458.44,300.89,461.43,299.48,463.14,299.68Z"/><path class="cls-1" d="M666.09,655.57q23.07-42.84,45.78-85.88a62.71,62.71,0,0,0,4.9-11c3.43-11.47-1.56-19.29-13.33-21.35a59.63,59.63,0,0,0-18.81.1c-22.38,3.24-44.73,6.73-67.07,10.3-2.91.46-6.48.29-9.36,5.14,33.09-1.91,64.1-11.22,96-10.42a992.26,992.26,0,0,0-98.63,20.74c6.78,2.16,13.23.11,19.61-1,22.78-4,45.45-8.61,68.24-12.52,6-1,13.45-3.27,17.51,3,3.67,5.68-1.69,10.93-4.26,15.86-15.11,29-30.47,57.84-45.64,86.8-1.52,2.91-4,5.76-3.07,10.13C663,663.5,664.2,659.08,666.09,655.57Z"/><path class="cls-1" d="M524,868.23a8.84,8.84,0,0,0-1.06,1.06c-10.73,11.41-24,18.2-39.25,21a150.79,150.79,0,0,1-80.93-7.34C349.52,863.05,301.08,833.67,253,803.78a33.38,33.38,0,0,1-13.76-16.58c-.73-1.89-1.25-5.37-4.19-4-2.21,1.08-1,4.16-.24,6.23,3.2,8.59,9.2,14.79,16.85,19.66,33.55,21.35,68.46,40.28,103.68,58.68,35,18.31,71.3,31.56,107.31,29.1,17.72.48,30.29-2.74,42.32-8.3a68.93,68.93,0,0,0,22.67-17.22c1.26-1.42,3.65-3.26,2-5C527.43,864.13,525.71,867,524,868.23Z"/><path class="cls-1" d="M436.71,337.09c49.9-5.76,99.53-13.5,149.2-20.93,3.24-.49,6.81-.54,9.77-3.46-2.49-2.12-4.78-1.6-6.89-1.31-23.13,3.15-46.24,6.52-69.4,9.56-36.31,4.75-72.25,12.59-109.19,12.27-16.38-.14-32.11-2.62-46.83-9.63-27-12.87-53.72-26.27-80.61-39.33-2.69-1.31-5.35-3.76-9.39-2,1.27,3.23,4,4.15,6.31,5.33,22.38,11.43,45,22.33,67.13,34.3C375.18,337.22,405.33,340.72,436.71,337.09Z"/><path class="cls-1" d="M499.28,537.83c-.12-2.75-2.85-2.14-4.76-2.11-1.24,0-2.47.42-3.72.56a363.42,363.42,0,0,1-72.92,1.45c-30.92-2.54-59.23-13.1-86.14-27.73-33.36-18.15-70.7-29.72-97.55-58.72-1.08-1.16-2.86-2.77-4.45-.73-1.11,1.44.27,2.79,1.21,3.94a93.87,93.87,0,0,0,26.7,23c32,18,64.68,34.67,98.16,49.62,31.3,14,64.62,18.18,94.59,16.07,17.72-.53,31.31-.48,44.74-2.84C496.86,540,499.36,539.76,499.28,537.83Z"/><path class="cls-1" d="M238.19,757.76c1.33,22.65,11.77,38.83,32.18,48.86,7.19,3.54,13.84,8.18,20.85,12.12,33.29,18.7,66.12,38.27,101.41,53.13,2.61,1.1,6.73,4.53,8.35.51,1.23-3-3.89-3.69-6.44-4.84-44.8-20.1-87.12-44.76-129.17-69.94-11.74-7-18.46-16.89-20.72-30.62-3.45-20.93-3.7-42-4.79-63.06-.26-5,.74-10.5-3.1-14.85-4.7,4.48-1.76,10.24-2.85,15.79C235.35,722.23,237.15,740,238.19,757.76Z"/><path class="cls-1" d="M248.41,625.65C285,645.08,322,663.87,358.84,682.85c2.09,1.07,4.12,3.08,7.27,1.67-.83-3.83-4.29-4.71-6.94-6.11C323,659.24,286.71,640.23,250.53,621c-12.29-6.52-19.12-16.71-19.06-30.95.05-14.82-.7-29.64.23-44.46.46-7.26,0-14.57-.1-21.86,0-1.46-.22-3.38-2.09-3.49s-2.09,1.82-2.39,3.23a19.48,19.48,0,0,0-.32,3.74c-.13,20.85-.08,41.7-.42,62.55C226.11,606.55,234.47,618.25,248.41,625.65Z"/><path class="cls-1" d="M675,578.29c1-5.35,1.66-11.24-1.42-17.08-2.42,1.72-2.16,3.33-2.25,4.79a113.38,113.38,0,0,1-17.83,55.4c-12.88,20.08-28.93,36.32-53.87,41.64-21.36,4.55-42.4,10.67-63.53,16.27-3,.8-7,.62-8.56,4.65,3.2,1.83,5.93.68,8.5,0q34-8.46,68-17.15c9.8-2.51,19.06-6.18,27.14-12.59C655.8,634.71,669.26,608.67,675,578.29Z"/><path class="cls-1" d="M235.73,403.11c13.93-3.35,27.72-7.24,41.53-11.09,2.11-.59,6.05-.61,5.05-4-.78-2.61-4.05-1-6.06-.45-13.63,3.54-27.21,7.25-40.82,10.87-1.87.5-4.53,2.21-5.6.46-2.45-4.06-.83-8.8-.72-13.25.09-3.7,2.64-4.69,5.94-5.5,12.45-3.08,24.81-6.5,37.17-9.9,1.81-.5,4.8-1,4.33-3.29-.64-3.05-3.7-1.84-5.67-1.33-11.19,2.93-22.41,5.79-33.46,9.19-6.36,2-8.15.45-7.12-6.12,1.25-7.94,1.76-16,2.52-24,.2-2.1,1.46-5.31-1.69-5.59-2.88-.26-2.46,3.16-3,5.24a33.2,33.2,0,0,0-.63,3.72A670.7,670.7,0,0,0,223,421c0,.54,0,3.31.16,6.07.09,1.54.53,3.36,2.36,3.3s2.24-1.89,2.26-3.42c.08-4.52.42-9.1-.09-13.57C227,407,229.84,404.53,235.73,403.11Z"/><path class="cls-1" d="M582,746.11c-4.62-.84-3.64,5.31-4.39,8.58-9.49,41.63-29.08,77-64,102.63-11.12,8.15-22.61,16.36-38.74,14.93-2,0-5,0-8,.21-1.21.06-2.78.25-2.56,1.93.09.71,1.21,1.63,2,1.83a37.74,37.74,0,0,0,6.68,1c14.24.89,26.67-4.28,38.18-12,39.52-26.33,60.93-64.49,71.13-109.82C583,752.34,585.56,746.76,582,746.11Z"/><path class="cls-1" d="M377,698.31c-1.51-4-4.9-4.85-7.67-6.3Q308.83,660.39,248.24,629C236.8,623,228,615,224.58,602.15c-.54-2-.39-5.58-3.29-4.86-3.1.77-2,4.26-1.36,6.53a41.54,41.54,0,0,0,21.64,26.78q63.87,33.28,127.9,66.28C371.56,698,373.64,699.89,377,698.31Z"/><path class="cls-1" d="M423.14,533.43c4.05-.23,1.83-7.31,1.68-11.24-1.55-41.21-7-82-14-122.59-2.36-13.85-4.47-27.8-9.09-41.13-1.71-4.91-2.86-10.53-8.47-13.3-1.85,3.09,0,5.23.91,7.43a109.49,109.49,0,0,1,5.67,17.13,988.46,988.46,0,0,1,20.33,152.85C420.42,526.49,419,533.66,423.14,533.43Z"/><path class="cls-1" d="M509.06,719.7c8-1,15.89-2.4,23.83-3.6,29.34-4.42,58.45-10.07,87.26-17.15,11.5-2.82,21.57-8.25,29.53-17.18,1.23-1.38,3.35-3.2,1.09-5.07-1.71-1.4-3.28.43-4.45,1.66-9.61,10.11-21.9,14.82-35.14,17.72-33.14,7.26-66.46,13.58-100,18.46-3.82.56-7.92.4-11.74,3.83C503.08,720.82,506.18,720.07,509.06,719.7Z"/><path class="cls-1" d="M677.36,504.24c-16.58,2.88-33,6.48-49.52,9.81-1.87.38-4.75.53-4.48,3s3.13,2.13,5,1.74c21.39-4.4,43.17-7,64-13.84,10.27-3.34,19.23-9,25.57-17.82,10.65-14.88,16.89-31.92,22.92-49,1-2.79,1.27-5.6-2.84-6.24,5.45-11,12.19-21.3,16.59-32.91,10.39-27.37,11.23-55.39,7.07-83.89-.31-2.14-.41-5.65-3-5.3-3.35.46-2,3.92-1.8,6.3.05.74.34,1.47.45,2.21,5.35,35.19.77,68.9-17.5,99.66-20.19,34-48.37,58.11-88.47,65.79-4.19.8-8.32,1.93-12.43,3.07-1.37.38-3.19,1-2.77,2.9s2.31,1.72,3.75,1.39c14.89-3.4,30.18-5.13,44-12.52,21-11.22,38.1-26.84,52.79-45.33-2.35,10.62-7.25,20.3-11.18,30.34C716.82,485.89,701.49,500,677.36,504.24Z"/><path class="cls-1" d="M638.33,671.37c-9.86,10.19-23,13-36,15.82q-40.87,8.85-82.19,15.3c-2.44.39-6.62-.08-6.42,3.5.15,2.8,3.72,1.1,6,1.53,10.7-1.78,21.63-3.41,32.48-5.44,23.44-4.38,47-8.06,69.91-15.14a42.64,42.64,0,0,0,19-11.72c1.25-1.35,3.66-2.85,1.76-5C641.4,668.61,639.47,670.18,638.33,671.37Z"/><path class="cls-1" d="M357.35,714.44c-3.07-4.23-7.14-5.77-10.85-7.65q-38.36-19.42-76.81-38.69c-5.62-2.82-11.24-5.64-16.92-8.34-1.52-.73-3.63-1.8-4.77.14-1.5,2.57,1.15,3.34,2.71,4.4a27.88,27.88,0,0,0,3.3,1.82q47.7,23.57,95.41,47.06C351.54,714.22,353.66,716,357.35,714.44Z"/><path class="cls-1" d="M452.86,885.4c2.58.59,3-2.15,3.58-4a30.8,30.8,0,0,0,1-5.16,240,240,0,0,0,1.77-42.87,297.42,297.42,0,0,0-3.74-45c-.38-2.32,0-6.24-3.14-5.92-3.46.35-1.65,4-1.57,6.27,0,.75.32,1.48.4,2.23,3,29.78,5.69,59.55.45,89.38C451.3,882.18,450,884.77,452.86,885.4Z"/><path class="cls-1" d="M584.42,336.74c-.54-2.45-3.45-1.6-5.23-1.26q-16.29,3.12-32.5,6.61-29.12,6.23-58.19,12.68c-1.83.41-4.65.54-4.64,3s2.52,1.65,4.16,1.72c.5-.08,1-.1,1.5-.21q45.33-9.74,90.64-19.57C581.86,339.36,585.05,339.56,584.42,336.74Z"/><path class="cls-1" d="M383.52,712.67c-1,2.81,2.5,3.08,4.37,4a33.92,33.92,0,0,0,4.24,1.53c25.8,8.88,52.36,8.54,79.05,6.41,1.7-.14,3.56-.29,4.72-2.62-2.67-2.57-5.57-1.77-8.2-1.66-26.45,1.2-52.8,1.67-78.11-8.14C387.6,711.44,384.43,710.22,383.52,712.67Z"/><path class="cls-1" d="M400.76,704.56c-1.66-.3-3.85-1.06-4.26,1.49-.28,1.73,1.49,2.42,2.93,2.9,1.66.56,3.36,1,5.05,1.51,14.93,4.25,30.18,5.11,46.81,4.38,9.13.5,19.33-1.35,29.6-2.17,2.17-.18,5.68-.23,5.44-2.75-.34-3.45-4-1.85-6.26-1.94a26.91,26.91,0,0,0-3.72.54c-17,1.81-34.09,3.06-51.14.58C417,707.91,408.91,706.06,400.76,704.56Z"/><path class="cls-1" d="M453.22,747.11c0-2-2.37-2.22-4.14-2.42-1-.12-2-.13-3-.22-15.33-1.31-30.3-4.17-44.35-10.73-8.18-3.82-16.26-7.84-24.44-11.64-1.69-.79-4.17-2.46-5.38-.19-1.56,2.92,1.67,3.66,3.49,4.62,6.66,3.48,13.42,6.78,20.13,10.19,16.66,8.48,34.76,11,53,12.88C450.48,749.39,453.19,749.8,453.22,747.11Z"/><path class="cls-1" d="M606.1,494.07c-22,5.05-44,10.06-65.89,15.23-3.54.83-7.48,1-10.75,4.43,2.06,1.84,3.8,1.48,5.46,1.11q37.8-8.25,75.6-16.6c1.83-.41,4.65-.67,4.28-3.22-.4-2.72-3.16-1.64-5-1.61A18.22,18.22,0,0,0,606.1,494.07Z"/><path class="cls-1" d="M528.55,535.43c22.83-3.58,45.67-7.18,68.48-10.95,3.14-.52,8.94.41,8.3-3.8-.54-3.53-6.15-1.57-9.34-1.07-19.11,3-38.17,6.37-57.24,9.62-6,1-12.39,1-18.29,4.87C523.66,537.05,526.19,535.8,528.55,535.43Z"/><path class="cls-1" d="M498.75,584.28c2.8,2.34,5.37,1.38,7.69.94q34.7-6.53,69.33-13.31c2.22-.43,6.12-.23,5.39-3.47-.67-3-4.21-1.6-6.55-1.16q-33.95,6.45-67.86,13.05C504,580.88,500.66,580.76,498.75,584.28Z"/><path class="cls-1" d="M509.79,551.17c.08,2.82,2.84,2.15,4.72,2.18A26.19,26.19,0,0,0,519,553c14.86-2.27,29.72-4.5,44.56-6.88,8.16-1.31,16.28-2.84,24.4-4.38,1.37-.26,3.35-.53,3.1-2.52s-2.24-1.53-3.64-1.65a25.48,25.48,0,0,0-2.81.05c-23.71,3.69-47.22,7.35-70.73,11C512.16,548.89,509.72,549.2,509.79,551.17Z"/><path class="cls-1" d="M502.26,567.49c.2,1.54,1.65,1.68,2.93,1.66s2.5-.17,3.75-.26c0,.14.05.28.07.42q34.54-5.59,69.06-11.23c2.29-.37,6.23,0,5.77-3.12s-4.07-1.64-6.39-1.3q-27.91,4.14-55.8,8.38c-5.7.87-11.36,2-17,3.06C503.33,565.34,502.06,566,502.26,567.49Z"/><path class="cls-1" d="M506.89,516.87c-3.46.57-6.86,1.55-10.33,2-20.09,2.92-39.07,14.42-60.41,7.87-1.15-.35-2.69-.23-3,1.41s1,2.21,2.13,2.72a31.24,31.24,0,0,0,14.63,3.21c14.93-2.07,29.54-5.79,44.18-9.29q7-1.65,13.84-3.64c1.35-.38,3.22-.92,2.71-2.91S508.29,516.63,506.89,516.87Z"/><path class="cls-1" d="M276.38,586.59c-10.68,2.86-21.34,5.8-32,8.73-1.46.4-3.24,1-3.16,2.73.1,1.94,1.92,2,3.49,1.86,1-.22,2-.44,2.93-.69Q279,591,310.35,582.73c2.06-.54,5.62-.54,5.17-3.21-.59-3.43-4-2.06-6.31-1.49C298.25,580.8,287.31,583.68,276.38,586.59Z"/><path class="cls-1" d="M336.54,750.49c-.8-3.33-4.19-1.62-6.35-1-17,4.42-33.92,9-50.87,13.53q-7.26,1.95-14.49,4c-1.44.41-3.16,1.06-3,2.83.23,2,2.07,1.73,3.58,1.62,1-.22,2-.41,2.93-.67Q300,762.39,331.61,754C333.66,753.41,337.16,753.08,336.54,750.49Z"/><path class="cls-1" d="M320.86,590.69c-.31-1.28-.61-2.55-.92-3.82C295.77,593,271.6,599,248.32,608.4,273.08,604.69,297.17,598.44,320.86,590.69Z"/><path class="cls-1" d="M278.43,791c.73-.16,1.47-.31,2.2-.51q30.25-8.06,60.49-16.13a21.3,21.3,0,0,0,4.17-1.72c.86-.45,1.71-1.18,1.34-2.37A2,2,0,0,0,344.2,769a39.32,39.32,0,0,0-5.17,1q-27.7,7.4-55.37,14.88a55.59,55.59,0,0,0-6.41,2.18c-1.1.45-2.52,1.07-2,2.69S277.19,791.06,278.43,791Z"/><path class="cls-1" d="M245.51,588.22q29.43-7.74,58.81-15.73c2.17-.59,6.11-.94,5.05-4s-4.46-.81-6.64-.23q-28.71,7.53-57.34,15.42c-2.44.67-5.59.61-7,4.19C241.12,589.48,243.4,588.77,245.51,588.22Z"/><path class="cls-1" d="M276.73,779.91q19-4.78,37.87-9.68,10.92-2.84,21.75-6c2-.57,5.38-.83,4.54-3.71-.76-2.65-3.84-1.13-6-1a6.87,6.87,0,0,0-1.46.34c-19.11,5.16-38.23,10.29-57.31,15.56-2.73.75-6,.9-7.9,4.56C271.5,781.85,274.13,780.57,276.73,779.91Z"/><path class="cls-1" d="M255.23,746.88c-1.11.36-2.53,1-2,2.63s1.9,1.29,3.14,1.26c.73-.16,1.47-.31,2.2-.51,19.86-5.27,39.73-10.51,59.57-15.87,1.73-.47,4.7-.74,3.91-3.47-.74-2.53-3.42-1.55-5.22-1.07q-24,6.3-47.93,12.83C264.28,743.93,259.75,745.39,255.23,746.88Z"/><path class="cls-1" d="M408.54,763.16c3.29,0,5.55.65,5.81-1.76.18-1.63-1.73-2.34-3.22-2.58-19.71-3.2-36.81-12.92-54.32-21.62-1.95-1-4.57-2.81-6-.3-1.58,2.75,1.63,3.8,3.47,4.73,13.66,6.88,27.22,14,41.88,18.66C400.67,761.72,405.41,762.45,408.54,763.16Z"/><path class="cls-1" d="M261,614.33c-1.23.38-2.46,1.08-2.24,2.56.25,1.66,1.78,1.39,3.67,1.5,20.43-5.53,41.78-10.13,62.48-17.11,1.38-.47,3.06-1.62,1.91-3.31s-3.23-.76-4.88-.32q-22.92,6.06-45.8,12.2C271.08,611.22,266.05,612.8,261,614.33Z"/><path class="cls-1" d="M289.17,799.61q29.19-7.54,58.32-15.25c2.05-.54,5.55-1,5-3.55-.81-3.43-4.18-1.67-6.39-1.08q-28.4,7.57-56.72,15.41c-2,.56-4.59.81-5,3.7C285.77,800.84,287.59,800,289.17,799.61Z"/><path class="cls-1" d="M238.59,576.28c.43,2.15,2.28,1.36,4.41,1.52,19.63-5.42,39.92-11,60.21-16.65,1.22-.34,2.47-1.16,2.13-2.61-.43-1.88-2.15-2-3.64-1.57q-30.46,8.31-60.89,16.74C239.65,574,238.28,574.74,238.59,576.28Z"/><path class="cls-1" d="M257.86,438.54c-6.27,1.71-12.44,3.77-18.64,5.73-1.2.39-2.43,1.16-2.25,2.59.23,1.74,1.81,1.29,3,1.35.74-.14,1.49-.25,2.21-.44q26.82-7.15,53.64-14.38c2-.53,5.35-.8,4.34-3.71-.91-2.62-3.93-1.15-6-.62C282.05,432.16,269.93,435.26,257.86,438.54Z"/><path class="cls-1" d="M237.07,432.91c-2,.56-4.61.67-5.51,3.83a4.65,4.65,0,0,0,4.68.87q26.61-7,53.19-14.22c2-.56,5.58-1.1,5-3.56-.88-3.45-4.2-1.45-6.38-.87Q262.5,425.8,237.07,432.91Z"/><path class="cls-1" d="M279.4,620.64a14.59,14.59,0,0,0-3.47,1.43c-1.06.6-2.27,1.35-1.8,2.89s1.87,1.36,4,1.26c16.32-4.54,33.49-9.26,50.62-14.12,1.95-.55,5.42-.94,4.54-3.74s-3.93-1.12-5.94-.59Q303.35,614.1,279.4,620.64Z"/><path class="cls-1" d="M236,421.54c-2.3.63-5,1-6.31,4.53,1.07.38,1.82.95,2.42.82,18.36-4,36.46-9,54.43-14.37,1.56-.47,4-1.21,3.27-3.31-.93-2.69-3.47-1.2-5.2-.74Q260.27,414.89,236,421.54Z"/><path class="cls-1" d="M449.38,689.53c-1.49-.81-4-1.35-4.73.48-.95,2.42,1.59,3.39,3.39,4.09,7.23,2.82,14.46,5.74,24,5.47,8.29-.52,17.6-3.66,27.08-5.91,2.2-.52,6-1,5-4.15s-4.43-1-6.57-.42C481.51,693.49,465.55,698.44,449.38,689.53Z"/><path class="cls-1" d="M251.34,452.11c-2.07.58-4.55.78-5.83,3.63,2,2.22,4.08,1.42,5.9.95q24.39-6.35,48.72-12.92c2-.54,5.56-.94,4.85-3.54-.85-3.13-4.22-1.61-6.45-1Q274.9,445.54,251.34,452.11Z"/><path class="cls-1" d="M232,411.41c-.82.23-1.45,1.13-3.06,2.47,1.84.65,2.59,1.2,3.22,1.09,17.56-3.19,34.67-8.18,51.79-13.13,1.43-.41,3.11-1.24,2.55-3.07-.69-2.28-2.78-1.8-4.45-1.34Q257,404.35,232,411.41Z"/><path class="cls-1" d="M307.42,806.62q23.65-6.37,47.27-12.87c1.59-.44,3.5-.86,4.14-4.1-1.47-.2-2.76-.76-3.83-.48q-24.79,6.45-49.52,13.12c-1.58.43-3.85,1.21-2.78,3.53C303.62,807.8,305.76,807.07,307.42,806.62Z"/><path class="cls-1" d="M256.14,464.81c1,1.78,3.18,1.22,4.83.8q23.67-6,47.3-12.26c1.37-.36,3.34-.81,3.12-2.64-.3-2.53-2.62-1.59-5.76-2-14.81,4.07-31,8.5-47.17,13C257,462.1,255.23,463.1,256.14,464.81Z"/><path class="cls-1" d="M243.87,565.66q21.88-5.7,43.66-11.72c1.87-.51,4-1,5.23-3.57-2.52-2.44-5.07-1.37-7.33-.77q-21.48,5.7-42.89,11.7c-1.82.5-4.92.83-4.41,3.17C238.8,567.56,241.92,566.17,243.87,565.66Z"/><path class="cls-1" d="M254,740.35c16.47-4.65,33.1-9.33,49.72-14.08,1.16-.33,2.67-1.29,1.91-2.67-1.23-2.25-3.59-1.35-5.38-.87-14.77,3.93-29.51,8-44.25,12a16.79,16.79,0,0,0-3.46,1.42c-1.09.6-2.34,1.46-1.5,2.87C251.41,739.68,252.67,739.81,254,740.35Z"/><path class="cls-1" d="M289,632.3c.49,1.41,1.95,1.28,4.8,1.17,14.24-3.9,30-8.19,45.7-12.54,1.25-.35,2.38-1.28,2.05-2.71-.44-1.93-2.13-1.92-3.63-1.52q-23.3,6.18-46.54,12.49C290,629.56,288.3,630.31,289,632.3Z"/><path class="cls-1" d="M318,815.66c15.16-4.23,30.32-8.43,45.46-12.72,1.38-.39,3.21-1.17,2.84-2.92-.53-2.47-2.69-1.74-4.32-1.32-12.09,3.14-24.17,6.3-36.23,9.56a88.47,88.47,0,0,0-9.2,3.18c-1.1.43-2.38,1.25-1.82,2.8S316.64,815.45,318,815.66Z"/><path class="cls-1" d="M269.57,472.86c.53,1.43,1.93,1.29,4.92,1.15,12.57-3.47,26.79-7.37,41-11.34,1.2-.33,2.48-1.12,2.33-2.52s-1.66-1.86-2.89-1.62a371.63,371.63,0,0,0-43.42,11.66C270.41,470.54,269,471.23,269.57,472.86Z"/><path class="cls-1" d="M233.8,387.5c-1.34.36-3.22,1-2.86,2.85s2.26,1.46,5.4,1.31c12.44-3.34,26.47-7.09,40.48-10.91,1.39-.38,3.29-1.09,2.83-2.86-.59-2.32-2.82-1.7-4.44-1.28Q254.48,382,233.8,387.5Z"/><path class="cls-1" d="M330.92,823q20.38-5.12,40.72-10.45c1.32-.35,3.25-.91,2.62-2.92-.57-1.81-2.45-1.24-5.55-1.49-12,3.34-25.48,7.08-39,10.88-1.16.33-2.63,1-2.42,2.41C327.63,823.54,329.58,823.36,330.92,823Z"/><path class="cls-1" d="M303.49,639.39c.34,2.17,2.21,1.49,4.82,1.56,11.74-3.2,24.58-6.67,37.39-10.24,1.36-.38,3.18-1,3-2.85-.25-2.13-2.24-1.88-3.56-1.53-13.09,3.46-26.17,7-39.23,10.62C304.72,637.27,303.26,637.88,303.49,639.39Z"/><path class="cls-1" d="M436.1,626.92c.29,2,.36,5.41,3.27,4.93s1.33-3.67,1.64-5.91a277.57,277.57,0,0,0-7-34.32c-.47-1.76-.93-4.64-3.56-3.79-2.44.8-1.36,3.42-.91,5.25A344.14,344.14,0,0,1,436.1,626.92Z"/><g id="background"><rect class="cls-2" x="1079" y="1079" width="1" height="1"/><rect class="cls-2" width="1" height="1"/><rect class="cls-2" x="1079" y="1079" width="1" height="1"/><rect class="cls-2" x="1079" width="1" height="1"/><rect class="cls-2" y="1079" width="1" height="1"/><rect class="cls-2" y="1079" width="1" height="1"/></g></g></g></svg>