<svg xmlns="http://www.w3.org/2000/svg" viewBox="0 0 1080 1080"><defs><style>.cls-1{fill:#8e8e8e;}.cls-2{fill:#f6f6f6;}</style></defs><g id="Capa_2" data-name="Capa 2"><g id="Capa_1-2" data-name="Capa 1"><path class="cls-1" d="M996.24,303.47c-5.64-19.85-16.85-34.17-33.32-42.57-13-6.64-27-10.39-41.42-14-1.7-.42-3.68-1-3.92-2-.18-.69.48-1.73,1.95-3.08,5.54-5.1,10.27-11.05,14.86-16.81,5.09-6.4,10.36-13,16.73-18.45l.28-.23c2.09-1.78,4.46-3.79,4.36-6.94-.14-4.12,1.32-7.23,4.7-10.08,2.19-1.83,2.6-5,1.11-8.37-1.09-2.48-3.61-4.54-6.93-5.66-3.51-1.19-7.14-1-9.71.38a24,24,0,0,0-3,2.13c-2.1,1.63-4.09,3.18-6.77,3-4.08-.24-7.07,1.58-9.68,3.59q-3.16,2.41-6.34,4.82c-3.29,2.49-6.69,5.07-10,7.65l-.36.27c-1,.75-2.58,1.89-1.16,4.24a.48.48,0,0,0,.51.24c5.6-1,9.86-4.77,12.57-7.56,4.12-4.23,9.54-6.07,14.79-7.86,4.74-1.61,9.63-3.27,13.63-6.68a2.48,2.48,0,0,1,2-.57,5.52,5.52,0,0,1,3.53,2.25,1.77,1.77,0,0,1,.46,1.3c-.11.62-.9,1.11-1.66,1.6a10.63,10.63,0,0,0-1.07.74c-.44.38-.93.75-1.41,1.12-1.68,1.28-3.43,2.6-3.61,4.54-.13,1.37.54,2.84,2.05,4.52.12.14.14.23.13.3,0,.42-.74,1-1.26,1.49-.22.19-.43.37-.61.55-1.85,1.82-3.72,3.62-5.59,5.42l-.41.38c-1.28,1.23-2.52,2.67-3.72,4.06-2.68,3.1-5.45,6.3-8.72,7.24-3,.86-5.85-1.33-8.83-3.65a25.67,25.67,0,0,0-5.83-3.75,2.35,2.35,0,0,1-.46-.26,4,4,0,0,0-.68-.36,9.84,9.84,0,0,1-1.55-.82c-1.11-.68-2.26-1.37-3.31-1.08a2.1,2.1,0,0,0-1.28,1.15c-1.44,2.76-1.29,6.41,2.3,8.33,2.13,1.14,4.24,2.44,6.28,3.69s3.89,2.39,5.89,3.48c1.44.79,2.19,1.53,2.29,2.28s-.42,1.64-1.59,2.76c-4.47,4.24-9.14,8.8-14.26,13.93-2.44,2.45-4.54,2.51-7.75.24-3.75-2.66-7.81-5-11.73-7.26L885,231l-.09,0c-1.91-1.12-4.13-2.43-6.34-1.6,2.74-3.46,6.37-5.94,10.17-8.53,4-2.74,8.16-5.57,11.38-9.75a.52.52,0,0,0,.06-.51.49.49,0,0,0-.41-.29c-.71-.06-1.25-.14-1.68-.2-.78-.12-1.25-.19-1.65.06-1.92,1.19-3.94,2.33-5.9,3.43-7.2,4.06-14.65,8.26-19.14,16.13-1.43,2.5-3.88,3.48-7.3,2.9a32,32,0,0,1-7.29-2c-15-6.41-28.56-5.43-41.35,3-4.73,3.12-10.33,6.47-16.89,6.66-30.21.92-59.31,4.39-83.79,7.66-89.49,11.95-167.4,31.5-238.17,59.77-70.36,28.1-121.35,61.21-160.47,104.2-4.11,4.52-7.82,7.2-11.68,8.45-10.41,3.36-17.06,10.84-22.71,18.41-2.57,3.45-5.35,6.84-8,10.12l-2,2.41c-1.93,2.37-3.5,5-1.87,8.17,2.05,4,.13,6.81-2.38,9.81-25.28,30.2-49.12,64.3-77.3,110.57-9,14.83-18.64,28.54-36.92,33.36a4.72,4.72,0,0,0-1.07.48,3.89,3.89,0,0,1-.71.35c-4.91,1.75-6.88,5.46-5.38,10.2,3.37,10.67,1.5,20.49-5.88,30.92l-.23.32c-2.41,3.41-5.42,7.65-5.21,11.44.32,5.63-2.05,9.74-4.55,14.08-.29.51-.59,1-.88,1.54-13.27,23.52-24.16,44.63-33.29,64.56l-.77,1.66c-4.79,10.44-9.74,21.23-11.75,32.8-4.2,24.31,3.9,39.82,24.75,47.42,7.76,2.82,14.95,5.18,22,7.22,37.79,11,75.31,19,116.93,27.65,48.87,10.16,106.94,20.9,167.16,23.55l17.78.9c22.55.31,45.46.22,66.85.08,24.32-.16,52.2-3.24,74.58-24.79,3.15-3,5.92-1.43,9.13.44l.12.07q12.09,7,24.22,14c14.32,8.26,29.13,16.79,43.62,25.31a12.94,12.94,0,0,0,6.52,2.1,10.72,10.72,0,0,0,5.82-1.91,134.37,134.37,0,0,1,17.26-9.77c6.91-3.08,9.2-9.58,10.42-14.91,2.26-9.86.26-19.61-1.67-29a132,132,0,0,1-2.47-15c-.19-2.25-2.14-3.32-3.87-4.26l-.82-.46-4.2-2.44c-6.64-3.86-13.49-7.85-20.27-11.73-1.42-.81-2.41-1.54-2.61-2.47a3.7,3.7,0,0,1,1-2.77c8.87-12.47,16.08-26.18,23.06-39.43,5.39-10.23,11-20.81,17.25-30.74,4.37-6.9,9.47-16.14,10.12-26.4.35-5.4,2.26-9.54,6.61-14.29l4-4.34c10.18-11,20.7-22.39,27.93-35.95,22.62-42.41,49.38-85.35,84.23-135.12,41.7-59.57,76.46-102.73,112.69-139.93,4.81-4.94,9.73-9.93,14.5-14.76,9.29-9.42,18.9-19.15,28.11-29C995.92,328.37,999.84,316.15,996.24,303.47Zm-314,543.91c.06.49.14,1,.21,1.48.53,3.52,1,6.84-3.14,9.22-3.13,1.79-5.2,1.74-7.92-.18-1.71-1.22-1.68-2.22-1-3.66s1.46-3,2.67-3.43a2.51,2.51,0,0,1,.92-.16,6.11,6.11,0,0,1,2.49.68c1.21.56,1.89.29,2.24,0,.9-.84.51-2.71.13-3.69a5.1,5.1,0,0,0-3-2.6c-.39-.18-.77-.35-1.11-.54,2.48-3.09,4.82-4.56,6.48-4.07,1.46.44,1.42,1.88,1.18,4.21A13.82,13.82,0,0,0,682.29,847.38ZM686,874c.27,3.87-1,6-3.88,6.74.11-.33.22-.67.34-1,.46-1.38.94-2.82,1.3-4.26.82-3.28.2-5.53-1.9-6.88-2.39-1.55-4.85-1.08-7.52,1.46l-.17.16c-1.91,1.82-3.71,3.53-6.39,4.25-2.28.61-3.31,2.67-2.9,5.79.37,2.81,2.47,3,4.32,3.15l.38,0c1.48.14,2.91.25,4.3.25a17.43,17.43,0,0,0,4.9-.63,42.43,42.43,0,0,1-6.53,3.81c-1.52.77-3.09,1.56-4.56,2.46q-1.63,1-2.4.63c-.58-.28-1-1.27-1.16-3-1-8.47-.35-16.78,10.36-20.14a16.07,16.07,0,0,0,4.39-2.6c1.72-1.28,3.27-2.43,4.73-2.43a2.62,2.62,0,0,1,1.49.47c1.83,1.22,1.5,4.15,1.15,7.25A26,26,0,0,0,686,874Zm-10.3-36.63a11.45,11.45,0,0,0-1.69.81c-2,1.27-4.13,2.52-6.16,3.73s-4,2.36-5.91,3.59c-.21.13-.45.26-.69.39-1.19.64-2.83,1.53-2.32,4a.48.48,0,0,0,.28.35c2.12.93,3.81,0,5.44-.8a10.91,10.91,0,0,1,3-1.18,28.8,28.8,0,0,1-1.18,2.79,14.34,14.34,0,0,0-1.7,5.41c-.16,3.87,2.37,5.37,5,6.7a7.39,7.39,0,0,1-3.19,2.37c-.5.25-1,.51-1.51.81-1.06.66-2.18,1.2-3.47,1.84-.41.19-.83.4-1.27.62l-1.66-13.47a.48.48,0,0,0-.26-.37.51.51,0,0,0-.45,0c-3.15,1.52-3,3.84-3,5.71,0,.33,0,.65,0,1-.12,9-.16,18.25-.19,27.15l0,6.38c0,1.42,0,3-.66,3.4-.32.19-1.06.21-2.7-.74l-48.94-28.26-16.66-9.61c.17-1.88,1.33-2.22,2.56-2.58a7.15,7.15,0,0,0,.74-.23,156.54,156.54,0,0,0,33.19-16.92c3.93-2.58,7.05-2.58,11.15,0,4.83,3,9.74,5.78,15.63,8.93a12.38,12.38,0,0,1,1.07.66c1.55,1,3.48,2.23,6.23.8a.5.5,0,0,0,.2-.7c-2.48-4-6.3-6-10-8-1.12-.58-2.28-1.19-3.35-1.84l-.41-.24c-5.28-3.17-8.18-4.91-8.31-6.54s2.48-3.78,7.2-7.69l.12-.1c9-7.42,9-7.42,19.15-1.45,2,1.18,4.07,2.34,6.12,3.5s4.47,2.52,6.69,3.83a14.3,14.3,0,0,0,1.57.77c1.47.65,2.86,1.26,3,2.66S677.38,836.71,675.67,837.41ZM959.73,358.67c-4,4-8.08,8.06-12.08,12.13-43.09,43.93-83.33,93.24-123,150.72-34.71,50.28-61.22,92.93-83.44,134.24-8,14.89-19.72,27.38-31,39.47-1.53,1.64-3.07,3.27-4.59,4.91a126.07,126.07,0,0,0-19,26c-.14.26-.33.54-.52.83-.64,1-1.36,2.08-1.08,3.18a2.53,2.53,0,0,0,1.4,1.54c1.9,1,3.1-.92,3.88-2.2.17-.26.33-.52.49-.75,1.18-1.69,2.19-3.44,3.26-5.3a46.15,46.15,0,0,1,6.86-9.74,19.54,19.54,0,0,1-2.68,11.78c-4.9,8.7-9.61,17.73-14.16,26.46-9.87,18.93-20.07,38.5-32.92,56-14.82,20.13-36.63,34.76-68.65,46l-.58.2c-4.42,1.56-9,3.17-12.7,6.44-15.73,13.9-34.18,21.09-56.42,22-48.89,2-92.33,1.19-132.79-2.4-43.67-3.87-87-12-127.39-20.18C215,852.34,165.47,841.65,116,826.64c-7.22-2.19-12.63-4.84-17-8.35-13.26-10.54-12.52-24.91-9.75-38.88,2.25-11.32,7.3-21.95,12.19-32.23l1.39-2.95c9.58-20.27,20.36-40.71,32.95-62.46.2-.34.38-.68.57-1a12.7,12.7,0,0,1,1.75-2.69c.49-.53,1.08-1.06,1.64-1.57,1.64-1.49,3.34-3,3.31-5q0-2.18-2.8-4.47a7.43,7.43,0,0,1,.88-3,54.46,54.46,0,0,1,4-7.26c5.27-7.75,10.74-18.27,6.3-31.07-1.21-3.46.12-6.17,3.72-7.65,2.6-1.06,5.15-2.35,7.61-3.6,5.19-2.62,10.56-5.33,16.58-6a3.72,3.72,0,0,0,2.65-1.07,2.07,2.07,0,0,0,.33-1.65c-.64-3.78,1.27-6.43,3.29-9.24.58-.81,1.19-1.65,1.71-2.51,31.35-51.1,58.92-90.8,86.79-124.93,1.4-1.72,2.74-3.61,2.79-6.11l.37,0a6.5,6.5,0,0,0,4.69-2.11C292.8,449.83,302.74,438,311,427.81c.63-.76,1.42-1.9,1.07-3a2.2,2.2,0,0,0-1.3-1.29c5.9-5.4,11.76-11,17.43-16.46,15.66-15,31.84-30.54,50.41-42.89a509.91,509.91,0,0,1,84-45.36c71.47-30.16,149.35-51.09,238.08-64,39-5.67,69-8.53,97.06-9.26,7.67-.2,14.05-3.75,20.45-7.69,6.82-4.19,13.27-6.25,19.91-6.25a37.85,37.85,0,0,1,13.08,2.5c21.32,7.82,43.88,12.56,65.69,17.15,3.2.67,6.4,1.34,9.6,2,10.82,2.3,21.2,6.46,30.36,10.12,16.21,6.49,27.37,19.52,34.13,39.82,3.76,11.28.26,22.77-10.41,34.15C973.79,344.64,966.64,351.77,959.73,358.67ZM307.05,425.83c-1.71,1.76-3.48,3.57-5.11,5.46-2.62,3-5.37,6-8,8.95-6.11,6.67-12.4,13.57-17.57,21.26-2.26-3-2-5.72.89-9,5.69-6.56,10.95-13.19,15.35-18.81,3.52-4.49,8.38-6.2,13.53-8l1.71-.61Z"/><path class="cls-1" d="M780.47,536.89A820.39,820.39,0,0,1,917.42,380.18c18.52-16.37,32.06-30.83,42.62-45.51,9.45-13.15,9.11-25.91-1.06-39-8.53-11-20.63-16.68-30.22-20.41-27.72-10.8-59.21-16.07-99.11-16.58-51.49-.66-106.42,4.71-167.94,16.42-95.43,18.17-176.33,45.7-247.33,84.14-45.62,24.71-85,55.88-116.91,92.64C261,493.81,225.3,542.78,185,606c-.21.34-.45.67-.69,1-1.23,1.74-2.62,3.71-1.67,6.69a.5.5,0,0,0,.56.34c3-.5,4.19-2.47,5.22-4.2L189,609c24.4-38.45,53.11-79.13,87.77-124.36,37.83-49.36,83.55-89.28,135.9-118.65C477,329.88,552,303.08,642.17,284c69.91-14.78,133.48-21.43,194.33-20.29,27,.5,51.48,4,74.69,10.61,14.22,4.06,28.94,9.42,40.35,21,12.64,12.86,13.39,25.37,2.34,39.37-8.55,10.86-18.73,21.69-32,34.11-46.54,43.44-91.3,86.78-127.33,139.14-32.11,46.68-65.79,96.63-93.59,149.07-14.65,27.64-26.59,57-38.13,85.4-4.08,10-8.3,20.43-12.58,30.58-13.3,31.55-35.61,52.85-66.33,63.3l-.11,0a19.46,19.46,0,0,0-2.94,1.19,3.17,3.17,0,0,0-1.72,1.71,1.83,1.83,0,0,0,.24,1.45,3.12,3.12,0,0,0,2.46,1.13H582a15.39,15.39,0,0,0,3.85-.93,112.29,112.29,0,0,0,50.06-34c13.2-15.42,20.44-34.16,27.44-52.28l2.07-5.34c12.78-32.77,23.67-57.61,35.3-80.55C724.8,621.2,753.29,577.28,780.47,536.89Z"/><path class="cls-1" d="M793.79,483.74c32.14-41.48,60.33-75.19,93.39-104.9,11.73-10.55,25.42-23.14,38-36.59a86.42,86.42,0,0,0,14.28-19.89c5.27-10.39,4.21-17.32-3.9-25.55-10.18-10.32-23.53-14.1-35.26-16.43-25.93-5.16-51.88-5.48-76.23-5.37-.66,0-1.49-.07-2.35-.14-2.35-.21-4.78-.42-5.91.65a2,2,0,0,0-.61,1.59,2.78,2.78,0,0,0,.86,2.06c1.34,1.23,3.93,1.09,6.22,1,.75,0,1.45-.08,2-.07,4.55.08,9.17.1,13.63.12,15.94.07,32.41.14,48.47,2.93l2.47.42c13.29,2.29,27,4.65,38.55,12.75,11.07,7.77,12.71,15,6.07,26.73a64.64,64.64,0,0,1-5.77,8.39c-9.59,11.87-20.77,22.35-32.34,32.92C873.3,384.49,850,406.61,829.2,431.74a2099.4,2099.4,0,0,0-160.33,221c-41.89,66.67-72,123.67-94.81,179.39-9.64,23.54-27.38,36.7-52.74,39.1-43.19,4.1-85.77,2.21-118,.11-39.5-2.57-78.85-9-115.76-15.43-.5-.09-1.06-.23-1.66-.38-1.88-.47-3.83-1-5-.2a1.89,1.89,0,0,0-.84,1.34,2.82,2.82,0,0,0,.44,2.32c.9,1.16,2.8,1.31,4.47,1.44a15.9,15.9,0,0,1,1.75.19c62.74,12,121,17.79,178.15,17.67,3.3,0,6.7.07,10.19.07,15.52,0,32.7-.5,49.53-2.64,25.62-3.27,43.41-16.43,52.86-39.11,18.49-44.36,40.62-88.46,67.67-134.83C686.63,630.58,735.26,559.26,793.79,483.74Z"/><path class="cls-1" d="M117.36,815.87c-.38-.1-.74-.19-1-.29-19.92-6.93-19.71-20.52-16.51-34.17,3-12.77,8.93-24.24,15.26-35.84,44.24-81,89.76-151.83,139.17-216.46q2.56-3.37,5.08-6.8c5.16-7,10.49-14.14,16.74-20.4a3.63,3.63,0,0,0,1.17,2.12c1.17,1,2.78.77,4.35.6.38-.05.76-.09,1.13-.11,27.07-1.77,59-2.9,90.84,2.11,6.47,1,13.1,1.71,19.5,2.39q3.65.38,7.31.79a11.26,11.26,0,0,0,1.24.09,2.21,2.21,0,0,0,2.51-1.74c.42-2.07-1.59-2.51-2.78-2.78l-.13,0c-2.08-.46-4.36-.89-7-1.29-37-5.78-76.43-7-117.07-3.72l.07-.16a8,8,0,0,1,1-1.79c19.2-23.83,42-51.09,69.24-72.91,53-42.45,116.1-74.61,198.49-101.2,16.15-5.21,33.11-10,51.87-14.75l.44-.11c1.71-.41,4.56-1.1,4.06-3.65a2.46,2.46,0,0,0-1.08-1.74c-1-.58-2.3-.14-3.46.25-.31.1-.61.2-.88.27-74.7,19.54-134,42.46-186.56,72.13C363.27,403.25,322.48,437,289.08,476.94c-42.74,51.14-83.62,108-121.51,168.92-24.92,40.08-47.06,76.39-65.65,114.93-4.65,9.63-7.35,18-8.49,26.34-2.29,16.76,4.94,28.12,20.9,32.85.31.09.66.22,1,.35a9.14,9.14,0,0,0,2.88.69,2.33,2.33,0,0,0,2.36-1.68,2.15,2.15,0,0,0,0-1.78C120,816.54,118.6,816.18,117.36,815.87Z"/><path class="cls-1" d="M646.26,545.27a2.35,2.35,0,0,0-2,2.16c-.57,4-.65,8.55,3.07,11.73a5,5,0,0,0,3.28,1.33c2,0,3.87-1.37,5.46-2.56l.52-.38c26.21-19.22,44.35-41.49,55.44-68.1a115.25,115.25,0,0,0,8.61-53c0-.21,0-.43,0-.65-.06-1.54-.16-3.85-2.55-3.85h0a2.34,2.34,0,0,0-1.89.78c-.82,1-.67,2.56-.45,3.83.54,3.05-1,4.46-3.71,5.86-7.61,3.87-15.32,7.85-22.78,11.7q-9.75,5-19.5,10-9.19,4.69-18.4,9.31c-6.94,3.5-14.12,7.12-21.16,10.72-.36.19-.79.37-1.24.57-1.57.69-3.36,1.48-3.81,2.75a1.91,1.91,0,0,0,.14,1.59,2.67,2.67,0,0,0,1.62,1.48c1.32.38,2.81-.54,4.13-1.35a13.59,13.59,0,0,1,1.43-.8c5-2.27,10-4.83,14.82-7.31l3-1.56q9.76-5,19.51-10c13.47-6.91,27.4-14.05,41.12-21,.32-.16.65-.36,1-.57,1.84-1.09,3.11-1.7,4-.22a3,3,0,0,1,.41,2.3,6,6,0,0,1-3,3.34c-.86.51-1.77,1-2.66,1.44l-17.24,8.94c-20,10.38-40.7,21.1-61,31.72a12.79,12.79,0,0,1-1.18.54c-1.77.76-3.77,1.61-4.32,4.46a.5.5,0,0,0,.38.58c2.92.72,5.24-.58,7.29-1.73.46-.26.92-.51,1.37-.74q17.25-8.73,34.46-17.51,19.73-10,39.45-20a13.44,13.44,0,0,0,1.31-.81c.94-.63,2-1.35,2.77-1.18a1.29,1.29,0,0,1,.82.67,3.42,3.42,0,0,1,.46,2.69,6.23,6.23,0,0,1-3,3.63c-1.08.65-2.23,1.24-3.35,1.8l-1.16.59-16.32,8.43c-16.73,8.64-34,17.57-51,26.41l-1,.47c-2.19,1-4.92,2.32-5.95,7.34a.5.5,0,0,0,.18.5.49.49,0,0,0,.53,0l77.77-39.56c-.12,5.3-2.47,7.55-6.41,9.55-19,9.64-38.22,19.54-57.13,29.41-.62.32-1.26.63-1.9.93-2.77,1.31-5.63,2.66-7.18,5.69a.5.5,0,0,0,0,.46l.9,1.71a.51.51,0,0,0,.67.22l66-33.3c-.36,5.29-3.15,7.79-7.2,9.86-19.26,9.85-35.22,18.11-50.22,26-.33.18-.68.34-1,.51-2.37,1.15-5.06,2.45-5.16,6.8a.48.48,0,0,0,.23.43.53.53,0,0,0,.49,0l54.94-27.31a14.43,14.43,0,0,1-8.18,9.94c-11.41,5.73-23.37,11.94-37.65,19.55-.33.18-.68.35-1,.52-2.42,1.18-5.16,2.53-5.18,7.14a.5.5,0,0,0,.24.43.48.48,0,0,0,.48,0l40.26-20.39.45.82C676.59,534,662.44,542.14,646.26,545.27Z"/><path class="cls-1" d="M771.73,369.25c1.47-14.89-1.75-28.45-9.32-39.22s-19.17-18.1-33.35-20.91a113.11,113.11,0,0,0-32.78-1.49,468.52,468.52,0,0,0-64.57,11.18c-73.37,17.47-135.63,53-185.07,105.54-7.9,8.39-14.73,16.17-18.34,26.35-1.19,3.36-.9,6.66.79,9.05a7.71,7.71,0,0,0,6.53,3.22h.25c1.18,0,3,0,3.37-1.9.37-1.75-1.28-2.23-2.17-2.48l-.2-.06c-2-.59-3.22-1.45-3.75-2.61-.8-1.76.07-4.1,1.12-6.38a67.05,67.05,0,0,1,9.56-14.26c15.34-18.59,33.64-33.83,51.14-47.52,41.42-32.43,91.28-54.43,152.43-67.27,23.24-4.88,46.07-9.15,69.86-7.89,27.72,1.47,47.5,18.78,49.23,43.08a109,109,0,0,1-1.92,30.55c-6.49,30.26-18.82,60.89-37.69,93.66-15.77,27.38-38.35,62.05-73.21,87.34l-.34.24c-1.6,1.13-3.58,2.54-3.22,6.84a.5.5,0,0,0,.74.39c9.43-5.09,16.75-11.47,22.67-17,26.42-24.83,48.64-55.79,68-94.65C754.41,436.93,768.15,405.38,771.73,369.25Z"/><path class="cls-1" d="M944,270.42a294.73,294.73,0,0,0-61.08-17.68l-.92-.17c-2.19-.42-4.66-.9-7.41,1.06a.5.5,0,0,0-.21.42.47.47,0,0,0,.22.4c3.48,2.34,3.7,2.38,6.35,2.9l.35.06c20.38,4,44.3,9.6,67.18,20.81,13.38,6.56,22.49,17.92,27.86,34.71a19.22,19.22,0,0,1-3.84,19.38c-4.22,4.95-9.84,11.41-16,17.52-17.54,17.46-38,38.27-57,60.26-53.77,62.44-104.5,132.67-150.78,208.73-3.2,5.27-6.34,10.69-9.38,15.94-10.67,18.4-21.7,37.43-37.24,52.94-9.11,9.09-16,18.15-20.95,27.7a72.11,72.11,0,0,0-3.89,9.55,3.37,3.37,0,0,0,.09,2.62,2.48,2.48,0,0,0,1.54,1.24,2.84,2.84,0,0,0,.77.12c1.47,0,1.93-1.51,2.23-2.47l.07-.22c4-12.54,12.57-22.33,20.89-31.79l.42-.48,3.23-3.66c9.58-10.84,19.48-22.06,26.68-35,19.88-35.67,43.1-72.42,73.06-115.64,51.67-74.53,102-135.53,154-186.48,2.53-2.49,5-5.12,7.37-7.66,1.79-1.92,3.65-3.91,5.52-5.81,10-10.21,11.66-22.45,5-37.39C971.56,287.67,960.07,276.92,944,270.42Z"/><path class="cls-1" d="M524,833c7.9-1.56,16.83-4.22,23.15-12,7.79-9.6,12.91-21.14,16.63-37.45,6.37-28,6.8-58.31,1.32-92.75-9.39-59-39.13-104.67-88.41-135.86-16.19-10.25-34.25-15.84-48.19-19.56l-.69-.2c-1.44-.41-3.23-.93-4.42-.23a2.29,2.29,0,0,0-1.05,1.52,2.23,2.23,0,0,0,.24,1.78c.65,1,2.18,1.38,3.52,1.68.45.1.89.19,1.26.31,2.36.74,4.78,1.44,7.11,2.12,3.53,1,7.17,2.08,10.7,3.29,24.56,8.41,45.88,22.42,65.2,42.82,1.52,1.62,2.13,2.73,2,3.62s-1.1,1.71-3,2.64c-2.63,1.31-5.17,2.88-7.62,4.39-1.68,1-3.41,2.11-5.15,3.08-6,3.35-8.88,8.54-9.14,16.34-.57,16.79,6.67,30.42,22.16,41.68,6.87,5,14.79,5.21,22.3.61,1.84-1.13,3.7-2.24,5.56-3.35,3.06-1.82,6.22-3.71,9.27-5.67,1-.66,1.75-.9,2.24-.74s.92.74,1.33,1.79a185.82,185.82,0,0,1,9,32c0,.17.08.36.13.56.16.65.36,1.45.07,1.83a1.49,1.49,0,0,1-1.12.35,4.18,4.18,0,0,1-1.56-.43,3.32,3.32,0,0,0-2.63-.34,2.31,2.31,0,0,0-1.11,1.5c-.58,1.87.89,3.08,2.18,4.15a9.89,9.89,0,0,1,1.4,1.3c.36.44.76.86,1.16,1.28a18.13,18.13,0,0,1,1.38,1.58,14.47,14.47,0,0,1-3.67,21.49c-9.42,6.36-18.76,12.91-27.45,19l-.9.59c-1.53,1-3.26,2-3.45,4.78a.51.51,0,0,0,.37.52c2.82.78,4.55-.57,6.08-1.75.33-.26.67-.52,1-.75,8.08-5.47,16.22-11.13,24.09-16.61l3.41-2.37c1.14-.79,2.87-2,3.69-1.58.37.19.83.85.9,2.93.94,28.76-.28,52.65-9.33,75.76-5.43,13.88-12.93,27.08-30.83,29.57a4,4,0,0,0-3,1.36,2.4,2.4,0,0,0,2.33,3.55A7.35,7.35,0,0,0,524,833Zm10.59-187.84a2.41,2.41,0,0,0-1.87.29c-.87.61-1.08,1.85-1.25,2.94a10.9,10.9,0,0,1-.26,1.25c-1.58,5.09-3.92,8.24-7,9.36s-6.57.28-10.78-2.39c-12.52-7.92-19.72-19.48-21.41-34.35-.67-5.92.28-10.12,2.82-12.49,1.78-1.65,4.41-2.48,7.86-2.48a29.3,29.3,0,0,1,5.45.56l.44.09a3.74,3.74,0,0,0,3.82-.77.5.5,0,0,0,.15-.45c-.35-2-1.78-2.75-3-3.37a4.35,4.35,0,0,1-1.87-1.32c4.5-3.53,6.78-5.31,8.63-5.06s3.49,2.41,6.83,6.77l.09.12c7.41,9.64,14.07,20.58,21.6,35.48,1.65,3.26,2.08,5.29,1.46,6.79-.54,1.33-2,2.36-4.41,3.17a22.23,22.23,0,0,0-4,2l-1.37.78-.09-.34a4.71,4.71,0,0,1-.21-1.1,8.83,8.83,0,0,1,.15-1.35C536.66,647.74,537,645.64,534.62,645.18Z"/><path class="cls-1" d="M904.75,330.58c-.66,1-1.33,2-2,3.09a3,3,0,0,0-.49,2.32,1.8,1.8,0,0,0,1.05,1.12c1,.47,2.61-.5,2.79-.61,5.65-3.53,9-10.37,8.85-17.85s-3.73-13.78-9.48-17a67.93,67.93,0,0,0-16.35-6c-24.85-6.24-50.66-6.85-73.43-7.38-33.58-.79-69.19,1.7-112.07,7.84-114,16.34-219.52,51.4-313.52,104.2a44,44,0,0,0-4.38,2.77,3,3,0,0,0-1.37,1.94,1.86,1.86,0,0,0,.55,1.45,2.7,2.7,0,0,0,1.88.63,2.47,2.47,0,0,0,1-.18c3.5-1.53,6.26-2.87,8.69-4.23a858,858,0,0,1,195.94-79.16c75.33-20,146.24-29.9,216.76-30.25h0a339.38,339.38,0,0,1,55,2.79c11.12,1.52,24,3.56,36,8.71,5.45,2.34,8.55,4.93,9.74,8.13s.58,7-1.87,12.05A51.6,51.6,0,0,1,904.75,330.58Z"/><path class="cls-1" d="M453.46,824.87c2.87.28,4.75-1.16,6.4-2.44.35-.27.7-.54,1.05-.79,9.23-6.53,19.7-13.94,29.71-21.42,2-1.47,3.13-2,4-1.73s1.74,1.3,2.65,3.36c5.56,12.58,11.69,25.16,17.62,37.32l.22.44c.18.37.35.75.52,1.13,1,2.29,2.22,4.88,5.35,5.77l.13,0a.54.54,0,0,0,.3-.1.52.52,0,0,0,.2-.4v-.61c0-3.94-.06-4.49-3.37-10.91-21.17-41-37-84.82-50.92-126.08-13.47-39.89-26.2-82.29-40.07-133.45a21.46,21.46,0,0,1-.45-2.18c-.48-2.68-1-5.73-4.3-7.36a.49.49,0,0,0-.64.18c-1.58,2.44-.94,4.66-.38,6.63l.24.86.52,2c1.69,6.47,3.43,13.17,5.32,19.71q9.34,32.38,18.77,64.76l6.67,23c-2.67-1.17-5.41-.87-8-.43-4.46.75-8.92,1.46-13.38,2.18-7,1.13-14.32,2.31-21.46,3.6-21.1,3.82-41.78,8.39-61.47,13.58-.4.1-.87.19-1.37.29-1.68.33-3.59.71-4.29,1.84a1.93,1.93,0,0,0-.19,1.57,2.68,2.68,0,0,0,1.29,1.79,2.54,2.54,0,0,0,1.19.27,9.37,9.37,0,0,0,3-.75,13.78,13.78,0,0,1,1.69-.53c5-1,10-2.19,14.85-3.39l5-1.22a5.73,5.73,0,0,1-1.06,1.34c-.82.86-1.94,2-.55,3.42,1.8,1.8,3.71.41,5.25-.71.34-.25.67-.49,1-.69a3.76,3.76,0,0,0,1.59-1.54c1.46-3.75,4.71-4.43,8.15-5.15l.87-.19c17.6-3.82,35.3-6.72,55-9.84,1.12-.18,2.31-.27,3.47-.35,3.51-.25,7.13-.52,10-3.27.63,1.84,1.25,3.7,1.86,5.55,1.62,4.92,3.31,10,5.22,14.91,1.63,4.17.84,6.49-3,8.88-.79.49-1.6.95-2.42,1.42-3.8,2.16-7.72,4.39-10.23,9.29a.5.5,0,0,0,0,.49.58.58,0,0,0,.51.24c4.67,0,7.59-2.2,10.42-4.32.56-.43,1.13-.85,1.69-1.25l.32-.22c3.12-2.18,4.83-3.37,5.76-3.08s1.58,2.15,2.81,5.52l.09.26q4.28,11.79,8.59,23.56,4.08,11.14,8.14,22.3a11.87,11.87,0,0,0,.65,1.41c.64,1.27,1.24,2.46.49,3.55-.91,1.3-2.06,1.07-3.85.53A12.8,12.8,0,0,0,479,773c-36.84-5.8-73.12-13.6-113.34-22.45l-1.4-.35c-2.41-.62-4.89-1.27-7.51.3a.5.5,0,0,0-.22.58c.9,2.79,3,3.16,4.77,3.46.32.06.64.11.93.18,34.2,7.91,74.65,16.81,115.29,22.86,7.76,1.15,12.11,3.18,14.36,11.1,1,3.69.58,5-2.49,7.08-9.31,6.25-18.58,12.9-27.54,19.32l-5,3.61-.72.49c-1.6,1.06-3.57,2.38-3.09,5.28A.5.5,0,0,0,453.46,824.87Z"/><path class="cls-1" d="M714.53,519.93h0c2.91-.2,4.35-1.93,5.63-3.47.22-.27.45-.54.68-.8,7.59-8.49,13.32-15.06,18.6-21.29,22.53-26.65,48.07-56.84,67.42-90.7C819,382.43,827.72,364,830.72,342.86c2.56-18.06-4-29.75-20.77-36.78a68.23,68.23,0,0,0-20-5.2,434.63,434.63,0,0,0-84.72.73c-.62.06-1.27.07-2,.09-2.51.06-5.35.13-7.83,2.73a.5.5,0,0,0-.13.37.5.5,0,0,0,.18.36c2.35,2,4.58,1.72,6.55,1.51.34,0,.67-.08,1-.1l7.7-.6c17.82-1.4,36.25-2.86,54.44-2.12l.56,0c13.88.55,28.23,1.13,41.51,6.72,14.24,6,19.48,14.23,18.69,29.42a64.24,64.24,0,0,1-2.75,14.36c-9.35,32.21-27.52,59.79-45.76,84.8C760.82,462,742.08,483.77,724,504.83l-5.48,6.37c-.37.43-.77.84-1.18,1.26-1.71,1.76-3.64,3.75-3.27,7A.5.5,0,0,0,714.53,519.93Z"/><path class="cls-1" d="M468.76,868.21H469q7.06-.08,14.13-.19c8.18-.12,16.62-.24,24.95-.24h1.57c28.92,0,47.33-13.28,57.91-41.78,18.26-49.17,44.28-95.8,67.23-135.65,14.71-25.54,30.53-50.57,42.67-69.53.36-.57.77-1.13,1.18-1.7,1.74-2.42,3.72-5.17,3.24-9.46a.51.51,0,0,0-.28-.39.49.49,0,0,0-.47,0c-3.8,2.21-5.71,5.26-7.56,8.21-.3.47-.59.94-.89,1.4-26.2,40.39-50.83,82.58-73.21,125.43-14.82,28.39-28.68,58.57-42.36,92.28-5.77,14.23-16.7,22.35-33.4,24.83-16,2.37-32.43,2.51-48.31,2.64h-1c-.55,0-1.12,0-1.69,0-2.38-.09-5.07-.19-7.83,1.62a.57.57,0,0,0-.22.34.5.5,0,0,0,.11.39A4.5,4.5,0,0,0,468.76,868.21Z"/><path class="cls-1" d="M565.44,791.7a2.06,2.06,0,0,0,1,.28,1.8,1.8,0,0,0,.6-.1c1.55-.51,2.62-3,3.57-5.11.24-.54.46-1,.68-1.48,10.94-22.23,19.75-45.28,26.21-62.87C613,680.21,630.57,632.36,638,582.53c4.89-32.89-1.68-61.5-20.11-87.48-.23-.33-.47-.72-.73-1.13-.95-1.52-2-3.24-3.51-3.53a2.47,2.47,0,0,0-2,.52,2.51,2.51,0,0,0-1.12,1.73c-.15,1.36,1.06,2.74,2.12,3.95.42.47.8.91,1.09,1.31,14.05,20.17,20.84,40.44,20.75,62h0c.15,10.17-1,21.09-3.61,34.37-13.69,69.63-40.06,134.43-64,188.64a19,19,0,0,1-1.1,2c-1,1.74-2.13,3.55-1.72,5.1A2.77,2.77,0,0,0,565.44,791.7Z"/><path class="cls-1" d="M635.86,367c-6-2.84-12.47-2.1-18.16-1.45-52.1,6-102.79,26.35-159.52,64.09-4.71,3.13-7.87,6.37-10,10.2s-1.79,7,1,9.37a8.88,8.88,0,0,0,5.67,2.57,7.74,7.74,0,0,0,4.43-1.56.53.53,0,0,0,.22-.4.54.54,0,0,0-.2-.41c-.38-.28-.69-.54-1-.77a7.89,7.89,0,0,0-1.48-1c-3.17-1.57-4.47-2.6-4.64-3.68s.7-2.4,3-4.68a67.37,67.37,0,0,1,10.2-8.63c37.29-24.46,76.33-42.45,116-53.45a9.08,9.08,0,0,0,1.08-.41c1.39-.59,2.28-.9,3,.24a4.14,4.14,0,0,0,2.75,2.13c1.69.27,3.22-1,4.34-1.94l.12-.1c5.92-4.93,13.07-5.08,20-5.23l2.47-.07-3.13,1.71c-4.82,2.62-9.8,5.33-14.67,8.05l-.53.28c-1.2.62-3,1.55-2.22,3.51a2.08,2.08,0,0,0,1.15,1.25,3.42,3.42,0,0,0,2.67-.54l.68-.31a124.75,124.75,0,0,0,15.63-8c6.6-3.77,13.43-7.67,21-9.83a.5.5,0,0,0,.08-.93Z"/><path class="cls-1" d="M294.44,549.35a.51.51,0,0,0-.09-.78l-2.93-1.85a.48.48,0,0,0-.6.06c-29.18,26.58-52.08,60.74-70,104.41-12.92,31.47-21.47,63-25.42,93.65a.5.5,0,0,0,.32.53l3.12,1.17a.47.47,0,0,0,.17,0,.55.55,0,0,0,.25-.07.47.47,0,0,0,.24-.35C214.49,660.49,244.66,598,294.44,549.35Z"/><path class="cls-1" d="M391,445.11c.15.53.3,1,.45,1.52.4,1.36.75,2.54,1,3.73q2.61,11.55,5.21,23.11c3.28,14.59,6.68,29.69,10.07,44.52.11.46.19,1,.28,1.57.27,1.79.58,3.82,1.75,4.6a1.92,1.92,0,0,0,1.09.33,2.39,2.39,0,0,0,.63-.09,2.8,2.8,0,0,0,1.91-1.32c.7-1.28.08-3.08-.47-4.66a18,18,0,0,1-.53-1.73c-4.56-21-10-45.89-15.83-71.46-.89-3.9-.05-5.85,3.32-7.75.47-.27.94-.52,1.43-.78,3.35-1.81,7.14-3.86,9.28-9.05a.52.52,0,0,0-.06-.5.51.51,0,0,0-.46-.19c-4.74.61-7.61,2.77-10.39,4.86-.68.52-1.35,1-2,1.49a8,8,0,0,0-.79.67c-.49.46-1,.93-1.44.9a1.32,1.32,0,0,1-.81-.58c-1-1.32.24-2.72.84-3.26l.35-.31c1-.89,2.3-2,2-3-.29-.86-1.51-1-2.4-1.1-2.51-.17-2.69-1.15-3-2.64-.06-.3-.12-.61-.2-.93-.39-1.51-.7-3.07-1-4.58s-.57-2.8-.91-4.18c-.26-1-.8-3.23-3-2.67-1.25.3-1.73,1.4-1.42,3.25.27,1.62.12,2.76-.45,3.38-.87,1-2.79.81-4.65.67l-.34,0-5.43-.45c-2.62-.22-5.33-.46-8-.62h-.14c-1.13-.07-3.24-.2-3.42,2s2.07,2.48,3.15,2.59l1.73.19c4.88.52,9.93,1.06,14.92,1.27h.15c2.51.1,3.89.16,4.44,2.92.61,3.08.43,4.73-2.29,6.43-7.41,4.61-13.78,10.72-19.94,16.63l-.3.29-.51.45c-1.17,1-2.78,2.43-1.46,5.58a.52.52,0,0,0,.31.29.54.54,0,0,0,.41-.05,81.32,81.32,0,0,0,10.72-8.18c2.22-1.9,4.31-3.69,6.57-5.35a27,27,0,0,0,2.57-2.33c1.55-1.52,3.29-3.23,4.35-3.15a.78.78,0,0,1,.61.41,2.26,2.26,0,0,1,.49,1.75c-.26,1.25-2,2.32-3.63,3.35a17,17,0,0,0-3,2.15c-1.08,1.1-2.25,2.16-3.37,3.19C376.22,451,373,454,371,458a.5.5,0,0,0,.6.7c5.34-1.75,9.29-5.18,13.48-8.81C387,448.29,388.92,446.62,391,445.11Z"/><path class="cls-1" d="M296,589.36l-.2.36c-15.2,27.2-25.5,52.23-31.48,76.52-4.43,18-4.19,32.75.74,46.51a37.41,37.41,0,0,0,15.26,19,5.84,5.84,0,0,0,2.86,1.17,2,2,0,0,0,1.75-1,2.1,2.1,0,0,0,.4-1.61c-.2-1-1.24-1.73-2.07-2.29l-.35-.24a36.93,36.93,0,0,1-12.83-16.18c-4.13-9.73-4.92-20.9-2.46-35.14,5-29.05,17.45-55.64,30.17-80.05.44-.85.95-1.71,1.44-2.54a22.5,22.5,0,0,0,3.06-6.87l0,.06c.55,1.76,1.12,3.59,1.54,5.41,1.08,4.64,2.13,9.29,3.18,13.93,1.37,6.05,2.79,12.3,4.24,18.44.09.36.16.77.23,1.21.25,1.5.52,3.21,1.67,4a2.58,2.58,0,0,0,2.14.21c2.47-.68,1.81-3.19,1.33-5a13.67,13.67,0,0,1-.37-1.71c-.16-1.33-.39-2.67-.61-4-.06-.38-.13-.77-.19-1.15,2.6,0,3.94-1.79,5.28-3.91,2.87-4.59,5.73-9.3,8.5-13.86C342,579.63,355.17,558,374,541a3.55,3.55,0,0,0,1.5-2.35,2.13,2.13,0,0,0-.76-1.57c-1.33-1.26-3-.15-3.57.22a56,56,0,0,0-11.46,10.44c-14.95,17.33-27,37-39.06,57.33-.51.85-1,1.69-1.57,2.53a32.5,32.5,0,0,0-4.2,8.29c-5.38-19.05-9.28-38.73-13-57.79q-1.15-5.84-2.32-11.67c-.4-2,.37-3,2-4.22,4.33-3.21,8.68-6.55,12.89-9.77,9-6.88,18.29-14,27.92-20.34.25-.16.51-.32.79-.47,1.72-1,3.86-2.24,3.3-6.49a.5.5,0,0,0-.27-.38.5.5,0,0,0-.46,0c-17.67,9.82-32.56,21.83-47.48,34.33-.2-1-.38-1.84-.54-2.67-.46-2.28-.83-4.09-1.26-5.92-.07-.3-.12-.64-.18-1-.19-1.19-.41-2.53-1.35-3.16a2.36,2.36,0,0,0-1.9-.25c-2.54.58-2,3.09-1.61,4.75.07.29.13.57.18.83.95,5.37,2,10.81,3.05,16.07l.65,3.34c.38,1.87.66,3.22-1.2,4.72-24.75,20.08-40,46.2-51.67,69.09-.17.32-.36.65-.56,1-1,1.62-2.2,3.63-.27,6.4a.49.49,0,0,0,.41.21.53.53,0,0,0,.27-.08c2.9-1.89,4.25-4.69,5.55-7.41.34-.7.68-1.4,1-2.08,13.06-24.51,27.53-44.2,44.24-60.19,1.25-1.19,2.63-2.44,3.4-2.18.4.13,1,.79,1.35,3.18.79,4.88,1.71,9.81,2.59,14.58.36,1.93.72,3.87,1.07,5.8C298.6,584.76,297.24,587.19,296,589.36Z"/><path class="cls-1" d="M412.48,472.65c-3,.89-6.09,1.81-6.74,3.32a1.57,1.57,0,0,0,.06,1.37,3.22,3.22,0,0,0,3.06,2c1.72,0,3.72-1,5.48-1.86a26,26,0,0,1,2.56-1.17c29-10.42,63.6-21,101-21h1.24l.59,0c1.69,0,3.8.1,5-2.47a.58.58,0,0,0,0-.39.55.55,0,0,0-.26-.28c-.24-.11-.46-.24-.68-.36a5.55,5.55,0,0,0-1.61-.67c-9.37-1.77-18.8-.63-27.91.47l-3.52.42c-28.61,3.32-55.44,12.32-75.61,19.78C414.46,472.06,413.5,472.34,412.48,472.65Z"/><path class="cls-1" d="M508,835.23a.51.51,0,0,0,.41-.77c-2.57-4.12-5.25-4-7.41-3.83-.39,0-.76,0-1.12,0-16.21,0-35.41-.31-55-2.59-8.14-1-16.41-2-24.41-3-8.7-1.08-17.7-2.2-26.56-3.22-.48,0-1-.15-1.49-.24-2.33-.43-5.16-.94-6.76,2q-2.34-5.19-4.72-10.35c-3.74-8.14-7.59-16.56-11.22-24.91-12.43-28.62-22.33-58.72-31.91-87.84-1.3-3.94-2.59-7.88-3.9-11.83-.14-.44-.27-.89-.4-1.36-.64-2.35-1.37-5-4.88-6.45a.52.52,0,0,0-.44,0,.5.5,0,0,0-.24.37c-.46,3.41.4,6.06,1.23,8.61l.24.76c9.86,31,18.55,56.85,28.89,82.47,6.28,15.58,6.28,15.58-7.17,25.12l-.28.2c-2.5,1.77-5.08,3.6-7.47,5.58-.25.21-.53.4-.81.6-1.25.89-2.8,2-2.34,4.38a.51.51,0,0,0,.3.37c2.28,1,3.93-.31,5.25-1.33.31-.23.6-.46.9-.66l2-1.33c4.62-3.08,9.4-6.27,13.77-9.83,1.58-1.29,2.7-1.8,3.53-1.59s1.56,1.18,2.49,3.36c3.81,9,8,18.38,12.91,28.72.21.45.43,1,.66,1.55.79,2,1.69,4.18,3.1,4.73a1.74,1.74,0,0,0,.67.13,2.06,2.06,0,0,0,.88-.21,2.66,2.66,0,0,0,1.55-1.56c.36-1.13-.34-2.37-1-3.57a8.31,8.31,0,0,1-1-2.39c31.42,5,68.21,10,107.51,10Q500.8,835.45,508,835.23Z"/><path class="cls-1" d="M429,626.92c1.66-.51,3.94-1.23,3.83-4.19a.5.5,0,0,0-.5-.48h-.06c-12.31,0-94.82,32.76-101.78,40.43a.5.5,0,0,0-.13.4.52.52,0,0,0,.23.36,4.55,4.55,0,0,0,2.44.76,6.42,6.42,0,0,0,2.78-.81l.55-.25c30.38-13.35,61.33-25.46,92-36Z"/><path class="cls-1" d="M336.09,532.93c-11.2,2.3-21.2,8.05-30,13.12l-.23.13c-1.45.83-3.44,2-3.8,3.47a2.13,2.13,0,0,0,.33,1.68,2.66,2.66,0,0,0,1.73,1.3l.35,0a5.53,5.53,0,0,0,3-1.51,9.79,9.79,0,0,1,1.4-1c1.43-.72,2.81-1.56,4.15-2.38s2.77-1.68,4.2-2.4c23.71-12,48.75-12,74.46-11,1.34.05,2.65.17,4,.29,4,.37,8.2.74,13-.5a.48.48,0,0,0,.37-.41.49.49,0,0,0-.23-.5l-.59-.35c-3.9-2.34-4.4-2.64-7.48-2.88C375.32,528.18,354.76,529.08,336.09,532.93Z"/><path class="cls-1" d="M539.92,681.77c-27.11-6.46-54.22-4.41-77.16-1.56a.5.5,0,0,0-.44.5l0,3.21a.48.48,0,0,0,.16.36.47.47,0,0,0,.34.13h0a741.7,741.7,0,0,1,76.9-1.66.54.54,0,0,0,.5-.43A.48.48,0,0,0,539.92,681.77Z"/><path class="cls-1" d="M143.3,668.39l2.86,1.66a.54.54,0,0,0,.25.06.49.49,0,0,0,.42-.23c12.91-20.75,24-40,34-58.82a.49.49,0,0,0-.19-.66L178,608.83a.49.49,0,0,0-.67.16c-12.56,19.75-24.23,40.67-34.18,58.72A.51.51,0,0,0,143.3,668.39Z"/><path class="cls-1" d="M698.35,392.31c-9.81.37-60.42,27.34-63.72,33.94a.49.49,0,0,0,.1.57.47.47,0,0,0,.35.15.59.59,0,0,0,.22-.05l5.66-2.8c20.3-10,39.47-19.47,57.67-30.89a.5.5,0,0,0-.28-.92Z"/><path class="cls-1" d="M689.11,384.2c-25.92,10.76-45,20.63-61.93,32a.5.5,0,0,0,.28.92.39.39,0,0,0,.18,0c20.44-7.76,40.7-18.24,61.94-32a.5.5,0,0,0-.47-.88Z"/><path class="cls-1" d="M707.79,408.74c-16.08,7.78-35,17.13-53.76,27.53l-.4.22c-1.21.64-3.23,1.72-2.36,3.6a2.37,2.37,0,0,0,1.38,1.4,2.15,2.15,0,0,0,.55.08,5,5,0,0,0,2.37-.94c.24-.15.48-.29.7-.4,19.76-10.11,36.09-18.52,51.38-26.49l.67-.32c1.48-.71,3.32-1.59,3.19-4a.49.49,0,0,0-.13-.31A2.78,2.78,0,0,0,707.79,408.74Z"/><path class="cls-1" d="M705.43,399.64c-24.86,10.5-44.63,20.75-62.22,32.25a.5.5,0,0,0-.17.65.5.5,0,0,0,.44.27.43.43,0,0,0,.19,0c23.38-9.2,43.74-19.75,62.23-32.25a.5.5,0,0,0-.47-.88Z"/><path class="cls-1" d="M423.89,821.83a.55.55,0,0,0,.25-.07,546.27,546.27,0,0,0,55.79-38,.49.49,0,0,0,.1-.68l-1.9-2.67a.5.5,0,0,0-.7-.12l-7,4.85c-15.89,11-32.32,22.34-46.87,35.78a.5.5,0,0,0,.34.87Z"/><path class="cls-1" d="M680.94,377.86h-.22c-8.15,0-56.27,24.25-61.44,31a.51.51,0,0,0,.4.81.65.65,0,0,0,.19,0,492.75,492.75,0,0,0,61.29-30.86.49.49,0,0,0-.22-.92Z"/><path class="cls-1" d="M555.38,698a.5.5,0,0,0-.52-.3c-9,1.31-55.09,34.15-56.64,40.39a.5.5,0,0,0,.2.53.47.47,0,0,0,.28.09.48.48,0,0,0,.28-.08c19.54-12.74,38.55-25.38,56.26-40.05A.48.48,0,0,0,555.38,698Z"/><path class="cls-1" d="M450.29,778.27a.49.49,0,0,0-.14-.47.49.49,0,0,0-.49-.12c-7.18,2.19-51.55,34.35-55.2,40a.48.48,0,0,0,0,.55.49.49,0,0,0,.41.22h.1C403.16,816.82,449.18,783.39,450.29,778.27Z"/><path class="cls-1" d="M276,735.28c-22.92,13.3-40.24,25.7-54.5,39.05a.49.49,0,0,0-.06.66.51.51,0,0,0,.4.2.45.45,0,0,0,.25-.07,349.6,349.6,0,0,0,54.49-39,.49.49,0,0,0,.07-.66A.49.49,0,0,0,276,735.28Z"/><path class="cls-1" d="M528.31,694.27c1.08-.77,2.42-1.73,2-4a.51.51,0,0,0-.37-.39,5.11,5.11,0,0,0-4.56,1.21l-.29.2c-14.64,10.06-30.34,20.86-45.91,31.7-.18.13-.4.26-.63.4-.91.56-2,1.24-2.21,2.31a2.25,2.25,0,0,0,.61,1.8,2,2,0,0,0,1.61.81,5.54,5.54,0,0,0,2.9-1.34l.66-.46c18.73-12.17,32.86-22,45.81-31.88Z"/><path class="cls-1" d="M711.36,418.92c-13.3,6.78-30.82,15.73-48.4,24.82l-.53.26c-1.39.69-3.73,1.83-2.76,3.85a2.44,2.44,0,0,0,1.44,1.39,2.08,2.08,0,0,0,.6.09,5.83,5.83,0,0,0,2.71-1.06c.28-.17.54-.32.79-.45,18-9.17,32.6-16.72,46.08-23.75l.77-.38c1.6-.76,3.59-1.71,3.61-4.32a.48.48,0,0,0-.15-.36C714,417.56,712.49,418.34,711.36,418.92Z"/><path class="cls-1" d="M664.64,372.73c-17.76,7.16-36.53,15.52-53.46,28.06a.5.5,0,0,0,.3.9l.18,0a273.42,273.42,0,0,0,53.45-28.06.5.5,0,0,0-.47-.87Z"/><path class="cls-1" d="M291.57,736.78a27.82,27.82,0,0,0,4.89,1.82c14.23,3.64,29.36,7.49,44.2,11.12.27.07.55.16.84.25a7.13,7.13,0,0,0,2.24.46,3.68,3.68,0,0,0,3-1.56.5.5,0,0,0,0-.58c-1.59-2.48-4.18-3-6.47-3.56-.51-.11-1-.22-1.49-.35-11-2.92-22.28-5.83-33.15-8.63l-9.72-2.52-.72-.2a10.13,10.13,0,0,0-2.52-.48c-.76,0-2.15.26-2.62,1.05a1.84,1.84,0,0,0-.23,1.51A3.11,3.11,0,0,0,291.57,736.78Z"/><path class="cls-1" d="M287.47,672.86c.11-.22.22-.43.32-.61,7.79-13.61,15.32-26.9,22.37-39.49l.27-.47c.76-1.3,1.71-2.91.47-4.73a.5.5,0,0,0-.23-.18c-2.23-.88-3.33,1-3.74,1.74-8.73,15.27-16.36,28.72-23.34,41.14l-.18.31c-.54.93-1.21,2.09-.92,3.14a1.92,1.92,0,0,0,1,1.21,2.64,2.64,0,0,0,1.33.4,2,2,0,0,0,.55-.07C286.4,674.94,287,673.83,287.47,672.86Z"/><path class="cls-1" d="M502.6,781.75c.36,0,.71.06,1,.11,9.82,1.43,19.63,2.78,29.13,4.09,6.81.93,12.49,1.71,18.45,2.41a10.13,10.13,0,0,0,1.16.09,2.65,2.65,0,0,0,1.67-.47,2.08,2.08,0,0,0,.72-1.42c.21-1.83-1.39-2.24-2.44-2.5l-.57-.16a17.92,17.92,0,0,0-2.57-.57l-3.9-.54c-13.66-1.91-27.79-3.88-41.69-5.76l-.53-.08c-1.67-.26-3.76-.57-5.14,1.66a.48.48,0,0,0,0,.45C498.86,781.42,500.85,781.59,502.6,781.75Z"/><path class="cls-1" d="M650.29,368.24c-18.67,6.15-35.36,16.31-47.81,24.48a.5.5,0,0,0,.28.91l.16,0a194.53,194.53,0,0,0,47.82-24.49.5.5,0,0,0-.45-.88Z"/><path class="cls-1" d="M547.07,446.62a.39.39,0,0,0,.18,0c14.37-5.6,31-12.87,45.81-24.29a.48.48,0,0,0,.12-.64.49.49,0,0,0-.62-.21l-1,.44c-15.36,6.48-31.25,13.19-44.76,23.85a.5.5,0,0,0-.12.64A.5.5,0,0,0,547.07,446.62Z"/><path class="cls-1" d="M606,474.16a.5.5,0,0,0,.45.38h.46c9.28,0,42.24-17.54,45.1-24.15a.49.49,0,0,0-.11-.56.51.51,0,0,0-.56-.09l-5.76,2.81c-13.57,6.62-26.38,12.86-39.36,21.06A.5.5,0,0,0,606,474.16Z"/><path class="cls-1" d="M605,426.61a.49.49,0,0,0-.63-.23,306.66,306.66,0,0,0-42.46,21.82.51.51,0,0,0-.19.65l1.43,2.77a.49.49,0,0,0,.44.27.42.42,0,0,0,.22-.05l42.51-21.57a.48.48,0,0,0,.25-.29.5.5,0,0,0,0-.38Z"/><path class="cls-1" d="M319.22,466.39c.26-.4.53-.82.81-1.23a.49.49,0,0,0,0-.53c-.11-.2-.2-.41-.29-.61-.24-.53-.46-1-.94-1.2-1.6-.54-2.64.51-3.48,1.36l-.29.29a277.83,277.83,0,0,0-24.52,28c-.2.25-.44.51-.69.78-.84.92-1.79,2-1.71,3.11A2.24,2.24,0,0,0,289,498a2.28,2.28,0,0,0,1.46.58h.2c1.21-.12,2.16-1.3,3-2.34.19-.24.37-.46.55-.66,6.71-7.63,13.86-15.84,23.16-26.61A22.35,22.35,0,0,0,319.22,466.39Z"/><path class="cls-1" d="M547,397.59a.5.5,0,0,0-.61-.23c-16,5.63-29.29,12.63-40.62,21.4a.5.5,0,0,0,.3.9.33.33,0,0,0,.17,0c16.62-6,29.53-12.8,40.63-21.4A.5.5,0,0,0,547,397.59Z"/><path class="cls-1" d="M739.44,350.33a15.42,15.42,0,0,0,8,2.91c.22,0,.54.05.9.05a2.62,2.62,0,0,0,2.87-1.79c.53-2-1.31-2.55-2.4-2.86l-.3-.08c-10.19-3-15.65-10.28-17.72-23.58a9.84,9.84,0,0,1-.07-1.39c0-1.22,0-2.49-.8-3.22a2.13,2.13,0,0,0-1.59-.54c-2.56.07-2.6,2.32-2.64,4.13a11.71,11.71,0,0,1-.12,1.81.66.66,0,0,0,0,.14A34.41,34.41,0,0,0,739.44,350.33Z"/><path class="cls-1" d="M627.62,437.84c-2.63,1.32-5.23,2.59-7.81,3.85-11.3,5.54-22,10.77-31.67,18.06a.5.5,0,0,0-.18.55.51.51,0,0,0,.47.34h.14c8.83,0,37.6-16,39.74-22.19a.5.5,0,0,0-.14-.54A.49.49,0,0,0,627.62,437.84Z"/><path class="cls-1" d="M412.83,722.68a159.7,159.7,0,0,0-37.85,26,.5.5,0,0,0-.08.64.48.48,0,0,0,.42.22.52.52,0,0,0,.21,0,140.77,140.77,0,0,0,37.87-26,.5.5,0,0,0-.57-.81Z"/><path class="cls-1" d="M287.15,723a9,9,0,0,1,1,.18,6.47,6.47,0,0,0,1.27.18,2.09,2.09,0,0,0,.61-.08c13.75-4.11,25.78-7.77,36.76-11.19L327,712c1-.3,2.29-.7,2.79-1.7a2.17,2.17,0,0,0,0-1.72c-.75-2.1-3-1.48-4.42-1.11l-.13,0c-13.9,3.76-25.17,7.3-35.47,11.11a4.19,4.19,0,0,0-3.08,3.78.52.52,0,0,0,.43.57Z"/><path class="cls-1" d="M302.2,497.48h.1c1.24-.06,2.27-1.28,3.09-2.25.18-.2.34-.4.5-.57,7.46-8.18,14.69-16.31,22.7-25.34a14.11,14.11,0,0,0,1.52-2.23c.21-.36.43-.73.66-1.1a.5.5,0,0,0,0-.56c-.13-.18-.24-.38-.35-.57-.29-.5-.56-1-1.06-1.09-1.75-.43-2.9.85-3.75,1.78-7.39,8.15-15.26,16.86-23.17,25.77-.21.24-.47.48-.73.74-.9.87-1.92,1.86-1.92,3a2.64,2.64,0,0,0,2.42,2.4Z"/><path class="cls-1" d="M312.41,496.8a2,2,0,0,0,1.26.49c1.26,0,2.41-1.3,3.24-2.25l.35-.39c7.2-7.92,14.58-16.11,21.92-24.35l.4-.44c1.19-1.28,2.54-2.74,2-5.41a.49.49,0,0,0-.41-.4,4.4,4.4,0,0,0-4.15,1.58,302.2,302.2,0,0,0-23.37,25.69c-.18.22-.4.46-.64.7-.82.87-1.76,1.86-1.69,3A2.52,2.52,0,0,0,312.41,496.8Z"/><path class="cls-1" d="M616.62,434.16h-.11c-8,0-37.34,15.55-40.53,21.49a.5.5,0,0,0,.44.74.45.45,0,0,0,.16,0c15-5.38,27.62-13.14,40.3-21.28a.51.51,0,0,0,.21-.56A.49.49,0,0,0,616.62,434.16Z"/><path class="cls-1" d="M639.41,446.36h-.23c-8.64,0-37.14,15.6-40,22a.47.47,0,0,0,.11.56.45.45,0,0,0,.34.14.42.42,0,0,0,.22-.05q4.2-2.07,8.3-4c11.25-5.44,21.89-10.58,31.57-17.7a.5.5,0,0,0,.18-.55A.52.52,0,0,0,639.41,446.36Z"/><path class="cls-1" d="M401.7,754.3a.5.5,0,0,0,.46.29h0c7.72-.63,33.86-19.42,35.86-25.77a.49.49,0,0,0-.17-.54.48.48,0,0,0-.56,0c-11.86,7.06-24.38,15-35.51,25.49A.51.51,0,0,0,401.7,754.3Z"/><path class="cls-1" d="M336.38,497h.07c1.12,0,2-1.07,2.77-1.9.15-.17.3-.34.44-.48,7.48-7.83,14.94-15.8,21.89-23.24a17.53,17.53,0,0,0,1.6-2.14c.23-.36.48-.73.74-1.1a.48.48,0,0,0,0-.62,6.14,6.14,0,0,1-.4-.53c-.32-.45-.62-.88-1.11-1-2-.4-3.25.95-4.27,2-7,7.37-14.47,15.29-21.84,23.29l-.45.46c-.78.79-1.76,1.78-1.74,2.91a2.18,2.18,0,0,0,.76,1.58A2.26,2.26,0,0,0,336.38,497Z"/><path class="cls-1" d="M346.23,496.85a4.27,4.27,0,0,0,1.12.15,4.45,4.45,0,0,0,3.31-1.82l.21-.22c7.36-7.67,14.54-15.18,21.54-22.73.23-.24.51-.49.81-.75.9-.79,1.93-1.68,2-2.81a2.26,2.26,0,0,0-.79-1.71,2.35,2.35,0,0,0-1.67-.73c-1.32,0-2.49,1.26-3.43,2.26l-.35.37c-7.71,8-15.31,16.12-21.07,22.31-1.12,1.2-2.51,2.69-2,5.29A.51.51,0,0,0,346.23,496.85Z"/><path class="cls-1" d="M389,715.64c-8.8,1.13-33.52,19.47-35.27,26.16a.5.5,0,0,0,.2.53.47.47,0,0,0,.28.09.46.46,0,0,0,.28-.08c2.42-1.64,4.82-3.23,7.19-4.81,10-6.65,19.48-12.93,27.73-21a.5.5,0,0,0,.1-.57A.5.5,0,0,0,389,715.64Z"/><path class="cls-1" d="M485.73,606.54c-.69-.19-1.26-.39-1.71-.55a3.23,3.23,0,0,0-2-.34c-11.47,3.39-23.3,7-36.16,10.92a3.06,3.06,0,0,0-2,1.45,1.73,1.73,0,0,0,.08,1.53,2.19,2.19,0,0,0,2.13,1.29,7.26,7.26,0,0,0,1.86-.33l5.31-1.5c6.15-1.72,12.51-3.5,18.7-5.47.9-.28,1.81-.53,2.74-.78,3.66-1,7.45-2,11.2-5.36a.53.53,0,0,0,.15-.49A.5.5,0,0,0,485.73,606.54Z"/><path class="cls-1" d="M421.11,719.29c8.73-3.33,29.79-18.55,32.18-23.27a.5.5,0,0,0,0-.5.49.49,0,0,0-.46-.22c-7.84.7-32.34,18.5-32.37,23.52a.49.49,0,0,0,.22.41.47.47,0,0,0,.28.09Z"/><path class="cls-1" d="M322.11,497.54l.16,0c1-.35,1.84-.56,2.43-.72a3.89,3.89,0,0,0,1.92-.82c7.92-8.37,16.07-17.08,24.93-26.62.64-.69,2.34-2.53.83-4.05a2.25,2.25,0,0,0-1.58-.76h0a3.68,3.68,0,0,0-2.38,1.46l-.43.42-.66.63a68.29,68.29,0,0,0-6.57,6.71c-2,2.43-4.11,4.68-6.37,7.06-4.38,4.61-8.91,9.38-12.7,16a.52.52,0,0,0,.05.57A.48.48,0,0,0,322.11,497.54Z"/><path class="cls-1" d="M429.83,759.12a.51.51,0,0,0,0,.6.53.53,0,0,0,.38.18.65.65,0,0,0,.2,0c10-4.33,20.07-10.64,31.6-19.86a2.1,2.1,0,0,0,.81-1.49,2,2,0,0,0-.54-1.5c-.9-1-2.1-1-3.56,0-4.42,2.83-9,5.76-13.41,8.82-.84.58-1.69,1.15-2.55,1.73C438.08,750.68,433.21,754,429.83,759.12Z"/><path class="cls-1" d="M508.63,609A12.82,12.82,0,0,0,498,610.08a12,12,0,0,0-5.32,8.51c0,.2-.07.41-.11.63-.28,1.52-.7,3.83,1.56,4.41a2.22,2.22,0,0,0,1.79-.16,3.53,3.53,0,0,0,1.19-2.46,7,7,0,0,1,.31-1.17c1.49-3.57,3.21-5.63,5.27-6.31s4.47-.06,7.57,1.8c11.37,6.83,15,17.27,16,24.84.11,5.34-.68,8.46-2.56,10.11s-4.53,1.89-9.06,1.19l-.57-.11c-1.06-.21-2.65-.54-3.23,1.29s1,2.66,2.08,3.2l.26.13a12.77,12.77,0,0,0,5.85,1.49,11.22,11.22,0,0,0,4.78-1.07,13.51,13.51,0,0,0,7.16-9.6C533.87,633.7,521.56,612.82,508.63,609Z"/><g id="background"><rect class="cls-2" x="1079" y="1079" width="1" height="1"/><rect class="cls-2" width="1" height="1"/><rect class="cls-2" x="1079" y="1079" width="1" height="1"/><rect class="cls-2" x="1079" width="1" height="1"/><rect class="cls-2" y="1079" width="1" height="1"/><rect class="cls-2" y="1079" width="1" height="1"/></g></g></g></svg>