<svg xmlns="http://www.w3.org/2000/svg" viewBox="0 0 1080 1080"><defs><style>.cls-1{fill:#8e8e8e;}.cls-2{fill:#f6f6f6;}</style></defs><g id="Capa_2" data-name="Capa 2"><g id="Capa_1-2" data-name="Capa 1"><path class="cls-1" d="M915.25,599.08q.62-50.88-.78-101.78c-.51-18.22-17.55-29.77-34.53-23.82-8.18,2.87-13.88,1.15-19.71-4.27a886.38,886.38,0,0,0-87.88-71.51c-72.1-51.71-149.89-90.86-237.64-108-9.25-1.81-15.6-4.37-18.54-14.86-3.34-11.85-18.7-21.23-27.73-19.52-15.43,2.92-25.06,14.44-25.18,30.07-.05,5.81-.69,11.68-.11,17.43.92,9.16-1.62,15.79-10.12,20.43-7.45,4.06-13.55,10.36-14.12,19.22-2.75,43.1-8,86.64,27.44,121.51,10.63,10.46,19,23.26,28.18,35.14,9.34,12.08,20.88,21.17,34.15,28.81q113.46,65.3,226.38,131.53c13.49,7.94,27,10.46,41.71,7.07,19.33-4.43,39.09-7.73,56.58-18a114,114,0,0,1,17.25-6.65c8-2.11,11.53,3.33,11.53,3.33,5,2.92,3.16,11.92,22,2.67S915.25,599.08,915.25,599.08ZM534.18,298.79C609.1,313.3,677,344.51,740.1,386.57c38.74,25.82,75.63,54.16,109.85,85.83,3.14,2.91,6.36,6.09,8.34,9.79,1.89,3.53-1.25,6.31-3.93,8.48-5.47,4.41-8.69.06-12.28-3.21C813,461.05,783.42,435.15,751,413c-70.4-48-143.87-89.91-228.5-108-2.72-.59-5.92-.25-8.43-4.27C520.89,295.84,527.67,297.53,534.18,298.79Zm-52.61-17.22a2.73,2.73,0,0,0,2.21-4.26c-5-6.36-1.85-9.4,4.14-11.57,4.08-1.48,8.11-.65,10.47,2.71,4.41,6.3-4.45,7.27-5.3,11.59a30.7,30.7,0,0,0-.17,3.61c1.72.24,3.48.58,5.25.7,3.43.23,7.17-4.92,10.17.29.75,1.29.27,4.05-.68,5.42-2.6,3.74-7,7.17-11,4.72-9.28-5.64-10.34.19-12.15,6.9-1.07,4-4.35,7-8.63,6.21-4.56-.8-3.91-5.53-3.26-8.41C474.1,292.93,466.58,281.55,481.57,281.57ZM646.69,420c-.51,39.65-.79,79.3-1.16,119.73-4.58-3.46-.59-10.43-7.54-12.38-6.29,11.56-3,24.34-3.54,36.41-.49,10.92-2.29,14.12-12.93,7.7-31.95-19.28-64.22-38-96.49-56.77-13-7.55-21.28-19.6-30.67-30.63-3.77-4.42-6.75-9.65-11-13.52-35.94-32.89-40.85-74.94-36.22-120,1.58-15.47,4.56-18.28,20.57-15.65,40.46,6.63,78.63,20.52,116,36.88,4.85,2.12,12,8.37,14.94,1.89,2.8-6.24-6.53-8-11.44-10.18C553.87,348.93,520,336,484.17,328.55c-3.51-.73-7.89-.44-10.68-5C483.94,314,494.91,309.12,510,312c51.37,9.91,99.55,28.38,146.15,51.63,10.29,5.13,15.15,9.35.85,15.84-3.34,1.52-12.61,4.76-2.06,10.32,2.86,1.51,1.69,3.09-.06,4.1C644.11,400.1,646.81,410.58,646.69,420ZM882.37,610.41c-1.23,14.5-13.64,19.13-24.37,24.35-6,2.93-5.74-2.65-5.79-6.51-.12-10.17,0-20.35-.32-30.52-.16-5.07.4-10.54-4.2-15.75-7.22,9.29-4.63,19.28-4.76,28.38-.54,35.25-.5,34.49-33.23,44.22-21,6.25-39.1,4.32-57.9-7.62-27.39-17.4-56-32.85-84.41-48.62-9-5-13.2-10.91-13-21.77.73-49.91.55-99.84.84-149.75.09-16.09,1.18-16.89,15-8,38.31,24.74,74.09,52.86,108.67,82.57,4,3.43,9.58,12,13.66,7.38,5.26-6-4.14-10.36-8.21-14.05a881.07,881.07,0,0,0-110.67-84.68c-10.16-6.61-10.25-9.2-.43-16.71,12.73-9.75,22.52-8.07,35,.14,54.8,36.18,104.93,78,151.82,123.79,7.38,7.21,11.86,12.61-2.43,17.28-5.39,1.76-16.22,4.81-12.2,12.42,2.92,5.52,11-1.68,16.17-4.58,14-7.89,17-7.1,19.47,8.54C884.07,570.63,884.05,590.57,882.37,610.41Zm23.72,16.23c0,6.42-4.14,10.51-9.57,11-6.75.58-7.27-7.87-6.83-10.55,6.61-40.17-1.86-80.53,2-120.66.14-1.42.46-2.83.66-4.07,2.65-3.36,6-5.87,9.91-5.52,4.77.43,3.85,5,3.86,8.08Q906.27,565.78,906.09,626.64Z"/><path class="cls-1" d="M433.59,495.86c-49.32-27.23-101.08-49-156.95-59.91-15.74-3.07-29.56-2.92-42.65,7-8.12,6.16-14.69,8.74-21.92-3.34-4.83-8.08-14.94-15.3-26.13-10.83-12.05,4.8-23.41,10.17-22.72,27.61,1.4,35.33.93,70.75,1,106.13,0,9.49,3.13,17.66,11.38,22.17,18.58,10.18,29.8,27.29,42.79,42.9,11.73,14.09,20.84,31.25,37.09,40.55,84.13,48.16,166.21,99.9,252.41,144.44,10.11,5.22,20.21,7.09,30.81,3.48,11-3.75,20.32-1.72,30.24,4.15,21.36,12.64,46.8-1.82,46.56-26.81-.11-11.5,3.6-18.18,13.78-22.56a39.71,39.71,0,0,0,12-8.1s5.87-8.37,7.74-17.38,2.28-35.76,2.28-35.76c3.39-23.53-3.32-45.6-21.6-63.66C570.67,587.56,506.33,536,433.59,495.86ZM274,444.57c49.34,10.27,95.36,29.07,140.28,51.13,8.25,4.05,17.92,8.21,2.55,16.23a8.93,8.93,0,0,0-4,4.07c-4.55,11.27-4.67,11.69-15.93,5.7-51.18-27.21-104.25-49.25-161.41-60.44-1.77-.34-3.42-1.35-7.35-3C243,446.31,256.23,440.87,274,444.57ZM606.54,792.22A36.54,36.54,0,0,1,604.59,805a7.34,7.34,0,0,1-8.37,4.5c-3.52-.79-3.22-4.23-3.62-7.08-1.47-10.59,2.52-21.94-4.44-33.69-7,11.54-4.86,22.83-5,33.4-.1,11.23-2.14,16.64-13.38,8.49-10.8-7.82-22.09-8.49-34.42-4.19-11.2,3.9-21.58,1.63-31.93-4.42q-119.31-69.69-239-138.8c-15.76-9.11-24.69-24.38-35.88-37.59C214,608.28,202.12,588.37,181,577.35c-6.26-3.28-7.7-9.78-7.77-16.29q-.48-48.7-.66-97.42c0-3.23-.89-8.09,3.48-8.41,8.3-.62,10.24-2.71,5.79-10.53-2.07-3.64,2.92-5.41,6-6.62,4-1.6,7.79-.35,10.81,2.36,4.13,3.71.36,5.71-2.14,7.9-1.84,1.61-3.87,3.45-2.8,6.12,1.14,2.84,3.72,2.34,6.18,1.77,2.63-.61,5.66-3.28,7.85.1,1.86,2.87,0,5.75-2.13,7.71-2.73,2.47-6,6.82-9.8,3.55-6-5.17-8.56-3.33-9.32,3.31-.61,5.37-.71,11.4,7.09,11.72,38,1.55,72.56,16.19,107.81,28.26,4,1.38,9.87,6.27,12.21-.35,1.67-4.69-4.91-6.14-8.8-7.77C279.68,492.25,253.5,485.1,227.3,478c-4.06-1.11-8.72-.86-12.86-5.22,6.6-5.68,12.88-2.77,18.77-1.7,79.69,14.5,150.52,49.29,217,94.29,35.41,24,68.07,51.29,100.34,79.16,2.9,2.51,5.87,5.25,7.78,8.49,2.54,4.28-1.28,7.27-3.8,10-4,4.3-6.92.46-9.76-2-18.45-15.71-36.79-31.53-55.32-47.14-3-2.56-6.75-8.32-10.69-3.86s2.08,7.47,5.1,10.13c20.32,18,40.81,35.77,61.16,53.72,5.09,4.49,9.2,5.66,14.84,0,9.49-9.45,19.41-6.23,22.2,7.27,1.55,7.51,1,15.44,1.49,23.17.24,3.73-.66,9.54,4,9.66,5.79.15,5.09-6.21,5.2-10.2a131.68,131.68,0,0,0-.89-21.76c-1.14-8.17,3-12.88,9.83-13.1,7.72-.26,4.69,7.24,4.72,11.28C606.7,717.57,606.66,754.89,606.54,792.22Zm35.93-55.45c0,3.38,0,6.92-.9,10.1-3.1,10.59-12.47,17.19-21.36,16.86-8.57-.31-3.64-11.22-3.84-17.1-.78-23.24-.11-46.53-.64-69.78-.59-25.78-15.07-36.72-39.4-30-6.21,1.71-10.36-.66-14.39-4.34A948.4,948.4,0,0,0,429.48,541c-9.16-5.81-7.07-8.82.64-14,13-8.78,25.23-12.45,35.82-1,58,36.43,108.5,78.5,155.46,125,14.3,14.17,20.94,31.09,21.05,50.9C642.51,713.51,642.55,725.14,642.47,736.77Z"/><path class="cls-1" d="M456.44,653.79c-17-7-31.84,2.92-31.91,21.29,0,3.39.42,9.16,3.48,8.41,13.05-3.24,11.72,8.36,15.5,14.13,5.09,7.76,10.3,15.2,18.84,21.58-5.24.83-10.86-6.45-13.27.2-1.81,5,5,7.51,9.23,9.55,14.43,7,26.77.27,30-16.12C492.23,693,475.22,661.52,456.44,653.79Zm19.8,59c-3.56,1.28-6.49-1-11.08-3.74-11-8.45-18.56-21-20.42-36.68-.39-3.26-.71-7.07,2.5-9.35,3.49-2.48,6.62-.1,9.27,1.83,13.72,10,20.61,24.07,22.89,40.6C479.81,708.42,479.54,711.63,476.24,712.81Z"/><path class="cls-1" d="M295.24,560.29c-17.07-6.51-31.44,3-30.82,20.42.12,3.27-.6,7.56,3.27,8.89,4.5,1.54,3.54-5,7.19-5.9,5.92,16.48,12.63,32.5,31.17,45.18-5.21-2.16-6.51-2.81-7.88-3.24-3.44-1.07-7.91-4.72-10,.24-1.84,4.31,3.17,6.41,6.36,8.42,15.59,9.78,31.5,2,34.16-16.7S312.64,566.93,295.24,560.29Zm24,55.29c-1.45,6.64-4.27,6.93-13.09,1.33-14.71-9.52-19.3-24.57-21.69-40.57-1-6.69,2.62-8.52,8.86-6.27C305.61,574.5,322,603.07,319.25,615.58Z"/><g id="background"><rect class="cls-2" x="1079" y="1079" width="1" height="1"/><rect class="cls-2" width="1" height="1"/><rect class="cls-2" x="1079" y="1079" width="1" height="1"/><rect class="cls-2" x="1079" width="1" height="1"/><rect class="cls-2" y="1079" width="1" height="1"/><rect class="cls-2" y="1079" width="1" height="1"/></g></g></g></svg>