<svg xmlns="http://www.w3.org/2000/svg" viewBox="0 0 1080 1080"><defs><style>.cls-1{fill:#8e8e8e;}.cls-2{fill:#f6f6f6;}</style></defs><g id="Capa_2" data-name="Capa 2"><g id="Capa_1-2" data-name="Capa 1"><path class="cls-1" d="M872.87,314c-13.4-34.35-35.94-63.07-66.5-84.85-8.49-6-17.38-12.18-24-20-26.78-31.7-59.29-54.52-98.83-67.27C632.38,123.94,547.76,130,547.76,130c-53.83.56-101.6,17.61-144.78,49.23-49.33,36.12-90,80.34-123.2,131.43-62.81,96.64-99.49,201.26-98.6,318,.25,33.28,3.68,65.63,12.77,97.4,7.84,27.44,19,53.58,35.38,77.15q15,21.49,30.36,42.68a208.76,208.76,0,0,0,14.13,17.4C305.37,898,346.1,917.81,389.5,932.16a237.21,237.21,0,0,0,60,11.31c20.43,1.19,40.62,3.27,60.9,5.67,36.66,4.36,72.43,1.36,107.12-13.13C659.84,918.34,695,890.69,727,858.94c29.75-29.56,56.51-61.86,78.59-97.78,25.93-42.18,46.69-84.45,62.69-133.54,10.33-31.68,19.94-64.64,24.91-97.6C904.13,457.18,900.18,383.94,872.87,314ZM193.92,688.4a517.76,517.76,0,0,1,.71-134.35c5.66-41.56,18.42-81.5,33.21-120.81a613.62,613.62,0,0,1,97-169.24c35.43-44,78.47-79.37,129.34-104.53a173.92,173.92,0,0,1,63.41-18.12c-5.41,3.58-7.71,5.71-10.43,6.82-54.5,22.18-97.24,60.08-136.31,102.61C307.38,319.92,264.24,400.66,236,489.8,217.19,549.23,207.43,610,209.49,672.35c.69,20.86,4,41.63,6.33,62.42,1.14,10.2,2.7,20.34,4.29,32.11C204.53,741.93,197.31,715.37,193.92,688.4ZM295.39,871.56a183.6,183.6,0,0,1-55.51-80.3C221.61,739,212.2,685.14,217.77,629.53c15.86-158.24,77.91-294.92,192.3-406.32C450.3,184,497.4,155.28,552.91,142.44a259.89,259.89,0,0,1,35.42-5.55c10.37-.92,20.88-.19,31.33-.19-.06,1-.11,1.92-.17,2.88a83,83,0,0,1-8.5,1.57c-60,4.78-111.17,30.2-156.33,68.39-89.75,75.86-149,172-184.75,283.11C247.28,563,236.37,635.4,242.26,709.43c4.21,52.92,18.85,102.91,49.76,147,5.87,8.36,13.24,15.66,18.58,25.47C305.51,878.48,300,875.5,295.39,871.56Zm147,62.2c-11.05-1.91-22.22-3.28-33.12-5.82-76.35-17.77-121.41-68.46-146.38-140-14.69-42.09-18.05-85.81-16.94-129.87,1.89-75.16,18.59-147.38,47.72-216.46C329,357.84,378.11,283,446.38,222.33c48.69-43.3,104.39-74,171.27-77.2,49-2.34,93.88,10.1,131.06,44.09a25,25,0,0,1,7.36,10.83l-32.69-13.56c-76.07-31.64-150-27.86-220.55,15.36C449.66,234.43,408.05,279.37,372.32,330,326,395.63,294.65,467.89,276.51,546c-11.85,51.06-13.37,102.9-9.92,154.79,3.25,48.91,16.78,95.24,44.16,136.53,23.54,35.52,55.76,60.76,95.16,76.89q18.49,7.57,37,15.23C442.7,930.9,442.52,932.33,442.35,933.76Zm-97.9-210c2.84,47.22,12.59,93,37.32,134.12,8.94,14.88,20.22,28.36,30.52,42.41,2.27,3.1,4.92,5.92,6.79,9.63-36.8-12.69-69.81-31.13-94.43-62.11C297.7,813.88,281.33,775.3,275,732.41,262.84,650,270.66,569.5,296.79,490.35c29.48-89.27,76.36-167.68,143.58-233.4,36-35.19,76.18-64.81,125.88-77.94,49.12-13,97.68-12.67,144.3,10.68,4.32,2.17,8.43,4.79,12.63,7.2C676,195,632.46,204.51,592.63,227.48,541,257.26,497.73,297,462.06,344.72A613.57,613.57,0,0,0,367,530.2C347.22,593.36,340.49,658,344.45,723.75Zm473.35-2.51c-24.06,44.07-52.48,85-87.11,121.25-43,45-91.24,83.11-153.78,96.16-84.75,17.7-153.46-15-193.48-89.55-14-26-22.24-54.06-28.65-83.1-9.51-43.16-10.08-86.41-4.47-129.47,7.41-56.94,21.07-112.47,44.45-165.52a615.86,615.86,0,0,1,67.76-117.82c35-47.37,76.45-88.43,127.31-118.73,39.07-23.28,82-35.27,127.51-30.08,45,5.14,83.49,24.67,113.75,59.81,29.39,34.13,44.95,73.9,51.46,117.63,3.45,23.13,6.82,46.41,7.33,66.11C892.43,546.79,863.68,637.19,817.8,721.24Z"/><path class="cls-1" d="M746.31,308.87c-26.23-11-51.81-13.52-78.69-9.38-38.92,6-73.12,23.19-102.81,48.6-47.79,40.91-83.87,90.65-107.5,149a488.45,488.45,0,0,0-33.48,137.47,201,201,0,0,0,6.09,72.1c-.67-8.84-1.6-17.67-2-26.53-1.07-25.92-.17-51.72,4.07-77.41,10.68-64.78,33.1-125,70.56-179.06,28.63-41.29,62.3-77.65,108-101a220.77,220.77,0,0,1,64.87-21.48c15.39-2.53,30.37,0,45,7.3H708.53c-23.75,0-45.65,6.26-65.56,19.3,7.07-2.23,14.19-4.32,21.21-6.71,20.56-7,41.51-11.1,63.22-7.25,31,5.49,55.9,21.55,74,46.8,26.36,36.67,40,77.83,38.75,123.4-.62,22.45-1,44.92-2.31,67.33-.66,11.13-3.25,22.14-5,33.2l-3.53-.15c-.37-2.45-1.24-4.94-1-7.34,2.14-25.32,6.3-50.62,6.3-75.92,0-41.38-13.08-79.63-36.23-113.82-19-28.07-47-44.39-80.21-46.56-38.42-2.52-75.12,7-107.37,29.45C565,402.16,533,445.75,508.07,494.79A376.92,376.92,0,0,0,466.6,664.72c-.34,39.46,14.63,73.58,32.33,107.55,20,38.31,82.67,67.58,130.45,54.27C677.85,813,718,789.11,749.15,749.72c4.82-6.11,10-11.93,17.05-16.68-.59,1.62-.83,3.52-1.84,4.82-22.05,28.37-43.56,57.32-74.21,77.42-36.64,24-75.72,40.3-120.8,36.23-6.42-.58-13.24-.92-19-3.37-29.51-12.46-56.18-28.57-69.65-59.81-7.68-17.82-15.21-35.71-22.88-53.54a56.08,56.08,0,0,0-3.49-6c1.84,22.93,12.28,42.78,22.74,62.54,4.39,8.29,9.65,16.1,14.52,24.13l-2.11,2.08C484.92,813,480,808.8,476,803.86c-14.91-18.38-24.78-39.53-33-61.53-4.49-12-8.89-24-13.35-36.08C433.3,734.86,444.23,761,457.94,786c34.51,63,103.67,87.81,171.79,67a231.75,231.75,0,0,0,82.18-44.83c38.8-32.63,67-73.64,90.57-117.85,19.37-36.27,32.24-74.86,39.44-115.52,9.22-52.09,13.18-103.72-3.25-155.26C822.87,370,797.1,330.25,746.31,308.87ZM510.81,780.32l-5.57-7.74c.67-.46,1.33-.93,2-1.4l5.51,7.78Zm272.56-74.08s-1.14-.64-2.37-1.33l7.44-11.37,2.59,1.6C788.5,698.86,786,702.58,783.37,706.24ZM796,685.57l-2.22-1q2.81-6,5.62-12l2.33,1.09Zm-65.26,73.78c-30.29,32.59-67.7,54.64-112.1,61.33-41.76,6.29-76.33-7.17-101.2-43-27.84-40.18-34.72-85.16-32.07-132.48a363,363,0,0,1,53.17-170.93c19.25-31.58,42.65-60.18,70.94-84.43,1.65-1.42,2.66-3.59,3.93-5.45l18.9-12.13c-8.5.81-14.63,5.33-19.21,12.25-10.18,8.23-21.44,15.46-30.22,25-30.95,33.53-56.83,70.43-74,113.25-22.64,56.53-33.34,114.83-26.62,175.46,1.89,17,9.11,33.43,14.21,50,1.41,4.59,4,8.83,4.22,14.66-1.4-1.39-3.26-2.54-4.12-4.21C487.08,740,478,721.1,475.37,699.92c-.75-5.92-2-11.8-3.35-17.63-2.66-11.65-4.16-22.7-.06-34.95,3.52-10.53,2.11-22.61,3.74-33.89,9.72-67,35-127.32,77.14-180.59,17.73-22.43,36.5-43.41,60.93-59,19.57-12.46,40.7-20.78,62.82-27.05,1.71-.48,3.6-.3,7.55-.58-9,8.74-22.74,5.29-27.55,16.51,17.38-7.65,35.4-12.95,54.48-13.48,22.33-.63,42.19,7.14,59.66,20.36,16.13,12.2,27.82,28,36,46.86C820.34,448,830.44,480,828.6,514.77,823.7,607.37,794.67,690.58,730.75,759.35Zm76.58-98.81-1.91-.6q1.41-5,2.83-10.05l2.8.79Zm13.09-33.35L817,626q4.92-15.75,9.85-31.48l2.43.69Q824.83,611.21,820.42,627.19Z"/><path class="cls-1" d="M741.79,578.06l.54-1.87L742,576C741.89,576.71,741.84,577.38,741.79,578.06Z"/><path class="cls-1" d="M741.79,578.06c-2.94,10.22-5.8,20.46-8.9,30.63a143.76,143.76,0,0,1-43.19,67c-7.71,6.81-16.42,12.19-27.2,13.45,33.44-18.13,52.18-48.34,63.29-82.3,11-33.56,15-68.72,1.94-103.88L742,536.28c2.24-22.16-8.19-39.12-24.49-52.15-9.64-7.7-22.28-11.81-35.19-9.17-25.19,5.14-46.64,17-62.91,37.43a179.64,179.64,0,0,0-36.5,79.31c-2.15,11.16-6.41,22.73-5.14,33.57,2.39,20.31,9.92,39.36,21.73,56.66,13.34,19.52,39.36,22.86,55.79,17.7,46.87-14.73,69.63-50.8,83.78-94.15C741.83,597,741.2,587.3,741.79,578.06Zm-154.37,52c-2.95-48.87,16.65-89.28,49.59-123.9,10.51-11,24.21-17.48,38.79-21.66a36.5,36.5,0,0,1,11.84-1.11c12.59.66,15.86,4.65,13.61,17-8.49,46.49-25.34,90.15-46.56,132.09-9.83,19.43-21.84,37.76-34,58.56C598,674.18,588.85,653.73,587.42,630.06Zm47.47,58.18c16.23-32.49,31.55-61.94,45.76-91.93,14-29.63,23.22-61,30.78-93.22,18.11,12.88,20,58.49,9.2,93C707.21,639,685.2,674.71,634.89,688.24Z"/><path class="cls-1" d="M744.77,647.31c-3.73,3.78-6.46,8.82-8.76,13.71-3.88,8.25-2.24,13,4.93,19.63,4.6,4.24,9.54,5.23,15.07,2.57,6.41-3.08,11.9-12,9.16-18.57s-.46-10.86,3.16-15.11C759,641,751.85,640.16,744.77,647.31Zm-.09,23.33c-3.16-11-2.1-13.17,9.81-17.35C752.17,661.09,751.81,667.56,744.68,670.64Zm8.06,8c2.85-7.57,4.56-12.09,6.27-16.62l4.17,1.67C764.39,669.91,760.67,673.49,752.74,678.63Z"/><path class="cls-1" d="M743.91,455.13c5.22,3.46,10.36,1.61,15.37-1.25,6.51-3.71,8.81-8.93,7-16.23-.72-2.83-.74-5.83-1.08-8.76l2-.76c-1.84-4.18-2.94-11.17-5.7-11.9-4.48-1.19-11.54.16-14.8,3.28-4.68,4.47-8,11.16-9.94,17.5C734.54,444.13,737.45,450.86,743.91,455.13Zm15.87-24.37c4.46,10.8,4.49,10.82-5.48,15.45C755.87,441.8,757.43,437.39,759.78,430.76Zm-3.85-6-9.51,20.69C739.7,435.34,741.52,430.5,755.93,424.78Z"/><path class="cls-1" d="M576.71,525.64l-.15.26c7-1.07,10.55-5.41,10.36-12.19-.25-8.75-1.23-17.48-1.89-26.18-18.78-1.8-30.8,10.09-28.25,27.69C558.45,526.75,566.86,531.11,576.71,525.64Zm.14-.25c-1.26-.45-2.53-.92-4.35-1.59l8.79-19C586.11,514.58,580.16,519.65,576.85,525.39Zm1.41-29.67L567.1,518.83C560.8,505.21,563.58,498.35,578.26,495.72Z"/><path class="cls-1" d="M606.31,482.09c7.23-.39,16.51-12.27,16.19-20.74-.25-6.86-5.37-11.13-13.08-10.9-9.46.27-16.08,7.75-15.78,17.83C593.87,475.93,599.84,482.44,606.31,482.09Zm7.14-27.29c2.59,3.78,4.32,5.27,4.55,7,.2,1.43-1.35,3.1-2.12,4.66l-2.43-.62Z"/><path class="cls-1" d="M726.2,698.7c-5.16-2.55-13.15.26-16.64,6.1-4.91,8.19-4.19,16,2.55,24,9.46-1.35,16.18-4.61,19.31-13.14C733.76,709.25,731.37,701.26,726.2,698.7Zm-.91,18.86c-5.92-2-6.24-6.17-5.85-11.34C727,708.71,727,708.71,725.29,717.56Z"/><path class="cls-1" d="M747.16,559.85c2.27-8.2,1.74-15.88-4.83-22.08v37.11C744,569.88,745.76,564.92,747.16,559.85Z"/><path class="cls-1" d="M742.33,537.77v-.67c-.11-.28-.23-.55-.35-.82,0,.35-.06.7-.1,1.05Z"/><path class="cls-1" d="M742.33,576.19v-1.31c-.13.38-.26.77-.38,1.15Z"/><path class="cls-1" d="M576.72,759.86c1.74.74,4.65,2.38,4.87,2.08,2.47-3.42,4.51-7.14,6.66-10.78l-1.83-.92Z"/><path class="cls-1" d="M576.62,759.89h0l-.2.25-.15.17L587.32,726c-13.26-3.52-20.63-1.11-25.64,8-5.76,10.53-3.15,23.39,9,35.29,1.92-3,3.87-6.12,5.81-9.19l.23-.23-.06,0Zm-9.48-2.22c-5.93-16.29-5-18.44,8.22-24.69C578.53,742.7,571.18,748,567.14,757.67Zm9.13,2.63Z"/><path class="cls-1" d="M459.32,582.14c15.2-63,43.21-119.88,83-171,25.12-32.32,54.43-59.65,91.79-77.49,3.42-1.63,6.38-4.22,9.55-6.36-10,4.08-20.59,7.08-29.84,12.43-33.79,19.54-60.27,47.16-83.11,78.4C487.91,476.57,458.93,541,449.92,613.27a548.1,548.1,0,0,0-3.9,75.88c.2,13.41,5.63,26.75,8.7,40.12-.16-4,.22-8.06-.55-11.91-5.92-29.72-4.87-59.59-1.73-89.43C454.05,612.58,455.71,597.09,459.32,582.14Z"/><g id="background"><rect class="cls-2" x="1079" y="1079" width="1" height="1"/><rect class="cls-2" width="1" height="1"/><rect class="cls-2" x="1079" y="1079" width="1" height="1"/><rect class="cls-2" x="1079" width="1" height="1"/><rect class="cls-2" y="1079" width="1" height="1"/><rect class="cls-2" y="1079" width="1" height="1"/></g></g></g></svg>