<svg xmlns="http://www.w3.org/2000/svg" viewBox="0 0 1080 1080"><defs><style>.cls-1{fill:#8e8e8e;}.cls-2{fill:#f6f6f6;}</style></defs><g id="Capa_2" data-name="Capa 2"><g id="Capa_1-2" data-name="Capa 1"><path class="cls-1" d="M869.2,315.71c-9-49.14-29.15-92.21-69.73-123.75-18.27-14.2-39.57-23.3-58.83-35.8-41.14-26.7-86-31.63-133.29-23.7-25.38,4.26-70.6,23.61-70.6,23.61-62.47,30.37-114.54,74.1-159.6,126.29C292.31,380.6,234.53,492.37,211.91,621c-9.86,56-10.74,112.17,4.73,167.54C229,832.58,251.13,870.25,291.1,895c20.32,12.6,41,24.63,61.93,36.23,24.7,13.71,51.3,20,79.72,19.71,39.26-.37,75.85-10.82,110.8-27.7,59-28.49,108.54-69.22,152.14-117.67,70.53-78.39,122.25-167.66,153.7-268.29C872,465,883,391.33,869.2,315.71ZM245.65,840.3c-21.82-35.48-31.72-74.67-33.76-115.73-5.48-110.33,26.69-211.27,78.39-307.12,35.86-66.49,81-125.95,136.06-177.68,41.28-38.74,87.76-69.68,140.8-89.92,33.94-12.95,69-19.43,105.53-13.54,1.86.3,3.71.66,5.56,1.05,1.14.24,2.27.6,3.4.9-39.54-1.24-77.24,6.27-113.36,21.67-40.91,17.44-77.75,41.53-110.77,71.13-8.92,8-17.66,18.35-10.62,32.74,2,4.14.7,7.93-2.55,11.14a116.27,116.27,0,0,0-8.48,8.87c-6,7.33-12.39,10.11-20.88,3.7-5-3.76-9.5-1.91-13.14,2.58-3.4,4.2-10.1,8.24-5.07,14.31,9.7,11.71,4.62,20.36-4.07,29.05a38.48,38.48,0,0,0-5.29,6.64c-4.48,7.16-9.75,9-16.95,3.51-5.4-4.13-10-3.74-14.09,2.6-3.89,6.06-8.8,11.8-.88,17.85,7.73,5.92,7.44,11.42,1.59,18.65-4.92,6.08-8.72,13.1-12.66,19.91-3,5.22-5.91,7.09-12,3.59-10.32-5.94-18.21-1.55-20.58,10.39-1.12,5.6,3.18,7.32,6.69,8.84,7.81,3.38,8.37,7.91,4.22,14.78A189.72,189.72,0,0,0,311.49,462c-2.93,6.68-7,9.33-14,6.42-8.57-3.54-13.32-.14-16.52,8.18-2.62,6.8-2,11.78,4.87,14.73,8,3.47,8.85,8.71,5,15.81a35.79,35.79,0,0,0-3.14,7.89c-3,11.71-8.26,19.73-22.61,18.09-8.75-1-8.3,7.82-10.49,13.32-2.12,5.33-.28,9.76,4.79,11.63,10.45,3.88,10.64,10.62,6.71,19.3A28.79,28.79,0,0,0,264,585.6c-1,7.68-5.17,11.63-12.82,12.5-8.61,1-13.29,5.42-14.19,14.64-.61,6.35.72,10.49,6.68,12.68,13.59,5,6.89,15.3,6.38,24-.54,9.17-7.68,11.51-14.64,13.7-4.86,1.53-4.06-2.11-3.86-5,.14-2.11,1.05-5.16-1.82-5.51-3.42-.41-3.39,3.12-3.73,5.43a343.31,343.31,0,0,0-3.15,73.45c2.48,38.61,9.48,76.22,28.6,110.6,3,5.46,6.26,10.82,9,16.58C254.1,853.65,249.78,847,245.65,840.3Zm339.6-665.52c-6.6,3.18-11.42.57-16.38-3-3.45-2.49-1.71-4.13,1-5.27q11.28-4.65,22.67-9.06c3.56-1.38,5.62-.64,4.13,4.33C597.88,169.92,591.39,171.83,585.25,174.78Zm-55.63,29.69c-6.26,1.89-10.77-2.19-15.27-5.32-2.17-1.51-.18-3.45,1.42-4.37,9.67-5.54,18.87-12,29.52-16.27C546.66,194.15,542.76,200.5,529.62,204.47ZM495.94,225c-1,7.22-8.58,9.48-12.91,14.5-5.64,6.53-11,5.17-17.2.93-4.68-3.18-4-5.57-.21-8.56,7.16-5.6,14.4-11.12,21.39-16.93,5.65-4.69,7.95-3.38,7.95,3.71A44.39,44.39,0,0,0,495.94,225ZM228.83,705.76a55,55,0,0,1,.07-7.49c.47-3.47-1.71-9.57,2.14-9.81,5.31-.33,10.93,3.25,13.29,8.74,4,9.28-.75,20.57-9.38,25.64-5.58,3.28-6.31.95-6.15-4C228.94,714.5,228.83,710.13,228.83,705.76Zm2.22,40.92c10.64,3.46,16.42,9.51,16,20.66a12,12,0,0,1-4.65,9.62c-4.18,3.46-7,4.19-7.93-2.47C233.1,765.38,230.62,756.4,231.05,746.68Zm560.58-87.09c-1,1.91-2.62,3.48-4,5.21q4.52-9.84,9-19.7c26-56.62,42.54-115.13,34.73-178.3-5.18-41.95-22.4-76.43-61.61-96.92-15.11-7.89-28.7-18-42.26-28.37-26.88-20.5-56.08-34.6-91.52-31-10.8,1.11-21.33,3.11-31.89,5.08,39.67-15.37,78.29-17.67,114.46,9.53,2,1.51,4.51,5.25,7,2.08,2.15-2.8-1.6-4.84-3.56-6.68a43.43,43.43,0,0,0-4.55-3.36c-25.86-18.46-55.23-20.8-85-16C585.7,308.76,547.4,334,513.72,365.55c-78.63,73.65-128.81,163-142.87,270.79-5,38.39-3.63,76.84,12.59,113.08,12.92,28.87,33.5,50,64.44,59.64,3.25,1,6.81,3.1,11.62-1.56-21-7-39.46-16-53.15-32.38s-21.57-35.06-25.83-55.62a6.68,6.68,0,0,1,1.94,3c9.61,29.94,28.63,51.8,56,67.13,23.37,13.08,49.25,20.89,71.91,35.43,27.76,17.81,57.87,19.31,89.08,11.4,39.92-10.13,72.42-32.9,102.37-60,24.18-21.9,43.71-47.76,63.09-73.76-9.66,20-23.34,37.33-36.82,54.67C682,816.72,629.44,869.29,563.3,906.58c-40.83,23-84.11,39.23-131.62,39.11-60.13-.15-104.6-28.33-133.88-80.25-19.9-35.28-28.05-74-29.26-114.16-.63-20.74-1.17-41.55,1.55-62.26.56-4.22,1.42-8.74-.74-13-7.83,6.14-9.73,62.18-4,106.55,4.78,36.76,15.78,71.2,37.6,102.49-7.92-5.73-19.82-22.3-27.56-38.57-14.67-30.82-21.86-63.48-24.12-97.45-6.26-94.35,18.35-182,57.16-266.69,37.69-82.22,88.5-155.27,154.59-217.13,49-45.89,103.56-83.21,169.45-101.07,29.21-7.92,58.7-10,88.53-2.95-91.93-2.82-163.77,40.37-229.22,98.3,5.23,2.74,7.75-1,10.65-3.39,38-31.58,78.72-58.87,125.83-75.11,36.48-12.57,73.75-19.13,112.25-10,51.91,12.3,86.19,45.35,106.71,93.17,14.53,33.85,21,69.52,21.61,106.62C870.67,474.56,838.27,568.92,791.63,659.59Zm-318-23.31c-2.85-.62-3.41,2.27-3.95,4.3a222.83,222.83,0,0,0-6.52,40c-2.59,34.18-1.5,68,12.3,100.22,3.57,8.34,8.59,15.83,14,24.07-52.33-21.12-76.4-60.66-79.26-114.38-3.81-71.75,19.05-136.37,54-197.6C496.6,436,538.94,388.59,596.84,356.61c28-15.45,57.43-25.53,90.32-20.35,21.23,3.34,38.29,15.17,56,25.34-.37,2.42-1.82,2.25-2.94,2.18-49.08-3.4-89.11,17.8-126.36,46.49-4.47,3.45-8.64,7.3-12.82,11.12-1.11,1-2.17,2.75-.4,4a3.77,3.77,0,0,0,3.42-.28c4.38-3.08,8.63-6.32,12.85-9.61,28.95-22.55,60.29-40,97.12-45.88,43.22-6.91,83.06,15.06,100.24,55.37,15.36,36,16.37,73.83,10.05,111.41-18,106.83-70.37,193.7-156.3,259.67-27.49,21.1-58.34,36.59-93.89,38.67-47.68,2.78-80.91-19.88-96.7-65.1-12.39-35.49-11-71.81-5.77-108.28.93-6.53,2.35-13,3.43-19.52C475.46,639.79,476.7,637,473.63,636.28Zm-51,121.24c4.71,8.81,11.62,16,16.78,24.53-23.66-11.77-39.53-30.47-48.57-54.93-13.94-37.75-14.3-76.68-6.54-115.43,21.32-106.41,74.34-193.64,161.46-259,28.07-21.07,59.64-35.18,95.49-36.94,23.38-1.15,39.66,3.56,62.1,17.73-9.07-1.39-15.71-3.14-22.53-3.56-40-2.49-74.84,11.67-106.93,33.64-52,35.56-90.95,82.74-121.24,137.54-26.2,47.41-43.47,97.65-47.87,151.87C401.82,689.23,405,724.61,422.62,757.52Z"/><path class="cls-1" d="M568.55,681.7c5.7,13.86,15.39,24,30,27.95,21.79,5.91,66.83-12.8,79-32.12.85-1.35,2-2.74.53-4.18s-3-.55-4.26.4c-3.47,2.71-6.83,5.55-10.2,8.37-14.92,12.47-31,22.1-51.22,22.11,65.57-16.31,125.81-119,104.62-188.14a50.16,50.16,0,0,1,8,19.19c1.93,9.67,1.47,19.43,1.71,29.18.06,2.58-1.16,7,2.26,7.2,4,.21,3.48-4.58,3.73-7.36a95.35,95.35,0,0,0,.21-16c-3.89-50.32-41.49-70-85.31-44.7-.27.16-.55.31-.82.48-42.92,27.29-68.25,67-80.58,115.49C560.91,640.34,560.16,661.3,568.55,681.7Zm79.59-171.35a68,68,0,0,1,36.41-11.66c10.87-.31,17.84,4.52,22.86,13.54,8.51,15.32,9.72,32,7.47,48.67-6.82,50.6-31.55,91-72,121.76-13.23,10-28.18,16.53-45.49,15.82-8.65-.36-15-4-19.37-11.36-7.12-12-9.94-25-9.76-39.21C573.93,590,599.17,543.21,648.14,510.35Z"/><path class="cls-1" d="M546.27,570.32c6,.19,7.82-2.21,6.6-8.61a2.73,2.73,0,0,1,.76-2.33c7.09-3.63,3.76-17.23,15.85-16.35,2,.14,2.16-3.36,2-5.63-.79-11-9.86-16-19.53-10.34-10.88,6.33-16.27,16.38-17.22,28.65C534.12,563.72,539.61,570.11,546.27,570.32Z"/><path class="cls-1" d="M553.15,744.74c-10,3.84-20.46,22.19-18.29,32.53,1.31,6.29,4.58,11,11.7,11.38,3.76-.69,10.23-1.91,9-4.84-4.28-10.06,7.13-13.56,7.37-21.29a2.35,2.35,0,0,1,2.18-2.43c6.37-1.13,7.16-2.44,5.45-8C568.24,744.57,561.27,741.63,553.15,744.74Z"/><path class="cls-1" d="M737.76,460.44c4.27-.82,10.55-1.53,5.13-8.78-.45-.6,1.41-3.2,2.5-4.64a45.81,45.81,0,0,0,8.47-18.84c2,1.81.54,5.64,3.69,5.33,3.46-.33,2.88-3.55,2.77-5.94-.42-8.68-7.4-13.74-15.53-11.37-13,3.82-23.79,23.85-19.42,36.66C727.32,458.58,731.75,461.59,737.76,460.44Z"/><path class="cls-1" d="M747.31,634.34c-15.16,1-28.69,27.14-20.62,39.89,2.91,4.58,7.27,5.89,12.3,4.39,4.46-1.33,8.83-3.1,2.71-8.19a10.6,10.6,0,0,1,1.45-2.22A50.63,50.63,0,0,0,753.7,646.7c2,2.06,1.09,5.76,4.17,5.08,2.28-.51,1.92-2.94,2.06-4.75C760.54,639,755.32,633.8,747.31,634.34Z"/><path class="cls-1" d="M495.42,725.08c-2.19.38-6-1.45-6,2.36,0,3.19,3.55,4.11,6.48,4.15,9.66.13,23.22-12.12,23.91-21.79.76-10.66,1.14-21.34,1.69-32l-.52,0c0-7.24.06-14.48,0-21.71,0-3.52-.53-7-3.51-9.4-1.68-1.38-3.62-3.19-5.77-1.22-1.95,1.79-.09,3.44,1.06,4.82,2.21,2.64,2.29,5.78,2.3,8.93.06,14.47.25,29,0,43.43C514.92,715.34,508.05,722.89,495.42,725.08Z"/><path class="cls-1" d="M786.94,555c-1.51.32-3.31.11-3.44,2.27a3.28,3.28,0,0,0,2.77,3.33,15.72,15.72,0,0,0,6.42.4c13.7-2.79,21.74-12.46,22-26.32.14-7.53,0-15.06,0-22.59h.09c0-9.09,0-18.19,0-27.28,0-3.16-.06-6.39-2.83-8.6-1.48-1.19-3.38-2.22-5.16-1-2.29,1.54-.79,3.38.4,4.73,2.77,3.16,2.54,6.94,2.55,10.7.06,12.23.19,24.47.11,36.7C809.72,547,806.45,550.88,786.94,555Z"/><path class="cls-1" d="M782.37,549.46c3-1.33,2.28-4.22,2.39-6.47.49-10.35,1-20.7,1-31.05,0-12-1.33-24.44,13.29-29.9a2.56,2.56,0,0,0,1.36-1.25c.47-1.08,1.28-2.51.92-3.35-.75-1.75-2.55-1.49-4-.78-8.07,3.88-16.58,8-17,18.3-.64,16.93-.3,33.91-.3,50.87C780,547.35,780.33,549,782.37,549.46Z"/><path class="cls-1" d="M488.86,719.64c3.51-1.92,2.35-5.43,2.42-8.3.2-8.78.12-17.57.1-26.36,0-13-2.67-27.07,13.66-33.5a3,3,0,0,0,1.8-3.89c-.81-1.78-2.55-1.55-4-.87-7.84,3.56-15.44,7.25-16.33,17.47a281.83,281.83,0,0,0,0,50.73C486.67,716.67,486.38,718.77,488.86,719.64Z"/><path class="cls-1" d="M747.78,541.69c.3,4.51,1.92,7.72,6.48,8.17,3.82.38,6.82-.83,7.16-5.37.22-3,1.2-5.39,4.22-6.72,4.36-1.92,3.81-5.36,1.94-8.59-2.18-3.76-5.72-5-9.64-3C751.62,529.48,748.46,535,747.78,541.69Z"/><path class="cls-1" d="M533.05,678.18c4.16.25,7.35-1.26,7-6.51a6.2,6.2,0,0,1,3.76-6c4-2,4.52-5.06,2.32-8.53-2.37-3.76-6-4.35-9.88-2.64-6.43,2.84-9,8.27-9.59,14.58C526.76,673.85,527.81,677.86,533.05,678.18Z"/><g id="background"><rect class="cls-2" x="1079" y="1079" width="1" height="1"/><rect class="cls-2" width="1" height="1"/><rect class="cls-2" x="1079" y="1079" width="1" height="1"/><rect class="cls-2" x="1079" width="1" height="1"/><rect class="cls-2" y="1079" width="1" height="1"/><rect class="cls-2" y="1079" width="1" height="1"/></g></g></g></svg>