<svg xmlns="http://www.w3.org/2000/svg" viewBox="0 0 1080 1080"><defs><style>.cls-1{fill:#f6f6f6;}.cls-2{fill:#8e8e8e;}</style></defs><g id="Capa_2" data-name="Capa 2"><g id="Capa_1-2" data-name="Capa 1"><g id="background"><rect class="cls-1" x="1079" y="1079" width="1" height="1"/><rect class="cls-1" width="1" height="1"/><rect class="cls-1" x="1079" y="1079" width="1" height="1"/><rect class="cls-1" x="1079" width="1" height="1"/><rect class="cls-1" y="1079" width="1" height="1"/><rect class="cls-1" y="1079" width="1" height="1"/></g><path class="cls-2" d="M452.93,360.2l101.71-41.69c2.35-1,4.66-2,7-2.86a12.93,12.93,0,0,1,9.17-.21q46.9,17,93.83,34l105.73,38.32q57.45,20.82,114.9,41.63Q928.48,445,971.7,460.54c6.55,2.34,11.65,6.76,16.81,11,3.27,2.71,2.35,6.82-1.64,8.79-2.8,1.38-5.71,2.58-8.59,3.8L872.13,529.34,778.3,569.26l-97.51,41.41Q637.68,629,594.61,647.36c-8.43,3.59-16.85,7.2-25.31,10.73-1.6.67-2.69,1.36-2.47,3.36a3.39,3.39,0,0,1-2.17,3.45c-.63.32-1.48.74-1.66,1.3a10.75,10.75,0,0,1-5.16,6.63c-.59.31-.46,1-.56,1.62-.66,4.16-2.9,5.12-6.13,2.68-.29-.21-.5-.65-.8-.7a7.26,7.26,0,0,1-6.31-6c-.24-1-1.21-1-2.11-.66-1.56.65-3.13,1.27-4.68,1.93L506.31,684.9a28.86,28.86,0,0,1-10.88,2.33,5.67,5.67,0,0,0-2.5.17c-2.58,1.46-4.86.41-7.23-.5-4.05-1.55-8.12-3.06-12.21-4.5-2.32-.8-3.05-.21-2.45,2.12a16.28,16.28,0,0,1,.53,5.36c-.2,2.5-1.74,3.94-4.11,3.24a118.24,118.24,0,0,1-12.57-4.51c-2.44-1-1.84-3.72-2.12-5.78a13.41,13.41,0,0,1,.38-3.22c.37-3.08.39-3.16-2.45-4.21-7-2.59-14-5.12-21.07-7.67q-44.52-16.15-89.05-32.31Q300.8,621,261,606.66L127.4,558.28l-30.25-11a19.09,19.09,0,0,0-2.06-.68c-1.25-.3-2,.15-1.56,1.49a11.77,11.77,0,0,1,.38,4.29c-.18,3-2.07,4.54-4.83,3.65-4-1.31-8-2.8-11.83-4.47-2.91-1.25-2-4.21-1.9-6.38a21.35,21.35,0,0,1,.56-4.6c.51-1.79-.4-2.54-1.88-3.31-2-1.08-4.25-1.68-6.34-2.62-6.76-3-7.3-6.26-1.87-11.15,2.42-2.17,4.86-4.33,7.32-6.45a13.89,13.89,0,0,1,2.35-1.67,1.31,1.31,0,0,1,1.85.57c.41.66,0,1.11-.5,1.53l-9,7.84a16,16,0,0,0-1.64,1.41c-1.71,1.94-1.42,3.5,1,4.48,3.8,1.53,7.67,2.89,11.52,4.3a6.1,6.1,0,0,0,4.25,0c.77-.28,1.54-.66,2.35-.16.08,1.49-1.74,1.23-2,2.65,2.5,1,5.06,1.93,7.61,2.93a3.6,3.6,0,0,0,2.8-.26c1.2-.5,2.43-.95,3.44-1.34,1.72.94-.74,2.19.62,2.9a21.41,21.41,0,0,0,2.67,1.1q78.15,28.44,156.31,56.85,43.15,15.68,86.34,31.3,56.08,20.35,112.15,40.76a8.17,8.17,0,0,0,3.45.95c.49,0,1,0,1.31.41,1.89,3,5.39,2.86,8.09,4.26a3.77,3.77,0,0,0,3.48-.19,9.54,9.54,0,0,1,3.81-1.09c-.85,1.63-.83,2.64,1.09,3.33,6,2.17,11.92,4.53,18.51,4.41a33.28,33.28,0,0,0,12.56-3l61.56-26.18,90.17-38.36,99.17-42.16,92.17-39.2,93.83-39.92q17.31-7.35,34.63-14.67c2.21-.94,4.45-1.87,6.57-3s2.51-2.84.73-4.28c-3.45-2.82-7.06-5.45-10.66-8.09-.5-.37-1.45-.86-1.86.11-1,2.36-3.39,2.54-5.29,3.35q-56.22,24-112.48,47.82-43.59,18.54-87.16,37.11L676.75,593l-93.82,39.92Q541.67,650.49,500.39,668c-.95.4-1.89,1-3,.64a1.49,1.49,0,0,1-.05-.42.72.72,0,0,1,.11-.32,1.22,1.22,0,0,1,.24-.27,1.61,1.61,0,0,1,.3-.21l.64-.34a3.13,3.13,0,0,1,.32-.15l1-.39L971.08,466.06a2.94,2.94,0,0,0,.6-.4c.08-.09.14-.19.28-.37-.36-1.22-1.55-1.26-2.49-1.6l-46.56-16.93q-44.52-16.15-89-32.31-60.33-21.9-120.65-43.81-44.19-16-88.4-32-27.88-10.11-55.71-20.33a6.17,6.17,0,0,0-4.86-.12q-21.53,9-43.09,17.86-52.51,21.58-105,43.12-40.65,16.68-81.32,33.31-51.85,21.27-103.69,42.58Q198,468.65,164.85,482.19,127.38,497.57,89.93,513c-1.11.46-2.19,1.11-3.45.79a2.1,2.1,0,0,1-1.57-1.37c-.3-.94.48-1.29,1.12-1.56q5-2.15,10-4.21,54.54-22.35,109.08-44.69l126.12-51.75q49.84-20.44,99.7-40.89ZM80.14,542.86c-1.08.19-1.42.76-1.16,1.56a2.06,2.06,0,0,0,.86,1.08,44.55,44.55,0,0,0,8.08,2.92.88.88,0,0,0,1.14-.59,1.31,1.31,0,0,0-.43-1.62C86,544.51,82.82,544.09,80.14,542.86Zm386.6,141.41a1.19,1.19,0,0,0-.7-1.16,44.85,44.85,0,0,0-8.42-3.06.78.78,0,0,0-1.06.66,1.35,1.35,0,0,0,.69,1.53c2.66,1.09,5.33,2.14,8,3.1A1,1,0,0,0,466.74,684.27Zm.45-4a1.11,1.11,0,0,0-.72-1.13c-2.66-1.05-5.34-2.09-8-3.05a1.05,1.05,0,0,0-1.38.81,1,1,0,0,0,.62,1.16,48.3,48.3,0,0,0,8.45,2.94A.91.91,0,0,0,467.19,680.22ZM89.6,543.36c0-.22,0-.57-.16-.66a30.39,30.39,0,0,0-9.37-3.41c-.2,0-.6.37-.75.65a.69.69,0,0,0,.35.9A46.74,46.74,0,0,0,88.48,544,.85.85,0,0,0,89.6,543.36ZM466.49,689a22.14,22.14,0,0,0-9.63-3.73A20.06,20.06,0,0,0,466.49,689ZM88.41,552.15c-1.75-2-6.53-3.75-9.69-3.55A33.11,33.11,0,0,0,88.41,552.15ZM554.1,670.37c0-.48-.26-.81-.6-.8a5.27,5.27,0,0,0-3.88,1.4.74.74,0,0,0,.62,1.24,5.61,5.61,0,0,0,3.6-1.28C554,670.79,554,670.51,554.1,670.37Z"/><path class="cls-2" d="M468.61,694.29a5,5,0,0,1-1.44-.22,117.46,117.46,0,0,1-12.67-4.54c-2.47-1-2.56-3.44-2.63-5.18,0-.5,0-1-.09-1.38a7.16,7.16,0,0,1,.2-2.46c.07-.34.14-.68.18-1a6.51,6.51,0,0,0,.1-2.26,5.92,5.92,0,0,0-1.91-.9c-5.1-1.89-10.21-3.74-15.32-5.59L403.5,659.31q-31.63-11.47-63.26-22.94-22.2-8.05-44.4-16.06L260.67,607.6l-119.4-43.24-14.21-5.14-16.66-6-13.9-5a14.4,14.4,0,0,0-1.65-.54,1.71,1.71,0,0,0-.43-.06h0a1.8,1.8,0,0,0,.07.27,12.55,12.55,0,0,1,.42,4.66,5.16,5.16,0,0,1-2,4.15,4.53,4.53,0,0,1-4.11.39c-4-1.32-8-2.84-11.92-4.5-3.14-1.35-2.81-4.37-2.6-6.37,0-.35.08-.68.1-1l0-.63a19.19,19.19,0,0,1,.55-4.17c.28-1,.13-1.37-1.37-2.16a28.36,28.36,0,0,0-3.56-1.5c-.9-.34-1.83-.68-2.73-1.09-3.82-1.72-5.75-3.52-6.09-5.67s.93-4.4,4-7.13c2.48-2.24,5-4.42,7.33-6.47A14.45,14.45,0,0,1,75,514.54a2.29,2.29,0,0,1,3.19.92,2.08,2.08,0,0,1-.69,2.8l-9,7.84c-.19.17-.4.34-.61.5a7.74,7.74,0,0,0-.93.82c-.63.71-.91,1.33-.82,1.75s.61.8,1.44,1.14c3,1.2,6,2.31,9,3.39l2.47.9a5.16,5.16,0,0,0,3.57,0l.24-.09a3.14,3.14,0,0,1,3,0,1,1,0,0,1,.48.8A2.38,2.38,0,0,1,85,537.55l.88.34L91.29,540a2.58,2.58,0,0,0,2-.24c.87-.36,1.74-.7,2.54-1l.93-.36a1,1,0,0,1,.84.06,2,2,0,0,1,.84,2.92.59.59,0,0,0,0,.08,22.33,22.33,0,0,0,2.17.88l.18.06,32.66,11.88q61.82,22.5,123.65,45l44.64,16.18q20.86,7.56,41.71,15.12l66.9,24.32,45.24,16.44c.28.1.56.22.84.34a4.88,4.88,0,0,0,2.2.56,2.22,2.22,0,0,1,2.22.86c1.07,1.69,2.76,2.2,4.71,2.79a18.17,18.17,0,0,1,3,1.12,2.83,2.83,0,0,0,2.6-.21,10.62,10.62,0,0,1,4.18-1.18,1,1,0,0,1,.89.46,1,1,0,0,1,0,1c-.45.89-.44,1.22-.4,1.34s.18.31.95.59l1.45.53c5.57,2,10.83,3.93,16.7,3.82a31.87,31.87,0,0,0,12.19-2.94l35.4-15.06,64.87-27.59,51.46-21.89,54.63-23.23,44.54-18.93,92.17-39.2,38.87-16.53,55-23.39q9-3.81,17.93-7.59l16.7-7.08.66-.28c1.95-.83,4-1.68,5.83-2.68.81-.44,1.3-.94,1.35-1.39s-.47-1-.78-1.24c-3.17-2.58-6.53-5.05-9.79-7.44l-.83-.61a2,2,0,0,0-.38-.23c-1,2.18-2.94,2.82-4.5,3.33-.44.15-.88.29-1.29.47q-38.1,16.23-76.24,32.42l-36.23,15.4q-24.65,10.47-49.26,21l-37.91,16.14-52,22.11-80.78,34.36-53.24,22.65q-41.27,17.55-82.54,35.06c-.16.06-.31.14-.46.21a4.12,4.12,0,0,1-3.28.45,1,1,0,0,1-.65-.8l0-.13a1.78,1.78,0,0,1,0-.55,1.87,1.87,0,0,1,.26-.73,2,2,0,0,1,.44-.49,2.44,2.44,0,0,1,.45-.32l.67-.36a2.39,2.39,0,0,1,.43-.2l.41-.16.58-.22,471.1-200.47a3.94,3.94,0,0,0-.86-.31c-.23-.06-.47-.13-.69-.21L922.57,447.7l-38.69-14-50.36-18.28L785.57,398q-36.35-13.22-72.7-26.4-22.47-8.16-45-16.27-21.74-7.86-43.45-15.72c-16.87-6.12-35.09-12.76-55.71-20.33a5.27,5.27,0,0,0-4.14-.14c-14.5,6.06-29,12.07-43.09,17.86q-52.51,21.58-105,43.13-20.14,8.26-40.28,16.49l-41,16.81L282,435.23,231.49,456q-16.77,6.88-33.55,13.74l-32.71,13.39L117.32,502.8l-27,11.1-.53.22a5.22,5.22,0,0,1-3.55.61,3.1,3.1,0,0,1-2.28-2c-.57-1.82,1.13-2.55,1.69-2.79,3.73-1.6,7-3,10-4.21l46.27-19L204.73,461l73.69-30.24,152.13-62.4,22-9.1h0l101.72-41.69,2.08-.87c1.62-.68,3.3-1.38,5-2a13.88,13.88,0,0,1,9.86-.21q31.37,11.38,62.76,22.74L665,348.48l66.44,24.08L800,397.4l85.65,31,12,4.35C922,441.6,947.23,450.72,972,459.6c6.38,2.28,11.43,6.48,16.32,10.55l.8.67a5.82,5.82,0,0,1,2.31,5.21,6.91,6.91,0,0,1-4.14,5.24c-2.39,1.18-4.88,2.24-7.28,3.25l-1.37.58-66.93,28.48L837.86,545l-59.17,25.17-47.21,20.05-50.3,21.36-55.62,23.68-35.94,15.31c-6.53,2.78-13.27,5.66-19.93,8.43-1.65.69-2,1.12-1.87,2.34a4.37,4.37,0,0,1-2.7,4.44,4.46,4.46,0,0,0-1.18.74,11.64,11.64,0,0,1-5.57,7.15,2.46,2.46,0,0,0,0,.4c0,.18,0,.36-.06.53-.4,2.48-1.33,4-2.77,4.61s-3.07.13-5-1.29a3,3,0,0,1-.47-.46l-.08-.09a8.27,8.27,0,0,1-6.94-6.71c-.07-.11-.34-.14-.75,0l-1.82.75-2.85,1.18L525.16,678l-18.45,7.86a29.64,29.64,0,0,1-11.27,2.4l-.8,0a3,3,0,0,0-1.22.07c-2.82,1.6-5.37.61-7.62-.26l-.46-.18c-4.72-1.8-8.59-3.22-12.18-4.48a3.87,3.87,0,0,0-1.31-.29,3.29,3.29,0,0,0,.16,1.21,17.22,17.22,0,0,1,.56,5.69,4.81,4.81,0,0,1-1.85,3.7A3.69,3.69,0,0,1,468.61,694.29ZM94.41,545.54a3.51,3.51,0,0,1,.91.12,15.14,15.14,0,0,1,1.87.6l.3.11,13.59,4.93,16.66,6L142,562.48l119.4,43.23q17.58,6.38,35.17,12.72l44.4,16.05q31.63,11.46,63.26,22.95l31.53,11.44q7.68,2.77,15.33,5.59c3.35,1.24,3.52,1.82,3.11,5.23,0,.43-.13.82-.21,1.21a5.55,5.55,0,0,0-.18,1.79c.07.52.09,1.06.11,1.58.07,1.78.17,2.9,1.41,3.42a120.25,120.25,0,0,0,12.46,4.47,2.11,2.11,0,0,0,1.84-.15,2.85,2.85,0,0,0,1-2.21,15.15,15.15,0,0,0-.5-5c-.25-1-.48-2.39.4-3.2s2.26-.49,3.35-.11c3.61,1.26,7.5,2.7,12.24,4.51l.46.18c2.1.81,3.92,1.51,5.92.38a4.13,4.13,0,0,1,2.31-.33,3.72,3.72,0,0,0,.66,0A27.8,27.8,0,0,0,505.92,684l18.45-7.86,12.49-5.33,2.87-1.19,1.81-.75a2.92,2.92,0,0,1,2.4-.05,2.06,2.06,0,0,1,1.07,1.41,6.29,6.29,0,0,0,5.51,5.23,1.86,1.86,0,0,1,1.08.73l.15.17c1.25.93,2.31,1.3,3,1s1.28-1.38,1.55-3.07c0-.11,0-.23,0-.35a2.16,2.16,0,0,1,1-2,9.8,9.8,0,0,0,4.68-6.07c.31-.93,1.34-1.46,2.1-1.84,1.85-.95,1.72-2.1,1.68-2.48-.29-2.75,1.44-3.71,3.09-4.4,6.65-2.77,13.39-5.64,19.91-8.42l35.95-15.31,55.61-23.68,50.31-21.36,47.21-20,59.17-25.17L911,511.74l66.94-28.48,1.37-.58c2.38-1,4.83-2.05,7.17-3.2a5,5,0,0,0,3.05-3.68,3.93,3.93,0,0,0-1.6-3.44l-.81-.67c-4.75-4-9.67-8.05-15.71-10.21-24.81-8.87-50-18-74.36-26.82l-12-4.35-85.65-31-68.53-24.84-66.45-24.08-31.06-11.24q-31.39-11.36-62.77-22.74a11.88,11.88,0,0,0-8.49.21c-1.64.6-3.3,1.3-4.9,2l-2.1.87L453.31,361.12l-22,9.1-152.13,62.4-73.69,30.24-62.81,25.73-46.27,19c-3,1.23-6.27,2.6-10,4.2a2.38,2.38,0,0,0-.6.32,1.24,1.24,0,0,0,.9.72A3.58,3.58,0,0,0,89,512.3l.58-.25,27-11.1,47.91-19.68q16.35-6.72,32.71-13.4Q214,461,230.73,454.14l50.56-20.76,53.13-21.82,41-16.81,40.28-16.49q52.51-21.54,105-43.13c14.08-5.79,28.58-11.8,43.08-17.85a7.29,7.29,0,0,1,5.6.1c20.62,7.57,38.84,14.21,55.7,20.33q21.72,7.88,43.45,15.72,22.47,8.13,44.95,16.26l72.7,26.41,48,17.41,50.36,18.28,38.69,14,46.56,16.93.54.17a3.14,3.14,0,0,1,2.57,2.09l0,.12a1.79,1.79,0,0,1,1.19-1.09,2.56,2.56,0,0,1,2.18.59l.83.61c3.27,2.4,6.65,4.89,9.86,7.5a3.38,3.38,0,0,1,1.51,3c-.08.81-.56,2-2.39,3s-4,1.92-6,2.76l-.66.28-16.71,7.08q-9,3.79-17.92,7.59l-55,23.39L851,536.31l-92.17,39.2L714.3,594.44l-54.63,23.23-51.45,21.89-64.88,27.59-35.4,15.06a34.07,34.07,0,0,1-12.93,3.1c-6.22.13-11.93-1.95-17.42-3.94l-1.45-.53A3.28,3.28,0,0,1,474,679.1a2.56,2.56,0,0,1-.13-1.28,11.51,11.51,0,0,0-1.88.75,4.82,4.82,0,0,1-4.31.19,2.09,2.09,0,0,1,.49,1.52.64.64,0,0,1,0,.2,1.9,1.9,0,0,1-2.2,1.46l.56.28a2.2,2.2,0,0,1,1.23,2.08,2.15,2.15,0,0,1-.88,1.78,2.09,2.09,0,0,1-1.91.2c-3-1.06-5.89-2.22-8.07-3.11a2.32,2.32,0,0,1-1.31-2.59,1.82,1.82,0,0,1,.79-1.3,1.89,1.89,0,0,1,1.09-.27l-.21-.09a2,2,0,0,1-1.16-2.33,2.21,2.21,0,0,1,1.09-1.39,2,2,0,0,1,1.6-.11l1.86.68a6.66,6.66,0,0,1-1.46-1.64s-.09,0-.39,0a6.53,6.53,0,0,1-3.12-.71l-.75-.3-45.24-16.44-66.91-24.32q-20.83-7.57-41.7-15.12-22.32-8.09-44.64-16.18l-123.66-45L99.93,544.2a21.69,21.69,0,0,1-2.62-1.09,1.75,1.75,0,0,1-.68-2.52l0,0c-.79.3-1.64.62-2.49,1a4.52,4.52,0,0,1-3.54.26l-2-.77c.48.24.94.5,1.4.77a1.4,1.4,0,0,1,.6,1.18s0,.08,0,.12a1.2,1.2,0,0,1,0,.5A1.86,1.86,0,0,1,88.63,545l.54.33a2.31,2.31,0,0,1,.83,2.8,1.87,1.87,0,0,1-2.36,1.21l-.74-.22a40.39,40.39,0,0,1-7.52-2.78A3,3,0,0,1,78,544.73a2.12,2.12,0,0,1,.14-1.79,2.33,2.33,0,0,1,1.47-1l-.43-.22a1.67,1.67,0,0,1-.78-2.24c.21-.39.93-1.36,1.85-1.17,1.08.24,2.08.48,3,.75l-.34-.13a1,1,0,0,1-.62-1.13,2.44,2.44,0,0,1,.65-1.25,7,7,0,0,1-4.6-.07l-2.46-.9c-3-1.08-6.08-2.2-9.09-3.42a3.86,3.86,0,0,1-2.63-2.54,4,4,0,0,1,1.26-3.52A9.06,9.06,0,0,1,66.65,525c.18-.14.37-.29.54-.44l9-7.84a2.94,2.94,0,0,0,.29-.27c-.23-.34-.39-.26-.5-.19a12.82,12.82,0,0,0-2.18,1.54c-2.36,2-4.82,4.22-7.3,6.45s-3.54,4-3.32,5.33,1.83,2.76,4.93,4.16c.85.38,1.7.7,2.6,1a31.77,31.77,0,0,1,3.8,1.61c1.11.58,3.17,1.66,2.37,4.47a17.73,17.73,0,0,0-.49,3.74l0,.65c0,.35-.07.71-.11,1.09-.24,2.2-.3,3.58,1.4,4.31,3.81,1.64,7.76,3.13,11.75,4.44a2.73,2.73,0,0,0,2.37-.15,3.26,3.26,0,0,0,1.15-2.61,10.83,10.83,0,0,0-.34-3.93,2.15,2.15,0,0,1,.32-2.28A2,2,0,0,1,94.41,545.54ZM457.54,681.07c0,.14,0,.23.09.25,2.16.88,5,2,8,3.08a.3.3,0,0,0,.12,0s0-.07,0-.18h0c0-.08,0-.15-.17-.24a40.74,40.74,0,0,0-7.51-2.77Zm9.64-.85h0ZM458,677.07l.06,0a45.21,45.21,0,0,0,7.18,2.59c-2.6-1-4.86-1.89-7.17-2.71C458.08,677,458.05,677,458,677.07ZM79.89,544s0,.07,0,.14a1.07,1.07,0,0,0,.38.5,39.4,39.4,0,0,0,7.16,2.64l.66.19c.05-.17.05-.33,0-.38a19.8,19.8,0,0,0-4.87-2c-1.06-.34-2.14-.68-3.18-1.13Zm1.85-3.26A46,46,0,0,0,87,542.52,29.61,29.61,0,0,0,81.74,540.71ZM466.49,690h-.16A21.4,21.4,0,0,1,456.24,686a1,1,0,0,1,.76-1.77,23.33,23.33,0,0,1,10.06,3.89,1,1,0,0,1-.57,1.83Zm83.73-16.75a1.81,1.81,0,0,1-1.67-1.06,1.68,1.68,0,0,1,.35-1.87,6.18,6.18,0,0,1,4.58-1.71,1.47,1.47,0,0,1,1.1.45,1.89,1.89,0,0,1,.52,1.37,1.17,1.17,0,0,1-.08.37,1.91,1.91,0,0,1-.53.93,6.52,6.52,0,0,1-4.23,1.52Zm2.26-2.55a4.3,4.3,0,0,0-1.48.48A4.44,4.44,0,0,0,552.48,670.66Zm1.62-.29h0ZM88.41,553.15l-.22,0a34,34,0,0,1-10-3.66,1,1,0,0,1,.43-1.87c3.47-.21,8.57,1.67,10.51,3.89a1,1,0,0,1-.75,1.66Z"/><path class="cls-2" d="M461.05,785.27a19.27,19.27,0,0,1,9.67,7.17c1.65,2.34,1.3,4.63-1.07,6.18a15.36,15.36,0,0,1-6.82,2,9.29,9.29,0,0,1-3.16-.89L354.3,761.52l-77.51-28.09-105-38.1L56.86,653.65a8.8,8.8,0,0,1-1-.36c-.94-.47-2.19-.66-2.32-2a2.43,2.43,0,0,1,1.73-2.83c1.49-.44,1.48-1.3,1-2.49-.39-1-.59-2.09-1-3.07-.55-1.22-.65-2.32.35-3.32s2-.51,3-.14L71.18,644ZM59.71,650.81c1.07.44,1.83.79,2.61,1.07l48.59,17.66L272.3,728.16l153.24,55.65c11.55,4.2,23.11,8.37,34.65,12.61a6.15,6.15,0,0,0,6.48-.78c-2.59-1-4.69-1.79-6.81-2.56Q419.57,778.52,379.29,764q-52.35-19-104.66-38Q213,703.6,151.26,681.25L87,658Q76,654,64.92,650C63.23,649.41,61.49,648.67,59.71,650.81Z"/><path class="cls-2" d="M889.74,369.4l88.41,32c22.33,8.08,44.62,16.24,67,24.22a19.27,19.27,0,0,1,9.67,7.17c1.65,2.34,1.29,4.63-1.08,6.18a15.28,15.28,0,0,1-6.81,2,9.29,9.29,0,0,1-3.16-.89L938.39,401.85l-77.51-28.09-105-38.1L641,294c-.34-.13-.7-.21-1-.37-.94-.47-2.19-.66-2.32-2a2.43,2.43,0,0,1,1.73-2.83c1.49-.44,1.47-1.3,1-2.49-.39-1-.59-2.09-1-3.07a2.67,2.67,0,0,1,.35-3.32c1-1,2-.51,3-.14l12.57,4.58,88,32q56.25,20.42,112.51,40.81ZM643.8,291.14c1.07.44,1.83.79,2.61,1.07L695,309.87l161.39,58.62,153.24,55.65q17.32,6.3,34.65,12.61a6.17,6.17,0,0,0,6.48-.77c-2.59-1-4.69-1.8-6.82-2.57q-40.28-14.57-80.56-29.13-52.35-19-104.67-38L735.35,321.58l-64.23-23.29q-11-4-22.11-7.94C647.32,289.74,645.58,289,643.8,291.14Z"/><path class="cls-2" d="M60.26,603.14l-1.35-.51a8.17,8.17,0,0,1-5.39-8.36,2.54,2.54,0,0,1,1.58-2.21c3.52-1.85,6.82-2.48,10.95-.95,31.65,11.7,63.4,23.12,95.12,34.64q43.32,15.74,86.65,31.49,48.26,17.5,96.55,34.94,65.08,23.6,130.15,47.25c.8.29,1.56.65,2.36.92a3.65,3.65,0,0,1,2.69,4.19c-.24,3.56-2.54,5.87-5.13,7.86-1.14.89-2.54.06-3.79-.39-6.58-2.37-13.16-4.7-19.73-7.09Zm-1.12-9.06a9.2,9.2,0,0,0,3.52,1.67q48.77,17.75,97.54,35.44,43.52,15.78,87,31.52,66.61,24.18,133.21,48.41,35.34,12.84,70.68,25.71c6.23,2.27,12.48,4.49,18.71,6.75,1.61.58,3.14.91,4.38-1.05a117.14,117.14,0,0,0-11-4.12L367,703.51,266.72,667.18,159.3,628.24,103.56,608q-20.07-7.26-40.14-14.48C62,593,60.5,592.28,59.14,594.08Z"/><path class="cls-2" d="M905.74,585.3c-.09,5,0,9.87,2.92,14.25a34.23,34.23,0,0,1,2.87,5.42,8.37,8.37,0,0,1-4.13,11.26c-.32.17-.66.31-1,.46-7,3.25-11.94,1.39-15.12-5.71a34.49,34.49,0,0,1-1.21-3.77,5.17,5.17,0,0,1,1.26-5.66c.58-.59,1-1.37,1.57-2a8.69,8.69,0,0,0,2.44-7.27,2.17,2.17,0,0,1,0-.36c.11-5.47-.3-10.64-3.93-15.33-2.07-2.69-3.12-6.22-4.39-9.47-1.53-3.87-.46-6.06,3.41-7.69a9,9,0,0,0,5.44-10.41,3.72,3.72,0,0,0-1.55-2.29c-2.84-2.34-2.78-4.58.38-6,2.28-1,2.9-2.51,2.85-4.8-.1-4.21-.06-8.43,0-12.65,0-1.25-.36-2.69,1.07-3.67,1.45.84,1.1,2.27,1.11,3.5.06,4.34.11,8.68,0,13-.07,2.43.53,4,3.07,5,3.88,1.48,4,3.79.63,6.42a2.28,2.28,0,0,0-1.16,2.4c.54,2.56.69,5.26,2.64,7.33,1.25,1.33,1.26,3.07,1.44,4.75.12,1.1.56,1.62,1.86,1.6,4.17-.05,5.79,2.35,4.27,6.23-.66,1.68-1.61,3.23-2.37,4.88a23.57,23.57,0,0,0-1,2.7Zm-15.06-18.81a9.34,9.34,0,0,0,3.23,5.82c1.46,1.29,3.47.83,5,1.92a2.21,2.21,0,0,0,1.74-.06,2.86,2.86,0,0,0,1.79-2.5c.09-1.12-1-1.35-1.8-1.33C897.05,570.46,894.2,568.67,890.68,566.49Zm12.44,24.11c-.17-1.74-.39-4.12-.64-6.5-.06-.64-.35-1.2-1-1.27a1.26,1.26,0,0,0-1.35,1,10.33,10.33,0,0,0-.32,2.47c0,2,0,4.07.18,6.1.08,1.08-.62,2.59,1.06,3,1.23.31,2-.92,2.11-3.06C903.13,592,903.12,591.6,903.12,590.6Zm-8,14.42a1.69,1.69,0,0,0-1.56,2.29,12.43,12.43,0,0,0,2.84,5.78,7.29,7.29,0,0,0,3.76,2,1.34,1.34,0,0,0,1.33-.4.85.85,0,0,0-.11-1.27,18.31,18.31,0,0,1-4.81-7.53A1.36,1.36,0,0,0,895.17,605ZM908,605c-1.22-2.36-2.44-5.21-4.47-7.59-.54-.62-1.33-.23-2,.17a1.17,1.17,0,0,0-.54,1.53,41.52,41.52,0,0,0,4.17,7.49,1.39,1.39,0,0,0,1.93.27C907.74,606.55,908.1,606.13,908,605Zm-4.22-40.39c-.06-3.26-1.14-3.78-3.64-3.12-1.19.31-2.23,4.87-1.46,5.88a1.25,1.25,0,0,0,.58.39A3.45,3.45,0,0,0,903.82,564.6Zm-4.27,39.21c.42,4.06,1,5.05,3.5,6.27A18.87,18.87,0,0,0,899.55,603.81Z"/><path class="cls-2" d="M690,661.23c-3,1.25-5.67,1.67-8.63.21-1.72-.84-3.56-1.45-5.37-2.12a4.81,4.81,0,0,1-3.33-4.32,66.92,66.92,0,0,1-.26-7.22,6.8,6.8,0,0,1,4.67-6.63c6.13-2.44,5.33-1.22,5.38-8.34,0-5.66,0-11.33,0-17,0-1.12-.28-2.37.89-3.5,1.27,1.12.93,2.5.93,3.71,0,6,0,12,0,18.06,0,4.66,0,4.6,4.27,6.11,2.9,1,6,1.51,8.22,4.19,1.09,1.33,2.73.36,4-.17,6.35-2.6,12.68-5.26,19-7.89l5.35-2.17a132.55,132.55,0,0,0,22.39-12.26,3.44,3.44,0,0,1,1.25-.71c3.71-.48,7-2,10.37-3.61,1.87-.88,3.79-.7,4.95,1.48a2.16,2.16,0,0,0,2.76,1.06,7.47,7.47,0,0,1,2.86.15c1.57.2,2.74.75,3.15,2.45s.35,3.35-1.19,4.58a4,4,0,0,1-1.19.8c-5.08,1.61-9.19,5.26-14.83,6.07Zm46.77-25a1,1,0,0,1-1.11.25c-1.83-.4-3.75-1.34-5,1.12a.76.76,0,0,1-1.25,0c-1.32-2.05-2.87-1-4.39-.41q-10.34,4.27-20.65,8.6c-.73.3-1.68.38-2,1.6,3.08,1.64,5.89,2.7,9.64,1,9.18-4.21,18.58-7.93,27.89-11.86.62-.26,1.45-.26,1.67-1.13-4.46-2.36-5.35-2.52-7.65-1.39C734.84,634.77,736.55,634.63,736.76,636.24Zm18.48-8.42c-3.4-2-6.36-3.15-9.69-1.12-2.34,1.42-5.09,2.24-7.09,4.44a16.56,16.56,0,0,0,4.22,1.82,3.84,3.84,0,0,0,3.46-.13Zm-79.66,23.71c0,2.71.26,3.12,2.95,4.13,1,.37,2,.72,3,1s1.54-.18,1.51-1.29c-.08-3.46-1.22-4.73-5.16-5.66C675.93,649.25,675.59,649.51,675.58,651.53Zm19,3.63a18.82,18.82,0,0,0-5.76-2.27,1.68,1.68,0,0,0-2.23,1.68,17.66,17.66,0,0,0,0,2.52c.05,1.16.72,1.45,1.71,1.06A23.27,23.27,0,0,0,694.54,655.16Zm-14.88-11.48c3.4,1.12,6.14,3.42,9.32.69C685,641.45,683.47,641.28,679.66,643.68Zm3.89,4c-.11-.22-.16-.52-.33-.61a13.07,13.07,0,0,0-6.32-2.16,1.2,1.2,0,0,0-1,.9,1.06,1.06,0,0,0,.37,1.28,13.9,13.9,0,0,0,6,2C683.07,649.21,683.41,648.44,683.55,647.7Zm10.5,1.8c0-2.7-1.63-3.57-4.36-2.28-.69.33-1.74.49-1.42,1.67.19.74,3.52,2.13,4.72,2.08C694,650.93,694.06,650.25,694.05,649.5Zm3.74-1.39c.32,5,.56,5.1,4.63,3.11.39-.2.92-.34.83-1.17A18.32,18.32,0,0,0,697.79,648.11Z"/><path class="cls-2" d="M976.47,467.46c-.72,1.37-2,1.65-3,2.1C815.38,536.64,657.59,604.39,499.32,671c-.11,0-.35-.24-.54-.38a.71.71,0,0,1,.41-.89Q736.85,568.51,974.54,467.32A1.68,1.68,0,0,1,976.47,467.46Z"/><path class="cls-2" d="M499.29,672a1.6,1.6,0,0,1-1-.48l-.1-.1a1,1,0,0,1-.37-.51,1.71,1.71,0,0,1,1-2.11Q736.46,567.59,974.15,466.4a2.63,2.63,0,0,1,2.91.26,1,1,0,0,1,.29,1.26,5,5,0,0,1-3,2.37l-.48.19c-58.5,24.82-117.93,50.15-175.4,74.65-97.85,41.7-199,84.83-298.73,126.79A1.14,1.14,0,0,1,499.29,672Z"/><path class="cls-2" d="M103.85,526.63,491.18,667.24c.55.2,1.16.38,1.35,1.3-1.15.94-2.23.07-3.2-.28-8.29-3-16.55-6-24.82-9l-75.12-27.22q-51.83-18.81-103.64-37.65L173.94,553.83q-33.3-12.09-66.62-24.15C105.88,529.15,104.35,528.73,103.85,526.63Z"/><path class="cls-2" d="M491.44,670a4.59,4.59,0,0,1-1.91-.53c-.19-.08-.36-.17-.54-.23Q480,666,471,662.72l-33-12-49-17.75-63.39-23L285.4,595.36q-55.89-20.31-111.8-40.59l-34-12.35L107,530.62l-.26-.1c-1.45-.51-3.25-1.16-3.84-3.66a1,1,0,0,1,.3-1,1,1,0,0,1,1-.19L128,534.33l363.53,132a2.65,2.65,0,0,1,2,2,1,1,0,0,1-.35,1A2.67,2.67,0,0,1,491.44,670Z"/><path class="cls-2" d="M555.64,705.29a2.9,2.9,0,0,0-2.28,3.24c.33,3.69-2.4,4.53-5,5.62-2.76,1.17-5.17.37-7.53-1-.67-.4-.75-1.18-.89-1.9a67.21,67.21,0,0,1-.71-9.72c-.11-2,1-3.08,2.73-3.79,3-1.27,6-2.62,9-3.82,1.69-.66,2.45-1.61,2.27-3.52a50.34,50.34,0,0,1-.05-6.5c0-1.14-.38-3,1-3.07,1.56-.07,1.09,1.81,1.15,2.91.1,1.92,0,3.86.06,5.78s.48,2.2,2.2,1.52c2.57-1,5.08-2.23,7.66-3.23,3.37-1.31,6,.05,6.81,3.56a13.3,13.3,0,0,0,1.32,3.72c1.15,2,.81,4.21.58,6.35a3,3,0,0,1-.8,1.57,9.34,9.34,0,0,1-10.9,1.3c-.47-.29-.81-.85-1.69-.74Zm-3.39-4.69c2.78-1.28,6.16-2.82,9.53-4.41a1.44,1.44,0,0,0,.61-.84c.2-.67.58-1.42-.07-2s-1.13-.18-1.68,0c-1.44.59-2.87,1.21-4.31,1.81-1.88.8-3.77,1.57-5.64,2.4-.72.31-1.23.85-.76,1.68C550.3,699.93,550.36,701,552.25,700.6Z"/><path class="cls-2" d="M491,670.82a1,1,0,0,1-1.25.46Q300.42,602.79,111.25,533.91a.92.92,0,0,1-.63-1.12c2.89.29,369.69,132.67,379.21,136.86C490.38,669.9,491,670.1,491,670.82Z"/><path class="cls-2" d="M490.11,672.34a2.16,2.16,0,0,1-.71-.12c-123.66-44.73-251.52-91-378.49-137.37a1.93,1.93,0,0,1-1.26-2.3,1,1,0,0,1,1.07-.76c3.29.33,368.61,132.15,379.51,137l.1,0a2.29,2.29,0,0,1,1.66,2,1.08,1.08,0,0,1-.14.58A2,2,0,0,1,490.11,672.34Z"/><path class="cls-2" d="M60.46,487.79c-.92,2.8-2.71,5.34-4.28,7.9a4.26,4.26,0,0,1-3.68,2,10.51,10.51,0,0,1-8.52-4A3.8,3.8,0,0,1,43,491c.06-1.4,1-2,2.11-1.16,1.58,1.1,3,2.35,4.56,3.54.64.5,1.27,1.41,2.09.38s0-1.59-.65-2.13c-2.46-2.13-5-4.2-7.45-6.29-.18-.16-.42-.41-.6-.38-3.89.58-6.11-2.88-9.35-3.88-2.61-.79-3.91-2.95-3.41-5.15s2.61-3.36,5.52-3.16a14.71,14.71,0,0,1,5.84,6.1,2.47,2.47,0,0,1,.92,1.09c1.56,4.74,6.09,6.61,9.33,9.71,1.32,1.27,3.44.82,4.65-.7.17-.23.23-.95-.16-.67-1.91,1.37-.64-2.05-2.35-1.41s-1-2.11-2.57-2.33a12.21,12.21,0,0,1-3.34-1.33,4.08,4.08,0,0,1-1.4-1.09c-.6-.79-.23-1.41.66-1.55a5.48,5.48,0,0,1,3.45.89S60.22,484.4,60.46,487.79Z"/><path class="cls-2" d="M934.61,528.78c-.8.51-1.77.75-2.63,1.2a5.73,5.73,0,0,1-7-.84,2.56,2.56,0,0,0-3.51-.37,8.57,8.57,0,0,1-2,.84,4.47,4.47,0,0,0-3.53,4.47c-.1,4.18-3.72,4.33-6.27,5.48-2.3,1-4.42-.41-6.37-1.62a2.25,2.25,0,0,1-.84-1.92c-.19-2.52-.38-5-.58-7.81-.07-3.87.32-4.48,4-6.06,7-3,13.92-6.07,20.9-9.06,4.26-1.82,7.28-.28,8.4,4.17C935.14,517.26,939.53,525.63,934.61,528.78Zm-9.3-10c-.22-1-.9-1-1.64-.74-3.45,1.43-6.88,2.88-10.32,4.31a1.42,1.42,0,0,0-.84,2.27c.46.87,1,1.32,2,.87l9.23-4.09A2.83,2.83,0,0,0,925.31,518.82Z"/><path class="cls-2" d="M494.6,722.81c-1.68.23-3.29-.6-5-.9-2.07-.38-2.51-1.87-2.8-3.66-.32-2,.78-2.88,2.32-3.56s3.07-1.39,4.64-2a3.72,3.72,0,0,0,2.74-4.09c-.15-2.88,0-5.78,0-8.67h0c0-2.77,0-5.54,0-8.31,0-1-.4-2.75.8-2.74,1.7,0,1,1.86,1,2.9.09,5.18,0,10.36.05,15.54,0,4,0,4,3.78,5.37,1.13.41,2.26.84,3.4,1.21,1.91.61,3.11,1.63,3,3.9s-.36,2.79-3,3.77a11,11,0,0,1-1.37.45S501.27,723.59,494.6,722.81Zm7.41-6.49c-3.07-2.13-6.1-1.94-9.32.09C496,718.15,499,716.55,502,716.32Zm-11.68,2.19c4.74,2.13,11,1.86,14.11-.44C499.76,719.44,495.05,719,490.33,718.51Z"/><path class="cls-2" d="M989.26,515.05a5.85,5.85,0,0,1-7.78,1.38,17.29,17.29,0,0,0-2.72-1c-1.86-.63-3.12-1.62-3.11-3.86s.46-3.89,2.68-4.58c3.2-1,4.09-3.13,3.9-6.34-.25-4.2-.09-8.43,0-12.65,0-1.27-.33-2.67,1-3.9,1.5,1.06,1.13,2.49,1.14,3.75.06,4.1.1,8.2,0,12.3,0,2.12.35,3.74,2.59,4.56a5.66,5.66,0,0,1,3.13,2.91S991.59,513.3,989.26,515.05Zm-9.4-5a42.86,42.86,0,0,0,4.3,1.66c1.3.35,2.28-.46,3.08-1.4a1.43,1.43,0,0,0-.12-2,2.52,2.52,0,0,0-3.2-.81C982.64,508.1,981.17,508.36,979.86,510Z"/><path class="cls-2" d="M118.62,543.79c-.08.67-.57.92-1,.68a19.34,19.34,0,0,1-2.67-1.82L71.87,508.07c-3.85-3.09-7.73-6.14-11.58-9.23a17.54,17.54,0,0,1-1.89-1.66,1.16,1.16,0,0,1-.13-1c.13-.41.55-.4.92-.31a5.62,5.62,0,0,1,2.1,1.35l46.52,37.22c3.2,2.55,6.37,5.13,9.55,7.71C117.9,542.63,118.59,543,118.62,543.79Z"/><path class="cls-2" d="M965.14,465.79a1.2,1.2,0,0,1-.75,1.13q-5.26,2.24-10.56,4.39a.88.88,0,0,1-1.21-.4.93.93,0,0,1,.61-1.16q5.4-2.34,10.85-4.58A.77.77,0,0,1,965.14,465.79Z"/><path class="cls-2" d="M953.39,472.4a1.8,1.8,0,0,1-1.69-1.1,1.89,1.89,0,0,1,1.13-2.46c3.85-1.67,7.41-3.17,10.87-4.59a1.73,1.73,0,0,1,1.52.08,1.78,1.78,0,0,1,.91,1.27.89.89,0,0,1,0,.23,2.22,2.22,0,0,1-1.36,2c-3.91,1.65-7.36,3.09-10.57,4.4A2.17,2.17,0,0,1,953.39,472.4Zm11.75-6.61h0Z"/><path class="cls-2" d="M105.05,510.82a1.11,1.11,0,0,1-.77,1.42q-5.15,2.21-10.33,4.33c-.56.23-1.24.3-1.55-.39-.24-.54.22-.92.65-1.11a108.54,108.54,0,0,1,11.39-4.55C104.59,510.47,104.84,510.71,105.05,510.82Z"/><path class="cls-2" d="M93.25,517.73a1.85,1.85,0,0,1-1.76-1.14,1.63,1.63,0,0,1,0-1.28,2.22,2.22,0,0,1,1.21-1.16l.18-.08a110.08,110.08,0,0,1,11.31-4.51,1.44,1.44,0,0,1,1.27.31l.11.07a1.06,1.06,0,0,1,.49.59,2.1,2.1,0,0,1-1.33,2.63c-3.2,1.37-6.59,2.79-10.35,4.34A3,3,0,0,1,93.25,517.73Zm11.49-6.26Z"/><path class="cls-2" d="M75.83,520a63.36,63.36,0,0,1,12.93,4.67C85.5,525.14,77.94,522.37,75.83,520Z"/><path class="cls-2" d="M88,525.72c-3.86,0-10.69-2.6-12.88-5.05a1,1,0,0,1,1-1.64,64.54,64.54,0,0,1,13.13,4.73,1,1,0,0,1,.56,1,1,1,0,0,1-.85.84A5.53,5.53,0,0,1,88,525.72Z"/></g></g></svg>