<svg xmlns="http://www.w3.org/2000/svg" viewBox="0 0 1080 1080"><defs><style>.cls-1{fill:#8e8e8e;}.cls-2{fill:#f6f6f6;}</style></defs><g id="Capa_2" data-name="Capa 2"><g id="Capa_1-2" data-name="Capa 1"><path class="cls-1" d="M878.37,666.67c-3.17-1.62-5.29-2.94-5.76-6.44a57.41,57.41,0,0,0-8.91-23.38l-.24-.37c-1.06-1.63-2-3-1.36-4.83.43-1.28.83-2.57,1.24-3.87,2.68-8.56,5.22-16.65,15.14-19.83,3.9-1.24,6.28-3.63,7.07-7.11,2.68-11.74-1.1-22.14-10.37-28.52-3.74-2.58-4.65-5.44-3.25-10.19,1.17-4,4.08-6.45,6.76-8.37,8.35-5.94,12.1-13.8,11.49-24-.86-14.44-2.33-33.42-6.08-52.18-1.72-8.6-5.61-14.1-11.89-16.81-7.08-3.06-11.3-8.41-13.29-16.82-2.64-11.16-8.5-18.88-17.91-23.59-7.6-3.8-13.07-19.08-11.19-27,2.07-8.7.17-13.07-7.81-18-1-.63-2.06-1.25-3.08-1.87-6.38-3.83-12.4-7.45-16.61-14.12a275.58,275.58,0,0,0-29-37.61c-3.16-3.5-4.46-6.92-4.23-11.1.78-13.8-4.43-24.76-15.92-33.51-36.87-28.07-73.48-45.54-111.93-53.42-29-5.94-66.71-9.86-101.32,12.73-2.37,1.54-4.55,1.53-7.09,0-6.07-3.7-12.2-3.62-18.21.27-2,1.28-3.81,2.28-5.92,1.44l-3.95-1.57c-9.94-4-20.23-8-29.4-14-2.34-1.52-2.81-2.49-2.8-3.05,0-.79,1.05-1.8,3.07-3,6.07-3.56,12.16-7.25,18.11-10.95,4.35-2.7,6.88-6.68,6.95-10.92s-2.39-8.4-6.74-11.29c-2.12-1.42-4.37-2.69-6.55-3.92-1.79-1-3.63-2-5.38-3.15-6-3.78-11.9-3.85-18.14-.21-9.09,5.29-18.43,10.51-27.46,15.56l-10,5.58c-7.52,4.23-15.43,3.6-19.68-1.56-5.51-6.69-12-9.46-18.93-12.4-1.66-.7-3.37-1.43-5.08-2.22-15.39-7.1-26.1-2.88-38.4,6.22a18.28,18.28,0,0,0-7.87,15.81c0,3.6-.08,7.27-.19,10.83a143.27,143.27,0,0,0,.37,20.6c3.63,31.57,17.9,52.35,43.63,63.53,2.53,1.1,4.08,2,4.14,4.69.09,3.48-.9,5.43-3.54,6.95q-14,8.07-28,16.23c-27.79,16.14-56.52,32.84-85.33,48.28l-.52.28c-1.22.68-2.38,1.32-3.43.88-13-5.45-20.22,5-24.51,11.23-4.11,6-8.69,11.64-13.12,17.14q-1.64,2-3.26,4a138.2,138.2,0,0,0-9.91,13.64c-16.17,26.32-23.28,57-23.05,99.34C190,562.18,198,604,214.13,648.62c28.09,77.44,74,143.76,136.5,197.1C385.52,875.51,420,894,456,902.34a154.85,154.85,0,0,0,34.82,4.24,110,110,0,0,0,56.95-15.21c8-4.68,16-9.61,23.67-14.38,7.91-4.89,16.09-10,24.25-14.73C616,850.34,636.84,838.38,657,826.82l22.57-13A22.13,22.13,0,0,0,678,829.22c1.51,5.12,5.16,9,10.56,11.33a75,75,0,0,1,8.35,4.43c1.23.73,2.46,1.45,3.71,2.14,8.17,4.53,16.42,4.45,24.52-.23,4.74-2.74,9.61-5.46,14.32-8.09,7.61-4.24,15.47-8.63,23-13.26,7.93-4.85,15-4.91,22.84-.19l2.15,1.28c8.55,5.12,17.38,10.42,26.46,14.9,7.11,3.52,16.22,2.88,24.38-1.69,7.9-4.42,13-11.54,13.7-19,3.34-36.93-7.54-64.79-33.28-85.16-.66-.52-2.4-1.9-2.37-2.78,0-.26.22-.54.63-.83,2.27-1.6,3.82-4.14,5.31-6.61,3-4.91,5.57-9.15,13.14-6.54,1.39.48,3.18-.37,4.9-1.35,3.35-1.94,6.72-3.85,10.09-5.77,9.78-5.56,19.89-11.31,29.58-17.39,4.28-2.68,6.68-7.84,6.41-13.8C886.13,674.39,883.05,669.06,878.37,666.67Zm-45.62,43.88a42,42,0,0,0,1.59-5.65,33.18,33.18,0,0,1,2.39-7.47c4.57-9.22,12.48-12.89,20.85-16.77,4.66-2.16,9.47-4.4,13.56-7.66a4.59,4.59,0,0,1,2.41-1.17h.16a.72.72,0,0,1,.52.39,1.28,1.28,0,0,1,.29.79c-.08.29-.79.67-1.3.94a6.76,6.76,0,0,0-1.58,1,14.21,14.21,0,0,1-3,1.93c-1.92,1-3.73,2-4.14,3.52a2.58,2.58,0,0,0,.38,2.07,3.69,3.69,0,0,0,2.38,1.79c1.95.4,3.93-1,5.86-2.32a20.42,20.42,0,0,1,2.26-1.43c2-1,2.71-.82,3-.64s.85,1.14.76,3.92v.06c.07,2.31-1.4,4.47-4.13,6.1-8.29,4.93-17.07,10.09-27.63,16.26l-.13.07a12,12,0,0,1-2.24,1.12c-2.42-1.72-4.38-2.25-6-1.64-2.16.83-3.06,3.6-3.55,5.75a3.48,3.48,0,0,1-1.42.23,1.82,1.82,0,0,1-1.19-.76A.54.54,0,0,1,832.75,710.55Zm-5.07-12.69a2,2,0,0,1-.3,1.72c-.33.26-1,.23-1.92-.1-.28-.1-.59-.24-.92-.38-1.24-.55-2.64-1.18-3.93-.66a2.81,2.81,0,0,0-1.53,1.63c-1.15,2.82,1.29,4.09,2.74,4.85a10.06,10.06,0,0,1,1.35.79l1,.77-8.38-4.82q-13.77-7.93-27.55-15.83c-2.28-1.31-4.18-3.74-2.67-6.66.23-.44.58-1,1-1.1a.76.76,0,0,1,.21,0,5.23,5.23,0,0,1,2.13,1,9.06,9.06,0,0,0,2.18,1.13,8.64,8.64,0,0,1,1.51.71c1.46.79,3.89,2.1,5.38-.5s-.86-4-2.25-4.92a8.7,8.7,0,0,1-1.37-1,7.12,7.12,0,0,0-1.92-1.19c-.65-.31-1.46-.7-1.57-1.07a1.38,1.38,0,0,1,.27-.92,2.33,2.33,0,0,1,1.69-1.19,4.18,4.18,0,0,1,3.24,1.14c9.16,8.3,17.53,3.94,25.33-1.23,2.87-1.91,6-3.6,9-5.24,2-1.09,4.1-2.23,6.11-3.42,3.88-2.31,7.26-1.68,9.53,1.75a3.64,3.64,0,0,1,.8,2.78c-.33,1.35-2.11,2.34-3.82,3.31l-1.07.6c-4,2.34-7.9,4.65-11.86,7-6.2,3.63-12.61,7.39-18.88,11.14-.37.22-.76.42-1.15.62-1.78.89-4,2-4.16,5a1,1,0,0,0,.32.79c2.28,2.09,4.28.79,5.61-.08.25-.16.5-.32.75-.46q9.45-5.25,18.85-10.56,6.45-3.63,12.91-7.25l.63-.35a28.45,28.45,0,0,1,5-2.43c1.2-.4,3.21-.41,3.79,1.16.24.64,0,1-1.69,1.84l-.85.46-1.19.71c-4.54,2.68-9.22,5.45-13.93,8C831.88,687.61,826.59,690.44,827.68,697.86ZM805.24,728c-8.62-3.26-17.39-2.37-26.07,2.62-2.41,1.39-3.22,1.23-3.45,1.1-.77-.44-.82-3.07-.84-3.94a27.42,27.42,0,0,1,.13-2.81c.26-3.44.56-7.33-3.43-10.13-1.36-.95-3.63-2.54-5.79-.63a2.78,2.78,0,0,0-1,1.92,4.65,4.65,0,0,0,1.57,3.14l.08.08a7,7,0,0,1,1.91,5.27,15.57,15.57,0,0,0,.13,2.78c.29,2.81.19,3.85-1,4.1a1.37,1.37,0,0,1-1.14-.09c-.64-.49-.71-2.26-.76-3.56,0-.49,0-1-.08-1.4-.16-1.79-1.2-2.89-2.71-2.89h0a3.68,3.68,0,0,0-3.52,2.86c-1.43,4.43.79,7.81,2.88,10.26.21.25.45.5.7.75,1.28,1.33,1.62,1.85.79,2.93a3.8,3.8,0,0,1-4.76,1,54,54,0,0,1-8.83-4.65c-5.19-3.53-10.19-3.57-15.27-.13-1.82,1.23-3.74,2.28-5.78,3.4-4.64,2.55-9.44,5.19-13.58,10.21a1,1,0,0,0-.13,1.06,1,1,0,0,0,.89.58c7.14.12,11.53-3,15.43-5.77l.84-.59c7.14-5,12.55-5.19,18.67-.67,6.8,5,13.66,4.62,20.38-1.22s14.82-4.13,21.78-1.62c.35.13.75.33,1.19.54,1.27.63,2.71,1.34,4,.83a3.35,3.35,0,0,0,1.74-4.12c-.6-1.42-2.25-2.08-3.71-2.66-.34-.13-.66-.26-.95-.4a55.34,55.34,0,0,0-5.37-2l-.89-.31c3.11-1.36,6-1,9.07-.45a36.81,36.81,0,0,1,17.72,8.53c19.1,16.85,28.68,35.54,29.27,57.13.17,6.13.11,12.38,0,18.42l0,2.67a11.22,11.22,0,0,1-5.17,9.71V805.72a1,1,0,0,0-1.69-.71c-4.36,4.28-4.45,8.23-4.54,11.72,0,.51,0,1,0,1.5-.59,11.35-2.26,17-5.56,18.82s-8.87.29-18.67-5.11l-.54-.3c-6.72-3.71-13.66-7.54-20.26-11.65-8.87-5.53-18.28-5.7-27.94-.52l-.67.36c-11.38,6.11-23.15,12.42-34.29,19.35-9.31,5.8-17.13,5.93-25.37.44-1.71-1.13-3.55-2.1-5.33-3-3.34-1.76-6.78-3.56-9.62-6.61a9.94,9.94,0,0,1,5.32,2.41l.52.38c13.76,9.84,27.39,10,41.66.51,5.47-3.64,11.34-6.9,17-10.06,3.72-2.07,7.56-4.21,11.26-6.44a25.61,25.61,0,0,1,18.13-3.68,10.35,10.35,0,0,1,1.06.27c1.13.33,2.54.75,3.69.07a3,3,0,0,0,1.34-2c.6-2.64-1.82-3.59-3.27-4.16a10.52,10.52,0,0,1-1.14-.49l-1.44-.78a34.38,34.38,0,0,0-3.84-1.92c-13.35-5.35-18.22-13.16-15.78-25.29,1-5.24-2.91-7.86-6.92-9.74-4.61-2.16-7.36.66-9.79,3.15l-.14.15q-.48.49-1,1a27.55,27.55,0,0,0-3.06,3.39c-2.86,3.94-5,4.52-8.28,2.21a4.93,4.93,0,0,0-3.79-1,3.21,3.21,0,0,0-2.1,1.78l-.06.13a4.46,4.46,0,0,0-3.65-3.77,2.83,2.83,0,0,0-2.35.37,3.22,3.22,0,0,0-1,2.48A4.39,4.39,0,0,1,718,780c-1.7,4.75-5.46,7.53-9.45,10.48-1.49,1.1-3,2.23-4.49,3.5a30.09,30.09,0,0,1-.51-6.87c0-3.53,0-7.18-1.88-10.85a1,1,0,0,0-.79-.53,1,1,0,0,0-.88.38c-3.36,4.27-3.23,8.44-3.1,12.11,0,.61,0,1.22,0,1.82,0,4.48-1.45,7.15-5.08,9.23-20.5,11.72-41.29,23.73-61.4,35.33q-14.13,8.16-28.26,16.3a14.13,14.13,0,0,1-2.17.93c.76-1.24,1.49-2.43,2.2-3.57,2.51-4.07,4.68-7.59,6.65-11.28,2.84-5.32,5.37-10.91,7.82-16.31l.67-1.48.37-.85c.41-1,.77-1.82,1.24-2a.76.76,0,0,1,.25,0,4.84,4.84,0,0,1,2.21.87c7.41,4.38,21.38-.57,25.63-7.35.22-.35.46-.68.7-1a8.92,8.92,0,0,0,1.62-3c3.81-15.75,16.33-22.38,29.58-29.39l1-.54c4.41-2.32,9-4.71,11.48-10a1,1,0,0,0-.14-1.07,1,1,0,0,0-1-.32c-7.12,2-13.54,5.7-19.74,9.25-3.4,1.94-6.9,4-10.51,5.68v-4.19c0-4.45,0-8.75,0-13.06,0-2.18,1.44-3.16,3.8-4.53L690.4,742.3c28.11-16.22,57.18-33,85.73-49.57,3.88-2.24,6.93-2.28,10.52-.13,10.66,6.39,21.5,12.66,32.19,18.63,2,1.09,2.94,2,3.09,3s-.37,1.95-1.59,3.3c-1.4,1.55-2.71,3.2-4,4.79-.83,1-1.66,2.08-2.52,3.1C811.3,728.41,808.57,729.22,805.24,728Zm-77.85,56.48c1.13.71,1.76,1.41,1.86,2.09.15,1-.8,2.29-1.86,3.5-5.78,6.65-11.06,12.8-16.14,18.82-.29.34-.61.68-.93,1-1.41,1.47-3,3.14-2.89,6.13a1,1,0,0,0,.69.91c3.65,1.16,5.49-1.26,6.83-3,.32-.42.62-.81.93-1.15,4.43-4.89,8.89-9.9,13.21-14.74,5.22-5.86,10.61-11.91,16-17.79.38-.41.75-.87,1.13-1.35,1.85-2.31,3.14-3.66,5.38-2.81,2,.76,2.12,2.35,2.14,4.87a16.89,16.89,0,0,0,.16,2.66c1.5,8.92-1.67,14.57-10.27,18.32a119.8,119.8,0,0,0-15.16,8.45c-1.89,1.19-3.85,2.41-5.79,3.56l-1,.56c-1.84,1-3.92,2.12-4.55,4.93a1,1,0,0,0,.49,1.09c3.35,1.83,5.91.23,8-1.05.39-.25.78-.49,1.16-.7,6-3.31,11.95-6.79,17.74-10.17l8.16-4.73.52-.3c2.27-1.33,4.24-2.47,6.64-1.16.7.38,1.48.71,2.24,1,2,.84,3.87,1.64,4.09,3.11.17,1.12-.53,1.52-2.88,2.23a11.36,11.36,0,0,0-2.52,1c-5.37,3.15-10.88,6.26-16.2,9.27-6.53,3.69-13.28,7.51-19.83,11.42-7.87,4.7-15.67,4.75-23.82.14l-.24-.13c-4.06-2.3-8.27-4.68-12.22-7.27-1.91-1.25-2.86-2.39-2.92-3.48s.86-2.43,2.71-3.91c7.78-6.25,15.53-12.79,23-19.12,3.15-2.65,6.3-5.31,9.46-8l.27-.23c1.83-1.53,3.88-3.23,4.25-6A6.32,6.32,0,0,0,727.39,784.44ZM210.75,463.53c14.62-37,40.27-58.54,76.24-64a108.73,108.73,0,0,1,16.28-1.22c17.56,0,35.94,4.15,55.74,12.54,46.24,19.6,87.2,52.7,125.23,101.18,46.75,59.62,76.69,125.28,89,195.18,3.21,18.22,4.42,33.24,3.83,47.25v.08a167.63,167.63,0,0,1-12.89,72.54c-17.12,40.37-49.06,62.23-89.53,62.22a125.72,125.72,0,0,1-23.7-2.34c-33.76-6.48-65.46-22.38-96.93-48.59-81.55-67.93-132.46-156-151.31-261.91C195,533.56,197.68,496.61,210.75,463.53ZM502.1,892.28c33.53-9.2,56.54-31.27,70.34-67.48,10.23-26.86,13.69-56.12,10.58-89.45a410.8,410.8,0,0,0-38.41-139.46C524.74,554.35,497,514.36,462.19,477,432.46,445.14,402,422.43,369,407.59c-27.71-12.46-52.86-17.4-76.91-15.08-40.15,3.86-69.16,25.81-86.21,65.24a141.67,141.67,0,0,0-5.61,15.65,140.59,140.59,0,0,1,10.3-33.08c16.5-36,42.69-57.27,77.87-63.11,25.6-4.24,51.8,0,82.47,13.33,40.51,17.61,77.64,45.93,113.53,86.57C538,537.83,574.21,607.71,592,684.82c11.65,50.68,11.95,92.2.94,130.66-11.42,39.85-32.94,65.4-65.81,78.09-19.88,7.68-41.79,8.44-69,2.41-2.36-.52-4.73-1.15-7.08-1.83C467.64,896.45,484.91,897,502.1,892.28ZM419.43,241l4.4,2.52,16.39,9.38c1.24.72,2.49,1.41,3.73,2.11,3.32,1.87,6.76,3.8,10,5.91a13.76,13.76,0,0,0,2,1c1.06.45,2.37,1,2.61,1.68a1.39,1.39,0,0,1-.2,1c-1.24,2.39-4.81,4.22-7.54,3a155.81,155.81,0,0,1-28.65-16.45c-2.55-1.86-2.61-5.66-2.67-9.68C419.44,241.28,419.44,241.11,419.43,241Zm-18.73-9.89a1.49,1.49,0,0,1,.89-.28c.85,0,1.83.67,3,1.57l.16.11c5,3.78,6.75,9.51,8.29,14.56l.48,1.57c.3,3.78-1.41,4.8-2.93,5.26-1.26.38-1.61,0-2.35-1.92-.11-.27-.22-.54-.33-.79l-.15-.35c-2.25-5.11-4.58-10.39-6.78-15.61l-.17-.41C399.94,232.71,399.73,231.74,400.7,231.06ZM415,260.52a1.2,1.2,0,0,1,.18-.82,3.14,3.14,0,0,1,1.91-1.65,3.24,3.24,0,0,1,.94-.13,4.3,4.3,0,0,1,2.12.6c6.06,3.38,12.11,6.81,18.25,10.28l6,3.42c-2.84,2.93-5,2.6-7.53,1.08-3.08-1.87-6.25-3.71-9.31-5.48s-6.38-3.7-9.53-5.61a9.44,9.44,0,0,0-1.32-.63C416,261.3,415.11,260.92,415,260.52Zm64.73-2.63c0-2-2.07-3.56-6.17-6-8.59-5.08-17.49-10.18-27.21-15.6-.35-.19-.7-.41-1.05-.64-1.7-1.1-3.83-2.46-6.63-1.06a1,1,0,0,0-.55.87c0,3.43,2.38,4.72,4.33,5.76.4.21.79.42,1.15.64,3.65,2.26,7.42,4.46,11.06,6.6s7.27,4.26,10.85,6.46a11.14,11.14,0,0,0,1.51.74c1,.43,2.06.9,2.26,1.52a1.7,1.7,0,0,1-.31,1.3,2.33,2.33,0,0,1-1.37,1.21c-1.28.34-3.09-.57-4.33-1.29q-20.82-12.06-41.67-24.05c-5.88-3.38-11.28-6.43-16.51-9.33-2-1.12-5.8-3.21-9.27-.15-2.77,2.43-3.45,5.93-1.91,9.85,2.77,7.07,6.47,16.37,10.52,25.63,1.32,3,4,4.4,6.65,5.74.81.42,1.57.81,2.29,1.24,2.58,1.57,5.25,3.1,7.82,4.58,2.81,1.62,5.72,3.29,8.52,5a8.79,8.79,0,0,0,1.19.59c.68.29,1.53.67,1.67,1.07a1.41,1.41,0,0,1-.26,1c-1,1.72-3,1.66-4.49.84-3.67-2-7.57-4.19-12.63-7.2-3.24-1.92-5.7-2.4-7.51-1.46s-2.66,2.88-2.93,6.13a20.13,20.13,0,0,1-1.83,6c-1.56,3.69-3.33,7.88-.85,13.15a.46.46,0,0,1,0,.42c-.69,1.71-6.15,3.79-8.77,4.79l-.66.25c-.77.3-1.15.26-1.25.19-.32-.21-.33-1.54-.34-2.25a8.46,8.46,0,0,0-.2-2.15c-1-3.44-3.45-4.59-6.29-5.65-22.09-8.19-40.57-33.93-41.19-57.37-.11-4.22-.11-8.53-.12-12.69,0-5.4,0-11-.25-16.47-.33-7.78,2.8-13.07,9.85-16.63,1.25-.63,2.5-1.34,3.7-2,5.64-3.21,11-6.24,17.57-2.32a14.15,14.15,0,0,0,1.86.83c.9.35,2.27.88,2.44,1.39.07.21-.11.55-.23.74l-.24.39c-2.06,3.32-3.93,5.7-7.72,3.68-.51-.27-1-.58-1.51-.89-2.27-1.41-5.1-3.17-9.16-1.58a1,1,0,0,0-.59.64,1,1,0,0,0,.14.86c3.54,5,8.36,7.22,13,9.33.59.27,1.19.53,1.77.81a3.78,3.78,0,0,0,3.38.08,4.71,4.71,0,0,0,2.32-3.35c.81-3.73,3.73-5.16,6.81-6.66.7-.35,1.4-.69,2.08-1.06,3.78-2.06,5.94.84,6.7,2.18.89,1.6.17,2.27-2,3.65l-.92.61c-6,4.23-8.72,6.16-8.6,8.54s3.14,4.11,9.74,7.84,13,7.23,18.53,10.21l.48.27c1.13.66,3.25,1.9,4.72-.08a3,3,0,0,0,.66-2.36c-.27-1.34-1.59-2.12-2.55-2.69l-.39-.23c-2.39-1.48-4.86-2.93-7.24-4.33-3.18-1.86-6.46-3.79-9.59-5.81a13.3,13.3,0,0,0-2.07-1c-1.13-.49-2.54-1.09-2.78-1.76a1,1,0,0,1,.15-.82,6.78,6.78,0,0,1,8.74-3.22c1,.38,1.93.85,2.93,1.35.54.27,1.08.54,1.63.79,8.55,4,16.59,3.61,24.56-1.11,10.64-6.3,21.64-12.41,32.28-18.32l3.21-1.79c2.78-1.54,9-1,15.09,1.24,5.33,2,9.22,4.8,10.14,7.33,1.67,4.6.63,8-3.11,10.19-4.87,2.81-9.77,5.76-14.5,8.61q-2.67,1.62-5.36,3.22a6.26,6.26,0,0,1,.33-1.15,3.27,3.27,0,0,0,.12-2.92,2.92,2.92,0,0,0-2.34-1.17c-3.93-.45-5.37,3.3-6.06,5.1-1.6,4.13-.27,7.92,3.75,10.68,9.32,6.41,19.52,12.86,30.93,16.65a13.4,13.4,0,0,0,1.63.41,5.91,5.91,0,0,1,2.23.75c7,5.21,13.87,5.21,21.09,0,2.33-1.67,4.85-1.36,8.49,1.14l-8.56,5.07c-6.94,4.12-13.49,8-20.16,11.86Q482,269.88,463.53,280.5C433.82,297.64,403.09,315.36,373,333c-3.89,2.29-8,3-12.39,3.71a58.72,58.72,0,0,0-8.59,1.89,1,1,0,0,0-.63.6,1,1,0,0,0,.09.87c2.05,3.36,5.05,3.21,7.24,3.1l.86,0c21.12-.51,42.62,3.76,65.63,13,5.17,2.08,10.8,3.52,16.87,0,2.95-1.7,12.63,2.13,15,5.31.74,1,.67,1.45-.38,2.32-1.87,1.55-2.72,3-2.61,4.37.17,2,2.28,3.24,4.31,4.42l.31.18c28.59,16.72,52.44,38.95,72,58.49,3.52,3.52,5.35,5.42,5.27,6.77s-2.29,3.15-6,6.08c-1.26,1-2.31,2.23-1.38,6.05a1,1,0,0,0,.58.68,1,1,0,0,0,.88-.05c64.74-36.4,125.55-71.42,185.9-107.07a1,1,0,0,0,.45-.59,6.31,6.31,0,0,0,2.1,2.29c6.44,4.68,10.75,11.15,13.78,16.25.1.18.22.36.33.54a3.7,3.7,0,0,1,.84,2.2,10.67,10.67,0,0,1-3.83-2.46,19.24,19.24,0,0,0-2.58-2l-.43-.27c-1.15-.72-3.07-1.92-4.71-.29a3.1,3.1,0,0,0-1,2.5,4.73,4.73,0,0,0,2.35,3.24c4.94,3.46,10.06,6.85,15.2,10.08,1.78,1.12,3.64,2.14,5.44,3.12,2,1.08,4,2.2,5.91,3.43,11.5,7.44,23.62,7.31,36-.39.89-.56,1.81-1.08,2.72-1.6l.39-.22c14.06-8,18.38-7.68,30.84,2.33.22.18.45.35.69.53.65.48,1.45,1.08,1.47,1.51,0,.15-.09.58-1,1.38a9.77,9.77,0,0,1-1.59,1c-1.64.88-4.12,2.21-3,5.13.83,2.19,2.74,1.83,4.13,1.56a7.2,7.2,0,0,1,2.62-.17c-9.55,6.51-19.24,11.78-29.44,17.28a5.31,5.31,0,0,1,2.59-2.79,10.94,10.94,0,0,0,1.62-1.2,7.44,7.44,0,0,1,.58-.49c1-.8,2.59-2.13,1.53-4.17-1.39-2.68-3.85-1.59-5.17-1l-.55.24c-4.09,1.66-6.59,3.92-7.45,6.73s0,6.18,2.51,9.93c1.09,1.6.68,2.36-.05,3.72-.18.34-.37.69-.54,1.07-2.48,5.46-.43,8.7,1.73,10.47,2.44,2,7,5.69,11.75,2,6-4.61,11-3.19,18.09,1,17.57,10.46,25.8,24.59,25.16,43.2-.16,4.81-.17,9.7-.18,14.43,0,4.35,0,8.85-.15,13.27-.21,7.1-3.13,12.44-9.17,16.67.08-3.09.37-6.18.66-9.18.71-7.42,1.44-15.1-1.12-22.7a1,1,0,0,0-1.41-.56c-3.65,2-3.49,4.85-3.37,7a12.8,12.8,0,0,1,0,1.37c0,1.42-.08,2.84-.12,4.26a104.17,104.17,0,0,1-1.14,15.22c-1,5.93-3.79,10.33-8,12.72s-9.34,2.53-15,.42c-16.16-6-25.06-19.49-31.64-31.88-3.08-5.81-6.61-11.46-12.74-13.88a5.88,5.88,0,0,0,3.94-.59c1.83-1.06,2.91-3.26,3.41-6.92,1.11-8.22-1.35-13.61-7.75-17-2.62-1.38-5.23-2.94-7.75-4.45s-4.88-2.93-7.39-4.27c-4.3-2.3-6.93-5.42-8-9.52l5.36,3.12c5.65,3.28,11.48,6.67,17.11,10.16,4.35,2.69,10.17,5.14,16.56.12a13,13,0,0,1,4.28-1.94l1.24-.34c2.63-.69,5.9-1.54,6.28-5.86a10.31,10.31,0,0,0-5.08-10.21c-6.73-4.18-13.6-8.24-20-12-3.74-2.19-7.52-4.47-11.17-6.68-9.26-5.59-18.84-11.37-28.67-16.27-8.08-4-12.14-10.68-16.25-17.81a16,16,0,0,0,1.89,1.11c.34.17.67.34,1,.5C725.94,396,741,404.78,755,412.92l.33.2a6.28,6.28,0,0,0,3.28,1.12,5.81,5.81,0,0,0,2.89-.84,1,1,0,0,0,.41-1.29c-1.32-2.81-3.58-4.11-5.57-5.27l-.88-.51c-13.91-8.38-27.76-16.64-41.19-24.57-.32-.19-.67-.44-1-.69-1.28-.89-2.72-1.91-4.19-1.63a2.71,2.71,0,0,0-1.79,1.25,3.8,3.8,0,0,0-.7,1.93c-.2-.35-.39-.69-.6-1-1.22-2.07-.71-3.26,2.21-5.09,3.74-2.34,7.74-4.87,11.65-7.54a3.8,3.8,0,0,0,1.52-3.48,2.47,2.47,0,0,0-1.31-1.65,3.68,3.68,0,0,0-3,.28A91.53,91.53,0,0,0,699.8,374c-3.49,2.61-2,5.66-.87,8.12l.11.23c5.31,11.2,12.19,23.62,26.76,29.22a43.15,43.15,0,0,1,7.9,4.42c1.68,1.1,3.41,2.23,5.21,3.19,2.09,1.12,3.16,2.06,3.18,2.78,0,.41-.34,1.34-2.88,2.95a25.87,25.87,0,0,1-2.84,1.46c-3.39,1.57-7.61,3.53-6.9,9.24,1.17,9.44,4.61,16.27,10.53,20.88a55.83,55.83,0,0,0,6.82,4.31l2.25,1.29-.48.3a18.94,18.94,0,0,1-2.48,1.41c-6.54,2.81-8.39,7.54-5.82,14.86,3.25,9.27,3.25,9.27-5.5,14.4l-20.63,12.12c-28,16.48-57,33.53-85.72,50-7.16,4.13-8.65,8.58-5.3,15.9,9.39,20.52,16.23,41.54,21.68,59.39.11.35.19.75.29,1.17.35,1.57.75,3.35,2.15,4.17a3.3,3.3,0,0,0,2.73.18,2.84,2.84,0,0,0,1.84-1.51c.77-1.63-.14-3.79-.8-5.37l-.11-.26c-1.72-4.15.35-5.59,4.14-7.78,23.87-13.76,48.12-27.8,71.57-41.37L771.16,554c1.17-.67,2.37-1.32,3.57-2,8.25-4.47,16.78-9.08,14.62-21.74l.21,0a3.85,3.85,0,0,1,1,.24c21.06,15.28,31.39,10.87,51.59-3.7,8.37-6,9.65-15.66,9.79-24.28l.07-4c.18-9.91.36-20.12,0-30.35.83,1.47,1.69,3,2.61,4.41,2.39,3.75,5.64,5.79,9.67,6.06,2.86.19,3.68-1.24,3.87-2.48.22-1.43-.64-2.61-2.3-3.17-6.06-2-8-7.18-10.16-12.61l-.72-1.83c-2.83-7.06-5.72-14.07-8.77-21.49-1-2.43-2-4.89-3.05-7.41,4.73,2.6,6.4,6.72,7.39,10.52,2.83,10.85,7.19,21.67,19.83,27.26,3.41,1.51,5.62,5.09,7,11.27a269.27,269.27,0,0,1,6.08,54c.07,6.28-2.61,11.23-8.21,15.13-3.5,2.44-8.33,6.45-9.81,13.09-.39,1.78-1,2.85-1.74,3.18s-2.18,0-4.1-1.16c-9-5.32-17.26-10.07-25.31-14.52-.58-.32-1.15-.68-1.73-1-2.29-1.44-4.89-3.08-8.56-2.62a1,1,0,0,0-.88,1c.18,3.64,2.75,5,4.81,6.11.4.21.78.41,1.15.63,6.08,3.66,12.29,7.34,18.3,10.89,7.36,4.36,15,8.86,22.4,13.36,8.85,5.37,10.83,9.75,9.19,20.38-.4,2.56-1.86,3.86-4.26,5.25-2.56,1.49-5.14,3-7.71,4.44-6.39,3.67-13,7.45-19.38,11.36-2.37,1.45-3.47,1.43-4,1.15s-1.15-1.2-1.26-4.09c-.21-5.17-.67-9.75-4.14-13.6-.19-.21-.38-.45-.58-.69-1.22-1.46-3.25-3.91-6-1.69a3,3,0,0,0-1.23,2.07c-.14,1.45.93,2.71,1.78,3.73.17.19.33.39.48.57,3.15,4,4.27,8.56,3.56,14.61-2.71-1.89-2.79-4.52-2.61-7.28.37-5.53-1.93-9.3-7.25-11.87a54.09,54.09,0,0,1-4.8-2.71,47.26,47.26,0,0,0-6.07-3.31,12.86,12.86,0,0,1-2-1.16c-1.58-1-3.37-2.24-5.35-1.79a5.83,5.83,0,0,0-3.62,3.16,5.31,5.31,0,0,1-1.62-.71l-.39-.22c-4.86-2.68-9.58-5.37-14-7.86a5.13,5.13,0,0,1-2.89-3.77c0-.38-.13-.78-.21-1.19-.37-1.81-.45-2.73.38-3.33.51-.38,1-.17,2.33.67a13.68,13.68,0,0,0,1.28.74,35.36,35.36,0,0,1,3.67,2.1c3.14,2,6.4,4,11.08,3.86a1,1,0,0,0,.82-.46,1,1,0,0,0,.06-.94c-2.24-5-6.31-7-9.91-8.78-.87-.44-1.7-.85-2.5-1.3-2.64-1.47-3.19-2.33-3.19-2.8s.4-1.23,3-2.69c6.46-3.56,12.83-7.48,18.21-10.83.34-.22.7-.41,1.07-.61,1.79-1,4-2.16,4-5.32a1,1,0,0,0-.5-.87c-2.71-1.57-4.88-.16-6.47.87-.38.24-.76.49-1.13.69-7.23,3.85-14.3,7.8-21,11.74a16.47,16.47,0,0,0-8.27,12.44,17.16,17.16,0,0,0,5.68,14.51l.59.54c.82.73,1.52,1.37,1.51,1.8,0,.24-.21.82-1.61,2-2.5,2.11-4,5.63-4,9.66-.07,4.28,1.46,8.23,4.08,10.59l.53.47c.87.77,1.63,1.44,1.62,1.9,0,.24-.21.83-1.61,2a12.39,12.39,0,0,0-4.41,9.17,14.83,14.83,0,0,0,4.61,11.14c.32.31,1.17,1.14,1.17,1.53s-.37.77-1.1,1.49c-6.05,6-6.5,14.42-1.11,20.43,1.11,1.23,1.2,1.79,1.16,2s-.61.78-1.6,1.28c-3.25,1.64-5,4.75-4.94,8.77.09,6.1-3.16,9.14-8.82,12.35-19.64,11.12-39.55,22.54-58.8,33.58-14.74,8.45-30,17.19-45,25.73-.62.36-1.22.76-1.8,1.15-2.77,1.87-5,3.33-8.55.16-1.18-1-2.07-.91-2.62-.61-1.95,1-1.35,5.42-1.32,5.61l.39,2.67c1.13,7.58,2.19,14.74.22,22.2a153.82,153.82,0,0,1-7.28,21.2c-2.89,6.78-7.65,10.53-15,11.8-3.44.6-5.95.15-7.26-1.3s-1.42-3.64-.58-6.65c6.64-23.71,7-48.39,6.77-69.65-.41-41.23-10-84.38-29.29-131.91-27.81-68.5-67.58-127-118.2-173.73-39-36-76.14-57.73-116.92-68.26-11.49-3-23-3.84-36.07-3.84q-4.75,0-9.81.14a22,22,0,0,1-5.69-.42l10.5-6.11q13.74-8,27.48-15.94l52-30q34.92-20.15,69.84-40.3C477.6,261.45,479.69,259.89,479.7,257.89Zm282.37,50.43a4.09,4.09,0,0,1-.47,0,8.12,8.12,0,0,1-2.32-1.93c-1.12-1.15-2.27-2.35-3.67-2.35h0a2.72,2.72,0,0,0-2,1,3.37,3.37,0,0,0-1,2.49c.08,1.85,1.8,3.41,3.31,4.78a19.6,19.6,0,0,1,1.51,1.46c13.18,15,27.06,31.05,39.22,48.69,1.38,2,1.87,3.24,1.63,4.09S797,368.17,795,369c-3.46,1.5-6.82,3.37-10.06,5.17-2.62,1.46-5.32,3-8.05,4.26-10.79,5.11-28.21-.82-33.89-11.55-4.26-8.05-9.22-16.44-16.55-23.34a38.23,38.23,0,0,0-4-3.37c-1.09-.77-3.36-2.37-5.22-.45a3.12,3.12,0,0,0-1,2.46,1,1,0,0,0-.36-.23c-5.44-2.13-8.22-.33-10.46,1.12-.36.23-.7.45-1,.65-50.31,28.89-102.33,58.77-154.1,88.8-4.7,2.72-7.18,2.43-10.6-1.24-24.31-26-48-46-72.46-61l-.09-.05c-2.55-1.57-3.71-2.43-2.29-4.86a5.71,5.71,0,0,0,.21-5.09c-1.36-3.51-6.94-6.78-11.7-8.67a30.47,30.47,0,0,0-10.42-2.36,8.78,8.78,0,0,0-3.71.69l-.3.15c-2.68,1.27-5,2.37-7.85,1.21-18.13-7.34-34.42-11.76-51.05-13.82a47.52,47.52,0,0,1,10.17-6.76c1.07-.59,2.14-1.16,3.18-1.77q32.22-18.69,64.49-37.3c30.36-17.54,61.76-35.68,92.58-53.63,12.49-7.27,26-11,42.54-11.57,54.82-2,105.37,16.64,159.18,58.81C760,291.38,763.26,298.94,762.07,308.32Zm20.36,224.34c1.06,4.63-1,8-6.82,11.34C731,569.35,691,592.36,653.15,614.35c-2.41,1.4-4,1.87-5,1.47s-1.76-1.73-2.59-4.47A347.58,347.58,0,0,0,629.62,569c-1.93-4.27-1.26-6.39,2.78-8.7,21.12-12.12,42.55-24.53,63.28-36.53,17.06-9.88,34.7-20.1,52.08-30.1,3.26-1.87,6.08-2.8,8.53-2.8a8.84,8.84,0,0,1,2.32.3c3,.84,5.74,3.47,8.29,8.05l.69,1.22c3.75,6.72,7.63,13.66,12.55,19.83,2.34,3,2.31,6.39,2.27,10.76v1.4A.83.83,0,0,0,782.43,532.66ZM753,484.91c-2.9.26-3.89-1.27-4.83-5.12l2.48,1.29c2.9,1.52,5.4,2.84,8.07,3.93l.28.11a20.22,20.22,0,0,0-3.67-.32C754.57,484.8,753.8,484.84,753,484.91Zm-17.53-48.45c.09-1.2,1.25-2.53,3.76-4.32,8-5.74,14.73-5.74,22.45,0a99.48,99.48,0,0,0,9.57,6c2.6,1.49,5.28,3,7.77,4.75.82.56,3.32,2.27,3.29,3.28s-2.62,2.56-3.87,3.31c-6.1,3.7-11.59,3.37-18.35-1.09-4.13-2.72-8.55-5.1-12.83-7.41l-3-1.66-.21-.11a8.84,8.84,0,0,0-4-1.43,3.55,3.55,0,0,0-1.15.19,3.87,3.87,0,0,0-1.88,1.52C735.89,438.3,735.4,437.32,735.46,436.46Zm85.62-7.8c-4.1-2.24-6.94-4.45-8.41-8.51-1.75-4.83-5.42-6.13-9.52-6.13-.66,0-1.34,0-2,.09A150.52,150.52,0,0,1,816.7,405l1.57-.83c2.31-1.22,3.75-.67,5.15,2a385,385,0,0,1,18.37,38.68C836.77,438.78,830.13,433.63,821.08,428.66Zm21.44,209.46-.45.26q-2.58,1.56-5.18,3.09c-2.4,1.43-4.89,2.9-7.31,4.4-1.17.73-2.47,1.93-2.07,4.83a1,1,0,0,0,1,.86c3.84-.22,6.78-1.89,9.63-3.5a31.69,31.69,0,0,1,4.22-2.15,8.7,8.7,0,0,0,1.74-1.09c.62-.47,1.41-1.05,1.82-1,.2,0,.44.27.68.66a1.92,1.92,0,0,1,.3,1.53c-.23.94-1.24,2-2.84,3-2.62,1.56-5.32,3.11-7.93,4.61-5.06,2.9-10.29,5.89-15.22,9.2-9.86,6.61-20.37,5.33-32.13-3.91-2.33-1.84-2.19-2.8-1.68-3.57.26-.39.48-.59.82-.59a4.37,4.37,0,0,1,1.71.67,9.64,9.64,0,0,0,1.46.67,5.33,5.33,0,0,1,.82.42A6.52,6.52,0,0,0,793,657a11.66,11.66,0,0,1,1.64.84c1.75,1,4.38,2.47,6-.16a2.93,2.93,0,0,0,.44-2.31c-.34-1.31-1.61-2-2.85-2.72a8.12,8.12,0,0,1-1.69-1.13,7.22,7.22,0,0,0-2.4-1.47c-.84-.38-1.8-.81-1.94-1.29a1.81,1.81,0,0,1,.4-1.28,1.92,1.92,0,0,1,1.36-1c1.36-.21,3.15.81,4.28,1.76,6.06,5,12.08,5,19.53-.19a139.85,139.85,0,0,1,13.08-7.73c1.7-.92,3.4-1.85,5.08-2.79.34-.19.67-.4,1-.6,1.49-.91,2.78-1.69,4.29-1.29a4,4,0,0,1,2.3,1.37C843.66,637.33,843.72,637.45,842.52,638.12Zm-46-28.55a2.85,2.85,0,0,0,1.74-1.67c1.43-3.06-1.53-4.59-3.48-5.61a12.49,12.49,0,0,1-2.12-1.26c-.46-.39-.9-.79-1.4-1.24,2.75-2.27,5.23-.91,8.11.69,4.34,2.39,8.32,3.73,13.7,2.48,3.79-.87,7,1.63,10.41,4.28.92.72,1.87,1.46,2.81,2.1a.9.9,0,0,1,.17.26c-1.16,2.84-3.75,4-6.5,5.33-.63.3-1.25.58-1.84.89a13.25,13.25,0,0,0-2.19,1.55c-2.21,1.79-3.46,2.64-5.27.75-1.19-1.23-2.2-2.19-3.34-2.19a2.07,2.07,0,0,0-.35,0c-1.22.21-1.94,1.47-2.49,2.67-.08.17-.25.47-.45.54s-.46,0-1.19-.38l-1.34-.78c-4.09-2.39-8.32-4.85-12.37-7.42a2.39,2.39,0,0,1-.88-3.25c.21-.45.34-.56,1.91-.06a11.75,11.75,0,0,1,2,1C793.6,609.14,795.11,610,796.54,609.57Zm1.39,22.63a3.15,3.15,0,0,0,.49-2.43c-.32-1.25-1.51-1.94-2.57-2.55a7.89,7.89,0,0,1-1.3-.87,6.94,6.94,0,0,0-1.22-.87c-.46-.29-1-.64-1.1-.91a1.13,1.13,0,0,1,.25-.69,2.75,2.75,0,0,1,1.91-1.26,2.14,2.14,0,0,1,1.75.5c9.79,8.63,18,3.36,26-1.74l1.14-.73c.29-.19.61-.43.94-.67.78-.58,1.74-1.31,2.37-1.19a1.41,1.41,0,0,1,.84.7c1.2,1.8-1.26,3.91-1.77,4.31-.17.14-.35.27-.54.41-.91.67-2.05,1.5-2.24,2.77a2.85,2.85,0,0,0,.62,2.15c1.54,2.07,3.74,1,5.06.32.26-.13.52-.26.78-.37,2.61-1.11,4.72-2,7.28.41-2.22,1.29-4.39,2.67-6.51,4-5.68,3.63-11.05,7.06-17,8.53a24.52,24.52,0,0,1-23.64-7c-2.32-2.38-1.57-3.49-1.29-3.91.17-.25.27-.42.5-.42a3.28,3.28,0,0,1,1.33.62,7.27,7.27,0,0,0,1.47.75c.37.12.8.32,1.25.52C794.28,633.34,796.59,634.4,797.93,632.2ZM862,669.56c-3.82.37-7-1.67-7.95-5.09-.85-3.11-1.73-6.32-5.24-8.26a2.22,2.22,0,0,1-1-1c4.27-1.89,5.18-5.54,6-8.76a27.8,27.8,0,0,1,1-3.27c.8-2,1.66-2.8,2.2-2.84s1.57.86,2.43,2.41c3.3,6,6.36,12.58,6.45,20.46,0,0,0,0,0,.07C866.24,667.15,864.93,669.28,862,669.56ZM581.11,861.82c-.4.35-.78.74-1.17,1.14a8.86,8.86,0,0,1-3.16,2.39,152.89,152.89,0,0,0,24.83-56c8.38-36.88,7.66-76.74-2.21-121.84-17.88-81.65-56.88-156.07-115.93-221.21-32-35.25-65.34-60.8-102.08-78.12-27.23-12.84-51.55-19-75.39-19a137.94,137.94,0,0,0-13.93.7c-.23,0-.47.06-.71.1a5.4,5.4,0,0,1-1.42.1,102.78,102.78,0,0,1,48.24-7c42,3.75,81.55,21.75,120.92,55.05,84.95,71.82,138.53,163.26,159.27,271.77,9,47.23,6.73,88.43-7,126C604.35,835,594.45,850,581.11,861.82Z"/><path class="cls-1" d="M782,476.33c-1.41,2.28-2.78,4.91-2.21,7.06a3.47,3.47,0,0,0,1.76,2.17,3.26,3.26,0,0,0,3,.4c1.3-.58,1.67-2.17,2-3.57a7.26,7.26,0,0,1,.62-1.94q.2-.3.39-.63c1-1.57,1.63-2.56,2.92-2.49.59,0,.8.1.87,1.85q0,.3,0,.57c.85,11.9,6.64,21.71,17.23,29.15l.48.32c1,.66,1.2.89,1.09,1.34s-.5.81-2,.92c-.66,0-1.33,0-2.05,0a20,20,0,0,0-2.32,0,5.72,5.72,0,0,1-1,0c-1.24-.07-3.79-.21-4,2.65-.18,2.51,2.14,3.28,3.68,3.8l.59.2a13.62,13.62,0,0,0,4.62.87,9.76,9.76,0,0,0,5.73-1.79c3.64-2.57,5.64-7.57,5.61-14.09-.06-14.19-9.09-27.8-21.48-32.36C791,468.4,785.68,470.32,782,476.33ZM798.75,479a.41.41,0,0,1,.32-.13,3.06,3.06,0,0,1,1.52.82,34.31,34.31,0,0,1,12.35,21.86l-.06.35a3,3,0,0,1-.35,1.1c-.17.14-.63.54-1.9-.61-7-6.39-11.07-13.22-12.3-20.87A3.67,3.67,0,0,1,798.75,479Z"/><path class="cls-1" d="M372.3,228.63c-4.81-1.58-9.78-1-13.31,1.57a11,11,0,0,0-4.6,9.17c0,1.19,0,3.19,2,4,2.52,1,3.63-1.37,4-2.15a18.12,18.12,0,0,0,.69-1.75,13.9,13.9,0,0,1,.94-2.17c1-1.72,1.65-2.43,2.78-2.11.55.16.67.47.73,1.82,0,.39,0,.77.09,1.12,2,12.61,7.61,21.95,17.12,28.56.17.12.36.23.55.35,1,.64,1.22.88,1.13,1.29-.18.82-.83,1.12-2.56,1.2a18,18,0,0,1-2.5-.14c-.59-.05-1.18-.11-1.77-.13a7,7,0,0,1-1-.14c-1.3-.22-3.72-.63-4.29,2.15s2,3.61,3.47,4.13l.48.16a14.75,14.75,0,0,0,5.07.95,10.56,10.56,0,0,0,6.19-1.89c3.68-2.6,5.69-7.52,5.65-13.86C393.08,247,383.53,232.3,372.3,228.63Zm14.46,32.23c-.47.24-.83,0-1.74-.72l-.36-.3a31.62,31.62,0,0,1-12-19.92l-.05-.33c-.25-1.43-.29-2.16.42-2.59a.72.72,0,0,1,.37-.11c.39,0,.86.35,1.65,1,6.58,5.76,10.67,12.6,12.16,20.33,0,.21,0,.42,0,.62C387.26,260.25,387.22,260.63,386.76,260.86Z"/><path class="cls-1" d="M208.21,541.34c3.11.22,3.41-2.79,3.58-4.42,0-.29.06-.57.1-.83a22.58,22.58,0,0,0,.18-3.16c0-.44,0-.88,0-1.32a177.72,177.72,0,0,1,7.71-47c16.12-51.79,57.59-76.83,110.93-67a124.36,124.36,0,0,1,15.76,3.81l-.09,0c-32.28-6.76-57.63-2.83-79.78,12.35-21.11,14.48-34.51,36.27-41,66.64-8.65,40.67-5.13,83,11.09,133.28.09.27.17.57.25.88.37,1.37.78,2.92,2,3.63a2.7,2.7,0,0,0,2.14.21,3.2,3.2,0,0,0,2.12-1.52c.73-1.33.21-3-.22-4.32-.1-.33-.21-.66-.28-1-1.09-4.38-2.29-8.8-3.45-13.08-2-7.47-4.13-15.2-5.67-22.88-7.86-39.31-7.73-71.75.41-102.09,7.45-27.78,21.6-46.95,43.26-58.61,25.89-13.94,53.86-13.82,90.69.39,2.39.92,3.27,2.26,3,4.47-1.43,9.92-.75,19.93-.1,29.6.14,2.08.29,4.16.41,6.24,1.85,32,10.22,64.93,26.31,103.65.09.22.18.46.27.71.51,1.34,1.14,3,2.49,3.6a2.7,2.7,0,0,0,2.14,0,3.13,3.13,0,0,0,1.86-1.64c.53-1.26-.05-2.61-.56-3.81a9.7,9.7,0,0,1-.5-1.35,23.17,23.17,0,0,0-1.36-3.83c-.16-.37-.31-.73-.46-1.1a360,360,0,0,1-19.22-62.43,276.57,276.57,0,0,1-5.31-65c.08-2.68.63-3.56,1.08-3.83.88-.54,2.89.34,4.33,1,3.83,1.88,3.65,5,3.44,8.63l0,.43c-2,36.34,3.7,72.79,17,108.33.2.55.37,1.12.55,1.7.72,2.43,1.55,5.17,4.76,6.53a1,1,0,0,0,1.17-.3c2.36-3,1.26-5.7.37-7.88-.2-.48-.4-1-.55-1.44l-.3-.94c-4.56-14.23-9.27-28.94-12.25-43.84a241.11,241.11,0,0,1-4.82-59.16c.07-1.33.24-4.85,1-5.28s3.8,1.38,5.08,2.15c1.8,1.08,3.6,2.22,5.35,3.33s3.83,2.44,5.79,3.61c2.41,1.43,3.29,3.34,3,6.4-3.1,29.41,1.68,60.39,15,97.51.17.5.34,1.12.52,1.77.59,2.16,1.26,4.6,3,5.48a3.2,3.2,0,0,0,2.65.06A3.14,3.14,0,0,0,435,567c.72-1.75-.34-4-1.27-6-.31-.66-.6-1.29-.8-1.82-11.58-31.8-16.51-61.09-15.08-89.54,0-.67,0-1.38,0-2.07-.13-2.33-.11-3.79,1.25-4.5s2.41,0,4.18,1.88a18.61,18.61,0,0,0,1.35,1.32c35.75,30.46,65.43,66.72,90.72,110.84,7.71,13.45,10.79,25.77,9.67,38.75-.44,5.09-.4,10.28-.36,15.31.09,11.08.18,22.54-4.95,33.14-1.25,2.58-.37,3.91.58,4.57a3.07,3.07,0,0,0,2.5.56,4.21,4.21,0,0,0,2.53-2.17,44.29,44.29,0,0,0,3.34-7.44c2.79-8.61,2.78-17.57,2.78-26.24,0-1,0-2,0-3q0-7.62,0-15.23v-5.15a2.72,2.72,0,0,1,.9,1.15l.26.53c1.14,2.41,2.32,4.89,3.37,7.38,9.22,21.85,20.06,51,22.09,82.93.32,4.95.85,10,1.36,14.8s1,10,1.36,14.93c.1,1.61.33,5.4-.38,5.87s-4-1.14-5.57-1.91c-12.22-6-24.39-13.85-38.29-24.8l-.59-.49c-1.32-1.08-2.93-2.42-4.7-2.21a3.4,3.4,0,0,0-2.32,1.5,2.77,2.77,0,0,0-.58,2.18c.26,1.49,1.73,2.5,3,3.39.34.23.66.45.94.66,16.31,12.72,29.63,21.17,43.19,27.37,2.9,1.33,4.6,2.78,5.21,4.42a5.41,5.41,0,0,1-.47,4.26c-.63,1.34-1.32,2.11-2,2.29-1.15.29-2.69-.84-4.05-1.84a14.9,14.9,0,0,0-2.11-1.41c-19.48-9.8-37.83-23.26-59.5-43.63-.46-.43-.91-.92-1.38-1.44-2-2.19-4.5-4.91-9.06-3.85a1,1,0,0,0-.65.49,1.06,1.06,0,0,0-.06.82c.14.38.24.72.33,1a4.75,4.75,0,0,0,.76,1.71,46.73,46.73,0,0,0,3.54,3.82c22.71,22,44.83,38.22,67.64,49.44,5,2.46,6.28,5,4.9,9.63-1,3.42-1.77,6.94-2.51,10.35-.67,3.14-1.37,6.37-2.26,9.49-14.73,51.78-57.93,76.84-110,63.81-33.17-8.29-64.14-26-94.67-54.27a386.64,386.64,0,0,1-86.73-118.33c-.24-.5-.45-1-.67-1.57-1.07-2.64-2.41-5.92-6.9-6.89a1,1,0,0,0-.83.21,1,1,0,0,0-.37.78c0,5,2,8.79,3.83,12.44l.74,1.45C283,736.55,313.08,776.35,350,808.4c32.46,28.17,62.82,44.64,95.54,51.83,23.78,5.23,46.28,3.06,65.05-6.26s34.06-25.94,44.17-48a96.37,96.37,0,0,0,4.86-13.49,136.18,136.18,0,0,1-9.08,26.6c-18.05,38.24-52.4,57.5-94.27,52.84-17.43-1.94-34.78-7.49-56.26-18-.69-.34-1.37-.71-2.05-1.09-2.85-1.58-6.08-3.38-10.37-2.3a1,1,0,0,0-.72.67,1,1,0,0,0,.22,1c5.08,5.61,11.76,8.6,18.23,11.49.69.31,1.39.62,2.07.94,22.2,10.06,41.31,14.86,59.43,14.86,2.7,0,5.38-.1,8-.32,42.56-3.38,71.69-26.87,86.57-69.82,11.49-33.15,12.82-69.69,4.2-115-10.8-56.67-34.92-111.35-71.7-162.49-31.82-44.25-66.47-76.68-105.93-99.15-31-17.62-58.71-25.07-87.3-23.42-25.46,1.46-46.8,11.63-63.4,30.23-25.52,28.59-30.5,64.62-32,96.08,0,.18,0,.38,0,.58C205.17,537.84,205,541.09,208.21,541.34Z"/><path class="cls-1" d="M431.77,586.54a1,1,0,0,0,.55-1.29l-1.3-3.37a1,1,0,0,0-1.29-.57c-20.61,7.9-41.62,15.8-62,23.44-43.37,16.31-88.23,33.17-131.84,51.09a1,1,0,0,0-.54.54,1,1,0,0,0,0,.76l1.41,3.41a1,1,0,0,0,.92.61,1.13,1.13,0,0,0,.36-.06q20.22-7.67,40.46-15.28C328.93,626.82,381,607.18,431.77,586.54Z"/><path class="cls-1" d="M352.5,734.5c-1.66.53-3.54,1.12-4.28,2.59a3,3,0,0,0-.1,2.42,3.16,3.16,0,0,0,1.75,2.08,2.88,2.88,0,0,0,1.08.21,8.08,8.08,0,0,0,3.39-1.14c.46-.23.9-.45,1.26-.59,52.21-19.4,113.71-42.47,174.07-66.47.4-.15.83-.29,1.26-.43,2-.65,4.76-1.53,5.14-5a1,1,0,0,0-.4-.91c-2.37-1.74-4.52-.8-6.25,0l-.93.39c-62.89,23.88-120.08,45.63-174.82,66.51C353.32,734.25,352.92,734.37,352.5,734.5Z"/><path class="cls-1" d="M488.93,626.89c-5.84-2.55-94.51,30.39-140.84,49.17-46.72,18.94-47.88,21.78-48.26,22.71a1,1,0,0,0,.2,1.07,1,1,0,0,0,.72.31,1,1,0,0,0,.35-.07l187.78-71.35a1,1,0,0,0,.05-1.84Z"/><path class="cls-1" d="M502,667.32c-7.67-8.74-15.59-17.68-23.54-26.57a14.26,14.26,0,0,0-2.4-2c-.39-.29-.79-.58-1.19-.9a1,1,0,0,0-1.14-.07,4,4,0,0,0-2.05,2.57c-.25,1.42.6,2.65,1.42,3.7a263.34,263.34,0,0,0,24.52,27.77l.31.3c.85.85,1.9,1.89,3.26,1.89h0a2.84,2.84,0,0,0,2.06-1c2-2.1.11-4.15-.91-5.24Z"/><path class="cls-1" d="M781.78,777.37a2.94,2.94,0,0,0,2.53.18c1.25-.57,1.66-2.1,2-3.45a8.48,8.48,0,0,1,.63-1.82l.24-.38c1-1.73,1.74-2.76,3-2.65,1.06.1,1.21.39,1.1,2.22a8.34,8.34,0,0,0,0,1.58c1.26,10,5.95,18.55,14.33,26.15a9.71,9.71,0,0,0,1.75,1.17c2,1.13,2.38,1.59,1.72,2.88s-1.81,1.24-4.2.71c-.46-.1-.92-.21-1.37-.28l-.69-.14c-1.07-.23-2.4-.52-3.42.21a2.91,2.91,0,0,0-1.09,2.13c-.3,2.76,2.3,3.41,3.85,3.8l.47.12a15.79,15.79,0,0,0,4.12.58,10.42,10.42,0,0,0,6.48-2.08c3.65-2.81,5.58-8.41,5.57-16.17v-.08c-.93-11.45-7.6-21.65-18.31-28a15.29,15.29,0,0,0-12.09-1.65,11.47,11.47,0,0,0-7.18,5.82c-1.12,2.26-2.25,4.84-1.53,6.93A3.78,3.78,0,0,0,781.78,777.37ZM798.39,772a1.61,1.61,0,0,1,1-.41l.36.23a15.09,15.09,0,0,1,1.49,1c5.87,4.84,9.57,11.31,11.28,19.77.28,1.36.28,1.87-.25,2.21s-1,.14-2.13-.75c-7-5.72-10.95-12.24-11.94-20C798.15,773.44,798,772.46,798.39,772Z"/><g id="background"><rect class="cls-2" x="1079" y="1079" width="1" height="1"/><rect class="cls-2" width="1" height="1"/><rect class="cls-2" x="1079" y="1079" width="1" height="1"/><rect class="cls-2" x="1079" width="1" height="1"/><rect class="cls-2" y="1079" width="1" height="1"/><rect class="cls-2" y="1079" width="1" height="1"/></g></g></g></svg>