<svg xmlns="http://www.w3.org/2000/svg" viewBox="0 0 1080 1080"><defs><style>.cls-1{fill:#f6f6f6;}.cls-2{fill:#8e8e8e;}</style></defs><g id="Capa_2" data-name="Capa 2"><g id="Capa_1-2" data-name="Capa 1"><g id="background"><rect class="cls-1" x="1079" y="1079" width="1" height="1"/><rect class="cls-1" width="1" height="1"/><rect class="cls-1" x="1079" y="1079" width="1" height="1"/><rect class="cls-1" x="1079" width="1" height="1"/><rect class="cls-1" y="1079" width="1" height="1"/><rect class="cls-1" y="1079" width="1" height="1"/></g><path class="cls-2" d="M64,591.17a8.48,8.48,0,0,1-5.58-8.66,2.63,2.63,0,0,1,1.64-2.28c3.64-1.92,7.06-2.57,11.33-1,32.75,12.11,65.6,23.93,98.42,35.85q44.82,16.27,89.65,32.58,49.94,18.11,99.9,36.15Q426.7,708.23,494,732.7c.82.3,1.61.68,2.44,1a3.77,3.77,0,0,1,2.78,4.33c-.25,3.69-2.63,6.07-5.31,8.14-1.18.92-2.63.06-3.92-.41-6.81-2.45-13.62-4.86-20.42-7.33Zm.25-8.86a9.38,9.38,0,0,0,3.63,1.74q50.46,18.36,100.93,36.66,45,16.34,90.05,32.61,68.92,25,137.84,50.09L469.82,730c6.45,2.34,12.91,4.65,19.36,7,1.67.6,3.25,1,4.54-1.08a119.93,119.93,0,0,0-11.4-4.27q-49.77-18-99.53-36.1L279,658,167.87,617.66Q139,607.21,110.2,596.74q-20.76-7.51-41.53-15C67.15,581.21,65.65,580.45,64.25,582.31Z"/><path class="cls-2" d="M558.19,782.52c-3.21,1.36-6.41,2.78-9.67,4a5.31,5.31,0,0,1-6.73-3c-1-2.57-.08-4.7,2.81-6,5.38-2.34,10.78-4.6,16.17-6.9q54.56-23.22,109.1-46.44c14.57-6.2,29.19-12.3,43.71-18.61,3.14-1.37,5.66-.23,8.09,1.16s1.83,5.2-.76,6.44c-3.25,1.57-6.62,2.9-9.95,4.32Zm-11.36-2.38a2.31,2.31,0,0,0,.57.39,1.3,1.3,0,0,0,.73.05,15.35,15.35,0,0,0,1.77-.6l167.21-71.11c.07,0,.11-.22.1-.33,0-.5-.49.09-.16-.29C714.26,708.59,551.14,777.49,546.83,780.14Z"/><path class="cls-2" d="M739.18,705.43c-4,1.68-7.07.73-8.37-2.59a6.2,6.2,0,0,1-.32-1.23c-.25-2.8,1.29-3.63,3-4.34l15.84-6.72,87.12-36.95c15.39-6.52,30.79-13,46.11-19.65a8.51,8.51,0,0,1,8.15.52,3.5,3.5,0,0,1,.38,6.15,20.18,20.18,0,0,1-4,2.06Zm-2.33-5.57c3-.33,147.16-61.62,149.34-63.51C882.54,637.11,739.93,697.76,736.85,699.86Z"/><path class="cls-2" d="M901.54,636.53a5.66,5.66,0,0,1-7.9-5.14c-.13-1.78,1.36-2.64,3-3.36l16.51-7,114.55-48.78c2.87-1.22,5.83-2.25,8.6-3.65s5.39-.46,7.76,1a3.58,3.58,0,0,1,0,6,21.86,21.86,0,0,1-4.31,2.2Zm-2.63-6.28c.51.47.58.59.68.62a1.74,1.74,0,0,0,.72.16,4.49,4.49,0,0,0,1.07-.3L1039.69,572a.46.46,0,0,0,.16-.3c.1-.49-.45,0-.08-.34-1.06-.57-1.94.08-2.82.45Q968,600.94,898.91,630.25Z"/><path class="cls-2" d="M940.19,573.23c-.09,5.14,0,10.22,3,14.75a33.41,33.41,0,0,1,3,5.61c2,4.7.27,9.32-4.27,11.65-.33.17-.68.31-1,.47-7.22,3.36-12.35,1.44-15.65-5.91a39.37,39.37,0,0,1-1.25-3.9,5.36,5.36,0,0,1,1.3-5.85c.61-.62,1-1.42,1.62-2a8.9,8.9,0,0,0,2.53-7.52c0-.12,0-.25,0-.37.11-5.66-.32-11-4.07-15.86-2.15-2.78-3.23-6.44-4.55-9.8-1.57-4-.47-6.26,3.53-8A9.35,9.35,0,0,0,930,535.72a4,4,0,0,0-1.61-2.37c-2.94-2.41-2.88-4.74.39-6.21,2.36-1.06,3-2.6,3-5-.11-4.36-.06-8.72,0-13.09,0-1.29-.38-2.78,1.11-3.8,1.49.87,1.13,2.36,1.15,3.63,0,4.49.11,9,0,13.46-.06,2.51.55,4.15,3.18,5.14,4,1.53,4.18,3.92.66,6.64a2.35,2.35,0,0,0-1.21,2.48c.56,2.66.71,5.45,2.74,7.59,1.29,1.37,1.29,3.18,1.49,4.91.12,1.15.57,1.68,1.92,1.66,4.31,0,6,2.43,4.41,6.45-.68,1.73-1.66,3.34-2.44,5a22.87,22.87,0,0,0-1,2.8Zm-15.58-19.46a9.65,9.65,0,0,0,3.35,6c1.5,1.34,3.58.86,5.13,2a2.34,2.34,0,0,0,1.81-.06,3,3,0,0,0,1.85-2.59c.09-1.16-1.09-1.4-1.86-1.37C931.2,557.88,928.26,556,924.61,553.77Zm12.87,25c-.17-1.81-.4-4.27-.66-6.73-.06-.66-.36-1.24-1.07-1.31a1.29,1.29,0,0,0-1.4,1,10.51,10.51,0,0,0-.33,2.56c0,2.1,0,4.21.18,6.31.09,1.11-.64,2.68,1.1,3.12,1.27.32,2.08-.95,2.18-3.16C937.5,580.13,937.48,579.75,937.48,578.72Zm-8.23,14.92a1.74,1.74,0,0,0-1.6,2.37,12.84,12.84,0,0,0,2.93,6,7.55,7.55,0,0,0,3.89,2.1,1.38,1.38,0,0,0,1.37-.4.88.88,0,0,0-.1-1.32,18.89,18.89,0,0,1-5-7.79A1.38,1.38,0,0,0,929.25,593.64Zm13.33,0c-1.26-2.45-2.53-5.4-4.63-7.85-.55-.65-1.38-.25-2,.17a1.23,1.23,0,0,0-.56,1.59,43.7,43.7,0,0,0,4.31,7.74,1.44,1.44,0,0,0,2,.28C942.26,595.22,942.64,594.79,942.58,593.61Zm-4.37-41.79c-.06-3.38-1.18-3.92-3.77-3.24-1.23.33-2.3,5-1.51,6.09a1.3,1.3,0,0,0,.6.4A3.57,3.57,0,0,0,938.21,551.82Zm-4.42,40.57c.44,4.19,1,5.22,3.62,6.48A19.4,19.4,0,0,0,933.79,592.39Z"/><path class="cls-2" d="M770.15,629.83l10.06,5.2c.55.29,1.12.54,1.66.86,1.07.62,2.48,1.23,1.61,2.8-.76,1.39-2,.57-2.94.1-3.69-1.81-7.44-3.54-11-5.55a7.72,7.72,0,0,0-7.4-.35c-15,6.37-30.14,12.52-45.16,18.9-3.07,1.3-5.86,1.73-8.92.23a56.85,56.85,0,0,0-5.56-2.2,5,5,0,0,1-3.44-4.48,68.71,68.71,0,0,1-.28-7.46A7,7,0,0,1,703.6,631c6.34-2.53,5.51-1.26,5.56-8.63.05-5.86,0-11.72,0-17.58,0-1.16-.29-2.45.92-3.62,1.32,1.16,1,2.59,1,3.83,0,6.23,0,12.47,0,18.7,0,4.82,0,4.76,4.41,6.32,3,1.07,6.26,1.56,8.51,4.33,1.13,1.38,2.83.37,4.18-.18,6.57-2.69,13.12-5.44,19.68-8.15,1.84-.77,3.69-1.5,5.54-2.26a137,137,0,0,0,23.16-12.68,3.5,3.5,0,0,1,1.29-.73c3.85-.5,7.27-2.1,10.73-3.73,1.94-.92,3.93-.73,5.12,1.53a2.25,2.25,0,0,0,2.86,1.09,7.59,7.59,0,0,1,3,.16c1.63.2,2.84.77,3.27,2.53s.35,3.47-1.24,4.74a4.3,4.3,0,0,1-1.23.83c-5.26,1.66-9.51,5.44-15.34,6.27C780.09,624.49,775.5,627.26,770.15,629.83Zm-4.79-3.89a1.09,1.09,0,0,1-1.16.26c-1.88-.41-3.87-1.39-5.14,1.16a.79.79,0,0,1-1.29,0c-1.36-2.13-3-1.08-4.54-.43q-10.69,4.43-21.36,8.9c-.76.31-1.74.4-2.09,1.65,3.18,1.7,6.09,2.8,10,1,9.49-4.36,19.22-8.21,28.85-12.27.65-.27,1.5-.27,1.73-1.17-4.61-2.45-5.53-2.61-7.91-1.44C763.37,624.42,765.13,624.28,765.36,625.94Zm19.12-8.71c-3.52-2-6.58-3.26-10-1.17-2.43,1.47-5.27,2.33-7.34,4.6a17.36,17.36,0,0,0,4.37,1.89,4,4,0,0,0,3.58-.14C778.06,620.75,781.07,619.1,784.48,617.23Zm-82.43,24.52c0,2.82.27,3.24,3.05,4.28,1,.38,2.09.74,3.16,1s1.58-.18,1.55-1.33c-.08-3.57-1.26-4.89-5.33-5.85C702.42,639.4,702.07,639.67,702.05,641.75Zm19.62,3.77a19.12,19.12,0,0,0-6-2.35,1.74,1.74,0,0,0-2.31,1.74,20.5,20.5,0,0,0,0,2.6c.05,1.2.75,1.5,1.77,1.1C717.22,647.8,719.39,647.23,721.67,645.52Zm-15.39-11.89c3.51,1.16,6.35,3.55,9.64.73C711.79,631.33,710.21,631.15,706.28,633.63Zm4,4.16c-.11-.22-.16-.53-.34-.63a13.71,13.71,0,0,0-6.54-2.23,1.23,1.23,0,0,0-1,.93,1.07,1.07,0,0,0,.38,1.32,14.39,14.39,0,0,0,6.21,2.13C709.8,639.36,710.15,638.57,710.3,637.79Zm10.86,1.87c0-2.79-1.69-3.7-4.51-2.36-.71.34-1.79.51-1.47,1.73.2.76,3.64,2.2,4.89,2.15C721.11,641.14,721.18,640.44,721.16,639.66Zm3.88-1.44c.33,5.13.57,5.28,4.79,3.21.4-.2.95-.34.85-1.2A19.33,19.33,0,0,0,725,638.22Z"/><path class="cls-2" d="M578,697.39a3,3,0,0,0-2.35,3.35c.34,3.81-2.49,4.68-5.17,5.81-2.86,1.21-5.36.38-7.8-1-.69-.41-.77-1.21-.92-2a70.51,70.51,0,0,1-.74-10.06c-.1-2.08,1.08-3.18,2.83-3.92,3.1-1.31,6.17-2.71,9.3-3.95,1.74-.69,2.53-1.66,2.34-3.64a54,54,0,0,1-.05-6.73c0-1.18-.4-3.12,1.06-3.18s1.12,1.88,1.18,3c.1,2,0,4,.07,6s.5,2.27,2.27,1.56c2.67-1,5.25-2.3,7.93-3.34,3.48-1.35,6.23.06,7.05,3.69a13.47,13.47,0,0,0,1.36,3.85c1.19,2.1.84,4.35.6,6.57a3,3,0,0,1-.83,1.62c-2.65,2.81-7.94,3.42-11.27,1.35-.49-.3-.84-.89-1.76-.77Zm-3.51-4.86c2.89-1.33,6.39-2.92,9.87-4.56a1.53,1.53,0,0,0,.63-.88c.21-.68.6-1.46-.07-2.08s-1.18-.19-1.74,0c-1.49.6-3,1.25-4.46,1.88-1.95.82-3.9,1.62-5.83,2.47-.75.33-1.28.88-.79,1.75C572.43,691.83,572.5,693,574.44,692.53Z"/><path class="cls-2" d="M65.61,472.34c-1,2.9-2.81,5.53-4.43,8.18a4.37,4.37,0,0,1-3.81,2.05,10.86,10.86,0,0,1-8.82-4.13,4,4,0,0,1-1-2.74c.06-1.46,1-2,2.19-1.21,1.63,1.14,3.15,2.44,4.72,3.67.66.51,1.31,1.46,2.16.39s0-1.65-.67-2.21c-2.55-2.19-5.14-4.34-7.72-6.5-.19-.16-.43-.42-.61-.4-4,.6-6.32-3-9.69-4-2.69-.82-4-3.05-3.52-5.32s2.7-3.49,5.71-3.28c0,0,2.47-.5,6,6.31a2.67,2.67,0,0,1,1,1.14c1.61,4.89,6.3,6.83,9.65,10,1.37,1.32,3.56.85,4.81-.73.18-.23.24-1-.17-.69-2,1.42-.66-2.13-2.43-1.46s-1.05-2.18-2.66-2.41a12.84,12.84,0,0,1-3.45-1.38,4,4,0,0,1-1.45-1.13c-.62-.81-.24-1.46.68-1.59a5.7,5.7,0,0,1,3.57.91Z"/><path class="cls-2" d="M970.07,514.75c-.83.53-1.84.78-2.72,1.24a5.93,5.93,0,0,1-7.26-.86,2.64,2.64,0,0,0-3.63-.38,9.45,9.45,0,0,1-2.07.87,4.6,4.6,0,0,0-3.65,4.62c-.1,4.32-3.85,4.48-6.49,5.67-2.38,1.07-4.57-.43-6.59-1.68a2.33,2.33,0,0,1-.87-2c-.19-2.61-.39-5.22-.6-8.08-.07-4,.33-4.64,4.11-6.27,7.2-3.13,14.4-6.29,21.62-9.38,4.41-1.89,7.53-.29,8.69,4.31C970.61,502.83,975.16,511.49,970.07,514.75Zm-9.63-10.3c-.22-1.07-.93-1.08-1.7-.76-3.56,1.47-7.11,3-10.67,4.45-1.15.48-1.48,1.19-.87,2.34.47.91,1,1.38,2.07.91l9.54-4.24A2.89,2.89,0,0,0,960.44,504.45Z"/><path class="cls-2" d="M719.52,729.57c-1-2.9-.54-4.27,2.15-5.48,4.66-2.1,9.4-4,14.16-5.89,2.57-1,5,.06,7,1.45,1.89,1.27,1.55,4.76-.5,6.17a21.64,21.64,0,0,1-4,2c-4.28,1.74-8.56,3.47-12.88,5.09A4.6,4.6,0,0,1,719.52,729.57Zm5.37-2.91a64.42,64.42,0,0,0,13.36-5.32C735.28,721.18,727.68,724.18,724.89,726.66Z"/><path class="cls-2" d="M514.8,715.51c-1.74.23-3.41-.62-5.12-.93-2.14-.4-2.6-1.93-2.9-3.79-.33-2.06.81-3,2.4-3.68s3.18-1.44,4.8-2.07a3.85,3.85,0,0,0,2.84-4.23c-.16-3,0-6,0-9h0c0-2.87,0-5.73,0-8.6,0-1-.41-2.85.83-2.84,1.76,0,1,1.93,1,3,.09,5.35,0,10.71.05,16.07,0,4.17,0,4.17,3.91,5.56,1.17.42,2.34.87,3.52,1.25,2,.64,3.21,1.69,3.06,4s-.37,2.88-3.15,3.9a10.22,10.22,0,0,1-1.42.46A20.85,20.85,0,0,1,514.8,715.51Zm7.66-6.71c-3.17-2.21-6.31-2-9.63.09C516.2,710.68,519.31,709,522.46,708.8Zm-12.08,2.27c4.91,2.2,11.38,1.92,14.6-.46C520.14,712,515.26,711.58,510.38,711.07Z"/><path class="cls-2" d="M1026.61,500.55a6,6,0,0,1-8,1.42,18.06,18.06,0,0,0-2.81-1c-1.93-.65-3.23-1.67-3.22-4s.48-4,2.77-4.74c0,0,5.61-3.67,8.93-2.36a5.87,5.87,0,0,1,3.24,3A9,9,0,0,1,1026.61,500.55Zm-9.73-5.19a46.69,46.69,0,0,0,4.45,1.71c1.35.37,2.37-.48,3.19-1.45a1.48,1.48,0,0,0-.12-2,2.62,2.62,0,0,0-3.32-.83C1019.76,493.36,1018.24,493.62,1016.88,495.36Z"/><path class="cls-2" d="M889.11,660.17c-2.1-2.43-1.08-4.82,1.93-6.25,2-1,4.22-1.61,6.16-2.72,2.64-1.53,5-.91,7.43.35,3,1.59,3.23,5.12.26,6.8a50.92,50.92,0,0,1-7.49,3.38S892.59,663.75,889.11,660.17Zm12.14-6.73c-3.87.71-4.87,1.13-7.31,2.86C896.41,656.45,897.71,656,901.25,653.44Z"/><path class="cls-2" d="M125.78,530.29c-.08.69-.58,1-1,.69a19.59,19.59,0,0,1-2.75-1.87q-22.29-17.88-44.57-35.79c-4-3.19-8-6.35-12-9.54a18.88,18.88,0,0,1-2-1.72,1.21,1.21,0,0,1-.14-1c.13-.43.57-.41,1-.32a5.92,5.92,0,0,1,2.18,1.4l48.13,38.51c3.31,2.64,6.59,5.31,9.88,8C125,529.08,125.75,529.45,125.78,530.29Z"/><path class="cls-2" d="M1026.55,454.72l-.83-.69c-5.06-4.21-10.3-8.57-16.91-10.93-25.42-9.1-51.24-18.45-76.21-27.49l-13.17-4.77L832,379.17l-70.7-25.63-70.14-25.42-32.25-11.67Q626.49,304.72,594.08,293a14.5,14.5,0,0,0-10.26.23c-1.75.63-3.48,1.36-5.15,2.06l-2.17.91L471.26,339.29h0l-22.77,9.41L293.74,412.19l-78.89,32.36-64.23,26.32L102,490.79c-3.12,1.29-6.51,2.71-10.36,4.36-.59.26-2.41,1-1.78,3a3.27,3.27,0,0,0,2.41,2.16,5.6,5.6,0,0,0,3.73-.63l.54-.24,28.63-11.76L174,467.58l33.81-13.84q17.37-7.1,34.75-14.22l21.4-8.79a1.81,1.81,0,0,0,.15,1A2,2,0,0,0,266,433a3,3,0,0,0,1.16-.25c3.94-1.62,7.44-3.09,10.7-4.49a2.25,2.25,0,0,0,1.42-2.82,1.17,1.17,0,0,0-.54-.66l-.1-.07h0l16.89-6.94,54.34-22.31q21.32-8.74,42.66-17.47L434,361q54.35-22.29,108.67-44.62c14.49-5.95,29.49-12.17,44.59-18.48a5.34,5.34,0,0,1,4.22.15c21.93,8,40.25,14.72,57.64,21l44.79,16.2q23.34,8.45,46.68,16.9,37.39,13.56,74.8,27.16l50,18.17,52.5,19.05,39.64,14.38q24.09,8.74,48.17,17.52l.71.22a7,7,0,0,1,.72.23L700.42,579.45a2.41,2.41,0,0,0,.12-.67,1.06,1.06,0,0,0,0-.25,1.9,1.9,0,0,0-2.62-1.46c-3.52,1.44-7.2,3-11.25,4.74a2,2,0,0,0-1.21,2.66,1.94,1.94,0,0,0,.91,1L519.9,656.26a5.83,5.83,0,0,1-.58.23l-.43.16a3.1,3.1,0,0,0-.45.21c-.23.12-.47.24-.7.38a2.77,2.77,0,0,0-.48.34,2.48,2.48,0,0,0-.47.52,2,2,0,0,0-.28.81,1.64,1.64,0,0,0,0,.57l0,.13a1.12,1.12,0,0,0,.73.9,3.22,3.22,0,0,0,.78.17,1.84,1.84,0,0,0,0,1.16,1.15,1.15,0,0,0,.41.58l.11.09a1.69,1.69,0,0,0,1.08.52,1.13,1.13,0,0,0,.46-.1c52.24-22,104.87-44.28,157.25-66.54-1.9,3.28-3.82,6.67-5.86,10.37a2,2,0,0,0,1.3,3.06l-39.46,16.79-68,28.91-37.64,16a32.75,32.75,0,0,1-12.58,3c-6,.12-11.49-1.86-17.25-3.95l-1.5-.55c-.79-.28-.91-.52-.93-.56s-.08-.37.41-1.32a1.1,1.1,0,0,0-.05-1.12,1.14,1.14,0,0,0-1-.51,10.88,10.88,0,0,0-4.35,1.23,2.83,2.83,0,0,1-2.61.22,19.08,19.08,0,0,0-3.12-1.17c-2-.6-3.74-1.13-4.83-2.85a2.45,2.45,0,0,0-2.38-.93,5,5,0,0,1-2.24-.58c-.29-.12-.58-.24-.87-.34l-48.41-17.6L358.43,620q-21.29-7.74-42.6-15.44-23.37-8.46-46.74-16.94-67.83-24.65-135.65-49.34l-26.26-9.55a22.3,22.3,0,0,1-2.17-.87h0a2.17,2.17,0,0,0-.9-3.13,1.11,1.11,0,0,0-.94-.06l-1,.37c-.83.31-1.74.66-2.64,1a2.65,2.65,0,0,1-2.06.26c-1.89-.74-3.78-1.46-5.66-2.18l-.73-.28a2.45,2.45,0,0,0,1.32-2.33,1.11,1.11,0,0,0-.53-.89,3.37,3.37,0,0,0-3.16,0l-.24.09a5.14,5.14,0,0,1-3.64.05l-2.56-.93c-3.07-1.12-6.25-2.27-9.32-3.51-.84-.34-1.35-.74-1.44-1.13s.21-1,.83-1.73a7.35,7.35,0,0,1,.95-.84L74,512l6.6-5.76a.67.67,0,0,0,.09.14c2.27,2.54,9.37,5.25,13.38,5.25a6.07,6.07,0,0,0,1-.07,1.11,1.11,0,0,0,.31-2.11,67.51,67.51,0,0,0-13-4.76l.92-.8c1.12-1,1.37-2,.73-3a2.47,2.47,0,0,0-3.41-1A15.06,15.06,0,0,0,78,501.8c-2.46,2.12-4.94,4.31-7.59,6.69-3.16,2.85-4.48,5.22-4.13,7.45s2.37,4.15,6.35,5.94c.94.42,1.9.78,2.83,1.12a32.86,32.86,0,0,1,3.67,1.55c1.52.8,1.66,1.17,1.38,2.14a20.24,20.24,0,0,0-.58,4.34l0,.65c0,.32-.06.67-.1,1-.23,2.09-.58,5.25,2.73,6.67,4,1.73,8.17,3.29,12.35,4.66a4.74,4.74,0,0,0,4.32-.42,5.44,5.44,0,0,0,2.13-4.35,13.41,13.41,0,0,0-.44-4.85c0-.07,0-.12,0-.17a1.66,1.66,0,0,1,.33.06,15.5,15.5,0,0,1,1.68.54L155.61,554l117.12,42.4,36.63,13.24q22.84,8.25,45.7,16.53l65.44,23.73L453,661.67c5.35,1.93,10.69,3.86,16,5.84a6.37,6.37,0,0,1,1.93.89,7.77,7.77,0,0,1-.11,2.29c0,.34-.12.69-.19,1a7.31,7.31,0,0,0-.21,2.57c.06.43.08.91.1,1.42.07,1.83.17,4.33,2.76,5.43a124.73,124.73,0,0,0,13.13,4.71,5.44,5.44,0,0,0,1.51.23,3.85,3.85,0,0,0,2.22-.67,5,5,0,0,0,1.95-3.89,17.75,17.75,0,0,0-.58-5.91,3.64,3.64,0,0,1-.16-1.15,3.93,3.93,0,0,1,1.24.29c3.73,1.3,7.73,2.77,12.61,4.64l.48.18c2.34.91,5,1.94,7.95.26a3.5,3.5,0,0,1,1.22-.06l.83,0a30.82,30.82,0,0,0,11.69-2.5L547,669l12.38-5.28c1-.41,1.94-.81,2.91-1.21l1.92-.79c.41-.17.64-.14.66-.08a8.63,8.63,0,0,0,7.22,7l.06.07a2.59,2.59,0,0,0,.5.49c2,1.49,3.72,1.94,5.2,1.34s2.5-2.24,2.92-4.83c0-.18,0-.37.06-.56s0-.26,0-.36a12.07,12.07,0,0,0,5.76-7.4,4.71,4.71,0,0,1,1.19-.75,4.58,4.58,0,0,0,2.84-4.67c-.13-1.21.22-1.65,1.88-2.34,6.85-2.85,13.78-5.8,20.49-8.66l36.3-15.46q29.28-12.48,58.57-24.93,26.64-11.34,53.29-22.64,23.8-10.11,47.6-20.22,30.48-12.95,61-25.93l76.68-32.62,69.28-29.47,1.48-.63c2.46-1,5-2.12,7.47-3.33a7.28,7.28,0,0,0,4.33-5.49A6.09,6.09,0,0,0,1026.55,454.72Zm-172.81,78q3-5.12,5.88-10.28a2.37,2.37,0,0,0-.16-2.6.77.77,0,0,0-.17-.19,2,2,0,0,0-.78-.44l2.46-1a2.18,2.18,0,0,0-.22.21,1.07,1.07,0,0,0-.15.22,2,2,0,0,0,0,1.69,1.92,1.92,0,0,0,1.27,1c3.77,1,7.66,1.9,11.87,2.88a2.51,2.51,0,0,0,.27,0L853.6,533A1.24,1.24,0,0,0,853.74,532.77Zm157.44-78.46a5.28,5.28,0,0,0,3.16-2.44c2.88,2.12,5.8,4.3,8.59,6.57.3.25.81.74.77,1.21s-.55.94-1.35,1.37c-1.94,1-4,1.93-6.06,2.79l-.65.27q-8.71,3.71-17.43,7.38-9.19,3.9-18.4,7.8l-56.88,24.2-40.2,17.11L876,523.42a1.89,1.89,0,0,0,.25-.58,2,2,0,0,0-1.56-2.43Q869,519,863.2,517.56a2.29,2.29,0,0,0-.58-.06c48.93-20.85,98.81-42.09,148.06-63ZM695.89,596.41c-3.82-1-7.66-1.93-11.49-2.86-.1,0-.19,0-.28,0,48.69-20.7,97.13-41.35,144.81-61.67l27.36-11.66c-1.94,3.34-3.89,6.79-6,10.57a2,2,0,0,0,.67,2.84,1.76,1.76,0,0,0,.58.21l-64.2,27.3-42.49,18.06-47.69,20.28a2.24,2.24,0,0,0,.28-.63A2,2,0,0,0,695.89,596.41Zm-218.28,72c1.63.59,3.25,1.21,5,1.89A45.55,45.55,0,0,1,477.61,668.38Zm7.25,7.22a.22.22,0,0,1,0,.09h0c-2.4-.85-4.94-1.83-8.25-3.18a.15.15,0,0,1,0-.07l.4.12a41.52,41.52,0,0,1,7.77,2.86c.13.07.13.1.13.17ZM89,527.56a27.15,27.15,0,0,1,2.64.9Q90.29,528,89,527.56Zm5.19,6.4-.6-.18a39.24,39.24,0,0,1-7.4-2.72,1,1,0,0,1-.34-.47l0-.07,0,0c1.07.45,2.19.81,3.27,1.15a20.86,20.86,0,0,1,5,2.08S94.2,533.84,94.18,534Zm580.75,74.8c2-3.41,3.94-6.84,5.89-10.28a2.41,2.41,0,0,0-.16-2.6,1.54,1.54,0,0,0-.17-.19,2.12,2.12,0,0,0-.6-.37l2-.86a1.08,1.08,0,0,0-.11.18,1.92,1.92,0,0,0,1.24,2.73c3.77,1,7.65,1.9,11.87,2.88l.33,0-10.49,4.46-10,4.25A1.37,1.37,0,0,0,674.93,608.76Z"/><path class="cls-2" d="M110.88,511.48a1.12,1.12,0,0,0-1.47,1.3c.62,2.64,2.59,3.34,4,3.85l.27.1,3.3,1.2a1.08,1.08,0,0,0-.59.71,2.07,2.07,0,0,0,1.36,2.47C248.93,569,381.34,616.92,509.39,663.24a2.27,2.27,0,0,0,.76.14,2.17,2.17,0,0,0,1.87-1.09,1.11,1.11,0,0,0,.16-.64,2.23,2.23,0,0,0-.19-.78,2.82,2.82,0,0,0,1.37-.65,1.09,1.09,0,0,0,.39-1.09,2.8,2.8,0,0,0-2.1-2.16L127.39,517.47Z"/><path class="cls-2" d="M444.2,364.14a5.17,5.17,0,0,0-3.95-.51,1.12,1.12,0,0,0-.65.56,1.14,1.14,0,0,0-.06.85,3.9,3.9,0,0,0,2.85,2.5l.5.18,7.65,3.08q4.51,1.8,9,3.62c27.7,11.29,56.71,21.43,86.2,30.16q8.54,2.54,17.07,5c21.45,6.26,43.64,12.74,65.09,20.28l14.49,5.06c13.53,4.72,27.53,9.6,41.19,14.68,27.44,10.21,55.81,20.77,84,32.58l7.37,3.08c14.65,6.12,29.8,12.46,44.41,19.33,6,2.85,12.52,5.86,21,9.79a4.51,4.51,0,0,1,.44.22,4.76,4.76,0,0,0,2.19.68,3.06,3.06,0,0,0,1.43-.36,1.11,1.11,0,0,0,.57-1.3,3.59,3.59,0,0,0-2.46-2.4l-.44-.18c-1.26-.61-2.53-1.2-3.8-1.78-1.86-.87-3.79-1.76-5.65-2.69-11-5.46-22.31-10.42-32-14.64-30.55-13.25-61.33-25.32-87.41-35.37-34.53-13.32-68.69-25.48-101.52-36.15-19.83-6.44-39.72-12.3-56.57-17.18-18.37-5.32-40.09-11.85-61.84-19.95-9.37-3.48-18.82-7.23-28-10.85-6.69-2.65-13.62-5.39-20.46-8Z"/><path class="cls-2" d="M266.24,436.46a6,6,0,0,0-4.24-.72,1.12,1.12,0,0,0-.83,1.2c.24,2.31,2,2.84,3,3.15l.39.13c9.33,3.19,18.61,7,27.58,10.7q5.49,2.26,11,4.48c14.68,5.88,30.07,11.22,47.07,16.33q12,3.61,24,7.18c26.3,7.81,53.49,15.89,79.92,24.83,23.93,8.09,48.39,17.2,70,25.24,28,10.42,56.83,21.92,88.19,35.16,15.13,6.39,32.9,14.09,49.93,22.77.17.08.32.17.49.27a4.91,4.91,0,0,0,2.5.84,3.82,3.82,0,0,0,1.59-.36,1.13,1.13,0,0,0,.59-.66,1.1,1.1,0,0,0-.06-.87,5.73,5.73,0,0,0-3.21-2.62c-.22-.1-.43-.19-.64-.3-6.27-3.11-12.71-6.09-18.94-9L639.85,572c-30.23-14.07-61.56-26.4-93.68-38.83-40.35-15.61-73.45-27.54-104.19-37.54-23-7.46-46.45-14.5-69.17-21.3l-9.51-2.85c-20.55-6.16-40.67-12.94-59.8-20.16-7.78-2.94-15.62-6.12-23.21-9.19-4.41-1.79-8.83-3.58-13.26-5.33Z"/><path class="cls-2" d="M452.45,363.07c.17.06.34.11.5.18l7.65,3.08q4.51,1.8,9,3.62c27.71,11.29,56.72,21.43,86.21,30.16q8.54,2.53,17.07,5c21.45,6.26,43.64,12.74,65.09,20.28l14.49,5.06c13.53,4.72,27.53,9.6,41.18,14.68,27.44,10.21,55.82,20.77,84,32.58L785,480.8c14.65,6.12,29.8,12.46,44.41,19.33,6,2.84,12.51,5.86,21,9.79a4.51,4.51,0,0,1,.44.22,4.72,4.72,0,0,0,2.19.68,3.09,3.09,0,0,0,1.43-.36,1.11,1.11,0,0,0,.57-1.3,3.59,3.59,0,0,0-2.46-2.4l-.44-.18c-1.26-.61-2.53-1.2-3.8-1.78-1.86-.87-3.79-1.76-5.66-2.69-11-5.46-22.3-10.42-32-14.64-30.55-13.25-61.33-25.32-87.41-35.37C688.76,438.78,654.6,426.62,621.77,416c-19.83-6.44-39.72-12.3-56.57-17.18-18.38-5.32-40.09-11.85-61.84-19.95-9.37-3.49-18.83-7.23-28-10.85-6.69-2.65-13.62-5.39-20.46-8l-.67-.29a5.17,5.17,0,0,0-3.95-.51,1.12,1.12,0,0,0-.65.56,1.14,1.14,0,0,0-.06.85A3.87,3.87,0,0,0,452.45,363.07Z"/><path class="cls-2" d="M373.36,467c-20.55-6.16-40.67-12.94-59.8-20.16-7.78-2.94-15.62-6.12-23.21-9.19-4.41-1.79-8.83-3.58-13.26-5.33-.26-.11-.53-.23-.79-.36a6,6,0,0,0-4.24-.72,1.11,1.11,0,0,0-.83,1.2c.24,2.31,2,2.84,3,3.15l.39.13c9.33,3.19,18.6,7,27.58,10.7q5.47,2.26,11,4.48c14.67,5.88,30.07,11.22,47.07,16.33q12,3.62,24.05,7.18c26.3,7.81,53.49,15.89,79.92,24.83,23.92,8.09,48.39,17.2,70,25.24,28,10.42,56.83,21.92,88.19,35.16,15.14,6.39,32.9,14.09,49.94,22.77l.49.27a4.87,4.87,0,0,0,2.5.84,3.85,3.85,0,0,0,1.59-.36,1.13,1.13,0,0,0,.59-.66,1.1,1.1,0,0,0-.07-.87,5.74,5.74,0,0,0-3.2-2.62c-.22-.1-.44-.19-.65-.3-6.26-3.11-12.7-6.09-18.94-9l-4.75-2.21c-30.23-14.07-61.57-26.4-93.69-38.83-40.34-15.61-73.45-27.54-104.19-37.54-22.95-7.46-46.44-14.5-69.17-21.3Z"/></g></g></svg>