<svg xmlns="http://www.w3.org/2000/svg" viewBox="0 0 1080 1080"><defs><style>.cls-1{fill:#f6f6f6;}.cls-2{fill:#8e8e8e;}</style></defs><g id="Capa_2" data-name="Capa 2"><g id="Capa_1-2" data-name="Capa 1"><g id="background"><rect class="cls-1" x="1079" y="1079" width="1" height="1"/><rect class="cls-1" width="1" height="1"/><rect class="cls-1" x="1079" y="1079" width="1" height="1"/><rect class="cls-1" x="1079" width="1" height="1"/><rect class="cls-1" y="1079" width="1" height="1"/><rect class="cls-1" y="1079" width="1" height="1"/></g><path class="cls-2" d="M940.66,572.64a23.21,23.21,0,0,1,1-2.72c.76-1.65,1.72-3.22,2.38-4.91,1.54-3.9-.1-6.32-4.28-6.26-1.32,0-1.76-.51-1.88-1.62-.19-1.68-.19-3.44-1.45-4.77-2-2.08-2.12-4.8-2.65-7.38a2.26,2.26,0,0,1,1.16-2.41c3.43-2.65,3.28-5-.63-6.46-2.56-1-3.16-2.56-3.09-5,.11-4.36.06-8.73,0-13.09,0-1.23.34-2.68-1.11-3.53-1.45,1-1.06,2.44-1.08,3.7,0,4.24-.1,8.49,0,12.73.06,2.3-.57,3.8-2.86,4.83-3.18,1.43-3.24,3.69-.39,6a3.77,3.77,0,0,1,1.57,2.3,9.07,9.07,0,0,1-5.48,10.48c-3.89,1.64-5,3.85-3.43,7.74,1.28,3.26,2.33,6.82,4.42,9.52,3.65,4.72,4.06,9.92,4,15.42,0,.12,0,.25,0,.37a8.68,8.68,0,0,1-2.46,7.31c-.58.61-1,1.39-1.58,2a5.22,5.22,0,0,0-1.26,5.69,37.2,37.2,0,0,0,1.22,3.79c3.2,7.15,8.2,9,15.22,5.75l1-.46a8.43,8.43,0,0,0,4.16-11.33,32.74,32.74,0,0,0-2.89-5.46c-3-4.4-3-9.34-2.94-14.33Zm-9-16c2.52-.67,3.61-.14,3.67,3.14a3.48,3.48,0,0,1-4.56,3.17,1.36,1.36,0,0,1-.58-.39C929.43,561.5,930.48,556.91,931.67,556.6Zm-.41,24.93a10.35,10.35,0,0,1,.32-2.48,1.26,1.26,0,0,1,1.36-1c.7.06,1,.63,1,1.27.24,2.39.47,4.79.64,6.54,0,1,0,1.37,0,1.73-.1,2.16-.88,3.39-2.13,3.08-1.69-.43-1-2-1.06-3C931.29,585.63,931.27,583.58,931.26,581.53Zm-5.89-14a9.34,9.34,0,0,1-3.25-5.86c3.54,2.2,6.4,4,10,3.88.75,0,1.9.21,1.81,1.33a2.88,2.88,0,0,1-1.8,2.52,2.21,2.21,0,0,1-1.76.06C928.85,568.34,926.83,568.8,925.37,567.5ZM933,610.18a1.35,1.35,0,0,1-1.34.4,7.4,7.4,0,0,1-3.78-2.05,12.49,12.49,0,0,1-2.85-5.82,1.69,1.69,0,0,1,1.56-2.3,1.36,1.36,0,0,1,1.46.91,18.38,18.38,0,0,0,4.84,7.58A.86.86,0,0,1,933,610.18Zm-2-11a19,19,0,0,1,3.52,6.3C932.05,604.27,931.47,603.27,931,599.19Zm8.54,1.19c.06,1.15-.3,1.56-.87,1.87a1.4,1.4,0,0,1-2-.26,41.68,41.68,0,0,1-4.19-7.53,1.18,1.18,0,0,1,.54-1.55c.63-.4,1.44-.8,2-.17C937.13,595.13,938.36,598,939.58,600.38Z"/><path class="cls-2" d="M786.36,629.73c5.67-.81,9.8-4.48,14.92-6.1a4.23,4.23,0,0,0,1.2-.81c1.54-1.23,1.63-2.83,1.19-4.61s-1.59-2.26-3.17-2.46a7.77,7.77,0,0,0-2.88-.16,2.17,2.17,0,0,1-2.78-1.05c-1.16-2.2-3.09-2.38-5-1.49-3.36,1.58-6.69,3.15-10.43,3.63a3.4,3.4,0,0,0-1.26.71,133.38,133.38,0,0,1-22.52,12.33c-1.79.74-3.59,1.45-5.39,2.19-6.37,2.65-12.74,5.32-19.13,7.93-1.32.54-3,1.52-4.06.17-2.19-2.69-5.36-3.16-8.28-4.2-4.26-1.53-4.28-1.47-4.29-6.15,0-6.06,0-12.12,0-18.18,0-1.21.35-2.6-.94-3.73-1.17,1.14-.89,2.39-.9,3.53,0,5.69,0,11.39,0,17.08,0,7.17.75,5.94-5.41,8.4a6.85,6.85,0,0,0-4.71,6.67,67.67,67.67,0,0,0,.27,7.26,4.84,4.84,0,0,0,3.35,4.35,56.07,56.07,0,0,1,5.4,2.13c3,1.47,5.7,1.05,8.68-.22Zm-62.07,15.43c0,.75,0,1.44-1.07,1.48-1.21.05-4.55-1.36-4.75-2.09-.31-1.19.74-1.35,1.43-1.68C722.64,641.56,724.3,642.45,724.29,645.16Zm-12.55,7.21c-1-.29-2.06-.64-3.07-1-2.71-1-3-1.42-3-4.15,0-2,.36-2.29,2.36-1.82,4,.94,5.11,2.22,5.19,5.7C713.28,652.19,712.83,652.68,711.74,652.37Zm.68-7.55a14,14,0,0,1-6-2.07,1.06,1.06,0,0,1-.37-1.29,1.2,1.2,0,0,1,1-.9,13.26,13.26,0,0,1,6.37,2.17c.16.09.21.4.32.61C713.58,644.1,713.24,644.87,712.42,644.82Zm-2.61-5.52c3.83-2.41,5.37-2.24,9.38.7C716,642.75,713.23,640.43,709.81,639.3Zm8.64,14.56c-1,.4-1.67.1-1.72-1.07a19.42,19.42,0,0,1,0-2.53,1.69,1.69,0,0,1,2.25-1.69,18.8,18.8,0,0,1,5.79,2.29A23.68,23.68,0,0,1,718.45,653.86Zm14.26-7c-4.1,2-4.34,1.87-4.66-3.12a18.7,18.7,0,0,1,5.49,2C733.63,646.55,733.1,646.69,732.71,646.88Zm37.7-14.79c-9.36,3.95-18.82,7.69-28,11.94-3.77,1.73-6.61.67-9.7-1,.34-1.22,1.3-1.3,2-1.61q10.38-4.35,20.78-8.65c1.52-.63,3.09-1.65,4.41.42a.77.77,0,0,0,1.26,0c1.23-2.47,3.16-1.52,5-1.12a1,1,0,0,0,1.12-.25c-.22-1.62-1.93-1.48-2.86-2.26,2.32-1.15,3.21-1,7.7,1.39C771.87,631.83,771,631.82,770.41,632.09Zm6.28-3.7a3.88,3.88,0,0,1-3.48.13,16.52,16.52,0,0,1-4.24-1.83c2-2.22,4.77-3,7.13-4.47,3.35-2,6.33-.84,9.75,1.13Z"/><path class="cls-2" d="M587.75,708.66c.2,2.5,3,.86,3,.86l0-9.87c0-2.18,1.93-1.59,2.18-1.09,2.17,4.35,7.09,3.15,9.67.42a3,3,0,0,0,.8-1.57c.24-2.16.58-4.35-.58-6.4a13.36,13.36,0,0,1-1.32-3.73c-.8-3.54-3.47-4.9-6.86-3.59-2.6,1-5.11,2.22-7.7,3.25-1.73.68-2.12.4-2.21-1.52s0-3.89-.07-5.82c-.06-1.11.42-3-1.15-2.93s-1,1.94-1,3.08a51.12,51.12,0,0,0,.05,6.55c.18,1.92-.59,2.87-2.28,3.54-3,1.21-6,2.56-9,3.84-1.7.72-2.85,1.79-2.75,3.82a68,68,0,0,0,.72,9.77c.14.73.22,1.52.9,1.91,2.37,1.39,4.8,2.2,7.57,1,2.61-1.11,5.36-2,5-5.66-.15-1.67.63-3.58,2.29-3.26C587.94,701.85,587.55,706.17,587.75,708.66Zm-6.13-12.09c-1.89.42-2-.68-2.33-1.35-.47-.84.05-1.38.77-1.69,1.88-.83,3.78-1.61,5.67-2.41,1.44-.61,2.88-1.24,4.34-1.83.55-.22,1.17-.52,1.69,0s.27,1.36.06,2a1.4,1.4,0,0,1-.61.85C587.83,693.73,584.42,695.28,581.62,696.57Z"/><path class="cls-2" d="M77.15,476.14a5.54,5.54,0,0,0-3.47-.89c-.9.14-1.27.77-.66,1.55a4,4,0,0,0,1.4,1.1,12.17,12.17,0,0,0,3.36,1.34c1.57.23.92,3,2.59,2.35s.44,2.79,2.36,1.42c.4-.29.34.44.16.67-1.21,1.53-3.34,2-4.67.71-3.26-3.13-7.82-5-9.39-9.77a2.5,2.5,0,0,0-.92-1.1s-2.2-4.78-5.88-6.14c-2.93-.2-5.07,1.07-5.55,3.19s.8,4.38,3.42,5.18c3.27,1,5.5,4.47,9.42,3.89.18,0,.41.23.6.39,2.5,2.1,5,4.19,7.5,6.32.63.55,1.38,1.25.65,2.15s-1.46.12-2.1-.38c-1.52-1.2-3-2.46-4.59-3.56-1.16-.82-2.07-.25-2.13,1.17a3.88,3.88,0,0,0,1,2.66,10.53,10.53,0,0,0,8.57,4,4.27,4.27,0,0,0,3.7-2c1.58-2.58,3.38-5.13,4.31-8C86.84,482.46,79.65,477.58,77.15,476.14Z"/><path class="cls-2" d="M966.84,512.11c-2-4.17-4.16-6-8.45-4.19-7,3-14,6.08-21,9.11-3.67,1.59-4.06,2.21-4,6.1.21,2.79.4,5.32.58,7.86a2.27,2.27,0,0,0,.85,1.92c2,1.23,4.1,2.68,6.41,1.64,2.57-1.15,6.21-1.31,6.31-5.51a4.48,4.48,0,0,1,3.55-4.5,8.46,8.46,0,0,0,2-.84,2.57,2.57,0,0,1,3.53.37,5.78,5.78,0,0,0,7.06.84c.86-.45,1.84-.69,2.64-1.21C966.31,523.7,970.14,519.09,966.84,512.11Zm-11.47,4.21-9.28,4.12c-1,.45-1.55,0-2-.89-.59-1.12-.27-1.81.85-2.28,3.46-1.43,6.91-2.9,10.37-4.33.75-.31,1.44-.29,1.66.74A2.87,2.87,0,0,1,955.37,516.32Z"/><path class="cls-2" d="M533.19,718.12c.47-.12.93-.29,1.38-.45,2.71-1,2.9-1.39,3.06-3.8s-1-3.3-3-3.92c-1.15-.37-2.28-.81-3.42-1.22-3.79-1.35-3.8-1.35-3.81-5.4,0-5.21,0-10.42,0-15.63,0-1.05.71-2.91-1-2.92-1.21,0-.78,1.76-.81,2.76-.07,2.78,0,5.57,0,8.36h0c0,2.9-.12,5.82,0,8.72a3.75,3.75,0,0,1-2.76,4.12c-1.58.61-3.12,1.32-4.67,2s-2.65,1.59-2.33,3.59c.29,1.8.73,3.3,2.82,3.68,1.66.31,3.28,1.13,5,.9A37.81,37.81,0,0,0,533.19,718.12Zm-2.11-5.73c-3.07.23-6.1,1.83-9.38.09C524.94,710.44,528,710.24,531.08,712.39Zm-11.75,2.2c4.74.5,9.48.93,14.19-.45C530.39,716.46,524.1,716.73,519.33,714.59Z"/><path class="cls-2" d="M1022.13,502.43a5.19,5.19,0,0,0-3.14-2.92c-2.26-.83-2.66-2.46-2.61-4.59.09-4.13,0-8.25,0-12.37,0-1.27.36-2.71-1.15-3.78-1.38,1.24-1,2.65-1.05,3.93,0,4.24-.2,8.5,0,12.73.19,3.22-.7,5.38-3.92,6.38-2.23.69-2.69,2.45-2.7,4.6s1.26,3.25,3.13,3.88a19.36,19.36,0,0,1,2.74,1,5.87,5.87,0,0,0,7.83-1.38S1023.12,505.16,1022.13,502.43Zm-6.21-.1a2.53,2.53,0,0,1,3.22.81,1.42,1.42,0,0,1,.12,2c-.8.94-1.79,1.76-3.1,1.41s-2.64-1-4.33-1.67C1013.15,503.16,1014.64,502.9,1015.92,502.33Z"/><path class="cls-2" d="M141.65,537.66a21.13,21.13,0,0,0,2.68,1.83c.46.24.94,0,1-.68s-.72-1.18-1.26-1.62q-4.8-3.9-9.61-7.77L87.68,492a5.8,5.8,0,0,0-2.12-1.36c-.37-.08-.8-.1-.92.31a1.17,1.17,0,0,0,.13,1,19,19,0,0,0,1.9,1.68c3.88,3.09,7.77,6.17,11.65,9.28Q120,520.26,141.65,537.66Z"/><path class="cls-2" d="M1021.24,465.33l-.81-.68c-4.92-4.09-10-8.32-16.44-10.62-24.76-8.86-49.9-18-74.22-26.77l-12.69-4.6L831.8,391.77,763.44,367l-68.33-24.76-31.35-11.35q-31.53-11.4-63-22.84a14,14,0,0,0-10,.22c-1.71.62-3.41,1.33-5,2l-2.07.86L481.29,353.09l-22.14,9.15-151.06,62L232,455.44,168.85,481.3l-46.64,19.11c-3,1.23-6.2,2.57-10.07,4.23-.58.25-2.34,1-1.74,2.91a3.18,3.18,0,0,0,2.35,2.1,5.35,5.35,0,0,0,3.62-.62l.53-.23,27.47-11.28q23.94-9.86,47.91-19.68,16.42-6.75,32.87-13.46l33.79-13.84,51.49-21.14q26.42-10.84,52.84-21.69l41.32-16.93q20.24-8.28,40.49-16.58,52.85-21.68,105.67-43.39l17.61-7.27a1,1,0,0,0-.13.62,3.46,3.46,0,0,0,2.93,3.07,3.4,3.4,0,0,1,.38.12c9.07,3.1,18.09,6.81,26.82,10.4,3.56,1.47,7.11,2.93,10.69,4.36,14.27,5.72,29.24,10.91,45.77,15.88q11.68,3.52,23.4,7c25.56,7.6,52,15.45,77.7,24.14,23.25,7.87,46,16.35,68,24.55,27.2,10.12,55.25,21.31,85.75,34.19,14.72,6.21,32,13.7,48.56,22.13.16.08.31.17.47.27a4.77,4.77,0,0,0,2.44.82,3.61,3.61,0,0,0,1.54-.36,1.08,1.08,0,0,0,.51-1.48,5.59,5.59,0,0,0-3.11-2.55,6,6,0,0,1-.63-.29c-6.11-3-12.39-5.94-18.46-8.75l-4.58-2.13c-29.4-13.68-59.87-25.67-91.1-37.76C806.12,402.57,773.93,391,744,381.25c-22.38-7.28-45.27-14.13-67.42-20.76l-9.08-2.72c-20-6-39.55-12.59-58.15-19.61-7.57-2.85-15.19-5.94-22.57-8.93q-6.44-2.61-12.89-5.19c-.26-.1-.52-.22-.78-.34a6.5,6.5,0,0,0-3.13-.84q11.85-4.91,24.08-10a5.22,5.22,0,0,1,4.1.14c20.7,7.59,39,14.28,56,20.46l43.55,15.75q22.69,8.21,45.39,16.43,37.11,13.45,74.19,26.94l47.2,17.14L914.91,428l39.26,14.24q23.43,8.51,46.84,17c.22.08.46.15.69.21a7.18,7.18,0,0,1,.7.23L528.59,661.31l-.57.21-.42.16-.43.2-.69.37a3.28,3.28,0,0,0-.47.33,2.38,2.38,0,0,0-.45.51,1.87,1.87,0,0,0-.27.77,2,2,0,0,0,0,.57l0,.13a1.08,1.08,0,0,0,.72.87,2.9,2.9,0,0,0,.75.17,1.82,1.82,0,0,0,0,1.13,1.1,1.1,0,0,0,.39.56l.1.09a1.7,1.7,0,0,0,1.06.5,1.29,1.29,0,0,0,.45-.09C629,625.61,730.72,582.26,829.08,540.34c57.91-24.68,117.79-50.21,176.73-75.21l.49-.2a5.16,5.16,0,0,0,3.06-2.37c2.8,2.06,5.65,4.18,8.35,6.39.3.24.8.72.76,1.17s-.54.91-1.32,1.33c-1.87,1-3.9,1.87-5.85,2.7l-.67.28-17,7.18-17.89,7.58-55.31,23.53-39.09,16.64-92.74,39.43-41.31,17.56-58.46,24.86-50,21.26-66.26,28.18-36.41,15.49a31.94,31.94,0,0,1-12.23,3c-5.9.13-11.18-1.81-16.78-3.84l-1.46-.53c-.76-.27-.88-.5-.9-.54s-.08-.37.4-1.28a1.09,1.09,0,0,0-1-1.59A10.77,10.77,0,0,0,500,672.5a2.71,2.71,0,0,1-2.54.21,18.53,18.53,0,0,0-3-1.13c-1.95-.59-3.63-1.1-4.69-2.77a2.36,2.36,0,0,0-2.31-.91,4.81,4.81,0,0,1-2.19-.56l-.84-.33-47.07-17.12L371.58,626l-41.31-15-45.56-16.51q-66.1-24-132.19-48.07l-25.26-9.19a22.41,22.41,0,0,1-2.1-.85h0a2.11,2.11,0,0,0-.87-3,1.1,1.1,0,0,0-.92-.06l-.92.35c-.81.31-1.69.65-2.57,1a2.54,2.54,0,0,1-2,.25c-1.86-.73-3.74-1.44-5.59-2.15l-.62-.24a2.38,2.38,0,0,0,1.28-2.27,1.06,1.06,0,0,0-.52-.86,3.26,3.26,0,0,0-3.06,0l-.24.09a5,5,0,0,1-3.54,0l-2.49-.9c-3-1.09-6.08-2.21-9.06-3.41-.82-.33-1.31-.72-1.4-1.1s.2-1,.8-1.68a7.74,7.74,0,0,1,.93-.82l.62-.5,6.42-5.6.08.13c2.22,2.47,9.12,5.1,13,5.1a7.16,7.16,0,0,0,1-.06,1.09,1.09,0,0,0,.31-2.06A65.55,65.55,0,0,0,103.14,514l.89-.78c1.09-.95,1.33-1.93.72-2.92a2.41,2.41,0,0,0-3.32-.95,14.79,14.79,0,0,0-2.54,1.8c-2.38,2.06-4.87,4.25-7.38,6.51-3.08,2.77-4.35,5.07-4,7.24s2.3,4,6.17,5.77c.91.41,1.84.76,2.75,1.1a30.08,30.08,0,0,1,3.57,1.5c1.48.78,1.61,1.14,1.35,2.08a19.16,19.16,0,0,0-.57,4.22l0,.63c0,.32,0,.65-.09,1-.22,2-.56,5.11,2.66,6.49,3.9,1.68,7.94,3.2,12,4.53a4.68,4.68,0,0,0,4.21-.4,5.35,5.35,0,0,0,2.07-4.24,12.85,12.85,0,0,0-.44-4.71c0-.07,0-.12,0-.17a1.72,1.72,0,0,1,.32.06,14,14,0,0,1,1.63.53l51.31,18.59q56.94,20.63,113.88,41.23L324,616l44.26,16,63.41,23,31.81,11.54c5.19,1.88,10.39,3.76,15.57,5.68a5.82,5.82,0,0,1,1.87.87,7.17,7.17,0,0,1-.1,2.22c0,.33-.11.67-.18,1a7.17,7.17,0,0,0-.21,2.5c.06.42.07.89.09,1.38.07,1.78.17,4.22,2.69,5.28A118,118,0,0,0,496,690.08a5.17,5.17,0,0,0,1.46.23,3.77,3.77,0,0,0,2.17-.66,4.87,4.87,0,0,0,1.89-3.78,17,17,0,0,0-.56-5.74,3.77,3.77,0,0,1-.16-1.12,3.88,3.88,0,0,1,1.21.28c3.62,1.26,7.52,2.7,12.26,4.51l.46.18c2.28.88,4.87,1.88,7.74.25a3.33,3.33,0,0,1,1.19-.06l.8,0a30.14,30.14,0,0,0,11.37-2.43l19-8.08L567,668.51c.94-.41,1.89-.79,2.84-1.18l1.86-.77c.4-.16.62-.13.64-.08a8.38,8.38,0,0,0,7,6.8l.06.07a3.61,3.61,0,0,0,.48.48c1.92,1.44,3.62,1.88,5.06,1.3s2.44-2.18,2.84-4.7a4.46,4.46,0,0,0,.06-.54c0-.1,0-.25,0-.35a11.75,11.75,0,0,0,5.6-7.2,4.65,4.65,0,0,1,1.16-.72,4.47,4.47,0,0,0,2.76-4.55c-.13-1.17.22-1.6,1.83-2.27,6.69-2.79,13.48-5.68,20-8.48l35.82-15.25q28.16-12,56.32-24l50.43-21.43,47.68-20.24,60.17-25.6,71.65-30.48,69.37-29.52,1.4-.59c2.41-1,4.91-2.07,7.31-3.26a7.07,7.07,0,0,0,4.21-5.34A5.93,5.93,0,0,0,1021.24,465.33ZM487.46,673.09c1.58.57,3.15,1.17,4.7,1.78A43.48,43.48,0,0,1,487.46,673.09Zm7,7.1h0c-3-1.05-5.85-2.21-8-3.09a.16.16,0,0,1,0-.06l.39.11a40.14,40.14,0,0,1,7.55,2.78c.14.07.13.1.13.18A.19.19,0,0,1,494.5,680.19Zm-384.93-144c.93.27,1.78.57,2.58.88C111.28,536.76,110.42,536.47,109.57,536.15Zm5.72,2,0-.16h0l0,.16Zm-.66,4.24-.59-.18a38.65,38.65,0,0,1-7.19-2.64,1,1,0,0,1-.34-.45.31.31,0,0,1,0-.08l.05,0a31.47,31.47,0,0,0,3.17,1.12,20.2,20.2,0,0,1,4.89,2A.26.26,0,0,1,114.63,542.38ZM115,539l.13-.43h0Z"/><path class="cls-2" d="M130.86,520.52a1.08,1.08,0,0,0-1.42,1.27c.6,2.56,2.51,3.24,3.91,3.74l.27.1,3.2,1.16a1.07,1.07,0,0,0-.57.69,2,2,0,0,0,1.32,2.4h0c127.53,46.59,256.28,93.16,380.79,138.2a2.19,2.19,0,0,0,.75.13,2.12,2.12,0,0,0,1.81-1.05,1.08,1.08,0,0,0,.16-.63,2.06,2.06,0,0,0-.19-.75,3,3,0,0,0,1.34-.63,1.11,1.11,0,0,0,.38-1.07,2.75,2.75,0,0,0-2.05-2.1l-373-135.4Zm7.39,7.45.05-.14v0l0,.12Z"/><path class="cls-2" d="M188.16,486l-.77-.35a5.7,5.7,0,0,0-4.12-.7,1.09,1.09,0,0,0-.81,1.16c.23,2.25,1.93,2.76,2.94,3.07l.38.12c9.07,3.1,18.09,6.82,26.81,10.41,3.56,1.46,7.12,2.93,10.69,4.36,14.27,5.71,29.24,10.9,45.77,15.87q11.7,3.52,23.4,7c25.57,7.6,52,15.46,77.7,24.15,23.25,7.86,46,16.34,68,24.54,27.21,10.13,55.26,21.31,85.75,34.19,14.72,6.21,32,13.7,48.57,22.14l.47.26a4.76,4.76,0,0,0,2.43.82,3.71,3.71,0,0,0,1.54-.35,1.11,1.11,0,0,0,.58-.64,1.09,1.09,0,0,0-.06-.85,5.65,5.65,0,0,0-3.12-2.55c-.21-.09-.43-.18-.63-.28-6.1-3-12.38-5.94-18.46-8.76l-4.58-2.13c-29.4-13.68-59.86-25.67-91.1-37.75-39.22-15.19-71.42-26.79-101.31-36.51C335.9,535.89,313,529,290.86,522.4l-9.09-2.72c-20-6-39.55-12.59-58.15-19.61-7.56-2.85-15.19-5.94-22.56-8.93C196.77,489.4,192.47,487.66,188.16,486Z"/><path class="cls-2" d="M223.23,470.74c-.26-.1-.51-.22-.77-.35a5.75,5.75,0,0,0-4.12-.69,1.08,1.08,0,0,0-.81,1.16,3.45,3.45,0,0,0,2.94,3.06l.38.13c9.07,3.1,18.08,6.81,26.81,10.4q5.34,2.21,10.69,4.36c14.27,5.72,29.24,10.91,45.77,15.88q11.7,3.53,23.41,7c25.56,7.6,52,15.45,77.69,24.14,23.25,7.87,46,16.35,68,24.54,27.21,10.13,55.26,21.32,85.75,34.2,14.72,6.21,32,13.7,48.56,22.13l.48.27a4.76,4.76,0,0,0,2.43.82,3.61,3.61,0,0,0,1.54-.36,1.09,1.09,0,0,0,.58-.63,1.12,1.12,0,0,0-.07-.86,5.58,5.58,0,0,0-3.11-2.54l-.63-.29c-6.1-3-12.37-5.93-18.43-8.74l-4.61-2.14c-29.39-13.68-59.86-25.67-91.1-37.76-39.23-15.18-71.42-26.78-101.31-36.5-22.37-7.28-45.27-14.13-67.41-20.76l-9.09-2.72c-20-6-39.54-12.59-58.15-19.61-7.56-2.86-15.19-5.95-22.57-8.94C231.83,474.19,227.54,472.45,223.23,470.74Z"/><path class="cls-2" d="M258.3,456.62l-.77-.35a5.75,5.75,0,0,0-4.12-.7,1.08,1.08,0,0,0-.81,1.16c.23,2.25,1.93,2.76,2.94,3.07l.38.12c9.07,3.1,18.08,6.81,26.8,10.4,3.57,1.47,7.13,2.94,10.7,4.37,14.27,5.71,29.24,10.9,45.77,15.88q11.7,3.51,23.4,7c25.57,7.6,52,15.46,77.7,24.15,23.25,7.86,46,16.34,68,24.54,27.22,10.13,55.27,21.31,85.75,34.19,14.71,6.21,32,13.7,48.56,22.14a4.31,4.31,0,0,1,.47.26,4.8,4.8,0,0,0,2.44.82,3.71,3.71,0,0,0,1.54-.35,1.14,1.14,0,0,0,.58-.64,1.09,1.09,0,0,0-.07-.85,5.64,5.64,0,0,0-3.11-2.55c-.21-.09-.43-.18-.63-.28-6.09-3-12.36-5.94-18.43-8.75l-4.61-2.14c-29.39-13.68-59.86-25.66-91.1-37.75-39.22-15.19-71.42-26.79-101.31-36.51C406,506.55,383.14,499.69,361,493.06l-9.09-2.72c-20-6-39.54-12.59-58.15-19.61-7.57-2.85-15.2-6-22.58-8.94C266.89,460.06,262.6,458.32,258.3,456.62Z"/><path class="cls-2" d="M293.37,441.4c-.26-.1-.51-.22-.77-.34a5.7,5.7,0,0,0-4.12-.7,1.08,1.08,0,0,0-.81,1.16,3.45,3.45,0,0,0,2.94,3.06l.38.13c9.06,3.1,18.08,6.81,26.8,10.4q5.34,2.2,10.7,4.36c14.27,5.72,29.24,10.91,45.77,15.88q11.7,3.52,23.4,7c25.57,7.6,52,15.45,77.7,24.14,23.24,7.86,46,16.34,68,24.54,27.21,10.13,55.26,21.32,85.75,34.2,14.72,6.21,32,13.7,48.56,22.13.16.08.31.17.47.27a4.8,4.8,0,0,0,2.44.82,3.61,3.61,0,0,0,1.54-.36,1.06,1.06,0,0,0,.51-1.48,5.56,5.56,0,0,0-3.11-2.55l-.63-.29c-6.09-3-12.36-5.93-18.42-8.73l-4.62-2.15c-29.4-13.68-59.86-25.67-91.1-37.76-39.22-15.18-71.42-26.78-101.31-36.5-22.37-7.28-45.27-14.13-67.42-20.76L387,475.13c-20-6-39.54-12.59-58.15-19.61-7.56-2.86-15.19-5.94-22.56-8.93Q299.82,444,293.37,441.4Z"/><path class="cls-2" d="M328.44,427.28l-.77-.35a5.76,5.76,0,0,0-4.12-.7,1.08,1.08,0,0,0-.81,1.16c.23,2.25,1.93,2.76,2.94,3.07l.38.12c9.07,3.1,18.08,6.82,26.8,10.41,3.56,1.46,7.13,2.93,10.7,4.36,14.27,5.71,29.24,10.9,45.77,15.88q11.7,3.51,23.4,7c25.57,7.6,52,15.46,77.7,24.15,23.25,7.86,46,16.34,68,24.54,27.21,10.13,55.26,21.31,85.75,34.19,14.72,6.21,32,13.7,48.56,22.14l.47.26a4.83,4.83,0,0,0,2.44.82,3.74,3.74,0,0,0,1.54-.35,1.14,1.14,0,0,0,.58-.64,1.09,1.09,0,0,0-.07-.85,5.6,5.6,0,0,0-3.11-2.55c-.22-.09-.43-.18-.63-.28-6.1-3-12.38-5.94-18.46-8.76L691,558.74c-29.4-13.68-59.87-25.67-91.1-37.75-39.23-15.19-71.42-26.79-101.31-36.51-22.37-7.27-45.27-14.13-67.42-20.76L422.05,461c-20-6-39.55-12.59-58.15-19.61-7.56-2.85-15.19-5.94-22.57-8.93C337,430.72,332.75,429,328.44,427.28Z"/><path class="cls-2" d="M363.51,412.06c-.26-.1-.51-.22-.77-.34a5.71,5.71,0,0,0-4.12-.7,1.07,1.07,0,0,0-.81,1.16,3.44,3.44,0,0,0,2.94,3.06l.38.13c9.06,3.1,18.08,6.81,26.8,10.4q5.34,2.21,10.7,4.36C412.9,435.84,427.87,441,444.4,446q11.7,3.53,23.41,7c25.56,7.6,52,15.45,77.69,24.14,23.25,7.87,46,16.35,68,24.54,27.21,10.13,55.25,21.32,85.75,34.2,14.72,6.21,32,13.7,48.56,22.13.16.08.31.17.47.27a4.77,4.77,0,0,0,2.44.82,3.61,3.61,0,0,0,1.54-.36,1.06,1.06,0,0,0,.51-1.48,5.56,5.56,0,0,0-3.11-2.55c-.22-.09-.43-.19-.63-.29-6.1-3-12.37-5.93-18.43-8.74L726,543.53c-29.39-13.68-59.86-25.67-91.1-37.76-39.23-15.18-71.42-26.78-101.31-36.5-22.37-7.28-45.27-14.13-67.42-20.76l-9.08-2.72c-20-6-39.54-12.59-58.15-19.61-7.57-2.86-15.19-5.95-22.57-8.93Q370,414.64,363.51,412.06Z"/><path class="cls-2" d="M398.58,397.94l-.77-.35a5.76,5.76,0,0,0-4.12-.7,1.08,1.08,0,0,0-.81,1.16c.23,2.25,1.92,2.76,2.94,3.07l.38.12c9.06,3.1,18.08,6.82,26.8,10.4,3.56,1.47,7.12,2.94,10.7,4.37,14.27,5.71,29.24,10.9,45.77,15.88q11.7,3.51,23.4,7c25.57,7.6,52,15.46,77.7,24.15,23.25,7.86,46,16.34,68,24.54,27.21,10.13,55.26,21.31,85.75,34.19,14.71,6.21,32,13.7,48.56,22.14.16.07.31.17.47.26a4.77,4.77,0,0,0,2.44.82,3.74,3.74,0,0,0,1.54-.35A1.14,1.14,0,0,0,788,544a1.09,1.09,0,0,0-.07-.85,5.6,5.6,0,0,0-3.11-2.55c-.22-.09-.43-.18-.63-.28-6.1-3-12.37-5.93-18.43-8.75l-4.61-2.14c-29.39-13.68-59.86-25.66-91.1-37.75-39.23-15.19-71.42-26.79-101.31-36.51-22.37-7.27-45.27-14.13-67.42-20.76l-9.08-2.72c-20-6-39.54-12.59-58.15-19.61-7.56-2.85-15.19-5.94-22.56-8.93C407.18,401.38,402.89,399.64,398.58,397.94Z"/><path class="cls-2" d="M433.65,382.72c-.26-.1-.51-.22-.77-.34a5.71,5.71,0,0,0-4.12-.7,1.08,1.08,0,0,0-.81,1.16,3.44,3.44,0,0,0,2.94,3.06l.38.13c9.07,3.1,18.09,6.81,26.81,10.4q5.34,2.2,10.69,4.36C483,406.51,498,411.7,514.54,416.67q11.7,3.52,23.4,7c25.57,7.6,52,15.45,77.7,24.14,23.26,7.87,47.05,16.73,68,24.54,27.21,10.13,55.26,21.32,85.75,34.2,14.72,6.21,32,13.7,48.56,22.13.16.08.31.17.47.27a4.77,4.77,0,0,0,2.44.82,3.61,3.61,0,0,0,1.54-.36,1.06,1.06,0,0,0,.51-1.48,5.56,5.56,0,0,0-3.11-2.55c-.22-.09-.43-.19-.63-.29-6.09-3-12.36-5.92-18.42-8.73l-4.62-2.15c-29.4-13.68-59.87-25.67-91.1-37.76-39.23-15.18-71.42-26.78-101.31-36.5-22.37-7.28-45.27-14.13-67.42-20.76l-9.08-2.72c-20-6-39.55-12.59-58.15-19.61-7.56-2.86-15.19-5.94-22.56-8.93Q440.1,385.3,433.65,382.72Z"/><path class="cls-2" d="M468.72,368.6l-.77-.35a5.76,5.76,0,0,0-4.12-.7,1.08,1.08,0,0,0-.81,1.16,3.45,3.45,0,0,0,2.93,3.07l.39.12c9.06,3.1,18.08,6.82,26.8,10.41,3.56,1.46,7.12,2.93,10.7,4.36,14.27,5.71,29.24,10.9,45.77,15.88q11.7,3.51,23.4,7c25.57,7.59,52,15.45,77.7,24.14,23.25,7.86,46,16.34,68,24.54C746,468.34,774,479.52,804.5,492.4c14.72,6.21,32,13.7,48.56,22.14l.47.26a4.77,4.77,0,0,0,2.44.82,3.74,3.74,0,0,0,1.54-.35,1.14,1.14,0,0,0,.58-.64,1.09,1.09,0,0,0-.07-.85,5.63,5.63,0,0,0-3.11-2.55c-.22-.09-.43-.18-.63-.28-6.1-3-12.37-5.94-18.43-8.75l-4.61-2.14c-29.4-13.68-59.87-25.66-91.1-37.75-39.23-15.19-71.42-26.79-101.31-36.51-22.37-7.27-45.27-14.13-67.42-20.76l-9.08-2.72c-20-6-39.55-12.59-58.15-19.61-7.57-2.85-15.19-5.94-22.57-8.93C477.32,372,473,370.3,468.72,368.6Z"/><path class="cls-2" d="M503.79,353.38c-.26-.1-.52-.22-.78-.34a5.67,5.67,0,0,0-4.11-.7,1.07,1.07,0,0,0-.81,1.16,3.44,3.44,0,0,0,2.93,3.06l.39.13c9.06,3.1,18.08,6.81,26.8,10.4q5.34,2.21,10.7,4.36c14.27,5.72,29.24,10.91,45.77,15.88q11.7,3.53,23.42,7c25.56,7.59,52,15.44,77.68,24.13,23.25,7.87,46,16.35,68,24.54,27.2,10.13,55.25,21.32,85.75,34.2,14.71,6.21,32,13.7,48.56,22.13.16.08.31.17.47.27a4.77,4.77,0,0,0,2.44.82,3.61,3.61,0,0,0,1.54-.36,1.06,1.06,0,0,0,.51-1.48A5.56,5.56,0,0,0,890,496c-.22-.09-.43-.19-.63-.29-6.1-3-12.37-5.93-18.43-8.74l-4.61-2.14c-29.39-13.68-59.86-25.67-91.1-37.76-39.23-15.18-71.42-26.78-101.31-36.5-22.37-7.27-45.26-14.13-67.4-20.75l-9.1-2.73c-20-6-39.55-12.59-58.15-19.61-7.57-2.86-15.2-5.95-22.58-8.94Q510.24,356,503.79,353.38Z"/><path class="cls-2" d="M536.47,342.56c9.07,3.1,18.09,6.82,26.81,10.4,3.56,1.47,7.12,2.94,10.7,4.37,14.27,5.71,29.24,10.9,45.77,15.88q11.68,3.51,23.4,7c25.57,7.59,52,15.45,77.7,24.14,23.25,7.86,46,16.34,68,24.54,27.21,10.13,55.26,21.31,85.75,34.19,14.71,6.21,32,13.7,48.56,22.14l.47.26a4.77,4.77,0,0,0,2.44.82,3.74,3.74,0,0,0,1.54-.35,1.09,1.09,0,0,0,.57-.64,1.05,1.05,0,0,0-.06-.85,5.68,5.68,0,0,0-3.11-2.55c-.22-.09-.43-.18-.63-.28-6.1-3-12.37-5.93-18.43-8.75l-4.61-2.14C872,457,841.52,445.06,810.28,433c-39.23-15.19-71.42-26.79-101.31-36.51-22.37-7.27-45.27-14.13-67.42-20.76L632.47,373c-20-6-39.55-12.59-58.15-19.61-7.57-2.85-15.19-5.94-22.57-8.93-4.29-1.74-8.58-3.48-12.89-5.18l-.77-.35a5.76,5.76,0,0,0-4.12-.7,1.08,1.08,0,0,0-.81,1.16,3.45,3.45,0,0,0,2.93,3.07Z"/><path class="cls-2" d="M153.39,500.08c-.26-.1-.51-.22-.77-.35a5.75,5.75,0,0,0-4.12-.69,1.07,1.07,0,0,0-.81,1.16,3.44,3.44,0,0,0,2.94,3.06l.38.13c9.07,3.1,18.09,6.81,26.81,10.4q5.34,2.21,10.69,4.36c14.27,5.72,29.24,10.91,45.77,15.88q11.68,3.53,23.4,7c25.57,7.6,52,15.45,77.7,24.14,23.25,7.87,46,16.35,68,24.54,27.2,10.13,55.25,21.32,85.75,34.19,14.72,6.22,32,13.71,48.56,22.14.16.08.31.17.47.27a4.77,4.77,0,0,0,2.44.82,3.61,3.61,0,0,0,1.54-.36,1.09,1.09,0,0,0,.58-.63,1.12,1.12,0,0,0-.07-.86,5.61,5.61,0,0,0-3.11-2.54c-.22-.09-.43-.19-.63-.29-6.11-3-12.39-5.94-18.46-8.75l-4.58-2.13c-29.4-13.69-59.87-25.67-91.1-37.76-39.23-15.18-71.42-26.78-101.31-36.5-22.37-7.28-45.27-14.13-67.42-20.76L247,533.81c-20-6-39.55-12.59-58.15-19.61-7.56-2.86-15.19-5.94-22.56-8.93Q159.84,502.66,153.39,500.08Z"/><path class="cls-2" d="M589.16,712.51a2.72,2.72,0,0,0-2.72,2.72v4L521.4,760,101.23,607.83l-2.77-8.33L519.38,751a2.58,2.58,0,0,0,.92.16,2.72,2.72,0,0,0,2.72-2.72v-23.9a2.72,2.72,0,0,0-5.44,0v20L91.53,591.23v-57a2.72,2.72,0,0,0-5.44,0v58.87a2.72,2.72,0,0,0,1.8,2.55L94.22,598a2.67,2.67,0,0,0-1,3l3.26,9.76a2.71,2.71,0,0,0,1.65,1.72l422.64,153.1a2.61,2.61,0,0,0,.91.16,2.79,2.79,0,0,0,1.43-.4L590.63,723a2.74,2.74,0,0,0,1.25-2.29v-5.47A2.72,2.72,0,0,0,589.16,712.51Z"/><path class="cls-2" d="M590.25,667a2.72,2.72,0,0,0-2.72,2.72v10.43a2.72,2.72,0,1,0,5.43,0V669.7A2.71,2.71,0,0,0,590.25,667Z"/><path class="cls-2" d="M601,678.57V658.1a1.63,1.63,0,0,0-3.26,0v20.47a1.63,1.63,0,0,0,3.26,0Z"/><path class="cls-2" d="M569.25,674.51a1.63,1.63,0,0,0-2.13-.89l-28.67,11.74a1.63,1.63,0,0,0-.89,2.12,1.64,1.64,0,0,0,1.51,1,1.5,1.5,0,0,0,.62-.13l28.67-11.74A1.63,1.63,0,0,0,569.25,674.51Z"/><path class="cls-2" d="M707.44,620.52a1.63,1.63,0,0,0-2.14-.86l-98.31,42a1.63,1.63,0,0,0,1.29,3l98.3-42A1.63,1.63,0,0,0,707.44,620.52Z"/><path class="cls-2" d="M924.75,528a1.64,1.64,0,0,0-2.14-.86l-201.9,86.15a1.63,1.63,0,0,0,.64,3.13,1.59,1.59,0,0,0,.64-.13l201.9-86.15A1.63,1.63,0,0,0,924.75,528Z"/><path class="cls-2" d="M1011.19,488.64a1.62,1.62,0,0,0-2.16-.81l-39.55,17.85a1.63,1.63,0,0,0,1.34,3l39.55-17.85A1.64,1.64,0,0,0,1011.19,488.64Z"/></g></g></svg>