<svg xmlns="http://www.w3.org/2000/svg" viewBox="0 0 1080 1080"><defs><style>.cls-1{fill:#f6f6f6;}.cls-2{fill:#c3c3c3;}</style></defs><g id="Capa_2" data-name="Capa 2"><g id="background"><rect class="cls-1" width="1" height="1"/><rect class="cls-1" x="1079" width="1" height="1"/><rect class="cls-1" width="1" height="1"/><rect class="cls-1" x="1079" width="1" height="1"/><rect class="cls-1" x="1079" y="1079" width="1" height="1"/><rect class="cls-1" x="1079" y="1079" width="1" height="1"/><rect class="cls-1" y="1079" width="1" height="1"/><rect class="cls-1" y="1079" width="1" height="1"/><rect class="cls-1" x="1079" y="1079" width="1" height="1"/><rect class="cls-1" x="1079" y="1079" width="1" height="1"/></g><g id="Capa_1-2" data-name="Capa 1"><path class="cls-2" d="M864.37,509.84C858.58,403,822,324.71,772.29,281.75c-53.92-45.92-154.48-64-232.16-63.4-77.8-.61-178.37,17.48-232.28,63.4-49.73,43-86.17,121.25-92.08,228.09-5.29,100.45,16.37,210,73.61,271.92,55,60.81,165,79.89,250.14,79.89,85.18.5,195.23-19.08,250.25-79.89C846.89,719.23,869.17,609.8,864.37,509.84ZM521.54,245.31c10.59-.49,13.3-.49,18-.49s6.89,0,18,.49l.61,233.76H521.05S521.05,245.31,521.54,245.31ZM258.61,608.2c-3.08-40.25-15.27-186.74,42.84-270.32,24.86-36.56,61.42-60.81,98.47-73.49,51.34-18.1,112.64-19.08,112.64-19.08C488.8,304,439.56,430,430.08,457.9c-11.69,34.46-21.66,54-31.76,116C391.92,624.57,380.84,751,377.64,806,309,773.27,267.6,710.86,258.61,608.2ZM539,834.57c-48.13-.49-107.34-5.29-154.48-25.35C400.42,766.87,476.12,584.93,517.85,514h42.84C601.93,584.93,678.12,766.87,694,809.22,646.36,829.9,587.65,834.08,539,834.57ZM819.93,607.71c-9,103.15-50.22,165.07-119,198.3-3.21-55-14.28-181.44-20.56-232.16-10.1-62.41-20.19-81.49-31.76-115.83C639,430,589.86,304,566,245.31c0,0,61.43,1,112.76,19.08,36.93,12.68,73.49,37.54,98.35,73.49C835.32,421.46,823.13,568,819.93,607.71Z"/></g></g></svg>