<svg xmlns="http://www.w3.org/2000/svg" viewBox="0 0 1080 1080"><defs><style>.cls-1{fill:#f6f6f6;}.cls-2{fill:#c3c3c3;}</style></defs><g id="background"><rect class="cls-1" width="1" height="1"/><rect class="cls-1" y="1079" width="1" height="1"/><rect class="cls-1" x="1079" width="1" height="1"/><rect class="cls-1" x="1079" y="1079" width="1" height="1"/></g><g id="Capa_1" data-name="Capa 1"><path class="cls-2" d="M540,865C360.4,864.74,217.78,720.72,215,545c-2.78-178.79,139.7-328.25,321.06-330C718.23,213.24,864.49,357.6,865,539.38,865.51,719.78,720.05,864.8,540,865Zm.15-97.62c125.81.16,227.14-101,227.59-227.31.45-125.31-101.81-227.7-227.34-227.64S312.66,414.64,312.73,540,414.68,767.22,540.1,767.38ZM724.17,339.25c.12-2.52.12-4.29.32-6,1-8.52,2-17,2.9-25.54.16-1.57.26-3.75-.62-4.69-3.85-4.11-8.07-7.87-11.16-10.81-13.25,12.75-26,25-39.07,37.63l11,10.19,24.84-23.73.79.67C711.63,330,710,343,708.38,356.64l38.16-8.76c.16.3.32.6.49.9l-20.36,27.81,10.81,9.91,32.78-43.32c-2.83-2.7-5.33-4.85-7.55-7.27-3-3.19-6.17-4.11-10.51-3C743.19,335.22,734.06,337.05,724.17,339.25ZM524.6,277.82c3.65,0,6.55.37,9.32-.07,10.35-1.66,18.08,1.4,22.59,11.37.64,1.43,2.48,3.13,3.9,3.26,4.53.42,9.13.16,14.71.16l-5.88-8L563.69,277c.53-.6.77-1,1.13-1.23,9.24-4.7,10.81-15.44,8.23-23.91s-8.91-13-19.28-13c-13.84-.13-27.67-.13-41.5-.16-1.17,0-2.33.17-3.67.28.32,4.62.8,8.93.88,13.26.22,12.18.21,24.36.5,36.54,0,1.39,1.29,3.85,2.18,3.94a115.26,115.26,0,0,0,12.44.19ZM629,253.43c-1.52.15-4.08.25-6.59.67-20.48,3.42-29.08,24.11-17.13,41.1,9.82,14,31,21.43,47.35,16.73,18-5.18,25-25.46,13.54-40.35C657.09,259.86,645,253.52,629,253.43ZM787.57,433.5l9.9-5.4c-4.79-9.33-9.41-18.35-14.14-27.58l8-4.37,20.76,39.63,10-5.49c-9.56-18.35-18.92-36.35-27.68-53.17L747.73,403l28.46,54.65,9.95-5.5-21.46-41.45,8.44-4.64c2.45,4.68,4.73,9,7,13.38C782.52,423.94,784.91,428.45,787.57,433.5Zm53.12,76.61c-.13-13.14-3.81-24.71-9.93-32.47C819,462.73,799,463.5,789,479.26c-10.2,16-4.95,45.4,10.16,56.82a24.24,24.24,0,0,0,33.62-3.72C838.54,525.6,840.41,517.52,840.69,510.11ZM382.49,344.78A57.73,57.73,0,0,1,388,342c5.7-2.16,8.27-5.93,7.48-12.24-.19-1.5,1.45-3.92,2.92-4.84,7-4.39,14.26-8.37,21.38-12.57,4.1-2.42,7.87-2.3,11.73.64,1.13.87,3.27,1.55,4.4,1.06,3.63-1.6,7-3.79,10.45-5.73-.39-.78-.45-1.14-.66-1.28-15.64-10.15-31.28-20.33-47-30.35a5.46,5.46,0,0,0-4.56-.35c-5,2.55-9.89,5.5-14.12,7.91C383.94,304.58,381.09,324.47,382.49,344.78ZM240.28,504.59c4,2.21,7.27,3.59,10,5.68C262,519,273.47,528,285,536.86c1.23.94,2.58,1.71,4.19,2.76.55-2.59.93-4.48,1.35-6.37,1.45-6.46.61-8-4.63-12.26a7.86,7.86,0,0,1-2.29-6c.81-7.91,2.25-15.76,3.31-23.65.65-4.87,3-8,7.9-9.18,1.29-.31,3.17-1.31,3.43-2.33,1-4,1.4-8.06,2-12.11-1.19-.13-1.52-.27-1.78-.18-17.66,5.89-35.34,11.77-53,17.81a5,5,0,0,0-2.65,3.2C241.83,494.11,241.05,499.76,240.28,504.59Zm81.17-153.5,29.72-32.43-8.31-7.9-40.49,44,39.14,36.63,9.69-10.55-12-12.48,20.61-22.55L351.5,338l-21.11,22.61Zm-.52,47.25c-6.25,12.3-12.33,24.26-18.51,36.4l-37.63-19.58L258,428.88l48.17,24.46c8.39-16.69,16.61-33,25-49.76Z"/><path class="cls-2" d="M450,565.72h60.66c-5.34-18.36-4-35.68,4.23-53.1H449.71v-5.39q0-78.57-.09-157.15c0-4.51,1.6-6.71,5.7-8.35,28.38-11.36,57.67-18,88.38-17.51,31.34.47,61,8.1,89.3,21.3,3.13,1.46,6.27,2.93,9.31,4.57,7.11,3.82,10.3,10.38,8.7,17.59-1.55,6.93-7.62,11.89-15.51,12.12q-12.63.36-25.28,0c-9.44-.24-16.61,3.18-21.24,11.64-2.74,5-7.28,6.86-12.83,6.86-12.94,0-25.88.07-38.82.11h-4.81l-.94,1.34c3.65,4.41,7.42,8.73,10.94,13.25,6.41,8.26,14.47,11.54,25.1,10.74,11.52-.87,23.16-.21,34.75-.18,1.64,0,3.69-.35,4.84.47,1.59,1.13,3.37,3.18,3.43,4.89,0,1.41-2.06,3.32-3.65,4.23-1.28.73-3.23.38-4.88.38-14.45,0-28.9-.27-43.33.19a22.53,22.53,0,0,0-11.52,3.95c-8.43,5.88-14.34,15.36-15.25,23,1.76.08,3.49.24,5.22.24q41.76,0,83.52,0a41.12,41.12,0,0,1,9,.79c5.4,1.25,8.31,5.45,8.12,10.93a10.71,10.71,0,0,1-8.66,10.2,49.78,49.78,0,0,1-9,.58c-14,.05-28,0-42,0-33.14.15-59.06,25.4-60.45,58.83C516.43,573.91,541,601.92,573.28,604c20.09,1.27,40.31.47,60.47.62,1.8,0,3.86-.42,5.34.3s3.69,2.66,3.73,4.1-1.94,3.44-3.52,4.28c-1.43.76-3.52.34-5.32.34-18.66,0-37.32-.15-56,0-25.29.26-43.91,17.64-45.45,42.1C531,679.7,549.88,701,573.91,702.2c8.26.41,16.55.24,24.83.3,11.66.08,21,7.54,22.61,18.06,1.7,11.16-4.9,21.54-16.15,25q-76.85,23.41-150.9-7.81c-3.17-1.34-4.66-3.12-4.65-6.74q.14-80.61.07-161.21C449.72,568.6,449.88,567.43,450,565.72Zm60.86-143.9c-4.48-2.08-7.75-3.93-11.25-5.14-5.47-1.9-10.48-.46-14.5,3.58-3.29,3.3-3.64,7.53-2.19,11.78,1.85,5.41,6.42,7.91,11.54,7.83,3.61-.05,7.19-2.33,10.78-3.62l4.86-1.77c.41,1.67,1.35,3.41,1.12,5-1,7.27-2.2,14.55-3.82,21.71-.36,1.59-2.53,3.39-4.23,3.94-4.64,1.47-7,4.63-8.59,8.89,8.08,2.87,14.48,1.56,19.5-4.23a32.65,32.65,0,0,0,5.43-8.25c5.39-12.7,11.49-24.84,23.15-33-.46-.82-.58-1.33-.91-1.58-10.51-8.08-16.49-19.2-21.62-31.11A36.83,36.83,0,0,0,511.47,384c-4.78-4.47-10.78-4.5-18.08-1.73,2.85,3,4.78,6.73,7.51,7.46,5.66,1.5,7.34,5,8,10,.51,4.18,1.49,8.3,1.93,12.48C511.11,415.06,510.86,418,510.86,421.82Zm47.64-52.51v0q12.62,0,25.23,0c3,0,5.71-.55,5.65-4.2s-3-4-5.84-4H534c-3,0-6.15.21-6.08,4.2s3.33,4,6.26,4Zm-24.61-27.49a5.82,5.82,0,0,0-6.09,5.87,5.91,5.91,0,0,0,5.81,6.15,6.08,6.08,0,0,0,6.35-6.12A6,6,0,0,0,533.89,341.82Zm55.63,6a6.1,6.1,0,0,0-12.19-.23,6.11,6.11,0,0,0,6.22,6.24A6,6,0,0,0,589.52,347.81Zm-30.56-6a5.85,5.85,0,0,0-6.13,5.81,6.07,6.07,0,1,0,12.14.12A5.84,5.84,0,0,0,559,341.83Z"/><path class="cls-2" d="M702,399.13C716.57,413,726,430.34,734.8,448c19,38.19,24.7,78.69,19.13,120.76C748.2,612,730.57,650,701.69,682.7c-17.66,20-38.24,36.27-61.78,47.84,2.83-5.76,6.73-11.31,8.37-17.47,6.17-23.2-10-44.49-34.39-45.57-11.71-.51-23.46-.15-35.2-.19-1.2,0-2.69.41-3.55-.14-1.68-1.08-3.84-2.49-4.29-4.17-.76-2.83,1.53-4.4,4.22-4.63s5.71-.12,8.57-.13c18.81,0,37.61-.29,56.41-.11,29.88.3,51.83-23.62,54.28-48.65,2.84-29-15.2-54.12-43.33-60-6.54-1.37-13.44-1.34-20.19-1.42-16.4-.19-32.8-.06-49.19-.06-1.06,0-2.11,0-3.16,0-3.12.07-5.5-1-5.53-4.45s2.42-4.57,5.47-4.58c11.88-.06,23.77.17,35.64-.19,10.2-.32,20.62-.11,30.51-2.19,58.09-12.21,88.55-77.65,61.13-130.45C704.46,403.8,703.21,401.47,702,399.13Z"/><path class="cls-2" d="M395.78,566.2V699.91c-39.22-36.83-62.36-80.85-69.48-133.71Z"/><path class="cls-2" d="M396,379.79c.13,2.6.27,4,.27,5.46,0,40.6-.06,81.19.1,121.79,0,4.17-1.1,5.35-5.26,5.31-20-.2-40-.08-60-.09-1.33,0-2.66-.13-4.6-.23C333.9,459.83,357,416.35,396,379.79Z"/><path class="cls-2" d="M524.19,266.12c0-4.82-.17-9.15.14-13.44.06-.88,1.86-2.3,2.89-2.33,8.27-.2,16.54-.28,24.8-.08,4.84.12,7.79,3.55,7.74,8.22s-2.76,7.48-7.71,7.58C542.93,266.25,533.81,266.12,524.19,266.12Z"/><path class="cls-2" d="M639,300.63a29.94,29.94,0,0,1-19.88-8.91c-4.52-4.56-5.82-10.07-3.47-16.15s7.12-9.08,13.54-9.42a30.19,30.19,0,0,1,20.55,6.56c6.26,4.82,8.53,11.33,6.34,17.78S648.11,300.57,639,300.63Z"/><path class="cls-2" d="M795.68,501.28c.15-1.17.28-2.66.52-4.14,1.44-9,5.5-13.67,12.72-14.8,6.71-1.06,12.46,2.39,16.29,10.16,3.56,7.22,4.8,14.74,2.08,22.63-2,5.7-5.54,9.61-11.6,10.66s-10.49-1.4-14-6.14A30.52,30.52,0,0,1,795.68,501.28Z"/><path class="cls-2" d="M394.92,313.36v-23.7l19.42,12.59Z"/><path class="cls-2" d="M272.44,511c-6.61-5-12.5-9.42-19.3-14.56l22.66-7.59C274.65,496.38,273.62,503.17,272.44,511Z"/></g></svg>