<svg xmlns="http://www.w3.org/2000/svg" viewBox="0 0 1080 1080"><defs><style>.cls-1{fill:#f6f6f6;}.cls-2{fill:#c3c3c3;fill-rule:evenodd;}</style></defs><g id="background"><rect class="cls-1" x="1079" y="1079" width="1" height="1"/><rect class="cls-1" width="1" height="1"/><rect class="cls-1" x="1079" y="1079" width="1" height="1"/><rect class="cls-1" x="1079" width="1" height="1"/><rect class="cls-1" y="1079" width="1" height="1"/><rect class="cls-1" y="1079" width="1" height="1"/></g><g id="Capa_1" data-name="Capa 1"><path class="cls-2" d="M806.65,396.65a142.72,142.72,0,0,0-88.88,30.88,143.36,143.36,0,0,0-177.77,0,143.36,143.36,0,0,0-177.77,0,143.35,143.35,0,1,0,0,224.94,143.36,143.36,0,0,0,177.77,0,143.36,143.36,0,0,0,177.77,0,143.35,143.35,0,1,0,88.88-255.82ZM338.78,629.05a110.51,110.51,0,1,1,0-178.1,143.37,143.37,0,0,0,0,178.1Zm23.45-23.39a110.51,110.51,0,0,1,0-131.32,110.47,110.47,0,0,1,0,131.32Zm154.32,23.39a110.6,110.6,0,0,1-130.86,0,143.37,143.37,0,0,0,0-178.1,110.6,110.6,0,0,1,130.86,0,143.37,143.37,0,0,0,0,178.1ZM540,605.66a110.47,110.47,0,0,1,0-131.32,110.47,110.47,0,0,1,0,131.32Zm154.31,23.39a110.6,110.6,0,0,1-130.86,0,143.37,143.37,0,0,0,0-178.1,110.6,110.6,0,0,1,130.86,0,143.37,143.37,0,0,0,0,178.1Zm23.46-23.39a110.47,110.47,0,0,1,0-131.32,110.51,110.51,0,0,1,0,131.32Zm88.88,44.85a111.27,111.27,0,0,1-65.43-21.46,143.37,143.37,0,0,0,0-178.1,110.51,110.51,0,1,1,65.43,199.56Z"/></g></svg>