<svg xmlns="http://www.w3.org/2000/svg" viewBox="0 0 1080 1080"><defs><style>.cls-1{fill:#f6f6f6;}.cls-2{fill:#c3c3c3;}</style></defs><g id="background"><rect class="cls-1" x="1079" y="1079" width="1" height="1"/><rect class="cls-1" width="1" height="1"/><rect class="cls-1" x="1079" y="1079" width="1" height="1"/><rect class="cls-1" x="1079" width="1" height="1"/><rect class="cls-1" y="1079" width="1" height="1"/><rect class="cls-1" y="1079" width="1" height="1"/></g><g id="Capa_1" data-name="Capa 1"><path class="cls-2" d="M532.58,276.6c79.8.53,148.53,16.18,211.84,52.51,44.26,25.4,82,58.22,107.28,103.11,45.36,80.67,40.15,159.64-12.55,235-34,48.65-81.34,81.1-135.46,104-43.64,18.49-89.27,28.46-136.58,31.27-73.35,4.34-143.6-7.73-209.84-39.95C304.14,736.76,259,701,229.06,649.24c-43.56-75.36-41.84-151,4-224.78,30.61-49.27,75.06-83.26,126.76-108.13A393.41,393.41,0,0,1,496.63,279C511,277.75,525.38,277.07,532.58,276.6Zm154,466.32c-7.45-4.77-13.49-8.85-19.73-12.6-37.36-22.45-61.08-55-71-97.29-11.16-47.69-20.66-95.75-26.31-144.43-4.82-41.53,8.07-76.83,41.39-102.77,19.76-15.38,41.2-28.59,61.88-42.79,3.29-2.26,6.56-4.56,11.16-7.77-96.68-36.34-191.37-36.59-287.7.35,3.15,2.19,4.86,3.42,6.6,4.59,19,12.8,38.14,25.42,57,38.4,41.64,28.63,57.4,68.7,49.75,117.84-6.1,39.2-13.68,78.18-21,117.19-4.41,23.61-11.38,46.39-24.07,67.11-14.45,23.6-35.38,40.1-58.61,54.17-3.78,2.29-7.43,4.8-12.44,8,46.34,19.86,93.33,28.83,141.84,29.36C587.23,772.89,637.43,764,686.57,742.92ZM631.51,481c1,5.2,1.56,10.54,3.08,15.58C640.3,515.43,646,534.36,652.36,553c5.55,16.21,10.72,32.78,18.42,48,29.12,57.61,91.69,65,134.42,42.32,4.47-2.37,9-6.17,11.49-10.47,22.53-39.07,30.58-81,22.43-125.51-4.22-23.05-10.55-45.77-25.78-64.21-26-31.42-54.37-43.47-93.2-31.07-22.62,7.22-44.42,17.56-65.67,28.32C638.85,448.32,632.2,463.24,631.51,481Zm-183.69,5.32c0-25.12-9.32-40.47-27.35-49-15.87-7.51-32-14.58-48.14-21.41-13-5.49-26.78-8.72-40.92-8.28-32,1-54.73,18.6-70.55,44.46-16.14,26.4-22.9,56.2-23.05,87.15a180.13,180.13,0,0,0,25.25,93.19,28.07,28.07,0,0,0,10.39,10.11c31.49,16.88,63.67,17.19,95.34,1.12,23.27-11.81,37.86-32.17,46.83-56,9.23-24.54,16.88-49.68,24.89-74.67C443.85,502.5,446.33,491.77,447.82,486.28Z"/></g></svg>