<svg xmlns="http://www.w3.org/2000/svg" viewBox="0 0 1080 1080"><defs><style>.cls-1{fill:#f6f6f6;}.cls-2,.cls-3{fill:#c3c3c3;}.cls-2{fill-rule:evenodd;}</style></defs><g id="Capa_2" data-name="Capa 2"><g id="background"><rect class="cls-1" x="1079" width="1" height="1"/><rect class="cls-1" width="1" height="1"/><rect class="cls-1" width="1" height="1"/><rect class="cls-1" x="1079" width="1" height="1"/><rect class="cls-1" x="1079" y="1079" width="1" height="1"/><rect class="cls-1" x="1079" y="1079" width="1" height="1"/><rect class="cls-1" y="1079" width="1" height="1"/><rect class="cls-1" y="1079" width="1" height="1"/><rect class="cls-1" x="1079" y="1079" width="1" height="1"/><rect class="cls-1" x="1079" y="1079" width="1" height="1"/><path class="cls-2" d="M227,690.74c7.7.48,11.21,4.39,11.21,10.15,0,5.08-2.78,9.75-10,10.15s-24.13.43-31.68,0q-.42-10,0-20.3c8.53-.29,23.29-.44,30.43,0m1.35,35.78c10.65.32,16,4.83,16,11.78,0,7.24-4.72,11.07-15.55,11.59-10,.47-21.32.47-32.1,0a222.16,222.16,0,0,1,0-23.37c10.36-.27,22.31-.27,31.69,0M179.06,765q.9-43.87,0-88.79c15.07.39,32.32.39,48.17,0,18.18,0,27.64,11.06,27.64,22.19,0,8.21-3.86,15.73-9.8,19.13,10.2,3,16.07,11.89,16.07,22.39,0,17-12.34,25.08-27.74,25.08Z"/><path class="cls-2" d="M677.77,749.48q-.3,7.65,0,15.49-36.64-.65-73.29,0,.76-44.4,0-88.79c5.65.2,11.28.2,16.92,0q-.74,36.65,0,73.3,28.17.54,56.38,0"/><path class="cls-2" d="M406.35,676.14q24.93,29.75,51.58,59.51.65-29.73,0-59.45,7.47.33,15.14,0-.66,43.88,0,88.78-6.46-.29-12.92,0-26-31.11-54.19-62.93-.57,31.47,0,62.91-7.29-.29-15.13,0,.57-44.37,0-88.77,7.77.28,15.54-.07"/><path class="cls-2" d="M363.16,691.67q-28.91-.66-58.48,0a153,153,0,0,0,0,20.09q19.79.57,40,0c-.2,5.14-.2,10.31,0,15.46q-19.77-.6-40,0a211.52,211.52,0,0,0,0,22.24q29.74.6,59.48,0-.29,7.77,0,15.49-38.18-.63-76.37,0,.69-44.37,0-88.77,38.13.63,75.37,0c-.21,5.17-.21,10.32,0,15.49"/><path class="cls-2" d="M842.91,764.93q.63-18.84,0-38.16-19.56-25.28-40.81-50.57,10.41.31,20.83,0,13.4,17.2,28.42,34.38,15-17.18,28.42-34.38,10.41.31,20.82,0-21.15,25.29-40.81,50.57-.63,19.08,0,38.16-8.43-.28-16.87,0"/><path class="cls-2" d="M777.12,691.67q-28.9-.66-58.47,0a156.6,156.6,0,0,0,0,20.09q19.79.57,40,0c-.21,5.14-.21,10.31,0,15.46q-19.75-.6-40,0a211.52,211.52,0,0,0,0,22.24q29.73.6,59.48,0-.3,7.77,0,15.49-38.19-.63-76.39,0,.69-44.37,0-88.77,38.13.63,75.38,0c-.2,5.17-.2,10.32,0,15.49"/><path class="cls-2" d="M531.66,765q.63-36.19,0-73.28-15.79-.69-31.95,0,.29-7.67,0-15.49,40.38.66,80.8,0-.3,7.65,0,15.49-16-.61-32,0-.63,36.65,0,73.28c-5.56-.19-11.2-.19-16.89,0"/><path class="cls-3" d="M919.43,411.59c-.49,3.55-.79,7.06-1.48,10.48-1,5.07-3.86,8.56-9.32,9.34-6.77,1-13.53,1.95-20.76,3-.35,1.13-.85,2.73-1.33,4.33a33.56,33.56,0,0,1-7.79,13.12c-2.76,3-6.2,3.55-9.89,3.45-7.45-.2-14.89-.49-22.45-.75-.7,2.7-1.34,5.63-2.22,8.48-1.47,4.8-4.48,7.74-9.82,7.81-8.57.11-17.13.48-25.69.39-3,0-4.24.73-5.17,3.72a48.52,48.52,0,0,1-5.21,10.38c-.59,1-2.29,1.65-3.57,1.81-10.24,1.34-20.24-.22-30.13-2.9-.9,1.76-1.69,3.61-2.74,5.31-3.68,6-7.38,7.73-14.19,6.31-5.91-1.23-11.76-2.73-17.58-4.28-1.71-.45-2.9-.57-3.56,1.34a3.45,3.45,0,0,1-.48.76c-4.46,6.85-8.52,8.48-16.38,6.47-2.63-.68-5.19-1.57-8-2.41a5.39,5.39,0,0,0-.73,1.16c-8.06,23.69-22.85,42.58-41.71,58.58A166.44,166.44,0,0,1,615.54,584a8.48,8.48,0,0,0-5.14,5c-.91,2.33-2.27,4.49-3.26,6.8s-2.45,3.1-5,2c-3.58-1.56-7.3-2.82-11.24-4.31-1.87,2.84-3.83,5.61-5.58,8.52-1.38,2.31-3,2.68-5.26,1.36-3.29-1.91-6.66-3.68-10.11-5.58-2.48,3-5,5.91-7.31,8.91-1.29,1.65-2.53,1.67-4.1.48-3.12-2.39-6.29-4.71-9.66-7.22-2.8,2.72-5.62,5.3-8.24,8.06-1.53,1.61-2.75,1.67-4.32.15-2.74-2.66-5.57-5.23-8.41-7.87-3.16,2.32-6.29,4.52-9.3,6.87-1.71,1.34-3,1.25-4.32-.49-1.85-2.38-3.93-4.6-5.77-7-1.05-1.37-2-1.67-3.52-.73-2.75,1.67-5.67,3.06-8.42,4.72-2,1.19-3.25.91-4.49-1.06-1.91-3.06-4-6-6.19-9.18-3.79,1.45-7.55,2.83-11.25,4.35-2.34,1-3.88.49-4.71-2-2.52-7.49-7.77-11.53-15.11-14.68a148.34,148.34,0,0,1-64.94-53.44c-7.39-10.78-12.24-22.83-16.42-35.41-4.5,1.14-8.94,2.28-13.38,3.39a24.69,24.69,0,0,1-3.54.79c-9.65,1-11.16.45-16.18-7.13-.6-.92-1.15-1.87-1.61-2.62-7.49,1.37-14.78,2.75-22.09,4-10.75,1.88-14.36-.24-19.73-11.23-.83-1.69-1.59-2.31-3.5-2.31-8.36,0-16.73-.53-25.09-.35-7.87.18-12.07-3.92-14.43-10.79-.49-1.42-1-2.84-1.26-3.72-10.76-1.48-21.21-3-31.69-4.33a11.51,11.51,0,0,1-8.5-5.06c-2.48-3.55-4.83-7.19-7.41-10.66a5.2,5.2,0,0,0-3-1.84c-7.53-1.3-15.08-2.45-22.64-3.62-3.31-.51-5.17-2.54-5.94-5.64-1-3.9-1.91-7.82-2.72-11.75a3.32,3.32,0,0,0-2.81-2.94c-6.69-1.81-13.32-3.86-20-5.83-3.29-1-5-3.08-4.94-6.65,0-1.29-.61-2.64-.42-3.89.88-5.79-2-8.48-7.17-10.32-5.38-1.92-10.41-4.79-15.67-7.08-2.06-.9-2.68-2.14-2.21-4.26.84-3.73,1.45-7.51,2.35-11.22.49-2,0-3-1.93-3.94-6.35-3.05-12.57-6.35-18.84-9.57-4.75-2.45-5.46-6.06-2-10,3.12-3.56,6.33-7.06,9.31-10.74a7,7,0,0,1,6.6-2.71c10.74.95,21.47,2.26,32.22,2.58,14.3.42,28.64.3,42.94,0,18.24-.45,36.46-1.4,54.69-2.05,30.26-1.08,60.44,1,90.62,2.5,20.28,1,40.49-.32,60.73-1.05a339.78,339.78,0,0,1,55.23,2.24,4.63,4.63,0,0,1,1.19.19c6.67,3,12.76,1.24,19.3-1.26,20.85-8,42.61-11.72,64.94-12.35A187.65,187.65,0,0,1,609.09,334c4,1.57,7.83,4.56,11.91,4.9s8.3-2,12.51-2.86c17.73-3.82,35.57-5.4,53.73-3.52,14.12,1.46,28.32,2.88,42.49,2.94,16.7.08,33.41-1.34,50.12-2.07,14.4-.63,28.81-1.84,43.19-1.63,19.23.27,38.46,1.48,57.67,2.61a353.47,353.47,0,0,0,54.35-.83c10.74-1,21.49-1.76,32.23-2.73a7.52,7.52,0,0,1,6.92,2.72c2.89,3.36,6,6.5,8.86,9.91,3.17,3.85,2.43,7-2.18,9.36-4.11,2.12-8.33,4-12.52,6-1.91.88-3.88,1.65-5.88,2.5,1.18,3.68,2.51,7.22,3.44,10.86,1.46,5.69,1.07,6.74-4.3,9-4.89,2.08-10,3.71-15.06,5.3-1.57.49-2.22,1.09-2,2.68a13.68,13.68,0,0,1,0,1.81c.11,12.45-3.46,16.85-15.68,19.2C925.87,410.71,922.77,411.08,919.43,411.59Zm-266.55-6.22c.49,1.6.6,3.49,1.55,4.74,1.75,2.29,4.07,4.14,6,6.33.51.59.39,1.74.57,2.65,3.86-.64,5.46-4.3,2.69-7.1-3.51-3.55-7.41-6.71-11.43-10.3.08.94.12,1.43.17,1.92-4.12-6.91-8.37-13.74-12.32-20.74-3.3-5.85-1.64-13.89,3.58-18.41-2.46-1.45-1.39-3,.13-4.15a18.27,18.27,0,0,1,5.67-3.33c5.89-1.66,11.84-3.8,17.85-4.16,13.17-.78,26.4-.52,39.59-.8,9.27-.2,18.63.15,27.77-1.08,14.55-2,28.89-5.46,43.43-7.53,15.34-2.18,30.78-4.22,46.24-4.9,17.2-.76,34.46.05,51.7.25,3.85,0,7.7.37,11.56.57,0,.41.08.82.13,1.23a17.36,17.36,0,0,1-3.22.6c-9.36,0-18.73-.38-28.09-.09-29.57.92-58.81,4.84-87.8,10.61-4.36.86-8.63,2.17-12.94,3.28l.06,1.17c3.41.35,6.82,1,10.23,1s7-.73,10.54-.82c15.92-.41,31.85-.8,47.77-1,23.39-.29,46.79-.4,70.18-.64,15.23-.15,30.45-.5,45.67-.56,11,0,22,0,31.93-5.84,2.16-1.27,4.26-.6,5.91,1.43,1.89-.88,5.09-1.78,3.49-4.09-3.08-4.46-7.1-8.31-11-12.16-.77-.77-2.7-.63-4.06-.51-11.44.95-22.88,2.06-34.33,3-22.64,1.83-45.29,1.44-68,.3-17.2-.86-34.43-1.89-51.63-1.69-23.16.27-46.31,1.9-69.48,2.46-12.77.32-25.57-.1-38.34-.65-9.15-.4-18.25-2-27.39-2.31a156.84,156.84,0,0,0-56.78,8.43c-5.26,1.79-10.07,4.43-13.08,8,1.05,2.14,1.87,3.6,2.49,5.14.77,1.94.9,4.32,2.13,5.84a39.19,39.19,0,0,0,8.16,7.91c6.68,4.45,12.5,9.46,15.67,17.08a29.41,29.41,0,0,0,3,4.9A33.46,33.46,0,0,1,644.27,405c.51,3.46,1.76,6.81,2.51,10.24s1.17,6.66,1.78,10c.16.82.46,1.62.69,2.42l.94.08c.87-4,2-8,2.53-12.05C653.16,412.26,652.85,408.8,652.88,405.37ZM98.1,346.56l.51.54c.47-.22,1.12-.32,1.39-.7,1.58-2.17,3.08-1.88,5.31-.64q9.38,5.19,19.11,9.72a20.47,20.47,0,0,0,7.82,1.9c20.87.54,41.73,1.09,62.6,1.24,29.46.22,58.92-.06,88.38.2,9.95.09,19.91,1.07,29.85,1.86,1.84.15,4.44-.24,5.1,2.7.07.3,1.62.65,1.73.49a20.21,20.21,0,0,0,2.6-4.92c.11-.36-1.87-1.7-3-2-5.82-1.61-11.81-2.67-17.52-4.58-22-7.38-44.66-10.31-67.8-10.41-15.73-.07-31.45-.44-47.18-.81-4.55-.11-9.08-.69-13.62-1.05,6.72-.8,13.33-1.79,20-1.91,20.76-.41,41.54-.67,62.31-.63,15.78,0,31.37,2,46.41,7.06a128.22,128.22,0,0,0,41.86,6.72c23.09-.07,46.17.22,69.18,2.55,8.32.84,16.32,2.39,23.3,7.41,9.29,6.67,11.54,14.42,6.72,24.7-2.09,4.46-4.66,8.69-7,13-2.5,4.55-4.39,9.25-4.38,14.59,0,2.56,0,5.26-2.11,7.33-.35.34-.05,1.34-.05,2.28,4.29-5.38,8.36-10.24,12.12-15.34a9.83,9.83,0,0,0,1.64-5.28c.13-4.71,1.07-9.22,4.34-12.58,5.45-5.62,11.38-10.78,17-16.23a93.23,93.23,0,0,0,8.72-9.18,11.32,11.32,0,0,0,1-13.31,12.7,12.7,0,0,1-1.25-2.73c-1.51-5.63-7-7-11-9.47-3.18-1.93-7.79-1.52-11.77-2.12-21.13-3.2-42.4-3.43-63.66-2.24-20.76,1.17-41.49,1.12-62.26.33-25.17-1-50.35-1.89-75.54-2.22a397,397,0,0,0-43.5,1.49c-19.47,1.89-38.88.91-58.31.66-10.67-.14-21.32-1.29-32-2.18-3.46-.29-5.93.55-8,3.45s-4.77,5.47-7.17,8.19C99.22,345.12,98.68,345.85,98.1,346.56Zm375-1.12a22.68,22.68,0,0,1,3.79,1c1.74.86,4,1.54,4.93,3,3.08,5,1.21,14.36-3.4,18-1.16.91-2.91,1.08-4.39,1.6l-.16-.52-23.36,20.69c2.36,3.39,3.33,3.55,6,1.64,11.4-8.3,23.63-15,37.2-19a160.78,160.78,0,0,1,84.18-2.56c17.44,4.09,33.72,10.93,47.56,22.63,4.88,4.13,9.17,8.79,10.4,15.49.22,1.19,1.29,2.23,2,3.33,1.8-9.56-1.29-17.47-7.79-23.78-5.18-5-11.13-9.26-16.64-14a42.86,42.86,0,0,1-6.88-6.71c-4.58-6.17-4.32-11.53.3-17.67.41-.55.76-1.13,1.15-1.71C571.91,327.92,510.41,328.26,473.05,345.44ZM646.65,497c-14,21.94-34.5,35.15-58.25,44.07.43.61.51.83.67.91a2.66,2.66,0,0,0,1.12.4c4.06.06,6.28,2.51,8.08,5.82,2.94,5.4,6.17,10.64,9.12,16,1.36,2.48,3,3,5.44,1.75,1.62-.82,3.38-1.36,5-2.23,10-5.49,19.86-11.08,29.82-16.55,3-1.64,6.58-2.46,9.09-4.6,12.42-10.57,21.23-23.85,27.73-38.73.87-2,.41-3.36-1.63-4.07-4.53-1.57-9.09-3.07-13.73-4.63-.26.54-.49,1-.69,1.42-2.75,6-5.18,7.1-11.49,5a37.93,37.93,0,0,1-4.18-1.73C650.72,499,648.75,498,646.65,497ZM471,573.62c.56-.88,1.15-1.75,1.68-2.65,5-8.4,9.93-16.81,14.93-25.2,2.63-4.42,2.37-5.26-2.41-7.26l-1.4-.57c-20.17-8.27-37.54-20.21-50.16-38.36-4.14-5.95-4.1-5.87-10.46-2.64-4.91,2.5-9.45,2.7-11.89-2.94-.74-1.73-2.08-2.17-4-1.53-4.38,1.5-8.81,2.82-13.22,4.2-1.48.46-3,.89-5,1.5,1,.54,1.36.92,1.78,1,4.52.41,7.13,3.08,9,7,5.08,10.67,12.32,19.85,20.54,28.22,13.09,13.32,28.67,23,45.59,30.75C470.57,567.21,471.24,568.54,471,573.62ZM328.26,372.32c-2.65-2.52-4.82-5.37-7.69-7-1.66-.94-4.44.12-6.72.25-.8,0-1.61,0-2.42,0Q240,365.28,168.59,365c-13.81-.08-27.62-.5-41.43-.67a10.08,10.08,0,0,0-3.08,1c.5,1,1,1.92,1.5,2.9.67,1.36,1.94,2.77,1.86,4.1-.15,2.53,1,3.71,3,4.59,5.08,2.23,10.1,4.55,15.21,6.69a14.13,14.13,0,0,0,5,1.14c3.92.12,7.87.1,11.79-.11,21.94-1.14,43.89-2.25,65.82-3.58,15.49-.94,31-2.16,46.43-3.37,14.07-1.11,28.12-2.39,42.18-3.57,3.79-.31,5.62.85,6.73,4.75Zm631,5.28c3.46-.63,4.19-2.64,3.45-5.36-.92-3.4-1.82-6.82-3.07-10.1a3.75,3.75,0,0,0-3-1.65c-15.42.29-30.83.87-46.25,1.07-25.31.34-50.62.47-75.94.63-18.86.13-37.72.14-56.58.25-4.23,0-8.47.52-12.69.36s-6.35,2.62-8.7,5.88a53.67,53.67,0,0,0,6.89,1.61q9.92,1,19.88,1.62c29.87,1.85,59.74,3.71,89.62,5.42,13.48.77,27,1.39,40.47,1.73,13.66.35,27.45,1.53,40.62-3.86C956.29,374.26,958.35,374.93,959.24,377.6ZM146.1,392.16c.18,1.07.11,2,.38,2.13,3.35,1.28,4.54,4.29,6.16,7.08.6,1,2.27,1.64,3.57,2,5.79,1.69,11.6,3.35,17.47,4.76a24.52,24.52,0,0,0,7.49.62c12.64-1,25.34-1.72,37.89-3.47,29.21-4.08,58.35-8.69,87.51-13.12,4.77-.72,9.52-1.67,14.28-2.48,4.2-.72,6.33.31,7.48,3.81.88-.42,2.09-.59,2.5-1.26,2.64-4.29,1.88-5.17-1.68-8.71S322.46,380,318,380.49q-24.33,2.68-48.75,4.35c-33.37,2.3-66.74,4.34-100.12,6.4C161.61,391.71,154.06,391.85,146.1,392.16Zm191.39,16.3c3.81-.81,2.94-4.33,4.12-6.49.83-1.52,0-2.8-1.75-3.49-2.8-1.09-5.51-2.43-8.31-3.55a4.84,4.84,0,0,0-2.61-.26c-9,1.7-17.94,3.7-27,5.2-20,3.31-39.93,6.73-60,9.43-18.26,2.45-36.64,4-55,5.93-4.24.45-8.49.86-12.74,1.29l-.27.82c.57.52,1.05,1.27,1.72,1.52a9.14,9.14,0,0,1,6,6.59,4.42,4.42,0,0,0,2.74,2.75c9.25,1.38,18.53,3.38,27.81,3.46,9.1.07,18.28-1.49,27.3-3,26.32-4.53,52.15-11.18,77.72-18.85,4.62-1.39,9.24-2.82,13.88-4.16C334.85,404.55,336.16,405.14,337.49,408.46Zm84.57,46.38c0,16.19,2.92,27.49,8.89,38,11,19.32,27.49,32.48,47.46,41.42,30.27,13.55,61.79,15.89,94,8.77C596.64,537.65,618,526.76,635,508.2c25.43-27.78,26.65-64.62,3.07-93.84C626.51,400,611.7,389.92,594.74,383c-27.42-11.25-55.82-13.59-84.8-8.19-25.33,4.72-48,15.11-66.07,34C430.33,422.85,422.29,439.44,422.06,454.84Zm514-50.69c1.45-1.64,2.95-2.63,3.38-4a49.69,49.69,0,0,0,2.25-9.89c.46-4.18,0-4.32-4.28-4.31-11.28,0-22.58.24-33.84-.17-20-.74-40.06-1.77-60.08-2.91-16.8-.95-33.58-2.26-50.37-3.37q-17.49-1.15-35-2.16c-.87-.05-2.06-.12-2.6.38-2.4,2.15-4.61,4.5-7,6.92l2.52.23c5.51.45,11.05.67,16.51,1.39,18.17,2.42,36.3,5.17,54.48,7.51,17.68,2.28,35.38,4.56,53.13,6.22,18.9,1.76,37.86,4.88,56.84.43C934.38,399.89,935.88,400.72,936.08,404.15Zm-195.66-1c-.43,1.21-.93,1.9-.84,2.5.47,3-1.26,3.82-3.74,4.21-2.13.34-4.22.9-7.08,1.53,2.56,2.51,5.26,2.48,7.83,2.9a62.71,62.71,0,0,1,9.38,1.83c16.16,5.29,32.14,11.18,48.42,16.07,25,7.5,50.22,14.25,76.65,14.16,2.33,0,3.72,1,3.68,3.83,5.3-4.28,7.69-9.75,9.47-15.57.6-2-.86-2.43-2.39-2.61-3.7-.45-7.42-.78-11.1-1.32a986.86,986.86,0,0,1-98.29-19.72C761.8,408.26,751.15,405.73,740.42,403.11Zm.37-3.56c1.42-.09,3,.14,4.26-.34,3.17-1.2,6.19-.94,9.42-.17,36.88,8.8,73.73,17.78,111.26,23.59,13.23,2.05,26.35,3.25,39.59.48,3.06-.64,4.34.4,5.29,4.57,1.34-2.06,2.7-3.47,3.25-5.15a72.31,72.31,0,0,0,2-8.79c.64-3.22,0-4.07-3.27-4.08-23.43-.07-46.64-3-69.82-5.76-27.28-3.31-54.47-7.39-81.7-11.1-4-.55-8.11-.86-12.26-1.28C748.87,397.43,743.54,396.52,740.79,399.55ZM208.67,439.62l-.36.78c.37.16.72.35,1.1.48,4.51,1.53,8.85,3.3,12.26,6.85a5.72,5.72,0,0,0,3,1.21c4.76.84,9.51,1.84,14.31,2.27,5.89.52,12,1.45,17.7.53a129.1,129.1,0,0,0,23-6.33c21-7.56,41.88-15.52,62.79-23.37,4-1.51,4.76-1.38,6.85,2l4.26-1.75a19.94,19.94,0,0,1-.94-3c-.31-2.24.3-5.15-.91-6.58s-4.18-1.56-6.38-2.25a9.89,9.89,0,0,0-2-.56c-1.47-.14-3.08-.55-4.41-.15-10.69,3.22-21.25,6.89-32,9.9-28.51,8-57.22,15.16-86.72,18.62C216.35,438.69,212.51,439.16,208.67,439.62Zm508.07-73.68c3-.54,4.25-2.85,3.55-5.2-.32-1.06-3.3-1.85-5.08-1.86-12-.12-24,0-36,.06-8.08.05-16.11.63-23.91,2.9-5,1.45-9.79,3.31-13.69,7.68,3.23.52,4.07,2.24,4,4.82a8.15,8.15,0,0,0,.93,4.06c3,5.06,6.29,10,9.46,15,.53.85,1.42,1.65,1.52,2.55.42,3.65,2.86,5.92,5.31,8.16s4.8,4,7.05,6.18c.85.81,1.26,2.09,2.16,3.68.7-.48,2.35-1,2.45-1.81.21-1.6.17-3.82-.78-4.89-2.53-2.84-5.67-5.12-8.43-7.78-1.31-1.26-2.23-2.93-3.48-4.29s-1.11-2.72.22-3.24,3.37-.48,4.26.3c4.54,3.92,8.81,8.15,13.14,12.31a31.7,31.7,0,0,1,2.35,2.92c1.08-.71,3.06-1.34,3.2-2.25a5.54,5.54,0,0,0-1.61-4.12c-2.76-2.65-5.92-4.87-8.76-7.42-1.16-1-1.82-2.6-2.9-3.75s-1.58-2.69.08-3.41c.89-.39,2.59.25,3.52,1,2.63,2,5,4.26,7.54,6.42,2.33,2,4.63,4.07,7,6a3,3,0,0,0,1.56.5c2.39.21,2-2,2.31-3.17a3.34,3.34,0,0,0-1-2.85c-3-2.31-6.37-4.26-9.38-6.61a19.89,19.89,0,0,1-3.81-4.53c-.37-.53,0-1.54,0-2.34a6.22,6.22,0,0,1,2.44.23c1.3.74,2.37,1.88,3.63,2.7,4.19,2.72,8.42,5.38,12.65,8a1.25,1.25,0,0,0,1.09.15A10.64,10.64,0,0,0,702,389.8c1-1.42.45-2.68-1.06-3.48-3.65-1.93-7.25-4-11-5.74-2.26-1.07-3.84-2.37-3.56-5.44a10.06,10.06,0,0,1,2.54.22c4.53,1.68,9.08,3.32,13.5,5.26,1.55.68,2.74,2.18,4.48,3.61-.42.12,0,.13.13-.06,1.23-1.81,2.41-3.65,3.61-5.48a26.39,26.39,0,0,0-4.18-2.38c-3.88-1.38-7.86-2.5-11.77-3.82a19.15,19.15,0,0,1-2.88-1.57c4.14-2.64,17.07.06,20.21,3.83.28-.07.57-.18.86-.23,2.55-.4,2.85-2.53,2.69-4.33-.06-.72-1.89-1.62-3.05-1.86-4.33-.93-8.72-1.56-13.06-2.44a34.08,34.08,0,0,1-4.6-1.69C702.08,361.33,714,362.53,716.74,365.94ZM836.85,467c1.35-1.53,2.58-2.45,3.16-3.68a55,55,0,0,0,2.48-6.79c1.35-4.08.82-5-3.34-5.77-21.26-3.7-42-9.56-62.48-16.12-14.45-4.63-28.74-9.82-43.06-14.87a13.44,13.44,0,0,0-10.54.18c-1.36.62-2.91.84-4.28,1.43a19.18,19.18,0,0,0-2.75,1.77,15.44,15.44,0,0,0,2.73,1.82c3.08,1.22,6.33,2,9.3,3.47,5.07,2.45,9.94,5.32,15,7.87,17.48,8.91,35,17.78,53.78,23.72a53,53,0,0,0,13.89,2.45c7.33.27,14.69-.31,22-.44C835.71,462,836.85,463.29,836.85,467ZM256.41,459.8c2.86,1.84,5.27,3.47,7.76,5,1.82,1.09,3.71,2.73,5.64,2.83,8.54.46,17.11.56,25.67.54a14.19,14.19,0,0,0,6-1.56q27.78-13.95,55.46-28.14c3.14-1.6,6.14-3.55,9.76-1.26.18.11.59-.06.85-.19,2.6-1.34,5.2-2.7,7.89-4.11-.41-.47-.46-.59-.54-.6-.49-.1-1-.18-1.48-.27-4.45-.86-9-1.54-8.85-7.78,0-.6-1.94-1.84-2.87-1.74a30.25,30.25,0,0,0-8.19,1.77C342.47,428.74,331.65,434,320.4,438c-20.44,7.32-41.12,14-61.69,20.91C257.86,459.19,257,459.55,256.41,459.8Zm43.86,14.81c2.65,1.38,5.86,2,7.25,4,2.61,3.65,5.73,4.07,9.49,3.41,5.36-.94,10.72-1.85,16-3,6.86-1.5,13.95-2.43,19.69-7.08q16.93-13.68,33.86-27.38c1.81-1.46,3.4-3.19,5.54-5.22-7.56,1.15-8.38.81-13.21-4.13a3.64,3.64,0,0,0-3.05-.44c-1.1.32-2,1.39-3,1.95q-29.37,15.54-58.78,31C309.4,470.17,304.64,472.44,300.27,474.61Zm106.14-65.44c2.11.65,3.87.69,4.77,1.59s1.05,2.69,1.52,4.08c5.57-6.16,11.46-12.22,16.78-18.75a56.3,56.3,0,0,0,8.23-13.16c3.15-7.36.86-12.47-6.2-16.28-6-3.25-12.42-5.59-19.17-6-15.26-.91-30.54-1.34-45.83-1.78-1.58,0-4.42-1.18-4.61,1.62-.06.91,2.66,2.77,4.21,2.89,5.64.42,11.32.36,17,.34,2.19,0,4.54-1,6.52-.48,3.51,1,6,5.79,5.75,9.93,3.8.74,5.62,3.15,5.14,7.26,4.21.09,6.27,2.36,6.82,6,5.29.5,6.05,1.25,6.81,6.71.68-.21,1.36-.36,2-.63a4.41,4.41,0,0,1,5.46,1.27,4.58,4.58,0,0,1,.69,3.76,4.18,4.18,0,0,1-5,3,3,3,0,0,0-2.19.65C412.13,403.81,409.22,406.57,406.41,409.17Zm387.78,74.4c3-2,7.24-9.62,6.9-12.55a3.62,3.62,0,0,0-2.11-2.33c-3.2-1.2-6.55-2-9.76-3.14-24.06-8.67-46.62-20.52-69-32.66-5.07-2.75-9.84-4.48-15.35-1.91-.93.44-1.79,1-2.68,1.5a15.38,15.38,0,0,0,2.6,2.51c3.69,2.2,7.62,4,11.18,6.39,14.08,9.39,28,19.07,42.12,28.36,5.55,3.65,11.58,6.57,18.36,7.36,4.5.52,9,1,13.51,1.41C793.43,478.79,794.74,480.11,794.19,483.57Zm-452.09.26c2.47-.93,5-1.52,6.92,1.06,2.38,3.21,5.53,3.24,8.94,2.4,4.2-1,8.37-2.17,12.59-3.13a6.34,6.34,0,0,1,3.76,0c2.63,1.23,4.28.32,6-1.61,8.89-9.76,17.8-19.49,26.84-29.1,1.74-1.85,2.17-3.85,1.05-5.65-.55-.91-2.74-1.2-4.15-1.11-4.68.3-8.81-.4-11-4.49Zm412.44,7.71.74.3c1.44-2,3-3.94,4.29-6,2.55-4.17,2.32-4.94-1.84-7.3a414.68,414.68,0,0,1-50.48-34.15c-4.75-3.7-9.44-7-15.88-4.46-.45.18-1,0-1.49.17-.67.23-1.77.55-1.83,1a3,3,0,0,0,.7,2.36c12.71,11.89,25.43,23.79,38.31,35.5a18.71,18.71,0,0,0,7.1,3.73c5.3,1.56,10.73,2.65,16.11,3.92C752.91,487.16,755.2,488.05,754.54,491.54Zm-374-5.88c1.41,1,2.89,1.57,3.65,2.65,1.46,2.1,3.22,2.52,5.5,1.95,4.59-1.13,9.15-2.42,13.79-3.24,1.36-.25,3,.71,4.42,1.39.6.29.87,1.26,1.64,2.47,2.49-5,4.36-9.23,6.63-13.22a33.45,33.45,0,0,0,4.52-20.19c-.51-5.71-.13-5.84-5.72-4.62-2.23.49-4.63-.06-6.58,2.23-6,7-12.33,13.82-18.58,20.67C386.69,479.14,383.51,482.46,380.51,485.66Zm338.06,9.95,1,.67c.88-1.23,1.76-2.46,2.65-3.67,2.82-3.81,2.85-4.58-.57-7.82-6.8-6.44-13.79-12.68-20.51-19.19C695.33,459.94,689.8,454,684,448.25a4.79,4.79,0,0,0-3.22-1.16c-2.58.1-5.14.57-7.55.88-1,1.91-.62,3.19.89,4.53a32,32,0,0,1,3.89,4.61c7.15,9.1,14.21,18.27,21.48,27.28a13.83,13.83,0,0,0,5.29,3.77c3.23,1.36,6.69,2.16,10,3.25C716.86,492.06,718.86,492.81,718.57,495.61ZM618,341.15c-46-25.37-115.42-21.41-153.63-2.36a11.09,11.09,0,0,0,2.25.43,73.13,73.13,0,0,0,17.62-3.4A190.12,190.12,0,0,1,570,330.28a168.11,168.11,0,0,1,37.13,10.39c1.66.68,3.07,2,5,3.25ZM607.41,575.69c.07.39.15.79.22,1.18,3.27-.26,6.74.07,9.77-.93,4.36-1.44,8.46-3.74,12.57-5.87,19-9.87,36.66-21.45,49.52-39.16,7.49-10.33,14.11-21.07,18-33.32a24.56,24.56,0,0,0,.6-3.19c-2,1.36-3.31,3.08-4.94,4.33s-3.71,1.87-5.35,3.1c-.56.42-.78,2.48-.47,2.67,2.15,1.32,1.4,2.9.64,4.45-3.4,7-7.25,13.69-13,19.16-3.78,3.62-7.38,7.44-11.14,11.08s-7.59,7.54-11.7,10.94c-12.6,10.43-27,17.74-41.95,24.25C609.27,574.79,608.34,575.25,607.41,575.69Zm-228.1-78c.23,1.34.41,3.2,3.09,4,1.19.35,2.16,2,2.88,3.26,1.2,2.09,2.07,4.36,3.16,6.51,10.8,21.3,26.74,38,46.71,50.74,8.54,5.44,17.81,9.72,26.69,14.64a14.27,14.27,0,0,1,3.33,3.13,5.09,5.09,0,0,1,.65,1.83,11.85,11.85,0,0,0,1.39-1.35c.55-.72.91-1.58,1.47-2.28,1.86-2.31.86-3.37-1.51-4.34-28.74-11.81-52.92-29.41-69.63-56.07-3.42-5.44-5.58-11.7-8.1-17.68-.89-2.1-2.28-2.13-4.1-2.07S381.52,497.81,379.31,497.69Zm105.17,93c1.29-1.77,2.37-2.78,2.87-4q7.84-19.28,15.48-38.64c.34-.88.39-2.43-.14-3-2.61-2.82-6.32-2.36-9.64-2.37-1.08,0-2.16,2.16-3.43,3.53,3,1.56,2.53,3.42,1.33,5.47-2.24,3.82-4.43,7.67-6.63,11.52-3.1,5.41-6.18,10.84-9.31,16.24-1.54,2.66.17,4.73,1.44,6.62.51.74,2.49.88,3.68.66C482.66,586.26,483.59,587.58,484.48,590.72Zm206.83-93.28c4.3-2.86,4.64-4.48,1.37-8.86-.31-.4-.68-.75-1-1.15-6.85-9-14.43-17.49-20.28-27.07-3.54-5.8-7.24-8.36-13.64-7.6a7.18,7.18,0,0,0-1.07.4c.47.87.72,2.12,1.43,2.49,3.22,1.69,3.93,4.53,4.31,7.78a20.68,20.68,0,0,0,1.63,6.64,155.13,155.13,0,0,0,8.29,15.07,15.84,15.84,0,0,0,5.76,4.92c2.8,1.53,6,2.2,8.92,3.62C688.57,494.43,689.7,496,691.31,497.44Zm-88,96.21c6-6.69,6.49-10.28,2.4-17.47-6.11-10.75-12.19-21.51-18.43-32.19A4,4,0,0,0,584,542.3c-3.4.71-6.69,1.93-10.32,3,.58.75.92,1.56,1.24,1.55,5.28-.14,6.89,3.7,8.45,7.63,3.43,8.69,6.79,17.41,10.39,26,.77,1.85,2.1,4.17,3.74,4.81C601.46,586.88,603.22,589.47,603.33,593.65Zm-98.69-44.11c3,1.31,3.36,3.44,2.22,6.22-1.95,4.74-3.77,9.54-5.62,14.33-2,5.16-4.11,10.27-5.9,15.5-1.25,3.62,1.71,8.06,4.72,7.18,2.42-.7,3.14.42,4,2.56a12.74,12.74,0,0,0,3.33-4.38,87.23,87.23,0,0,0,2.26-8.76q3.68-15.27,7.3-30.53c.79-3.3.1-4.46-3.22-5.07-1.67-.31-3.46,0-5.11-.4C506,545.6,505,546.81,504.64,549.54Zm34.55,53.35,1,.09c1.87-1.67,4-3.14,5.53-5.07,1.14-1.44,2.23-3.52,2.14-5.25-.73-13.75-1.79-27.49-2.64-41.24-.11-1.79-.82-2.63-2.48-2.66-3.16-.06-6.31,0-10.27,0,.77,1.76.92,3,1.52,3.3,3.11,1.48,3.61,4,3.37,7-.77,9.63-1.43,19.26-2.25,28.88-.27,3.2.19,5.87,2.94,8C540.12,597.63,542.37,599.64,539.19,602.89Zm-14.3-54.82a26.79,26.79,0,0,0-4,.26,2.46,2.46,0,0,0-1.61,1.32,2.19,2.19,0,0,0,.63,2c2.62,1.45,2.89,3.63,2.3,6.2-2.28,9.89-4.43,19.8-6.89,29.64a6.93,6.93,0,0,0,2.53,7.74,28.64,28.64,0,0,0,3.6,2.13c2.48,1.46,4.62.71,5.58-2a10.81,10.81,0,0,0,.61-2.63q1.76-19.83,3.43-39.66c.34-4-.37-4.72-4.46-4.92C525.92,548,525.22,548.07,524.89,548.07Zm35,.13c.56.72,1,1.71,1.4,1.74,4.38.27,5.55,3.4,6.37,6.88,2.21,9.3,4.47,18.59,6.58,27.91.71,3.14,2,5.6,5.08,7,2.31,1,3.12,3,2.64,5.49a18,18,0,0,0,0,2.52,33.16,33.16,0,0,1,2.51-3.35c4.48-4.49,4.22-9.2,1.82-14.8-4.64-10.8-8.65-21.89-12.9-32.86-1.34-3.45-2-3.86-5.65-2.92C565.3,546.42,562.93,547.25,559.87,548.2Zm.46,55c2.14-2.44,3.76-4.47,5.57-6.3,2.06-2.08,2.48-4.35,1.84-7.17q-4.46-19.73-8.66-39.51c-.41-1.91-1.49-2.65-3.15-2.49-3,.3-5.93.84-9.57,1.38.76,1.14,1.08,2.26,1.72,2.49,3.31,1.2,4.14,3.76,4.38,6.89.7,9.34,1.64,18.67,2.17,28,.21,3.82,1.17,6.71,4.64,8.81,2,1.21,3.4,3.32,1.29,5.85C560.32,601.45,560.44,602,560.33,603.18ZM410.92,417.68c-2.75-.08-5.79-.9-7.08-4.77-.18-.52-1.81-1.06-2.51-.82a12.35,12.35,0,0,0-4.13,2.34c-2.73,2.39-5.3,5-7.89,7.5-2.75,2.7-5.46,5.45-7.88,7.88l14.3,4.62C400.34,429.36,405.73,423.4,410.92,417.68ZM380,427.75c4.11-3.93,7.94-7.95,12.16-11.51,2.57-2.17,3.46-4.36,2.84-7.65-.71-3.8-1.05-4.38-4.86-3.42a15.44,15.44,0,0,0-5.56,2.56c-5.24,4.07-10.28,8.4-15.43,12.6a23.41,23.41,0,0,1-2.72,1.65C371.5,424.23,376.73,423.21,380,427.75Zm44.79-7.56c-1.65.1-3.44.74-4.75.2-5.42-2.23-8.5.9-11.57,4.46-.91,1.07-2.06,1.93-3,2.95-3,3.14-6,6.31-8.51,8.94,1.77,1,3.5,2.56,5.43,2.83,3.23.47,4.74,2.24,5.63,5.4Zm-56.36-2.52c5.2-4.14,10.75-8.48,16.2-12.94,1.62-1.34,1.34-5.88-.19-5.87-3,0-6.33-.3-8.8.95-6.8,3.46-13.24,7.65-19.8,11.58a19.1,19.1,0,0,0-1.94,1.53ZM343.18,400c2.22,1.45,3.91,2.7,5.73,3.69,2.82,1.53,5.58,1.83,8.47-.24s6.18-3.78,9.25-5.71c2.43-1.52,4.66-2,6.41,1.14,1.18-.75,2.81-1.2,3-2.06a24.66,24.66,0,0,0,.58-6.21,1.76,1.76,0,0,0-1-1.37c-2.87-.7-5.64-2.11-8.76-.57-5.77,2.84-11.66,5.47-17.48,8.21C347.46,397.76,345.54,398.77,343.18,400Zm367.14,28.37c2.79-.18,2.08-3.58,3.34-5.37.29-.41-1.3-2.74-2.47-3.51-6.62-4.39-13.31-8.66-20.13-12.72-1-.61-2.91-.14-4.28.26a74.9,74.9,0,0,0-7.19,2.68,16.46,16.46,0,0,0-2.32,1.43c1,.36,2,1.12,2.94,1,3.32-.41,6.41-.1,9.2,1.88q2.6,1.83,5.16,3.69c4,2.87,7.52,6.36,12.63,7.37C708.21,425.24,709,426.82,710.32,428.32Zm-377-40c1.93.79,3,1.12,3.95,1.64a11.93,11.93,0,0,0,11.81.14,84.27,84.27,0,0,1,11.38-4.83,5.21,5.21,0,0,1,4.5.8c1.82,1.81,2.57.65,3.36-.63a25.1,25.1,0,0,0,1.16-3.08c.86-1.87.35-3-1.58-3.74a11.06,11.06,0,0,0-8.44-.11c-7.44,2.78-15.07,5.06-22.59,7.62A22,22,0,0,0,333.31,388.28ZM712.44,377.8c-.32.36-.64.71-1,1.07.38,1,.46,2.6,1.19,3a56.65,56.65,0,0,0,8.9,4.15c5.59,2,11.33,3.5,16.93,5.44,1.71.6,3.16,1.94,5.36,3.33,1.77-.31,3.18-1.66,2.41-4.61a5.17,5.17,0,0,1,0-1.8c.31-2.69-1.08-3.74-3.57-4.14-3.77-.61-7.5-1.41-11.24-2.22C725.11,380.65,718.78,379.21,712.44,377.8Zm22.26,29.33c3.32,1,3.15-2,3.62-4.16.51-2.35-.51-4-2.92-4.88-8.24-2.93-16.43-6-24.67-8.89a57.36,57.36,0,0,0-6.1-1.41c-.33,1.69-.57,3-.87,4.54,2.48,1.23,4.92,2.59,7.48,3.67,6.48,2.74,13,5.28,19.49,8.08C732.21,404.73,733.38,406.1,734.7,407.13ZM717,370.08c3.54,1.48,6.7,3.23,10.08,4.1,5.53,1.42,11.24,2.15,16.82,3.42,1.77.41,3.35,1.64,5.54,2.76.49-.36,1.65-1.14,2.71-2,2.18-1.86.91-4.18.43-6.18-.17-.7-2-1.26-3.13-1.44-2.57-.41-5.19-.48-7.78-.81-6.28-.81-12.54-1.72-18.81-2.53C720.78,367.11,718.62,366.94,717,370.08Zm10,47.13a12.15,12.15,0,0,1,0-2.28c.93-4.17.84-4.17-3-5.92-7-3.16-13.84-6.53-20.8-9.69-2.3-1-4.77-1.69-7.2-2.54-.57,2.33-1,4.1-1.4,5.77a16.55,16.55,0,0,1,3.24,1q5.75,3,11.35,6.31c3.83,2.23,7.53,4.62,12.11,5.2,1.12.14,2.07,1.63,3.42,2.78ZM360.06,376.34c2.81-.75,4.82-4.86,3.48-6.64a7.52,7.52,0,0,0-8.5-2.88c-1.55.42-3.11.81-4.68,1.19-6,1.42-12,2.75-17.89,4.32-1.37.36-2.53,1.54-4.14,2.56,4.46,3,8.16,4.67,13,2.72,4.36-1.74,9.07-2.65,13.64-3.84C357.26,373.17,359.11,373.77,360.06,376.34Zm321.82,69c3,.9,2.9-2.15,3.56-3.79a4.41,4.41,0,0,0-.72-3.9c-5.58-5.68-11.29-11.24-17.16-16.61a6.78,6.78,0,0,0-4.64-1.17,63.66,63.66,0,0,0-7.87,1.56c.56.8,1.51,2.16,2.47,3.51l.36-.83c1.61.27,3.4.2,4.79.91a15.16,15.16,0,0,1,3.78,3.4c4.49,4.81,7.57,11,14.09,13.83C681.23,442.58,681.38,444.15,681.88,445.38Zm-14.26-29.56-1.23-.08c.62,1.05,1.42,3.08,1.83,3,5.31-1,8.61,2.19,12.17,5.24,4.26,3.64,8.85,6.91,13.22,10.44a21.75,21.75,0,0,1,2.68,3.4c3.11.38,1.6-3.69,3.35-5a4.36,4.36,0,0,0-1.19-2.65c-6.37-5.09-12.71-10.23-19.36-14.93-1.49-1.05-4.17-.64-6.28-.53A30.67,30.67,0,0,0,667.62,415.82ZM721.48,360c.57.64,1,1.53,1.54,1.65a55.48,55.48,0,0,0,8,1.3c5.41.32,10.84.38,16.26.57,3.06.11,5.22,1.46,6,5.17,1.65-2,4-3.55,4.07-5.18a12.72,12.72,0,0,0-2.49-7.48c-.76-1-3.69-.83-5.54-.56C740.22,356.8,731.23,358.37,721.48,360Zm-397.27,1.1c4.09,2.36,7.86,4.69,12.84,3.7a93.62,93.62,0,0,1,13.48-1.51c1.57-.08,3.17,1,4.8,1.4.87.2,2.4.32,2.64-.09a12.05,12.05,0,0,0,1.55-4.73c0-.38-2.06-1-3.21-1.4a4.4,4.4,0,0,0-1.5-.12c-9.06-.05-18.13,0-27.19-.19C325.5,358.11,324.42,358.83,324.21,361.08Zm344,89.93c2.2-.06,4-3.21,2-6-5.19-7.31-10.67-14.41-16.51-22.23-.87,3.06-1.43,5.06-2,7.05l1.69-1.53a36.94,36.94,0,0,0,1.48,4.09c1.65,3.31,3.28,6.66,5.2,9.81a32.62,32.62,0,0,0,4.15,4.83C665.36,448.21,666.56,449.33,668.23,451Zm-6.06,49.81c3.25-1.61,5.89-6.11,4.65-8.52C663.6,486,660,480,656.56,473.83c-1.39,3.32-3.14,6.14-1.13,9.43a5.48,5.48,0,0,1,.29,4.38c-1.57,3.59-.15,5.33,3,6.81C661.12,495.58,663.06,497.38,662.17,500.82ZM418.55,450.54c.7-.81,1.78-1.56,2.15-2.58,2.37-6.49,4.37-13.13,7-19.53,1.11-2.72.89-4.4-1.5-6.07-4,4.34-6,9.57-8.11,14.81C416.36,441.47,413.94,445.7,418.55,450.54Zm2.34,22.84-.76-.12a55.63,55.63,0,0,0-2.5,7.83c-.33,1.85.51,3.88.43,5.82-.15,3.28,2.55,6.83,5.84,6.84,1.61,0,3.56-.51,3.15-3a29.84,29.84,0,0,0-1.24-5.5C424.29,481.27,422.55,477.34,420.89,473.38Zm-12.81-79.76L397.65,403l6.8,4.79,10.16-9.8Zm-30.34-3.54c2.46.64,4.24,1.13,6,1.56,1.44.34,3.49,1.35,4.24.76a58.23,58.23,0,0,0,8.82-8.37c1.43-1.71,0-3-2.09-2.91a7.24,7.24,0,0,0-2.87.79c-4.1,2.12-8.18,4.31-12.23,6.53A12.19,12.19,0,0,0,377.74,390.08ZM388.48,397c6.1,4.27,10.85,3,14.84-2.09a2.44,2.44,0,0,1,.46-.39c2.35-1.7.13-3.33-.39-4.7-.28-.74-2.74-1.53-3.43-1.09C396,391.3,392.22,394.24,388.48,397Zm-23.37-24.92c4.68,1.16,8.87,1.39,13-.47,3.72-1.69,9-.69,10.94-6.21-8.21-.4-15.37,2.3-22.53,4.91C365.93,370.52,365.6,371.44,365.11,372.07Zm5.42,9.35c3.54.34,6.31,1.35,8.56.66,3.89-1.18,7.52-3.3,11.11-5.3.91-.5,1.25-2,1.86-3.08-1.18-.26-2.53-1-3.5-.7-5.19,1.83-10.3,3.91-15.4,6C372.41,379.31,371.88,380.16,370.53,381.42Zm56.09,21.24-8.86,9.84,4.75,5.87C427.37,414.29,424.55,407.77,426.62,402.66Z"/><path class="cls-3" d="M535.51,376.17c31.24.34,57.66,6.82,80.94,23.55,14,10.1,25.06,22.79,30.94,39.3,7.82,22,3.2,42.14-10.33,60.46-14.07,19-33.34,30.79-55.73,37.4-33.19,9.8-66.08,8.67-98.21-4.55-17.45-7.19-32.44-18-43.56-33.46-19-26.49-18-56.37,2.56-81.69,15.19-18.67,35.2-29.76,58.11-36A135.66,135.66,0,0,1,518,377.65C524.76,376.75,531.62,376.48,535.51,376.17Zm48.65,79.1c3-2.17,5.9-4.08,8.55-6.35,11.65-10,12.68-25.49,2.48-37-6.13-6.93-14.08-11-22.72-13.79-19.79-6.35-39.86-6.43-60-2-13.92,3.06-27,8.25-38,17.7-6.71,5.77-6.53,8.73.79,13.65a5.52,5.52,0,0,1,2.72,5.22c-.11,16.14-.27,32.28.05,48.42.13,6.06-.67,11.07-5.61,15.29-3.54,3-3.34,5.11.53,7.83,5.23,3.7,10.65,7.37,16.49,9.94,22.91,10.08,47,12.53,71.62,9.06,11.17-1.57,21.78-5,31-11.79,12-8.85,16.16-21.5,11.36-34.86C600,466.85,593.42,460,584.16,455.27Z"/><path class="cls-3" d="M540,514.71c-3.39-.37-6.84-.49-10.18-1.18-12.19-2.51-18.58-10.33-19-23.3a45.46,45.46,0,0,1,.75-9.6c1.73-9.23,7.39-15,16.34-17.48a46,46,0,0,1,22.14-.68c13,2.76,19.51,11.64,19.47,25.95,0,15.61-9.33,25.27-25,25.94-1.51.07-3,0-4.53,0Z"/><path class="cls-3" d="M511.63,428.18c-.1-13.53,8.09-22.81,21.59-24a49.69,49.69,0,0,1,12.9.29c12.48,2.2,18.44,9.49,19,22.38.49,12.14-4.59,21-14.52,23.72-5,1.36-10.31,1.3-15.5,1.71a17.83,17.83,0,0,1-4.8-.51C517.61,449.24,511.72,441.77,511.63,428.18Z"/></g></g></svg>