<svg xmlns="http://www.w3.org/2000/svg" viewBox="0 0 1080 1080"><defs><style>.cls-1{fill:#f6f6f6;}.cls-2{fill:#c3c3c3;}</style></defs><g id="background"><rect class="cls-1" y="1079" width="1" height="1"/><rect class="cls-1" width="1" height="1"/><rect class="cls-1" y="1079" width="1" height="1"/><rect class="cls-1" x="1079" width="1" height="1"/><rect class="cls-1" x="1079" y="1079" width="1" height="1"/><rect class="cls-1" x="1079" y="1079" width="1" height="1"/></g><g id="Capa_1" data-name="Capa 1"><path class="cls-2" d="M865,525.56q-.32-3.37-.62-6.75c-.45-4.82-.91-9.81-1.39-14.72a311,311,0,0,0-26.27-97.81,320.25,320.25,0,0,0-98.4-124.16A325.1,325.1,0,0,0,649,233.41a329.8,329.8,0,0,0-100-18.26c-3.21-.1-6.46-.15-9.67-.15v2.49h0V215a323.71,323.71,0,0,0-217.26,84.22,326.1,326.1,0,0,0-83,118.56,316.88,316.88,0,0,0-22.81,94.36c-.25,3-.56,6.13-.86,9.12l-.42,4.28,0,.24V555l.08.43c.07.39.15.79.22,1.18a16.94,16.94,0,0,1,.31,1.82c.26,2.65.49,5.36.71,8,.42,4.78.84,9.72,1.4,14.6a307.27,307.27,0,0,0,25.77,91.83,324.88,324.88,0,0,0,112.62,135c47.38,32.74,100.76,51.64,158.67,56.15,8.06.63,16.3,1,24.5,1a343.2,343.2,0,0,0,47.63-3.41A323.42,323.42,0,0,0,863.67,567.77c.27-3.36.58-6.78.88-10.09.15-1.58.29-3.16.43-4.73l0-.22V525.79ZM843.9,546.41C840.46,709.56,704.5,843,540.82,843.91h-1.61c-80.1,0-158.79-33.19-215.89-91.07C266,694.69,235,617.56,236.1,535.65,238.19,370.42,374.61,236,540.21,236h2.09c80.47.55,159.13,34.29,215.81,92.57A301.13,301.13,0,0,1,843.9,546.41Z"/><path class="cls-2" d="M791.32,403.8,718.48,439c-4.44-5.77-8.86-11.38-13-17.18-.51-.69,0-2.6.6-3.54,8.34-12.49,16.79-24.91,25.78-38.18-1.83.69-2.91,1.07-4,1.5-13,5.28-26.06,10.54-39.05,15.92-1.92.8-3.1.68-4.51-1-4.45-5.28-9.08-10.42-13.76-15.75l49.28-63,14.55,13.14-30.86,40,6.66-2.77c12.19-5.14,24.4-10.22,36.54-15.47,2-.86,3.09-.68,4.4,1,3.67,4.87,7.52,9.6,11.5,14.64l-29.19,41.37c7.53-3.5,14.27-6.62,21-9.77,7.43-3.49,14.81-7.05,22.29-10.43.89-.41,2.7-.35,3.22.25C783.74,394.25,787.35,398.86,791.32,403.8Z"/><path class="cls-2" d="M586.16,256.34v78.8H570.53V284.57l-.73-.11q-5.12,13.2-10.22,26.39c-2.79,7.22-5.62,14.43-8.29,21.7-.73,2-1.73,2.73-3.84,2.64a94.16,94.16,0,0,0-11.27,0c-2.78.21-3.81-1-4.7-3.41-6.06-16.25-12.25-32.44-19-48.64V335H496.69V256.57H520l21.53,55.19c6.72-18,13.21-35.18,19.56-52.45.8-2.21,1.74-3.1,4.18-3C572.17,256.46,579.07,256.34,586.16,256.34Z"/><path class="cls-2" d="M393.26,353.43c-3.25-1.1-6.9-1.11-10.39-1.4-2.51-.21-5.06,0-7.62,0-.1-1.73-.14-2.77-.23-3.81-.9-10-6.9-16-15.77-19.2-8.2-3-14.23,1.31-19.4,7.19-4.58,5.2-9.18,10.39-13.67,15.64-9.75,11.41-19.45,22.87-29.38,34.55l60.94,51c10.65-12.58,21.18-24.86,31.52-37.29,4.73-5.67,9.69-11.26,13.53-17.52C410,370.81,405.51,357.6,393.26,353.43Zm-57.9,38.29-14.51-12.29c1.82-2.21,3.56-4.36,5.33-6.48,5.42-6.49,10.82-13,16.29-19.45,3.43-4.05,7.31-5.12,11.55-3.34,6.49,2.73,8.3,9.14,3.91,14.62-4.62,5.77-9.45,11.37-14.21,17.05C341,385.07,338.27,388.28,335.36,391.72Zm50-8.31c-7.94,10-16.21,19.73-24.46,29.69l-15.57-13.18c8.31-9.79,16.37-19.52,24.74-29,3.67-4.14,9.07-4.05,13.26-.49C387.2,373.72,388.45,379.51,385.36,383.41Z"/><path class="cls-2" d="M540,351.58c-104.45,0-189.42,85-189.42,189.42s85,189.41,189.42,189.41,189.42-85,189.42-189.41S644.45,351.58,540,351.58Zm176.44,188H539.83V364.54H540C636.83,364.54,715.68,442.94,716.44,539.6ZM363.54,541c0-.16,0-.32,0-.48H539.84V717.45C442.61,717.36,363.54,638.24,363.54,541Z"/></g></svg>