<svg xmlns="http://www.w3.org/2000/svg" viewBox="0 0 1080 1080"><defs><style>.cls-1{fill:#f6f6f6;}.cls-2{fill:#c3c3c3;}</style></defs><g id="background"><rect class="cls-1" y="1079" width="1" height="1"/><rect class="cls-1" width="1" height="1"/><rect class="cls-1" y="1079" width="1" height="1"/><rect class="cls-1" x="1079" width="1" height="1"/><rect class="cls-1" x="1079" y="1079" width="1" height="1"/><rect class="cls-1" x="1079" y="1079" width="1" height="1"/></g><g id="Capa_1" data-name="Capa 1"><path class="cls-2" d="M216.12,540.09c0-5.88-.32-11.78.09-17.64.47-6.7,1.55-13.37,2.46-20,.66-4.87,1.33-9.75,2.27-14.58.86-4.43,2-8.82,3.17-13.19a275.46,275.46,0,0,1,11.2-33.58,291.73,291.73,0,0,1,18.25-36.66,271.18,271.18,0,0,1,23.78-34.08c9.17-11.19,18.71-22.08,29.8-31.49,3.77-3.21,7.37-6.63,11.14-9.85a263.07,263.07,0,0,1,34-24.91c9.77-5.94,19.64-11.8,29.87-16.89,10.69-5.31,21.7-10.05,32.86-14.3,10.41-4,21.09-7.31,31.83-10.27,9.22-2.54,18.67-4.29,28.07-6.13,7.22-1.43,14.51-2.62,21.81-3.61,4.89-.66,9.86-.85,14.8-1.13,8.44-.48,16.88-.94,25.33-1.27,3.37-.13,6.75.11,10.13.21,2.6.07,5.21.1,7.81.29,6.09.43,12.17.95,18.25,1.42.65.05,1.31.11,2,.11,9.53,0,18.78,2.16,28.11,3.73a200.59,200.59,0,0,1,20.17,4.07c6.61,1.81,13.35,3.17,19.88,5.2,8.42,2.61,16.8,5.41,25,8.64,8.81,3.46,17.47,7.37,26.08,11.35a280.12,280.12,0,0,1,46.08,27c9,6.44,17.75,13.26,26,20.55,8.79,7.72,17.22,15.93,25.24,24.46a235.61,235.61,0,0,1,18.58,22.54,324,324,0,0,1,19.6,30.06A251.57,251.57,0,0,1,845.86,444c2.58,6.66,5.18,13.33,7.15,20.18,2.37,8.21,4.21,16.58,6,24.93,1.42,6.57,2.52,13.22,3.59,19.85.35,2.17,0,4.45.29,6.65,1.57,13.42,1.14,26.91.66,40.33a173.68,173.68,0,0,1-2.14,21.69c-1.67,10.24-3.69,20.35-6.28,30.38a242.08,242.08,0,0,1-11.4,33.5,267.48,267.48,0,0,1-16.88,33.84q-5.29,8.85-11.37,17.22c-5.79,8-11.72,15.89-18,23.55-4.17,5.14-8.89,9.82-13.46,14.62a238,238,0,0,1-24.79,22.73c-7,5.55-14.17,11-21.56,16.05-8,5.44-16.15,10.56-24.45,15.46a301.42,301.42,0,0,1-35.67,17.64c-8.12,3.44-16.47,6.39-24.83,9.25a348.35,348.35,0,0,1-38.19,10.46c-8.46,1.86-17.12,2.91-25.71,4.08-6,.83-12.15,1.1-18.2,1.88-13.51,1.73-27.08,1.31-40.64,1.21-6.74-.05-13.48-.78-20.22-1.23-3.64-.24-7.28-.44-10.89-.83-5-.54-10.06-1-15-1.92-7.9-1.37-15.81-2.77-23.61-4.64-9.43-2.26-18.84-4.74-28.09-7.67-10-3.17-20-6.51-29.69-10.58-13.79-5.8-27.38-12.13-40.06-20.16-9.56-6-19.15-12.08-28.44-18.52a207.55,207.55,0,0,1-16.41-13.22c-5.82-5-11.56-10.07-17.1-15.36-4.62-4.41-9.06-9-13.32-13.8A252.71,252.71,0,0,1,264,692.1c-5.4-8.26-10.58-16.69-15.53-25.22a237.52,237.52,0,0,1-17.07-37.53A265.76,265.76,0,0,1,221,592.73c-1.59-7.46-2.12-15.14-3.38-22.68C216,560.11,216.14,550.09,216.12,540.09Zm58.09-6.45c.1,9.24-.41,19.56,1.49,29.8,1.37,7.39,1.86,14.95,3.47,22.27,1.89,8.59,4.41,17.06,6.95,25.49A233.11,233.11,0,0,0,299,643.87a288.35,288.35,0,0,0,17.43,31.42,313.13,313.13,0,0,0,32,41.81A262.36,262.36,0,0,0,376.68,744a219.71,219.71,0,0,0,43,27.53,183.88,183.88,0,0,0,28.22,11.13A115.18,115.18,0,0,0,470.78,787a55.21,55.21,0,0,0,12.81-.77,45.07,45.07,0,0,0,28-15c8.54-9.67,12.59-21.3,13.41-33.87a292.52,292.52,0,0,0,0-31.34,26.66,26.66,0,0,0-11-20.7c-4.49-3.42-9.6-5.74-14.75-7.87s-10.27-3.67-15.44-5.41c-8.86-3-17.75-5.9-26.61-8.89A126,126,0,0,1,430.36,651,80.24,80.24,0,0,1,415,639c-4.54-4.67-9.26-9.19-13.52-14.11a122.23,122.23,0,0,1-15.72-23.23,143,143,0,0,1-10.17-24.49c-2.2-7.18-3.79-14.56-5.44-21.89-1.51-6.71-2.83-13.46-4.07-20.22-2-11-3.68-22-5.89-33-1.76-8.76-4.1-17.4-6.22-26.08-2.45-10.06-6.16-19.63-12.21-28.09-5.39-7.52-11.83-13.88-21.05-16.69C313.53,429,307,430,301,434.81a46.23,46.23,0,0,0-11.17,13.47,94.39,94.39,0,0,0-8.9,22.43,163.76,163.76,0,0,0-3.9,19.43c-.52,3.72-1,7.47-1.31,11.21-.57,6.22-1.14,12.44-1.48,18.67C274,524.19,274.21,528.39,274.21,533.64Zm530.43-.36.91,0c-.84-12.62-1.24-25.28-2.66-37.83a150.08,150.08,0,0,0-6.86-31.5c-2.89-8.48-6.65-16.42-12.29-23.36-3.23-4-7-7.49-12.08-9-9.74-2.83-18,.61-25.31,6.68-7.77,6.46-13.09,14.84-16.81,24.17a118,118,0,0,0-6.67,23.19c-1.26,7.14-3.28,14.15-4.69,21.28-2.18,11.05-4,22.17-6.22,33.22-2,10.3-4,20.66-6.65,30.79a139,139,0,0,1-16,37.93,157.33,157.33,0,0,1-18.58,24A105.87,105.87,0,0,1,628.48,661c-7.32,2.62-14.77,4.87-22.12,7.4-8.85,3-17.73,6-26.46,9.34-5.83,2.24-11.53,4.93-16.35,9a25.84,25.84,0,0,0-7.64,11.14c-2,5.66-2.07,11.55-2.38,17.33a153.37,153.37,0,0,0,.49,21.09c.76,8.83,2.64,17.13,6.69,25,8.89,17.24,23.6,24.87,42.38,25.76,8.28.4,16.32-1.28,24.23-3.36a167.57,167.57,0,0,0,38.6-15.54,277.76,277.76,0,0,0,25.45-15.92,223.78,223.78,0,0,0,22.27-17.74,269.42,269.42,0,0,0,20.59-21.34c6.86-7.82,13.47-15.91,19.54-24.36a294.25,294.25,0,0,0,16.87-26.3,242,242,0,0,0,17.62-37.43c2.73-7.57,5.18-15.26,7.38-23,1.91-6.71,3.23-13.58,4.9-20.35,2.32-9.37,3.18-18.95,4-28.51C805.09,546.65,804.64,539.94,804.64,533.28ZM554.18,544.05c0,11.52,0,23,0,34.54.06,14.13-.05,28.26.37,42.37.22,7.24,3.19,13.43,10,17a21.48,21.48,0,0,0,10.94,2.32c6.23-.23,12.44-1.07,18.67-1.25,8.09-.22,15.63-2.68,23-5.59a68,68,0,0,0,21-13.79c8.88-8.21,16.45-17.47,21.86-28.29a247.48,247.48,0,0,0,11-25c3.5-9.49,6.29-19.26,9.06-29,2.3-8.1,3.64-16.41,5.06-24.73,1.65-9.69,1.37-19.46,2.48-29.15.25-2.13-.73-4.38-.67-6.56a51.19,51.19,0,0,0-2.07-15c-3.59-13.09-12.79-21.82-27.23-21.84q-36.9,0-73.79,0a29.48,29.48,0,0,0-8.84,1.18c-12.89,4.14-18.48,12.29-20.46,25.4-.58,3.85-.35,7.83-.36,11.75Q554.16,511.29,554.18,544.05Zm-28.75.55c0-25.38,0-50.75,0-76.12a30.62,30.62,0,0,0-1-7.3,26.53,26.53,0,0,0-13.17-17.13c-5.26-3-11.09-3.8-16.91-3.85-23.8-.17-47.6-.11-71.41,0a30.36,30.36,0,0,0-9.21,1.26,26.42,26.42,0,0,0-16.83,15.79,59.43,59.43,0,0,0-4.29,22.88c.08,6.12.33,12.26.79,18.36a169.26,169.26,0,0,0,2,18.15,311.39,311.39,0,0,0,9.63,38.09c3.2,10.06,6.6,20,11.29,29.5A187.49,187.49,0,0,0,426,601.5a89.58,89.58,0,0,0,18.38,20.58,70.16,70.16,0,0,0,19.23,11.83,78.93,78.93,0,0,0,21.48,5.32c6.87.65,13.69,1.52,20.6,1.34,4.26-.1,8.39-1.07,11.75-3.66a19.48,19.48,0,0,0,8-16.2C525.39,595.34,525.43,570,525.43,544.6ZM339.76,367.38c3.31,1.38,5.66,2.35,8,3.34,3.84,1.62,7.77,3.16,10.48,6.53,3.34,4.17,6.52,8.46,9.86,12.63,6.57,8.23,15.19,12.77,25.68,12.82,34.14.15,68.27.06,102.4,0a39.33,39.33,0,0,0,10.05-1.11c5.6-1.51,10.52-4.25,14.17-9.14,5-6.73,6.36-14.54,6.51-22.48.3-16.6.12-33.22.07-49.83a41.58,41.58,0,0,0-2.8-16.09c-5.56-13.12-18.48-23-35.44-19.92-6.76,1.21-13.57,2.29-20.19,4.1-8.88,2.43-17.7,5.2-26.34,8.39-6.81,2.51-13.3,5.88-19.94,8.85a254.86,254.86,0,0,0-36.38,20.41c-14.06,9.32-27.22,19.82-38.7,32.27C344.75,360.77,342.66,363.74,339.76,367.38Zm399.7.18a31.46,31.46,0,0,0-2.31-4.16,72.38,72.38,0,0,0-7.07-8.32c-5.73-5.33-11.8-10.28-17.61-15.52-8.07-7.29-17.23-13.09-26.33-18.9a269.59,269.59,0,0,0-33-17.67,263.22,263.22,0,0,0-29-11.42,196.9,196.9,0,0,0-31.78-7.46c-6.67-1-13.32-1.29-19.81,2.11-12.26,6.42-18.75,16.46-19,30-.39,18.17,0,36.36-.07,54.55a39.38,39.38,0,0,0,3.11,15.92c3.51,8.11,9.59,13.17,18.22,14.91a56.13,56.13,0,0,0,10.83,1q49.63.15,99.29.08c8.28,0,15.91-2.46,22.26-8a65,65,0,0,0,11.35-13.41,26.65,26.65,0,0,1,14.74-10.92A68,68,0,0,0,739.46,367.56Z"/></g></svg>