<svg xmlns="http://www.w3.org/2000/svg" viewBox="0 0 1080 1080"><defs><style>.cls-1{fill:#f6f6f6;}.cls-2{fill:#c3c3c3;}</style></defs><g id="background"><rect class="cls-1" x="1079" y="1079" width="1" height="1"/><rect class="cls-1" width="1" height="1"/><rect class="cls-1" x="1079" y="1079" width="1" height="1"/><rect class="cls-1" x="1079" width="1" height="1"/><rect class="cls-1" y="1079" width="1" height="1"/><rect class="cls-1" y="1079" width="1" height="1"/></g><g id="Capa_1" data-name="Capa 1"><path class="cls-2" d="M79.8,628.56V594.83h3.09q72.72,0,145.44-.1c19.08,0,38.16-.21,57.24-.38a37.55,37.55,0,0,0,15.44-3c6.77-3.06,10.47-8.16,10.4-15.76s-3.91-12.45-10.62-15.33a38.78,38.78,0,0,0-15.48-2.76q-79.49-.22-159-.47c-14.4,0-28.8,0-43.2,0H79.89V523.42h3q85.5,0,171-.11,17,0,34-.42a40.15,40.15,0,0,0,9.31-1.39c9.18-2.47,14.45-9.13,14.19-17.52s-6.33-15-15.47-16.81a54,54,0,0,0-10.14-1q-101.73-.32-203.45-.5H79.87V452.09c.79,0,1.53-.13,2.27-.13q95.85.1,191.7.26c11.31,0,22.65-.14,33.75,2.8,13,3.43,24.1,9.69,32.26,20.61a48.29,48.29,0,0,1-2.6,61.35c-.9,1-1.83,2-2.86,3.12a12.46,12.46,0,0,0,1,1.39c24.48,25.16,16.39,65.51-17,80.31A71.6,71.6,0,0,1,289.9,628q-56.74.46-113.48.59c-31.18.08-62.37,0-93.55,0Z"/><path class="cls-2" d="M729.11,485.61v-33.5c.81-.06,1.55-.18,2.28-.17q77.07.35,154.13.75c12.85.08,25.71.37,38.42,2.82a104,104,0,0,1,38.32,15.41c19.19,12.73,31.17,30.41,35.85,52.8,6.81,32.56-7.32,66.33-34.89,85.08a99.8,99.8,0,0,1-51,17.56c-21.08,1.21-42.22,1.63-63.33,1.81-39.19.34-78.39.24-117.58.32-.66,0-1.33-.06-2-.1V594.52h4c26.41.05,52.82.24,79.24.12,26.24-.11,52.48-.46,78.71-.87,12.2-.19,24.37-1,35.9-5.54,17.56-7,29.44-19.13,33.42-37.9,4.58-21.66-5.48-42.94-25-54.07a68.82,68.82,0,0,0-33.17-9c-37.22-.74-74.44-1.16-111.67-1.51-19.85-.19-39.7,0-59.56.05C730.56,485.76,730,485.68,729.11,485.61Z"/><path class="cls-2" d="M571.09,628.47H525.16v-99.9h3.09c31.77-.06,63.54-.08,95.31-.24a67.11,67.11,0,0,0,11.9-1.24c7.43-1.38,11.51-6.24,12.64-13.52a81.79,81.79,0,0,0,1-11.9c.11-15.48,0-30.95,0-46.43v-3.13h38.9c.05,1.06.14,2,.13,2.89-.08,20.66,0,41.33-.34,62a113.8,113.8,0,0,1-2,18.21c-2.48,14-11.16,22-24.93,24.92-11.26,2.38-22.69,2.24-34.09,2.39-17.54.23-35.09.12-52.63.16h-3.16Z"/><path class="cls-2" d="M391,452.06h38.78c.06,1.17.15,2.23.15,3.3q.15,26.91.32,53.82a25,25,0,0,0,.73,5.29c1.73,7.62,6.18,11.86,14.15,13a99,99,0,0,0,13.22.91c15.24.15,30.49.14,45.73.18h3.24v34.1h-2.63c-17.46,0-34.92.23-52.38-.1-10.87-.21-21.77-.91-32.57-2.13-4.5-.5-9.06-2.42-13.13-4.56-8.06-4.23-11.85-11.8-13.45-20.35a112.14,112.14,0,0,1-2-18.71c-.3-20.83-.22-41.66-.28-62.5C390.88,453.65,391,453,391,452.06Z"/></g></svg>