<svg xmlns="http://www.w3.org/2000/svg" viewBox="0 0 1080 1080"><defs><style>.cls-1{fill:#f6f6f6;}.cls-2{fill:#c3c3c3;}</style></defs><g id="background"><rect class="cls-1" x="1079" y="1079" width="1" height="1"/><rect class="cls-1" width="1" height="1"/><rect class="cls-1" x="1079" y="1079" width="1" height="1"/><rect class="cls-1" x="1079" width="1" height="1"/><rect class="cls-1" y="1079" width="1" height="1"/><rect class="cls-1" y="1079" width="1" height="1"/></g><g id="Capa_1" data-name="Capa 1"><path class="cls-2" d="M520.65,257.67c-73.22,1.4-161.4,14.11-212.61,44.85-33,20-73.62,60.78-86.08,123.53s-6.7,123.88,5.59,186.7,36.9,133.14,105.08,169.36S446.55,822.63,540,822.36c93.45.27,139.18-4,207.37-40.25s92.79-106.54,105.08-169.36,18-123.94,5.59-186.7S805,322.53,772,302.52c-66.54-36.6-139.74-43.63-212.61-44.85C546.07,257.76,532.94,257.53,520.65,257.67ZM616,274.57c27,2.58,94.69,7.82,145.33,38s73.27,68.58,82.72,115.15,8.64,105.45-4.47,180S789.83,744.26,740.1,770.38,627.23,810.32,540,809c-87.23,1.35-150.36-12.47-200.1-38.59s-86.39-88.13-99.49-162.67-13.93-133.42-4.47-180,32.09-85,82.72-115.15S437,277.15,464,274.57C514.49,270.38,566.14,270.05,616,274.57Zm-92.78,13c-41.51.51-85.94,5.59-116.35,12.13-34.75,7.47-46.64,10.1-76.61,28s-66.82,54.43-78.13,110.64-6.07,111,5.08,167.22,33.49,119.26,95.37,151.7c102.85,53.57,274.55,51.43,374.82,0,61.88-32.44,84.22-95.43,95.37-151.7s16.38-111,5.08-167.22-48.16-92.71-78.13-110.64-41.86-20.56-76.61-28c-30.41-6.54-74.84-11.62-116.35-12.13C545.26,287.61,533.88,287.4,523.23,287.53Zm81.63,27c11.29,1.05,30.79,2.67,52.84,6.92,3.27.67,5.1,1.72,4.39,4.83-35.46,86-73.34,172.05-112.85,258.06-5.33,11.41-12.06,11.84-17.51,2.11C491.87,499.77,453.66,413,417.91,326.31c-.71-3.11,1.12-4.16,4.39-4.83,22.05-4.25,41.55-5.87,52.84-6.92A765.55,765.55,0,0,1,604.86,314.56ZM386.64,330.83c2-.05,2.7,1.28,2.63,3.8l0-.07V479.28c0,45.68,7.47,67.1,27.67,104.35l96.82,178.29c3.31,6.3-2,5.89-7.88,6C448.17,765.39,404,754.17,368,735.57,325,713.4,293.32,660.74,282,597.45s-12-113.3-3.86-152.84,27.72-72.14,71.46-97.78a187.89,187.89,0,0,1,34.69-15.52A8.43,8.43,0,0,1,386.64,330.83Zm306.72,0a8.43,8.43,0,0,1,2.35.48,187.89,187.89,0,0,1,34.69,15.52c43.74,25.64,63.29,58.24,71.46,97.78s7.45,89.55-3.86,152.84-43,115.95-86,138.12c-36,18.6-80.22,29.82-137.95,32.3-5.83-.06-11.19.35-7.88-6L663,583.63c20.2-37.25,27.67-58.67,27.67-104.35V334.56l0,.07C690.66,332.11,691.34,330.78,693.36,330.83Z"/></g></svg>