<svg xmlns="http://www.w3.org/2000/svg" viewBox="0 0 1080 1080"><defs><style>.cls-1{fill:#f6f6f6;}.cls-2{fill:#c3c3c3;}</style></defs><g id="background"><rect class="cls-1" y="1079" width="1" height="1"/><rect class="cls-1" width="1" height="1"/><rect class="cls-1" x="1079" y="1079" width="1" height="1"/><rect class="cls-1" x="1079" y="1079" width="1" height="1"/><rect class="cls-1" y="1079" width="1" height="1"/><rect class="cls-1" x="1079" width="1" height="1"/></g><g id="Capa_1" data-name="Capa 1"><path class="cls-2" d="M565.77,398.14q43.9.72,87.62,4.74c44.44,4.09,88.52,10.54,132,20.72,31.46,7.37,62.39,16.45,92.15,29.18,21.25,9.1,41.66,19.71,59.57,34.56,9.92,8.22,18.69,17.49,24.43,29.17,9.84,20,6.71,38.78-6,56.41-9.79,13.61-22.74,23.75-36.76,32.61-25.29,16-52.82,27-81.14,36.11-34.83,11.25-70.46,19.1-106.53,25.15-30.59,5.12-61.36,8.64-92.28,11.13a1191.93,1191.93,0,0,1-144,3q-40.75-1.67-81.43-5.55c-47.66-4.56-94.8-12.49-141.1-24.89-33.92-9.08-67.08-20.29-98-37.2-16.74-9.14-32.45-19.72-45.09-34.25-8-9.16-14-19.37-15.91-31.56-2.27-14.31,1.8-27.1,9.77-38.85,8.89-13.1,20.8-23,33.83-31.71,23.74-15.81,49.78-26.77,76.63-36a654,654,0,0,1,105.64-26.32q37.64-6.19,75.57-10.48c32.11-3.61,64.38-5.36,96.71-5.92Zm-14.33,238c13.72-.44,33.65-.51,53.5-1.86,27.13-1.83,54.21-4.57,81.29-7.06,7.33-.67,14.42-2.49,20.7-6.56,6.81-4.42,9.42-10.91,7.27-18.72a30.68,30.68,0,0,0-3.94-9.4c-4.22-6-8.49-12.2-13.63-17.43a1220.46,1220.46,0,0,0-107.42-97.28c-8.94-7.17-17.72-14.55-27.92-20.05-13.63-7.36-27.29-8.32-41-.64a133.76,133.76,0,0,0-16.81,10.73,1182.52,1182.52,0,0,0-96.42,83.75c-9,8.68-17.9,17.46-26.59,26.44-6.47,6.69-12,14.1-14.56,23.3-2.35,8.62.17,15.64,8.12,19.72a50.9,50.9,0,0,0,16.68,5.56c21,2.51,42.13,4.52,63.24,6.3C484.33,635.5,514.79,636,551.44,636.14Zm-22.2-217.28c-1.75,0-2.75,0-3.75,0-25.15,1.06-50.35,1.46-75.44,3.39-26.27,2-52.5,4.92-78.61,8.49a631.4,631.4,0,0,0-94.82,20.3c-24,7.14-47.43,15.59-69.09,28.36-11.38,6.72-22,14.45-29.93,25.26-10.87,14.76-10.95,30.7,0,45.41a75.9,75.9,0,0,0,9.69,10.66c11.53,10.52,25,18,39.1,24.54,22.87,10.62,44.6,8.49,65-6.18q90.14-64.89,180.15-129.93c14.57-10.47,29.59-20.34,46.57-26.68C521.5,421.22,525,420.22,529.24,418.86Zm23.14.09c6.35,2.55,13.8,4.71,20.41,8.38,12,6.63,23.86,13.52,35,21.43C649.7,478.59,691.3,508.88,733,539c19.36,14,38.49,28.28,58.16,41.81,18.41,12.66,38.45,14.56,59.14,5.93a162.45,162.45,0,0,0,35.37-20.12c7.74-5.83,14.72-12.43,19.62-20.94,5.74-10,7-20.33,2.61-31.15A52.42,52.42,0,0,0,896,497.25c-11.26-11.31-24.8-19.27-39-26.1-26.47-12.7-54.42-21.08-82.88-27.9a820.93,820.93,0,0,0-127.35-19.77c-28.13-2.21-56.37-3.08-84.56-4.5C558.65,418.8,555.06,419,552.38,419Z"/></g></svg>