<svg xmlns="http://www.w3.org/2000/svg" viewBox="0 0 1080 1080"><defs><style>.cls-1{fill:#f6f6f6;}.cls-2{fill:#c3c3c3;}</style></defs><g id="background"><rect class="cls-1" y="1079" width="1" height="1"/><rect class="cls-1" width="1" height="1"/><rect class="cls-1" y="1079" width="1" height="1"/><rect class="cls-1" x="1079" width="1" height="1"/><rect class="cls-1" x="1079" y="1079" width="1" height="1"/><rect class="cls-1" x="1079" y="1079" width="1" height="1"/></g><g id="Capa_1" data-name="Capa 1"><path class="cls-2" d="M965,454.41c-1.1,2.59-1.77,4.45-2.66,6.21-25.28,50.18-50.83,100.23-75.66,150.64-4.33,8.79-9.3,11.68-19,11.6-56.37-.48-112.74-.24-169.11-.24h-6.2v53.14H387.63V623H115c1.26-3.08,2.07-5.44,3.15-7.67q18.57-38.43,37.2-76.84C167.69,513,180.14,487.58,192.24,462c2.53-5.34,5.78-7.44,11.73-7.42q88.7.26,177.39.11h5.81V404.24H691.72v50.17Zm-317.78,1.24h-212v48.41h-6.08q-97,0-193.95-.09c-5.26,0-8.25,1.86-10.44,6.56-8.6,18.42-17.48,36.71-26.25,55.05-.7,1.48-1.32,3-2.31,5.25h239.7v50.78h211.7V570.47h6q92.18,0,184.36.11c4.39,0,7.86-.81,10.1-5.13,9.91-19.07,20-38.05,30-57.07.63-1.21,1-2.53,1.89-4.58H647.22Z"/></g></svg>