<svg xmlns="http://www.w3.org/2000/svg" viewBox="0 0 1080 1080"><defs><style>.cls-1{fill:#f6f6f6;}.cls-2,.cls-3{fill:#c3c3c3;}.cls-2{fill-rule:evenodd;}</style></defs><g id="background"><rect class="cls-1" y="1079" width="1" height="1"/><rect class="cls-1" width="1" height="1"/><rect class="cls-1" y="1079" width="1" height="1"/><rect class="cls-1" x="1079" width="1" height="1"/><rect class="cls-1" x="1079" y="1079" width="1" height="1"/><rect class="cls-1" x="1079" y="1079" width="1" height="1"/></g><g id="Capa_1" data-name="Capa 1"><path class="cls-2" d="M140.92,507c-9.14.82-18.28,1.46-28.2,1.46-32.3,0-59.72-8.6-59.72-27.79S80.42,453,112.72,453c9,0,18.27.64,27.25,1.52l1.73,9.24a179.86,179.86,0,0,0-29-2.26c-21,0-35.92,7.08-35.92,19.19S91.76,500,112.72,500A197.84,197.84,0,0,0,143,497.65L140.92,507Z"/><polygon class="cls-2" points="183.86 453.97 206.91 453.97 206.91 475.17 257.9 475.17 257.9 453.97 280.96 453.97 280.96 507.52 257.9 507.52 257.9 483.69 206.91 483.69 206.91 507.52 183.86 507.52 183.86 453.97 183.86 453.97"/><path class="cls-2" d="M324.11,454h51.6c22,0,37.06,4.75,37.06,13.58,0,9.79-11.5,13.39-29.62,15.48l30,24.49H386.2L354.57,477.9c3.21.16,7.61.49,10,.49,12.69,0,24-2.74,24-9.09,0-3.85-3.72-7.46-17.6-7.46H348.3v45.68H324.11V454Z"/><polygon class="cls-2" points="479.21 484.88 439.96 453.97 467.88 453.97 492.91 475.73 518.97 453.97 546.71 453.97 504.75 485.76 504.75 507.52 479.21 507.52 479.21 484.88 479.21 484.88"/><path class="cls-2" d="M571.64,496.53A179.49,179.49,0,0,0,604.85,500c8.77,0,19.78-1.45,19.78-5.93,0-7.7-50.93-14.93-50.93-27.62,0-6.91,11.38-13.41,41.6-13.41,9.89,0,20,.57,29.67,1.45l2.78,9.38a170.93,170.93,0,0,0-26.11-2.33c-14.18,0-19.79,3.31-19.79,5.72,0,8.5,50.93,14.28,50.93,27.28,0,6.28-10.24,14-42.72,14-11.94,0-23.69-1-35.43-2.1l-3-9.86Z"/><polygon class="cls-2" points="692.58 453.97 718.12 453.97 718.12 499.01 771.25 499.01 771.25 507.52 692.58 507.52 692.58 453.97 692.58 453.97"/><polygon class="cls-2" points="897.75 462.49 838.04 462.49 838.04 476.45 890.11 476.45 890.11 484.33 838.04 484.33 838.04 499.01 897.75 499.01 897.75 507.52 811.22 507.52 811.22 453.97 897.75 453.97 897.75 462.49 897.75 462.49"/><path class="cls-2" d="M938,454h51.61c22,0,37,4.75,37,13.58,0,9.79-11.49,13.39-29.59,15.48L1027,507.52h-26.91L968.45,477.9c3.23.16,7.63.49,10,.49,12.69,0,24-2.74,24-9.09,0-3.85-3.72-7.46-17.6-7.46H962.2v45.68H938V454Z"/><path class="cls-3" d="M539,557.84c-43.05,0-77.95,23.44-77.95,52.32S496,662.52,539,662.52s78-23.44,78-52.36S582.06,557.84,539,557.84Zm0,101.32c-25.17,0-48.49-8.3-62.41-22.24-8-8-12.21-17.26-12.21-26.78s4.23-18.77,12.21-26.77c13.92-13.91,37.24-22.22,62.41-22.22s48.48,8.31,62.4,22.22c8,8,12.22,17.24,12.22,26.77C613.62,637.17,580.15,659.16,539,659.16Z"/><path class="cls-2" d="M496.1,644.27a61.82,61.82,0,0,1-15.7-11.15c-4.84-4.86-10.62-12.77-10.62-23s5.78-18.11,10.62-23A61.14,61.14,0,0,1,496,576.1a55.82,55.82,0,0,0,.07,68.17Z"/><path class="cls-2" d="M608.22,610.14c0,10.21-5.76,18.12-10.64,23a61.76,61.76,0,0,1-15.66,11.15A55.86,55.86,0,0,0,582,576.1a60.91,60.91,0,0,1,15.59,11.08C602.46,592,608.22,600,608.22,610.14Z"/><path class="cls-2" d="M709.24,587.09c-43.43,0-66.59-.76-71.44-1a61.48,61.48,0,0,1-14.46-2.4,29.64,29.64,0,0,1,3.59,5.81,53.37,53.37,0,0,1,3.16,8.19s0-3.38,4.33-3.38,111.5,0,178.12-2.91c29.54-1.28,55.19-2.85,75.56-4.45a68.09,68.09,0,0,1-15.25,5.42c-10.13,2.42-25.63,5.32-113.42,7.74s-107.15,1.91-117.76,1.91-11.11-1.45-11.11-1.45a22.48,22.48,0,0,1,1.23,6.48,41.54,41.54,0,0,1-.26,8.81,11.44,11.44,0,0,1,10.62-7.23c9.16-.11,60.16-.81,148-4.17,3.78-.16,7.4-.33,10.9-.51-4.66,1.91-18.19,6.74-39.7,8.27-27,2-58.39,2-82.52,2s-34.59,1.35-49.24,10.62c-16.45,10.4-23.55,23.54-48.75,33.49a107.81,107.81,0,0,1-41,7.37v0a107.87,107.87,0,0,1-41-7.37c-25.2-9.95-32.3-23.09-48.74-33.49-14.65-9.27-25.1-10.62-49.24-10.62s-55.5-.09-82.53-2c-21.49-1.53-35-6.36-39.7-8.27,3.51.18,7.13.35,10.91.51,87.85,3.36,138.84,4.06,148,4.17a11.46,11.46,0,0,1,10.62,7.23,41.1,41.1,0,0,1-.27-8.81,23.21,23.21,0,0,1,1.22-6.48s-.48,1.45-11.09,1.45-30,.5-117.76-1.91S217,594.82,206.87,592.4A67.51,67.51,0,0,1,191.63,587c20.36,1.6,46,3.17,75.57,4.45,66.61,2.91,173.76,2.91,178.1,2.91s4.34,3.38,4.34,3.38a52.75,52.75,0,0,1,3.15-8.19,28.71,28.71,0,0,1,3.62-5.81,61.93,61.93,0,0,1-14.49,2.4c-4.85.21-28,1-71.44,1s-113.89-2.89-161.68-3.86-82.54-7.72-82.54-7.72,5.32,2.9,16.42,5.79c6.14,1.6,23.25,3.65,48.57,5.66,2.16,2.08,16.81,13.2,86.48,17,3.74,2.85,20.54,13.06,71.5,14.14,60.93,1.31,73.78.28,85.57,4.55,22.58,8.22,31.31,24.16,53.54,34.42,20.56,9.45,35.11,11.66,51.49,11.68h.06c16.39,0,31-2.23,51.49-11.68,22.23-10.26,30.94-26.2,53.53-34.42,11.81-4.27,24.66-3.24,85.6-4.55,50.94-1.08,67.76-11.29,71.48-14.14,69.66-3.78,84.31-14.9,86.48-17,25.34-2,42.43-4.06,48.59-5.66,11.1-2.89,16.41-5.79,16.41-5.79s-34.75,6.76-82.54,7.72-118.26,3.86-161.69,3.86Z"/><path class="cls-2" d="M935,583.71a214.32,214.32,0,0,1-44.76,4.68s-4.7,7.25-29,12.8c-17,3.88-55.42,4.68-55.42,4.68s-3.4,8.1-32.4,11.94c-35.8,4.74-64,3.33-92.18,4.19s-35.79,4.22-49.36,12.87c-14.07,9-28.07,20.29-45,27.85-9.56,4.29-26.21,8.25-40.3,8.81a54.53,54.53,0,0,1-6.69,0h-.12a55,55,0,0,1-6.71,0C519,671,502.34,667,492.81,662.72c-16.9-7.56-30.91-18.89-45-27.85-13.59-8.65-21.23-12-49.36-12.87s-56.39.55-92.19-4.19c-29-3.84-32.4-11.94-32.4-11.94s-38.38-.8-55.41-4.68c-24.31-5.55-29-12.8-29-12.8a214.39,214.39,0,0,1-44.77-4.68c-27.36-6.09-26.86-12.79-26.86-12.79s125.78,5.21,189.72,6.39c69.05,1.29,76.72.85,112.54.85,33.25,0,40-3.42,61-12.79,25.67-11.46,50.69-11.9,57.13-11.9,17.71,0,36.33,1.77,60.4,11.9,21.16,8.9,27.71,12.79,61,12.79,35.81,0,43.48.44,112.54-.85,63.93-1.18,189.73-6.39,189.73-6.39s.51,6.7-26.87,12.79l-159.88-8.53c-79.28.91-126.18,2.56-144.08-1.28s-35.19-14.07-51.78-18.15a180.3,180.3,0,0,0-40.5-5.12c-6.8,0-21.53,1-38.16,4.87s-34,14.56-51.9,18.4-64.81,2.19-144.1,1.28c-73.75-.86-191.42-5.55-191.42-5.55s6,10.66,30.26,16.22c18.67,4.25,45.2,4.67,45.2,4.67a82.19,82.19,0,0,0,30.27,13.22C240.23,608,273.05,608,273.05,608s6,8.53,33.25,11.94c31,3.87,51.17,5.55,82.29,6s40.92,3.85,47.74,6.84c17.92,7.84,31.55,22.15,54.57,32.83,22.42,10.37,47.65,9.42,49,9.37s26.54,1,49-9.37c23-10.68,36.65-25,54.57-32.83,6.81-3,16.62-6.41,47.74-6.84s51.33-2.09,82.28-6C800.7,616.53,806.68,608,806.68,608s32.81,0,54.12-4.26a82.18,82.18,0,0,0,30.28-13.22s26.54-.42,45.21-4.67c24.28-5.56,30.27-16.22,30.27-16.22s-117.67,4.69-191.44,5.55L935,583.71Z"/><path class="cls-3" d="M557.33,652.92l-6.91-9.81-.25.11a16.09,16.09,0,0,1-9,1.38,27.07,27.07,0,0,1-4.63-1,22.94,22.94,0,0,0-4.56-.8,20.62,20.62,0,0,1-4.81-.89A14.58,14.58,0,0,1,520.8,638c-.65-.69-1.25-1.44-1.86-2.17a16.45,16.45,0,0,0-2.3-2.27l-2.7-2.15a29.68,29.68,0,0,1-3.48-3.05A16.87,16.87,0,0,1,506,618.22a42,42,0,0,1,.16-6.73c.11-1.72.2-3.44.25-5.16.05-1.51,0-3,0-4.54a28,28,0,0,1,.52-4.92,15.28,15.28,0,0,1,3.9-7.74,20.49,20.49,0,0,1,3.81-3.08l3.52-2.31a15.52,15.52,0,0,0,3.54-3.13,14.11,14.11,0,0,1,1-1.08,13.4,13.4,0,0,1,9.46-4.19,24.69,24.69,0,0,1,5.15.4,55.23,55.23,0,0,0,6.79.84A14.11,14.11,0,0,1,549,577.7a31.7,31.7,0,0,1,4.56,2.44,32.34,32.34,0,0,0,4.92,2.56c.5.2,1,.42,1.48.65a15.32,15.32,0,0,1,6.45,5.4,17.24,17.24,0,0,1,2.32,5.77,51.22,51.22,0,0,1,.74,5.22,8.87,8.87,0,0,0,1.69,4.54c.36.48.69,1,1,1.47A13.2,13.2,0,0,1,574,612a16.23,16.23,0,0,1-2.55,10c-.06.1-.11.21-.17.32.76.68,1.5,1.34,2.25,2a3.37,3.37,0,0,1,1.17,2.18,4.18,4.18,0,0,1-.24,1.75q-2.33,7.59-4.64,15.2c-.24.77-.47,1.54-.74,2.43l-1,3.09c-.29,1-1.07,1.2-1.86.52-.6-.51-1.14-1.1-1.7-1.65l-.48-.46-.24.66c-.71,2.23-1.45,4.44-2.13,6.68-.34,1.1-1,1.47-2.12.74a10.28,10.28,0,0,1-1.06-.92c-.11-.11-.2-.24-.32-.38Zm-57.88-18.8,70.42-11.85c.44-.71.9-1.31,1.23-2a16.41,16.41,0,0,0,1.67-8.63,11.08,11.08,0,0,0-1.69-5.29c-.44-.67-.9-1.34-1.35-2a7,7,0,0,1-1.16-2.71c-.22-1.2-.4-2.41-.53-3.62a26.6,26.6,0,0,0-.78-4.51,13.58,13.58,0,0,0-4.55-7,17.73,17.73,0,0,0-4.53-2.59,34.31,34.31,0,0,1-5.44-2.84c-1-.67-2.17-1.27-3.28-1.85a14.6,14.6,0,0,0-6-1.48c-1.24-.08-2.48-.21-3.7-.41a44.42,44.42,0,0,0-5.86-.82,15.12,15.12,0,0,0-6.18,1A11.71,11.71,0,0,0,523,581a21.13,21.13,0,0,1-5,4.29c-1.39.89-2.78,1.8-4.13,2.75a13.74,13.74,0,0,0-5.58,8.25,26.89,26.89,0,0,0-.71,5.72c0,1.77,0,3.56,0,5.33a57.74,57.74,0,0,1-.37,6,23.73,23.73,0,0,0,0,5.65,15.84,15.84,0,0,0,4,8.5,35.7,35.7,0,0,0,4.12,3.55c1.1.88,2.2,1.74,3.22,2.71a32.16,32.16,0,0,1,2.32,2.62,13.78,13.78,0,0,0,5.63,4.05,19.32,19.32,0,0,0,5.35,1.16,24.83,24.83,0,0,1,4.46.72,30.19,30.19,0,0,0,5.48,1.16,14.72,14.72,0,0,0,6.48-.76c.75-.28,1.46-.65,2.23-1l.33.45q4,5.76,8,11.52a8,8,0,0,0,.79.95,1.51,1.51,0,0,0,.49.33.43.43,0,0,0,.64-.28,5.27,5.27,0,0,0,.19-.56c.72-2.22,1.43-4.44,2.16-6.66.34-1,1-1.18,1.75-.41l1.56,1.56a1.18,1.18,0,0,0,.73.41c.08-.19.15-.36.21-.54q2-6.46,4-12.94c.79-2.56,1.57-5.11,2.35-7.67a2.65,2.65,0,0,0-1-3.17c-.13-.09-.25-.2-.37-.3Z"/><path class="cls-3" d="M572.7,640.38l.75-2.46c1-3.47,2.12-6.94,3.17-10.41a5.48,5.48,0,0,0,.24-1.27,2.31,2.31,0,0,0-.84-2c-.53-.45-1-.92-1.58-1.38l-.46-.41c.11-.22.21-.43.32-.63a18.8,18.8,0,0,0,2.07-10.28,15.33,15.33,0,0,0-3.06-8.33,8.54,8.54,0,0,1-1.62-4.71,27.37,27.37,0,0,0-1.76-8,17,17,0,0,0-8.27-9c-.84-.44-1.71-.82-2.59-1.2a32.12,32.12,0,0,1-3.82-2c-1.48-.88-3-1.74-4.53-2.51a16.54,16.54,0,0,0-6.74-1.7,56,56,0,0,1-5.62-.68,39.71,39.71,0,0,0-5-.55,15.79,15.79,0,0,0-12.57,5.13,29,29,0,0,1-6,5,33.64,33.64,0,0,0-4.38,3.14,17.55,17.55,0,0,0-5.72,10,30.06,30.06,0,0,0-.6,4.92c-.07,1.79,0,3.59-.09,5.39-.05,1.54-.12,3.09-.22,4.63a51.92,51.92,0,0,0-.26,6,21.3,21.3,0,0,0,1.33,6.74,18.44,18.44,0,0,0,5.25,7.47c1.22,1,2.44,2.06,3.71,3a25,25,0,0,1,4.17,4.12,16.86,16.86,0,0,0,3.89,3.55,19.18,19.18,0,0,0,7.87,2.93c1.4.2,2.82.3,4.22.54,1.13.2,2.23.53,3.35.8a23.81,23.81,0,0,0,6.45.8,17.82,17.82,0,0,0,5.51-1l.36-.1,4.6,6.49-.49.18a57.17,57.17,0,0,1-9.67,2.13,41,41,0,0,1-9.26.06,43.29,43.29,0,0,1-9.62-2,45.29,45.29,0,0,1-22.29-16.11,44.79,44.79,0,0,1-8.09-18,45.19,45.19,0,0,1,9-37.45A45.14,45.14,0,0,1,527,565.83a43.57,43.57,0,0,1,9-1.61,45.65,45.65,0,0,1,8.67.17,43.52,43.52,0,0,1,14.47,4.21A45.3,45.3,0,0,1,582.5,595a42.52,42.52,0,0,1,2.28,11.16,41.83,41.83,0,0,1,0,7.59,45.18,45.18,0,0,1-2.55,10.83,49.92,49.92,0,0,1-9.07,15.45l-.34.38Z"/><path class="cls-3" d="M516.24,629.72a25.76,25.76,0,0,1-3.63-3.06,14.59,14.59,0,0,1-3.7-7.6c-.12-.7-.17-1.42-.25-2.18l53.69-28.55a8.22,8.22,0,0,1,1.42,1.53,12,12,0,0,1,2.31,5.62c.22,1.44.35,2.89.55,4.34.1.78.27,1.55.41,2.33,0,.14.05.28.08.45Zm8.42-6.66c.42-.23.76-.46,1.13-.63a.75.75,0,0,0,.46-.8c0-3.94,0-7.87,0-11.81,0-.17,0-.34,0-.59-.51.28-1,.52-1.4.8a.48.48,0,0,0-.15.36c0,.51,0,1,0,1.51v3.7l-1.83.95v-3.66c0-.58,0-1.16,0-1.82l-1.55.91c-.11,1.19-.06,12.48.06,12.93.37-.21.71-.44,1.08-.61a.72.72,0,0,0,.44-.76c0-1.65,0-3.31,0-5a.66.66,0,0,1,.46-.73c.35-.14.68-.34,1-.51.1,0,.22-.06.38-.11Zm37.2-25.31a3.46,3.46,0,0,0,1-2.62v-2.8a7.85,7.85,0,0,0,0-1,.93.93,0,0,0-1.27-.9,2.18,2.18,0,0,0-.56.19c-.87.46-1.73,1-2.61,1.4a.67.67,0,0,0-.38.68q0,6,0,12.08c0,.11,0,.23,0,.44l1.56-.91v-5.19l1.11-.55,2.26,3.7.91-.51c.75-.42.75-.42.71-1.28a.58.58,0,0,0-.06-.17l-.91.38ZM531.35,614a3.5,3.5,0,0,0,1-2.66c0-1.06,0-2.12,0-3.18a3.12,3.12,0,0,0-.06-.75.83.83,0,0,0-1-.71,2.3,2.3,0,0,0-.81.24c-.85.43-1.68.9-2.52,1.34a.77.77,0,0,0-.48.79c0,3.94,0,7.87,0,11.81,0,.17,0,.34,0,.61l1.56-.88v-5.2l1.11-.55,2.26,3.71c.52-.29,1-.54,1.42-.81a.44.44,0,0,0,.22-.27c0-.29,0-.58,0-.92l-1,.42Zm8.85-2.13c0,.52,0,1,0,1.45,0,.68.36.89,1,.67l2.17-.79a2,2,0,0,0,1.42-1.92c.05-1.58,0-3.16,0-4.74,0-.68-.36-.9-1-.67l-1.32.48a.41.41,0,0,1-.57-.25,1.15,1.15,0,0,1-.08-.41c0-1,0-2,0-3a.84.84,0,0,1,.6-.87c.12,0,.23-.1.35-.15.54-.22.73-.11.76.47,0,.29,0,.59,0,1l1.08-.51c0-.7,0-1.35,0-2s-.46-1-1.13-.71q-1.29.6-2.55,1.29a1.52,1.52,0,0,0-.79,1.43c0,1.47,0,3,0,4.42a3.84,3.84,0,0,0,0,.59.9.9,0,0,0,1.3.77l1.11-.43c.45-.18.62-.1.63.37,0,1,0,2,0,3.07,0,.17-.05.42-.17.49a5.3,5.3,0,0,1-1.16.53c-.28.09-.4-.06-.41-.39s0-.41,0-.66Zm-20.5,10.28c-.41.19-.72.35-1.06.48a.47.47,0,0,0-.32.54c0,.38,0,.75,0,1.13a.52.52,0,0,1-.29.53,5.28,5.28,0,0,1-.77.24c-.24.06-.38-.07-.42-.3a1.74,1.74,0,0,1,0-.32v-7.61c0-.16,0-.32,0-.48a1.27,1.27,0,0,1,1-1.28c.34-.09.5,0,.57.36s.06.45.1.72l1.37-.51c0-.77,0-1.52,0-2.27,0-.52-.33-.71-.81-.52-.87.35-1.73.7-2.57,1.11a2.12,2.12,0,0,0-1.26,2q0,4.82,0,9.65c0,.21,0,.43,0,.64.06.91.55,1.22,1.38.91l.1,0,2-.9a1.6,1.6,0,0,0,1-1.44C519.73,624,519.7,623.13,519.7,622.18ZM553.86,606c0-.28,0-.45,0-.63,0-.79,0-1.58,0-2.37,0-1.12-.17-.79.8-1.32.3-.17.7-.27.85-.52a2,2,0,0,0,.08-1,1.63,1.63,0,0,0-.09-.84c-.56.23-1,.57-1.65.78,0-1,.07-2,0-2.88a1.26,1.26,0,0,1,.93-1.49c.71-.29,1.37-.7,2-1v-1.79c-.18.08-.31.12-.43.19-1.17.6-2.33,1.21-3.5,1.79a.66.66,0,0,0-.43.7q0,6,0,12c0,.15,0,.31,0,.53,1.43-.74,2.8-1.44,4.16-2.16a.42.42,0,0,0,.17-.3c0-.33,0-.67,0-1.09ZM533,605.64c.11.2.18.36.27.51.7,1.17,1.39,2.35,2.1,3.52a1.63,1.63,0,0,1,.26.91c0,1.89,0,3.78,0,5.66v.67c.42-.2.77-.39,1.13-.52a.64.64,0,0,0,.46-.73q0-2.7,0-5.4a3.82,3.82,0,0,1,.13-1c.56-2.21,1.15-4.42,1.72-6.63a4.91,4.91,0,0,0,.1-.54c-.53.31-1,.59-1.42.84a.91.91,0,0,0-.48.66c-.28,1.15-.58,2.29-.88,3.44,0,.21-.12.41-.21.71L534.6,605Zm13.83,5.19c.08,0,.12,0,.14,0,1.29-.63,2.58-1.26,3.86-1.91a.44.44,0,0,0,.21-.32c0-.41,0-.81,0-1.31l-2.59,1.27V597.17c-.44.21-.8.42-1.17.57a.71.71,0,0,0-.5.77c0,3.94,0,7.88,0,11.81C546.83,610.49,546.84,610.67,546.85,610.83Z"/><path class="cls-3" d="M517.27,630.52l10.14-5.28c.33.23.65.47,1,.69a19.67,19.67,0,0,0,30.38-12.48,18.58,18.58,0,0,0,.37-4.82.45.45,0,0,1,.26-.52l7.93-4.26.15-.06c.79,1.2,1.58,2.38,2.34,3.58a9.39,9.39,0,0,1,1.32,5.58,21.08,21.08,0,0,1-.73,4.73,9.31,9.31,0,0,1-3,4.78c-.21.18-.4.36-.62.53a11.19,11.19,0,0,0-3.35,4.49c-.35.82-.75,1.63-1.17,2.43a6.67,6.67,0,0,1-3,3c-.79.39-1.57.8-2.38,1.15a9.8,9.8,0,0,0-4.32,3.53,8.58,8.58,0,0,1-4.1,3.37,19.26,19.26,0,0,1-3.43.91,13.91,13.91,0,0,1-6.18-.49c-1.47-.39-3-.76-4.45-1.06a25.59,25.59,0,0,0-2.62-.29,15.91,15.91,0,0,1-6.32-1.84,11.74,11.74,0,0,1-3.39-2.89c-.38-.45-.77-.9-1.15-1.36a18.21,18.21,0,0,0-2.83-2.72Zm47.25-23.8a25.37,25.37,0,0,1-12.35,24.67,25.19,25.19,0,0,1-29.06-2.49l-3.64,1.94a2.37,2.37,0,0,1,.34.23c.8.83,1.6,1.65,2.39,2.49.51.55,1,1.14,1.51,1.69a9.57,9.57,0,0,0,3.09,2.21,15,15,0,0,0,4,1.13c1.42.21,2.86.33,4.27.6s3,.71,4.45,1.08a13.73,13.73,0,0,0,3.82.55,13.34,13.34,0,0,0,4-.74,7.73,7.73,0,0,0,4-2.81c.28-.4.59-.76.88-1.15a8.22,8.22,0,0,1,2.26-2.06c.57-.35,1.16-.66,1.75-1,.76-.4,1.53-.79,2.31-1.16a6.31,6.31,0,0,0,3-3.08c.33-.7.65-1.4,1-2.11a12.41,12.41,0,0,1,3.51-4.64,18.51,18.51,0,0,0,1.39-1.27,4.77,4.77,0,0,0,.62-.74,13.25,13.25,0,0,0,1.88-9.35c-.29-2.12-1.67-3.65-2.78-5.37ZM559,622h0c.25,0,.5,0,.75,0a.69.69,0,0,0,.61-.27,3.47,3.47,0,0,0,.26-.55,1.57,1.57,0,0,0-.52-.22c-.44,0-.89,0-1.33-.05a1.11,1.11,0,0,0-.94.42.55.55,0,0,0-.17.41.53.53,0,0,0,.38.23C558.39,622,558.72,622,559,622Zm-32,7.27h0c0,.25,0,.5,0,.75a.79.79,0,0,0,.38.72c.12.09.33.19.42.14a.62.62,0,0,0,.24-.43c0-.48,0-1,0-1.45a1.08,1.08,0,0,0-.38-.85.7.7,0,0,0-.46-.18c-.09,0-.2.24-.22.39S527.06,628.92,527.06,629.23Zm19.66,3.43c.44,0,.78-.12.75-.27a1.08,1.08,0,0,0-.28-.54c-.32-.33-.67-.64-1-1a1.09,1.09,0,0,0-1.11-.19c-.22.06-.27.21-.15.41a.92.92,0,0,0,.19.25c.41.38.81.76,1.23,1.12A1.27,1.27,0,0,0,546.72,632.66Zm-9.52,1.14c.34,0,.49-.16.36-.52s-.38-.89-.55-1.35a1.09,1.09,0,0,0-.72-.67.71.71,0,0,0-.5,0c-.19.11-.1.32,0,.49.23.53.45,1.06.69,1.58A.94.94,0,0,0,537.2,633.8Zm-11-6.17a1.27,1.27,0,0,0-.46-1c-.21-.19-.39-.13-.5.13a.76.76,0,0,0-.06.26c-.07.54-.12,1.07-.19,1.61a.87.87,0,0,0,.34.75c.31.28.56.21.64-.21S526.12,628.14,526.19,627.63Zm34.69-12a.41.41,0,0,0,.15,0,16.48,16.48,0,0,0,1.68-.55,1.15,1.15,0,0,0,.46-.55.46.46,0,0,0,0-.44c-.07-.09-.29-.1-.43-.07-.45.1-.9.25-1.35.37a1.17,1.17,0,0,0-.82.78C560.41,615.44,560.53,615.6,560.88,615.59Zm-28.2,16.72c-.09-.46-.18-1-.33-1.62a1.1,1.1,0,0,0-.72-.67c-.22-.09-.35,0-.38.22a.86.86,0,0,0,0,.32c.11.55.22,1.09.34,1.63a.85.85,0,0,0,.57.59C532.5,632.92,532.67,632.8,532.68,632.31Zm23.6-8.67a2.75,2.75,0,0,0,.51.21c.55.08,1.11.12,1.66.18a.72.72,0,0,0,.67-.28.69.69,0,0,0,.17-.46c0-.1-.23-.21-.37-.23-.5-.09-1-.16-1.49-.21A1.12,1.12,0,0,0,556.28,623.64Zm4-5.85c.08,0,.22,0,.36,0a13.14,13.14,0,0,0,1.41-.33,1,1,0,0,0,.47-.48c.23-.4.07-.63-.38-.57a9.83,9.83,0,0,0-1.63.34,1.39,1.39,0,0,0-.63.55C559.64,617.6,559.78,617.8,560.29,617.79Zm-12.44,12.1a4.66,4.66,0,0,0-.49.07c-.33.09-.39.29-.17.55a.54.54,0,0,0,.15.15l1.35,1a.7.7,0,0,0,.72.08.75.75,0,0,0,.38-.31c0-.09-.1-.3-.21-.39a13,13,0,0,0-1.11-.85A3.07,3.07,0,0,0,547.85,629.89Zm-14.43,1.2,0,.14c.18.57.33,1.14.56,1.69a1.12,1.12,0,0,0,.55.47c.41.17.64,0,.53-.46s-.29-1-.45-1.5a1.15,1.15,0,0,0-.77-.7C533.58,630.63,533.42,630.77,533.42,631.09Zm21.86-3.35a1.43,1.43,0,0,0,.41-.17.8.8,0,0,0,.33-.43c0-.1-.21-.27-.36-.33a8.24,8.24,0,0,0-1.37-.48,1.69,1.69,0,0,0-.83.07.66.66,0,0,0-.4.38c0,.22.21.31.39.37.52.19,1,.36,1.58.54Zm-4.06,2.9a1,1,0,0,0,.35-.06c.17-.1.4-.2.44-.35s-.16-.34-.3-.44c-.4-.27-.82-.51-1.24-.76a1.12,1.12,0,0,0-1.13,0c-.21.1-.23.26-.08.44a.91.91,0,0,0,.24.2c.47.28.93.55,1.4.81A1.84,1.84,0,0,0,551.22,630.64Zm2.14-1.34c.1,0,.21,0,.31-.09s.46-.17.42-.41a.7.7,0,0,0-.36-.4c-.41-.23-.85-.4-1.26-.61a1,1,0,0,0-.93,0c-.14.06-.34.2-.33.3a.59.59,0,0,0,.27.4c.55.27,1.11.5,1.67.74A1.29,1.29,0,0,0,553.36,629.3ZM563.58,612c0-.49-.15-.65-.49-.52a10.34,10.34,0,0,0-1.53.65,1.52,1.52,0,0,0-.51.65.48.48,0,0,0,0,.44.59.59,0,0,0,.49,0,12.17,12.17,0,0,0,1.61-.72C563.37,612.42,563.49,612.12,563.58,612Zm.12-2.62c0-.38-.19-.53-.51-.38-.52.25-1,.52-1.51.81a1,1,0,0,0-.45.87c0,.29.11.38.4.31a1,1,0,0,0,.29-.11c.46-.26.9-.52,1.36-.77A.91.91,0,0,0,563.7,609.38Zm-19.16,24c.18-.1.41-.15.48-.28s0-.34-.13-.47c-.29-.37-.62-.71-.9-1.07a1.06,1.06,0,0,0-.85-.4.76.76,0,0,0-.51.19c-.06,0,0,.34.15.46.37.44.75.87,1.16,1.27A2.57,2.57,0,0,0,544.54,633.39Zm-14.19-1.8c-.05-.59-.1-1.09-.14-1.59a.94.94,0,0,0-.42-.72.75.75,0,0,0-.51-.2c-.22,0-.2.31-.19.51.06.55.13,1.1.18,1.65a.74.74,0,0,0,.41.59.66.66,0,0,0,.49.08C530.27,631.87,530.31,631.66,530.35,631.59Zm11.72,2.2c.19-.08.41-.11.45-.21a.59.59,0,0,0-.06-.48c-.27-.44-.58-.86-.89-1.28a1.08,1.08,0,0,0-1-.39c-.29,0-.38.17-.29.43a.7.7,0,0,0,.13.24c.32.45.63.91,1,1.33A2.1,2.1,0,0,0,542.07,633.79ZM557,626a2.29,2.29,0,0,0,.52-.26.67.67,0,0,0,.24-.43c0-.1-.21-.24-.34-.28-.48-.14-1-.25-1.46-.36a1.15,1.15,0,0,0-1,.25c-.1.08-.24.25-.21.33a.46.46,0,0,0,.32.3C555.71,625.72,556.32,625.84,557,626Zm3.92-7.28c-.36,0-.72.09-1.07.1a1,1,0,0,0-.82.44c-.09.13-.19.36-.14.47s.29.2.44.19q.87,0,1.71-.15a.88.88,0,0,0,.69-.61c.12-.25,0-.41-.28-.44A4.68,4.68,0,0,0,560.92,618.72Zm-22.56,12.71c-.3,0-.39.11-.34.38a1,1,0,0,0,.12.29c.25.46.51.91.77,1.36a.85.85,0,0,0,.71.42c.42,0,.57-.15.39-.55s-.47-.92-.73-1.38A1.15,1.15,0,0,0,538.36,631.43Z"/><path class="cls-3" d="M561.37,587.46l-.55.32q-5,2.64-9.88,5.3a.78.78,0,0,1-.92,0,19.66,19.66,0,0,0-7.67-2.89,18.52,18.52,0,0,0-5.85,0A19.69,19.69,0,0,0,520,606.5a22.7,22.7,0,0,0-.25,2.73.82.82,0,0,1-.5.83c-2.47,1.25-4.93,2.52-7.39,3.79l-2.77,1.44-.42.18c0-.32,0-.58,0-.84.14-1.77.31-3.54.43-5.32.06-.89,0-1.8,0-2.7,0-1.65,0-3.3.05-5a24.14,24.14,0,0,1,.81-5.53,11.67,11.67,0,0,1,4.48-6.54c1.63-1.18,3.31-2.29,5-3.39a19.07,19.07,0,0,0,4.26-3.7c.34-.42.72-.8,1.09-1.2a9.62,9.62,0,0,1,5.52-2.91,17.49,17.49,0,0,1,7.06.16,37.22,37.22,0,0,0,6.3.82,11.81,11.81,0,0,1,5.32,1.43c1,.58,2.08,1.15,3.07,1.79a38.23,38.23,0,0,0,5.69,2.93c1,.45,2,1,3,1.57A4.45,4.45,0,0,1,561.37,587.46Zm-6.56,2.17,4.19-2.24c-.55-.27-1-.51-1.46-.7a41.57,41.57,0,0,1-6.95-3.67c-.58-.39-1.2-.73-1.81-1.06a10.9,10.9,0,0,0-4.41-1.32c-1.08-.09-2.16-.12-3.23-.27-1.45-.21-2.9-.48-4.35-.75a16.68,16.68,0,0,0-5.68-.15,9,9,0,0,0-5.58,2.9c-.39.44-.8.87-1.19,1.32a16.43,16.43,0,0,1-2.82,2.58c-.66.46-1.34.91-2,1.36-1.25.84-2.53,1.65-3.76,2.52a11.29,11.29,0,0,0-4.72,7,24.67,24.67,0,0,0-.6,4.59c-.05,1.48-.05,3,0,4.43a48.19,48.19,0,0,1-.28,6.24c0,.36,0,.73-.07,1.17l4.18-2.24a24.19,24.19,0,0,1,1.17-9.61,25.25,25.25,0,0,1,39.41-12.13Zm-7.2-.92c-.12-.53-.24-1.16-.41-1.78a.82.82,0,0,0-.41-.41.66.66,0,0,0-.49-.08c-.23.09-.18.33-.14.52.08.46.19.92.26,1.38a1.12,1.12,0,0,0,.64.82C547.4,589.35,547.61,589.21,547.61,588.71Zm-13.31-2.86c-.2.1-.45.15-.51.28a.67.67,0,0,0,.17.51c.3.38.63.74.95,1.1a1.08,1.08,0,0,0,1,.32c.26,0,.34-.19.25-.43a1.11,1.11,0,0,0-.17-.27c-.36-.4-.71-.82-1.09-1.19A2.48,2.48,0,0,0,534.3,585.85Zm-14.5,11.43h0c-.25,0-.5,0-.75,0a.79.79,0,0,0-.7.33c-.09.14-.2.35-.16.47a.62.62,0,0,0,.43.24c.47,0,.93,0,1.4,0a1.17,1.17,0,0,0,1-.47c.26-.3.17-.54-.23-.58A7.83,7.83,0,0,0,519.8,597.28Zm3.11-2.7a1.39,1.39,0,0,0,1-.35c.19-.2.16-.37-.08-.51a1.3,1.3,0,0,0-.25-.1l-1.57-.34a.89.89,0,0,0-.82.28c-.29.27-.25.53.13.64C521.88,594.36,522.44,594.47,522.91,594.58Zm13.71-9.09c-.07,0-.29.06-.33.17a.6.6,0,0,0,.07.48c.26.42.57.82.84,1.24a.91.91,0,0,0,.72.4.76.76,0,0,0,.55-.09c.17-.15,0-.37-.1-.52-.31-.46-.64-.91-1-1.36A.93.93,0,0,0,536.62,585.49Zm8.75,3a2.08,2.08,0,0,0,0-.5,15.75,15.75,0,0,0-.56-1.68,1,1,0,0,0-.56-.46c-.39-.16-.6,0-.5.44s.29,1.07.48,1.6A1.06,1.06,0,0,0,545.37,588.48Zm-2.25-.79s0-.12,0-.18c-.25-.56-.47-1.13-.76-1.67a1,1,0,0,0-.56-.36c-.43-.14-.64.06-.48.49a16.13,16.13,0,0,0,.62,1.49,1.13,1.13,0,0,0,.86.58C543,588.1,543.13,588,543.12,587.69Zm-9.75.95c.2-.09.46-.13.56-.28s-.08-.39-.24-.54l-1.16-1a.8.8,0,0,0-.75-.18.69.69,0,0,0-.42.27c0,.08.08.3.18.4a14.29,14.29,0,0,0,1.13,1.07A2.5,2.5,0,0,0,533.37,588.64Zm-5.61,2.45a4.77,4.77,0,0,0-.55-.42c-.47-.23-1-.44-1.43-.64a.8.8,0,0,0-1.1.49,1.94,1.94,0,0,0,.31.26c.48.24,1,.49,1.46.69A1.15,1.15,0,0,0,527.76,591.09Zm-9.86,9.43c.36,0,.72-.09,1.08-.1a1,1,0,0,0,.84-.49c.09-.12.19-.35.14-.42a.59.59,0,0,0-.45-.2c-.59,0-1.17.11-1.76.18a.82.82,0,0,0-.65.58c-.11.26,0,.42.27.44A4.73,4.73,0,0,0,517.9,600.52Zm22.54-12.71c.34,0,.49-.15.35-.44-.31-.61-.65-1.2-1-1.77a.86.86,0,0,0-.52-.23.64.64,0,0,0-.47.13c-.07.07,0,.31,0,.44.22.45.46.89.7,1.33A1.15,1.15,0,0,0,540.44,587.81ZM518,603.64l-.17,0c-.57.18-1.14.33-1.68.55a1.05,1.05,0,0,0-.45.5.64.64,0,0,0,0,.49c.05.08.3.09.44,0,.5-.12,1-.26,1.49-.42a1.1,1.1,0,0,0,.7-.83C518.37,603.76,518.26,603.64,518,603.64Zm1-2.16a2.22,2.22,0,0,0-.51,0l-1.69.35a.84.84,0,0,0-.55.55c-.15.37,0,.57.38.52a15.75,15.75,0,0,0,1.69-.32A1,1,0,0,0,519,601.48Zm-3.76,5.92c0,.33.14.47.43.36.49-.17,1-.39,1.45-.57a1.08,1.08,0,0,0,.66-.72.63.63,0,0,0,0-.45c-.11-.19-.32-.12-.48,0-.55.22-1.09.45-1.63.7A.83.83,0,0,0,515.24,607.4Zm-.1,2.47c0,.41.18.54.55.36s.85-.47,1.28-.69a1.05,1.05,0,0,0,.59-.78c0-.16,0-.41-.07-.48a.54.54,0,0,0-.48,0c-.51.27-1,.56-1.49.86A.83.83,0,0,0,515.14,609.87ZM531,589.35c.23,0,.38,0,.51-.08.31-.09.36-.27.18-.52a1.14,1.14,0,0,0-.19-.19c-.45-.33-.89-.68-1.36-1a.92.92,0,0,0-.61-.09.7.7,0,0,0-.47.29c-.11.21.11.35.26.47.37.29.73.59,1.12.85A3.13,3.13,0,0,0,531,589.35ZM524.86,593a1.94,1.94,0,0,0,.56-.18c.14-.08.32-.25.32-.37s-.2-.29-.34-.35c-.53-.2-1.08-.37-1.63-.54a.88.88,0,0,0-.76.17c-.34.26-.32.52.07.68s.77.28,1.16.41C524.44,592.88,524.65,592.93,524.86,593Zm24.87-3.33c-.06-.62-.11-1.1-.15-1.58a.82.82,0,0,0-.42-.66.69.69,0,0,0-.48-.12c-.11.05-.18.3-.17.45a13.65,13.65,0,0,0,.12,1.56,1.2,1.2,0,0,0,.3.55c.15.18.36.44.61.28S549.7,589.75,549.73,589.66Zm-29.27,5.54a.77.77,0,0,0-.76.28.69.69,0,0,0-.17.46c0,.1.24.2.38.23.51.09,1,.16,1.54.21a1.12,1.12,0,0,0,1-.48c.16-.19.1-.36-.14-.46a2.22,2.22,0,0,0-.37-.09Zm8.38-4.84c.22-.07.45-.12.66-.21a.24.24,0,0,0,.08-.4.81.81,0,0,0-.28-.24c-.46-.28-.93-.54-1.39-.81a.84.84,0,0,0-.77,0,.36.36,0,0,0-.09.69c.45.3.91.58,1.37.85A2.3,2.3,0,0,0,528.84,590.36Zm22.9-.35h0c0-.25,0-.5,0-.75a.82.82,0,0,0-.41-.76c-.34-.25-.57-.14-.6.28s0,1-.06,1.55a1.07,1.07,0,0,0,.47.87c.3.26.53.17.58-.23S551.74,590.33,551.74,590Z"/><path class="cls-3" d="M528.84,624.46,557.64,609a18.16,18.16,0,0,1-28.8,15.43Zm11.42,1.11,7.5-6.09,1.13,1.19a15,15,0,0,0,1.8-3l-1.48.87-.68-1.11-7.12,5.61-.49-1.83a19.79,19.79,0,0,0-2.82,2.38h2Z"/><path class="cls-3" d="M549,594.13,521.2,609A18.21,18.21,0,0,1,523,601.8a17.89,17.89,0,0,1,7-7.76A18.14,18.14,0,0,1,549,594.13Zm-12.9.42-7.22,5.83L528,599a21.12,21.12,0,0,0-2.1,3.24l1.6-.9.59,1.22,7.29-6,1,2,2.91-3-.06-.08L537,596.73Z"/><path class="cls-3" d="M551.24,640.23c.41-.45.8-.85,1.15-1.27.59-.71,1.13-1.45,1.73-2.14a6.34,6.34,0,0,1,1.16-1,9.65,9.65,0,0,1,1.85-1,12,12,0,0,0,3.55-2.21,24,24,0,0,0,2-2,4.17,4.17,0,0,0,1.09-2.29,2.24,2.24,0,0,1,.41.1,3,3,0,0,1,1.85,3.56c-.21,1.07-.55,2.12-.85,3.17q-2.05,7-4.12,14.06c-.07.22-.12.45-.17.68a2.13,2.13,0,0,1-.84,1.27,1,1,0,0,1-1.29,0,5.66,5.66,0,0,1-.87-1c-1-1.46-2-3-3-4.43l-3.36-4.95Z"/><path class="cls-3" d="M564.57,627.42c.2-1.33,2.41-3.73,3.9-4.24l.39.32,2.46,2.17a2.17,2.17,0,0,1,.7,1.59,5.47,5.47,0,0,1-.3,2q-1.76,5.68-3.52,11.37c-.42,1.36-.83,2.72-1.28,4.06a3.17,3.17,0,0,1-.52.93.51.51,0,0,1-.84.07,10,10,0,0,1-1.13-1.31,1.15,1.15,0,0,1-.1-.72,13.66,13.66,0,0,1,.34-1.69c.91-3.46,1.85-6.91,2.76-10.36a3.81,3.81,0,0,0,.15-1.11,1.91,1.91,0,0,0-1-1.71C565.92,628.33,565.24,627.86,564.57,627.42Z"/><path class="cls-3" d="M559.63,597.23v-4.36c.35-.16.68-.34,1-.49a.4.4,0,0,1,.62.22,1.89,1.89,0,0,1,.17.66c0,.66,0,1.33,0,2a1.5,1.5,0,0,1-.89,1.47C560.27,596.86,560,597,559.63,597.23Z"/><path class="cls-3" d="M529.12,613.53v-4.34c.35-.17.69-.35,1-.5s.48-.09.63.2a1.67,1.67,0,0,1,.16.61c0,.7,0,1.41,0,2.11a1.44,1.44,0,0,1-.81,1.35C529.81,613.12,529.51,613.31,529.12,613.53Z"/></g></svg>