<svg xmlns="http://www.w3.org/2000/svg" viewBox="0 0 1080 1080"><defs><style>.cls-1{fill:#f6f6f6;}.cls-2{fill:#c3c3c3;}</style></defs><g id="background"><rect class="cls-1" y="1079" width="1" height="1"/><rect class="cls-1" width="1" height="1"/><rect class="cls-1" y="1079" width="1" height="1"/><rect class="cls-1" x="1079" width="1" height="1"/><rect class="cls-1" x="1079" y="1079" width="1" height="1"/><rect class="cls-1" x="1079" y="1079" width="1" height="1"/></g><g id="Capa_1" data-name="Capa 1"><path class="cls-2" d="M225.59,566.28c.18-10.92-1.36-22.54,2-33.92a88.5,88.5,0,0,1,19.78-35.48c48.08-51.93,97.93-102.1,151-148.94,26.91-23.74,54.49-46.67,85-65.78,9.47-5.93,19.53-11,29.53-16,18.82-9.48,37.49-8.25,56.3.73,22,10.53,42,24.17,61.34,38.91,39.33,30,76,63.16,111.09,97.93,29.73,29.42,58.71,59.59,87.8,89.65,17.88,18.47,27.43,40.27,25.24,66.54-.82,9.84-.78,19.74-1.28,29.61-.2,4-.43,8.43-4.71,10.41-4.44,2.06-7.86-.56-11.15-3.37C791,556.68,743.11,518.63,692.74,483.73c-29.59-20.5-59.82-40-92.47-55.36-10-4.7-20.45-8.56-30.83-12.42-20.18-7.51-40.32-6.6-60.52.4-25.61,8.89-49.32,21.57-72.42,35.5-46.77,28.22-90.57,60.64-133.21,94.64-20.78,16.57-41,33.8-61.54,50.73a26.46,26.46,0,0,1-2.28,1.83c-5.14,3.36-10.43,1.49-11.95-4.44a46.68,46.68,0,0,1-1-8.69C226.12,579.59,225.9,573.25,225.59,566.28Z"/><path class="cls-2" d="M225,786.56c.52-10.09.1-20.33,1.78-30.22,2.6-15.22,10.21-28.47,20.63-39.75,48-52,97.92-102.14,151-149,28.46-25.1,57.57-49.47,90.27-69,10.51-6.27,21.81-11.38,33.12-16.14,11.92-5,24.26-4.47,36.47-.16,18.59,6.56,35.17,16.78,51.24,27.9,35.92,24.82,68.65,53.52,100.61,83.12q63.54,58.81,122,122.69c15.37,16.78,24.11,36.47,22.59,59.9-.66,10.22-.76,20.47-1.18,30.71a39.78,39.78,0,0,1-.72,6.9c-1.45,6.76-7.2,8.94-12.71,4.75-3.49-2.65-6.71-5.66-10.06-8.49-48.9-41.41-99.18-81-152.45-116.67-26.87-18-54.32-35-84-48.13a319,319,0,0,0-30.49-11.27c-19.2-6.19-38-3.46-56.63,3.15-25.42,9-49,21.82-71.9,35.77-46.24,28.11-89.66,60.24-131.89,94-20.58,16.44-40.64,33.52-61,50.27a16.07,16.07,0,0,1-5,3c-4.22,1.4-7.5-.31-9-4.51a18.84,18.84,0,0,1-1-5c-.49-7.91-.87-15.83-1.29-23.74Z"/></g></svg>