<svg xmlns="http://www.w3.org/2000/svg" viewBox="0 0 1080 1080"><defs><style>.cls-1{fill:#f6f6f6;}.cls-2{fill:#c3c3c3;}</style></defs><g id="Capa_2" data-name="Capa 2"><g id="background"><rect class="cls-1" x="1079" width="1" height="1"/><rect class="cls-1" width="1" height="1"/><rect class="cls-1" width="1" height="1"/><rect class="cls-1" x="1079" width="1" height="1"/><rect class="cls-1" x="1079" y="1079" width="1" height="1"/><rect class="cls-1" x="1079" y="1079" width="1" height="1"/><rect class="cls-1" y="1079" width="1" height="1"/><rect class="cls-1" y="1079" width="1" height="1"/><rect class="cls-1" x="1079" y="1079" width="1" height="1"/><rect class="cls-1" x="1079" y="1079" width="1" height="1"/></g><g id="Capa_1-2" data-name="Capa 1"><path class="cls-2" d="M904.22,876V810.55H796.35c-12.43,0-18.71,7.59-18.71,17.41v48h20.28V857h86v19ZM884,841.33h-86V829.27a2.82,2.82,0,0,1,3-3h83v15.08Zm-159.06-440q49.88-77.7,99.66-155.45c-94.53,33.34-189,66.94-283.9,99.18-94.93-32.24-189.35-65.84-283.9-99.18q49.71,77.8,99.67,155.45,23.74-9.08,47.49-18.16l-28.72-47.88,0,.05,92.13,44.84h0q-28.08,10.69-56.15,21.46c-11.57,4.44-25.33,10-30.38,23.62-5.2,14,2.44,26.45,9.21,37q15.31,23.88,30.66,47.76Q475.28,595,530,679.88q.07-26.21.13-52.41v0q-21-65.49-40.73-131.35-5.59-18.7-11.06-37.46c-2.19-7.52-.77-12,6.52-15.61q27.88-13.71,55.8-27.37Q568.58,429.3,596.48,443c7.28,3.58,8.7,8.09,6.51,15.61q-5.47,18.75-11.07,37.46Q572.21,562,551.18,627.44l0,0q0,26.21.14,52.41Q606.09,595,660.6,510q15.31-23.88,30.66-47.76c6.75-10.53,14.4-23,9.2-37-5.06-13.62-18.8-19.18-30.38-23.62Q642,390.89,613.94,380.21h0l92.12-44.84,0-.05q-14.36,24-28.72,47.88,23.76,9.06,47.49,18.16ZM300.8,810.55H194.49c-12.43,0-18.71,7.59-18.71,17.41V858.6c0,9.82,6.28,17.4,18.71,17.4H300.8V859.65H199.07a2.82,2.82,0,0,1-3-3V829.91a2.82,2.82,0,0,1,3-3H300.8V810.55Zm43.87,0H324.38V858.6c0,9.81,6.28,17.4,18.72,17.4h89.14c12.44,0,18.72-7.59,18.72-17.4V810.55H430.69v46.08a2.82,2.82,0,0,1-3,3h-80a2.81,2.81,0,0,1-3-3V810.55Zm240.78,0H477.16V876h20.29V857h88c12.41,0,18.7-6.94,18.7-16.74v-13c0-9.81-6.29-16.75-18.7-16.75Zm-.28,27.75a2.82,2.82,0,0,1-3,3H497.45V826.25h84.72a2.82,2.82,0,0,1,3,3v9ZM734.7,810.55H626.42V876h20.27V857h77l11.91,19h23L744,853.49c6.28-2.61,9.42-8.11,9.42-15V827.3c0-9.81-6.28-16.75-18.7-16.75Zm-.27,27.75a2.83,2.83,0,0,1-3,3H646.69V826.25h84.74a2.82,2.82,0,0,1,3,3v9Z"/></g></g></svg>