<svg xmlns="http://www.w3.org/2000/svg" viewBox="0 0 1080 1080"><defs><style>.cls-1{fill:#f6f6f6;}.cls-2{fill:#c3c3c3;}</style></defs><g id="background"><rect class="cls-1" y="1079" width="1" height="1"/><rect class="cls-1" width="1" height="1"/><rect class="cls-1" y="1079" width="1" height="1"/><rect class="cls-1" x="1079" width="1" height="1"/><rect class="cls-1" x="1079" y="1079" width="1" height="1"/><rect class="cls-1" x="1079" y="1079" width="1" height="1"/></g><g id="Capa_1" data-name="Capa 1"><path class="cls-2" d="M395.66,402.91c9.76-.71,19.52-1.79,29.3-2.06,28.41-.8,56.83-1.36,85.24-1.84,11.34-.19,12.3.23,13.6,11.5,2.36,20.39,4.15,40.85,5.69,61.32.82,10.81.63,21.71.9,32.57,0,.92-.24,2.11.23,2.72,1.82,2.37,3.87,4.55,5.84,6.81,1.52-2.37,4.07-4.62,4.37-7.14,1.08-8.93,1.58-18,2-27,1.06-24.51,2.89-48.89,8.75-72.86,1.48-6,4.46-8.13,10-8,27.5.66,55,1.18,82.5,2,10.14.31,20.26,1.36,30.38,2.16,2.6.21,5.17.75,8.61,1.27-9.38,6.72-18,12.31-26,18.77-20,16.21-35.41,36.35-47.85,58.76A244.22,244.22,0,0,0,596.7,507.4c-1.11,2.68.64,6.54,1.08,9.86,2.67-1.78,6.25-3,7.85-5.44,7.12-11.05,13.44-22.63,20.49-33.73,15.16-23.83,32.72-45.35,58.19-59.1a104.27,104.27,0,0,1,49-12.8c39.22-.52,78,4.26,116.63,10,14.41,2.13,28.87,4.09,43.13,7a76.43,76.43,0,0,1,20.71,7.48c13.2,7.09,18.43,22.74,15.3,41.36-7.7,45.82-30.94,82.65-65.55,112.68-39.3,34.1-85.65,54.78-134.9,69.87-45.12,13.83-91.4,21.47-138.29,24.65-58.51,3.95-116.86,1.61-174.82-8.33-45.77-7.85-90.26-20-132.61-39.1-30.27-13.68-58.63-30.79-82.46-54.14-30.8-30.17-50.13-66.12-50.49-110.4-.21-26.14,13.43-42.5,41.37-47,28.49-4.57,57.24-7.8,86-10.56,21.12-2,42.4-3,63.63-3.29,41-.58,72.71,18.08,95.89,50.6,11.42,16,19.56,34.38,29.2,51.67,1,1.81,1.68,4.26,3.24,5.21,2.05,1.25,4.82,1.32,7.28,1.9.56-2.45,2.3-5.43,1.48-7.27-9.63-21.56-21.27-42-36-60.51-12.76-16-27.27-30.11-44.74-41-.79-.49-1.65-.88-2.47-1.31ZM254.49,437.06c-17.27,1.3-34.53,2.63-51.81,3.87-4.06.3-6.25,1.66-6.17,6.35.38,24.26,4,47.81,13.8,70.21,15.23,34.74,40.86,60,72.42,79.89,47.4,29.8,100.17,45.62,154,58.36,10.89,2.57,19.37-4.49,19.3-15.81-.05-7.81-1.1-15.63-1.93-23.43-3.17-29.59-9.64-58.31-22.53-85.36-19.08-40.05-49.49-67.24-91.63-81.26C312.23,440.64,283.61,437.7,254.49,437.06Zm564.68,1.44c-25.62.18-50.88,2.77-75.56,9.53-34.45,9.44-63.57,27.28-84.73,56.57-29.29,40.56-38.55,87.31-40.7,136-.57,12.87,8.46,19.31,21.09,15.94,18.08-4.83,36.26-9.34,54.13-14.86,39.65-12.25,77.82-27.9,111.62-52.56C852,554.86,877,509,877.34,450.32c0-5.88-1.83-8.32-7.72-8.63C852.79,440.81,836,439.59,819.17,438.5Z"/></g></svg>