<svg xmlns="http://www.w3.org/2000/svg" viewBox="0 0 1080 1080"><defs><style>.cls-1{fill:#f6f6f6;}.cls-2{fill:#c3c3c3;}</style></defs><g id="background"><rect class="cls-1" y="1079" width="1" height="1"/><rect class="cls-1" width="1" height="1"/><rect class="cls-1" y="1079" width="1" height="1"/><rect class="cls-1" x="1079" width="1" height="1"/><rect class="cls-1" x="1079" y="1079" width="1" height="1"/><rect class="cls-1" x="1079" y="1079" width="1" height="1"/></g><g id="Capa_1" data-name="Capa 1"><path class="cls-2" d="M540.74,322.28c70.31.69,138.61,11.74,203.83,38.84,39.73,16.51,76.13,38.29,106.35,69.4,20.36,21,36.37,44.7,44,73.19,12,44.55,2.25,85.16-24.1,122.18-26.47,37.18-62.61,62.62-102.92,82.55-52.34,25.89-108.08,39.81-166,46a574.09,574.09,0,0,1-102.38,1.86c-79.31-5.76-154.74-24.63-222.69-67.71-28.23-17.89-52.87-39.8-71.43-67.94-36.93-56-33.54-119.87,9.21-173.87C239.85,414.93,272,392,307.91,373.89c60-30.23,124.07-45.18,190.79-49.74C512.69,323.19,526.73,322.88,540.74,322.28ZM297.37,450.6l.57,1.31c2.13,0,4.26,0,6.39,0,52-1,103.94-.87,155.89,1.8s104.16,5.66,156,12c42.3,5.21,84.55,10.84,126,20.8,31.58,7.59,62.64,16.7,88.24,38.8-.3-2-.52-4-.9-5.88-3-15.12-11.93-27.28-20.81-39.18C781.27,443.44,744,420,701.49,404.42c-85.3-31.31-172.5-36.09-261.26-18.15-48.74,9.85-94,27.82-134.48,57.05C302.76,445.48,300.15,448.16,297.37,450.6Zm533.84,91.81c-5.21,5.11-9.35,10.86-14.91,14.31-13.1,8.11-26.33,16.4-40.46,22.36-52.61,22.2-107,39-162.51,52.49C554.24,645.93,495,659.32,435,669.27c-16.92,2.8-33.78,6-50.67,9,9.27,4.53,18.36,8.49,27.84,11,48.7,12.63,98.13,18.44,148.54,15.64,33.67-1.87,66.95-5.55,99.63-14.33,37.64-10.1,73.37-24.3,105.56-46.59,27.9-19.31,49-44.21,61.94-75.79A48.08,48.08,0,0,0,831.21,542.41ZM444.68,485.16l-.66,1.43a47.62,47.62,0,0,0,3.33,4.38q23.89,24.91,47.86,49.77c12.46,13,25.85,25.2,37,39.22,8.5,10.7,17.49,16.4,31.06,14,1.23-.22,2.51-.17,3.75-.37,18.8-3,37.51-6.71,56.4-9,30.93-3.69,61.43-9.6,91.8-16.3,16-3.53,31.79-7.91,46.11-16.15a14.67,14.67,0,0,0-.13-25.68,65.9,65.9,0,0,0-16.91-6.87c-22.07-5-44.18-9.92-66.42-14.1-54.38-10.2-109.48-13.68-164.6-16.72-16.87-.93-33.76-1.58-50.63-2.43C456.64,486.1,450.67,485.58,444.68,485.16ZM380.1,678.29c1.46-3,2.71-5.32,3.81-7.75,8.87-19.48,17.59-39,26.64-58.42,1.69-3.63,1.54-5.81-1.29-8.84q-50-53.43-99.64-107.12l-28-30.16c-2.93,3.63-5.53,6.76-8,10-30.73,39.48-31.35,88.42-1.2,128.32C299.85,640.66,338.34,661.21,380.1,678.29Z"/></g></svg>