<svg xmlns="http://www.w3.org/2000/svg" viewBox="0 0 1080 1080"><defs><style>.cls-1{fill:#f6f6f6;}.cls-2{fill:#c3c3c3;fill-rule:evenodd;}</style></defs><g id="background"><rect class="cls-1" y="1079" width="1" height="1"/><rect class="cls-1" width="1" height="1"/><rect class="cls-1" y="1079" width="1" height="1"/><rect class="cls-1" x="1079" width="1" height="1"/><rect class="cls-1" x="1079" y="1079" width="1" height="1"/><rect class="cls-1" x="1079" y="1079" width="1" height="1"/></g><g id="Capa_1" data-name="Capa 1"><path class="cls-2" d="M732,230.49c-31.36-3.1-114.11-7.72-192.16-7.72s-160.81,4.62-192.15,7.72c-35.78,3.65-52.41,21.82-52.41,57.24,0,67.24,2.47,172,7.06,233.56,4.11,54.86,7.31,98.18,75.62,139.68,48.87,29.71,97.47,55.16,160.75,87.81l1.09.62,1.12-.62C604.37,716,653.06,690.57,701.73,661c68.34-41.53,71.56-84.82,75.61-139.68,4.63-61.83,7.13-166.5,7.13-233.56,0-35.42-16.68-53.59-52.45-57.24ZM756.16,519.8c-3.91,52.5-6.5,87.22-65.44,123-46.25,28.11-87.06,49.54-148.75,81.57l-2.11,1-2.1-1C478,693.42,435.4,671,389,642.82c-59-35.8-61.58-70.56-65.45-123.08-4.58-61.22-7-165.22-7-232,0-24.46,8.39-33.54,33.3-36.09,31-3,112.86-7.65,190-7.65s159,4.6,190,7.65c24.91,2.55,33.29,11.63,33.29,36.09,0,66.75-2.46,170.72-7,232.07Z"/><path class="cls-2" d="M536.58,380.05l-7.36,24.72c-26.65-54.48-58.47-83.07-97-83.07-41.62,0-62,27.87-68,36.67,10.7-26.85,38.93-50.46,76.51-50.46,51.52,0,80.63,40.68,95.85,72.14Z"/><path class="cls-2" d="M343.56,435.88c.32,90.75,26.72,134.39,66.13,134.39,18.26,0,31.35-11.49,31.35-30.19,0-16-6.92-28.6-9.74-33.68a87.29,87.29,0,0,1,2.05,17.84c0,15.64-10.57,20.69-19.21,20.69-26.21,0-52.43-51-59.85-109Z"/><path class="cls-2" d="M639,307.91c37.6,0,65.77,23.61,76.53,50.46-6-8.8-26.4-36.67-68.07-36.67-38.44,0-70.26,28.59-96.93,83.07l-7.36-24.72c15.19-31.46,44.35-72.14,95.83-72.14Z"/><path class="cls-2" d="M725.49,435.88c-7.39,58.06-33.63,109-59.89,109-8.62,0-19.14-5-19.14-20.69a89,89,0,0,1,2-17.84c-2.79,5.08-9.71,17.73-9.71,33.68,0,18.7,13.07,30.19,31.35,30.19,39.38,0,65.83-43.64,66.12-134.39Z"/><path class="cls-2" d="M672,357.83c-33.66,0-66.57,26.85-86.26,88.81l12.73,8.88L592.32,486l-23.81,9.85-4.32,29.94,11.61-14.23,12.44-5.15-3.87,19.34-21.46,8.91-7.52,51.77L560.63,603l-20.74,8.22L519.14,603l5.25-16.53-7.54-51.77-21.48-8.91-3.82-19.34L504,511.55l11.64,14.23-4.38-29.94L487.46,486l-6.13-30.47,12.74-8.88c-19.67-62-52.56-88.81-86.26-88.81-41.64,0-58.89,39.52-56.64,72.09h10C369.54,476,393,515,410.56,515c5.39,0,8.21-4.1,8.21-10.84,0-16.24-11.08-33.23-11.08-64.28,0-14.3,4.66-23.27,15.4-23.27,7.32,0,13.31,7.7,16.87,16.11-6.51,23.19-5.53,42.62,13,50.88,9.15,4.07,20.18,8.91,20.18,8.91s11.75,49.8,12.6,53.36A50.39,50.39,0,0,0,490,556.3c2.15,3.74,17.57,30.16,17.57,30.16s5.25,26.34,6.36,31.95c3,15.07,13.79,15.11,25.95,15.07s22.89,0,25.93-15.07l6.38-31.95S587.59,560,589.79,556.3A48.61,48.61,0,0,0,594,545.85c.85-3.56,12.63-53.36,12.63-53.36s11-4.84,20.21-8.91c18.5-8.26,19.49-27.69,13-50.88,3.57-8.41,9.57-16.11,16.89-16.11,10.74,0,15.39,9,15.39,23.27,0,31.05-11.08,48-11.08,64.28,0,6.74,2.82,10.84,8.2,10.84,17.57,0,41-39,49.4-85.06h10c2.24-32.57-15-72.09-56.65-72.09ZM460.19,474.61c-13.11-5.57-14.44-21.08-10.07-41.73l14.35,22.56,5.34,23.28s-5.19-2.23-9.62-4.11Zm159.4,0c-4.46,1.88-9.66,4.11-9.66,4.11l5.32-23.28,14.37-22.56c4.38,20.65,3.06,36.16-10,41.73Z"/><path class="cls-2" d="M511.52,817.24v24.91h33.94c18.79,0,25.89-7.52,25.89-17.9,0-6.81-3.38-17.82-25.6-17.82H488.44v-14h59.79c38,0,46.92,16.09,46.92,31.84,0,18.89-12.77,32-47,32H488.44v-39Z"/><path class="cls-2" d="M258.05,817.24v24.91h34c18.78,0,25.87-7.52,25.87-17.9,0-6.81-3.36-17.82-25.6-17.82H235v-14h59.78c38.07,0,47,16.09,47,31.84,0,18.89-12.82,32-47,32H235v-39Z"/><path class="cls-2" d="M663.4,817.17v14.11h33.83v10.87H663.58c-19.11,0-26.2-7.52-26.2-17.9,0-11.57,9.62-17.79,24.88-17.79h58V792.41h-58.9c-30.25,0-47.79,9.57-47.79,31.84,0,21.83,16.94,32,46.9,32h59.79V817.17Z"/><polygon class="cls-2" points="771.56 806.35 844.22 806.35 844.22 792.41 746.97 792.41 746.97 856.22 845 856.22 845 842.15 771.56 842.15 771.56 831.25 840.34 831.25 840.34 817.2 771.56 817.2 771.56 806.35 771.56 806.35"/><path class="cls-2" d="M414.28,857.23c-39.36,0-54.38-12.91-54.38-33,0-19.9,15.51-32.91,54.38-32.91s54.37,13,54.37,32.91c0,20.07-15.51,33-54.37,33Zm30.55-33c0-10.9-10.58-18.89-30.55-18.89s-30.55,8-30.55,18.89c0,10.42,9.38,18.93,30.55,18.93,21.47,0,30.55-8.51,30.55-18.93Z"/></g></svg>