<svg xmlns="http://www.w3.org/2000/svg" viewBox="0 0 1080 1080"><defs><style>.cls-1{fill:#f6f6f6;}.cls-2{fill:#c3c3c3;}</style></defs><g id="background"><rect class="cls-1" y="1079" width="1" height="1"/><rect class="cls-1" width="1" height="1"/><rect class="cls-1" y="1079" width="1" height="1"/><rect class="cls-1" x="1079" width="1" height="1"/><rect class="cls-1" x="1079" y="1079" width="1" height="1"/><rect class="cls-1" x="1079" y="1079" width="1" height="1"/></g><g id="Capa_1" data-name="Capa 1"><path class="cls-2" d="M539.23,215.23c1.54,0,3.07.07,4.6,0,45.23-2.1,87.4,10.59,128.34,27.76,41.59,17.45,77,44.07,107.44,77.36,45.92,50.19,74.2,109,82.49,176.46,12.85,104.37-17,195.29-90,271.33-31.38,32.7-68,57.93-110.56,74.05-30.49,11.56-61.85,19.15-94.5,21.41-26.06,1.81-52,2.32-78-1.25-33.74-4.63-65.46-15.47-95.69-31C333.61,800.59,286.14,757,254,697.43c-17.15-31.76-28.48-65.53-35.29-101-2.43-12.65-4-25.2-3.63-38.06.29-8.95.17-17.92,0-26.88-.79-53.24,13.07-102.61,39.24-148.69C285,328.9,326.2,285.57,380.85,255.62c31.88-17.47,66.14-27.88,101.32-36.28C501.19,214.8,520.15,215.52,539.23,215.23Zm264.52,222.5-2.5.19c-.33,3.4-.93,6.8-1,10.2a362,362,0,0,1-8.17,75.41Q769.08,630,677,687.76c-38.61,24.17-81.12,38.24-125.3,47.83-1.83.4-3.83,0-7.22,0,3.08-4.47,5.42-8,7.89-11.42,23.35-32.33,42.65-66.78,54.8-105,14.62-46,18.32-92.67,7.79-140.08-12.73-57.33-41.86-105.07-84.84-144.57-25.54-23.47-54.46-41.33-87.41-52.49-8.21-2.78-16-2.68-23.76,1.13-4.59,2.25-9.18,4.5-13.65,7Q304.57,345.54,268.59,454.84c-12.22,37.24-14.87,75.7-11.25,114.59a275.57,275.57,0,0,0,13.87,64.36c1.09,3.17,2.89,6.09,4.68,9.76,1.22-1.71,1.95-2.29,2-2.94a46.19,46.19,0,0,0,.37-6.11,360.87,360.87,0,0,1,8-75.44c16-74.35,56.23-131.26,121.91-169.8,32.43-19,67.39-31.66,103.7-40.77,7.09-1.78,14.3-3.09,23.29-5-2.94,4.56-4.69,7.63-6.76,10.46C504.85,386.1,485,420.26,472.57,458.38c-19.16,58.81-20.14,117.66.68,176.24,16.77,47.16,45.57,86.11,83.26,118.59,23.1,19.91,49.27,34.58,78,44.79,9.71,3.46,18.86,3.7,28-1.65,5.72-3.35,11.75-6.18,17.52-9.47,119.56-68.11,170.66-208.8,129.38-335.1C807.79,447,805.63,442.41,803.75,437.73ZM452.55,270.18l.33,1.23,13.65,1.77c30,3.78,59.3,10.55,87.52,21.63C608.08,316,650.33,351,678.79,402.1c18.4,33,29,68.68,35.1,105.81,1.43,8.71,2.56,17.47,3.93,26.85,1.76-.9,2.9-1.36,3.91-2,11.5-7.4,21.34-16.68,30.26-27,19.18-22.11,32.29-47.8,43.52-74.58,2.35-5.63,1.66-11.05-1.23-16.23-4.62-8.26-9.07-16.63-14.09-24.65-48.71-77.87-120-120-209.86-132.23-35.14-4.79-69.85-1-104,8C461.67,267.32,457.12,268.82,452.55,270.18ZM360.74,545.79c-3.28,2.1-5.46,3.34-7.48,4.8a162.18,162.18,0,0,0-31.48,30.17c-16.46,20.6-27.77,44-37.71,68.26-2.6,6.32-2,11.85,1,17.59,20.72,39.5,47.18,74.49,83.52,100.71,71.25,51.42,150.18,67.84,236.15,49.31,7.18-1.54,14.18-3.92,21.26-5.91a24.41,24.41,0,0,0-9.25-2.61c-35.17-4.16-69.36-12.19-101.93-26.41C463.07,759.13,423.4,723.36,397,673.22c-15.65-29.68-25.32-61.38-31.11-94.33C364,568.34,362.57,557.72,360.74,545.79Z"/></g></svg>