<svg xmlns="http://www.w3.org/2000/svg" viewBox="0 0 1080 1080"><defs><style>.cls-1{fill:#f6f6f6;}.cls-2{fill:#c3c3c3;}</style></defs><g id="background"><rect class="cls-1" y="1079" width="1" height="1"/><rect class="cls-1" width="1" height="1"/><rect class="cls-1" y="1079" width="1" height="1"/><rect class="cls-1" x="1079" width="1" height="1"/><rect class="cls-1" x="1079" y="1079" width="1" height="1"/><rect class="cls-1" x="1079" y="1079" width="1" height="1"/></g><g id="Capa_1" data-name="Capa 1"><path class="cls-2" d="M694,374.43m121,335A21.19,21.19,0,0,1,805.77,725L540.09,932V923.6a157.93,157.93,0,0,1,1.11-18.45,24.55,24.55,0,0,1,6.55-11.9C562,879,607,835.87,617.31,825.35c24.17-25.09,47.87-53.41,58.48-80.44a94.25,94.25,0,0,0,7.48-35.7,135.09,135.09,0,0,0-7.48-42.9c-23.43-71-110.88-154.06-130.16-172.51a21.29,21.29,0,0,1-5.63-9.22,24.39,24.39,0,0,1-9.23,11.53L265,703.12V258L530.5,465a24.32,24.32,0,0,1,8.76,11.53A24,24,0,0,1,548.49,465L814.17,258v8.3a124.78,124.78,0,0,1-1.2,16.61A24.78,24.78,0,0,1,806.42,295c-14.67,14.3-59.22,57.84-69.46,68.36-14.28,14.65-28.4,30.67-39.8,47l-.1.14c-7.85,11.29-14.41,22.74-18.78,34a98.57,98.57,0,0,0-7.38,36.07,138.86,138.86,0,0,0,7.38,42.9c6.91,20.85,19.34,42.73,33.92,63.71l-.21-.29,1,1.4c35,50,82,94.75,95.48,107.68A18.47,18.47,0,0,1,815,709.39ZM386.77,587.07c32.75-33.77,57.84-70.48,57.84-106.83s-25.09-73.06-57.84-106.83a627.27,627.27,0,0,0-62.18-56c-20.66-16-36-28.51-46.77-36.9-1.1-.74-1.1,1.84-1.1,2.67s0,3.32.64,3.88c23.06,20.38,112.46,88.74,138.38,153.87a96.63,96.63,0,0,1,0,78.78C389.45,584.85,300.06,653.3,277.36,673.6c-.64.64-.64,2.58-.64,3.87s0,3.6.92,2.86c10.79-8.12,26.29-20.85,46.95-36.9A614.82,614.82,0,0,0,386.77,587.07ZM526,483.56H480.41c-16.42,0-18.45,11.53-27.68,28.78a296.13,296.13,0,0,1-48.62,66,13.78,13.78,0,0,0-1.56,4.53c-.19.92-.37,4.05.64,3.32,53.05-41.89,93.27-75.47,119.93-93.92C526.25,489.74,532.9,483.56,526,483.56Zm169.5-92.14c26.07-33,60.58-63.55,85-84.15a78.62,78.62,0,0,0,7-6.27,7.21,7.21,0,0,0,1.75-6.09c.09-.46,0-1.48-.64-.92l-10,7.56c-6.92,5.17-14.11,10.89-22.51,17.53A677.14,677.14,0,0,0,694,374.43c-32.84,33.39-57.84,69.83-57.84,105.81s23.8,74.63,57,107.93c7,7.38,12.54,12.64,17,16.61A37.53,37.53,0,0,0,714,608l-.45-5.15a20.69,20.69,0,0,0-2.32-4.54c-3.88-5.44-6.55-8.86-12.55-16.88a299.87,299.87,0,0,1-33.3-61.07,98.3,98.3,0,0,1,0-79.52c6.52-16.45,17.28-33.19,30.06-49.37M679,589.65c1.75,1.38,2.22.83,1.75-.83a16.4,16.4,0,0,0-3.32-7.93,364,364,0,0,1-48.15-63.75c-8.95-17.25-15.31-34-32.1-34H553.1c-6.92,0,.09,6.73,3.14,9.22C566.29,500.63,624.59,550.07,679,589.65ZM657.8,806.81c31.55-31.18,55.35-64.3,55.35-97.88,0-36.81-25.55-74.35-54.61-108.49-8-9.22-15.68-18.45-23.34-26.47-3.78-4.15-10.7-11.35-11.25-11.9a9.18,9.18,0,0,0-5-1.94c-.65-.09-.65.55,0,1.48,1.93,2.39,7,8.39,13.1,15.49,24.35,28.42,47.78,61.17,58.39,91.33a123.83,123.83,0,0,1,6.92,40.22,96.83,96.83,0,0,1-8.39,36.9c-11.54,28.05-43.45,63.1-75.56,94.75-1.47,1.29-1.38,5.07-1.47,6.82s1.84.19,4.42-2C635.3,828.49,649.87,814.65,657.8,806.81Zm142.35-95H748.39c-19.09,0-21.67,13-31.91,32.56A342.14,342.14,0,0,1,660.66,820a8.34,8.34,0,0,0-1,4c-.09,1.2-.37,5.07,1.29,3.78,60.52-47.88,105.72-84.78,136-106.09C800.42,719.17,808,711.79,800.15,711.79Z"/></g></svg>