<svg xmlns="http://www.w3.org/2000/svg" viewBox="0 0 1080 1080"><defs><style>.cls-1{fill:#f6f6f6;}.cls-2{fill:#c3c3c3;}</style></defs><g id="background"><rect class="cls-1" y="1079" width="1" height="1"/><rect class="cls-1" width="1" height="1"/><rect class="cls-1" y="1079" width="1" height="1"/><rect class="cls-1" x="1079" width="1" height="1"/><rect class="cls-1" x="1079" y="1079" width="1" height="1"/><rect class="cls-1" x="1079" y="1079" width="1" height="1"/></g><g id="Capa_1" data-name="Capa 1"><path class="cls-2" d="M538.47,303c55.32.37,107.93,7.67,159.15,24.09,41.61,13.34,80.54,32,115.43,58.59,21.81,16.63,40.94,35.85,56.3,58.67C884,466.05,894,489.65,898.06,515.64c4.87,31.26.47,61.28-12.12,90.18-9,20.54-21.48,38.73-36.43,55.34-22.35,24.83-48.85,44.31-77.93,60.44-36.66,20.34-75.81,34.07-116.64,43.11A523.75,523.75,0,0,1,544.28,777a541.51,541.51,0,0,1-86.66-6.18c-49.93-7.81-97.81-22.1-142.68-45.7-30-15.78-57.36-35.18-80.69-59.93-18.43-19.54-33.34-41.39-43.08-66.57a159.55,159.55,0,0,1-10.91-67.42c1.49-25.73,9-49.77,21.48-72.25,15.5-27.85,36.67-50.78,61.52-70.46a341.93,341.93,0,0,1,66.23-40.68c42.75-20.24,87.8-32.63,134.49-39.4A558.91,558.91,0,0,1,538.47,303Zm-2.17,24.52c-4.15,0-8.31-.1-12.46,0A471.27,471.27,0,0,0,446.9,336c-42.6,8.29-83.32,21.91-121.28,43.23-23.54,13.22-45.17,29-63.91,48.54-18.54,19.35-33.22,41.15-41.84,66.72a139.45,139.45,0,0,0-5.43,70.09c4.37,24.56,14.62,46.52,29.22,66.58,17.14,23.54,38.65,42.36,62.9,58.24,31.71,20.76,66.09,35.52,102.43,45.91a470.93,470.93,0,0,0,110.62,17.47,492.48,492.48,0,0,0,109.16-7.51c39.15-7.17,76.8-19,112.37-37,29-14.7,55.48-32.88,78-56.57,16.12-17,29.3-35.95,38-57.8,14.07-35.45,14.31-71,.26-106.54-8.94-22.62-22.6-42.12-39.29-59.61-19.24-20.16-41.73-36.08-65.85-49.71-29.49-16.67-61-28.23-93.82-36.51C618.32,331.37,577.57,327.05,536.3,327.49Z"/><path class="cls-2" d="M604.29,680.73v29.6c-1.67.14-3.24.37-4.81.38q-33.66.07-67.31.1l-51.8.09H475.6v-30a21.89,21.89,0,0,1,2.83-.37c3.4,0,6.81-.13,10.21,0,8.66.46,14.93-6.34,14.88-14.76-.39-69.07-.46-138.14-.62-207.21,0-8.7,0-17.4,0-26.09,0-7.88-5.39-13.19-13.37-13.14-3,0-6,.33-9,.45a22.3,22.3,0,0,1-2.9-.3c-.09-1.32-.24-2.53-.25-3.75,0-3.9-.07-7.81,0-11.72.09-6.14,2.77-10.45,8.64-12.88,16.3-6.74,32.52-13.67,48.8-20.45a15,15,0,0,1,5.43-1.31c11.09-.11,22.18,0,33.27,0a25.73,25.73,0,0,1,2.62.28c.09,1.1.26,2.17.25,3.24-.14,15.38-.39,30.75-.44,46.12-.07,22.18,0,44.37,0,66.55q0,88.66-.06,177.33a32.23,32.23,0,0,0,.58,6.36c1.44,7,6.38,11.1,13.59,11.25,3.4.07,6.81,0,10.21,0C601.42,680.53,602.66,680.64,604.29,680.73Z"/><path class="cls-2" d="M599.74,500.45V443c2.73-.92,43.12-.89,46.88.09.14,2.47.28,5.05.45,8.12l177.52.14c-.71,1.9-1.13,3.17-1.65,4.39-3.86,9-7.79,18-11.62,27.09-4.9,11.61-13.55,17.35-26.19,17.34q-81.84,0-163.67.1c-5.79,0-11.59.1-17.38.14Z"/><path class="cls-2" d="M255.17,451.37c75.28-.37,149.92-.31,224.7-.28v48.84c-1.76.08-3.11.19-4.46.19q-90.54,0-181.09,0c-12.49,0-21-5.74-25.88-17.19-3.78-8.94-7.62-17.84-11.42-26.77C256.48,454.88,256,453.58,255.17,451.37Z"/><path class="cls-2" d="M282.91,527.24h197v48c-1.71.09-3.18.23-4.64.23H322.06c-12.54,0-21.37-5.57-26.19-17.34-3.67-9-7.57-17.87-11.36-26.81C284,530.2,283.61,529,282.91,527.24Z"/><path class="cls-2" d="M600.52,575.72c-.89-3.28-1.18-43.84-.45-48.51H796.53a29.89,29.89,0,0,1-.88,3.2c-4.23,10-8.33,20-12.78,29.9-4.13,9.17-11.55,14-21.5,15.07a53.54,53.54,0,0,1-5.67.14l-136.15.06c-4.91,0-9.83.09-14.75.14Z"/><path class="cls-2" d="M480,588.89c.11,1.61.25,2.69.25,3.76,0,15.38-.19,30.76-.06,46.14,0,3-1,4.48-3.62,5.77-11.51,5.73-22.91,11.68-34.39,17.47a9.93,9.93,0,0,1-4.31,1c-29,.07-58,.2-87,0-9.28-.07-16.66-4.62-20.7-13-5.36-11.12-10-22.6-14.88-33.93a7.4,7.4,0,0,1-.2-1.58c1.51-.09,3-.26,4.38-.26,18.28,0,36.56,0,54.84,0,17.27,0,34.53-.15,51.8-.18a13.84,13.84,0,0,0,6.52-1.53q21.58-10.95,43.24-21.76C477.07,590.15,478.31,589.64,480,588.89Z"/><path class="cls-2" d="M599.94,641.6V595.18c1.44-.08,2.66-.2,3.88-.2,12.73,0,25.45.06,38.18,0a12.14,12.14,0,0,1,6.1,1.57c9.48,5.25,19,10.38,28.46,15.69a15.32,15.32,0,0,0,7.88,2.06q37.78-.07,75.58,0h5c-.52,1.62-.76,2.68-1.19,3.67-4.3,9.94-8.56,19.9-13,29.79C746.3,658,738.19,663.15,727,663.22c-18.14.11-36.28.07-54.42,0a12.2,12.2,0,0,1-5.37-1.32q-17.43-9.09-34.7-18.45a15.19,15.19,0,0,0-7.9-2c-6.67.18-13.35.16-20,.22Z"/></g></svg>