<svg xmlns="http://www.w3.org/2000/svg" viewBox="0 0 1080 1080"><defs><style>.cls-1{fill:#f6f6f6;}.cls-2{fill:#c3c3c3;}</style></defs><g id="Capa_2" data-name="Capa 2"><g id="background"><rect class="cls-1" x="1079" width="1" height="1"/><rect class="cls-1" width="1" height="1"/><rect class="cls-1" width="1" height="1"/><rect class="cls-1" x="1079" width="1" height="1"/><rect class="cls-1" x="1079" y="1079" width="1" height="1"/><rect class="cls-1" x="1079" y="1079" width="1" height="1"/><rect class="cls-1" y="1079" width="1" height="1"/><rect class="cls-1" y="1079" width="1" height="1"/><rect class="cls-1" x="1079" y="1079" width="1" height="1"/><rect class="cls-1" x="1079" y="1079" width="1" height="1"/></g><g id="Capa_1-2" data-name="Capa 1"><path class="cls-2" d="M275.19,282.69c4-.71,7.59-1.36,11.21-2,5.07-.89,10.14-1.8,15.22-2.63,4.68-.77,9.39-1.35,14.06-2.17,8.39-1.47,16.75-3.13,25.14-4.59,4.76-.83,9.58-1.32,14.35-2.13,6.43-1.1,12.82-2.41,19.25-3.52,4.77-.83,9.59-1.44,14.37-2.23,6.44-1.05,12.87-2.19,19.31-3.29s13.09-2.25,19.62-3.4c6.74-1.19,13.46-2.44,20.21-3.59,4.57-.78,9.17-1.38,13.75-2.16s8.87-1.74,13.32-2.49c5-.84,10-1.48,15-2.32,4.47-.75,8.91-1.7,13.38-2.48,4.66-.82,9.35-1.51,14-2.29,5.18-.86,10.35-1.75,15.53-2.62a33.63,33.63,0,0,1,12.17-.07c5.57,1.08,11.21,1.78,16.8,2.71,4.06.66,8.11,1.42,12.16,2.14,4.86.88,9.72,1.78,14.59,2.62q13.23,2.3,26.46,4.51c6.44,1.08,12.9,2.07,19.34,3.16,8.61,1.47,17.22,3,25.84,4.5,6.55,1.11,13.11,2.12,19.67,3.18,6.34,1,12.68,2,19,3.12,6.75,1.16,13.49,2.37,20.23,3.58,8.59,1.53,17.16,3.14,25.76,4.61,4.78.81,9.61,1.37,14.41,2.11q6.07.93,12.12,2c4.85.87,9.67,1.92,14.53,2.73,6.13,1,12.28,1.87,18.77,2.85.06,1.26.16,2.38.16,3.51,0,66.08.07,132.17-.14,198.26,0,6.77-1.67,13.54-2.61,20.3-.64,4.57-1.22,9.15-2.09,13.68-1.64,8.41-3.34,16.82-5.26,25.17s-4.06,16.43-6.23,24.61c-1.25,4.74-2.58,9.47-4.2,14.08-3.57,10.2-7,20.46-11.14,30.44C768,625.52,762.18,638.27,756.32,651c-3.65,7.92-7.56,15.75-11.81,23.36-4.82,8.63-10,17-15.27,25.43-4.62,7.42-9.41,14.75-14.29,22-3.68,5.49-7.57,10.85-11.48,16.18s-7.83,10.68-12,15.79c-5.53,6.76-11.06,13.55-17,19.9-10.91,11.61-22,23.1-33.33,34.26-6.52,6.41-13.69,12.17-20.72,18-6.48,5.41-13,10.8-19.79,15.79a255.51,255.51,0,0,1-21.53,14.49c-9.15,5.39-18.68,10.15-28.1,15.08-3,1.56-6.09,2.83-9.18,4.17-2.34,1-4.36.49-6.71-.68-13.51-6.75-26.12-15-38.42-23.63-6.87-4.84-13.11-10.56-19.76-15.71-17.5-13.55-32.66-29.6-48-45.39-9.07-9.32-17.4-19.39-25.65-29.45-7.89-9.6-15.39-19.53-22.79-29.52-4.9-6.61-9.43-13.5-13.91-20.4-8.11-12.51-16.35-24.95-24-37.75-6.06-10.2-11.36-20.86-16.81-31.41C321.41,633.1,317,624.68,313.2,616c-5.32-12.08-10.39-24.29-15.08-36.62-4.09-10.73-7.8-21.63-11.12-32.62-2.49-8.27-4.14-16.81-6.06-25.25-1.32-5.8-2.57-11.61-3.64-17.46a58.3,58.3,0,0,1-1.1-10q-.57-103.38-1-206.74C275.18,285.93,275.19,284.56,275.19,282.69Zm17.25,117.65h.06c0,24.37,0,48.74.05,73.11a100.2,100.2,0,0,0,1,13.29c1.07,7.9,2.34,15.78,3.72,23.64,1.19,6.72,2.33,13.47,4.06,20,2.15,8.19,4.52,16.36,7.45,24.29,6.16,16.72,12.48,33.39,19.27,49.86A335.69,335.69,0,0,0,342.42,635c6.88,12.88,14.42,25.42,21.75,38.07,10.88,18.8,23.32,36.58,36.19,54,6.8,9.23,14,18.18,21.3,27,6.35,7.71,12.73,15.46,19.73,22.56,12.44,12.6,25.35,24.74,38.1,37a84.44,84.44,0,0,0,6.66,5.89c6.82,5.35,13.49,10.93,20.63,15.8,10.34,7,21,13.57,31.63,20.25a3.2,3.2,0,0,0,2.6.29c6.2-3.1,12.53-6,18.46-9.6q14.28-8.64,28.06-18.08c5.74-3.93,11.11-8.42,16.47-12.86,8.47-7,17.26-13.74,25.07-21.45,12.66-12.51,24.72-25.62,36.84-38.66,4.59-4.94,8.69-10.34,12.88-15.64,2.94-3.7,5.67-7.57,8.47-11.38,5.74-7.83,11.66-15.54,17.14-23.54,4.91-7.17,9.41-14.63,14-22,3.18-5.18,6.34-10.39,9.17-15.76,4.55-8.62,8.89-17.34,13.2-26.08,3-6.09,5.94-12.22,8.66-18.43,3.2-7.28,6.2-14.65,9.18-22,2.11-5.23,4.26-10.45,6-15.8,2.33-7.14,4.34-14.39,6.37-21.62,1.84-6.53,3.64-13.08,5.26-19.67,1.15-4.65,2-9.38,2.91-14.08,1.3-6.49,2.61-13,3.81-19.48.49-2.69.7-5.43,1.07-8.14.9-6.53,2.55-13.06,2.6-19.6q.63-78.63.66-157.26c0-1-1.27-2.37-2.29-2.85-4.16-1.95-8.41-3.72-12.69-5.39-12-4.67-23.94-9.5-36.06-13.8-10.83-3.83-21.85-7.15-32.85-10.47-6.19-1.87-12.51-3.33-18.79-4.92-6.07-1.54-12.14-3.06-18.23-4.51-4.58-1.1-9.16-2.26-13.79-3.07-6.93-1.2-13.92-2.12-20.88-3.13-10.52-1.54-21-3.23-31.57-4.53-7.52-.93-15.09-1.47-22.65-1.93q-12.09-.73-24.19-1a444.22,444.22,0,0,0-52.1,1.86c-5.13.49-10.3.63-15.44,1.05-2.72.22-5.43.69-8.14,1.07l-18.73,2.69c-5,.71-10,1.27-14.89,2.17-5.66,1-11.27,2.39-16.91,3.54-8.17,1.67-16.41,3.05-24.52,5q-14.48,3.44-28.77,7.65c-11.53,3.42-23,7-34.35,11-14.62,5.2-29,11.06-43.6,16.31-2.9,1-3.42,2.43-3.41,5Q292.5,363.47,292.44,400.34Z"/><path class="cls-2" d="M275,260.4c.1-2.12-.52-4.79.53-6.2.92-1.22,3.72-1.09,5.71-1.45,10.48-1.89,21-3.66,31.44-5.65,9-1.71,17.93-3.74,26.93-5.44,4.86-.92,9.82-1.37,14.71-2.2,5.82-1,11.6-2.17,17.41-3.23,6.44-1.18,12.9-2.28,19.34-3.46,6-1.11,12-2.31,18-3.43s11.81-2.19,17.72-3.23c6.85-1.2,13.71-2.33,20.56-3.51,6.13-1.06,12.27-2.09,18.38-3.24,4.33-.81,8.61-1.88,12.94-2.67,6.11-1.1,12.26-2,18.38-3.08s12.21-2.38,18.33-3.48c4.57-.82,9.16-1.49,13.75-2.25a32.26,32.26,0,0,0,5.59-1c6.06-2.18,11.7.49,17.48,1.31,5,.71,10,1.7,14.91,2.63,7.77,1.44,15.52,3,23.3,4.4,6.32,1.15,12.66,2.16,19,3.26,6.12,1.06,12.24,2.19,18.36,3.25,6.75,1.17,13.51,2.25,20.25,3.46,5.71,1,11.4,2.23,17.11,3.28,6.43,1.18,12.88,2.27,19.32,3.41,6,1.07,12,2.18,18,3.24,6.64,1.17,13.29,2.28,19.92,3.49,7.16,1.3,14.29,2.69,21.44,4,4.87.91,9.74,1.78,14.61,2.65q11.8,2.1,23.62,4.17c6.64,1.17,13.27,2.47,19.94,3.46,2.26.33,3.18,1.06,3,3.38a68.87,68.87,0,0,0,0,8.62c.15,2.2-.94,2.66-2.67,2.36-3.74-.65-7.45-1.45-11.18-2.14-6.51-1.2-13-2.36-19.53-3.53s-13-2.36-19.58-3.48-13.15-2.13-19.72-3.23-12.87-2.27-19.32-3.35c-5.1-.85-10.21-1.6-15.31-2.43q-6.71-1.11-13.39-2.3c-6.43-1.13-12.84-2.32-19.27-3.44q-10.72-1.87-21.47-3.66c-6.55-1.07-13.13-2-19.68-3.09-3.64-.61-7.23-1.53-10.86-2.19-6.64-1.2-13.29-2.31-19.93-3.48-8.73-1.52-17.45-3.11-26.18-4.58-6.53-1.11-13.08-2.09-19.63-3.1-2.4-.37-4.85-1.11-7.2-.88-5.53.54-11,1.56-16.52,2.4-5,.76-10,1.49-15,2.33-6.12,1-12.23,2.18-18.35,3.24-6.74,1.17-13.48,2.29-20.23,3.44q-5.6,1-11.2,2-7.77,1.38-15.54,2.81c-8.51,1.56-17,3.18-25.53,4.66-8.1,1.41-16.24,2.58-24.33,4-10.06,1.78-20.07,3.79-30.13,5.54-8.42,1.47-16.88,2.61-25.3,4.07-8.08,1.41-16.11,3.12-24.19,4.55-6.44,1.14-12.92,2-19.36,3.11-5,.87-9.93,2-14.92,2.9-4.29.76-4.31.68-4.35-3.77,0-1.06,0-2.13,0-3.19Z"/><path class="cls-2" d="M465,515.34c-1.7.31-3.53.79-5.39,1-7.12.67-12.65-3-18.22-6.69q-10.81-7.1-21.78-14a11.25,11.25,0,0,0-4.91-1.89c-1.08-.07-3,1.06-3.27,2a45.47,45.47,0,0,0,0,21.6,39.25,39.25,0,0,0,1.88,6c.5,1.24,1.13,2.77,2.17,3.41,5.12,3.15,5.73,7.91,5.35,13.24-.25,3.59.35,4.11,3.87,4.17.95,0,1.91,0,2.87,0,7.28-.42,6.89,2.17,6.61,7.27-.26,4.75-.69,9.5-.88,14.25-.21,5.56-1.29,6.26-6.3,4.29-5.56-2.18-10.84-4.83-14.43-9.72-1.81-2.47-2.76-5.58-4.14-8.39-.81-1.65-1.38-3.59-2.62-4.83-4.44-4.43-6.73-9.92-7.88-15.83a140.32,140.32,0,0,1-2-16.24c-.51-6.53-.63-13.08-1-19.62-.24-4.29-1.11-8.62-.77-12.86a26.4,26.4,0,0,1,3.13-10.63c1-1.75,4.13-3.17,6.32-3.2,7.93-.09,15.86.5,23.79.73a17.85,17.85,0,0,0,3.86-.75c-4-5.23-7.82-9.81-11.08-14.78s-5.79-10.13-8.65-15.21c-2.8,5.38-5.13,10.4-7.95,15.14a73,73,0,0,1-8.27,11.77,26.44,26.44,0,0,0-7.12,17.59c-.16,4.64-.95,9.27-.82,13.89.12,4.15,1.05,8.29,1.71,12.42.36,2.27.06,4.19-1.95,5.62-3.44,2.44-6.84,4.94-10.28,7.39-1.92,1.37-3.64.46-3.92-2-.58-5.12,1.73-9.62,2.83-14.4a30.37,30.37,0,0,0,.26-9.57c-.83-8.49-2.31-17,2.59-24.86,2.88-4.61,6.38-8.9,8.75-13.75a59.66,59.66,0,0,0,4.58-14.22c.89-4.43.63-9.07,1.1-13.6.72-6.85,5.65-9.64,11.51-11.31A26.71,26.71,0,0,1,428,422.35c8.45,5.71,17.16,11,25.75,16.53,2.4,1.55,3.8,1.79,6.1-1.05,6.31-7.79,13.54-14.68,23.71-17.46a5,5,0,0,0,2.83-2.74c3.28-9.23,9.68-16.62,14.5-24.93a75.18,75.18,0,0,0,4.11-7.38c4.33-10,8.51-20,13-30.7-1.69,0-2.86-.29-3.79.05-4.23,1.54-8.26.9-12.21-.87-2-.88-3.82-2.15-5.86-2.8a6.36,6.36,0,0,0-3.89.41c-5.85,2.31-11.54,5.09-17.5,7.06-2.89,1-6.26.74-9.38.57-.86-.05-2.21-1.84-2.27-2.9a5,5,0,0,1,1.76-3.53,78.6,78.6,0,0,1,6.92-4.55l-.33-1c-1.07-.07-2.14-.22-3.21-.19-2.12.08-4.23.34-6.35.38-6.41.1-9.84-5.14-7.1-11.05,2.89-6.19,7.77-9.71,14.47-11.59A53.27,53.27,0,0,0,483,318c7.15-4.51,14-9.57,21.39-14.74l-5.74-3.49c4.42-3.66-1-4.07-2.11-6.72h7.72l-2.4-5.82c2.74.63,4.85,1.08,6.95,1.62.6.15,1.12.67,1.72.78,1.17.23,2.37.3,3.57.43a15.17,15.17,0,0,0,.32-3.64c-.45-3-1.15-5.9-1.83-9.24,5.46,1.28,8,5.16,10.5,9.72,3.45-3.41,2.84-7.61,3.21-11.84,1,.11,1.9-.06,2.48.33,4.36,2.92,9.13,5.49,11.53,10.54,1.29,2.72,3.47,1.56,5.18,1.18,10.61-2.38,19.06,1.12,25.5,9.59,1.32,1.73,2.16,1.94,4.32,1.66a37.11,37.11,0,0,1,10.61.43c4.35.7,8.62,2,12.92,3l-.06,1.33c-1.23.21-2.46.44-3.7.62-4,.56-7.71,1.56-10.38,5-1.71,2.21-1.41,3.59,1.1,4.63,7.63,3.16,12.81,9.16,17.8,15.38a4.88,4.88,0,0,1,1,2.41c-5-1.62-8.92-6.18-15.13-5.23.38,4.27,3.16,6.84,6,9.09s6.13,3.93,9.25,6.56l-11.88,1.09-.07,1c.45.38.87,1.08,1.33,1.11,4.31.27,7.29,2.9,9.26,6.19,2.88,4.81,7.63,6.33,12.23,8.32.38.16.81.24,1.17.43.13.08.15.37.48,1.28-3.48.25-6.88,1.06-10.07.56s-6-2.29-9-3.53c-1.83-.76-3.6-1.67-5.48-2.26a3.14,3.14,0,0,0-2.59.42,2.59,2.59,0,0,0-.07,2.42c3.1,5.43,6.3,10.8,9.53,16.16a18.23,18.23,0,0,1,2.62,5.3c-3.27-2.57-6.5-5.17-9.82-7.67a40.86,40.86,0,0,0-6-4c-.87-.44-2.25.11-4.08.27,4,3.81,7.54,6.72,10.54,10.07a48.77,48.77,0,0,1,7.14,9.86c2.12,4.08,5.16,7.17,8.41,10.18.74.69,1.8,1,2.28,2-5.44.76-9.45-1.29-12.81-4.81-3-3.2-7.06-3.45-11.65-4.47,4.2,9.74,13,14.43,18.53,22l-11.06-4.7-.73,1.17,4.13,5.68c-4.63-.85-8.39-4.14-13.44-2.41l18.4,10.54-.32,1.14c-3.35,1.41-7.13-3.28-10.62.47,4,4.44,9.06,8.33,9.68,15-3.64-1.24-6.91-2.42-10.25-3.41-.44-.13-1.16.69-2.14,1.32,4.65,4.34,9.76,8,11.68,15.17a80.91,80.91,0,0,0-7.64-3.48,47.7,47.7,0,0,0-7.59-1.63c-.65-.1-1.42.53-2.13.83a10.07,10.07,0,0,0,1.21,2c1.73,1.7,3.55,3.31,5.33,4.95l-.47.85a19.1,19.1,0,0,0-3.34-.87,9.47,9.47,0,0,0-2.62.5,7.43,7.43,0,0,0,.91,2.35c5.38,6.1,10.43,12.37,11.91,20.71a12.83,12.83,0,0,1,.24,1.53c0,.16-.21.34-.42.67-2.66-2.43-5.14-5.07-8-7.22-8-6-16.58-10.58-26.7-12.15-3.22-.5-3.28-.51-3.18,2.75.4,13.18,7,23.28,15.5,32.39,9,9.69,20.06,17,30.74,24.67,9.86,7.11,19.63,14.38,29.16,21.93,5.37,4.25,7.91,10.24,8.1,17.19a62.88,62.88,0,0,0,.84,8.77c.1.61,1.86,1.61,2.32,1.38,5.73-3,12-4.93,16.85-9.55,5.11-4.89,9.08-10.48,10.6-17.43,1.82-8.33,1.21-16.71.25-25.15-1.05-9.29-5.24-17.57-7.42-26.42-2.24-9-3.72-18.38-1.55-27.85,1.24-5.41,1.44-11.09,3.08-16.35,2.63-8.42,7.76-15.43,14.45-21.23,3.18-2.75,7.13-4.31,10.56-4-11.05,10.25-13.06,23-11.35,37.34a22.58,22.58,0,0,0,3.77-2,47.33,47.33,0,0,0,15-22.14,31.62,31.62,0,0,1,1.8-3.69c4.42,6.23,4.08,15.47-.71,22.17-3.11,4.35-6.78,8.35-8,13.76-.9,3.8-1.72,7.62-2.79,12.36,6.28-3.51,10.05-9.78,17.35-10.12-.87,4.93-2.07,9.41-2.37,13.95a137.17,137.17,0,0,0,.25,15.83c.16,3.13.81,6.24,1.15,9.37.7,6.38,1.78,12.76,1.91,19.16a59.84,59.84,0,0,1-6.21,27.79,54.86,54.86,0,0,1-17.08,20,45.68,45.68,0,0,0-4.44,3.17,3.16,3.16,0,0,0-.75,2.72,38,38,0,0,1,1.7,16.21c-.55,6.76-1.63,13.48-2.48,20.22l-1.34.34a11.39,11.39,0,0,1-1.81-2.66c-1.51-4.62-2.88-9.29-4.54-14.74-1,1.38-1.84,2.08-2.11,2.95-2.5,8.16-6.86,15.23-12.06,21.93a15.62,15.62,0,0,0-3.2,7.7c-.5,5.31-.15,10.71-.15,16.32a9.5,9.5,0,0,1-1.77-1.27c-5.16-5.71-6.44-12.19-3.51-19.34,2-4.92,4.74-9.61,6.29-14.67s1.94-10.19,2.75-15.32c.1-.61-.41-1.31-.65-2a8.16,8.16,0,0,0-1.92.71c-3.46,2.41-4.36,6.18-5.07,10-.53,2.85-.89,5.72-1.42,9.17-3-5.27-7.05-9.62-6.09-15.67.54-3.46,2-6.78,3.19-10.12,1-2.78.8-5.3-1.66-8.34-.66,2.25-1.29,3.92-1.64,5.64-2.11,10.16-4.45,20.39-10.16,29.11-3.23,4.93-8.31,8.64-12.56,12.9-5.25,5.26-10.57,10.47-15.74,15.81a57,57,0,0,0-4.46,5.76c-3.18,4.26-2,7.89.57,11.8,2.3,3.52,5.61,6.41,7.72,10,3,5.08,3.14,9-1,12.42-6.66,5.44-13.21,11-19.47,16.94-7.29,6.87-14.13,14.22-21.35,21.17-4.22,4.07-7.51,8.21-6,14.63.73,3,0,4.94-3.88,5.91-5.46,1.38-10.56,4.14-15.88,6.15a33,33,0,0,1-5.33,1.11c-2.69-6.29-4.2-12.19-.75-18.09a31.32,31.32,0,0,1,4.86-6c3.86-3.91,7.95-7.59,11.86-11.45,7.12-7,14.29-14.07,21.23-21.31,3.7-3.86,7-8.1,10.33-12.3a2.92,2.92,0,0,0,0-2.81c-4.44-5.48-6.07-12.12-8-18.65-.23-.76-.61-1.48-1.18-2.85-2,2.83-4.06,5-5.22,7.53-1.38,3-3.49,2.75-5.77,2.08-11.23-3.31-22.32-7.19-33.68-10-8.65-2.09-17.63-2.88-26.49-4.08a74.74,74.74,0,0,0-12-.86c-3.76.1-7.49,1-11.25,1.44a4,4,0,0,1-2.74-.79c-5.47-4.51-10.9-9.06-16.23-13.73a56.94,56.94,0,0,1-4.69-5.43c3.37-.65,6.13-1.52,8.92-1.64,5.74-.24,11.49-.17,17.24,0a19.1,19.1,0,0,1,5.55,1.17c5.15,1.78,10.14,4.1,15.39,5.49,6.28,1.67,12.75,2.65,19.16,3.83,5.15,1,10.32,1.79,15.49,2.61,3,.48,6,1,9,1.19a6.13,6.13,0,0,0,6.38-3.78c1.16-2.65-.32-4.88-2.31-6.43-8.63-6.73-14.79-15.5-20.73-24.5a62.44,62.44,0,0,1-9.16-21.92c-1.44-6.9-2.23-14-.36-21a52,52,0,0,0,1.69-8.87c.08-1-1-2.51-2-3.11-7.8-4.74-16-8.85-23.51-14.06-9.66-6.73-19.29-13.7-26.14-23.6A58.54,58.54,0,0,1,465,515.34Zm96.82,126.3c-.28-2.07-.41-3.92-.8-5.71-.66-3.06-2.19-6.11-2.09-9.12.28-8.1,2.88-15.59,8.93-21.24,6.44-6,8.72-13.54,9.09-21.93.15-3.4,0-6.8,0-10.21,0-4.39-1.18-6.11-5.94-8.11-.57,1.34-1.53,2.65-1.66,4-.49,5.14-.53,10.32-1.07,15.45-.59,5.64-2.42,10.78-6.89,14.7-1.7,1.49-3.16,2-5,.26-1.35-1.31-2.22-1.15-3.89.25-3.19,2.69-1.37,5,0,7.15a6,6,0,0,1,.86,5.58,43.63,43.63,0,0,0-1.32,8.71,33.63,33.63,0,0,0,2.75,16C556.26,640.9,557.12,641.87,561.77,641.64Zm131-145.21-1-.36c-1.44,2.35-3.19,4.56-4.27,7.07-4.31,9.92-6.94,20.19-6.18,31.17.27,3.93.78,8.09-.18,11.8A45.42,45.42,0,0,1,666.23,570c-1.58,1.33-3.27,2.53-4.9,3.79.15.4.31.81.46,1.22a58.37,58.37,0,0,0,7.17-1.84c5.6-2.21,9.34-6.51,12.52-11.48,4.24-6.62,7.09-13.83,7.39-21.58.48-12.32,0-24.67,3-36.78A66.6,66.6,0,0,0,692.8,496.43Zm-145.11-57a69.07,69.07,0,0,1,4-7c2.47-3.34,5.27-6.43,7.88-9.66s1.45-7.29,2-11c.54-3.41.55-7.07,3.41-9a23,23,0,0,1-.74-4.74c.22-3.65.85-7.28,1.09-10.93s-3-5.23-5-7.78a19.83,19.83,0,0,0-1.63,5.1c-.28,1.33-.46,2.67-.71,4-.71,3.78-1.39,7.58-2.17,11.35-1.11,5.4-2.19,10.82-3.47,16.18-1.71,7.17-3.63,14.29-5.33,21.46C546.88,438.09,547.55,439,547.69,439.42Zm-14.56-72.88-.83-.83a58.85,58.85,0,0,0-6,2.14,5.6,5.6,0,0,0-2.75,2.44c-3,7.38-5.62,15-8.86,22.24-2.66,6-6,11.7-9.07,17.51-1.09,2.07-2.27,4.09-3.52,6.33,4.17,1,6.38-.68,8.68-3.71,8.56-11.29,14.49-24,20-36.85C532,372.92,532.37,369.64,533.13,366.54ZM529.79,559c-14-11.67-26.19-25.18-37.81-38.33l-7.26,5.41A121.34,121.34,0,0,0,529.79,559Zm-13.1-132c-15.09-4.49-36.29-.09-44.23,13.33,13.63-6,27.15-6.47,40.74-4.18ZM548.8,596.7h1.28c.22-1.8,1-3.8.54-5.36a34.66,34.66,0,0,0-4-8c-3-4.5-6-9-9.37-13.17-2.66-3.37-5.88-6.29-10.24-7.39-.8-.2-2.5.14-2.56.46-.52,2.76-1.24,5.64-.86,8.34.19,1.29,2.64,2.26,4.06,3.37.34.26.64.56,1,.8C536.71,581.38,542.71,589.09,548.8,596.7ZM538,464.71c1.58,5.47,2.69,10.58,4.58,15.37a44.13,44.13,0,0,0,5.91,10c2.2,2.93,4.35,6.2,8.33,7.12a8.78,8.78,0,0,0,2.44-.1,7.74,7.74,0,0,0-.7-2.42c-4.71-6.73-7.85-14.1-8.37-22.32-.23-3.69-.79-6.75-3.32-9.83-2.14-2.62-4.34-1.69-6.4-1.44C539.53,461.17,538.84,463.42,538,464.71Zm35.61,76.37c0-3.38-1.81-4.77-4.27-6.1a3.82,3.82,0,0,0-5,.61,16.28,16.28,0,0,0-3.38,4c-3.58,7-2.12,14.62-2,22,0,1.38,1.2,3.33,3.2,2.47a4.48,4.48,0,0,0,2.25-3.06,29.4,29.4,0,0,1,7-15.82A21.57,21.57,0,0,0,573.63,541.08ZM561.87,343.17a44.63,44.63,0,0,0-1.27-4.5,9.61,9.61,0,0,0-1.54-2c-.4.89-1.22,1.81-1.14,2.65.47,5.06,1.21,10.1,1.76,15.16.52,4.78.84,9.59,1.4,14.37.36,3.08,1,6.12,1.51,9.18l1,.06c.62-1.69,1.73-3.37,1.76-5.07.08-4.3-.38-8.61-.5-12.92a16.94,16.94,0,0,1,.42-5.14c1.54-5.2,2.1-10.2-1.91-15.35ZM463.09,446.81a8.65,8.65,0,0,0-8.49,1.8c-5.93,5.31-10.34,11.82-14.12,18.79-1.23,2.26-.12,3.85,1.75,4.82,2.25,1.18,3.7.16,4.44-2.2a11.19,11.19,0,0,1,1.55-3.38c4.54-6,9.17-11.9,13.75-17.85A15.87,15.87,0,0,0,463.09,446.81Zm-65.17,48.62a54.54,54.54,0,0,0,0,5.47c.52,5,1.16,10,1.78,15a58.7,58.7,0,0,0,1.08,7.15,3.16,3.16,0,0,0,2.18,1.84,39.64,39.64,0,0,0,5.88.08c-2.32-10.15-4.51-19.75-6.75-29.52ZM638,592.25l-.73-.16c0-2.34.37-4.76-.13-7-.3-1.34-1.93-2.38-3-3.56-.87,1.13-2.13,2.13-2.52,3.4a13.54,13.54,0,0,0-.09,4.76c.56,7.31-.67,14-6,19.52a2.8,2.8,0,0,0-.1,2.73c.64.64,2.45,1.15,2.91.75,2.46-2.18,5.56-4.28,6.74-7.12C636.81,601.45,637.1,596.72,638,592.25Zm-186.37-87c2.05-3.7.78-5.18-2-6.68-8.88-4.7-17.55-9.79-26.4-14.54-1.72-.92-3.91-1-5.88-1.43l-1.29,2a15.37,15.37,0,0,1,2.65,1c9.15,5.66,18.25,11.4,27.42,17A47.71,47.71,0,0,0,451.63,505.24ZM571,606.27a7.56,7.56,0,0,1-.76,1.19c-7.25,6.78-6.86,15.66-6.55,24.44,0,.79,1.71,1.74,2.8,2.15a2.41,2.41,0,0,0,2-1.22c.47-2,.31-4.1.83-6,.91-3.34,1.64-6.88,3.35-9.79C575.68,611.88,575.71,609.92,571,606.27ZM419,439.4c.94,5.39,8.75,16.69,13.2,20.88,1.48,1.4,3,2.21,4.74.89,2-1.51.86-3.48-.17-4.79A155.9,155.9,0,0,0,426,443.67C424.15,441.78,421.37,440.8,419,439.4ZM566.24,326.48l.58-1c-2.83-2.5-5.6-5.08-8.54-7.45-.53-.43-1.75-.17-2.59,0-2.62.57-7,6.95-6.5,9.5.31,1.75,1.28,1.56,2.76,1.16,3.18-.86,6.44-1.42,9.69-2A41.18,41.18,0,0,1,566.24,326.48ZM586.61,692.7c-.28-.45-.48-.8-.71-1.13-1.72-2.49-2.86-2.15-5.45,1-4.39,5.45-8.93,10.77-13.44,16.12-.85,1-2.55,2.06-.66,3.2.79.48,2.86-.05,3.61-.84,5.19-5.45,10.18-11.09,15.23-16.67C585.67,693.89,586.11,693.32,586.61,692.7Zm-62.1-344,0,.21a17.82,17.82,0,0,0,3.62-.82c3.69-1.68,7.3-3.55,11-5.3,1.88-.89,3.6-1.86,3.56-4.28,0-.9-.17-1.79-.26-2.69a12.88,12.88,0,0,0-2.65.68c-3.63,1.8-7.2,3.75-10.85,5.52-2.2,1.08-4.6,1.79-6.74,3-.8.44-1.13,1.75-1.68,2.66a22.72,22.72,0,0,0,2.4,1A5.62,5.62,0,0,0,524.51,348.71ZM565.35,305c2.49-1.07,3-3.46,0-5.64-3.29-2.39-6.81-4.47-10.3-6.56-1.42-.86-5.37.58-5.73,2.09a2.3,2.3,0,0,0,.87,2C555,299.57,559.86,302.12,565.35,305Zm-4.26,10.78c1.44-8.61-6.44-14.55-15.51-12.68v4.16c4.94.44,6.37,1.12,10.29,4.51C557.42,313.14,559.11,314.31,561.09,315.82Zm-50.31-3.53c.7,2.57,2,4.82,1.68,6.82-.44,2.87,1.09,3.22,2.71,2.66,2.42-.83,4.33-.06,6.45.7,1.42.5,2.21.27,2-1.81-.25-3-1.82-4.82-3.85-6.55S512.4,311.4,510.78,312.29ZM512.07,648c.53.55.8,1.1,1.22,1.24,10,3.52,20.39,4.7,30.8,5.89,1,.12,2.24-.91,3.36-1.41l-.33-1ZM413.7,427.4l1-.86c-.93-1.58-1.63-3.4-2.9-4.61a3.48,3.48,0,0,0-3.41.23c-1.79,1.95-3.83,2.19-6.24,2.37-1.15.08-3,1.6-3.08,2.58-.09,1.24,1.07,2.88,2.16,3.77.61.48,2.55.19,3.24-.45A10.68,10.68,0,0,1,413.7,427.4ZM578.91,653.21c-1.63,1.15-3.79,2.13-3.68,2.7a62.15,62.15,0,0,0,2.93,10.79c.25.67,2.45,1,3.61.8a3.08,3.08,0,0,0,1.73-2.5,61.24,61.24,0,0,0-2.26-8.71C580.91,655.3,579.93,654.52,578.91,653.21Zm-41.35,93h4.17c4,0,5.13-1.25,4.47-5.16a13.15,13.15,0,0,0-1.13-3.88c-.9-1.71-2.06-2.54-3.94-.73C538.36,739.14,538.23,742.52,537.56,746.25Zm19.49-26.94c-2.93,2.24-5.41,3.9-7.55,5.91-.76.71-1.29,2.65-.85,3.4a5.73,5.73,0,0,0,3.47,2.1c.37.09,1.25-1.74,1.82-2.74.84-1.5,1.25-3.48,2.48-4.48C559.37,721.11,559.42,720.59,557.05,719.31ZM541.36,348.72l-15.17,2.55.14,3.1,15-1.24Zm-25.28-5c2.45-2.14,4.26-3.7,6-5.3.44-.4,1.15-1,1-1.38-.74-2.55-1.65-5.06-2.67-8A21.47,21.47,0,0,0,516.08,343.71Zm-87.15,222c.57-1.77,1.68-3.38,1.27-4.26a75,75,0,0,0-4.88-7.86C419.6,556.89,421.91,559.74,428.93,565.68Zm-27.4-91.77-1.54.24a85.35,85.35,0,0,0-2.84,8.82c-.16.74,1.2,2.22,2.18,2.7,1.49.74,2.2-.2,2.36-1.86s1-3.46,1-5.18S401.94,475.48,401.53,473.91Zm84.2-151.33.49,1.11c1.25,0,2.68.4,3.71-.08,2.83-1.32,5.43-3.13,8.24-4.5,2.62-1.29,1.84-2.45.43-3.79Zm110.38,353c0,2.91-.11,5.74.06,8.56.05.93.82,1.81,1.26,2.72.8-.85,2.11-1.6,2.3-2.57a33.22,33.22,0,0,0,.18-6C599.93,675.91,598.58,675.28,596.11,675.61Zm-215-161.25a32.89,32.89,0,0,0,3.21-5c.34-.74-.35-2.18-1-3-.22-.29-1.88.11-2.47.64a17.63,17.63,0,0,0-2.4,3.28C377.58,511.65,378.84,514.18,381.12,514.36Zm28,25c-.85-1.13-1.4-1.94-2-2.67a15.67,15.67,0,0,0-2.22-2.24,2.43,2.43,0,0,0-1.84-.58c-.55.22-1.33,1.42-1.21,1.58,1.61,2.1,3.37,4.1,5.3,6.37Zm55.81,101c1.64,4.79,1.85,3.39,6.33,3.23.73,0,1.42-1.22,2.13-1.87-.77-.6-1.5-1.66-2.3-1.72A46.64,46.64,0,0,0,464.89,640.4Zm41.75-308.85.7-1c-1.07-1.26-2.14-3.53-3.21-3.53-1.58,0-3.17,1.61-4.75,2.53l.32,1.58Zm-41.54,0v7l.76.37a10.7,10.7,0,0,0,.76-1.36,8.9,8.9,0,0,1,.54-1.77C469.24,332.76,469.26,332.77,465.1,331.59Zm48.87-26,.18,1.22a9.08,9.08,0,0,0,6.43-1.07,1.73,1.73,0,0,0,.5-1.59c-.13-.44-1-1.09-1.29-1C517.82,303.92,515.9,304.8,514,305.63Zm-20.83,341c3-.5,5.84,1.25,7.27-2.48L495,642.94C494.55,643.89,494.05,644.88,493.14,646.67ZM473.71,333l1-.34a44.22,44.22,0,0,0-1.29-4.91c-.16-.43-1.25-.5-1.91-.73-.23.71-.86,1.64-.62,2.1A32.56,32.56,0,0,0,473.71,333Z"/><path class="cls-2" d="M484.29,725.74c3.08-.62,5.51-.78,7.68-1.63a12.68,12.68,0,0,0,5.32-3.52c2.33-2.94.71-6.73-2.9-7.77a16.77,16.77,0,0,0-18.59,7.69c-2.36,4.35-.5,8,1.95,11.13,3,3.85,6.77,7.13,10.16,10.7,4,4.22,7.85,8.42,7.68,15-.15,5.81-2.83,10-7,13.51-6.75,5.58-14.71,7.41-23.31,7.13-4.47-.14-8.77-.65-12.69-3.16-3.44-2.2-5.17-5.25-4.87-9.23.33-4.27,3.28-6.81,6.85-8.45,6.89-3.17,14.28-3.43,21.7-3.15.35,0,.69.36,1.13,1.45a74.3,74.3,0,0,0-8.46,1.43,58.71,58.71,0,0,0-10.16,3.77c-3.39,1.7-4,5.15-3.35,8.49s3.53,5.24,6.49,5.71a44.17,44.17,0,0,0,11.77.11,18.41,18.41,0,0,0,10.94-5.83c5-5.07,6.23-12.52.61-18.66-3.56-3.9-7.28-7.66-10.94-11.47a22.06,22.06,0,0,1-6-10.18c-1-4.31,1.62-10.09,4.41-12.48,7-6,15.19-7.86,24-6.37,6.68,1.12,9.15,3.39,8.41,9.12-.37,2.84-2.43,4.16-4.59,5.65-4.6,3.18-9.69,2.39-14.72,2.33C485.52,727,485.23,726.55,484.29,725.74Z"/><path class="cls-2" d="M627.13,746.71c1.89-7.54,3.5-14.35,5.32-21.1,1.37-5.12,1.69-5.27,7.83-6.72-.34,9.27-4.76,17.53-6.11,26.55h7.29c-.46,3.21-1.79,4.45-5.9,4.54-2.3,0-3.28.85-4.14,2.94a111.44,111.44,0,0,1-6.53,14c-3.86,6.62-10.06,10.5-17.48,11.8a38.05,38.05,0,0,1-13.08.05,17.28,17.28,0,0,1-9-4.69c-4.35-4.58-7.83-9.94-7.5-16.82.25-5,5.86-9.6,10.43-7.85,1.71.65,3.36,3.29,3.7,5.26.5,2.91-1.85,5-4.61,5-6.26.19-7.16,1.44-3.61,6.56,4.83,7,12.6,11.71,22.32,8.46,6.17-2.06,12.68-4.21,15.71-10.69,1.89-4,2.87-8.48,4.15-12.77.59-2-.92-1.91-2.23-2-3.46-.34-6.91-.73-10.37-1.13-.25,0-.48-.33-.73-1.34Z"/><path class="cls-2" d="M677.93,709.54a9,9,0,0,1-1.34,2.6c-3.34,3.15-7.19,5.05-12,4.77-4.14-.24-8.29-.23-12.44-.35-11.33-.31-22.67-.88-34-.87-6.36,0-12.33,1.94-16.95,6.72-2.69,2.78-1.88,9.23,1.31,10.62a7.25,7.25,0,0,0,2.26.2c1.51.12,3.25-.15,4.47.51a4.39,4.39,0,0,1,2,3.38c-.05.85-1.69,2.08-2.79,2.32-6.94,1.51-12.08-2.69-12.33-9.86-.24-6.86,2.62-11.32,9-14.08a54.64,54.64,0,0,1,21.12-4.77c6.67-.09,13.35-.81,20-.82,5.94,0,11.88.8,17.81.8C668.46,710.72,672.84,710,677.93,709.54Z"/></g></g></svg>