<svg xmlns="http://www.w3.org/2000/svg" viewBox="0 0 1080 1080"><defs><style>.cls-1{fill:#f6f6f6;}.cls-2{fill:#c3c3c3;}</style></defs><g id="background"><rect class="cls-1" y="1079" width="1" height="1"/><rect class="cls-1" width="1" height="1"/><rect class="cls-1" y="1079" width="1" height="1"/><rect class="cls-1" x="1079" width="1" height="1"/><rect class="cls-1" x="1079" y="1079" width="1" height="1"/><rect class="cls-1" x="1079" y="1079" width="1" height="1"/></g><g id="Capa_1" data-name="Capa 1"><path class="cls-2" d="M396.76,312.43h64.86V767.57H396.76Zm280,0v55.14h50.81v400h62.7v-400H840V312.43ZM240,767.57h62.7V561.08h54.06V507H302.7V367.57H373V312.43H240Zm446.79-29.82q0,15,0,29.82H626.52q-.07-25.83-.11-51.91t-.32-52.09c-.38-34.63-1.17-69.13-3-102.49h-69.6V767.57H496.22V312.43H630.84a337.72,337.72,0,0,1,20.68,48.64,473.86,473.86,0,0,1,14.4,52.69c3.91,18.12,7,36.8,9.52,55.81s4.4,38.45,5.87,58.07,2.52,39.55,3.28,59.52,1.24,40.18,1.56,60.25.48,40.38.56,60.33Q686.77,722.79,686.79,737.75ZM617.94,507c-5.08-52-13.79-100.13-28.88-139.46H552.43V507Z"/></g></svg>