<svg xmlns="http://www.w3.org/2000/svg" viewBox="0 0 1080 1080"><defs><style>.cls-1{fill:#f6f6f6;}.cls-2{fill:#c3c3c3;}</style></defs><g id="background"><rect class="cls-1" y="1079" width="1" height="1"/><rect class="cls-1" width="1" height="1"/><rect class="cls-1" y="1079" width="1" height="1"/><rect class="cls-1" x="1079" width="1" height="1"/><rect class="cls-1" x="1079" y="1079" width="1" height="1"/><rect class="cls-1" x="1079" y="1079" width="1" height="1"/></g><g id="Capa_1" data-name="Capa 1"><path class="cls-2" d="M541.29,693.33c-29.89-1.35-59.84-1.93-89.66-4.18-75.78-5.72-150.36-18-221.86-44.92-28.87-10.88-56.77-24-80.31-44.35a136.86,136.86,0,0,1-24.14-27c-15.49-23.2-13.16-50.73,4.4-73.3,14.18-18.21,32.43-31.35,52.3-42.44,38.76-21.63,80.65-34.91,123.55-45.15,46-11,92.63-17.58,139.73-21.42a1159.84,1159.84,0,0,1,168-1.66c69.32,4.4,137.76,14.29,204.33,34.85,34.55,10.66,68,24,98.17,44.3C929.5,477.35,942,488,951.71,501.58c18.33,25.74,17.67,53.76-1.81,78.76-13.32,17.09-30.48,29.52-49.07,40.17-36,20.65-75,33.58-115,43.9S705.28,681.49,664.3,686,582.45,692.73,541.29,693.33Zm13.24-13c33.49-2.22,71.54-3.9,109.41-7.48a764.84,764.84,0,0,0,130.27-23.5c35.16-9.62,69.52-21.35,101.14-39.94,16.59-9.76,32.07-20.91,43.61-36.65,8.15-11.12,13.21-23.33,12.32-37.53-1-16.56-9.15-29.6-20.14-41.18-14.38-15.16-31.91-26-50.38-35.31-32.63-16.46-67.26-27.36-102.64-36-54.23-13.25-109.37-20.32-165-23.75a1153.44,1153.44,0,0,0-180.87,3c-41.19,3.94-82.07,10.15-122.35,19.84-38.52,9.28-76.17,21-111.39,39.55-19.54,10.3-37.74,22.42-51.72,39.93-17.45,21.88-18.5,46-3,69.09,8.47,12.63,19.83,22.36,32.28,30.81,27.75,18.83,58.53,31.17,90.33,41.14,62,19.44,125.78,29.14,190.36,33.79C487.74,678.4,518.86,678.89,554.53,680.36Z"/><path class="cls-2" d="M553.94,667.85c-28.67-1.07-61.45-1.46-94.11-3.66-70.14-4.74-139.38-15.09-206.18-38.05-26.32-9-51.88-19.95-74.13-37.07a119.36,119.36,0,0,1-20.08-19.27c-17.13-21.24-16.23-45.06,1.67-65.8,15.46-17.91,35.41-29.44,56.46-39.29,40-18.7,82.36-29.7,125.54-37.89,76.28-14.46,153.3-19.1,230.81-17.16,52.44,1.3,104.55,5.9,156.21,15.08,45.4,8.06,90,19.09,132.27,37.9,19.52,8.68,38,19.08,53.74,33.86,9.09,8.55,16.53,18.34,19.62,30.66,4.25,17-1.51,31.4-12.17,44.34-12.18,14.79-27.88,25-44.58,33.87-35.7,18.83-74,30.16-113.16,39a867.43,867.43,0,0,1-134.07,19.2C607.22,665.16,582.64,666.28,553.94,667.85Zm244-177.3c-9,0-16.81-.13-24.59.14-1.22,0-2.69,1.65-3.52,2.88Q751.31,521.4,733,549.3a25.38,25.38,0,0,1-2.64,2.82c-4.8-12.81-12.52-18-25.72-17.66-10,.24-18.94,3.95-26.66,9.94-10.76,8.35-20.85,17.57-31.6,25.93A81.44,81.44,0,0,1,629,580.86c-8.07,3.48-15,.18-17.5-7-2.6-7.65,2-19.57,8.79-22.14,0,1.39,0,2.67,0,4,.28,6.65,4.89,11.19,11.47,11.31,8.91.15,16.35-7.63,16.83-17.59.42-9-5.69-16-14.73-16.84-10.7-1-19,3.74-26.17,10.93-2.16,2.15-4.1,4.52-6.82,7.55-.19-2.84-.29-4.59-.43-6.33-.93-11.22-8.64-17.12-19.61-14.44-4.61,1.12-9.63,2.55-13.24,5.4-7.77,6.15-14.76,13.28-22,20.06-1.61,1.5-3,3.18-4.51,4.72-1.82-7-3.2-13.4-5.23-19.6-1.13-3.45-3.13-7-8-5.41-8.07,2.66-10.52,5.75-9.06,11.53a54,54,0,0,1-1,31c-4.47,13.37-12.16,24-26.11,28.72-10.79,3.65-19.64-1.61-21.13-12.82a31,31,0,0,1,.92-12.27c5.1-17.79,18.28-27.91,34.42-35,6.29-2.74,7-4.85,3.15-10.6-2.37-3.56-5.9-2.53-9.06-2-24,4.43-41.24,18.14-51.38,40-5.9,12.7-11.91,24.85-23.7,33.16a4.12,4.12,0,0,0-1.38,3.33c1.12,6.54,6.45,8.61,11.6,4.47,3.36-2.7,6.42-5.77,9.64-8.64.78-.7,1.66-1.27,2.58-2,5.63,12.91,9.26,17.58,17.53,21.16,15.09,6.55,28.92,2.86,41.89-5.91,9.8-6.63,16.68-16,24-25.1,9.92-12.26,20.31-24.14,31-35.74,3.14-3.4,7.76-5.63,12-7.7,1.71-.83,5.27-.57,6.29.63,1.26,1.48,1.28,4.57.86,6.78a21,21,0,0,1-3.14,6.71q-17.57,28.41-35.22,56.76a55.72,55.72,0,0,0-2.48,5.47c7,0,13-.21,18.93.08,3.74.18,6-1,8.06-4.27,7.42-12,15.2-23.81,22.89-35.67,2.37-3.64,4.88-7.2,7.73-11.37a17.72,17.72,0,0,1,.71,2.27c1.62,15.88,12.57,23.52,27.95,19,5.77-1.7,11.18-4.63,17.1-7.15,0,5-.32,9.88.06,14.76,1.25,16.1,14.68,26.35,30.55,23.66,9.37-1.59,16.87-6.66,24-12.52,1.3-1.08,2.65-2.1,4.38-3.47a27.77,27.77,0,0,1,.81,2.66c1.68,10.33,7.74,15.48,18.15,15.11,10.23-.37,19.28-4.55,26.71-11.05,11.6-10.14,22.37-21.23,33.54-31.87,2.22-2.12,2.23-4-.3-5.66-2.28-1.51-3.9-5.87-7.66-1.88-3.31,3.5-6.63,7-10.23,10.23-7.57,6.72-15.14,13.48-23.1,19.7-4.78,3.74-11,4-13.39,1.23-3.82-4.44-.82-8.53,1.52-12.24q23.29-36.87,46.84-73.6C782.51,514,789.91,502.83,797.9,490.55ZM423.82,524.64c-6.7,12.72-33.08,43.74-46.83,55.49-10.17,8.69-21.27,15.52-34.86,16.91-10.35,1.07-19.73-1.27-25.5-10.91-5.9-9.86-4.72-19.85,2.47-28.26,4.75-5.56,11.36-9.49,16.93-14.39,1.66-1.46,4.06-4.23,3.61-5.49a9.48,9.48,0,0,0-5.54-5.26c-2.65-.77-6-.29-8.72.6-14.61,4.79-25.5,14-32,28.1-10.45,22.71-2.82,48.45,17.8,59.31,17.11,9,34.72,7.76,52,.71,18.28-7.44,32.26-20.69,43.53-36.31,14.28-19.78,27.19-40.54,40.84-60.78,1.25-1.85,3.45-4,5.43-4.26,11.71-1.42,23.47-2.46,35.25-3.25,1.93-.13,4.14,1.34,6,2.5,3.35,2.12,6.32,4.92,9.83,6.68,1.28.64,3.65-.9,5.53-1.44-.57-1.59-.78-3.5-1.8-4.7-1.61-1.87-3.77-3.26-6-5.14,11.21-5.25,15.32-9.6,17.35-17.77,2.07-8.36-3.56-15.46-12.18-15.35-9.22.11-17.63,8.86-18.28,19.09-.14,2.25,0,4.51,0,7.11l-30.53,1.55c1.2-2.14,1.91-3.58,2.77-4.92,10.55-16.59,25.36-28.9,40.72-40.68,2.45-1.88,4.44-4.36,7.16-7.08,10.27,2.77,21.32,5.7,32.35,8.74,22.28,6.13,44.59,12.09,68,12,18.7-.06,36.45-3.75,51.48-15.57,3.56-2.79,6.3-7.21,8.13-11.44s-1.41-7.46-6-7.05c-1.65.14-3.27.61-4.91.81-15,1.87-29.93,4.57-45,5.38-36.44,2-72.19-4.42-107.95-10.38-28.23-4.72-56.52-8.72-85.29-6.43-19.72,1.57-38.26,6.76-54.64,18.22-9.73,6.81-17.55,15.33-21.15,27-3.68,11.93-3.38,23.57,5.35,33.32,8.39,9.35,19.48,11.2,31.15,8.17,21.56-5.6,33.81-21.2,41.74-40.85.7-1.73-1-4.41-1.55-6.66-2,1-4.8,1.39-6,3-7,9.57-15.66,16.84-27,20.26-5.88,1.77-12.17,1.86-16.71-3.25s-4.16-11-2-16.94c.73-2,1.47-4.29,2.93-5.71,5.2-5,10.12-10.7,16.21-14.37,12.53-7.56,26.92-10.14,41.23-9.66,16.37.56,32.68,3.12,49,5.06,5.76.68,11.44,2.07,18.24,3.34-6,3.65-11,6.29-15.54,9.52-16.74,11.91-30.09,27.12-41.61,44-2.36,3.46-5.25,4.74-9.23,5.68-10.92,2.6-21.7,5.84-32.45,9.12a11.64,11.64,0,0,0-6.05,4.16c-1.22,1.83-1,4.64-1.36,7,2.3.14,4.64.6,6.88.29,1.33-.18,2.46-1.61,3.74-2.38C407.68,526.91,415,524.13,423.82,524.64Z"/><path class="cls-2" d="M668.56,594.52c.61-2.25,1.36-6.9,3.14-11.12,4.8-11.38,12.08-21,22.31-28.11a30,30,0,0,1,9.82-4.57c8.67-2.09,14,3.22,12.35,12a53.72,53.72,0,0,1-2.17,6.61c-.29.93-1,2.37-.6,2.76,3.45,3.65.26,6.32-1.34,9-5.19,8.57-11,16.65-19.49,22.38a45.19,45.19,0,0,1-8.18,4.67C674.75,612,668.18,607.27,668.56,594.52Z"/><path class="cls-2" d="M499.07,505c-1.84-6.14.24-12.13,5.06-14.54,1.36-.68,3.83-.82,4.87,0s1.55,3.34,1.09,4.7A14.46,14.46,0,0,1,499.07,505Z"/></g></svg>