<?xml version="1.0" encoding="utf-8"?>
<!-- Generator: Adobe Illustrator 26.2.1, SVG Export Plug-In . SVG Version: 6.00 Build 0)  -->
<svg version="1.1" id="Capa_1" xmlns="http://www.w3.org/2000/svg" xmlns:xlink="http://www.w3.org/1999/xlink" x="0px" y="0px"
	 viewBox="0 0 1080 1080" style="enable-background:new 0 0 1080 1080;" xml:space="preserve">
<style type="text/css">
	.st0{fill:#F6F6F6;}
	.st1{fill:#C3C3C3;}
</style>
<g id="background">
	<rect y="1079" class="st0" width="1" height="1"/>
	<rect class="st0" width="1" height="1"/>
	<rect y="1079" class="st0" width="1" height="1"/>
	<rect x="1079" class="st0" width="1" height="1"/>
	<rect x="1079" y="1079" class="st0" width="1" height="1"/>
	<rect x="1079" y="1079" class="st0" width="1" height="1"/>
</g>
<path class="st1" d="M392.7,544.1c24.1-33,48.1-66,72-99.1c7.1-9.8,14.3-19.6,21.4-29.5c5-6.7,5.3-15.9,0.7-22.9
	c-4.3-6.6-10.5-9.1-18.2-9.1c-30.3,0-60.7,0-91,0c-11.3,0-20,4.5-26.6,13.4c-10.4,14.2-20.8,28.4-31.1,42.6
	c-4.1,5.6-8.3,11.3-12.3,16.9c-5.1,7.1-5.8,14.7-2.3,22.7c1.4,3.2,3.2,6.2,5.3,9c13.6,18.7,27.2,37.4,40.9,56.1
	c5,6.9,11.9,10.1,20.6,10.3C380.5,554.1,387.6,551.1,392.7,544.1z"/>
<path class="st1" d="M732.7,391.7c-1.7-2.5-3.9-4.5-6.4-6.1c-8.6-5-19.3-2.7-25.7,5.5c-2.4,3.1-4.5,6.3-6.8,9.4
	c-31.7,43.6-63.4,87.2-95.1,130.8c-39,53.7-78,107.3-116.9,161c-7.3,10-7.3,20.3,0,30.5l41.5,57.1c3.3,4.6,8.2,7.8,13.7,9
	c10.9,2.6,22.5-2,29.3-11.5c13.2-18.2,26.4-36.4,39.7-54.6l59.8-82.2c23.4-32.2,46.8-64.4,70.2-96.7c14.3-19.7,28.6-39.3,42.9-59
	c3.5-4.7,5.2-10,5.2-17.1c0.1-4-1.1-8-3.5-11.2C764.5,435,748.6,413.4,732.7,391.7z"/>
<path class="st1" d="M564.4,544l73.4-101l19.2-26.4c3.1-4.1,4.8-9.2,4.8-14.4c0.1-2.3-0.4-4.7-1.4-6.8c-3.6-7.8-9.7-11.8-18.4-11.8
	c-30,0-59.9,0.2-89.9,0c-12.6-0.1-22.2,5.1-29.6,14.9c-4,5.4-7.9,10.8-11.9,16.3l-86.4,118.9c-10,13.8-20.1,27.6-30.1,41.4
	c-5.9,8.2-6.5,16.9-1.3,25.8c0.8,1.5,1.8,2.9,2.7,4.2c13.8,19,27.7,38.1,41.5,57.1c5,6.8,12.1,10.1,20.4,10.5
	c9.2,0.5,16.2-3.8,21.5-11L564.4,544z"/>
<g>
	<path class="st1" d="M539.3,866.3c-86.8,0-168.5-33.8-229.9-95.2s-95.2-143-95.2-229.9c0-86.8,33.8-168.5,95.2-229.9
		c61.4-61.4,143-95.2,229.9-95.2c86.8,0,168.5,33.8,229.9,95.2c61.4,61.4,95.2,143,95.2,229.9c0,86.8-33.8,168.5-95.2,229.9
		S626.1,866.3,539.3,866.3z M539.3,254.2c-158.3,0-287.1,128.8-287.1,287.1S381,828.3,539.3,828.3c158.3,0,287.1-128.8,287.1-287.1
		S697.6,254.2,539.3,254.2z"/>
</g>
</svg>
