<svg xmlns="http://www.w3.org/2000/svg" viewBox="0 0 1080 1080"><defs><style>.cls-1{fill:#f6f6f6;}.cls-2{fill:#c3c3c3;}</style></defs><g id="background"><rect class="cls-1" y="1079" width="1" height="1"/><rect class="cls-1" width="1" height="1"/><rect class="cls-1" y="1079" width="1" height="1"/><rect class="cls-1" x="1079" width="1" height="1"/><rect class="cls-1" x="1079" y="1079" width="1" height="1"/><rect class="cls-1" x="1079" y="1079" width="1" height="1"/></g><g id="Capa_1" data-name="Capa 1"><path class="cls-2" d="M535.56,762.91C468,762.72,398.27,751,331.93,722.08c-39.08-17-74.73-39.3-104-70.7-24.13-25.85-41.3-55.41-46.38-91-5.87-41.09,5.53-77.82,29.44-111C236.48,414,270.59,388.71,309,369c66.8-34.33,138.41-49.31,213-51.58,71.24-2.16,140.76,7.25,207.56,32.94,50.37,19.37,95.93,46.36,131,88.27,26.38,31.52,41.55,67.67,39.21,109.54-2.2,39.43-19.59,72.37-45.8,101-34,37.09-76.29,61.61-122.67,79.63C669.81,752.67,605.79,762.73,535.56,762.91ZM887.13,497.59l.21-1.33c-2-.68-4-1.4-6.09-2-18.5-5.55-37-11-55.49-16.65-8.31-2.52-15.83-6.31-21.11-13.62-20-27.65-45.92-48.49-75.74-64.62-48.46-26.21-100.8-38.82-155.35-42.92-59.09-4.43-117.17.72-173.33,20.87-42.42,15.23-81,36.71-111.81,70.33C237.78,502.89,236.26,570.4,284.33,628c20.49,24.54,45.77,43.2,74.42,56.88,85,40.58,173.9,48.88,265.56,30,30.8-6.36,59.77-18.06,84.85-37.79,14-11,25.47-24,31-41.42,7.05-22.07.28-42.31-18.74-55.6-11.63-8.12-24.85-12.42-38.54-15.41-25.6-5.58-51.61-7.05-77.7-7.05q-91,0-182,.47c-17.79.08-30.48-7.37-38.17-23.56-5-10.54-10.59-20.81-15.87-31.22-.75-1.48-1.2-3.12-2.16-5.66Z"/></g></svg>