<svg xmlns="http://www.w3.org/2000/svg" viewBox="0 0 1080 1080"><defs><style>.cls-1{fill:#f6f6f6;}.cls-2{fill:#c3c3c3;}</style></defs><g id="background"><rect class="cls-1" y="1079" width="1" height="1"/><rect class="cls-1" width="1" height="1"/><rect class="cls-1" y="1079" width="1" height="1"/><rect class="cls-1" x="1079" width="1" height="1"/><rect class="cls-1" x="1079" y="1079" width="1" height="1"/><rect class="cls-1" x="1079" y="1079" width="1" height="1"/></g><g id="Capa_1" data-name="Capa 1"><path class="cls-2" d="M709.63,535.09c-.19,1.84-.39,3.49-.53,5.15q-2.08,24.43-4.18,48.87c-1.21,13.94-2.39,27.89-3.75,41.82-.5,5.17-.7,5.28-5.83,6.13-17.93,3-35.86,6-53.84,8.66q-27.93,4.13-56,7.57c-16.26,2-32.62,2.09-49,2.09-24,0-47.79-2.52-71.5-6-22.39-3.24-44.77-6.6-67.14-9.94-5.18-.77-10.33-1.65-15.49-2.52-1-.17-2-.53-3.37-.92q-5.05-50.34-8.51-100.9c37.85,1.84,75.41,4.05,113,5.39s75.1,1.47,112.63.09S671.39,537,709.63,535.09Zm-343.22-91.3q1.56,37.44,3.13,74.88c.14,3.33.44,3.81,3.76,4.32,3.49.53,7,.87,10.53,1.08,20,1.18,39.95,2.48,59.94,3.39,24.57,1.11,49.14,2.18,73.73,2.73,35.32.8,70.63,0,105.91-2Q662.2,526,701,523.88c2.85-.16,5.68-.57,8.39-.85,1.75-5.41,4.93-91.14,3.62-96.15-.85-.08-1.75-.23-2.65-.25-11.38-.3-22.75-.76-34.13-.84-65.53-.49-131.05-1.88-196.6-.73-36.09.64-72.2.6-108.31.87h-5.63C365.94,432.32,366.17,438.06,366.41,443.79Zm562,62.89c.18-1.23.31-2,.4-2.75a201.7,201.7,0,0,0-.06-43.87,28.54,28.54,0,0,0-21.3-25.31,73.71,73.71,0,0,0-9.23-1.78c-16.87-2.39-33.87-3.23-50.86-3.71-39.5-1.1-79-1.83-118.5-2.7-1,0-2,.15-3.31.26-1.21,31.63-2.42,63.05-3.66,95.33C791.39,518.11,859.89,512.35,928.43,506.68Zm-575.08-80h-3.8c-52.59.39-105.15,1.43-157.65,4.76-7.18.45-14.42,1.1-21.16,3.79-11.27,4.49-18.8,12.39-20,24.88-1.39,14.36-.56,28.74.47,43.1.16,2.31,1.31,3.22,3.39,3.47,2.59.31,5.18.73,7.78.94q25.41,2.11,50.83,4.15,34,2.67,68.07,5.21c23,1.7,45.92,3.28,68.88,4.92,2.33.17,4.66.4,6.94.6C358,519.22,354.47,430.65,353.35,426.72ZM716.16,633.57c28.75-5.66,57.53-11.13,86.21-17.08,19.59-4.06,39-8.82,58-15.41,12-4.18,23.67-9.18,34-16.8,11.95-8.82,21.33-19.63,26.17-34a163.09,163.09,0,0,0,6.43-28.26,25.09,25.09,0,0,0,0-3.6c-1.45,0-2.47-.08-3.47,0-12.9,1.11-25.8,2.27-38.71,3.35q-20.53,1.73-41.08,3.32-28.77,2.25-57.53,4.41c-19.45,1.43-38.9,2.75-58.34,4.15-2,.14-4.06.51-5.93.75-2.29,12-9.28,94.77-8.39,99.41C714.39,633.77,715.29,633.74,716.16,633.57ZM152.41,519.48a184.15,184.15,0,0,0,6.06,27.95c5,16,14.34,28.68,28.39,37.76A149.32,149.32,0,0,0,202.58,594c12.74,6.2,26.18,10.55,39.85,14.13,39.24,10.27,79,17.87,119,24.87a50.11,50.11,0,0,0,5.41.33c-2.28-33.36-5.47-66.11-8.15-99L152.53,518.67A2,2,0,0,0,152.41,519.48Z"/></g></svg>