<svg xmlns="http://www.w3.org/2000/svg" viewBox="0 0 1080 1080"><defs><style>.cls-1{fill:#f6f6f6;}.cls-2{fill:#c3c3c3;}</style></defs><g id="Capa_2" data-name="Capa 2"><g id="background"><rect class="cls-1" x="1079" width="1" height="1"/><rect class="cls-1" width="1" height="1"/><rect class="cls-1" width="1" height="1"/><rect class="cls-1" x="1079" width="1" height="1"/><rect class="cls-1" x="1079" y="1079" width="1" height="1"/><rect class="cls-1" x="1079" y="1079" width="1" height="1"/><rect class="cls-1" y="1079" width="1" height="1"/><rect class="cls-1" y="1079" width="1" height="1"/><rect class="cls-1" x="1079" y="1079" width="1" height="1"/><rect class="cls-1" x="1079" y="1079" width="1" height="1"/><path class="cls-2" d="M606.08,533c35.75-5.85,62.65-11.53,113.53-23.64,1.84-.42,1.84-.92-.26-1.09-22.38-1.34-41.43-2.67-54.71-3.84-3.18-.25-3.43-1.34-2-3.17,3.59-4.51,7.43-5.43,17-5.43,8.85,0,31,.25,53.37.41,44.36.25,88-11,142.52-29.07.67-.25.42-.67-.25-.67-76.27,1.84-168.75,2.67-183.7,2.67-2.25,0-2-1.58-.42-3.34,3.42-4.09,7.27-6.1,19.88-7,17.63-1.33,168.08-8.6,192.73-9.43,29.15-1.09,47-5.6,71-23.9a242.79,242.79,0,0,0,24.65-21.38c1.33-1.34,1.33-2.26-1.18-2-45.69,4.09-278.43,25.72-289.29,27.06-19.88,2.51-29,7.85-36.42,19.63-24.64,38.35-35.51,57.06-67.66,82.54-1.26,1-1.26,2.09,1.25,1.67M540,541.78a3.91,3.91,0,0,1-2.26-.67c-44.52-26.56-90.05-67.66-99.32-115.45-3.17-18,3.59-21.38,14.95-25.47,20.38-7.44,67.17-21.89,86.63-21.89s66.25,14.45,86.62,21.89c11.28,4.09,18.14,7.43,15,25.47-9.27,47.79-54.71,88.8-99.32,115.45a3.91,3.91,0,0,1-2.26.67M473.92,533c2.51.42,2.51-.66,1.17-1.84-32.16-25.48-42.94-44.19-67.66-82.53C400,436.94,390.88,431.51,371,429c-10.86-1.34-243.59-23-289.29-27.07-2.5-.25-2.5.66-1.17,2a232.13,232.13,0,0,0,24.64,21.39c24,18.29,41.86,22.8,71,23.89,24.64.92,175.1,8.11,192.72,9.44,12.7.92,16.55,2.93,19.89,7,1.58,1.83,1.84,3.34-.42,3.34-15,0-107.44-.92-183.7-2.67-.67,0-.92.41-.26.67,54.56,18,98.16,29.31,142.52,29.07,22.39-.25,44.53-.42,53.39-.42,9.51,0,13.36.92,16.95,5.43,1.34,1.84,1.18,2.92-2,3.17-13.37,1.09-32.33,2.51-54.72,3.85-2,.25-2,.67-.25,1.08,51,12.28,77.86,18,113.61,23.81M540,556a7,7,0,0,0,2.67-.66C597.39,528,623,503,655.11,451.14c12-19.88,18.8-30,48-34.25,45.69-6.52,252-21,292.71-26.57,17.47-2.5,22.14-5.18,30.33-13.78,1.34-1.34,1.34-2.5-1.17-2.25-5.18.42-211,9.27-334.57,13.78-30.33,1.59-39.35.92-64.66-7.44C588.2,369,554.28,361.17,540,361.17s-48.2,7.85-85.71,19.38c-25.31,8.36-34.42,9-64.66,7.44C266.16,383.48,60.24,374.71,55.06,374.2c-2.51-.25-2.51.92-1.17,2.26,8.1,8.6,12.86,11.28,30.33,13.78,40.68,5.6,247,20.05,292.71,26.57,29.16,4.26,36,14.45,48,34.25,32.15,51.88,57.63,76.85,112.44,104.17A5.9,5.9,0,0,0,540,556"/><path class="cls-2" d="M612.51,430.25c-3.17-1.66-6.52-2.58-6.52-5.51,0-1.42,1.34-2.58,4.1-2.58a19.75,19.75,0,0,1,7.68,2l.76-3.85a24.7,24.7,0,0,0-7.94-1.33c-6.6,0-10.28,2.92-10.28,7,0,3.92,2.85,6.09,6.85,7.93,3.43,1.59,6.36,2.68,6.36,5.18,0,1.92-1.51,3.17-4.43,3.17a20.62,20.62,0,0,1-7.94-2l-.58,4.43a40.22,40.22,0,0,0,8.52,1.09c5.35,0,10.11-2.6,10.11-7.27,0-4.51-3.35-6.52-6.69-8.28m-105.67-7.43-.92-3.26h-18.3l-.58,1.51,1.17.58c.75.34.92.84.92,1.76V445.3h17.71V442h-12V433.6h10.36v-3.17H494.81V422.9h12Zm68.83,7.43c-3.18-1.66-6.51-2.58-6.51-5.51,0-1.42,1.33-2.58,4.09-2.58a19.8,19.8,0,0,1,7.68,2l.76-3.85a24.7,24.7,0,0,0-7.94-1.33c-6.6,0-10,2.92-10,7,0,3.92,2.67,6.09,6.59,7.93,3.43,1.59,6.35,2.68,6.35,5.18,0,1.92-1.5,3.17-4.42,3.17a20.62,20.62,0,0,1-7.94-2l-.58,4.43a40.22,40.22,0,0,0,8.52,1.09c5.34,0,10.11-2.6,10.11-7.27,0-4.51-3.35-6.52-6.69-8.28m10.61-9.18,1.17.58a1.59,1.59,0,0,1,1,1.76V445.3h5.68V419.64H587Zm-26.73,1.75-.92-3.26H540.34l-.59,1.51,1.17.58c.75.34.92.84.92,1.76V445.3h17.71V442h-12V433.6h10.36v-3.17H547.52V422.9h12Zm-28.9,14.12-13.79-17.46h-5.43l-.67,1.5,1.17.59a1.54,1.54,0,0,1,1,1.67v21.88H517V428.5l13.19,16.62h4.51V419.48h-4.08ZM473.92,433l2.51,1.09a1.37,1.37,0,0,1,1,1.5v5.77a7.82,7.82,0,0,1-4.09,1c-4.93-.25-8.53-4.18-8.53-9.94,0-5.93,3.26-10.19,8.78-10.19a12.19,12.19,0,0,1,7.6,2.92l1.17-4.18a22.09,22.09,0,0,0-8.85-2.08c-7.94-.17-14.63,4.26-14.63,13.69,0,8.44,5.93,13.21,13.71,13.21,5.76,0,9.18-1.93,10-2.6V431.59h-8.1Z"/><path class="cls-2" d="M792.9,669.12c-11-5.76-22.52-8.93-22.52-19,0-4.89,4.62-8.93,14.15-8.93s18.47,3.46,26.56,6.92l2.6-13.29a85.06,85.06,0,0,0-27.42-4.6c-22.82,0-35.51,10.09-35.51,24.24,0,13.56,9.83,21.05,23.67,27.42,11.84,5.49,22,9.24,22,17.9,0,6.64-5.22,11-15.32,11-9.52,0-19.63-3.46-27.42-6.92l-2,15.29c3.74,1.15,18.47,3.77,29.42,3.77,18.5,0,34.94-9,34.94-25.13,0-15.58-11.57-22.5-23.1-28.58M427.77,643.44l-3.17-11.27H361.38l-2,5.2,4.06,2c2.58,1.15,3.17,2.89,3.17,6.06v75.63h61.19V709.54H386.2V680.67H422v-11H386.2v-26h41.57Zm237.84,25.68c-11-5.76-22.51-8.93-22.51-19,0-4.89,4.61-8.93,14.13-8.93s18.47,3.46,26.56,6.92l2.6-13.29a85,85,0,0,0-27.42-4.6c-22.79,0-34.63,10.09-34.63,24.24,0,13.56,9.24,21.05,22.8,27.42,11.83,5.49,21.93,9.24,21.93,17.9,0,6.64-5.18,11-15.28,11-9.52,0-19.66-3.46-27.44-6.92l-2,15.29c3.75,1.15,18.46,3.77,29.45,3.77,18.45,0,34.92-9,34.92-25.13,0-15.58-11.55-22.5-23.1-28.58m36.65-31.75,4.06,2c2.87,1.44,3.44,2.89,3.44,6.06v75.63H729.4V632.46H704.58Zm-92.35,6.07-3.18-11.27H543.51l-2,5.2,4,2c2.6,1.15,3.18,2.89,3.18,6.06v75.63h61.21V709.54H568.33V680.67h35.8v-11h-35.8v-26h41.58ZM510,692.22,462.4,631.89H443.64l-2.31,5.2,4.05,2c2.89,1.44,3.46,2.89,3.46,5.76V720.5H463V663.07l45.61,57.43h15.58V631.89H510ZM314,678.66l8.67,3.75c2.6,1.14,3.46,2.31,3.46,5.2v19.9A26.72,26.72,0,0,1,312,711c-17-.86-29.47-14.41-29.47-34.34,0-20.5,11.26-35.2,30.33-35.2,4.61,0,15.29,1.15,26.25,10.09l4.06-14.43c-13-5.49-20.79-6.92-30.6-7.21-27.42-.59-50.52,14.72-50.52,47.32,0,29.17,20.48,45.63,47.35,45.63,19.9,0,31.74-6.65,34.63-9V673.74h-28Z"/></g></g></svg>