<svg xmlns="http://www.w3.org/2000/svg" viewBox="0 0 1080 1080"><defs><style>.cls-1{fill:#f6f6f6;}.cls-2{fill:#c3c3c3;}</style></defs><g id="background"><rect class="cls-1" y="1079" width="1" height="1"/><rect class="cls-1" width="1" height="1"/><rect class="cls-1" y="1079" width="1" height="1"/><rect class="cls-1" x="1079" width="1" height="1"/><rect class="cls-1" x="1079" y="1079" width="1" height="1"/><rect class="cls-1" x="1079" y="1079" width="1" height="1"/></g><g id="Capa_1" data-name="Capa 1"><path class="cls-2" d="M544.08,777.64c-1.27,0-2.55,0-3.82,0-7.79.24-15.55-.4-23.32-.84-6.05-.34-12.11-.53-18.15-1q-10.95-.84-21.88-2.06c-7.13-.79-14.26-1.66-21.36-2.72-8.05-1.21-16.12-2.45-24.1-4.08q-15.93-3.26-31.74-7.16a396.87,396.87,0,0,1-40.94-12.68c-11.33-4.14-22.47-8.7-33.39-13.84q-15.87-7.46-30.92-16.44a278.36,278.36,0,0,1-30.59-20.89c-5.74-4.56-11.31-9.35-16.81-14.19a209.8,209.8,0,0,1-23.92-25.23,198.08,198.08,0,0,1-30-49.86,175.9,175.9,0,0,1-10.61-36.35c-.91-5.15-1.39-10.37-2-15.57-1-8.74-.48-17.52-.33-26.27a122.4,122.4,0,0,1,1.78-16A172.15,172.15,0,0,1,188.28,486a183.82,183.82,0,0,1,12.57-30,212.14,212.14,0,0,1,30.69-43.61,269.43,269.43,0,0,1,54.61-45.72,340.79,340.79,0,0,1,43.22-23.43,408.15,408.15,0,0,1,48.71-18.37c12.23-3.79,24.6-7.09,37.11-9.75,9.95-2.12,20-3.9,30-5.54,8.55-1.41,17.16-2.49,25.77-3.54,5.56-.68,11.16-1.08,16.75-1.55,5.29-.44,10.58-.88,15.87-1.17,5.83-.31,11.67-.47,17.51-.62,7.71-.2,15.42-.48,23.12-.41,6.58.05,13.15.53,19.73.82l4.71.17c11.21.43,22.38,1.36,33.54,2.48q17.65,1.77,35.13,4.67c12.61,2.1,25.15,4.64,37.57,7.7,14.83,3.66,29.48,7.94,43.87,13a399,399,0,0,1,40,16.64,342.71,342.71,0,0,1,36.42,20.41,281,281,0,0,1,33.53,25.24,229.33,229.33,0,0,1,39.62,44.8,187.66,187.66,0,0,1,24.26,51.15A162.73,162.73,0,0,1,898.76,520c.46,4.76.65,9.55,1,14.32.13,1.94.32,3.88.29,5.82A185.47,185.47,0,0,1,895.53,579a183.5,183.5,0,0,1-12.41,36,205.24,205.24,0,0,1-29,45.26,236.31,236.31,0,0,1-17,18.27,281.54,281.54,0,0,1-36,29.32,336,336,0,0,1-51,28.71,415.15,415.15,0,0,1-66.36,23.55,461.69,461.69,0,0,1-45.63,9.75q-13.51,2.18-27.11,3.73c-8.76,1-17.56,1.64-26.36,2.32-5.44.42-10.91.45-16.34,1C560.25,777.71,552.17,777.64,544.08,777.64ZM538.21,324v-.46c-10.54.4-21.09.76-31.63,1.22-4.48.19-8.95.54-13.43.88-10.51.8-21,2.08-31.41,3.63q-19.65,2.91-39,7.57-16.81,4.06-33.2,9.59a349.73,349.73,0,0,0-42.34,17.42A296.51,296.51,0,0,0,309.5,386a238.07,238.07,0,0,0-28.43,23,207.67,207.67,0,0,0-29.76,34.73,180.28,180.28,0,0,0-19.22,36.74,169.56,169.56,0,0,0-8.31,29.57,154.86,154.86,0,0,0-2.66,27.42c0,5.6.42,11.2.69,16.8A120.87,120.87,0,0,0,224.46,573a165.39,165.39,0,0,0,11.24,34.51A179.8,179.8,0,0,0,253.25,638a211,211,0,0,0,28.85,32.55,246.05,246.05,0,0,0,26,21A310.8,310.8,0,0,0,370.3,725a391.53,391.53,0,0,0,54,17.34,465.12,465.12,0,0,0,50.26,9.38c11.49,1.52,23,2.56,34.58,3.39,6.64.48,13.3.85,19.95.89q16.41.12,32.81-.29c7.84-.2,15.69-.72,23.51-1.33,7.23-.56,14.43-1.42,21.64-2.19,9.89-1,19.69-2.75,29.46-4.61a399.16,399.16,0,0,0,54.64-14.44,337,337,0,0,0,39.63-16.35,273.39,273.39,0,0,0,48.49-29.87c6.48-5.06,12.83-10.34,18.86-15.93a203.88,203.88,0,0,0,24.39-27,190,190,0,0,0,20.83-34.57A170.25,170.25,0,0,0,855,575.05a156.35,156.35,0,0,0,3.6-26.86c.29-6.42,0-12.87-.24-19.3a133.58,133.58,0,0,0-2.87-22,172.11,172.11,0,0,0-25.09-60.15A209.61,209.61,0,0,0,794,405.06a264.69,264.69,0,0,0-43.81-31.26,312.37,312.37,0,0,0-28-14.24,364,364,0,0,0-43.08-16.12,368.3,368.3,0,0,0-38.28-9.65c-9.11-1.75-18.25-3.32-27.4-4.8-5.16-.83-10.37-1.39-15.57-2s-10.12-1-15.19-1.39c-8.8-.61-17.6-1.23-26.41-1.59C550.21,323.81,544.21,324,538.21,324Z"/><path class="cls-2" d="M544,424.85a19.23,19.23,0,0,1,3.11.67,84.53,84.53,0,0,1,7.81,3.4c10.81,5.67,21.52,11.53,32.36,17.13,10.18,5.27,20.47,10.31,30.72,15.44l36.8,18.35c1.47.73,2.93,1.51,4.42,2.19,3.09,1.39,4.16,3.8,3.95,7.08-.17,2.61-.1,5.24,0,7.86q.39,12.33.89,24.66c.28,7.25.6,14.5.91,21.75.14,3.44.31,6.87.43,10.31.17,5,.31,10,.46,15,.15,5.24.18,10.48.47,15.71a90.07,90.07,0,0,0,7.36,31.73,70.56,70.56,0,0,0,10.14,16.63,55.82,55.82,0,0,0,26.9,18A64.14,64.14,0,0,0,734,653.57,78.87,78.87,0,0,0,775.37,639c12.09-8.55,21.29-19.64,28.46-32.5a127.53,127.53,0,0,0,14.41-43.2,165.91,165.91,0,0,0,1.68-34.7,143.11,143.11,0,0,0-8.32-40.52,162.47,162.47,0,0,0-19.24-37.2,180.57,180.57,0,0,0-17.87-22.19,194.28,194.28,0,0,0-31-26.14,269.83,269.83,0,0,0-39.67-22.36,354.41,354.41,0,0,0-40.38-15.67A392.71,392.71,0,0,0,612,351.82c-10.1-1.79-20.23-3.21-30.44-4.14-8.13-.74-16.25-1.39-24.42-1.36-3.82,0-7.64-.32-11.45-.25-6.89.14-13.77.45-20.65.72-4.63.17-9.27.32-13.9.63-5.29.36-10.58.8-15.86,1.36-5.5.58-11,1.25-16.46,2.06-7.62,1.12-15.24,2.26-22.81,3.65a347.51,347.51,0,0,0-36,8.58,319.27,319.27,0,0,0-38.2,13.8,251.27,251.27,0,0,0-49.52,28.52,222.7,222.7,0,0,0-20.57,17.39,189.55,189.55,0,0,0-23.55,27.07,158.79,158.79,0,0,0-15.09,26,146.55,146.55,0,0,0-13.32,71,154.47,154.47,0,0,0,4.59,29.43,131.38,131.38,0,0,0,10.72,28,101.05,101.05,0,0,0,20.38,27.19,89.23,89.23,0,0,0,29,18,66.51,66.51,0,0,0,12.9,3.78,72.64,72.64,0,0,0,15.45.64,56.86,56.86,0,0,0,30.23-9.53c10.89-6.69,17.86-16.6,23.23-27.89,3.49-7.34,5-15.17,5.87-23.16,1-8.47,1.63-17,1.81-25.49.08-3.67.3-7.33.43-11q.46-12.9.92-25.79c.13-3.66.27-7.33.44-11,.25-5.52.54-11,.79-16.58.21-4.63.36-9.26.56-13.9.07-1.49.23-3,.31-4.47.06-1.05.91-1.28,1.63-1.65q5.28-2.71,10.6-5.42,23.13-11.73,46.29-23.44c9.62-4.87,19.27-9.69,28.86-14.61,8.53-4.37,17-8.85,25.5-13.28a28.21,28.21,0,0,1,3.24-1.54,2,2,0,0,1,3,1.68,9.79,9.79,0,0,1,.07,1.8q0,116.58,0,233.17a125.23,125.23,0,0,1-5.69,37.13c-1.79,5.75-5.15,10.62-9,15.17-7,8.29-16.11,12.95-26.49,15.47a116.56,116.56,0,0,1-23.51,3.25c-4.94.16-9.9.52-14.82.22-6.93-.42-13.84-1.25-20.74-2.11a207.36,207.36,0,0,1-28.52-6,412.3,412.3,0,0,1-43-14.5c-5.78-2.27-11.65-4.35-17.31-6.91-5.24-2.36-10.31-5.14-15.37-7.91a192.39,192.39,0,0,1-25.37-16.16c-5.5-4.24-10.84-8.72-16-13.35a171.07,171.07,0,0,1-25.1-28.37A180.45,180.45,0,0,1,243.45,596a170.85,170.85,0,0,1-8.83-33.37,162.44,162.44,0,0,1-1.91-30.86,157.07,157.07,0,0,1,21.95-75.48,168.33,168.33,0,0,1,17.84-24.74,235.73,235.73,0,0,1,24.23-24,254.08,254.08,0,0,1,22.16-17.22,285.08,285.08,0,0,1,31.17-18.71,340.59,340.59,0,0,1,48.87-20.39,410.43,410.43,0,0,1,56.68-14.64c9.86-1.77,19.75-3.36,29.74-4.25,6.63-.59,13.25-1.27,19.88-1.76,5.82-.42,11.65-.75,17.48-.89,9.14-.21,18.28-.4,27.41-.26,7,.11,14,.68,21.06,1.14,5.67.37,11.35.72,17,1.38,9.27,1.08,18.54,2.32,27.78,3.65a371.23,371.23,0,0,1,37.8,7.73,394.58,394.58,0,0,1,41.14,12.78A335.84,335.84,0,0,1,736,374.64c17.08,9.16,33.19,19.78,47.66,32.74,13.6,12.19,25.93,25.58,36,40.82s18.12,31.88,22.51,49.92A140.55,140.55,0,0,1,845.36,519a250.83,250.83,0,0,1,.8,27.82c-.47,21-4.36,41.32-13.27,60.5a163.73,163.73,0,0,1-19,31c-5.35,6.94-11.12,13.51-17.12,19.91a168.18,168.18,0,0,1-22.55,20.21,265.5,265.5,0,0,1-52.38,29.85,321.76,321.76,0,0,1-49.65,17,267,267,0,0,1-30,5.81,190.85,190.85,0,0,1-35.83,1.61c-9.43-.5-18.8-1.6-27.73-4.93-7.14-2.66-13.84-6.14-19.22-11.69a45,45,0,0,1-8.26-12.78,70.42,70.42,0,0,1-6-21.75,217.06,217.06,0,0,1-1.36-24.18q0-114.34,0-228.68C543.83,427.46,543.94,426.3,544,424.85Z"/></g></svg>