<svg xmlns="http://www.w3.org/2000/svg" viewBox="0 0 1080 1080"><defs><style>.cls-1{fill:#f6f6f6;}.cls-2{fill:#c3c3c3;}</style></defs><g id="background"><rect class="cls-1" y="1079" width="1" height="1"/><rect class="cls-1" width="1" height="1"/><rect class="cls-1" y="1079" width="1" height="1"/><rect class="cls-1" x="1079" width="1" height="1"/><rect class="cls-1" x="1079" y="1079" width="1" height="1"/><rect class="cls-1" x="1079" y="1079" width="1" height="1"/></g><g id="Capa_1" data-name="Capa 1"><path class="cls-2" d="M539.62,275.75c52.36.45,104.71,1.26,156.91,6,27.24,2.47,54.44,5.19,80.82,13,21.19,6.29,40.36,16,55.47,32.63,16,17.6,24.2,38.84,27.8,62,4.45,28.6,4.3,57.48,4.38,86.33.13,51.09-4,101.89-10.94,152.45-3.87,28.17-8.19,56.32-18.08,83.17a194.85,194.85,0,0,1-11.17,25.05C813.23,757.86,795,772,772.75,781.16c-23.24,9.54-47.71,14-72.53,16.46-69.22,6.94-138.66,7.31-208.12,6.1-39.79-.69-79.55-2.09-119.09-6.88-22.58-2.74-44.78-7.17-66-15.78-31-12.59-50.62-35.48-61.88-66.57-8.92-24.6-13.71-50.08-17.53-75.75-9.51-63.82-13.95-128-12.24-192.52.56-21,1.12-42.09,5.22-62.85q13.21-66.93,78.21-87.39c24.66-7.81,50.15-10.9,75.75-13.41C429.44,277.19,484.52,276.22,539.62,275.75Zm.14,506.43.06,1.13c42.45-1.8,84.93-3.21,127.36-5.52,24.56-1.34,49-4.22,72.76-11.33C768.21,758,789,741,801.05,713.57c9.52-21.72,14.92-44.57,18.5-67.83,8.9-57.78,13.56-115.9,12.44-174.42-.52-27.19-.85-54.43-5.82-81.29-4.38-23.7-14.16-44.44-34.14-59.24-13.79-10.21-29.48-16-46-19.57-31-6.63-62.44-9.33-94-11.19C562,294.72,472,295,382.12,304c-20.54,2.05-41,4.68-60.89,10.64-36.59,11-59.7,34.71-66.5,72.49-3.31,18.35-4.79,37.13-5.76,55.78-3.25,61.89.66,123.5,8.87,184.86,3.55,26.45,8.47,52.58,17.78,77.76,11.65,31.47,33.28,51.95,65.56,61.31,18.08,5.24,36.61,7.8,55.24,9.63C444.09,781.1,491.91,782,539.76,782.18Z"/><path class="cls-2" d="M732.06,369.51c-5.2,77.6-10.23,155.21-15.67,232.79-3.6,51.26-7.84,102.48-11.66,153.73-.26,3.55-1.37,5-5,5.21q-28.44,1.74-56.85,3.84c-3,.23-3.91-1.11-4.61-3.73-5.44-20.33-10.59-40.74-16.72-60.86a273.16,273.16,0,0,0-13.26-33.91c-5.48-12-15.48-19-28.35-21.38a222.21,222.21,0,0,0-78.72-.23c-14.06,2.45-24.1,10.33-30.41,23.12-8.39,17-13.46,35.19-18.51,53.36-3.73,13.43-7.19,26.93-10.6,40.44-.63,2.49-1.71,3.36-4.21,3.19q-28.62-2-57.26-3.85c-3.35-.21-4.55-1.44-4.81-4.93-3.85-51.65-8.15-103.28-11.78-154.95-4.84-68.72-9.21-137.47-13.75-206.21-1.47-22.23-2.78-44.47-4.31-66.69-.23-3.35.33-4.95,4.1-5.17q18.62-1.09,37.2-2.76c3.09-.27,3.93,1,4.52,3.68,6.18,28.44,12,57,18.85,85.26,10.59,43.67,21.72,87.22,33.07,130.7,2.26,8.65,6,17.05,10,25.08,10.58,21.24,28.13,33.49,51.41,37,22.41,3.42,45,3.22,67.46.5,28.72-3.49,48.69-19.19,58.46-46.18a590.56,590.56,0,0,0,18.84-62.73c13.46-55.92,26-112.06,38.79-168.15.93-4.11,2.27-5.63,6.65-5.19,12,1.2,24,2,36,2.82,3.12.21,3.81,1.49,3.61,4.4-1,13.9-1.8,27.82-2.67,41.73Z"/></g></svg>