<svg xmlns="http://www.w3.org/2000/svg" viewBox="0 0 1080 1080"><defs><style>.cls-1{fill:#f6f6f6;}.cls-2{fill:#c3c3c3;}</style></defs><g id="background"><rect class="cls-1" y="1079" width="1" height="1"/><rect class="cls-1" width="1" height="1"/><rect class="cls-1" y="1079" width="1" height="1"/><rect class="cls-1" x="1079" width="1" height="1"/><rect class="cls-1" x="1079" y="1079" width="1" height="1"/><rect class="cls-1" x="1079" y="1079" width="1" height="1"/></g><g id="Capa_1" data-name="Capa 1"><path class="cls-2" d="M768.57,531.36H850.7v17.28H768.57Zm86.42-29v17.28H757.22V560.4H855v17.27H742.42l-17.18-17.16V502.33ZM222.71,577.67V502.33h32V560.4h62.95V502.33h32v58.51L333.3,577.67ZM80,502.33h32v29h62.94v-29h32v75.34h-32v-29H112v29H80Zm597.45,75.34V519.61h-35.4v58.06h-32V519.61H577.31v58.06h-32V519.5l17.19-17.17H709.42V560.4l-17.29,17.27Zm-294.72,0-17.3-17.27V502.33H512.32l17.2,17.17v58.17h-32V519.61H464.78v58.06h-32V519.61H397.41v58.06Zm578.35-.09-50.73-34V534h54.48V519.58h-62v58h-32V502.24h32v.07h62v-.07h32v32.62l-17.22,17.2h-4.1L1000,568.13v9.63Z"/></g></svg>