<svg xmlns="http://www.w3.org/2000/svg" viewBox="0 0 1080 1080"><defs><style>.cls-1{fill:#f6f6f6;}.cls-2{fill:#c3c3c3;fill-rule:evenodd;}</style></defs><g id="background"><rect class="cls-1" y="1079" width="1" height="1"/><rect class="cls-1" width="1" height="1"/><rect class="cls-1" y="1079" width="1" height="1"/><rect class="cls-1" x="1079" width="1" height="1"/><rect class="cls-1" x="1079" y="1079" width="1" height="1"/><rect class="cls-1" x="1079" y="1079" width="1" height="1"/></g><g id="Capa_1" data-name="Capa 1"><path class="cls-2" d="M619.56,584.75c5.79,29.91-9.89,54.75-22.91,78.86-14.47,22.43-38.35,41.72-67,38.83A681.21,681.21,0,0,1,343.9,674a11.45,11.45,0,0,1-6.75-4.82c-1.2-3.38.49-6.52,2.9-8.68,53.3-43.17,116.72-63.19,179.42-84.17,23.39-6.75,48.24-14,74.52-10.61C604.84,567.15,615.7,574.62,619.56,584.75Zm219.7-127.81c29.9,24.6,56.91,58.12,47.75,98.63-15,59.81-80.07,91.64-131.92,111.9-28.22,9.4-56.67,19-87.54,21.94-1.93-.24-5.07.25-5.55-2.65l.73-3.38C706.62,634,739.9,578.49,769.08,522.29c13.5-25.32,26-51.36,37.62-76.93a12.37,12.37,0,0,1,5.31-3.61C822.86,442.71,830.57,451.15,839.26,456.94ZM418.43,393.28l-1,3.61C354,469,312.32,552.68,272.76,635.88c-7.71,7.23-15.19-2.42-22.18-5.55-35.21-23.15-67.05-60.53-57.88-104.9,14.71-57.88,74.28-88.75,124-109.72,29.42-11.1,60-20,92.36-25.09C412.4,390.62,416.74,390.14,418.43,393.28Zm314.72,11.57c3.61,1.93,8,2.65,10.12,6.27,1.93,4.1-1.93,6.75-4.1,9.41-49.92,39.06-107.07,60.77-165.43,79.82-29.67,7.23-59.57,20.25-92.61,13a30.71,30.71,0,0,1-19.05-14.47c-8.2-22.67,2.89-46.3,12.54-66.08,12.78-24.83,35.45-54,66.8-54.5C608.94,377.84,672.61,388,733.15,404.85Zm83.44,1.93c51.13,28,109,77.17,103,142.76-7,60.78-63.67,103.22-114.32,128.78C657.42,749,449.78,751.15,297.12,689.41,245.51,668,187.63,631.06,165.93,575.59c-16.64-45.58,3.61-93.09,37.62-124.68,71.14-64.63,161.82-86.81,255.15-99.59C560,339,666.58,349.87,757.26,381,777.52,388.45,797.54,396.65,816.59,406.78Z"/></g></svg>