<svg xmlns="http://www.w3.org/2000/svg" viewBox="0 0 1080 1080"><defs><style>.cls-1{fill:#f6f6f6;}.cls-2{fill:#c3c3c3;}</style></defs><g id="background"><rect class="cls-1" y="1079" width="1" height="1"/><rect class="cls-1" width="1" height="1"/><rect class="cls-1" y="1079" width="1" height="1"/><rect class="cls-1" x="1079" width="1" height="1"/><rect class="cls-1" x="1079" y="1079" width="1" height="1"/><rect class="cls-1" x="1079" y="1079" width="1" height="1"/></g><g id="Capa_1" data-name="Capa 1"><path class="cls-2" d="M693.6,618.76C679.29,600.24,540,412.44,540,412.44S400.1,601.82,386.73,619.18c-51.66-4.41-141.42-38.86-141.42-98.66,0-76,130.33-146.46,294.65-146.46,172.57,0,294.68,70.42,294.68,146.46,0,59.8-89.32,93.84-141,98.24M540,352.34c-212.24,0-360,82.9-360,190.27,0,50.09,32.3,106.76,100.84,140.84,63.63,31.6,153.51,42.61,166.49,44.2l92.63-273,93.59,273c12.94-1.6,102-12.61,165.63-44.21C867.69,649.37,900,592.7,900,542.61c0-107.37-147.77-190.27-360-190.27"/></g></svg>