<svg xmlns="http://www.w3.org/2000/svg" viewBox="0 0 1080 1080"><defs><style>.cls-1{fill:#f6f6f6;}.cls-2{fill:#c3c3c3;}</style></defs><g id="background"><rect class="cls-1" y="1079" width="1" height="1"/><rect class="cls-1" width="1" height="1"/><rect class="cls-1" y="1079" width="1" height="1"/><rect class="cls-1" x="1079" width="1" height="1"/><rect class="cls-1" x="1079" y="1079" width="1" height="1"/><rect class="cls-1" x="1079" y="1079" width="1" height="1"/></g><g id="Capa_1" data-name="Capa 1"><path class="cls-2" d="M429.79,848.71c-35.85-.77-70.42-6.55-103-21.93-12.19-5.75-24.05-12.11-34.69-20.46-8.95-7-18.77-13.36-26.22-21.77C253,770,241.54,754.28,233.69,736.19c-16.41-37.83-21-77.4-17.67-118.1a309.12,309.12,0,0,1,24.48-97.76c8-18.54,18.15-35.79,28.55-53.06a519.15,519.15,0,0,1,42.54-60.33A488.54,488.54,0,0,1,425.2,304.86a514.72,514.72,0,0,1,140.14-63.08c34-9.66,68.79-12.36,104.06-9.28,27.43,2.4,54.3,7.09,80,17.38A174.71,174.71,0,0,1,805.82,286a191.61,191.61,0,0,1,39.42,53.24c10.26,20.54,15.7,42.37,18.07,65.06,5.35,51.3-2.1,100.83-21.08,148.66-14.63,36.89-35.09,70.48-59,102.05a512.49,512.49,0,0,1-52.84,59.66,505.18,505.18,0,0,1-90.65,69.45c-4.93,3-10.44,4.94-15.47,7.76-5.33,3-10.21,6.82-15.62,9.64-41.18,21.43-84.38,36.92-130.61,42.9C462,846.46,445.88,847.3,429.79,848.71ZM278.26,603.44c.09,16.81,3.28,42,10.69,66.65,12.1,40.17,34.09,73.58,68.18,98.54a209.93,209.93,0,0,0,91.49,38.57c28.76,4.64,57.43,3.16,86-3a321.43,321.43,0,0,0,118.87-51.93c29.18-20.57,54.17-45.47,76-73.72a374.94,374.94,0,0,0,42.82-69.5c19.25-40.89,28.52-84.24,29.08-129.28.31-25.14-4.38-49.8-12.21-73.75-9.22-28.18-23-53.76-43.58-75.39C720.42,304.16,689.32,288,654.35,279c-50-12.94-99.33-9.89-147.63,8Q403.27,325.27,340,415.87c-8.54,12.23-17.69,24.2-23.74,38.06-7.41,16.95-15.75,33.54-22.28,50.81C283.09,533.59,278.25,563.73,278.26,603.44Zm128.12-223c-.09,1.72-.27,3.44-.27,5.16q0,157.23-.06,314.44c0,4.48,1.47,5.57,5.73,5.55q58.05-.21,116.08,0c4.66,0,6.38-1.14,6.36-6.08-.17-52.8-.05-105.6-.3-158.41a19.28,19.28,0,0,0-3.72-10.94c-10.55-13.64-21.61-26.89-32.48-40.29q-39.92-49.19-79.86-98.38c-3.28-4-6.92-7.79-10.4-11.67Zm268.28-1.82c-1.95,2.14-3.25,3.45-4.41,4.87q-14.12,17.28-28.17,34.59Q597.52,473,552.92,527.89c-3.27,4-5.29,8.14-5.29,13.3q0,79.18-.1,158.36c0,4.52,1.24,5.91,5.85,5.89,38.68-.16,77.36-.08,116-.09,1.71,0,3.41-.22,5.24-.34Z"/></g></svg>