<svg xmlns="http://www.w3.org/2000/svg" viewBox="0 0 1080 1080"><defs><style>.cls-1{fill:#f6f6f6;}.cls-2{fill:#c3c3c3;}</style></defs><g id="background"><rect class="cls-1" y="1079" width="1" height="1"/><rect class="cls-1" width="1" height="1"/><rect class="cls-1" y="1079" width="1" height="1"/><rect class="cls-1" x="1079" width="1" height="1"/><rect class="cls-1" x="1079" y="1079" width="1" height="1"/><rect class="cls-1" x="1079" y="1079" width="1" height="1"/></g><g id="Capa_1" data-name="Capa 1"><path class="cls-2" d="M541.48,321.11c1.16.15,2.32.39,3.48.44,10.71.43,21.44.61,32.14,1.3,10.43.67,20.83,1.76,31.23,2.81,12.75,1.3,25.4,3.32,38,5.7,45.34,8.57,88.92,22.38,129.86,43.94,22.07,11.62,42.74,25.32,61.41,41.93a213.43,213.43,0,0,1,36.9,42.06c10.21,15.55,17.85,32.24,22,50.42a135,135,0,0,1,3,41.7c-2,23.42-9.71,44.86-21.87,64.81-11.41,18.72-25.89,34.8-42.39,49.12-19.26,16.73-40.55,30.43-63.21,42a436.11,436.11,0,0,1-83.68,32.11A523.23,523.23,0,0,1,622.78,753q-23.31,3.29-46.8,4.73a586.3,586.3,0,0,1-65.08.41c-14-.67-27.91-1.89-41.8-3.57a530.59,530.59,0,0,1-85.57-17.43c-32-9.39-62.67-21.84-91.58-38.52-20.47-11.81-39.55-25.51-56.61-41.93-14.6-14.05-27.23-29.65-37-47.47a146.52,146.52,0,0,1-16.67-47.92,133.52,133.52,0,0,1-.58-37.93c2.72-21.24,10.13-40.77,21.21-59a204.37,204.37,0,0,1,35.08-42.57,294.31,294.31,0,0,1,55.31-40.41c27.23-15.63,56.05-27.51,86-36.65a516.34,516.34,0,0,1,69.48-15.94c17.44-2.79,35-4.79,52.59-5.9,11.09-.71,22.21-.93,33.31-1.39,1.42-.06,2.84-.3,4.26-.46ZM395.25,718.59c.69-1.19,1.37-2.28,2-3.41q44.65-83.76,89.29-167.52c.43-.81.86-1.62,1.26-2.44a3.65,3.65,0,0,0-.81-4.32,7.4,7.4,0,0,0-4.1-2.16c-2.29-.51-4.6-1-6.91-1.43q-38.55-8.05-77.11-16.1-36.63-7.65-73.26-15.34l-68.67-14.35c-1.25-.26-2.53-.42-3.65-.6-.35.34-.61.48-.7.7-.45,1.09-.91,2.17-1.27,3.29a150.8,150.8,0,0,0-6.68,32.18,142.66,142.66,0,0,0,1.31,36.75,153.42,153.42,0,0,0,17.77,50c10.9,19.5,25.06,36.35,41.65,51.2,25.83,23.12,55.4,40.07,87.48,52.85C393.54,718.17,394.3,718.32,395.25,718.59Zm289.41-.17a4.77,4.77,0,0,0,1,0c.87-.28,1.73-.57,2.58-.91a315.1,315.1,0,0,0,55-28.39,243.84,243.84,0,0,0,47.85-40.36c14.15-15.64,25.69-33,33.75-52.54a146,146,0,0,0,10.71-44,143,143,0,0,0-.46-28.21,146.21,146.21,0,0,0-7-30.91,23.09,23.09,0,0,0-1-2.22c-1.77.33-3.42.6-5.07,1l-46.8,9.79-77.11,16.09-85.17,17.79-15.35,3.2a7.6,7.6,0,0,0-4.73,2.54,3.4,3.4,0,0,0-.55,4c.49.92,1,1.86,1.44,2.79l31.72,59.53q28.68,53.84,57.37,107.65C683.39,716.31,684.07,717.4,684.66,718.42ZM254.55,488.18c1.17.05,2.44.13,3.72.14l244.38.63c1.17,0,2.35,0,3.52-.06a4.85,4.85,0,0,0,5-4.14c.45-2.05.9-4.09,1.29-6.14q6-32.19,12.08-64.37,7.15-38,14.34-75.92a17,17,0,0,0,.16-2.19c-.38-.23-.59-.46-.82-.48-.91-.07-1.82-.12-2.74-.1-13.2.22-26.4.82-39.53,2.22s-26.18,3.36-39.13,6a366.23,366.23,0,0,0-79,25.24c-23.93,10.86-46.27,24.32-66.43,41.25-16.95,14.23-31.68,30.41-43.42,49.23a163.18,163.18,0,0,0-12.71,24.74C254.79,485.38,253.87,486.51,254.55,488.18ZM540.87,336.12c.1.7.14,1.21.24,1.71q5.58,29.67,11.18,59.33,7.63,40.65,15.25,81.31c.41,2.18.88,4.35,1.39,6.51a4.74,4.74,0,0,0,4.77,3.89c1.56.09,3.14.08,4.7.07q81.76-.24,163.53-.48,39.8-.12,79.6-.15c1.4,0,2.84.27,4.28-.34.12-1.73-.76-3.09-1.35-4.5a175.29,175.29,0,0,0-25.83-42.84c-14.42-17.84-31.42-32.85-50.3-45.78-23.55-16.13-49-28.4-75.94-37.73a390.14,390.14,0,0,0-78.5-18.18A451.21,451.21,0,0,0,545,335.56C543.75,335.54,542.41,335.26,540.87,336.12ZM399.69,720.44c1,.42,2.09.91,3.18,1.27,6.94,2.31,13.84,4.77,20.84,6.86,34.4,10.24,69.61,15.33,105.44,16.35a421.4,421.4,0,0,0,57.16-2.38,397.53,397.53,0,0,0,49.41-8.46,373.15,373.15,0,0,0,41.66-12.42,7.53,7.53,0,0,0,3.19-1.65c-.88-1-1.6-1.9-2.39-2.73L544.26,577.76a27.45,27.45,0,0,0-2-1.94c-1.69-1.46-2.87-1.51-4.5-.08-1.17,1-2.23,2.2-3.32,3.33l-116,120.85c-5.61,5.85-11.24,11.68-16.83,17.56C400.89,718.3,399.78,718.93,399.69,720.44Z"/></g></svg>