<svg xmlns="http://www.w3.org/2000/svg" viewBox="0 0 1080 1080"><defs><style>.cls-1{fill:#f6f6f6;}.cls-2{fill:#c3c3c3;}</style></defs><g id="background"><rect class="cls-1" y="1079" width="1" height="1"/><rect class="cls-1" width="1" height="1"/><rect class="cls-1" y="1079" width="1" height="1"/><rect class="cls-1" x="1079" width="1" height="1"/><rect class="cls-1" x="1079" y="1079" width="1" height="1"/><rect class="cls-1" x="1079" y="1079" width="1" height="1"/></g><g id="Capa_1" data-name="Capa 1"><path class="cls-2" d="M793.14,620v67.34c-2.78.78-50,1.06-56.64.43l-.22-.23c-.07-.08-.19-.16-.2-.26a8.6,8.6,0,0,1-.16-1.34q0-110.07,0-220.15a7.78,7.78,0,0,1,.37-1.46c18.53-.1,37.15,0,56.11,0V487.5l.59.17a7.37,7.37,0,0,0,.65-1c5.65-12.6,15.58-20.2,28.54-24,32.57-9.5,66.85,4.72,82.25,35.46a98.2,98.2,0,0,1,9.64,33.95,138.74,138.74,0,0,1-3.85,52.26c-3.47,12.53-9,24.05-17.63,33.89-12.31,14-27.93,20.94-46.4,21.66a74.78,74.78,0,0,1-30.52-4.72,52.6,52.6,0,0,1-20.22-13.75c-.53-.59-1.06-1.16-1.59-1.74Zm64.3-70.59c0-6.8-.33-15.24-2.67-23.45-3.25-11.42-10.19-19.21-22.16-21.66a48,48,0,0,0-9.73-.91c-10,0-17.75,4.38-23.12,12.85-3.5,5.51-5.33,11.64-6.53,18-1.88,10-1.82,20.18-1.17,30.3.44,6.75,1.56,13.41,4.39,19.69a25.19,25.19,0,0,0,15.75,14.3,42.69,42.69,0,0,0,14.68,1.9c11.52-.36,19.54-6.08,24.38-16.36a56.79,56.79,0,0,0,2.89-7.92C856.56,567.91,857,559.47,857.44,549.36ZM165,524.5c0,9.13-.08,18.26,0,27.4.11,10.41,1.22,20.69,4.39,30.67,5.18,16.34,14.83,29.19,29.64,38,9.71,5.8,20.31,9.11,31.35,11.19,11.92,2.25,24,2.56,36,2.16a119.19,119.19,0,0,0,37.74-7c20.57-7.65,35.65-21.2,44.18-41.63a91.57,91.57,0,0,0,6.8-34.61c.13-11.5,0-23,0-34.51q0-60,0-120.08c0-1.42-.1-2.83-.15-4.22H294.12v4.51q0,76.29,0,152.56c0,2.14-.06,4.29-.21,6.42a29.33,29.33,0,0,1-20.43,26.44,47.2,47.2,0,0,1-20,2.12c-17.3-1.68-28.65-15-29.22-31.34-.32-8.9-.14-17.81-.19-26.72v-3.77H165.23C165.14,523.17,165,523.84,165,524.5Zm374.24,35H426.63c-.35.46-.59.63-.6.8-.09,7.62.85,15.07,4.14,22,4.38,9.26,12.11,13.54,22,14.54,9.15.91,17.58-.78,24.52-7.15,2.46-2.26,4.38-5.1,6.74-7.9H538.9c-.44,2.66-.65,5.11-1.28,7.44-2.64,9.8-8.48,17.62-15.82,24.33-14.56,13.3-32,20.37-51.36,22.87-13.06,1.69-26.14,1.55-39-1.63-32.63-8.08-52.77-29-60.09-61.42C364.73,544.08,370,516.16,386.7,491c14.95-22.58,36.61-33.31,63.66-33.18a128.32,128.32,0,0,1,31.48,3.62c24.47,6.29,40.89,21.45,49.61,45.08,4.25,11.51,6.36,23.47,7.33,35.64.37,4.72.45,9.45.64,14.18C539.46,557.22,539.35,558.11,539.28,559.52Zm-56-33.84a27.69,27.69,0,0,0-2-13.13c-3.65-9.73-10.56-15.86-20.82-17.76a42.41,42.41,0,0,0-10.74-.43c-10.74.81-18,6.37-21.61,16.6A42,42,0,0,0,426,525.68ZM721,559.57H607.92c0,1.59,0,2.9,0,4.21a52,52,0,0,0,2.82,15.57c3.34,9.21,9.74,15,19.4,17a36.27,36.27,0,0,0,17.08-.33,27.59,27.59,0,0,0,16.06-11.65c.56-.83,1.09-1.69,1.6-2.49h55.62a32.65,32.65,0,0,1-4.35,15.92c-5.86,11-14.7,19-25.16,25.4-15.27,9.32-32,13.73-49.81,14.2-9.61.25-19.15-.28-28.52-2.64-28.38-7.15-47.38-24.67-57-52.17-10.36-29.69-4.28-68.49,14.35-93.85,14.82-20.18,34.88-30.42,59.85-30.87a125.62,125.62,0,0,1,34.83,3.9c24.08,6.44,40,21.64,48.61,44.83,5,13.45,7.06,27.46,7.66,41.72C721.15,551.85,721,555.43,721,559.57Zm-55.39-33.93c-.35-2.92-.43-5.61-1-8.2-2.47-11.07-8.68-18.91-19.89-22.16a38,38,0,0,0-12.4-1c-15.62.73-25.28,13.34-24.11,31.41Z"/></g></svg>