<svg xmlns="http://www.w3.org/2000/svg" viewBox="0 0 1080 1080"><defs><style>.cls-1{fill:#f6f6f6;}.cls-2{fill:#c3c3c3;fill-rule:evenodd;}</style></defs><g id="Capa_2" data-name="Capa 2"><g id="background"><rect class="cls-1" x="1079" y="1079" width="1" height="1"/><rect class="cls-1" x="1079" y="1079" width="1" height="1"/><rect class="cls-1" y="1079" width="1" height="1"/><rect class="cls-1" y="1079" width="1" height="1"/><rect class="cls-1" width="1" height="1"/><rect class="cls-1" x="1079" width="1" height="1"/><rect class="cls-1" width="1" height="1"/><rect class="cls-1" x="1079" width="1" height="1"/><rect class="cls-1" x="1079" y="1079" width="1" height="1"/><rect class="cls-1" x="1079" y="1079" width="1" height="1"/></g><g id="Capa_1-2" data-name="Capa 1"><path class="cls-2" d="M160.6,493q13.36,0,26.74.06a1,1,0,0,1,.62.62q.14,41.87,0,83.73-1.07,7.83-8.8,9.49-62.66.14-125.29,0-7.82-1.68-8.8-9.63-.14-12.91,0-25.82a.87.87,0,0,1,.75-.75q13.45-.19,26.88.14l.35.34q.06,8.06.13,16.12l.21.2q43.13.13,86.25,0l.2-.2q.07-36.89.14-73.76A3.48,3.48,0,0,1,160.6,493Z"/><path class="cls-2" d="M222.42,493q66.08-.11,132.11.2a.93.93,0,0,1,.34.48q.13,9.07,0,18.16a1.11,1.11,0,0,1-.48.48l-113.14.14a.63.63,0,0,0-.34.34q-.14,8.53,0,17.07a1.08,1.08,0,0,0,.21.34l105.9.14a1.62,1.62,0,0,1,.62.48q.14,9.15,0,18.3a1.08,1.08,0,0,1-.21.34q-53.07.29-106.18.28a.6.6,0,0,0-.34.34q-.14,8.53,0,17.07a1.08,1.08,0,0,0,.21.34l113.14.14a1,1,0,0,1,.61.61q.19,9.24-.14,18.44a1.08,1.08,0,0,1-.34.21q-66.39.14-132.79,0a10.46,10.46,0,0,1-8.39-7.45,11.41,11.41,0,0,1-.41-2.73q-.13-36.74,0-73.48Q213.71,494.47,222.42,493Z"/><path class="cls-2" d="M380.46,493q72,0,144,.06a1,1,0,0,1,.62.48q.13,9.23,0,18.44l-.35.34q-29,0-58,.21-.1,37-.34,74l-.34.34q-13.57.14-27.16,0a1.06,1.06,0,0,1-.48-.75q0-36.81-.2-73.62-29-.18-58-.21l-.35-.34q-.13-9.22,0-18.44A.88.88,0,0,1,380.46,493Z"/><path class="cls-2" d="M559.52,493q64.07,0,128.15.06,7.92,1.11,9.48,9,.14,38,0,75.94a10.38,10.38,0,0,1-6.62,8.4,11,11,0,0,1-2,.55q-64.83.14-129.66,0-7.55-1.6-8.8-9.22-.13-37.69,0-75.4a10.7,10.7,0,0,1,6.21-8.4A14.75,14.75,0,0,1,559.52,493Zm19,19.39q45.16,0,90.34.07l.21.2q.13,27.39,0,54.77-45.4.28-90.83,0-.24-27.37-.07-54.77A1.17,1.17,0,0,0,578.49,512.42Z"/><path class="cls-2" d="M722.74,493q13.38,0,26.75.06a1,1,0,0,1,.61.62q.07,36.87.14,73.75,21.45.15,42.92.14t42.92-.14q.07-36.87.14-73.75a1,1,0,0,1,.62-.62q13.51-.19,27,.14l.34.34q.13,42.27,0,84.55a10.38,10.38,0,0,1-6.62,8.26,11.07,11.07,0,0,1-2.05.55q-62.37.14-124.74,0a10.46,10.46,0,0,1-8-6.35,11.2,11.2,0,0,1-.68-2.6q-.14-42.21,0-84.41A3.42,3.42,0,0,1,722.74,493Z"/><path class="cls-2" d="M889.79,493q66.94,0,133.88.06a10.36,10.36,0,0,1,9.08,7.31,16.25,16.25,0,0,1,.41,2.19q.13,18.36,0,36.74-1.2,7.81-8.94,9.35l-42.58.14,52.13,35.79a6.29,6.29,0,0,1,1.16,1,1,1,0,0,1-.48,1.3l-19.24.07q-9.84,0-19.65-.21L917.29,533q0,26.87-.27,53.68a1.25,1.25,0,0,1-.35.21q-13.57.14-27.15,0a1,1,0,0,1-.35-.48q-.13-46.44,0-92.88A3.87,3.87,0,0,1,889.79,493Zm27.7,19.39q43.6,0,87.21.07a1.27,1.27,0,0,1,.34.2q.13,8.2,0,16.39l-.2.21q-43.74.13-87.48,0-.24-8.28-.07-16.6A.54.54,0,0,0,917.49,512.42Z"/></g></g></svg>