<svg xmlns="http://www.w3.org/2000/svg" viewBox="0 0 1080 1080"><defs><style>.cls-1{fill:#f6f6f6;}.cls-2{fill:#c3c3c3;}</style></defs><g id="background"><rect class="cls-1" y="1079" width="1" height="1"/><rect class="cls-1" width="1" height="1"/><rect class="cls-1" y="1079" width="1" height="1"/><rect class="cls-1" x="1079" width="1" height="1"/><rect class="cls-1" x="1079" y="1079" width="1" height="1"/><rect class="cls-1" x="1079" y="1079" width="1" height="1"/></g><g id="Capa_1" data-name="Capa 1"><path class="cls-2" d="M611.27,653.87V530.21l-.53-.19c-.38.74-.8,1.47-1.15,2.23L576.2,604.46c-6.56,14.18-13.15,28.35-19.64,42.57a3.65,3.65,0,0,1-3.89,2.55q-21.82-.15-43.65,0c-2.18,0-3.18-.71-4-2.69q-24.9-58.51-49.94-117a9.1,9.1,0,0,0-1.36-2.38c-.35,4.63-.3,9.22-.31,13.8s0,9.32,0,14V653.5c-1.94.64-56.28.81-59.38.25-.48-1.84-.62-224.36-.13-227.36,1.8-.51,80.23-.69,83.88-.16q13.69,30.94,27.47,62.12c9.14,20.66,18.26,41.33,27.68,62,4.05-8.11,7.63-16.36,11.32-24.56s7.47-16.69,11.21-25L566.55,476q5.61-12.51,11.2-25l11.1-24.77h82V653.87Z"/><path class="cls-2" d="M861.48,565.81c2.75-.56,56.1-.51,58.27,0,0,.75.13,1.56.13,2.37,0,10.72.31,21.46-.07,32.17-.52,14.8-5.39,28-16.06,38.66-7.48,7.47-16.71,11.72-27,13.51A93.26,93.26,0,0,1,861.38,654q-55.12.18-110.25,0a64.07,64.07,0,0,1-34.71-10.23c-12.61-8-19.92-19.73-23-34.23a85.18,85.18,0,0,1-1.56-17.6q0-53.52,0-107A79.32,79.32,0,0,1,696,459.65a53.47,53.47,0,0,1,9.6-17.64c7.51-9,17.28-13.84,28.75-15.41a69.27,69.27,0,0,1,9.44-.6q60.5-.06,121,0a60.19,60.19,0,0,1,29.18,7.41c13.69,7.46,21.54,19.21,24.48,34.32a78,78,0,0,1,1.41,13.37c.21,10.64.08,21.28.08,31.93,0,.57-.08,1.15-.14,2a19.55,19.55,0,0,1-2.13.24q-26.94,0-53.87,0c-.65,0-1.29-.13-2.13-.22-.05-1-.12-1.89-.13-2.78,0-4,0-8,0-12a29.22,29.22,0,0,0-.29-4c-.86-5.86-4.86-9.48-10.81-9.82-1.49-.08-3,0-4.49,0l-80.06,0a22.42,22.42,0,0,0-3.48.17c-7,1.1-11.3,5.94-12,13.32-.11,1.32-.11,2.66-.11,4q0,38.66,0,77.33a16.7,16.7,0,0,0,1.27,7.06,8,8,0,0,0,7.12,5.05c1.08.07,2.16.09,3.24.09h86.8c1,0,2,0,3-.06a8.7,8.7,0,0,0,8.37-6,26.44,26.44,0,0,0,1.39-7.29c.22-3.81.06-7.64.06-11.47Z"/><path class="cls-2" d="M319.16,426.12H372.6c0,1.24.12,2.38.12,3.51q0,81.72,0,163.42c0,5.57.06,11.14,0,16.72A57.16,57.16,0,0,1,367,634.35c-5.07,10.37-13.1,17-24.65,19a45.11,45.11,0,0,1-7.44.64q-72.33,0-144.68,0a38.81,38.81,0,0,1-7.66-.84,25,25,0,0,1-17-12.06,37.08,37.08,0,0,1-5.55-19.19c-.14-19.21-.06-38.43-.05-57.64,0-.56.09-1.13.13-1.66,2-.53,50.91-.63,53.8-.09,0,.83.13,1.72.13,2.6,0,4.24-.15,8.49.07,12.72a35.83,35.83,0,0,0,1.38,8.57c2.42,7.89,8.37,12.31,16.62,12.73.91.05,1.82,0,2.74,0h72.84a24.7,24.7,0,0,0,4.21-.29c3.79-.68,6-3.11,6.75-6.78a16.12,16.12,0,0,0,.31-3.47q0-79.59,0-159.17C319,428.39,319.1,427.33,319.16,426.12Z"/></g></svg>