<svg xmlns="http://www.w3.org/2000/svg" viewBox="0 0 1080 1080"><defs><style>.cls-1{fill:#f6f6f6;}.cls-2{fill:#c3c3c3;}</style></defs><g id="background"><rect class="cls-1" y="1079" width="1" height="1"/><rect class="cls-1" width="1" height="1"/><rect class="cls-1" y="1079" width="1" height="1"/><rect class="cls-1" x="1079" width="1" height="1"/><rect class="cls-1" x="1079" y="1079" width="1" height="1"/><rect class="cls-1" x="1079" y="1079" width="1" height="1"/></g><g id="Capa_1" data-name="Capa 1"><path class="cls-2" d="M600.21,536.61V605.5a6.64,6.64,0,0,0,0,1.41c.23,1,.55,2,.83,3a12.5,12.5,0,0,0,2.78-1c7.35-4.7,14.67-9.47,22-14.22l146-94.75q32.45-21.06,64.88-42.14a25.09,25.09,0,0,1,14.22-4.22c16.75.08,33.5,0,50.25,0,9,0,13.81,4.88,13.81,13.89v97c0,1.18,0,2.36,0,3.54-.16,9.2-3.94,16.36-11.93,21.15l-41.44,24.9c-7.08,4.26-14.13,8.54-21.25,12.72a15.5,15.5,0,0,1-3.44,1.08,14.77,14.77,0,0,1-1-3.68q-.08-55.68-.07-111.36a20.92,20.92,0,0,0-.7-3.78,18.64,18.64,0,0,0-3.76,1.44q-83.92,54.39-167.77,108.9a30.42,30.42,0,0,1-17.3,5.12c-36.17-.11-72.35,0-108.52-.06-1.26,0-2.52,0-3.77-.14-6.77-.66-11.2-5.26-11.63-12.06-.06-.94,0-1.88,0-2.83q0-68.18,0-136.36c0-.94,0-1.89,0-2.83-.1-2.23-.91-2.74-2.82-1.64-3.13,1.8-6.21,3.7-9.31,5.56L408.32,535.38l-.81.48c-2.78,1.7-2.88,2.3-.63,4.56,3,3.08,6.11,6.13,9.17,9.18q34.95,34.93,69.89,69.9c1.06,1.07,1.61,2.64,2.4,4a21.23,21.23,0,0,1-4.4,1q-34.33.09-68.67,0a69.24,69.24,0,0,1-7.06-.35,14.63,14.63,0,0,1-9.13-4.43c-15.58-15.66-31.27-31.23-46.83-46.91-1.78-1.79-3.06-2-5.22-.67-26.44,16-53,31.83-79.41,47.81a30.78,30.78,0,0,1-16.53,4.61c-23.52-.11-47,0-70.54-.06a33.86,33.86,0,0,1-4.94-.27,11.91,11.91,0,0,1-10.49-11.05c-.1-1.1-.11-2.2-.11-3.3q0-47.77,0-95.55c0-6.82.85-13.46,5.92-18.59a38.69,38.69,0,0,1,7.39-5.79q30.36-18.39,60.86-36.55a18.42,18.42,0,0,1,4.05-1.29,20.5,20.5,0,0,1,.85,4q.06,62.76,0,125.51c0,.39,0,.79,0,1.18,0,3,.71,3.38,3.34,1.8q28.13-16.86,56.22-33.74Q381,504.41,458.33,457.92a29.23,29.23,0,0,1,15.65-4.3c37.27.1,74.55.05,111.83.05,9.65,0,14.4,4.71,14.4,14.29Z"/></g></svg>