<svg xmlns="http://www.w3.org/2000/svg" viewBox="0 0 1080 1080"><defs><style>.cls-1{fill:#f6f6f6;}.cls-2{fill:#c3c3c3;}</style></defs><g id="background"><rect class="cls-1" y="1079" width="1" height="1"/><rect class="cls-1" width="1" height="1"/><rect class="cls-1" y="1079" width="1" height="1"/><rect class="cls-1" x="1079" width="1" height="1"/><rect class="cls-1" x="1079" y="1079" width="1" height="1"/><rect class="cls-1" x="1079" y="1079" width="1" height="1"/></g><g id="Capa_1" data-name="Capa 1"><path class="cls-2" d="M537.9,385c11.86.2,21.76.22,31.65.56q16.77.58,33.52,1.63,14.7.94,29.37,2.42,23.26,2.31,46.36,5.9A707.85,707.85,0,0,1,749,409.94c26.26,6.85,52,15.28,76.79,26.35,17.8,7.94,34.93,17.1,50.77,28.53,11.43,8.26,21.93,17.52,30.67,28.66,7.1,9,12.65,18.92,15.58,30.12a64.74,64.74,0,0,1-3.3,42.57,95.83,95.83,0,0,1-18.35,27.64C891,604.86,879.26,614,866.67,622.09A314.59,314.59,0,0,1,817,647.65a516.05,516.05,0,0,1-70.77,23.26c-15.82,4.05-31.75,7.58-47.83,10.4-11.54,2-23.12,3.82-34.72,5.47-9.66,1.37-19.35,2.46-29.05,3.52-6.8.74-13.63,1.29-20.45,1.79-9.53.7-19.07,1.29-28.61,1.89-3.17.19-6.36.3-9.54.41-19.73.69-39.46.75-59.19.36-9.42-.19-18.84-.6-28.25-1.12-9.07-.49-18.13-1.17-27.18-1.9-7.9-.64-15.8-1.34-23.68-2.23-9.08-1-18.16-2.17-27.2-3.52-10.59-1.58-21.14-3.34-31.68-5.19-13.41-2.35-26.7-5.31-39.92-8.57a524.6,524.6,0,0,1-74.79-24.07,319.26,319.26,0,0,1-49.05-24.92C202,614.91,189.63,605.51,179,594c-8.12-8.78-14.91-18.44-19.28-29.66-6.69-17.22-6.24-34.31,1.09-51.22,4.79-11,11.85-20.51,20.16-29.1,11.29-11.69,24.28-21.2,38.13-29.59,19-11.52,39.21-20.59,60-28.32a562.47,562.47,0,0,1,67.14-20q26.52-6.26,53.43-10.41,17.28-2.64,34.65-4.62t34.6-3.27c12.23-.91,24.49-1.55,36.75-2C517.08,385.36,528.47,385.23,537.9,385ZM668,412.45c.28,1,.42,1.69.65,2.31a85.18,85.18,0,0,1,4.5,19.76A82.85,82.85,0,0,1,670,468.87c-3.7,12-9.76,22.76-17.25,32.75-8.55,11.4-18.59,21.37-29.37,30.62-15,12.83-31.12,24-47.8,34.45a84.48,84.48,0,0,1-9.26,5.5,269.3,269.3,0,0,1-45.95,16.13,333.38,333.38,0,0,1-47.54,8.57c-10,1.06-20,2-30,2.69-9.26.63-18.55,1.06-27.83,1.19-17.29.23-34.58.18-51.87.23a9.11,9.11,0,0,1-1.43-.21,1.69,1.69,0,0,1,0-.38Q403,504.8,444.33,409.21c.08-.19.16-.38.22-.57a1.84,1.84,0,0,0,.06-.4.46.46,0,0,0-.05-.2c0-.05-.08-.1-.19-.25a6.73,6.73,0,0,0-.9,0c-8.25,1.15-16.52,2.22-24.75,3.48-16.68,2.53-33.21,5.86-49.61,9.83A482.29,482.29,0,0,0,313,438.18c-18,6.79-35.54,14.74-52,24.79a170.63,170.63,0,0,0-31.76,24.27c-8.35,8.27-15.44,17.46-20.21,28.29a60.11,60.11,0,0,0-5.29,25.67,61.67,61.67,0,0,0,6.68,26.38c5.18,10.47,12.45,19.35,20.88,27.33,11.24,10.66,23.95,19.29,37.45,26.79a341.19,341.19,0,0,0,70.13,28.86,9.68,9.68,0,0,0,1.12.17c.31-.81.62-1.55.88-2.3,1.36-4,2.7-7.95,4.08-11.92,1.12-3.24,3.36-4.41,6.68-3.52a22,22,0,0,0,2.74.69c9,1.13,18,2.36,27,3.29q13.86,1.41,27.76,2.29c9.06.57,18.14.9,27.22,1.14,15.05.4,30.11.18,45.15-.36,3-.11,6.1-.23,9.14-.43,7.17-.47,14.34-.92,21.5-1.5,6.15-.5,12.29-1.05,18.41-1.78,7.74-.93,15.47-1.91,23.16-3.13,7.49-1.18,15-2.48,22.38-4.09a74.71,74.71,0,0,0,23.56-9.18c8.93-5.48,15.46-12.9,18.47-23.11a52,52,0,0,0,1.22-22.16c-.4-2.82-.86-5.62-1.29-8.43a8.12,8.12,0,0,1,3.33-8.21c.43-.33.87-.65,1.32-.94q11.64-7.65,23.28-15.32a5.36,5.36,0,0,1,3.43-.9c5.88.34,11.77.62,17.66.95,8.6.48,17.19,1,25.78,1.48,6,.34,12,.62,18.08.94.59,0,1.17.18,2,.31-1.79,5.56-3.51,11-5.27,16.41l-13,2.53c-6.19,1.19-12.38,2.34-18.55,3.59-3.23.66-4.39,3.1-3,6.13a9.52,9.52,0,0,0,3,3.53A84.4,84.4,0,0,1,694.68,597c4.87,7.59,8.15,15.8,8.83,24.83,1.15,15.14-4,28.22-13.54,39.73-.51.61-1,1.2-1.78,2.08a10.23,10.23,0,0,0,1.53,0c3.46-.67,6.93-1.29,10.37-2.06A509.06,509.06,0,0,0,761,644.18a327.7,327.7,0,0,0,52.17-23.54c14.31-8.17,27.73-17.53,39.28-29.38a91.83,91.83,0,0,0,17.41-24.15c6.85-14.19,8.43-28.87,3.91-44.06-2.94-9.9-8.1-18.6-14.57-26.57-8.7-10.74-19.16-19.54-30.52-27.29-19.2-13.11-40.09-22.88-61.78-31.05a462.27,462.27,0,0,0-45.7-14.43c-16.31-4.29-32.8-7.81-49.41-10.74C670.68,412.77,669.55,412.66,668,412.45ZM404.51,570c.74,0,1.2,0,1.66,0a46.28,46.28,0,0,0,15.48-4.68c11.3-5.37,21.28-12.69,30.67-20.86a235.9,235.9,0,0,0,44.39-51.89,190.55,190.55,0,0,0,20.86-43.5,40.67,40.67,0,0,0,1.9-18.83c-1.24-8.25-5.53-14.28-13.1-17.88A32.85,32.85,0,0,0,493,409.32c-5.83-.15-11.66,0-17.49-.09a1.87,1.87,0,0,0-2.13,1.42c-.1.32-.27.62-.4.93q-7.71,17.81-15.41,35.62L405.35,567.86C405.09,568.47,404.87,569.1,404.51,570Z"/></g></svg>