<svg xmlns="http://www.w3.org/2000/svg" viewBox="0 0 1080 1080"><defs><style>.cls-1{fill:#f6f6f6;}.cls-2{fill:#c3c3c3;fill-rule:evenodd;}</style></defs><g id="Capa_2" data-name="Capa 2"><g id="background"><rect class="cls-1" x="1079" width="1" height="1"/><rect class="cls-1" width="1" height="1"/><rect class="cls-1" width="1" height="1"/><rect class="cls-1" x="1079" width="1" height="1"/><rect class="cls-1" x="1079" y="1079" width="1" height="1"/><rect class="cls-1" x="1079" y="1079" width="1" height="1"/><rect class="cls-1" y="1079" width="1" height="1"/><rect class="cls-1" y="1079" width="1" height="1"/><rect class="cls-1" x="1079" y="1079" width="1" height="1"/><rect class="cls-1" x="1079" y="1079" width="1" height="1"/></g><g id="Capa_1-2" data-name="Capa 1"><path class="cls-2" d="M910,540c0,102.61-165.67,185.79-370,185.79S170,642.61,170,540,335.66,354.21,540,354.21,910,437.39,910,540ZM540,368.84c-196.33,0-355.5,76.63-355.5,171.16S343.67,711.16,540,711.16,895.49,634.53,895.49,540,736.33,368.84,540,368.84Z"/><path class="cls-2" d="M886.29,540c0,89.44-155,162-346.29,162S193.71,629.44,193.71,540,348.75,378.05,540,378.05s346.29,72.51,346.29,162ZM761.93,464.17H702.54l-7.23,20.68h38.44L689.9,500l-2.9,8.38,67.47-22.12,7.46-22.13Zm-378.66,36.3H359.08s22.42-59.76,24.22-64.28c3.19-8,5.11-7.45,5.11-7.45H355c4.14,2,.47,9.78.47,9.78s-26.76,74.53-28.63,78.25-3.26,4.2-3.26,4.2h57.87l8.09-22.07c-.69,2.1-6.26,1.57-6.26,1.57Zm101.51,20.4H512a6.79,6.79,0,0,1-.7-5.79c1.61-4.2,16.07-43.55,16.07-43.55l6.29,49.34h24.69l32.36-87.77s1.33-4.12,3.13-4.12l-26.23-.07a10.23,10.23,0,0,1-.18,5.36c-.93,2.32-15.84,42.15-15.84,42.15l-5.83-47.51H517.62a6,6,0,0,1,.52,4.88l-29.87,82s-1.86,5.09-3.49,5.09Zm124.61-91.94s2.32,3.73-.71,12.34-26.78,72.67-26.78,72.67-1.87,6-4.43,7.19l37.27,0s45.17,1.67,59.15-45.81c0,0,17.7-46.82-33.54-46.35Zm4,70.95s.12,0,4.3,0c6.35,0,18.09-1.4,26-20.61,13-31.58-5.13-30.51-5.13-30.51h-7l-18.16,51.15ZM281.93,595.24h59.38l7.23-20.69H310.11L354,559.38l2.91-8.39-67.48,22.13-7.45,22.12ZM386,633.39c-.94,0-.94-3-.94-3l10.93-29S409.6,628.1,410.53,630a5,5,0,0,1,.46,3.42h32.55c-3.1,0-6.3-5.9-6.3-5.9L421,598.4c22.67,0,29.92-22.47,29.92-22.47,11.18-35.71-26.45-34.78-26.45-34.78H386c2.8,3.11.62,9.63.62,9.63s-23.91,68.36-25.77,73.64a28.81,28.81,0,0,1-5.28,9Zm23.08-71-6.31,18.54h5.9s11.49,1,15.73-8.12c0,0,5-10.47-8.91-10.47-3,0-6.41.05-6.41.05Zm313.77,71.37c-2.33,0-.71-5.65-.71-5.65l9.75-26.35L746,630.31a5,5,0,0,1,.47,3.41h33.71c-3.11,0-6.53-5.9-6.53-5.9l-16.21-29.08c22.68,0,29.51-21.66,29.51-21.66,11.9-37.4-26-35.59-26-35.59h-38.2c2.8,3.11.63,9.63.63,9.63S698.4,619.74,696.53,625a23.93,23.93,0,0,1-5.44,8.66l31.76.05Zm22.2-52.49s11.4.86,14.9-8.07c4.12-10.53-6.17-10.25-6.17-10.25h-8.43l-6.21,18.32ZM491.21,635.67c33.6,0,53.6-33,53.6-56.61,0-24.8-10.2-40.28-33.48-40.28-29.71,0-49.09,22.54-54.09,50.56-4.6,25.77,10,46.33,34,46.33Zm2.11-21.79c8.39,1.54,17.6-4.49,22.42-23.76,7.29-29.17-6.16-29.41-8.61-29.71-7.44-.91-17.37,7.66-21.4,25.52-1.85,8.15-3.81,25.83,7.59,28Zm59.47-72.39s2.31,1.24,2.31,7.14v79.81s-.32,4.37-2,5.28h25s0-1.87,2.48-5,54.34-72.66,54.34-72.66,11.83-14.6,14.93-14.6H614.11s2.8,1.87.63,5.28S580.8,597.7,580.8,597.7l.4-47.92s-.06-7.68,3-8.33l-31.44,0Zm151,21.76,8.08-21.78H651.27s2.17,1.91-.62,9.68-27.33,73.89-27.33,73.89-4.35,8.69-5.58,8.69h62.41l7.45-22s-.93,1.24-6.83,1.24h-26.4L660,598h20.48s4.36-.31,5.29.93l8.38-23.56s-.61,2.13-6.21,2.13H668l5.91-16.45h25.15s3.42-.47,4.65,2.16ZM388.08,521H418a8.92,8.92,0,0,1,.68-3.78c1.42-2.7,5.13-9.19,5.13-9.19h30.06l.06,8.1a6.92,6.92,0,0,1-2.06,4.95h29.82s-2.22-1.25-2.62-4.92l-3.74-81s-.17-5.18,2.3-6.27H448s2.07,2.56-1.89,8.38-54.48,80.74-54.48,80.74a7.53,7.53,0,0,1-3.55,3Zm65.17-60.79-16.6,27h16.84l-.24-27Z"/></g></g></svg>