<svg xmlns="http://www.w3.org/2000/svg" viewBox="0 0 1080 1080"><defs><style>.cls-1{fill:#f6f6f6;}.cls-2{fill:#c3c3c3;}</style></defs><g id="background"><rect class="cls-1" y="1079" width="1" height="1"/><rect class="cls-1" width="1" height="1"/><rect class="cls-1" y="1079" width="1" height="1"/><rect class="cls-1" x="1079" width="1" height="1"/><rect class="cls-1" x="1079" y="1079" width="1" height="1"/><rect class="cls-1" x="1079" y="1079" width="1" height="1"/></g><g id="Capa_1" data-name="Capa 1"><path class="cls-2" d="M685.29,336c4.7-6.76,9-12.93,13.28-19.15,1.47-2.14,3.22-1.31,4.92-.63,8.17,3.24,16.42,6.31,24.46,9.86a286.42,286.42,0,0,1,72,44.93c38.1,32.84,64.54,73.07,76.82,122.15a198.09,198.09,0,0,1,5.42,36.54c2.07,35.15-5.42,68.33-20.45,99.92-4.16,8.76-9.17,17.12-14,25.52A58.11,58.11,0,0,1,841,664a20.46,20.46,0,0,1-13.75,6.88,76.1,76.1,0,0,1-7.85.35q-175.29,0-350.58,0c-16.59,0-32.93-2.1-48.49-8.35a77.78,77.78,0,0,1-24.56-15.38c-11.23-10.52-16.39-23.54-17-38.73-.72-18.62,4.83-35.55,13.23-51.83,10.46-20.25,23.85-38.58,37.14-56.93q52.53-72.54,105.51-144.75c5.09-7,10.59-13.65,15.9-20.46,1.13-1.46,2.34-2.88,3.37-4.41,3.74-5.57,1.24-11.68-5.36-13a24.36,24.36,0,0,0-4.61-.25,411.85,411.85,0,0,0-62.14,5.19,362.22,362.22,0,0,0-57.14,13.4c-38.17,12.33-73,30.63-103,57.6-28.08,25.23-49,55.32-61.54,91a165.61,165.61,0,0,0-9.09,41c-3.44,40.1,5.51,77.57,25,112.52,19.72,35.45,48.29,62.15,83.48,81.93,30.32,17.05,63,27.43,97.06,33.59a439.55,439.55,0,0,0,50,5.94,522.25,522.25,0,0,0,60.13.42c44.15-2.22,87.25-10,128.47-26.6,24.35-9.8,47.16-22.31,67.12-39.47,4.91-4.22,9.68-6.13,16.13-5.88,12.34.47,24.7.13,37.05.13h5.69a35.16,35.16,0,0,1-7,8.6,285,285,0,0,1-39.41,32.1c-28.71,19.24-59.92,33-93,42.71-27.17,8-54.88,12.89-83,15.81-27.37,2.84-54.79,3.11-82.25,2.39a522.62,522.62,0,0,1-73.54-7.18c-35-5.92-68.86-15.51-101.1-30.57-26.2-12.25-50.29-27.67-71.41-47.42-37.75-35.29-61.53-78.29-70-129.46a197.22,197.22,0,0,1-2.77-40.08,215,215,0,0,1,19-80.08c13.14-29.25,31.72-54.62,55-76.56a275.09,275.09,0,0,1,59.36-42.35c34.73-18.6,71.79-30.32,110.45-37.31,16.7-3,33.5-5,50.41-6.49a572.74,572.74,0,0,1,72.58-1.36,516.83,516.83,0,0,1,78.86,9.47c5.15,1,10.37,1.75,15.39,3.21A42.51,42.51,0,0,1,670,308.31c5.48,3.57,7,9.56,4.26,15.5a38.8,38.8,0,0,1-4.73,7.37c-32,41.37-64.33,82.46-95.91,124.15-29.94,39.52-56.44,81.37-80.92,124.48-3.22,5.68-5,11.53-4.54,18.09.66,9.94,7,16.34,16.85,16.82,1.38.07,2.78,0,4.16,0q147.27,0,294.54,0c7.62,0,5.94,1.29,10.32-6.05,10.3-17.26,16.56-36,17.55-56,1.69-34.11-2.47-67.46-16.57-99a187.78,187.78,0,0,0-34.3-51.3c-18.88-20.34-41.08-36.32-65-50.11-8.28-4.77-16.87-9-25.32-13.49Z"/></g></svg>