<svg xmlns="http://www.w3.org/2000/svg" viewBox="0 0 1080 1080"><defs><style>.cls-1{fill:#f6f6f6;}.cls-2{fill:#c3c3c3;}</style></defs><g id="background"><rect class="cls-1" y="1079" width="1" height="1"/><rect class="cls-1" width="1" height="1"/><rect class="cls-1" y="1079" width="1" height="1"/><rect class="cls-1" x="1079" width="1" height="1"/><rect class="cls-1" x="1079" y="1079" width="1" height="1"/><rect class="cls-1" x="1079" y="1079" width="1" height="1"/></g><g id="Capa_1" data-name="Capa 1"><path class="cls-2" d="M539.86,799.66q-19.9,0-39.71-1.71a454.36,454.36,0,0,1-114.43-24.12c-33.23-11.75-64.51-27.34-93.28-47.8-24-17-45.3-36.89-63.14-60.37a220.33,220.33,0,0,1-36.09-69.79,196.18,196.18,0,0,1-6.77-32.19,194.42,194.42,0,0,1,9.65-88.42c8.92-25.34,22.36-48.11,39.39-68.81,19.12-23.25,41.65-42.68,66.72-59.24a380.47,380.47,0,0,1,79.26-39.59,411.07,411.07,0,0,1,61.06-17.29c11.14-2.22,22.38-4,33.61-5.7,11.48-1.74,23.05-2.65,34.64-3.37,13.94-.86,27.88-1.17,41.83-.71,9.73.31,19.45,1,29.16,1.67,11.66.8,23.24,2.38,34.78,4.22a446,446,0,0,1,53.09,11.79,406.34,406.34,0,0,1,74.85,29.52c28.48,14.72,54.7,32.67,77.89,54.9,20.36,19.51,37.48,41.48,50.34,66.67a203.57,203.57,0,0,1,18.95,55,189.53,189.53,0,0,1,3.14,44c-1.53,33.43-11.27,64.42-28.07,93.26-13.54,23.24-30.69,43.52-50.6,61.51-24.71,22.32-52.43,40.11-82.42,54.43a422.27,422.27,0,0,1-89.53,30.69,459,459,0,0,1-49.28,8.29c-11.45,1.3-22.94,2.28-34.48,2.59ZM304.3,691.48l-.29.57c1,1,2.05,2.06,3.11,3.05,25.23,23.51,53.92,41.71,85.44,55.52a354.71,354.71,0,0,0,90,25.76,374.73,374.73,0,0,0,42.55,4A389.7,389.7,0,0,0,584.86,778c11.52-1.37,23-3.23,34.32-5.69A351.34,351.34,0,0,0,692,748.25a301.21,301.21,0,0,0,74-47.62c27.52-24.26,49.29-52.77,63.4-86.84A195.67,195.67,0,0,0,842.67,565a190.38,190.38,0,0,0,1.6-34.75,200.09,200.09,0,0,0-4.58-34.47A208.62,208.62,0,0,0,810,426.83c-.41-.62-.88-1.2-1.3-1.78-.32.18-.51.23-.57.34-.29.55-.55,1.11-.8,1.68-5.62,12.85-11.75,25.46-18.49,37.77-14,25.52-30.32,49.39-50,70.94-17.09,18.78-36.13,35.26-57.82,48.56-16.21,9.95-33.25,18.06-51.84,22.57-.5.12-1,.32-1.48.48l.06.45H738.31c-4.09,8.48-8,16.58-11.84,24.55-6.15.5-124.09.26-126.08-.27.36-.79.68-1.56,1.05-2.32l59.4-119.74q29.4-59.24,58.83-118.46c1.55-3.12.73-2.68,4.33-2.69q25.83,0,51.68,0c.87,0,1.83.27,2.83-.47-.68-.71-1.25-1.33-1.85-1.92a269.07,269.07,0,0,0-21.19-18.73c-29.42-23.37-62.22-40.45-97.77-52.37a359.58,359.58,0,0,0-68.2-15.6,363.37,363.37,0,0,0-46.84-3.2c-6.7,0-13.4.21-20.1.38a307.3,307.3,0,0,0-31.2,2.58,370,370,0,0,0-51.05,10.14,331.63,331.63,0,0,0-91.84,40.35c-29.05,18.6-54.28,41.33-74.33,69.54-22.32,31.4-35.93,66.05-38.79,104.7a195.85,195.85,0,0,0,.71,36.64,192.85,192.85,0,0,0,9,40,219.69,219.69,0,0,0,36.84,66.78c.33.42.63.87,1.14,1.58.62-1.16,1-1.89,1.41-2.64Q318,599,351.64,531.27l68.45-138c.76-1.53,1.24-3.62,2.49-4.37s3.45-.41,5.23-.41q58.69,0,117.39,0h3.15c-.34,1.1-.54,1.84-.8,2.56-2.71,7.3-5.33,14.63-8.16,21.89a575.47,575.47,0,0,1-45.68,92.74c-16.64,27-35.66,52.25-57.88,75-23.35,23.91-49.33,44.39-79,60-15.62,8.24-31.82,15-49.1,19-.49.12-.95.33-1.43.5l.08.43H443.76a5.57,5.57,0,0,1-.22,1q-6.81,14.22-13.64,28.44a2,2,0,0,1-2.18,1.34,16.64,16.64,0,0,0-1.87,0H304.3Z"/><path class="cls-2" d="M693.57,388.94c-1.3,3.65-2.44,6.95-3.66,10.22a555.83,555.83,0,0,1-33.44,73.76c-18,32.68-39.32,62.87-65.63,89.41-21.32,21.51-45,39.83-72.06,53.68-13.63,7-27.73,12.74-42.72,16.14-.13,0-.24.18-.36.27a.86.86,0,0,0,.06.23.34.34,0,0,0,.16.13,3.4,3.4,0,0,0,.46.09,3.53,3.53,0,0,0,.46,0l121.35,0a2.32,2.32,0,0,1,.46.07,1.39,1.39,0,0,1,.21.11c-.14,1.77-9.26,21.31-12.82,27.43H444.54q67.82-136,135.42-271.58Z"/></g></svg>