<svg xmlns="http://www.w3.org/2000/svg" viewBox="0 0 1080 1080"><defs><style>.cls-1{fill:#f6f6f6;}.cls-2{fill:#c3c3c3;fill-rule:evenodd;}</style></defs><g id="Capa_2" data-name="Capa 2"><g id="background"><rect class="cls-1" x="1079" y="1079" width="1" height="1"/><rect class="cls-1" x="1079" y="1079" width="1" height="1"/><rect class="cls-1" y="1079" width="1" height="1"/><rect class="cls-1" width="1" height="1"/><rect class="cls-1" y="1079" width="1" height="1"/><rect class="cls-1" x="1079" width="1" height="1"/><rect class="cls-1" x="1079" y="1079" width="1" height="1"/><rect class="cls-1" x="1079" y="1079" width="1" height="1"/></g><g id="Capa_1-2" data-name="Capa 1"><path class="cls-2" d="M532.3,138c-20.59,1-50.88,5-58.74,7.8-7.53,2.65-11.11,7.51-13.3,18-3,14.27-12.18,76.07-16.34,109.62-22.14,178.86-23.16,340.57-3.26,518.7,6.26,56.08,17.88,134.4,21.43,144.47,2.81,8,8.58,11.42,23.13,13.85A376.16,376.16,0,0,0,597,953c32.22-4,37.82-6.52,41.33-18.24,2.8-9.32,12.38-71.81,18-117.24,20.56-167,22.52-321.86,6.15-485.95-6.59-66.16-20.36-162.89-24.91-175-3.38-9-9-11.56-32.76-14.89-26-3.65-49.32-4.84-72.47-3.7m-2.24,13.33c-2.35,2.18-2.3,2-5.16,19.78-1.15,7.21-2.41,13.87-2.79,14.81-.61,1.47-1.87,1.84-9.17,2.7-10.64,1.24-16.3,2.82-19.37,5.4-4.64,3.91-6.76,11.32-12.79,44.68-14.3,79.15-24.35,178.37-26.33,259.92-.38,16-.83,22.59-1.6,23.83-.67,1.07-3.89,2.74-8.57,4.42-5.07,1.83-7.9,3.33-8.77,4.65-.7,1.08-1.13,2.07-1,2.22.57.48,56.57-3.57,65.94-4.77,10.6-1.35,16.46-3.58,20-7.61,2.89-3.3,3.87-5.57,4.88-11.27.4-2.26,1.11-33.57,1.58-69.6,1.55-117.73,4.78-267.43,6.17-285.55.23-3,.11-5.53-.28-5.53a8.16,8.16,0,0,0-2.78,1.92m37,4.81c0,3.73.36,17.28.8,30.12,1.91,56.53,3.75,148.08,4.93,246,.47,39.18,1.23,73.75,1.68,76.83,1.5,10.24,5.36,14.9,14.76,17.82,6.36,2,14,2.8,45,4.86,13.74.91,26.36,1.86,28,2.12,2.17.32,3.07.15,3.07-.58,0-2.14-2.88-4-10-6.58-4.54-1.63-7.75-3.28-8.4-4.33-.77-1.23-1.2-8-1.57-24.24-1.57-69.88-9.39-154.71-21-228.23-4.39-27.72-10.12-58.29-12.19-65-3.49-11.29-7.23-13.92-22.76-16-5.45-.72-10.31-1.57-10.82-1.89s-2.12-7.72-3.59-16.46c-2.77-16.45-3.54-18.94-6.28-20.41-1.55-.83-1.62-.59-1.62,5.92M434.46,560.26c0,2,3.39,4.32,9.25,6.36,10.92,3.8,10.05,1.51,10.7,27.93,1.91,76.88,10.12,162.57,23.06,240.78,8.45,51.09,11.13,61.12,17.45,65.3,2.83,1.86,9.61,3.38,22,4.93,2.79.35,4.56,1,5,1.89s1.71,7.8,3,15.68c2.5,15.68,3.56,19,6.64,20.36l2,.93-.45-5.94c-1.5-19.69-4.67-165.22-6.19-283.91-.84-66.05-1.21-73.82-3.68-78.6-1.38-2.65-5-6-8.33-7.69-6.55-3.3-9.79-3.7-53.47-6.63-10.13-.68-20.36-1.45-22.72-1.71-2.53-.27-4.3-.14-4.3.32m195.26,1.81c-31.48,2.33-37.61,3.14-43.78,5.83-7,3-10.08,7.6-11.43,16.8-.45,3.08-1.21,38-1.68,77.65-1.19,99.6-2.71,175.2-5,249.95-.52,16.78-.74,30.72-.48,31,.89.89,3.66-1.27,4.53-3.53.48-1.25,2-9.06,3.35-17.35S578,907,578.32,906.68s4.89-1.21,10.07-1.9c15.84-2.11,18.81-3.63,22.11-11.31C615,883,625.89,819.58,632.61,764.7,640,704.78,645.67,626,645.7,584.32c0-14,.08-14.12,10.24-17.65,5.94-2.07,9.41-4.41,9.41-6.35,0-.91.79-1-35.63,1.75"/></g></g></svg>