<svg xmlns="http://www.w3.org/2000/svg" viewBox="0 0 1080 1080"><defs><style>.cls-1{fill:#f6f6f6;}.cls-2{fill:#c3c3c3;}</style></defs><g id="background"><rect class="cls-1" y="1079" width="1" height="1"/><rect class="cls-1" width="1" height="1"/><rect class="cls-1" y="1079" width="1" height="1"/><rect class="cls-1" x="1079" width="1" height="1"/><rect class="cls-1" x="1079" y="1079" width="1" height="1"/><rect class="cls-1" x="1079" y="1079" width="1" height="1"/></g><g id="Capa_1" data-name="Capa 1"><path class="cls-2" d="M543.21,374.3c-180.47,0-343,61.59-361.54,144.08C169.33,573.26,226.55,629.55,314,662.49c102.3-92.94,218-191.26,368.94-258.8-137.6,88.54-239.09,185.82-321.77,274.77,27.8,7.27,58.18,13.92,90.37,17.62,46.47-71.74,98.19-161,251-290.94-111,133.49-162.77,212.75-207.6,296.54,165.21,14.78,357.45-5.93,403.24-151,19.78-88-123.06-166.4-318.68-175.32q-18.12-1-36.28-1.07Zm-6.54,13.42c73.24-.84,130.66,7.26,130.66,7.26-142,50.83-242,102.84-373.83,177.48,1.28,1.27-104-15.3-28.31-102.35,57.12-65.71,177.32-81.3,271.48-82.39ZM722.14,412s96.1,12.17,119.77,97.27C868,603,621.13,640.59,604.54,626.53,650.21,516.15,663.69,515.21,722.13,412Z"/></g></svg>