<svg xmlns="http://www.w3.org/2000/svg" viewBox="0 0 1600 180"><defs><style>.cls-1{fill:#333;}</style></defs><g id="Capa_2" data-name="Capa 2"><g id="Capa_1-2" data-name="Capa 1"><path class="cls-1" d="M136.92,4.1,110.53,92.22q-2.25,7.84-3.55,13.4a80.63,80.63,0,0,0-1.77,10.13,114.06,114.06,0,0,0-4.62-20.25c-.47-1.4-.79-2.42-1-3L73.49,4.1H26.74L0,175.43H43.9l10.18-74.08q1.31-9.48,2.25-19T58,63.08a186.3,186.3,0,0,0,6.5,27c.64,2.26,1.11,3.94,1.43,5l23.55,80.28H121l23.54-80.28q.48-1.64,1.54-5A206.81,206.81,0,0,0,152.54,63c.48,7.58,1,14.55,1.6,21s1.24,12.21,2,17.43l10.18,74.08h44.14L183.79,4.1Z"/><path class="cls-1" d="M275.26,4.1,215.5,175.43h47l9-30.66h67.1l8.76,30.66h47L334.44,4.1Zm6.39,107.32,17.4-56.53q1.53-5.26,3-11t3-12.06q2.24,9,3.66,14.75T311,54.89l17.64,56.53Z"/><polygon class="cls-1" points="387.22 44.59 426.04 44.59 426.04 175.43 473.25 175.43 473.25 44.59 512.07 44.59 512.07 4.09 387.22 4.09 387.22 44.59"/><path class="cls-1" d="M636.92,84.85q-9.1-9.24-38-17l-2.13-.59q-13.37-3.51-18-7.37a12.69,12.69,0,0,1-4.68-10.3,12.48,12.48,0,0,1,5.33-10.36q5.33-4,13.84-4A44.14,44.14,0,0,1,610,38.68a62.05,62.05,0,0,1,16.51,10.24L641.3,15.33A88.66,88.66,0,0,0,617,3.8,95.33,95.33,0,0,0,589.82,0q-26.51,0-43.13,15.51T530.06,55.59q0,19,10.53,29.84t36,17.68q18.57,4.92,23.84,9.54t5.27,13.16a15.86,15.86,0,0,1-6.09,12.76q-6.11,5-15.57,5a40.84,40.84,0,0,1-20.41-5.85q-10.25-5.85-20.77-17.67l-21.3,34.75q13.73,13,28.58,19.08a86.11,86.11,0,0,0,33,6.09q30.17,0,48.28-16.56t18.11-43.83a57.28,57.28,0,0,0-3.2-19.6A41.71,41.71,0,0,0,636.92,84.85Z"/><path class="cls-1" d="M782.13,75.72v11.7q0,18.38-1,26.4a50.43,50.43,0,0,1-3.19,13.4,20,20,0,0,1-9.53,10q-6.69,3.45-16.39,3.46t-16.45-3.46a19.39,19.39,0,0,1-9.47-10,50.43,50.43,0,0,1-3.19-13.4q-1-8-1-26.4V4.1h-47.1V94.68q0,28.2,3.49,41.61a57,57,0,0,0,11.54,22.88q9,10.41,24.44,15.62T752.07,180q22.13,0,37.63-5.21t24.38-15.62a55.69,55.69,0,0,0,11.6-22.88q3.44-13.41,3.43-41.61V4.1h-47Z"/><path class="cls-1" d="M990.18,4.1,963.79,92.22q-2.25,7.84-3.55,13.4a80.79,80.79,0,0,0-1.78,10.13,113.05,113.05,0,0,0-4.61-20.25c-.48-1.4-.79-2.42-1-3L926.75,4.1H880L853.26,175.43h43.9l10.18-74.08q1.29-9.48,2.24-19t1.66-19.25a187.86,187.86,0,0,0,6.51,27q.94,3.39,1.42,5l23.55,80.28H974.2l23.55-80.28q.48-1.64,1.54-5A210.09,210.09,0,0,0,1005.8,63c.47,7.58,1,14.55,1.6,21s1.24,12.21,2,17.43l10.18,74.08h44.14L1037,4.1Z"/><path class="cls-1" d="M1240.12,26.57A91.65,91.65,0,0,0,1210,7.08a95.86,95.86,0,0,0-71.12,0A90.62,90.62,0,0,0,1109,26.57a87.36,87.36,0,0,0,0,127.09,90.62,90.62,0,0,0,29.88,19.49,95.29,95.29,0,0,0,101.24-19.49,88.21,88.21,0,0,0,0-127.09Zm-33.19,99.59q-12.86,14.28-32.49,14.28-20,0-32.66-14.16t-12.67-36.16q0-21.66,12.84-36t32.49-14.34a41.82,41.82,0,0,1,32.31,14.39q13,14.4,13,35.94Q1219.76,111.89,1206.93,126.16Z"/><polygon class="cls-1" points="1278.46 44.59 1317.28 44.59 1317.28 175.43 1364.5 175.43 1364.5 44.59 1403.31 44.59 1403.31 4.09 1278.46 4.09 1278.46 44.59"/><path class="cls-1" d="M1593.08,55.47a88,88,0,0,0-19.94-28.9A91.65,91.65,0,0,0,1543,7.08a95.86,95.86,0,0,0-71.12,0A90.42,90.42,0,0,0,1442,26.57a87.36,87.36,0,0,0,0,127.09,90.42,90.42,0,0,0,29.88,19.49,95.29,95.29,0,0,0,101.24-19.49,89.11,89.11,0,0,0,19.94-98.19Zm-53.14,70.69q-12.84,14.28-32.48,14.28-20,0-32.67-14.16t-12.66-36.16q0-21.66,12.84-36t32.49-14.34a41.8,41.8,0,0,1,32.3,14.39q13,14.4,13,35.94Q1552.78,111.89,1539.94,126.16Z"/></g></g></svg>