<svg xmlns="http://www.w3.org/2000/svg" viewBox="0 0 1080 1080"><defs><style>.cls-1{fill:#f6f6f6;}.cls-2{fill:#c3c3c3;}</style></defs><g id="background"><rect class="cls-1" y="1079" width="1" height="1"/><rect class="cls-1" width="1" height="1"/><rect class="cls-1" y="1079" width="1" height="1"/><rect class="cls-1" x="1079" width="1" height="1"/><rect class="cls-1" x="1079" y="1079" width="1" height="1"/><rect class="cls-1" x="1079" y="1079" width="1" height="1"/></g><g id="Capa_1" data-name="Capa 1"><path class="cls-2" d="M539.71,760.8c-55.07,0-109.06-7.45-161.6-24.21-46.94-15-90.68-36.2-128.43-68.39-29.68-25.31-53.12-55.07-64-93.31-10-35-6.58-69,8.8-101.76,15.59-33.24,40.4-58.54,69.93-79.55C312.09,359.64,366,340.68,422.77,329a556.94,556.94,0,0,1,98.14-11c36.83-.93,73.51.73,110,6.38,62.36,9.68,121.69,27.95,175,62.65,30.46,19.81,56.86,44,74.37,76.31,28.76,53.1,25.67,105.33-6.51,155.88-21.3,33.45-51,58.18-84.7,78.39-52,31.19-108.65,49.06-168.37,57.24-26.77,3.67-53.87,5-80.83,7.39C539.81,761.76,539.76,761.28,539.71,760.8ZM301.22,659c14.18,8.28,26.95,16.48,40.37,23.42,44.23,22.84,91.65,35.17,140.86,40.8,60.39,6.91,120.2,3.32,179.15-11.93,35.78-9.27,69.71-23,101.13-42.63,5-3.14,9.83-6.68,14.55-9.91-.38-1.08-.41-1.48-.63-1.71-24.87-27.79-51-54.27-79.82-78.06-2.51-2.08-4.82-2.16-7.53-.5-5.73,3.52-11.54,6.9-17.3,10.37Q612,625,551.91,661.07c-7.52,4.5-15.46,4.8-23.17.49-16.4-9.16-32.91-18.15-49-27.88-29.35-17.78-58.46-36-87.52-54.21-4.29-2.69-7.34-2.57-10.93.85-20,19-40.13,37.85-60,57C314.68,643.73,308.73,650.89,301.22,659ZM818,621.22c5-7.63,10-14.43,14.2-21.7,15.78-27.38,21.14-56.6,14.4-87.7-6.32-29.19-22.24-52.81-43.49-73.09-26.89-25.66-58.9-43-93.34-56.16-50.36-19.22-102.83-27.31-156.46-29-3.7-.12-7.41,0-11.11,0C642.05,434.41,730.93,526,818,621.22ZM539,353.77c-3-.15-4.35-.34-5.67-.26-17,1-34.13,1.48-51.11,3.17-46.83,4.65-92.12,15.6-135,35.45-33.86,15.69-64.27,36.08-87.91,65.62-34.52,43.13-38.51,97.45-10.12,144.82,3.74,6.24,8.26,12,12.73,18.44C348.85,526,437.62,434.5,539,353.77Zm1.5,260.47c4.23-2.15,8.7-4.26,13-6.65,33.26-18.44,64.93-39.22,94.06-63.75,6.05-5.09,6.05-5.81.54-11.15-30.8-29.87-64.86-55.67-100.14-79.92-6.89-4.75-9.19-4.67-16.33.2-35.1,23.94-68.65,49.82-99.49,79.1-5.67,5.38-5.73,6.77.1,11.71,30.78,26.1,64.61,47.66,99.92,67A85.43,85.43,0,0,0,540.48,614.24Z"/></g></svg>