<svg xmlns="http://www.w3.org/2000/svg" viewBox="0 0 1080 1080"><defs><style>.cls-1{fill:#f6f6f6;}.cls-2{fill:#c3c3c3;}</style></defs><g id="background"><rect class="cls-1" y="1079" width="1" height="1"/><rect class="cls-1" width="1" height="1"/><rect class="cls-1" y="1079" width="1" height="1"/><rect class="cls-1" x="1079" width="1" height="1"/><rect class="cls-1" x="1079" y="1079" width="1" height="1"/><rect class="cls-1" x="1079" y="1079" width="1" height="1"/></g><g id="Capa_1" data-name="Capa 1"><path class="cls-2" d="M818.35,365.21l2.29,3c22.55,29.27,37.58,62.11,46.44,97.89a281.52,281.52,0,0,1,7.37,84.78,374,374,0,0,1-8.07,60.46c-6.57,29.11-17.34,56.46-34.27,81.19-19.58,28.61-44.91,50.88-75,67.85-25,14.06-51.58,24-79.23,31.27a482,482,0,0,1-68.29,12.55,631.14,631.14,0,0,1-103.5,2.93c-34.9-1.75-69.44-6.21-103.38-14.76-25.38-6.4-49.95-15-73.3-27C277.16,738.66,242,697.25,222.76,642a309.64,309.64,0,0,1-14.42-63.2c-2.55-20.13-4-40.34-3.06-60.62,2.25-49,15.39-94.7,42.89-135.77,4.21-6.29,9-12.17,13.6-18.22.65-.85,1.42-1.61,2.24-2.55a8.15,8.15,0,0,1,1.24,1.09c12.64,16.53,28.22,29.88,45.13,41.8a248.6,248.6,0,0,0,41,23.07c25.45,11.51,51,22.82,76.44,34.32,6.91,3.12,13.62,6.64,20.45,9.93,18.9,9.09,35,22,49.53,36.89a238.84,238.84,0,0,1,37.34,49.77,27.4,27.4,0,0,0,3.34,4.77c1.47,1.67,2.67,1.67,4.07,0a34.31,34.31,0,0,0,3.58-5.39c15.39-28.32,36.16-52,61.57-71.72C618.8,477.54,631.17,471,644,465.3c17.82-7.87,35.86-15.25,53.83-22.77q13.94-5.83,28-11.41a222.06,222.06,0,0,0,61.93-37.61c9.51-8.06,18.81-16.34,27.55-25.24C816.19,367.28,817.2,366.34,818.35,365.21ZM541.45,608h-.78c-.22-.59-.47-1.16-.63-1.76-1.12-4.18-2.15-8.39-3.35-12.55-7-24.23-16.63-47.12-32.94-66.79a227.83,227.83,0,0,0-18.3-20.23C473.53,495.42,460.9,485.1,446,478c-4.69-2.24-9.26-4.74-14-6.88-24-10.85-47.84-21.93-72-32.35A319.31,319.31,0,0,1,289,397,137.17,137.17,0,0,1,268,377.29c-1.32-1.58-2.6-3.18-4.3-5.25-.34.6-.58,1.09-.88,1.54-5.3,8.05-11,15.86-15.86,24.17-22.67,38.8-33.68,80.93-35,125.69-.52,17.25.8,34.42,2.89,51.54a322.74,322.74,0,0,0,12.55,58.66,154.35,154.35,0,0,0,6.43,16.63,24.63,24.63,0,0,0,14.32,13.42c2.23.82,4.37,1.92,6.64,2.64,7.24,2.27,12.6,7,17.11,12.88,3.11,4,6.15,8.12,9,12.31a193.26,193.26,0,0,0,51,50.45c31.73,21.49,67.08,33.48,104.67,39.18,15.3,2.32,30.73,3.81,46.13,5.43a532,532,0,0,0,57.42,2.87c19.5-.07,39-.89,58.4-2.88,18.32-1.87,36.58-4.08,54.61-7.92,26.62-5.67,52.21-14.23,76.17-27.29,34.15-18.61,61.77-44.05,81-78.17,9.1-16.17,17.31-32.78,22.3-50.73a293.2,293.2,0,0,0,9.63-57.57c1.76-24,1.63-48-1.67-72a223.1,223.1,0,0,0-19.38-65.44,16.45,16.45,0,0,1-1.68-9.45,205.27,205.27,0,0,0,0-39.27c-.12-1.41-.39-2.82-.64-4.61-5,4.75-9.53,9.09-14.11,13.37-22.08,20.6-46.86,37-74.84,48.53-9.91,4.07-19.77,8.27-29.71,12.28C680.6,456.22,661,464,641.91,473.11,625,481.24,609.3,491.05,596,504.46a283.48,283.48,0,0,0-26.46,30.35c-3.17,4.26-6.26,8.59-9,13.11a126.61,126.61,0,0,0-17.33,49.61C542.69,601.05,542,604.54,541.45,608Z"/><path class="cls-2" d="M325.89,396.78a259.45,259.45,0,0,1-53.05-44.62c1.5-1.54,2.53-2.62,3.6-3.69,17.83-17.84,38.74-31.19,61.47-41.82a319.61,319.61,0,0,1,79.74-24.89,614.82,614.82,0,0,1,70.91-8.47,812.93,812.93,0,0,1,90.62-.58c15.35.79,30.71,1.82,46,3.43,34.25,3.59,67.85,10.25,100.12,22.64,24.57,9.43,47.28,22,67.27,39.3a188.59,188.59,0,0,1,16.71,16.33c-15.4,17-32.75,31.58-50.95,45.42-.68-.83-1.26-1.46-1.75-2.14C734.22,367,705.08,345.14,670,330.93A264,264,0,0,0,609.87,315c-29.13-4.38-58.45-5.26-87.83-4.31-28.32.91-56.33,4.29-83.82,11.48-29.1,7.62-55.71,20.16-79.09,39.27a189.62,189.62,0,0,0-29.45,30.62C328.5,393.58,327.27,395.06,325.89,396.78Zm-21.06-30.26a3.88,3.88,0,0,0,.8-.37c1.63-1.58,3.26-3.17,4.87-4.78,11.7-11.67,24.28-22.29,38.55-30.7a237,237,0,0,1,50.49-22.06c34.06-10.52,69.1-15.13,104.57-17,9.19-.48,18.4-.84,27.61-.86,13.64,0,27.31-.08,40.93.49a461.42,461.42,0,0,1,56.81,6.27c18.17,3,36.11,7.07,53.56,13.09,33.84,11.66,64.24,29.08,90.12,54,1.48,1.42,2.94,2.85,4.49,4.36L802,355.55c-1.7-1.49-2.94-2.53-4.12-3.63-26.25-24.7-56.75-42.14-91-53.11-33.5-10.74-68-15.93-103-18.79-13.16-1.07-26.37-1.68-39.58-2.18a742.52,742.52,0,0,0-89.62,2,495,495,0,0,0-60.74,8.62c-27.67,5.81-54.44,14.3-79.64,27.29-18.48,9.53-35.73,20.85-50.77,35.33-.59.57-1.09,1.24-1.75,2Z"/><path class="cls-2" d="M262.64,433.33c.5,1.47.82,2.35,1.11,3.25A314.32,314.32,0,0,0,282.05,482c1.75,3.49,3.69,6.88,5.74,10.19a7,7,0,0,1,1.13,4.87,330.33,330.33,0,0,0-2.41,49.61c.91,29.6,4.92,58.68,14.85,86.73,12.38,35,32.83,64.22,62.36,86.93,17.85,13.74,38,22.84,59.52,28.93a314.54,314.54,0,0,0,49.09,9.29c30.42,3.55,60.95,3.9,91.51,3a427.35,427.35,0,0,0,57.24-5.06c26.7-4.4,52.15-12.46,76-25.42,35-19,60.27-46.83,76.27-83.2a238.28,238.28,0,0,0,17.72-63.61c3.47-25,3.89-50.08,2.39-75.22a108,108,0,0,0-1.4-12.58,8,8,0,0,1,1-5.51A407,407,0,0,0,814,445.9c1.27-3.3,2.36-6.67,3.72-10.58.54,1.18.93,1.87,1.2,2.61a264.08,264.08,0,0,1,14.49,61.81c2.51,22.93,2.24,45.86.36,68.79a279.74,279.74,0,0,1-7.53,43.8c-2.89,11.78-9,21.46-17.62,29.74a138,138,0,0,1-20.4,16.08,105.63,105.63,0,0,0-28.48,27.71c-13.72,19.16-31.34,33.86-51,46.57-29.84,19.27-62.48,30.47-97.35,36-26.19,4.12-52.56,5.37-79,5-13.32-.2-26.65-.55-39.95-1.35-25.13-1.52-50-4.87-74.05-12.75A171.38,171.38,0,0,1,359,725.81c-9.92-8.56-19.91-17-30.12-25.27a149.87,149.87,0,0,0-27.51-17.17c-6.1-3-12.13-6.26-17.91-9.86a75.09,75.09,0,0,1-10.67-8.44,37.16,37.16,0,0,1-9.07-13.7A261.61,261.61,0,0,1,246,579.74a368.15,368.15,0,0,1-1.72-63.59C246.05,489,251,462.47,261.05,437,261.47,436,262,434.91,262.64,433.33Z"/><path class="cls-2" d="M812.35,429.9c-.64,1.87-1.05,3.17-1.51,4.45-5.54,15.4-12.33,30.27-19.38,45-1,2.15-2.2,4.25-3,6.48-1.11,3.05-3.21,4.87-6,6.42-15.45,8.57-31.9,14.56-48.91,19.05-16.22,4.3-32.48,8.38-48.42,13.69-22.3,7.43-43.59,16.94-63.28,29.86-20.46,13.43-37.84,29.93-50.67,51-6.35,10.42-10.85,21.65-14.92,33.1-1.63,4.59-3.33,9.16-5.22,13.65a20.11,20.11,0,0,1-3.41,5.47c-3.61,4-9.16,3.62-12.21-.83a36.67,36.67,0,0,1-2.95-5.4c-2.34-5.13-4.46-10.35-6.85-15.45C507.19,596.93,479.45,566,441.06,545c-12.41-6.81-25.77-11.26-39.25-15.35-19.37-5.88-38.8-11.56-58.13-17.57A251.49,251.49,0,0,1,299.57,494a14.78,14.78,0,0,1-5.47-4.91c-5.89-8.78-10.2-18.37-14.09-28.12s-7.2-19.5-10.75-29.26c-.17-.47-.23-1-.44-1.89,1.06.55,1.72.84,2.33,1.22,37.93,23.69,30,18.46,68.1,34.86,17.29,7.44,35.17,13.48,52.78,20.15,13.77,5.22,27.58,10.33,41.29,15.69,20.74,8.11,38,21.21,53.89,36.66,16.32,15.9,29.17,34.26,40.58,53.78,2.13,3.64,4.16,7.35,6.13,11.08.46.86,1.42,1.79.47,3-1.46.06-1.61-1.26-2.19-2.07-4.27-6-8.25-12.22-12.8-18-11.06-14-24.83-25-39.89-34.48A276.88,276.88,0,0,0,449,535.07c-9.17-4.26-18.92-6.86-28.7-9.28-10.82-2.68-21.68-5.18-32.52-7.75a1.2,1.2,0,0,0-1,.29c.92.32,1.83.66,2.76,1,11.11,3.65,22.24,7.23,33.31,11,25.67,8.66,47.53,23.31,66.36,42.62A296.68,296.68,0,0,1,514.11,602,137.34,137.34,0,0,1,531,631.16c2.28,5.38,4.73,10.69,7.17,16a12.62,12.62,0,0,0,3.08,4.23c0-.91.15-1.83.16-2.74q0-14.31,0-28.61a6.94,6.94,0,0,1,1.36-4.79c1.18-1.48,1.75-3.46,2.52-5.25,10.55-24.33,25.59-45.74,43.33-65.22a191.23,191.23,0,0,1,71.07-49.06c16.49-6.62,33.08-12.92,49.91-18.55,27.82-9.29,54.42-21.33,80.25-35.12,6.4-3.42,12.74-6.95,19.12-10.42C809.85,431.14,810.8,430.69,812.35,429.9Z"/></g></svg>