<svg xmlns="http://www.w3.org/2000/svg" viewBox="0 0 1080 1080"><defs><style>.cls-1{fill:#f6f6f6;}.cls-2{fill:#c3c3c3;}</style></defs><g id="background"><rect class="cls-1" y="1079" width="1" height="1"/><rect class="cls-1" width="1" height="1"/><rect class="cls-1" y="1079" width="1" height="1"/><rect class="cls-1" x="1079" width="1" height="1"/><rect class="cls-1" x="1079" y="1079" width="1" height="1"/><rect class="cls-1" x="1079" y="1079" width="1" height="1"/></g><g id="Capa_1" data-name="Capa 1"><path class="cls-2" d="M865,536.27C863.56,624.11,835.78,698,778.75,760c-55,59.81-123.74,93.5-204.28,103.37-95.59,8.31-180.33-17.77-252-81.93-60.07-53.77-94.56-121.66-105.31-201.58-10.46-100.34,17.27-188.51,86.11-262.45,53.81-57.79,120.86-91.69,199.43-100.14C598.49,207,683.86,233.22,756,297.64S862.9,443.78,865,536.27ZM531.54,247.77c-5,0-9.62-.38-14.14.08-10,1-20,2.23-29.95,3.76a168.54,168.54,0,0,0-18.69,4q-13.08,3.56-26,7.84c-5.61,1.86-11.09,4.16-16.53,6.5-6.88,3-13.82,5.86-20.43,9.35-7.9,4.17-15.66,8.67-23.16,13.52-8.06,5.2-16,10.66-23.54,16.58-7.8,6.11-15.08,12.9-22.55,19.42a55.42,55.42,0,0,0-4.34,4.19c-4.14,4.51-8.31,9-12.32,13.62-4.82,5.56-9.81,11-14.12,17-6,8.23-11.61,16.71-16.88,25.38-5,8.21-9.64,16.67-13.86,25.3a252.3,252.3,0,0,0-12.53,31c-2.83,8.49-5.26,17.06-7.46,25.73-2.38,9.36-3.94,18.84-5.37,28.35a182,182,0,0,0-2.15,19c-.39,9.37-.19,18.76-.2,28.14,0,5.14-.33,10.33.24,15.41,1.3,11.56,2.93,23.08,4.7,34.57a139.79,139.79,0,0,0,3.41,15.38c3.61,13.27,7.55,26.45,13,39.1,3.23,7.48,6.7,14.87,10.14,22.25.93,2,2.17,3.84,3.44,6.06,1.21-.83,2.14-1.41,3-2.07,1.93-1.51,3.82-3.08,5.76-4.59q11.1-8.64,22.21-17.28c5.63-4.4,11.22-8.86,16.85-13.26,5.81-4.53,11.66-9,17.46-13.53,5.64-4.4,11.21-8.87,16.86-13.26s11.36-8.65,17-13c7.66-6,15.25-12.05,22.9-18,5.28-4.14,10.66-8.14,15.91-12.3,5.7-4.52,11.26-9.21,17-13.73,6.3-5,12.68-9.91,19-14.86,11.62-9.08,23.15-18.27,34.92-27.15a9.82,9.82,0,0,0,4.2-7.49c.56-5.34,1.22-10.67,1.94-16,1.34-9.86,2.78-19.7,4.15-29.56,1.2-8.65,2.35-17.3,3.55-25.94,1.23-9,2.5-17.94,3.73-26.92s2.39-17.74,3.61-26.6c1.32-9.53,2.68-19.06,4-28.58q2-14,3.91-27.92,2.32-16.46,4.67-32.9,2-14,3.94-27.93C529.72,260.22,530.63,254,531.54,247.77Zm265.94,431a31.87,31.87,0,0,0,2.26-3.49c2.92-6.15,5.78-12.33,8.63-18.51a242.76,242.76,0,0,0,11.19-30.14,278.21,278.21,0,0,0,7.73-30.88,224.54,224.54,0,0,0,3.87-27.89c.45-7.36,1-14.73,1.21-22.1.19-6.26.22-12.55-.08-18.81-.38-7.81-.91-15.64-1.88-23.41-1-8.19-2.51-16.34-4-24.47a142.89,142.89,0,0,0-3.68-15.32c-3-9.61-6-19.22-9.47-28.65-2.63-7.11-5.78-14.06-9.1-20.89-4.06-8.32-8.15-16.66-12.94-24.56-5.32-8.77-11.17-17.26-17.3-25.5-5.59-7.51-11.64-14.71-17.89-21.69-5.51-6.16-11.45-11.94-17.44-17.64-4.6-4.38-9.46-8.49-14.4-12.48-5.48-4.43-11-8.8-16.81-12.8-6.81-4.7-13.81-9.15-20.92-13.38-5.56-3.3-11.37-6.18-17.15-9.1-4.49-2.27-9-4.55-13.67-6.4-7.68-3-15.49-5.78-23.28-8.58a162.78,162.78,0,0,0-24.82-7c-6.81-1.29-13.54-3-20.38-4.07-9-1.4-18-2.5-27-3.47a106.22,106.22,0,0,0-11-.06c0,1.38-.08,2.28,0,3.15.41,3.67.83,7.33,1.35,11,1.39,10,2.85,19.94,4.25,29.91,1.27,9.08,2.49,18.17,3.75,27.25q1.72,12.47,3.47,24.93,2,14.46,4.06,28.92,2,13.95,3.88,27.91,2,14.44,4.08,28.89,1.75,12.47,3.48,24.93,2,14.3,4,28.58,1.95,14,3.91,27.93a5.26,5.26,0,0,0,1.83,3.8q7.84,6,15.65,12.11c5.58,4.31,11.17,8.59,16.71,12.94s11.19,8.91,16.82,13.33c7.11,5.58,14.27,11.08,21.38,16.67,4.39,3.46,8.67,7,13.08,10.49,5.55,4.32,11.21,8.49,16.76,12.8,7.69,6,15.31,12,23,18,5.37,4.2,10.8,8.34,16.15,12.55,5.88,4.63,11.68,9.37,17.58,14,5.54,4.33,11.22,8.5,16.76,12.83,9.25,7.23,18.43,14.55,27.66,21.8C791.51,674.31,794.37,676.4,797.48,678.75ZM292.07,695.29c.52,1.06.71,1.59,1,2.05,2.66,4,5.22,8.09,8.05,12,4.2,5.77,8.43,11.54,12.95,17.06,4.32,5.26,8.89,10.35,13.63,15.25,5.89,6.08,11.91,12.08,18.19,17.76,5.38,4.87,11.12,9.33,16.85,13.79,4.49,3.5,9.07,6.93,13.85,10,6.84,4.43,13.8,8.69,20.88,12.7,6.42,3.64,13,7.12,19.67,10.17,7.71,3.5,15.63,6.57,23.56,9.59,5.42,2.07,11,4,16.54,5.52a292.32,292.32,0,0,0,37.31,8.21c13.88,2,27.72,3.78,41.77,3.5,6.5-.13,13-.12,19.49-.26,11.55-.25,23-2.06,34.33-3.86a225.94,225.94,0,0,0,33-7.77c8.94-2.83,17.75-6.11,26.53-9.41a203.37,203.37,0,0,0,25.85-12c4.91-2.68,9.8-5.39,14.6-8.26,5.07-3,10.11-6.15,15-9.47s9.54-6.62,14.07-10.23c6.63-5.29,13.19-10.68,19.5-16.35,4.71-4.24,9-8.92,13.39-13.55S761,732.35,765,727.29c6.39-8.07,12.43-16.41,18.51-24.71,1.74-2.37,3.11-5,4.83-7.81-6.95-2.82-13.48-5.44-20-8.09q-15.52-6.33-31-12.67c-9.22-3.75-18.45-7.45-27.67-11.21-4.76-1.94-9.48-4-14.25-5.93-7.36-3-14.75-5.83-22.11-8.79-5-2-9.91-4.12-14.89-6.13-7.87-3.18-15.77-6.29-23.64-9.46-5-2-9.91-4.14-14.89-6.15-8-3.22-16-6.38-24-9.6-4.77-1.92-9.49-3.94-14.26-5.85-7.57-3-15.18-6-22.76-9-6-2.41-12-4.84-18-7.35a3.85,3.85,0,0,0-3.19.15c-4.35,1.74-8.74,3.39-13.08,5.16q-14.28,5.82-28.52,11.73L471.6,621.72c-3.31,1.38-6.6,2.78-9.92,4.13-7.66,3.11-15.33,6.16-23,9.28-5,2-9.91,4.17-14.88,6.21-7.95,3.27-15.93,6.48-23.89,9.73-4.45,1.82-8.88,3.68-13.33,5.51-5.37,2.21-10.75,4.38-16.11,6.6-4.13,1.7-8.23,3.49-12.38,5.17-7.25,2.93-14.53,5.76-21.78,8.71-4.86,2-9.68,4.09-14.51,6.14-3.19,1.35-6.35,2.76-9.56,4C305.64,689.92,299,692.53,292.07,695.29Z"/></g></svg>