<svg xmlns="http://www.w3.org/2000/svg" viewBox="0 0 1080 1080"><defs><style>.cls-1{fill:#f6f6f6;}.cls-2{fill:#c3c3c3;}</style></defs><g id="background"><rect class="cls-1" y="1079" width="1" height="1"/><rect class="cls-1" width="1" height="1"/><rect class="cls-1" y="1079" width="1" height="1"/><rect class="cls-1" x="1079" width="1" height="1"/><rect class="cls-1" x="1079" y="1079" width="1" height="1"/><rect class="cls-1" x="1079" y="1079" width="1" height="1"/></g><g id="Capa_1" data-name="Capa 1"><path class="cls-2" d="M513.28,240.14a2.34,2.34,0,0,0,.78.32c6,0,12,.2,18.07-.2a120.7,120.7,0,0,1,16.36,0c2.39.16,4.77.2,7.16.21,12.54.1,25.09,0,37.63.28,8.23.21,16.47.1,24.68.59,4.37.27,8.76.37,13.14.94,4.9.64,9.92.39,14.87.71,5.42.35,10.75.92,15.87,3.19a51.24,51.24,0,0,1,13.57,9.33c4,3.66,8.2,7.15,12.25,10.8,4.82,4.35,9.51,8.85,14.38,13.15,6.75,5.95,13,12.41,19.63,18.49,9.66,8.87,18.9,18.17,28.17,27.43,7.17,7.17,14.41,14.28,21.48,21.56,6.33,6.5,12.45,13.2,18.68,19.81,4.26,4.52,8.61,9,12.81,13.55s8.14,9.14,12.2,13.72c4.75,5.37,9.58,10.67,14.2,16.15a30.59,30.59,0,0,1,7,14,74.7,74.7,0,0,1,.92,11.4c.29,7.73,1.07,15.43,1.26,23.18.12,4.86.14,9.76.54,14.61.5,6.19.57,12.39.94,18.59.34,5.72,0,11.49.19,17.23.46,15.69.64,31.39.27,47.08-.26,10.9,0,21.82-.48,32.71-.38,8.2-.77,16.41-1,24.62-.17,5.73-.57,11.45-.75,17.18-.23,7.14-1.26,14.27-1.39,21.41-.16,8.76-4.48,15.41-9.81,21.69s-10.8,12.37-16.28,18.47c-3.76,4.19-7.6,8.34-11.44,12.47-6.7,7.19-13.49,14.3-20.24,21.45-3.52,3.74-7.12,7.45-10.81,11-4.37,4.27-8.61,8.71-12.91,13.06C748.68,757,742,763.45,735.42,770c-4.49,4.42-8.88,9-13.55,13.2-5.25,4.75-10.15,9.87-15.43,14.57-4.57,4.06-8.93,8.34-13.54,12.35-4,3.5-8.13,6.93-11.91,10.74a112.2,112.2,0,0,1-11.93,10.26c-4.21,3.18-9.34,4.22-14.49,4.92s-10.41,1.06-15.66,1.27q-10,.4-20,1.12c-13.65,1-27.32.76-41,1.16-23.55.68-47.09.44-70.63.24-10.33-.08-20.66-.15-31-.49-7.73-.25-15.45-.76-23.17-1.2-6-.35-12-.49-18-1-7.14-.56-14.28-1.17-21-4a18.51,18.51,0,0,1-5.32-3.32q-8.15-7.43-16.58-14.55c-2.55-2.16-4.87-4.58-7.4-6.79-4.38-3.82-8.56-7.87-12.86-11.8-7.12-6.51-14-13.31-20.91-20-6-5.78-12-11.54-17.85-17.4-4.88-4.85-9.74-9.73-14.53-14.68-3.12-3.21-6.26-6.43-9.47-9.56-4-3.87-7.78-7.89-11.61-11.88-3-3.1-5.81-6.32-8.82-9.38-7.57-7.71-14.62-15.9-21.92-23.86-5.94-6.48-11.66-13.17-17.27-19.94a28.56,28.56,0,0,1-6-14.08,195,195,0,0,1-2-25.1c-.13-5.34-.77-10.67-1-16-.49-10.71-.32-21.43-.71-32.13-.84-23.26-.19-46.52-.32-69.78-.08-12.62.37-25.26.63-37.88.15-7.45.58-14.89,1.15-22.31.29-3.63.19-7.27.5-10.88.49-5.79.63-11.69,1.9-17.32a34.69,34.69,0,0,1,8.47-16.3c4.79-5.16,9.41-10.52,14.05-15.85,6.08-7,12.39-13.77,18.7-20.56q10.06-10.82,20.3-21.47c3.9-4.06,7.94-8,11.89-12s8.1-8.36,12.22-12.47c4.53-4.51,9.15-8.92,13.72-13.39,3.42-3.34,6.8-6.73,10.24-10,7.78-7.49,15.76-14.75,23.63-22.13,8.44-7.91,17.18-15.47,25.78-23.2,4-3.61,7.88-7.5,12.94-9.87a39.5,39.5,0,0,1,14.18-3.83c6.58-.45,13.16-.64,19.73-1.13,9.15-.69,18.32-.9,27.48-1.22,6.51-.22,13-.17,19.51-.32a9.29,9.29,0,0,0,3.95-.46ZM816.69,520.25c-.24-13.46-.48-27.81-1.29-42.15-.78-13.75-.78-27.53-2.08-41.26A29.48,29.48,0,0,0,806,420.08c-5.73-6.8-11.73-13.35-17.68-19.95-4.09-4.54-8.05-9.21-12.31-13.6s-8.2-8.57-12.26-12.89c-3.73-4-7.37-8-11.15-11.94s-7.41-7.45-11.11-11.17c-6.4-6.43-12.66-13-19.26-19.24-3.88-3.66-7.79-7.33-11.65-11s-8-7.63-12-11.47c-7.36-7.09-15-13.87-22.61-20.73-5.73-5.2-11.55-10.3-17.52-15.21A24.71,24.71,0,0,0,645.28,267c-9.89-1-19.85-1.22-29.77-1.91-9.64-.67-19.32-.75-29-1-13.5-.27-27-.5-40.5-.57-19.24-.11-38.48.49-57.72.73-14.74.18-29.44,1.14-44.16,1.88a73.85,73.85,0,0,0-11.4,1.11,30.42,30.42,0,0,0-13.36,6.94c-10.68,9-20.94,18.46-31.19,27.94-6.87,6.36-13.8,12.64-20.47,19.22-4.82,4.76-9.82,9.33-14.58,14.17-5.29,5.38-10.61,10.74-16,16-7.39,7.22-14.45,14.76-21.61,22.2q-9.35,9.69-18.33,19.74c-6,6.76-12.15,13.48-18.22,20.23-1.28,1.42-2.46,2.93-3.76,4.33-5.25,5.62-8.71,12.11-9.14,19.89-.82,15-1.89,30-2.25,45q-.6,24.42-.82,48.82c-.14,17.43.13,34.86.5,52.28.14,6.8.46,13.59.51,20.38.06,6.62.9,13.17,1.07,19.78s.61,13.19,1.11,19.77a28.75,28.75,0,0,0,6.23,15.78c3.65,4.65,7.78,8.93,11.65,13.41,10,11.51,20.36,22.59,30.81,33.64,7,7.37,14.08,14.59,21.21,21.79,11.58,11.68,23.2,23.31,35.13,34.64,8.81,8.36,17.66,16.68,26.7,24.79,7.25,6.51,14.47,13.08,21.9,19.4a26.76,26.76,0,0,0,14,6.66c4.56.58,9.16.61,13.72,1.1,9.62,1,19.31.79,29,1.1,10.81.35,21.6,1.08,32.42,1.17,23.36.21,46.73.37,70.09-.22,9.47-.24,18.92-1,28.39-1.13q17.5-.35,35-1.64a28.5,28.5,0,0,0,15.64-5.66c8.37-6.39,16-13.69,23.76-20.69,7.19-6.44,14.23-13.06,21.2-19.74,6.13-5.89,12.34-11.69,18.43-17.62,5.27-5.12,10.4-10.39,15.66-15.52,3.21-3.14,6.4-6.3,9.51-9.53,6.88-7.17,13.88-14.22,20.61-21.54C774.8,696,782.66,688,790,679.57c5.39-6.2,11.09-12.13,16.31-18.48,3.19-3.89,6-8,6.59-13.13q.79-6.69,1.23-13.43c.83-13.28.94-26.58,1.69-39.86.81-14.34.89-28.71.87-43.07C816.68,541.45,816.69,531.3,816.69,520.25Z"/><path class="cls-2" d="M341.88,513.18c-.47,19.28-.59,38.5-.16,57.71s.89,38.65,1.62,58c.73,19.14,1.83,38.27,2.76,57.46a1.93,1.93,0,0,1-1.58-.75c-4-4.77-8.43-9.14-12.81-13.56-7.14-7.2-14-14.69-20.56-22.39-2.43-2.83-5.13-5.41-7.26-8.5a9.79,9.79,0,0,1-1.84-4.74c-.85-8.86-1.13-17.75-1.75-26.62-1.89-26.87-1.4-53.77-1.28-80.67.06-13,.17-26,.78-39,.43-9.37,1.05-18.73,1.29-28.09.15-5.85.73-11.66.94-17.49a7.51,7.51,0,0,1,1.61-4.19c2.66-3.77,6-6.95,9-10.4,4.92-5.6,10-11,15-16.62,1.28-1.44,2.82-2.56,4.14-3.94a1.26,1.26,0,0,1,2.17.24c3.52,5.46,7.48,10.64,10.58,16.34,2.2,4,4.9,7.76,7.1,11.79,6.23,11.41,13.23,22.37,19.55,33.73,2.73,4.92,5.87,9.61,8.42,14.65a4,4,0,0,0,2.23,2,51.26,51.26,0,0,0,2.21-5.76c1.82-7.27,5.2-13.95,7.67-21,1.5-4.22,2.68-8.56,4.53-12.64,2.8-6.19,4.51-12.8,7.22-19,3.11-7.09,5.39-14.49,8.48-21.57,1.91-4.38,4-8.7,5.49-13.23,2.54-7.82,6.65-15,9.12-22.84A76.67,76.67,0,0,1,429.7,365c2.07-4.82,4.05-9.69,6.16-14.5,1.65-3.76,3.68-7.36,5.12-11.2,2-5.47,5.07-10.49,7.19-15.91,2.77-7.13,6.74-13.7,9.62-20.77.38-.92,1.08-1,1.83-1.05q3.44-.24,6.87-.4c16.83-.81,33.66-1.54,50.51-1.44h.86c2.61.14,2.69.14,2.73,2.69q.13,8.61.13,17.24,0,79.27,0,158.55,0,88.49,0,177,0,62,.11,124.05c0,2,0,2.44-2.39,2.4-9.76-.16-19.51-.1-29.27-.69-9.45-.58-18.92-.85-28.39-1.25-2.45-.1-2.41-.08-2.41-2.56-.05-13.31-.17-26.62-.18-39.93q0-92.54-.06-185.05c0-25.09-.14-50.19,0-75.28.11-15.42.06-30.83.14-46.25,0-1.63.13-3.25.19-4.88,0-.57.06-1.15,0-1.72s-.15-1.11-.9-1.25-.92.35-1.12.92c-.29.81-.7,1.57-1,2.37-2,5.16-4.15,10.25-6.05,15.46a68.46,68.46,0,0,1-4,9.79c-1.79,3.24-2.79,6.86-4.05,10.36-1.35,3.76-3.26,7.32-4.74,11-2,5-3.8,10.16-5.78,15.22-1.42,3.64-3.29,7.14-4.43,10.86C424,507,420.13,514.72,417.62,523c-1.56,5.09-3.8,10-5.77,14.93-2.42,6.12-4.15,12.49-6.65,18.6a112.53,112.53,0,0,0-4.48,12.09c-1.82,6.55-4.91,12.62-7,19.08a71.48,71.48,0,0,1-2.43,7.33c-.26.6-.28,1.48-1,1.58s-1-.69-1.42-1.24c-2.2-3.14-3.69-6.68-5.62-10-1.83-3.13-3.74-6.23-5.34-9.47-2.93-5.89-6.66-11.3-9.59-17.2-2-4-4.74-7.62-6.77-11.6-2.72-5.36-6.05-10.37-8.82-15.7-2.07-4-4.51-7.73-6.74-11.61C344.74,517.56,343.8,515.15,341.88,513.18Z"/><path class="cls-2" d="M621.37,345.17c-.66,2.27-.66,386.07-.08,390.63a24.76,24.76,0,0,0,3.65-2.62q8.55-8.05,17.19-16c7.23-6.67,14.28-13.54,21.45-20.28,12.34-11.6,24.2-23.66,36-35.8,9.19-9.48,18.1-19.22,27.14-28.84,2.42-2.58,4.89-5.1,7.2-7.79a8.4,8.4,0,0,0,2.1-5.17c.29-4.39.8-8.77,1-13.16.32-7.27.49-14.54.68-21.81.06-2.31,0-2.33-2.31-2.32-10.83,0-21.65,0-32.47,0-1.62,0-3.67.43-4.73-.37s-.37-3-.44-4.65c-.5-11.49-.07-23-.25-34.47,0-2.28,0-2.32,2.43-2.32h75.57a14.93,14.93,0,0,1,5.23.51c0,4.56.08,9.15,0,13.73-.33,16.56-.57,33.12-1.12,49.67-.34,10.51-.52,21-1.63,31.52a9.81,9.81,0,0,1-2.21,5.46c-6.17,7.43-12.68,14.55-19.17,21.7-8.67,9.54-17.6,18.84-26.57,28.1-7.11,7.34-14.34,14.57-21.56,21.81q-7,7-14.1,13.88-9.69,9.36-19.48,18.6c-7.29,6.87-14.51,13.83-22,20.44-4.29,3.78-8.44,7.73-12.87,11.35a7.68,7.68,0,0,1-4.19,1.59c-13.13,1.52-26.31,2.15-39.5,2.68-11.29.45-22.58.4-33.88.51-2.54,0-2.54,0-2.6-2.71-.46-20.11-.23-40.23-.24-60.34q-.07-163.65,0-327.32,0-33,.12-66.09c0-7.75.16-15.51.27-23.26,0-2.28.09-2.33,2.43-2.27,17.41.47,34.83.52,52.2,1.93,6.3.5,12.61.68,18.91,1.13a16.35,16.35,0,0,1,10,4.43c8.88,7.86,17.69,15.79,26.33,23.93,7.16,6.75,14.15,13.69,21.33,20.42,9,8.44,17.51,17.37,26.38,25.92,10,9.64,19.36,19.88,28.95,29.9,7.73,8.08,15.17,16.45,22.51,24.9a109.12,109.12,0,0,1,7.28,8.48,7.57,7.57,0,0,1,1.54,3.64c.55,5.53,1.13,11,1.35,16.59.26,6.5.6,13,.68,19.5,0,3.59.72,3.55-3.48,3.51-8.81-.09-17.62,0-26.43.05-3.72,0-7.45-.32-11.16.08-1.12.11-1.28-.54-1.32-1.39-.15-3.15-.29-6.3-.47-9.45-.21-3.53-.46-7.06-.68-10.6a8.05,8.05,0,0,0-2.15-5.12c-7.72-8.61-15.48-17.17-23.51-25.5-7.09-7.36-13.91-15-21-22.37q-7.61-8-15.54-15.65c-8.32-8-16.76-15.93-25.19-23.84q-11.6-10.87-23.29-21.65C624.33,347.42,622.92,346.42,621.37,345.17Z"/></g></svg>