<svg xmlns="http://www.w3.org/2000/svg" viewBox="0 0 1080 1080"><defs><style>.cls-1{fill:#f6f6f6;}.cls-2{fill:#c3c3c3;}</style></defs><g id="Capa_2" data-name="Capa 2"><g id="background"><rect class="cls-1" x="1079" width="1" height="1"/><rect class="cls-1" width="1" height="1"/><rect class="cls-1" width="1" height="1"/><rect class="cls-1" x="1079" width="1" height="1"/><rect class="cls-1" x="1079" y="1079" width="1" height="1"/><rect class="cls-1" x="1079" y="1079" width="1" height="1"/><rect class="cls-1" y="1079" width="1" height="1"/><rect class="cls-1" y="1079" width="1" height="1"/><rect class="cls-1" x="1079" y="1079" width="1" height="1"/><rect class="cls-1" x="1079" y="1079" width="1" height="1"/></g><g id="Capa_1-2" data-name="Capa 1"><path class="cls-2" d="M965,439.89H696.91a186.7,186.7,0,0,0-315.26,0H115l27.13,27.18H367.3a185.46,185.46,0,0,0-9.91,30.61H172.67l27.13,27.18H353.18c-.4,5-.66,10-.66,15.14s.27,10.36.69,15.47H230.35l27.13,27.18h100a185.67,185.67,0,0,0,10,30.61H288l27.13,27.18h66.71a186.69,186.69,0,0,0,314.83,0h68.16L792,613.26H711.11a185.67,185.67,0,0,0,10-30.61H822.52l27.13-27.18H725.35c.42-5.11.69-10.26.69-15.47s-.26-10.14-.66-15.14H880.2l27.13-27.18H721.16a185.43,185.43,0,0,0-9.9-30.61H937.87ZM540,699.77A159.46,159.46,0,1,1,699.46,540.31,159.46,159.46,0,0,1,540,699.77Z"/><polygon class="cls-2" points="458.01 563.49 436.35 498 411.81 498 411.81 582.13 429.73 582.13 429.73 519.75 448.63 582.13 467.2 582.13 486.16 519.75 486.16 582.13 504.08 582.13 504.08 498 479.47 498 458.01 563.49"/><polygon class="cls-2" points="614.11 559.62 580.39 498 560.57 498 560.57 582.13 577.22 582.13 577.22 523.17 610.92 582.63 630.97 582.13 630.97 498 614.32 498 614.11 559.62"/><rect class="cls-2" x="523.62" y="497.94" width="17.06" height="84.12"/><rect class="cls-2" x="650.4" y="497.94" width="17.06" height="84.12"/></g></g></svg>