<svg xmlns="http://www.w3.org/2000/svg" viewBox="0 0 1080 1080"><defs><style>.cls-1{fill:#f6f6f6;}.cls-2{fill:#c3c3c3;}</style></defs><g id="background"><rect class="cls-1" y="1079" width="1" height="1"/><rect class="cls-1" width="1" height="1"/><rect class="cls-1" y="1079" width="1" height="1"/><rect class="cls-1" x="1079" width="1" height="1"/><rect class="cls-1" x="1079" y="1079" width="1" height="1"/><rect class="cls-1" x="1079" y="1079" width="1" height="1"/></g><g id="Capa_1" data-name="Capa 1"><path class="cls-2" d="M540.11,190.76c12.74,21.62,25.11,42.65,37.51,63.67Q619.29,325,661,395.62c1.54,2.6,1.68,4.46.07,7.18q-37.86,63.81-75.47,127.76l-44.27,75.12c-.33.55-.74,1.06-1.4,2-4-6.64-7.83-13-11.62-19.37q-33.84-56.9-67.64-113.82c-14-23.5-27.89-47-42-70.46a5.49,5.49,0,0,1,0-6.48q46.8-79.67,93.48-159.41Q525,216.4,537.68,194.66C538.34,193.53,539.06,192.44,540.11,190.76Z"/><path class="cls-2" d="M539.72,608.33c-4.64,7.94-8.92,15.26-13.21,22.57q-34.68,59-69.36,117.91-18,30.5-36,60.91a5.44,5.44,0,0,1-3.91,2.35q-117.88.15-235.77.07a11.68,11.68,0,0,1-1.42-.28c.87-1.56,1.62-3,2.44-4.37q40.51-69,81-138c11.48-19.54,23-39,34.48-58.6a5.2,5.2,0,0,1,5.1-2.93q116.47.09,233,.06C536.94,608.05,537.86,608.19,539.72,608.33Z"/><path class="cls-2" d="M540.4,608h5.18q115.08,0,230.15-.1c3.65,0,5.42,1.29,7.14,4.22q40.86,69.71,81.9,139.3,17.15,29.12,34.28,58.25a21.05,21.05,0,0,1,1,2.21c-1.49.1-2.73.24-4,.24q-116.07,0-232.15.07a5.64,5.64,0,0,1-5.63-3.24q-38.31-65.41-76.8-130.71-19.77-33.6-39.56-67.21C541.45,610.31,541.11,609.49,540.4,608Z"/></g></svg>