<svg xmlns="http://www.w3.org/2000/svg" viewBox="0 0 1080 1080"><defs><style>.cls-1{fill:#f6f6f6;}.cls-2{fill:#c3c3c3;}</style></defs><g id="background"><rect class="cls-1" y="1079" width="1" height="1"/><rect class="cls-1" width="1" height="1"/><rect class="cls-1" y="1079" width="1" height="1"/><rect class="cls-1" x="1079" width="1" height="1"/><rect class="cls-1" x="1079" y="1079" width="1" height="1"/><rect class="cls-1" x="1079" y="1079" width="1" height="1"/></g><g id="Capa_1" data-name="Capa 1"><g id="Layer_1" data-name="Layer 1"><g id="Nissan_Badge" data-name="Nissan Badge"><path class="cls-2" d="M600.34,564.24a32.41,32.41,0,0,1-3.9.14H521.75V581.9H598.4c.58,0,5.11,0,6-.14,15.62-1.46,22.77-14.46,22.77-25.84,0-11.68-7.44-24.24-21.61-25.55a56,56,0,0,0-6.13-.3H550.25a24.78,24.78,0,0,1-5.44-.43,7.19,7.19,0,0,1-5.3-7.3,7.35,7.35,0,0,1,5.44-7.17,20.83,20.83,0,0,1,5.16-.43H621V498H548.45a47.93,47.93,0,0,0-7.22.44c-12.41,1.73-21.07,11.68-21.07,24.38,0,10.39,6.5,22.51,20.78,24.53,2.6.29,6.21.29,7.79.29h47.71a23.71,23.71,0,0,1,3.47.15c5.5.72,7.38,4.77,7.38,8.39A8.1,8.1,0,0,1,600.34,564.24Z"/><path class="cls-2" d="M458.72,564.24a31.16,31.16,0,0,1-3.76.14H380.13V581.9h76.65c.58,0,5.11,0,6-.14,15.62-1.46,22.77-14.46,22.77-25.84,0-11.68-7.44-24.24-21.61-25.55a56,56,0,0,0-6.13-.3H407.9a24.78,24.78,0,0,1-5.44-.43,7.19,7.19,0,0,1-5.3-7.3,7.35,7.35,0,0,1,5.44-7.17,20.83,20.83,0,0,1,5.16-.43h70.92V498H406.1a47.93,47.93,0,0,0-7.22.44c-12.41,1.73-21.07,11.68-21.07,24.38,0,10.39,6.5,22.51,20.78,24.53,2.6.29,6.21.29,7.79.29h48.44a23.71,23.71,0,0,1,3.47.15c5.5.72,7.38,4.77,7.38,8.39a8,8,0,0,1-6.95,8.11Z"/><rect class="cls-2" x="322.46" y="497.22" width="18.98" height="84.68"/><polygon class="cls-2" points="280.85 581.9 280.85 497.22 261.87 497.22 261.87 560.41 199.18 497.22 175 497.22 175 581.9 193.98 581.9 193.98 518.43 257.11 581.9 280.85 581.9"/><polygon class="cls-2" points="886.02 497.22 886.02 560.41 822.31 497.22 799.15 497.22 799.15 581.9 818.13 581.9 818.13 518.43 881.64 581.9 905 581.9 905 497.22 886.02 497.22"/><path class="cls-2" d="M701.4,497.22,648.6,581.9h22.63l9.41-14.6h61.85l9.41,14.6h22.49l-52.8-84.68Zm31.39,54H690.35l21.29-34.18Z"/><path class="cls-2" d="M279.72,449.11c37.95-110.8,142.52-185.25,260.43-185.25s222.62,74.45,260.42,185.25l.29.66h83V440l-34.45-4.06c-21.29-2.46-25.78-11.88-31.57-23.75l-1.45-2.9c-49.83-106-158.31-174.68-276.21-174.68s-226.39,68.66-276.22,175l-1.45,2.9c-5.79,11.87-10.28,21.29-31.57,23.75l-34.74,4.06v9.49h83.12Z"/><path class="cls-2" d="M800.86,630.08l-.29.66c-38,110.81-142.52,185.11-260.42,185.11S317.52,741.4,279.72,630.6l-.29-1.25H196.17v10.37l34.88,4.06c21.3,2.46,25.79,11.88,31.58,23.75l1.45,2.9c49.82,106.31,158.31,175,276.21,175S766.68,776.74,816.5,670.57l1.45-2.89c5.8-11.88,10.29-21.29,31.58-23.76l34.3-4v-9.79Z"/></g></g></g></svg>