<svg xmlns="http://www.w3.org/2000/svg" viewBox="0 0 1080 1080"><defs><style>.cls-1{fill:#f6f6f6;}.cls-2{fill:#c3c3c3;}</style></defs><g id="background"><rect class="cls-1" y="1079" width="1" height="1"/><rect class="cls-1" width="1" height="1"/><rect class="cls-1" y="1079" width="1" height="1"/><rect class="cls-1" x="1079" width="1" height="1"/><rect class="cls-1" x="1079" y="1079" width="1" height="1"/><rect class="cls-1" x="1079" y="1079" width="1" height="1"/></g><g id="Capa_1" data-name="Capa 1"><path class="cls-2" d="M260.36,517.36c-3-.26-6.18-.6-9.36-.8q-25.56-1.63-51.15-3.21c-1.44-.09-2.9,0-4.35-.15-4.71-.36-7-4.55-4.38-8.4,5-7.25,10.23-14.33,15.48-21.4,2.27-3.06,5.59-4.11,9.31-4.11,15.66,0,31.32-.09,47,.08,2.89,0,3.89-1,4.5-3.61a271.77,271.77,0,0,1,38.45-89.45,278.45,278.45,0,0,1,100.64-92.45,274.19,274.19,0,0,1,94.82-31.08c48.2-6.55,95.08-1.4,140.32,16.46C704.35,304,752.14,346.13,785.1,404.87A268.9,268.9,0,0,1,817,500.37a308.19,308.19,0,0,1,2.82,47.69c-.08,4.74-.57,9.47-.89,14.47,5.19.44,10.21,1,15.23,1.28,16.85,1.1,33.7,2.1,50.54,3.2,4.54.3,6.77,4.48,4.19,8.21-5,7.24-10.23,14.34-15.48,21.42-2.27,3.06-5.55,4-9.31,4-15.66-.07-31.32.06-47-.11-3,0-4.12.85-4.77,3.7a269.94,269.94,0,0,1-31.2,77.84A279.58,279.58,0,0,1,520,819.24a275.21,275.21,0,0,1-98.36-25.43,280.79,280.79,0,0,1-141.84-150,274.33,274.33,0,0,1-17.83-69.58,247.46,247.46,0,0,1-1.59-48.37C260.54,523.13,260.36,520.35,260.36,517.36ZM500.43,533l-.19-.77c-1-.11-2-.27-3-.33q-17.83-1.12-35.66-2.22c-11.26-.69-22.53-1.32-33.8-2q-15.81-.95-31.62-1.93c-11.68-.74-23.35-1.53-35-2.27-8.37-.53-16.75-1-25.12-1.51q-16.44-1.05-32.86-2.19c-1.92-.13-3.17.21-3.16,2.59.06,11.08-.29,22.16.07,33.22.63,19.38,4.61,38.21,10.58,56.59,14.3,44.07,39.11,81.31,74.61,111,49.44,41.36,106.44,60.68,171.08,56.59A228.49,228.49,0,0,0,615.56,768c41-13.9,75.69-37.28,104.33-69.58a239.2,239.2,0,0,0,51.56-94c.32-1.12.46-2.29.74-3.74H420.82c-1.45,0-3.05.32-4.32-.17s-3.07-1.66-3.5-2.91.29-3.11.94-4.51c.38-.82,1.54-1.31,2.39-1.9L479,547.83Q489.73,540.43,500.43,533Zm79,13.75.15.68c1.9.16,3.81.35,5.72.47l40.92,2.59q16.27,1,32.54,2.1l33.78,2.15,33.16,2.12q13,.82,26,1.62c8.37.52,16.75,1,25.11,1.55,1.94.13,2.9-.48,2.88-2.56-.17-13.56.58-27.19-.6-40.65a226.72,226.72,0,0,0-28.78-92.1c-24.41-43.49-58.81-76.79-103.29-99.4Q585.4,294,516.39,300.74a231.28,231.28,0,0,0-58.22,13.44A244.55,244.55,0,0,0,310.76,467.52c-1.23,3.77-2.24,7.6-3.45,11.77H659.78c1.14,0,2.47-.35,3.38.11,1.54.79,3.55,1.87,4,3.25s-.78,3.3-1.51,4.87c-.32.67-1.25,1.06-1.93,1.53l-70,47.93Z"/></g></svg>