<svg xmlns="http://www.w3.org/2000/svg" viewBox="0 0 1080 1080"><defs><style>.cls-1{fill:#f6f6f6;}.cls-2{fill:#c3c3c3;}</style></defs><g id="background"><rect class="cls-1" y="1079" width="1" height="1"/><rect class="cls-1" width="1" height="1"/><rect class="cls-1" y="1079" width="1" height="1"/><rect class="cls-1" x="1079" width="1" height="1"/><rect class="cls-1" x="1079" y="1079" width="1" height="1"/><rect class="cls-1" x="1079" y="1079" width="1" height="1"/></g><g id="Capa_1" data-name="Capa 1"><path class="cls-2" d="M472.92,425.68c3.94-6,8.19-11.47,11.42-17.52,3.87-7.25,7-14.92,10.21-22.5,2.45-5.74,1.2-7.62-5.11-8a72.62,72.62,0,0,0-9.33.07c-4.83.33-8.14-1.59-9.91-6.1-1.85-4.72-3.68-9.45-5.66-14.54,21.91-2.95,45.13,4.62,65.55-12.27-8.55-.44-15.57-.6-22.56-1.22q-21.28-1.86-42.53-4.23c-1.51-.16-2.88-1.67-4.31-2.55,1.36-1,2.59-2.32,4.1-3,11.7-4.9,24.08-3.49,36.3-4,9-.37,18-2,27-3.21,1.7-.24,3.27-1.44,4.82-2.16-4-16-23.74-24.06-39.28-16.37-2.28,1.13-4.77,2.36-6.38,4.21-9,10.29-20.66,6.77-31.33,5.67-7.38-.77-18.27-23.52-15-30.39,1.48-3.09,5.47-6,8.9-7,9.29-2.72,19-4,28.33-6.61,6.21-1.76,12.13-4.7,18-7.49,6.25-3,12.06-7,18.46-9.46,13.64-5.33,27.55-9.95,41.33-14.92,8.62-3.12,17.33-2.47,26-.57,15,3.3,30.11,6.41,44.93,10.46a38.34,38.34,0,0,1,15,8.37A127.22,127.22,0,0,1,671.51,301c7.65,16.23,15.52,32.36,23.31,48.52.61,1.27,1.33,2.5,2.68,5,.71-4,1.19-6.75,1.69-9.49,7.14-38.87,47.26-61.69,83.57-47.53,23.84,9.29,38.19,36.05,33.31,63.38-1.7,9.5-4.7,18.82-7.75,28A34.09,34.09,0,0,0,809.69,415,220.17,220.17,0,0,1,818,437.09a6.48,6.48,0,0,1-1,5.43c-.78.89-3.59.87-5,.21-27.08-12.6-47.4-31.17-52.93-62.06-2.75-15.35,2.06-29.34,9.14-42.69,5.34-10.06,3.75-13.73-7.54-16.25-10.09-2.26-18,1.79-24.16,9.45-9.88,12.32-12.94,26.43-8,41.36,12.44,37.52,25.42,74.86,38.25,112.25,4.51,13.15,9.83,26.07,13.67,39.41,12.05,41.88-6.69,75.35-48.52,87.5-8.93,2.6-17.94,5-27.58,7.62l4.25,10.23c5.4,13,10.93,26,16.18,39.05,5.7,14.19,16.58,20.89,31.31,22,4.54.35,9.13.05,14.74.05v6.42c0,28.75.3,57.51-.1,86.26a108.17,108.17,0,0,0,7.49,41.29,20,20,0,0,1,.9,2.6c1.62,6.57-.85,9.59-7.61,8.64-9.06-1.27-18.1-2.76-27.08-4.54-21.2-4.2-41.6-1.27-61.28,7-6.22,2.61-11.29,2.13-17-1.35-14.75-8.92-30.68-14.66-48.8-15.5.31-2.22.53-4.12.86-6,1.35-7.75,3-15.46,4.08-23.25,2.46-17.54,11.87-26.4,29.55-27a101.62,101.62,0,0,1,13.13.82c3.28.31,6.52,1.14,9.8,1.31,8.74.46,16.63-1.71,21.28-9.73,4.45-7.7,3.33-15.73-1.36-22.91-5.06-7.77-13-11.23-21.87-9.52-9.68,1.86-17.66-.77-25.36-6-24.1-16.34-48.26-32.58-72.25-49.08-3.58-2.46-5.66-2.33-8.71.75q-45.35,45.93-90.92,91.63c-4.65,4.68-9.37,9.3-13.68,14.28C451.73,788.44,449,801.55,455,816.1a17.09,17.09,0,0,1,1.12,3.65c1.5,9.18-1.16,11.56-10,9-20.67-5.94-41.57-10.92-63.26-9.34-9,.66-18,3-26.88,5.08-5.27,1.25-9.24.77-13.38-3.31-11.92-11.74-26.18-19.88-42-25.27-1.51-.51-3-1.15-4.45-1.73,6.39-12.71,12.05-25.41,19-37.38,7.51-13,20.45-17.44,36.2-13.82,9.27,2.13,18.38,5.12,27.73,6.73,15,2.58,25.68-4.4,28.21-17.57,1.29-6.73-.89-12.52-4.61-18.09-1-1.53-1.39-4.58-.56-6.13,20.45-37.88,41.19-75.59,68.09-109.45,6.59-8.29,13.62-16.22,20.81-24.75q-10.26-12.47-20.51-24.9c-6.42-7.76-12.93-15.45-19.28-23.26a15.06,15.06,0,0,0-12.88-5.93c-18.86.38-37.73.55-56.59.69-4.53,0-7.34,1.81-9.51,5.92-7.8,14.87-20.51,21.17-38,20.38,0-3.2-.31-6.27.07-9.24.66-5.12-1.85-6.24-6.31-6.18A31.57,31.57,0,0,0,303,543.14c-2.8,3.38-5.74,3.69-8.34,1.19a89.7,89.7,0,0,1-12.51-14.21c-3.05-4.5-5.15-9.16-12.42-4.76.12-18.15,1.14-34.8,13.51-48.21,5.37-5.83,12.59-7.91,20.35-8.22q42.56-1.68,85.1-3.39c4-.16,7.91-.74,13-1.23-4.33-5.56-8-10.27-11.67-14.95-12.26-15.52-24.59-31-36.76-46.57-1.92-2.47-3.63-3.24-6.89-2.62-17.93,3.39-35.61,1.94-54.07-3.64l11.88-10.28c-4.81-11.73-15.83-18.41-29-17.79-10.79.51-14.94-3.48-12.9-14.38,1.13-6,4.78-11.55,7.58-18l-6.71-2.88c2.3-6.22,6.71-9.75,12.65-11.35,23.55-6.37,46.87-5.46,69.53,3.55,6,2.38,11.43,6.53,16.51,10.63q53.91,43.44,107.55,87.19C470.25,423.92,471.17,424.47,472.92,425.68Zm183.8,32.47a8.83,8.83,0,0,0-1.24,1.77c-5,17.22-10.29,34.37-14.79,51.73-.88,3.38.12,8.22,2.07,11.22,12,18.42,24.32,36.58,36.87,54.6a13.22,13.22,0,0,0,7.93,5.08c7.19,1.07,14.61,1.87,21.83,1.35,31.06-2.23,46.25-20.41,42.6-51.39-1.25-10.64-3.33-21.49-7.06-31.49-14.58-39.09-30-77.87-45.09-116.76a20.92,20.92,0,0,0-1.71-2.74l-25.69,82.75ZM514.13,286.5c9.69-3.68,18.94-7,28-10.8,2-.87,3.27-3.68,4.87-5.59-2.24-1.21-4.46-3.37-6.73-3.43-5.8-.16-11.62.55-17.43,1-11.65,1-13.69,4-10.21,15.08C512.9,283.81,513.41,284.77,514.13,286.5Z"/></g></svg>