<svg xmlns="http://www.w3.org/2000/svg" viewBox="0 0 1080 1080"><defs><style>.cls-1{fill:#f6f6f6;}.cls-2{fill:#c3c3c3;}</style></defs><g id="background"><rect class="cls-1" y="1079" width="1" height="1"/><rect class="cls-1" width="1" height="1"/><rect class="cls-1" y="1079" width="1" height="1"/><rect class="cls-1" x="1079" width="1" height="1"/><rect class="cls-1" x="1079" y="1079" width="1" height="1"/><rect class="cls-1" x="1079" y="1079" width="1" height="1"/></g><g id="Capa_1" data-name="Capa 1"><path class="cls-2" d="M539.1,210.51a752.76,752.76,0,0,0-172.83,21.06,663.19,663.19,0,0,0-81.92,26.71l-1.54.77s3.33,199,5.65,297.64A278,278,0,0,0,304.38,642,416.5,416.5,0,0,0,348.81,730a355.5,355.5,0,0,0,101.95,99.64,422.92,422.92,0,0,0,56,28.25c6.42,2.82,12.07,5.39,17,6.93A97.39,97.39,0,0,0,539.87,870a147.66,147.66,0,0,0,16.18-4.88c5.39-1.8,10.79-4.37,17.21-6.93a307.39,307.39,0,0,0,88.85-52.39,353.37,353.37,0,0,0,69.08-76,399.28,399.28,0,0,0,44.43-88.08,270.57,270.57,0,0,0,15.92-85.26c2.32-98.88,5.65-297.65,5.65-297.65l-1.79-1a649.3,649.3,0,0,0-198.26-45.46c-19.26-1.54-36.72-2.31-56.24-2.31h-1.8Zm1,12.33h1.54a761.24,761.24,0,0,1,166.15,19.77A650.5,650.5,0,0,1,786.67,267l1.54.73-1.06,62.95h-.79a641.61,641.61,0,0,0-195.7-45.63c-18.47-1.84-36.93-2.64-55.39-3.16h5.12a760.9,760.9,0,0,0-166.16,20,628.78,628.78,0,0,0-79.1,24.9l-1-59.8,1.54-.49a654.86,654.86,0,0,1,191.06-42c17.46-1.22,35.44-2,53.42-1.71Zm-19.64,10.27c-1.28-1.76-2.57-1.25-3.59-.48a31,31,0,0,0-3.48,2.57v10.24l-.26,9.24a4.19,4.19,0,0,0,1.84,2.83c1,1,2.36,1,3.94,1.28h12.6l13.14.26,13.13.77a1.75,1.75,0,0,1,1.84,1.29v4.65a4.51,4.51,0,0,1,.13,2.83c-.25.77-1,1-2.57.48h-11.3l-6.16,2.56H523.57l-9.5-1.76-.51,8.22,13.35-.51,10.27-.81h8.22l7.45.81,5.13,1.76h6.29a6.82,6.82,0,0,0,3.85-1.32,4.93,4.93,0,0,0,1.8-3.17v-9.5l.26-9.51a6.4,6.4,0,0,0-1.55-2.9,5.52,5.52,0,0,0-3.08-1.32l-11.81-.53H525.23l-.77-.53a2.31,2.31,0,0,1-.77-1.58v-4s-.63-2.82-.12-4.11c.26-.51,1-1,2.31-2.6l28.77,2.57h4.11l11.16-.48v-8.22l-14.5-1.58-34.93,2.57Zm-25.84-1.4c-5,0-50.57,4.74-50.57,4.74v48.47l5.27-.53,5-.79v-15l28.45-3.16a9.31,9.31,0,0,1,8.69,5.26,79.93,79.93,0,0,1,3.43,9.49L506,279.12a23.53,23.53,0,0,0-2.37-8.69,30.13,30.13,0,0,0-7.11-9.22,11.94,11.94,0,0,0,5.26-7.11,119,119,0,0,0-.52-16.86C501,234.61,499.66,232,494.65,231.71Zm98,1.18A10.52,10.52,0,0,0,586,235.2a7.6,7.6,0,0,0-3.22,5.65v32.87l.14,2.31a4,4,0,0,0,1.28,2.06,3.09,3.09,0,0,0,3.34,1.25h3.08l21.57,3.12,22.34,2.31,2.18.77v-8.73L634,276l-3.08-1.83h-.25l-18.19-2.31-18.19-2.31a1,1,0,0,1-1-.51l-.25-1V242.87c0-1,0-1.8,1-2.31a9.3,9.3,0,0,1,2.27-1c4.05.26,37.89,4.88,43,5.65v-7.67l-29.91-3.34-16.7-1.28ZM647,240.34v2a55.37,55.37,0,0,1,.39,11.05c0,5.9-.25,11.81-.51,17.72l2.69,3.85v5.65l-3.2,5.65,2.31.51,1.28.51,2.31.26,3.6.51-1.16-3.33v-2.83l2.56-3.34v-9.24c-.37,0,.91-.29.91-.29h.77l11,2.86,16.95,3.33,1.29.52,1.79.51,3.21.52v15.92l-1.66,1.8,3.08.77,1.79.51,1.8.51,2.69.77v-4.62L703.46,274v-22.6l-5.51-1-7.33-1v7.19l2.57,4.62v7.93h-.89l-2.32-.74-1.79-.51-1.29-.26-1.28-.51-10.79-2.31-11-.81h-1l-2.82-2-2.83-.55h.12V241.62l-3.2-.8h-1.54l-1.8-.22-2.82-.26Zm-221.18.48-44,8.47c-3.37,1-7,3.6-7,7.19v31.59c0,3.34,4.15,7.7,7.52,6.93l44-8.47a10.19,10.19,0,0,0,7.51-8.73V246c-.78-3.59-4.15-5.65-8-5.13ZM486,242.51a4,4,0,0,1,3.29,1,2.75,2.75,0,0,1,1,2.28v5.31a5.75,5.75,0,0,1-1.52,4,5.94,5.94,0,0,1-4.05,1.78l-15.19,1.26-15.2,1.27V245.3L486,242.51Zm-68,6.86c4.21-.53,5.53,1.84,5.53,4.74v20.81a5.63,5.63,0,0,1-4.22,5.79l-31.87,6.06c-3.16.79-5-1.58-5-4.48V261.75c0-4.22,1.84-6.06,6.85-7.11C389,254.64,418,249.37,418,249.37Zm296.71,7.4-.53,25.89-.53,17.74,26.52,7.19c8.49,2.63,18,5.27,27.58,8.39l1.06.24,3.18,1a47.26,47.26,0,0,0,.53-8.63l-2.65-1h-.53l-.53-.24c-4.77-1.68-10.34-3.12-15.38-4.8l-16.18-4.79-3.44-1-3.72-1-4-1-2.13-.71v-4.32l.27-4.31,5.3,1.19L749.2,292l18.56,5.75,1.86.48,3.18,1v-9.6l-2.81-1-1.28-.25c-11-4.09-22-7.66-33.2-10.73l-2.55-.76-2.81-.77-1.28-.51-2.3-.77v-9.54l1.94,1,4.11,1,3.59,1.77h.26a213.18,213.18,0,0,1,29.79,8.76l2.31,1,4.23,1.28v-8.47l-3.2-1-2.06,1h.75C750.52,266.36,732.75,261.09,714.72,256.77Zm-353.57-.54h-3.21c-18.72,5.65-37.18,11.55-55.64,18.23l.54,23.63v22.08l12.84-4.11V299.88l47.88-14.38a4.24,4.24,0,0,0,2.41-1.8,4.15,4.15,0,0,0,1.34-2.31c0-.25.26-.77.26-1L367,261.62a6.32,6.32,0,0,0-3.21-4.62A4.62,4.62,0,0,0,361.15,256.23ZM349.2,266.5h.51a2.48,2.48,0,0,1,2.31,1,2.79,2.79,0,0,1,1,2.31l.51,6.67A5.85,5.85,0,0,1,352,279.6a6.12,6.12,0,0,1-2.82,1.54l-35.44,11.55-.26-13.87s13.87-5.64,19.52-7.7C338.67,269.32,349.2,266.5,349.2,266.5ZM534,292.73V420.58H451.71c-1,0-.52-.5.52-1.24A45.93,45.93,0,0,1,472,411.1c.78,0,1-.25,0-1.25a25.12,25.12,0,0,0-26-5.74c-8.07,2.74-14.58,8.48-17.44,16.22a.94.94,0,0,1-1,1l-13.28.5c-.78,0-1-1-1-1.5a18.72,18.72,0,0,1,9.63-12.73,30.77,30.77,0,0,1,14.58-5h.26c.52-.25.52-1,.26-1.5a10.32,10.32,0,0,0-3.12-2.5,22.54,22.54,0,0,0-14.06-2.24c-14.05,1.49-25.25,12.23-26.29,26-.26,1.5,0,2-1.3,2.5a115.65,115.65,0,0,1-12.24,2.25c-.52.24-1.3-1-1-1.5a32.06,32.06,0,0,1,6.77-14,27.7,27.7,0,0,1,9.37-7.74c1-.25,1.3-1,1-1.5-7-6-21.6.25-27.59,6.49a35.6,35.6,0,0,0-7.55,24.22v.65l-8.85,3.85-.51-1a26.78,26.78,0,0,1,4.11-18.75,15.67,15.67,0,0,1,7.82-6.93v-1c-4.49-4.11-16.81-1.28-20.66,2.31-8.74,8.74-8,16.95-8.48,30.31a6.77,6.77,0,0,1-1.54,3.34c-1.54,1-3.34,1.79-5.14,3h-.77l-1-3.3a10.61,10.61,0,0,0-14.64-3.85c-.52,0-.77.51-1,.77a9.8,9.8,0,0,0-1,13.87c.52.51.77,1,0,1a11.47,11.47,0,0,0-7.7,14.38c0,.26,0,.26.26.52a8.91,8.91,0,0,0,8.21,5.65,17.14,17.14,0,0,0,10-3.08c.51-.52,1-.26,1.54,0,3.08,5.13,9.76,6.67,14.38,3.59s6.42-7.7,3.34-15.41c-.26-.51.51-1,1-1.54a181.72,181.72,0,0,1,86.29-24.14c4.36.51,12.58,3.82,12.58,3.82h1.4v26.38l-.76.78a27.66,27.66,0,0,0-12,15.41c0,.52,0,.52-1,.52l-16.13,1.83c-.51,0-1-.79-1-1.05a52.23,52.23,0,0,1,20-25.33,2.33,2.33,0,0,0,0-1.83A10.72,10.72,0,0,0,425.9,455a28.81,28.81,0,0,0-24.32,10.19,38.33,38.33,0,0,0-8.45,24.28c0,.79,0,1.57-.77,1.83l-10.49,3.14a1.12,1.12,0,0,1-1-1.05,28.37,28.37,0,0,1,13.31-28.73c1.28-1-1-2.87-2.82-2.87A27.14,27.14,0,0,0,366,476.39a40.79,40.79,0,0,0-.77,22.19c0,.79.51,1.83,0,1.83L356,503.55c-.52.26-1,0-1-1.05a27.21,27.21,0,0,1-.51-13.58,25.37,25.37,0,0,1,7.42-13.58v-1a14.66,14.66,0,0,0-10.49-.79A20,20,0,0,0,338.61,484c-4.61,8.36-3.33,16.45,1.28,28.2,0,.79.51,1.57,0,2.09l-3.59,2.88c-.25.26-.76,0-1-.53-1.54-2.35-3.33-5.74-5.63-6.79a11.34,11.34,0,0,0-11.78,1.05,12.16,12.16,0,0,0-3.32,12.27l2.56,4.18c.25.26,0,1.05-.26,1.05-1.54,1.3-3.84,2.35-5.38,3.91a11.17,11.17,0,0,0,0,13.06,9.21,9.21,0,0,0,12.29,3.4,50.53,50.53,0,0,0,6.4-3.4c.77-.52,1-1.3,1.79-.78a13.12,13.12,0,0,0,6.15,4.18,10.78,10.78,0,0,0,9.72-1.57,8.8,8.8,0,0,0,4.61-9.4,30.24,30.24,0,0,0-3.84-7.58c-1-1-1-1,0-1.56a228.67,228.67,0,0,1,45.57-20.11,127.2,127.2,0,0,1,46.33-5.75h1v51.36H297.84L294,339.47l.52-.26A617.93,617.93,0,0,1,485.31,295.3C502,293.75,534,292.73,534,292.73Zm-82.37,22.53c-7.51-.52-14.76,1.81-21.24,6.22-7.77,5.44-12.69,21.24-14,27.2a1,1,0,0,1-1,1,167,167,0,0,0-19.17,3.37,28.27,28.27,0,0,1,7-16.32,115.26,115.26,0,0,1,14-11.14c.26-.26,0-1-.52-1.29a28.28,28.28,0,0,0-22,.25A31.83,31.83,0,0,0,376,348.68a57.14,57.14,0,0,0-1,11.65l-1,.52-19.68,6.48-1-.26a33,33,0,0,1,4.66-18.39c3.37-5.44,9.59-8.29,14-13,.52-.26,1-1,.52-1.29-11.4-4.66-22,0-31.09,10.36a40.58,40.58,0,0,0-5.7,31.35,2.32,2.32,0,0,1-.52,2.33l-6.21,2.33c-.52,0-1,0-1-.52-2.85-8.29-12.43-6.73-16.84-4.14a9.84,9.84,0,0,0-3.62,13.47c0,.78,0,1-.52,1.29a12.43,12.43,0,0,0-5.7,16.33,9.17,9.17,0,0,0,11.66,3.88l7-3.37h.78a.51.51,0,0,0,.52.52,10.51,10.51,0,0,0,15.28,1.56c3.11-2.34,4.4-2.59,5.7-6.74a10.53,10.53,0,0,0-2.33-8.29c-.52,0,0-1,0-1A269.25,269.25,0,0,1,456.26,364a64.71,64.71,0,0,1,39.89,15.29,2.66,2.66,0,0,0,1.81,1c.78-.26,1-1,1.3-1.55a18.15,18.15,0,0,0-5.7-18.91,35.42,35.42,0,0,0-16.84-9.59c-.52,0-.52-1-.26-1a23,23,0,0,1,9.33-6,88.47,88.47,0,0,1,16.84-1.3c.26,0,1-.52,1-1A16.47,16.47,0,0,0,489.16,330,37.45,37.45,0,0,0,470,332.87a32.08,32.08,0,0,0-14,15.29l-.78.52H438.38c-.26,0-.78,0-.78-.52a25.55,25.55,0,0,1,7-14.51A57.16,57.16,0,0,1,463.51,323a1.61,1.61,0,0,0,1-1.55,14.25,14.25,0,0,0-5.7-4.67,15.9,15.9,0,0,0-7.26-1.55Zm334.05,23.66v12.33h0Zm-241.4,20H785.52c0,19.55-.52,39.58-1,61.63H541.67l2.57-61.08ZM449,428.29H633.6c.52,0,.52.25.52.51V570.05a57.43,57.43,0,0,1-3.88,21.06,83.46,83.46,0,0,1-39.82,43.65,99,99,0,0,1-48.1,13.61,97.39,97.39,0,0,1-62.59-23.62,77,77,0,0,1-30.51-59.84V429.06C448.7,429.06,449,428.29,449,428.29Zm192.86.29v0Zm142.41.74-1,52.9h.25C783.72,482.22,784.23,429.32,784.23,429.32Zm-211.09,9.75a3.36,3.36,0,0,0-2.57,2.32l-6.42,19.77.26,1.54,1.28.77c1,0,1.54,0,1.8-1l1-3.33h9.25l1,3.33c0,.77,1,1,1.54,1a1.85,1.85,0,0,0,1.54-.77,2.17,2.17,0,0,0,0-1.8l-6.94-19.77a2.49,2.49,0,0,0-1.79-2.06Zm-57.53,2.06a1.21,1.21,0,0,0-1.8,1.06,1.67,1.67,0,0,0,1.8,1.51h2.95v19a1.92,1.92,0,0,0,1.93,1.54c.77,0,1.54-.77.63-1.54v-19h4.25a1.6,1.6,0,0,0,1.54-1.51c0-.77-.77-1.54-1.54-1.06Zm15.15,0c-.77-.48-1.54.29-1.54,1.06a1.6,1.6,0,0,0,1.54,1.51H534v19a1.94,1.94,0,0,0,1.94,1.54c.77,0,1.54-.77.63-1.54v-19h4.25a1.6,1.6,0,0,0,1.54-1.51c0-.77-.77-1.54-1.54-1.06Zm21.7.26a6.06,6.06,0,0,0-5.91,3.33,16,16,0,0,0-2.31,8.22,19.72,19.72,0,0,0,2,8.48,6.59,6.59,0,0,0,6.17,3.85,10.78,10.78,0,0,0,4.1-1,10.45,10.45,0,0,0,3.86-6.42,23,23,0,0,0,.51-4.11,2.13,2.13,0,0,0-2.31-2.31h-5.14c-1.28,0-1.54.51-1.54,1,0,1,.52,1.54,1.29,1.54h3.85v1a6.44,6.44,0,0,1-4.62,6.67,4.39,4.39,0,0,1-4.11-3.08,11.69,11.69,0,0,1-1.29-5.91,15.58,15.58,0,0,1,1.54-6.16,4.55,4.55,0,0,1,3.6-2.82,4.33,4.33,0,0,1,3.59,2.31,1.34,1.34,0,0,0,1.8.77c.77,0,1-1,1-1.54C558.1,442.67,555.28,441.13,552.46,441.39Zm53.81-.26a1.21,1.21,0,0,0-1.8,1.06,1.67,1.67,0,0,0,1.8,1.51H611v19c-1.41,1-.64,1.54.13,1.54s1.55-.77,2.44-1.54v-19H616a1.44,1.44,0,0,0,1.54-1.51c0-.77-.77-1.54-1.54-1.06Zm-135.86-.48a8.09,8.09,0,0,0-5.39,1.28,5.76,5.76,0,0,0-2.57,4.63,7.27,7.27,0,0,0,1.8,5.39,6,6,0,0,0,4.62,2.05,6.16,6.16,0,0,1,5.4,2.57c.51,1,0,2.31-.78,3.34a4.69,4.69,0,0,1-4.1,1.28,6.06,6.06,0,0,1-4.11-1.79,2.07,2.07,0,0,0-2.31-.77c-1,.51-1,1.79-1,2.31a7.76,7.76,0,0,0,7.19,3.59,8.49,8.49,0,0,0,6.93-2.31,6.75,6.75,0,0,0,1.8-4.88,5.33,5.33,0,0,0-2.31-4.88,19.49,19.49,0,0,0-7.45-2.31,2.9,2.9,0,0,1-2.31-3.34,3.52,3.52,0,0,1,3.85-2.82,5.63,5.63,0,0,1,4.37,1.8,1.55,1.55,0,0,0,2.57-1C476.58,443.73,475,440.65,470.41,440.65Zm10.79.48a.81.81,0,0,0-1.17,1.06v.26c-.37.77,1.17,1.25,1.17,1.25h4v19a1.1,1.1,0,0,0,.91,1.79c1,0,1.66-1.79,1.66-1.79v-19h3.47a1.26,1.26,0,0,0,1.55-1.25c0-.77-.52-1.8-1.29-1.32H481.2Zm106.57-.48-1.28.77c-.26.26-1.16,1-1.16,1v20s1.16,1.54,1.93,1.76h.26c1,0,.37-1.5.37-1.5V454h4.76l5.14,9.28a1.86,1.86,0,0,0,1.54,1,1.44,1.44,0,0,0,1.54-1.29,1.82,1.82,0,0,0-.77-1.54L596,456.54h.52c1.28-1.25,2.31-2,3.33-3.05a6,6,0,0,0,2.06-5.39,7,7,0,0,0-3.08-5.65,11,11,0,0,0-5.65-1.54C592.91,440.65,587.77,440.65,587.77,440.65Zm-90.65,0c-.77,0-1.68,1.54-1.68,1.54v12.55a17.47,17.47,0,0,0,1.52,7.19,6.79,6.79,0,0,0,6.31,2.82c2.28.52,4.55-.77,6.07-2.82a14.23,14.23,0,0,0,1.51-7.19V442.67a1.64,1.64,0,0,0-1.51-1.54h.11s-1.54.55-1.17,1.32v12.84a15.26,15.26,0,0,1-1.4,4.36,5,5,0,0,1-6.68,0c-.77-1.28.38-4.36.38-4.36V442.45s-2.43-1.8-3.46-1.8Zm91.94,3.05h4.36a6.84,6.84,0,0,1,3.34,1.32,3.72,3.72,0,0,1,1.29,3.08c0,2.82-2.31,4.88-5.14,3.3h-3.59l-.26-7.41Zm-16.18,0L577,456.54h-7.71ZM541.79,474c-2.39.76-4.78,1.26-6.63,2.53a16.8,16.8,0,0,0-4,4.57,3.58,3.58,0,0,1-1.06.76l-1.32.25-5,2.29a41.34,41.34,0,0,1-4.77,2.28,19.89,19.89,0,0,1-3.71,1c-2.92-.5-6.1-.25-7.16,2.79a1.39,1.39,0,0,0,1.06,1.52c.53.26.79.51,1.32.77l1.59.76c.53,0,.8,0,1.07.5l.26.51v.25c0,.51-.8,1-1.06,1a6.13,6.13,0,0,1-4.24-.76h-.21s-1.29-2-1.8-1.51a70.13,70.13,0,0,1-8.73,6.42l-1,1-.91.51v.77c.65.77-.12,1-.63,1-.51.26-1,.77-1.93,1.29v1.28a17.21,17.21,0,0,0,3.21,2H500l.63-1.25v1c-.63.51-.89,1-1.4,1.28-.52.77-.77,1.29,0,1.8a2.18,2.18,0,0,0,3.33-.26,6.25,6.25,0,0,0,1-1.8,1.63,1.63,0,0,1,1.54-1.28,25,25,0,0,1,4.11-1,3.69,3.69,0,0,1,2.83.77l1.4.77v.13a12.57,12.57,0,0,1-1,2.87l-.79,2.35-.78,2.09-1,1-4.18,3.4a30.64,30.64,0,0,0-5.74,7,9.29,9.29,0,0,0-1,2.35c-.52,2.35-1.05,5.22-3.39,3.39a36.48,36.48,0,0,1-7.05-4.7,6.73,6.73,0,0,1-2.35-2.34c-2.35-3.4-5.22,0-6.52,2.34a85.18,85.18,0,0,1-9.13,12.53,8.2,8.2,0,0,1-1.31,2.61,4.68,4.68,0,0,0-1,3.65,12.47,12.47,0,0,1-1.83,6.26,5.18,5.18,0,0,0-1.56,3.66v3.21a5.45,5.45,0,0,0,1.42,2h.77a61.51,61.51,0,0,0,5.39-3.82l.77-.51a1.61,1.61,0,0,0,.26-1.8l-.26-.51-.51-.52c-.26-.25-.14-1-.14-1V552.1l-.38-1.54a1.85,1.85,0,0,1,.77-1.54l2.83-2.31a9.94,9.94,0,0,0,1.92-4.11v-1.79c-.89-.78-.64-1-.12-1.8l1.79-2.31a7.13,7.13,0,0,1,3.34-2.83,8.09,8.09,0,0,1,5.4,1.8,25,25,0,0,1,3.08,6.42,21.67,21.67,0,0,0,2.31,5.65c1,1,2.31,1.8,3.59,1l.77-.52.52-.25c.51,0,1,0,1.28.77l2.31,2.31c1,.77.26,1.28-.77.48h-3.59c-3.85,2.09-12.33,2.56-12.33,2.56h-.67a.92.92,0,0,0-1,1l-.25.5-.5,1a6.09,6.09,0,0,0,0,3c1.5,5.5,2.25,11.25,1,17a6.4,6.4,0,0,0,1.5,6l1.75,1,1,.5a3.49,3.49,0,0,1,.75,2.25,6.42,6.42,0,0,0,1.25,3,16,16,0,0,0,3.75,3.26h.77a1.59,1.59,0,0,0,2.17-.73,10.82,10.82,0,0,0,1-5.53,2,2,0,0,0-1.68-1.93l-1,.24-.72.24h0a2.69,2.69,0,0,1-1-1.34,7.14,7.14,0,0,1-.25-4v-.8l.25-1.87a2,2,0,0,0-.51-1.61c-.52-1.07-.52-1.34-1.29-1.6-.51,0-.77-.27-1-.81-.52-.53-.52-.8-.26-1.07a34.31,34.31,0,0,0,.26-8.82c0-1.07,0-1.88.51-2.41,2.06-1.87,5.39-.54,7.19.27a51,51,0,0,0,8,2.14,18.18,18.18,0,0,0,12.84-3.48c.26-.27.26-.54.77-.27l3.86,2.94A43.16,43.16,0,0,0,534,567.55a59.52,59.52,0,0,0,15.41-.26,8.69,8.69,0,0,1,3.6.8l.51.8c0,2.14-1,3.75-1,5.89a7.86,7.86,0,0,0,1,3.21l1,2.94.77,1.07a10.82,10.82,0,0,1,0,13.11,41.89,41.89,0,0,1-6.16,5.35,14.43,14.43,0,0,1-7.19,2.94,6.33,6.33,0,0,0-4.63,2.14,16.22,16.22,0,0,1-4.88,3.75,2.26,2.26,0,0,0-1.54,1.87,28.9,28.9,0,0,0-2,6.69c-.26,1.07.77,1.6,1.8,1.6,1.79-.27,3.59-1.07,5.65-1.6,1,0,1.54-1.34,1.28-2.41l-.26-.27-.77-1.6v-1.34c.52-.27.77-.8,1.29-1.07a2.34,2.34,0,0,1,1.79-.54h-1.52c2.75,1,6.06,0,7.16-2.57h0a14.14,14.14,0,0,1,1.65-2,89.12,89.12,0,0,1,16.78-7.7,1.15,1.15,0,0,0,1.1-1v-8c0-1.29.55-3.6,2.48-3.6a1.88,1.88,0,0,1,1.65,1,16,16,0,0,0,7.43,4.88l2.47,1a6.36,6.36,0,0,1,3.86,5.13,3.71,3.71,0,0,1-.83,3.34l-5.78,7.7a8.58,8.58,0,0,1-3.57,3.34A62.18,62.18,0,0,0,562,620.38l-2.75,8c-.55,1.54.55,2.06,1.93,1.54a22.38,22.38,0,0,0,6.32-2.31l1.1-.77a1.45,1.45,0,0,0,.28-1,3.08,3.08,0,0,0-1.1-2,2.21,2.21,0,0,1,0-2.57c.27-.51.82-.77,1.1-1l5-1.28a11.58,11.58,0,0,0,5.51-2.31c.27-.51.55-.77.82-1.28v-3c1.75-5.68,5.74-11.11,11.24-13.83a1.63,1.63,0,0,0,1-1.72l-.24-2.23-4-6.17a9.52,9.52,0,0,1-.75-11.36l1-1.48c.75-1.48,2.25-2.22,3.25-3.71a20,20,0,0,0,3-4.44l2.25-5.93c.5-1.72-.25-3.45-.25-5.18,0-.74.5-1,.75-1.73a6.79,6.79,0,0,1,3-2.22,5.56,5.56,0,0,1,3.5.24l5.74,2.23a7.38,7.38,0,0,0,3.25-.5,10.15,10.15,0,0,0,3.24-1.73v-1H613.4a3.63,3.63,0,0,1-2.25-1.49,4.4,4.4,0,0,1-1-2.22l.75-1.23a11.55,11.55,0,0,0,3.5-3.46,9.55,9.55,0,0,0,1-4.44h-2c-1,1-1.25,2.26-2.51,3a5.55,5.55,0,0,1-3.27,1,3.1,3.1,0,0,1-2.26-1,8.94,8.94,0,0,1-1-2.26c-.25-1,1-1.26,1.51-1.51a14.78,14.78,0,0,0,4.52-1,4.49,4.49,0,0,0,2-2.26,7.42,7.42,0,0,0,.5-2.26c0-.51,0-.76-.25-.51-1,0-1.51.76-2.26,1a5.6,5.6,0,0,1-4-.25,13.32,13.32,0,0,1-3-3.52v-2.76c1.51,0,2.77-1.51,3.52-3.27l.5-1,1-1.25a12.33,12.33,0,0,0,.25-3,3.73,3.73,0,0,0-1-2.26h2.87c-.53,1,0,2.29-1.06,3.3a13.48,13.48,0,0,1-2.65,2.79c-.79.51-1.32,1-1.85,1a3.72,3.72,0,0,1-2.39-2.8,9.15,9.15,0,0,1,1.06-3.55l4.51-6.84,3.71-4.06c.79-1,1.06-3.3.26-3.81-1.06-.25-1.59,2-2.38,2.54a39.46,39.46,0,0,0-10.34,5.33,16.78,16.78,0,0,0-3.18,6.08c-.53,1.27-.27,3-.8,4.31,0,.51-1.06,1-1.59.77a11.67,11.67,0,0,1-2.38-3.81,6.8,6.8,0,0,1,0-3.3c.26-.5,0-.76-.27-.5a7.79,7.79,0,0,0-3.18,3.29,7.44,7.44,0,0,0,.53,5.84,35.58,35.58,0,0,0,5.83,8.11c1.59,2.29,3.45,5.08,4.78,7.36a9.94,9.94,0,0,1,1.59,6.85,13.34,13.34,0,0,1-3.72,6.09s-.79.5-1.06.25a54.2,54.2,0,0,0-6.09-4.82,25.39,25.39,0,0,0-8.22-3.3,43.51,43.51,0,0,0-11.4,0c-4,0-7.95.76-11.93.51a24.72,24.72,0,0,1-9.54-1,12.92,12.92,0,0,1-5.3-4.57,10.25,10.25,0,0,1-1.06-6.85,13.55,13.55,0,0,1,1.59-5.58,9.12,9.12,0,0,1,3.44-3.55,7.93,7.93,0,0,1,5.83-.76l2.39,1.52,2.39,2.28.79-.25a18.76,18.76,0,0,0-1.06-7.61,30,30,0,0,0-3.45-5.33c0-.5,1.06-.25,1.33-.5a9.29,9.29,0,0,1,5.83,1.77,8.83,8.83,0,0,1,3.18,3.05l.27-.26a11.19,11.19,0,0,0-3.18-8.37,10.45,10.45,0,0,0-3.45-3.29c-1.06-.26.53-1,1.33-1a7.68,7.68,0,0,1,4.77.76l1.59,1,1.06,1c.26,0,.79-.51.53-.76a7.56,7.56,0,0,0-1.06-2.54,67.87,67.87,0,0,0-8-6.59l-1.06-.76a10.42,10.42,0,0,1-1.86-3.3l-1.06-1.52v-1.78c1.06-1.52,1.59-1.77,3.45-2.53a23.17,23.17,0,0,1,4-1l1.33.51s.26-.76-.27-1a11,11,0,0,0-5.83-1.53,17.06,17.06,0,0,0-7.95.51,12.46,12.46,0,0,1-5.83,1.52c-1.33,0-2.92,0-4-.76a2.91,2.91,0,0,1-1.59-2.28,8.59,8.59,0,0,1,1.06-4.31,5.72,5.72,0,0,1,2.65-2.29c1.06,0,1.33-.5,1.06-1,.53-.76-.26-.51-.79-.25Zm-10.65,13.38a5.43,5.43,0,0,1,3.34,1.28,15.25,15.25,0,0,1,5.13,10,45.5,45.5,0,0,1,0,15.66,4.36,4.36,0,0,1-2.31,4.11A7.41,7.41,0,0,1,535,519c-.77,0-1-1.29-1-3.34V501.51a31.75,31.75,0,0,0-2.82-9.24c0-.77-.51-1-1-1.54l-1-1.29c-.52-.51-1.29-.77-1.8-1.28l.25-.77a5.74,5.74,0,0,1,3.6,0Zm110.68,2.53h141.1l-1.27,61.64H641.82Zm0,71.91H784.38a272.36,272.36,0,0,1-15.6,78.82,390.89,390.89,0,0,1-43.45,84.64A342.13,342.13,0,0,1,626,820.83a453.74,453.74,0,0,1-54.63,27.38c-6,2.53-11.71,5.06-16.39,6.58-5.47,1.53-10.15,3.3-13.27,4.06v-201a51.43,51.43,0,0,0,8.84-.51l1,2.79a9.86,9.86,0,0,0,6,4.56,9.58,9.58,0,0,0,8.58-3c3.12,2.28,7,3.29,10.67,1.77a6.5,6.5,0,0,0,4.94-6.08,8.32,8.32,0,0,0-1-5.57l-1-1.52a117.28,117.28,0,0,0,20.81-11.41h.78c10.15-2.53,52-17.23,77.79-17.49A93,93,0,0,1,724.29,632a76.45,76.45,0,0,1,20,16.22l1-.76a37.08,37.08,0,0,0,2.34-14.19c-.78-7.61-8.58-13.18-10.92-15.46,0,0,0-.51.78-1a27.5,27.5,0,0,1,2.86-2.28c4.68-3.29,10.14-5.57,15.87-5.57.78,0,.52-1,.26-2.28-1.56-6.59-11.71-10.9-21.85-9.63a26.07,26.07,0,0,0-16.91,11.4c-.26.51-1.3,1-1.56.51a77.13,77.13,0,0,0-10.15-3c-1-.26-.52-1.27-.52-1.27a25.67,25.67,0,0,1,8.32-9.12,30.39,30.39,0,0,1,14-6.09c.52,0,.52-.76,0-1a14.78,14.78,0,0,0-10.14-8.11,24.25,24.25,0,0,0-21.6,3.55,42.1,42.1,0,0,0-12.48,18.24c-.26.76-.52,1-1,1-2.86-.76-9.63-.26-10.15-.76-.52,0-.52-1-.26-1.27a25.23,25.23,0,0,1,6-10.14,26.72,26.72,0,0,1,10.15-7.6l.52-.51a1.58,1.58,0,0,0-.26-2.28h0a28.58,28.58,0,0,0-34.08,7.35,55.56,55.56,0,0,0-8.32,18.76c0,.25-.52,1-1,1L631.16,611l-2.34.51-.52-.51a89.81,89.81,0,0,0,13.52-44.6ZM450.64,582.67c.77,3.08,2.31,5.9,3.34,9Zm15.66,32.61A97.29,97.29,0,0,0,540.78,652a94.81,94.81,0,0,0,60.86-23.11,95.79,95.79,0,0,1-60.86,22.6A97.22,97.22,0,0,1,466.3,615.28Zm-4.88,8.18h0ZM306.93,628.6H470.25l3.38,2.86A106.17,106.17,0,0,0,534,656.69v33.54h-201a373.87,373.87,0,0,1-26-61.63Zm340.29,14.89a29.62,29.62,0,0,0-22.34,15.67,67.47,67.47,0,0,0-4.63,21.06l-1,1L610,683.56a.91.91,0,0,1-.77-.52,29.56,29.56,0,0,1,4.11-19.77,27.87,27.87,0,0,1,5.91-7.45c.51-.26.77-1,.51-1.28l-1-.52A25.58,25.58,0,0,0,601,657.36a23.23,23.23,0,0,0-12.32,18.49,43.19,43.19,0,0,0,1,16.18,1,1,0,0,1-.51,1l-10,4.88h-.51a16.2,16.2,0,0,0-7.45-10,13.83,13.83,0,0,0-12.32.52,13,13,0,0,0-5.65,6.16,9.88,9.88,0,0,0,3.33,12.33c0,.25.52.77,0,1-2.56,1-2.56,1.54-4.62,4.37a11.87,11.87,0,0,0,1.54,12.33A12.55,12.55,0,0,0,571,728.24a7.2,7.2,0,0,0,1.54-1.28.92.92,0,0,1,.77.51,14.65,14.65,0,0,0,3.85,4.11,11.83,11.83,0,0,0,12.33,0A11.24,11.24,0,0,0,595.09,720a9.17,9.17,0,0,0-3.09-6.93c-.25-.51,0-.77,1-1.28a148.91,148.91,0,0,1,54.19-18.49,94.74,94.74,0,0,1,29.53.77A40.09,40.09,0,0,1,694,702.56a91.87,91.87,0,0,1,11.3,11,5.37,5.37,0,0,0,3.34-.77,17.55,17.55,0,0,0,.25-14.38,45.14,45.14,0,0,0-10.53-16.18v-.51c0-1,.52-1.29,1.29-2.31a32.86,32.86,0,0,1,15.41-8,.87.87,0,0,0,.77-1.29,17.73,17.73,0,0,0-22.35-8.47,23.61,23.61,0,0,0-12.32,11.55c-.26.52-.77,1.29-1,1l-9.25-1c-1,0-.77-1-.51-1a19.38,19.38,0,0,1,5.39-8.73,31.9,31.9,0,0,1,12.33-8.74c.51,0,.51-.51.51-.77a17.86,17.86,0,0,0-12.84-6.42A22.48,22.48,0,0,0,659,654a34.4,34.4,0,0,0-9.24,20.55c-.52.51-.77,1-1,1a72.89,72.89,0,0,1-7.71.77c-.51,0-.51-.77-.51-1a23.47,23.47,0,0,1,2.83-11,39.87,39.87,0,0,1,15.15-16.18c1-.77,1-2.31.77-2.31a19.71,19.71,0,0,0-12.07-2.32ZM534,698H531.4L534,758.32Zm81.41,32.58a12,12,0,0,0-7.19,2.31A26.41,26.41,0,0,0,595.09,748a32.34,32.34,0,0,0,.51,15.66v.77l-5.91,2.83h-1.15a15.59,15.59,0,0,1,2.35-19.14c.52-.49.78-1-.26-1.21A17,17,0,0,0,576.06,752a16.62,16.62,0,0,0-3.38,17.45,18,18,0,0,0,2.86,6.54s1,.72.26,1l-3.9,3.15h-.78a12.82,12.82,0,0,0-8.06-6.3,9.92,9.92,0,0,0-8.58,2.18,9,9,0,0,0-.26,13.32l.26.25a10.13,10.13,0,0,0,3.9,2.18.45.45,0,0,1,.26.72,15.85,15.85,0,0,0-5.46,5.33,9.28,9.28,0,0,0,2.34,10.66,10.75,10.75,0,0,0,8.06,2.18,18,18,0,0,0,10.14-8s.52-.49.78,0a18.36,18.36,0,0,0,7.54,5.09,8.44,8.44,0,0,0,8.85-1.7A8.53,8.53,0,0,0,594,795.62a13.89,13.89,0,0,0-5.47-5.33c-.52-.48,0-1,.53-1.45a83.06,83.06,0,0,1,39.26-16,51.91,51.91,0,0,1,28.35,4.36A41.33,41.33,0,0,1,666,784c.26,0,1.3.49,1.56,0a9.42,9.42,0,0,0,1-13.81,20.31,20.31,0,0,0-5.72-4.36l-.26-.48a23.34,23.34,0,0,1,16.65-13.81c.78,0,.52-.49,0-1.21-3.12-7.27-17.17-7.51-23.67-3.64a29.4,29.4,0,0,0-9.88,10.18c0,.48-.26,1-.78,1l-5.72-1.7v-.73a29.34,29.34,0,0,1,19.24-14.53c.52-.24.26-.73,0-1-2.86-7-18.2-6.54-25.74-1.94-7,4.36-12.23,10.9-14,18.66V757a28.82,28.82,0,0,1-6.42,1.54c-.26,0-.51-.25-.51-.77a16.45,16.45,0,0,1,1.8-10.52,63.72,63.72,0,0,1,9-11.56c.52-.51.52-1.29,0-1.54a10.24,10.24,0,0,0-7.19-3.6ZM388.1,767.28H534v94.25c-2.82-1-5.9-2.32-9.5-3.34-4.88-1.54-10-4.37-16.43-6.94a298.34,298.34,0,0,1-85.26-50.59A326,326,0,0,1,388.1,767.28Z"/></g></svg>