<svg xmlns="http://www.w3.org/2000/svg" viewBox="0 0 1080 1080"><defs><style>.cls-1{fill:#f6f6f6;}.cls-2{fill:#c3c3c3;}</style></defs><g id="background"><rect class="cls-1" y="1079" width="1" height="1"/><rect class="cls-1" width="1" height="1"/><rect class="cls-1" y="1079" width="1" height="1"/><rect class="cls-1" x="1079" width="1" height="1"/><rect class="cls-1" x="1079" y="1079" width="1" height="1"/><rect class="cls-1" x="1079" y="1079" width="1" height="1"/></g><g id="Capa_1" data-name="Capa 1"><path class="cls-2" d="M541,864.89c-20.91,0-41.82-.16-62.72.11-5.86.07-9.79-1.92-12.79-6.84-22.56-37-45.67-73.7-67.71-111-28.23-47.77-55.64-96-83.36-144.1Q299.61,577.33,285,551.49c-3.89-6.92-3-14,.76-20.68,30.39-53.23,61-106.35,91.27-159.61q41.33-72.65,82.14-145.57c4.26-7.62,9.45-10.71,18.21-10.63q59.92.54,119.85,0c9.89-.07,16.5,2.44,21.93,11.84,31.46,54.5,63.68,108.57,95.62,162.79,25.66,43.55,51.07,87.25,77.1,130.58,6.87,11.43,7.95,21.19.88,33.25-29.09,49.64-57.39,99.75-86,149.68Q672.16,763.59,637.54,824c-6.77,11.81-13.67,23.56-20.35,35.43-2.82,5-7.39,5.43-12.26,5.43Q573,864.91,541,864.89ZM789.13,537.75c-2.16-4.67-3.5-8.29-5.41-11.58q-24.51-41.94-49.2-83.79Q671.67,335.72,608.86,229c-2.17-3.71-4.49-5.17-8.73-5.15q-61.49.18-123,0c-4.33,0-6.66,1.57-8.72,5.28-10.91,19.66-22,39.2-33.18,58.73Q366,409.42,296.62,531c-1.52,2.66-2.27,5.76-3.59,9.19,2.29.23,3.3.42,4.3.42,40.78,0,81.56-.05,122.34.12,3.92,0,5.31-2,6.93-4.82q41.75-73.15,83.6-146.23,34.53-60.4,69-120.83c5.11-8.95,10.09-18,15.49-26.77,1-1.58,3.68-2.09,5.58-3.09.23,1.92.91,3.94.56,5.75-.48,2.38-1.73,4.62-2.71,6.89q-21.9,50.82-43.84,101.62c-1.62,3.73-2.23,6.69.22,10.81q50.09,84.36,99.63,169c2,3.32,4.18,4.83,8.33,4.8,32.29-.21,64.59-.11,96.88-.11ZM541.44,689.11c7.82-13.69,14.95-26,21.91-38.38,19.9-35.42,39.62-71,59.75-106.25,2.54-4.46,2.43-7.4-.08-11.65-23.4-39.59-46.57-79.31-69.83-119-4.31-7.35-8.72-14.66-13.65-22.94-2.46,4.44-4.22,7.69-6,10.89q-38.37,67.13-76.63,134.3a8.65,8.65,0,0,0-.05,7.21q30,53.41,60.4,106.57C524.69,662.88,533,675.44,541.44,689.11ZM655.83,539c-5.39,0-9.52.21-13.61-.06-3.59-.24-5.45,1.16-7.23,4.32q-43.66,77.7-87.6,155.23c-4.39,7.78-6.91,8-11.36.36q-44.86-76.65-89.66-153.36c-1.05-1.79-2.76-4.27-4.4-4.47-4.94-.59-10-.21-15.78-.21.94,2.15,1.25,3.11,1.75,4q48.85,84,97.91,167.86c3.24,5.5,3.27,9.59.76,15.23C511.33,762.11,496.4,796.54,481.56,831c-1,2.24-.2,5.23-.24,7.88,2-1.69,4.61-3,5.83-5.11q29.34-50.6,58.35-101.39,37.14-65,74.14-130.06C631.48,581.57,643.34,560.83,655.83,539Z"/></g></svg>