<svg xmlns="http://www.w3.org/2000/svg" viewBox="0 0 1080 1080"><defs><style>.cls-1{fill:#f6f6f6;}.cls-2{fill:#c3c3c3;}</style></defs><g id="background"><rect class="cls-1" y="1079" width="1" height="1"/><rect class="cls-1" width="1" height="1"/><rect class="cls-1" y="1079" width="1" height="1"/><rect class="cls-1" x="1079" width="1" height="1"/><rect class="cls-1" x="1079" y="1079" width="1" height="1"/><rect class="cls-1" x="1079" y="1079" width="1" height="1"/></g><g id="Capa_1" data-name="Capa 1"><path class="cls-2" d="M545.32,215q30.13.76,60.26,1.53c11,.28,22,.49,32.95.9,17.7.67,35.4,1.45,53.1,2.24,7.9.36,15.8.91,23.71,1.32a103.8,103.8,0,0,1,32.94,7,60.52,60.52,0,0,1,11,5.84,84,84,0,0,1,21.57,19.71A88.52,88.52,0,0,1,795,280.82,102.26,102.26,0,0,1,798,296.19c1.61,11.4-.44,22.71-1.41,34-.78,9-1.74,17.93-2.7,26.88q-1.84,17.27-3.83,34.51-1.83,15.61-3.89,31.21-2.16,16.47-4.54,32.92-5.13,35.08-12.16,69.85c-4.22,20.73-8.81,41.39-13.33,62.07-4.27,19.51-8.8,39-14.22,58.2-5.87,20.85-12.34,41.51-19.59,61.92-12.16,34.21-25,68.18-39.74,101.35a100.26,100.26,0,0,1-14.81,24.24c-3.69,4.36-8.14,8.06-12.29,12-.86.81-1.92,1.39-2.84,2.15-9.16,7.56-20,11.51-31.3,14.25A123,123,0,0,1,592,865c-34.64-.1-69.29-.26-103.93-.26a181,181,0,0,1-31.26-3c-5.25-.92-9.92-3.3-14.9-4.9-8-2.56-14.34-7.89-21.29-12.21-1.46-.91-2.52-2.49-3.72-3.8-5-5.46-10-10.9-14-17.23a145.46,145.46,0,0,1-10.74-21.11c-8.45-19.73-17.23-39.32-24.61-59.49-7.93-21.64-15.18-43.5-22-65.5-10.22-32.78-19.32-65.86-26.64-99.4-4.4-20.18-8.24-40.5-11.94-60.83-3.39-18.68-6.39-37.43-9.31-56.19-1.89-12.12-3.43-24.29-4.95-36.47-1.83-14.72-3.63-29.45-5.13-44.21s-2.67-29.36-3.87-44.06q-1.22-14.94-2.08-29.91A81.47,81.47,0,0,1,291.05,262a80.25,80.25,0,0,1,25.39-28.16,82.41,82.41,0,0,1,29.25-12.62,101.13,101.13,0,0,1,16.5-1.83c16.6-.92,33.21-1.84,49.82-2.4Q478.64,214.78,545.32,215Zm-4.7,9.41c-39.31,0-78.6.72-117.89,1.77-21.87.59-43.72,1.41-65.53,3.16a68,68,0,0,0-10.55,1.56,78.6,78.6,0,0,0-22.39,9.26,67.92,67.92,0,0,0-21.92,21.4c-8.75,13.51-12.34,28.56-11.19,44.68,1.1,15.3,2.05,30.61,3.26,45.9q1.29,16.13,3.12,32.2c1.81,16,3.79,32,5.78,48,1.16,9.33,2.31,18.66,3.78,27.94,3,18.75,6,37.5,9.3,56.2,3,17,6.05,34.09,9.76,51,8.43,38.46,18.47,76.51,30.64,114,5.9,18.15,11.84,36.29,18.26,54.26,8.66,24.23,19,47.81,29.49,71.27a91.58,91.58,0,0,0,13.82,21.34,72.51,72.51,0,0,0,37.13,23.14,113.65,113.65,0,0,0,27.6,3.64q50.34.12,100.67.36c8.82,0,17.62,0,26.37-1.29a110.57,110.57,0,0,0,23.42-6.35c6.58-2.53,12.12-6.69,17.44-11.1a77.12,77.12,0,0,0,9.77-9.94c5.85-7,10.15-15.06,13.88-23.4C686,777.93,696,751.9,705.71,725.74c14.67-39.64,27.53-79.83,36.81-121.1,6.79-30.2,13.85-60.33,19.57-90.77,5.32-28.29,10.08-56.68,13.83-85.21,3-22.56,5.49-45.17,8-67.79,1.81-16.42,3.24-32.88,4.8-49.33a71.45,71.45,0,0,0-4.64-32.88,75.14,75.14,0,0,0-29.3-36.35,54.11,54.11,0,0,0-10.46-5.56A86.1,86.1,0,0,0,718.93,231c-5.53-.35-11-.92-16.58-1.21-15.52-.81-31-1.65-46.56-2.24-16.12-.62-32.25-1-48.38-1.42Q574,225.24,540.62,224.43Z"/><path class="cls-2" d="M539.87,243.13c32.16.56,64.33.94,96.49,1.73,20.18.5,40.35,1.53,60.52,2.46,8.2.38,16.44.74,24.56,1.83,4.82.65,9.56,2.45,14.13,4.23a49.45,49.45,0,0,1,16,10.51,55.48,55.48,0,0,1,10,12.07A58,58,0,0,1,768.34,292,55,55,0,0,1,770,305.81c-.29,10-1.12,20-1.93,29.92-.74,9.07-1.73,18.12-2.66,27.17-1,9.94-2,19.89-3.17,29.81-1.21,10.32-2.44,20.63-4,30.9-3,20.45-6,40.92-9.54,61.27q-6.21,35.36-13.5,70.5c-5.34,25.66-12,51-18.83,76.31-8.44,31.15-19,61.58-29.75,92-7.82,22.22-16.64,44-26.16,65.56a223.89,223.89,0,0,1-12.38,23c-1.88,3.18-4.67,5.89-7.32,8.55-7,7-15.66,11.38-25.12,14a60.7,60.7,0,0,1-12.87,2q-13.64.74-27.3.78c-24.95.06-49.9.08-74.84-.16-10.18-.1-20.36-.86-30.54-1.45a40.62,40.62,0,0,1-6-1.31c-8.83-1.93-16.61-6.24-24.32-10.72a15.24,15.24,0,0,1-2.51-2,60.41,60.41,0,0,1-13.72-18.45c-1.48-3.12-3.18-6.15-4.53-9.33-7-16.38-14-32.73-20.74-49.21-9.18-22.55-17-45.58-24.36-68.78-8.65-27.26-15.72-54.94-22.49-82.71-6.25-25.65-11.88-51.45-16.61-77.43-3.31-18.19-6.07-36.48-9-54.74-1.47-9.08-2.94-18.16-4.23-27.27-1.44-10.28-2.84-20.58-4-30.9-1.88-17.11-3.67-34.23-5.23-51.38-1.26-13.89-2.2-27.81-3.15-41.73a71,71,0,0,1,.63-17.17,54.3,54.3,0,0,1,6.49-18,57.25,57.25,0,0,1,15.05-16.63,50.74,50.74,0,0,1,16.12-8,75.5,75.5,0,0,1,18.71-2.93c19.28-.87,38.55-2.06,57.84-2.48,30.28-.66,60.57-.81,90.86-1.13,8.31-.09,16.63,0,24.94,0Zm-84.95,149.1,5.35-.57c5.18-.52,10.37-1,15.55-1.56,9.49-1.05,19-2.2,28.45-3.26,8.23-.91,16.46-1.72,24.69-2.62a21,21,0,0,0,2.88-.74c0-.27-.08-.54-.13-.81a18.55,18.55,0,0,0-2.11,0c-5.09.61-10.17,1.26-15.25,1.88l-32,3.88c-7.12.87-14.25,1.72-21.37,2.61-.25,0-.46.44-.7.65-1.83-.22-3.68-.72-5.35.58h-4l0,.45Zm168,.85h4.35l0-.44-4.33.45c-.32-.3-.61-.83-1-.88-6.91-.89-13.83-1.73-20.75-2.57-7.13-.86-14.26-1.68-21.39-2.55-10.25-1.26-20.5-2.55-30.75-3.8a9.47,9.47,0,0,0-2,.2l0,.76c1.11.2,2.2.47,3.31.59,8.12.89,16.25,1.73,24.37,2.62q21.11,2.3,42.21,4.65C618.9,392.34,620.9,392.76,622.92,393.08ZM545.71,618.61c0,1.29,0,2.36,0,3.42.13,11.18.24,22.35.43,33.52a8.71,8.71,0,0,0,.83,3.38,193.18,193.18,0,0,0,16.9,29.23,169.76,169.76,0,0,0,25.76,29,192.57,192.57,0,0,0,26.88,19.93c.88.54,1.83,1,2.83,1.51,1.38-2.06,2.56-3.82,3.87-5.79-2.72-1.4-5.06-2.68-7.46-3.83a18.21,18.21,0,0,1-9.52-10.47c-.47-1.28-1-2.55-1.45-3.87-4.76.24-9.23-.19-12.91-3.45s-4.48-7.93-5.22-12.67c-7.52.41-13.27-2.17-16-9.36a13.23,13.23,0,0,1,1-11.89c.78,3.61,1.29,7.13,2.33,10.49,1.8,5.84,8.78,9.51,15,4.9a15.07,15.07,0,0,0,4.68-5.27,23.91,23.91,0,0,0,1.29-18.7,16.85,16.85,0,0,0-2.27-4.45c-2.54-3.67-6.41-4.82-10.42-2.88a65.16,65.16,0,0,0-6.66,4.27,282.46,282.46,0,0,1-16.48-45.46L564,621a268,268,0,0,0,15,38.08l2.41-1.61a275.93,275.93,0,0,1-13.83-35.43,9.69,9.69,0,0,1,1.31.07,135.23,135.23,0,0,1,59.66,32.73,143.2,143.2,0,0,1,22.35,26.45,11.77,11.77,0,0,0,1.35,1.48c.3-.7.53-1.14.69-1.6,5.31-15.93,10.82-31.8,15.86-47.82q10.55-33.5,17.8-67.89,4.14-19.4,7.58-38.94c2.05-11.65,3.73-23.37,5.35-35.1,1.2-8.68,2.15-17.41,3-26.14q1.53-15.45,2.71-30.93c.45-5.9.54-11.83.85-17.75.07-1.44.39-2.86.6-4.3l4.44-.34c0-3.55.84-6.89.55-10.32H367.34l.67,8.77,2.33.56,2.28.5c4.63,93.07,21.61,183.48,53.8,271.45,10.17-15.55,22-28.83,36.57-39.55a126,126,0,0,1,49-22.19,265.06,265.06,0,0,1-14,36.14l2.5,1.43c6.21-12.55,10.86-25.44,15.08-38.39l4-.51a286.46,286.46,0,0,1-16.49,45.31,61.42,61.42,0,0,0-5.54-3.74c-5.27-2.78-9.93-1.29-12.66,4-3,5.75-3.06,11.76-1.33,17.87a16.59,16.59,0,0,0,4.74,7.73c5.72,5.39,13.27,3.85,16.4-3.39a23.11,23.11,0,0,0,1.8-8.95c0-.69.14-1.38.21-2.07,2.82,4.85,3,9.67.22,14.39-3.24,5.58-8.41,7.42-14.72,7-.77,4.68-1.49,9.28-5.18,12.66s-8.37,3.63-12.92,3.49a6.59,6.59,0,0,0-.42.73c-.18.46-.36.93-.5,1.4a19.34,19.34,0,0,1-10.54,12.54c-1.68.84-3.37,1.66-5,2.52-.6.31-1.14.69-2,1.21l4,5.73c3-1.95,5.88-3.74,8.69-5.58A172.33,172.33,0,0,0,504.56,701a181.3,181.3,0,0,0,26.94-41.71,11,11,0,0,0,1.17-4.81c.08-11.27.23-22.55.38-33.82a17.32,17.32,0,0,1,.27-2c.65-.06,1.13-.13,1.61-.16s1.1,0,2,0V795.23h5.75V618.61ZM448.8,271.27c-2,.19-3.95.24-5.89.58-20.13,3.46-33.35,24.3-30.31,43.26,1.45,9,5.23,16.67,12,22.83,7.27,6.64,16.17,8.87,25.67,8.81a31.37,31.37,0,0,0,14.42-4.06,38.56,38.56,0,0,0,20.48-38.87A36.85,36.85,0,0,0,448.8,271.27ZM745.73,345l.08-.52a6.93,6.93,0,0,0-1.06-.7,29.07,29.07,0,0,1-11.08-8.18c-7.67-8.79-14.19-18.6-23.07-26.43,3.9-1.1,7.69-2.4,10.89-5a17.12,17.12,0,0,0-3.15-28.52A25.38,25.38,0,0,0,707,272.84c-11.27-.13-22.55,0-33.83,0a13.19,13.19,0,0,0-2,.4,9.9,9.9,0,0,0,1.69,1.24c3.86,1.58,5.44,4.41,5.42,8.58-.1,17.51-.05,35,0,52.53a13.08,13.08,0,0,1-2.34,7.49,20.79,20.79,0,0,0-1,2h18V309.53c.9.23,1.37.31,1.81.47,2.83,1,4.73,3.1,6.51,5.4,6.4,8.29,12.89,16.5,19.22,24.83a11.83,11.83,0,0,0,10.44,5c4.15-.12,8.31,0,12.46,0C744.1,345.24,744.92,345.1,745.73,345ZM333.64,273l-.15.67c.83.38,1.63.83,2.47,1.15a5.51,5.51,0,0,1,3.59,5,23.75,23.75,0,0,1,.05,2.67c0,17.61,0,35.22,0,52.82a14.87,14.87,0,0,1-2,7.63,9.7,9.7,0,0,0-.63,1.84c4.11.54,14.91.39,17.24-.27V309.35c3.09.64,5.39,1.75,7.2,4.13,7.05,9.28,14.22,18.47,21.33,27.71a9,9,0,0,0,7.85,3.91c4.44-.16,8.9,0,13.35-.05.83,0,1.65-.12,2.48-.19a3.44,3.44,0,0,0-1.74-1.59,20.55,20.55,0,0,1-7.13-5.19c-3.34-4-6.58-8.14-10.09-12-5.06-5.61-8.94-12.31-15.47-16.88a36.9,36.9,0,0,1,3.72-1.4,18,18,0,0,0,7.86-4.54,16.79,16.79,0,0,0,3.64-20.54c-3.44-6.73-9.55-9.66-16.76-9.83-11.47-.28-22.95-.08-34.42-.07C335.29,272.8,334.47,272.93,333.64,273Zm134,533.23c1.89-.2,3.48-.23,5-.55,7.24-1.54,14.49-3,21.66-4.78,9.25-2.29,18.31-2.4,27.33,1,3.5,1.33,7.17,2.2,10.73,3.36a24.83,24.83,0,0,0,14.58.48c5.23-1.42,10.47-2.86,15.71-4.26,8.27-2.22,16.48-2.55,24.74.26,4.66,1.59,9.46,2.8,14.26,4A41.13,41.13,0,0,0,613,807.08c2.75-6.21,5.77-12.12,8.33-18.52-2.72.29-5,.65-7.2.75a46.5,46.5,0,0,1-18.28-3.1c-9.76-3.62-19.37-3.5-28.74.92a162.09,162.09,0,0,0-14.72,8.24c-7.09,4.29-14.23,5-21.6.84-4.38-2.48-8.7-5.06-13.11-7.49a38.71,38.71,0,0,0-20.44-5.07,58,58,0,0,0-15.7,2.74,39.08,39.08,0,0,1-19,1.4,21.36,21.36,0,0,0-3.25,0ZM644.54,287.41l.82-.27c-.18-4.66-.37-9.33-.56-14.21-1.16-.05-2.12-.13-3.08-.13h-11q-19,0-38,0c-1,0-2.1-.42-2.9.52.1.24.12.37.19.42a2.57,2.57,0,0,0,.52.27c4.15,1.62,5.79,4.76,5.67,9.08-.09,3.27,0,6.53,0,9.8v42.75c0,3-.59,5.87-2.84,8.14-.22.22-.17.7-.3,1.28H645.6c1.89-3.92,4.44-13.21,4.09-15.49-1,1.13-1.85,2-2.57,3a8.72,8.72,0,0,1-7.87,3.79c-8.41-.14-16.82,0-25.23-.05-1,0-1.93-.09-2.84-.13-.6-3.8-.45-22.49.18-24.68a9.67,9.67,0,0,1,1.11-.12c7.13,0,14.26,0,21.38,0a5.53,5.53,0,0,1,3.73,1.5c.48.4.94.82,1.52,1.33.67-3.06.6-11.71-.1-14.08-.35.2-.78.3-1,.56-1.23,1.89-3,2.27-5.13,2.24-6.43-.09-12.86,0-19.3,0-.85,0-1.71-.11-2.8-.18.13-7.29-.16-14.35.19-21.57,8.35,0,16.35-.09,24.35.06a8.41,8.41,0,0,1,6,2.81C642.46,285.13,643.5,286.27,644.54,287.41ZM535.7,346.17c.43-.95.8-1.74,1.15-2.56q12.79-30,25.57-60c1.63-3.86,3.72-7.17,7.65-9,.48-.23.78-.84,1.46-1.61h-20.4a2,2,0,0,0-.13.49c0,.19,0,.45.13.56,2.76,2.68,2.17,5.5.75,8.66-3.79,8.47-7.37,17-11,25.57l-5.2,12.09c-.61-1.23-1-2-1.36-2.76q-2.62-6-5.22-11.94-5.29-12.24-10.57-24.48c-1.12-2.58-1.13-5,1.22-7,.24-.2.25-.67.45-1.25a12.63,12.63,0,0,0-1.58-.17q-11.72.06-23.44.15c-.05,0-.12.14-.16.23a4.08,4.08,0,0,0-.13.44,5.06,5.06,0,0,0,1,.83c4.14,1.88,6.43,5.24,8.14,9.33Q516.69,314,529.55,344.1c.29.7.67,1.38,1,2.07Zm-69.22,400.2c.66-.32,1-.47,1.35-.66a186.17,186.17,0,0,0,64.95-60.29,7.81,7.81,0,0,0,1.49-4.65c-.12-5.83,0-11.67,0-17.5,0-.59-.11-1.19-.16-1.78-7.5,16.76-18,31.29-30.29,44.52a182.14,182.14,0,0,1-42.12,34.09ZM617,740.62c-31.76-19.39-56.34-45-72.31-78.59-.2,4.29-.22,8.44-.2,12.59,0,3.07-.6,6.34.29,9.13s3.27,5.11,5.05,7.59a187.34,187.34,0,0,0,49.83,48c4,2.63,8.17,5.11,12.52,7.81Zm-94.41,45.61a9.88,9.88,0,0,0-1-1.75c-2.75-3-5.36-6.08-8.34-8.79a26.41,26.41,0,0,0-14-6.57,56.36,56.36,0,0,0-19.43.38c-1.74.34-3.49.63-5.25.82-7.68.8-15.16-.37-22.52-2.5a5.7,5.7,0,0,0-3.17-.43c1.78,4.3,3.55,8.36,5.12,12.5a4.72,4.72,0,0,0,3,2.93,30.52,30.52,0,0,0,23.62-.2A42,42,0,0,1,499,779.51a52,52,0,0,1,17.47,4.2ZM630.17,767.5c-4,1-7.4,2-10.87,2.62-6.63,1.2-13.31,1.65-20,.22a67,67,0,0,0-12.64-1.25c-10.27-.23-18.6,3.84-25.47,11.17-1.72,1.85-3.61,3.68-4.8,6.52,1.51-.63,2.6-1.07,3.67-1.54a57.6,57.6,0,0,1,19.34-5.14,43.27,43.27,0,0,1,18.27,3,33.58,33.58,0,0,0,12.36,2.63,35,35,0,0,0,12.64-2.75,2.81,2.81,0,0,0,1.5-1.21C626.19,777.14,628.08,772.5,630.17,767.5Zm-26-12.55a193.11,193.11,0,0,1-59.22-50.08,38.14,38.14,0,0,0-.58,6.24c0,4.59.3,9.16,3.45,12.85a102.24,102.24,0,0,0,8.47,9.06c10.71,9.88,22.85,17.84,35.08,25.66a3.16,3.16,0,0,0,1.87.61A22.86,22.86,0,0,0,604.14,755Zm-129.56-.58a25.78,25.78,0,0,0,10.3,4.17,4.19,4.19,0,0,0,2.76-.56c10.08-6.43,20.07-13,29.34-20.59a80,80,0,0,0,13.64-13.52c1.77-2.34,3.23-4.83,3.46-7.74.3-3.73.2-7.49.23-11.25,0-.19-.33-.38-.69-.78C518,725.48,497.83,741.36,474.58,754.37Zm113.28-380.1c1.06-2.37,3.21-3.86,3.95-6.43-4.64.32-9,.7-13.45.92a26,26,0,0,1-9-.83,146.32,146.32,0,0,0-14.64-3.5c-3.44-.67-6.78.26-10,1.32V377a6.1,6.1,0,0,0,1.35.13c6-.91,11.92-1,17.73,1l.28.09c8.14,1.87,16.31,2.82,24.58.79,1.28-.31,2.53-.75,4.24-1.26Zm22,375.91c-4.65-2.84-8.91-5.34-13.06-8-13.32-8.51-25.45-18.45-35.58-30.62-5.05-6.06-9.58-12.56-14.36-18.85-.6-.79-1-1.85-2.3-2.36-.24,4.84.59,9.1,3.42,12.79,1.69,2.19,3.5,4.28,5.29,6.39,11.31,13.32,23.82,25.33,38.57,34.83,4.79,3.08,9.75,5.9,14,8.47Zm38.2-26.89-48.82-38.56c-.43.93-.84,1.82-1.24,2.71s-.8,1.75-1.29,2.84l48.37,39.46C646.22,727.28,647.17,725.24,648.07,723.29Zm-214.48,5.58c16.57-12.94,32.7-25.91,48.32-39.39-.46-1.16-.79-2.09-1.21-3s-.88-1.67-1.23-2.31L430.8,722.73C431.63,724.55,432.54,726.57,433.59,728.87Zm100.59-38.55-.62-.28c-1.62,2.21-3.31,4.37-4.85,6.64A157.16,157.16,0,0,1,502.89,726,183.17,183.17,0,0,1,473,747.26c-1.24.72-2.45,1.49-3.93,2.39l3.4,3c5.12-3.22,10.18-6.29,15.13-9.53a168.14,168.14,0,0,0,33-28.31c3.63-4,7.07-8.24,10.42-12.51C533.73,698.78,534.43,694.63,534.18,690.32Zm10.89,47.17-.53.28c0,4.81,0,9.61,0,14.42a2.33,2.33,0,0,0,.86,1.44,131.38,131.38,0,0,0,20.75,14.76l10-5C565.09,755.51,554,747.8,545.07,737.49Zm-10.85-.18-.6-.28c-8.87,10.39-20.06,18-31.05,26l10.08,4.81c1.32-.81,2.8-1.61,4.16-2.57,5.15-3.65,10.3-7.3,15.38-11,1-.71,2.09-1.42,2.06-3C534.17,746.56,534.22,741.94,534.22,737.31Zm0-12-.58-.14c-.27.28-.55.54-.79.84a100.18,100.18,0,0,1-14,14.39,196.9,196.9,0,0,1-25.57,18.11A21.8,21.8,0,0,0,491.4,760c1.87.52,3.3.9,4.71,1.33a4.76,4.76,0,0,0,4.66-.81c6.72-5.16,13.68-10,20.24-15.38,4.32-3.55,8.11-7.75,12.09-11.71a3.43,3.43,0,0,0,1.06-2C534.3,729.41,534.21,727.36,534.21,725.32Zm53.71,35.29c-16.31-9.89-31.14-20.55-43.11-34.91a49.42,49.42,0,0,0-.32,5,4.27,4.27,0,0,0,1.44,3.67c3.25,3,6.18,6.44,9.63,9.21,7.62,6.12,15.46,12,23.26,17.86a3.57,3.57,0,0,0,2.44.65C583.26,761.82,585.22,761.25,587.92,760.61Zm21.9-54.48c-.72-.83-1.13-1.25-1.49-1.71a3.26,3.26,0,0,0-4.4-1.06,14.12,14.12,0,0,1-3.44.79c-2.17.35-3.72-.46-4.33-2.54a48.93,48.93,0,0,1-.94-5.68c1.94,1.22,3.19,2.85,5.56,1.5l-5.64-5.11c-1.46,1.65-2.63,3.11-4,4.42a3.23,3.23,0,0,0-1,3.18,17.61,17.61,0,0,0,4.25,9c3.38,3.65,7.36,4.23,11.07,1.53A40.45,40.45,0,0,0,609.82,706.13ZM483.9,691.64l-5.65,5.29c2.37,1.28,3.57-.55,5.27-1.3a30.14,30.14,0,0,1-.45,4c-1,3.83-3.37,5.1-7.15,3.87-1.1-.36-2.17-.86-3.34-1.32l-3.65,3a35.52,35.52,0,0,0,4.07,4.19c3.78,2.76,7.82,2.61,11.25-.67a13.45,13.45,0,0,0,3.89-6.51c1.18-4.56,1.19-4.53-2.13-7.91A32.92,32.92,0,0,1,483.9,691.64ZM541,397.22v-3.41c0-10,0-19.93,0-29.9,0-1.44.1-2.68,1.48-3.57.51-.32.69-1.15,1.16-2H535.4c.13.71.07,1.43.34,1.59,2,1.23,1.65,3.18,1.65,5v32.27ZM544.77,770c-.7,5.89-.67,18.2,0,20.64L556,777ZM523,776.42l11,13.41c.68-3.32.55-18.48-.08-20.27ZM640.15,741l.68-.43c-.17-.48-.19-1.09-.51-1.4-.85-.82-1.84-1.49-2.73-2.26q-9.86-8.48-19.69-17c-2.81-2.43-5.57-4.93-8.21-7.27-1.33.3-1.34,1-1.27,1.86.41,5.15,3.59,9.17,8.79,10.14a15.59,15.59,0,0,1,7.63,4c3.29,2.83,6.69,5.51,10.06,8.24C636.63,738.25,638.4,739.61,640.15,741ZM438,739.66l.55.56c.63-.43,1.3-.82,1.89-1.29,5-4,10-8,14.92-12.12a9.8,9.8,0,0,1,5.43-2.59c5.43-.56,9-4.69,9.6-10,.06-.56-.17-1.5-.53-1.66a2.08,2.08,0,0,0-1.75.46c-1.6,1.3-3.09,2.74-4.65,4.1q-12.15,10.59-24.3,21.17A11.24,11.24,0,0,0,438,739.66Zm40.43-63.88c-4.76-1.65-8.76-.51-11,3.23a18.36,18.36,0,0,0-2.38,11.87c3.62-1.15,3.62-1.15,4.41-4.38.86-3.5,3.18-5.49,6.49-5.51l-2.08,2.9.43.43,5.09-3.26C479.06,679.11,478.74,677.39,478.44,675.78Zm135.63,16.15a71.38,71.38,0,0,0-.94-8.17c-1.61-6.71-6.46-9.5-12.7-7.35a29.9,29.9,0,0,0-.73,3.92,2.63,2.63,0,0,0,.77,2A41.71,41.71,0,0,0,604.6,685l.46-.42-2.27-3.27c3.78.57,6.13,2.45,6.55,5.84C609.68,689.77,611.31,690.66,614.07,691.93Zm-152.63-1.75c-4.45-2-8.15-1.07-10.95,2.69a17.1,17.1,0,0,0-3,7.62,10.75,10.75,0,0,0,0,5.38l3.37-2.13c.85-6,2.3-8,6.43-8.62l-1.49,3.48.6.29C459,696.63,463.22,695.41,461.44,690.18Zm53.84,80c1.11,1,2,1.75,2.81,2.56a1.93,1.93,0,0,0,2.4.35,50.8,50.8,0,0,0,12.79-7.81,2.66,2.66,0,0,0,.89-1.69c.12-1.91.05-3.83.05-6.54A76.27,76.27,0,0,1,515.28,770.22ZM617.69,690.7c-.84,4.89-.23,5.94,5.46,8.89l-1.7-4.06c5,1.09,6.24,4.57,6.38,9,1.38.23,2.08,1.8,3.76,1.54a20.43,20.43,0,0,0-3-12.22C625.83,689.53,622.22,688.54,617.69,690.7Zm-5.63,19.64c10,8.94,20.38,16.87,30.68,25.39l1.06-3.06-30.24-24.08ZM465.12,708l-30,24.21c.19.51.33,1,.54,1.42a14.68,14.68,0,0,0,.79,1.31l30.43-25.06Zm98.19,63.09c-3.49-2.17-6.67-4-9.65-6s-5.82-4.47-9.14-7c0,2.34-.12,4.1.06,5.83a3.11,3.11,0,0,0,1.18,2.12c4.51,2.82,9.09,5.51,13.85,8.36Zm-96.94-96.22c.4-.48.84-.78.93-1.15C470,662.87,472.47,652,474.53,641a1.62,1.62,0,0,0-1.12.86C471.65,646.8,466,672.76,466.37,674.83ZM482,660.26c1-.65,1.59-.84,1.76-1.23a12.21,12.21,0,0,0,.62-2.57c1-5.31,2-10.63,2.93-15.94.42-2.28.79-4.57,1.24-7.19-.79.19-1.44.16-1.57.41a8.07,8.07,0,0,0-.69,2.22q-1.73,9.12-3.38,18.26C482.53,656,482.31,657.83,482,660.26Zm114.61.24a17.38,17.38,0,0,0,0-2.37c-.84-4.55-1.74-9.1-2.58-13.65-.54-2.91-1-5.83-1.56-8.73-.17-.89-.25-2-2.12-1.56,1.65,8.43,3.28,16.81,5,25.17C595.3,659.64,595.77,659.83,596.56,660.5Zm7.89-19-.5.22c.6,2.71,1.17,5.44,1.8,8.14.68,2.88,1.43,5.75,2.12,8.62s1.23,5.6,2,8.35,1,5.66,2.43,8.16c.33-1.66-6.07-30.72-7-32.85C605.13,641.83,604.72,641.68,604.45,641.47Zm25.17-248v.24h3v-.24Zm7.8.8v-.13L635,394v.26ZM448.5,393.09l.09-.34-2.38.17,0,.26Z"/><path class="cls-2" d="M536.8,608.23h-3.4c0-3.91,0-7.74,0-11.56,0-1.08.2-2.16.21-3.24q.12-12,.21-24l.39-46.28c0-1.47,0-3,0-4.8l-3.36-.5V521c-.07,7.62.09,15.25-.25,22.85-.77,17.55-2.22,35-5.63,52.3-.71,3.58-1.37,7.18-2.15,10.74-.56,2.57-.7,2.59-4.05,2.14a313.24,313.24,0,0,0,7.7-45.68c1.44-15.32,2.11-30.68,2.44-46.21L525.54,516c-.1,1.07-.2,1.82-.22,2.57-.21,9.09-.24,18.19-.66,27.26-.34,7.39-.86,14.78-1.81,22.1-1.24,9.68-2.9,19.31-4.55,28.92-.75,4.37-1.92,8.66-2.91,13L505,611.2c-.92-4.68-1.93-9.09-2.65-13.54-1.83-11.29-3.64-22.59-5.23-33.91-.92-6.54-1.51-13.13-2.06-19.71q-1.06-12.82-1.8-25.67c-.51-9-1-17.94-1.16-26.91q-.44-22.54-.4-45.09c0-9.58.33-19.17.58-28.75.05-2,.38-4.08.6-6.27h93.33c.16,2.12.39,4.23.46,6.35q.65,17.16,1.2,34.33c.18,5.63.41,11.26.37,16.88-.07,7.81-.28,15.61-.59,23.41-.28,7.09-.66,14.19-1.19,21.27-1.52,20.25-3.52,40.46-6.55,60.55C578.12,586,576,597.88,574,609.74a12,12,0,0,1-.57,1.62l-9.26-1.49c-8.2-30.64-9.85-62-10.19-93.78l-3.59,1.34c.17,2,.39,4,.46,5.9.13,3.26.12,6.53.23,9.79a399.17,399.17,0,0,0,5.4,56.49c1,5.73,2.4,11.39,3.61,17.09l.57,2.7-4.3-.46c-6.86-29.93-8.74-60.08-8.42-90.69-.62.09-1.15.14-1.67.24s-1,.21-1.62.36c0,.65-.12,1.31-.12,2q.19,20.76.4,41.53c.08,8.41.1,16.81.21,25.22.08,5.83.26,11.65.38,17.48,0,1,0,1.94,0,3.11h-3V517.47h-5.63c-.19,3.31-.07,6.64-.09,9.95s0,6.73,0,10.1v70.71Zm12.78-150.18a10.8,10.8,0,0,1,1.91-.12,4.66,4.66,0,0,0,4.82-2.19,78.22,78.22,0,0,0,5.44-8.08,26.23,26.23,0,0,0,2.71-18.09c-.67,1.83-1.11,3-1.53,4.19a55,55,0,0,1-8.27,16,5.48,5.48,0,0,1-4.73,2.31c-2.44,0-4.85-1.23-7.31-.17-.09,0-.3-.18-.57-.35-.07-1.47-.16-3-.25-4.71h-3.91c-.08,1.75-.15,3.3-.24,5.34L534.4,451a1.61,1.61,0,0,1-.84.45,29.68,29.68,0,0,1-6.69.4c-1.1-.14-2.14-1.58-3-2.6-4-4.83-6.12-10.54-7.34-16.63a7.52,7.52,0,0,0-.53-1.33,19,19,0,0,0-.68,5.35c-.05,6.4,1.48,12.32,5.49,17.44,1.94,2.47,4,4.66,7.64,3.91.34-.07.74.15,1.49.32L527.56,465c2.78-.13,5.23.4,7.91-.44V458l2.15.12v9.4c-1.4.22-2.74.48-4.09.65-3,.38-6.07.69-9.09,1.11-.48.07-.88.61-1.81,1.29a14.19,14.19,0,0,0,2.07.41q15,0,30,0a5.13,5.13,0,0,0,1.49-.53c-.13-.39-.17-.72-.26-.74-4.54-.66-9.08-1.3-13.78-2V458l2.27.15v6.7h7.2C550.92,462.52,550.3,460.47,549.58,458.05Zm-21.81,53.63a104.35,104.35,0,0,1,5.39-9.38c2.59-3.63,6.45-4.6,10.52-3.22A9.88,9.88,0,0,1,549,504c.92,1.64,1.65,3.38,2.56,5,.53,1,1.25,1.85,2.2,3.23a30.71,30.71,0,0,0,1.35-2.91c1.31-4.11-1.66-12.33-6.38-14.9a6.86,6.86,0,0,0-6.55-.16c-.87.42-1.73.88-2.49,1.27-5.62-3-9.11-.76-11.39,2.32a14.68,14.68,0,0,0-2.71,5.52C525,506.39,524.44,509.74,527.77,511.68Zm3.74-22.84c1.65-2,3-3.48,3.4-5.63-2.12-1.27-4.73-1.83-5.48-4.73h8c.4,2.49.31,4.31-.91,7.94a4.14,4.14,0,0,0,.51,4.14c.45.62.81,1.31,1.26,2a5.88,5.88,0,0,0,2.07-.33c1.37-.8,2.45-4.07,2.11-5.78-.53-2.58-1-5.17-1.57-8h9c-1.05,2.95-3.78,3.52-5.86,4.83.32,2.39,1,4.44,3.28,5.53,3.64-4.91,5.21-10.22,4.15-14.33-8,.06-16.18-.14-24.46.14A31.06,31.06,0,0,0,531.51,488.84Zm-3,2.85c-1.84-5.71-3.47-10.72-5.15-15.91-.28.39-.6.65-.69,1-1.45,5.12-3,10.21-4.23,15.38a51.22,51.22,0,0,0-.84,8.5c-.07,1.17.13,2.4,1.75,2.9C523.59,500.31,525.59,495.34,528.54,491.69Zm27.66-15.64-.86-.14c.24,5.74-1.66,10.77-4.7,15.46a33.94,33.94,0,0,1,7.74,10.68,3.36,3.36,0,0,0,2.92,2.18c1.14-.94.9-2.12.65-3.29q-2.51-11.7-5.06-23.4A7.68,7.68,0,0,0,556.2,476.05Zm-16,37.28h4.15a5.86,5.86,0,0,0,.59,0c2.09-.25,3-1.31,2.59-3.39a10.55,10.55,0,0,0-1.17-3.31c-2.29-4.12-3.37-4.65-8-4.15a2.4,2.4,0,0,0-1.55.61A38,38,0,0,0,533,509c-1.07,2.34.17,4.09,2.74,4.28C537.21,513.42,538.69,513.33,540.17,513.33Zm18.38-48.11c1.67-1.7,3.26-3.14,4.63-4.77,3.5-4.15,3.31-2.92.86-7.84-.13-.26-.24-.53-.47-1-3,3.38-5.57,6.38-8.28,9.49Zm-38.67-1.17,3.69-4.12-7.79-9.28c-.91,2-1.7,3.72-2.48,5.41Z"/><path class="cls-2" d="M629.52,641.21l-22.4-16.1C622.88,555.06,631.77,484.2,628,412h36.74a28.91,28.91,0,0,1,.13,2.9c-.37,6.3-.74,12.6-1.17,18.89-.48,7.08-1,14.16-1.54,21.24-.26,3.64-.44,7.28-.75,10.92-.76,8.84-1.38,17.69-2.41,26.5-1.76,15.08-3.49,30.17-5.79,45.16-2.27,14.72-5,29.39-8,44-3.58,17.51-8.2,34.78-13.37,51.9C631.15,635.89,630.4,638.32,629.52,641.21Z"/><path class="cls-2" d="M449.29,640.38c-1.16-4-2.37-7.7-3.33-11.5C442.24,614,438.25,599.25,435,584.3c-3.34-15.52-6.14-31.17-8.77-46.83-2.06-12.24-3.63-24.58-5.18-36.9-1.1-8.8-1.84-17.65-2.66-26.48s-1.57-17.67-2.24-26.52c-.53-7.08-.88-14.17-1.34-21.26-.29-4.32-.65-8.64-1-13a15.07,15.07,0,0,1,.14-1.95h36.35a10.39,10.39,0,0,1,.3,1.88c-.2,7.51-.49,15-.64,22.51-.11,5.84-.08,11.68-.09,17.51,0,1.28.1,2.57.15,3.85.33,8.08.59,16.17,1,24.25.38,7.59.7,15.18,1.43,22.74,1.12,11.77,2.31,23.55,3.94,35.25q3.19,22.86,7.18,45.59c2.14,12.14,4.81,24.2,7.41,36.26.52,2.38.12,3.71-2,5.13-6.12,4.19-12,8.66-18,13C450.59,639.7,450.07,639.94,449.29,640.38Z"/><path class="cls-2" d="M603.57,623l-26-10.43c13.57-66.26,16.2-133.12,12.47-200.75,11.34-.1,22.44,0,33.8-.06A834.82,834.82,0,0,1,603.57,623Z"/><path class="cls-2" d="M455.05,411.34H489a727.38,727.38,0,0,0-.77,101,736.32,736.32,0,0,0,13.06,99.79l-25.64,10.32c-.34-1.37-.63-2.49-.89-3.62-4.35-18.95-7.95-38-10.58-57.31-1.77-13-3.29-26-4.75-39-.79-7-1.27-13.94-1.8-20.91-.46-6.1-.91-12.2-1.17-18.3-.48-11.05-.94-22.09-1.18-33.14-.27-12.46-.29-24.91-.41-37.37A10.84,10.84,0,0,1,455.05,411.34Z"/><path class="cls-2" d="M383.1,411.34h26.15c.14,1.28.35,2.52.41,3.77.23,5.32.3,10.66.65,16,.62,9.44,1.37,18.87,2.11,28.3.43,5.5.81,11,1.42,16.5,1.22,11.06,2.44,22.13,3.93,33.16,1.64,12.11,3.4,24.22,5.47,36.26,2.21,12.83,4.7,25.62,7.35,38.37,4.07,19.62,8.88,39.07,14.28,58.37a2.89,2.89,0,0,1-.71,3.17c-4.53,4.95-8.94,10-13.41,15-.11.12-.36.12-.81.26C402.43,579.8,386.52,496.94,383.1,411.34Z"/><path class="cls-2" d="M669.43,411.93h26.23c-3.31,85.5-19.22,168.44-46.93,249.67-1.81-2-3.32-3.66-4.8-5.33-2.95-3.33-5.8-6.74-8.88-9.95a3.86,3.86,0,0,1-.94-4.22q3.51-12.86,6.85-25.76c5.63-21.9,10.54-44,14.33-66.26,2.83-16.61,5.12-33.33,7.39-50,1.27-9.37,2.11-18.81,3-28.22.72-7.66,1.28-15.33,1.79-23,.48-7.38.81-14.77,1.2-22.16C668.91,421.86,669.16,417,669.43,411.93Z"/><path class="cls-2" d="M500.92,674.68a12.66,12.66,0,0,1-.08,9.15c-1.69,4.31-7.78,5.11-10.71,1.42A15.65,15.65,0,0,1,487.21,670c.8-2.47,2.43-4.18,5.27-4.35A47.81,47.81,0,0,0,490,671a9,9,0,0,0,1.2,7.93c2,3.09,5,3.21,7.26.25A36.79,36.79,0,0,0,500.92,674.68Z"/><path class="cls-2" d="M585.89,666.35a5.64,5.64,0,0,1,5.22,3.1c2.52,4.27,1.27,13.51-3.15,16.9-3.5,2.69-8,1.88-10-2-1.46-2.8-1.17-5.63,0-9,.69,1.41,1.1,2.38,1.61,3.3.94,1.68,2,3.29,4.24,3.19s3.54-1.59,4.4-3.48a10.29,10.29,0,0,0-.74-9.92C587.07,667.83,586.61,667.31,585.89,666.35Z"/><path class="cls-2" d="M516.35,654.18c.7,5.49,1.23,6,4.75,4.85.26,2.66-.25,4.12-1.56,4.51s-3.17-.88-4-2.81C514.53,658.56,514.36,656.43,516.35,654.18Z"/><path class="cls-2" d="M557.32,659.44c3.62,1.64,4.39.85,5.06-4.66,1.48.58,1.7,1.81,1.71,3.07a7.48,7.48,0,0,1-2.28,5.3c-1.73,1.8-3.42,1.35-4.14-1.06A18.09,18.09,0,0,1,557.32,659.44Z"/><path class="cls-2" d="M552.53,645c4.31.48,4.41.41,5.16-3.33,1.39,1.26,1.11,2.57.49,3.94s-1.62,2.78-3.39,2.89a2.23,2.23,0,0,1-1.59-1A9.87,9.87,0,0,1,552.53,645Z"/><path class="cls-2" d="M521,641.1c1.22,3.61,1.37,4.47,4.92,3.32a6.33,6.33,0,0,1,0,2c-.64,1.72-2,2.07-3.51,1A4.89,4.89,0,0,1,521,641.1Z"/><path class="cls-2" d="M525.09,627.13c.24,1.36.43,2.47.65,3.76l2.76-.33c.11.19.3.37.27.49-.3,1.08-.83,2.27-2.09,1.91a4.59,4.59,0,0,1-2.23-2C523.83,630,524.07,629.28,525.09,627.13Z"/><path class="cls-2" d="M550,631l3.1.51c.22-1.31.41-2.47.64-3.91a3.59,3.59,0,0,1,.4,4.5,3.46,3.46,0,0,1-2.3,1.52C550.36,633.74,550.39,632.29,550,631Z"/><path class="cls-2" d="M427.18,305a33.93,33.93,0,0,1,4.28-16.18c5.67-9.84,16.23-11.74,25.54-4.72,6.05,4.56,9.65,10.85,11.45,18.16a51.11,51.11,0,0,1,1.22,6.08,33.51,33.51,0,0,1-3.55,20.05c-6.38,12.06-19.95,12.35-28.06,4A35.08,35.08,0,0,1,427.9,311.2C427.69,309.14,427.42,307.09,427.18,305Z"/><path class="cls-2" d="M692.92,306.8V278.92c5.87-1.2,11.38-1.2,15.92,3.36a13.56,13.56,0,0,1,.09,18.5A20.15,20.15,0,0,1,692.92,306.8Z"/><path class="cls-2" d="M354.39,306.58V279.07c7.3-2.71,14.11-.77,17.88,5a13.39,13.39,0,0,1-1.72,16.82C366.16,305.38,360.7,306.67,354.39,306.58Z"/></g></svg>