<svg xmlns="http://www.w3.org/2000/svg" viewBox="0 0 1080 1080"><defs><style>.cls-1{fill:#f6f6f6;}.cls-2{fill:#c3c3c3;}</style></defs><g id="background"><rect class="cls-1" y="1079" width="1" height="1"/><rect class="cls-1" width="1" height="1"/><rect class="cls-1" y="1079" width="1" height="1"/><rect class="cls-1" x="1079" width="1" height="1"/><rect class="cls-1" x="1079" y="1079" width="1" height="1"/><rect class="cls-1" x="1079" y="1079" width="1" height="1"/></g><g id="Capa_1" data-name="Capa 1"><path class="cls-2" d="M907.32,544.68C902.51,526,892.05,510.61,878.81,497c-20.89-21.51-46-36.87-72.9-49.53-55.39-26.07-114.06-40.06-174.59-47.09-4.46-.52-4.47-.41-2.23-4.49,9.93-18.08,19.9-36.12,29.76-54.23,3.79-6.95,2.14-10.31-5.07-11.09-15.72-1.7-31.51-2.41-47.3-2.85a882.57,882.57,0,0,0-140,7.66c-38.39,5.06-76.29,12.39-113.34,23.74-38.79,11.89-76.05,27.22-110,49.74-19.52,12.93-37.46,27.64-51.45,46.67-12.27,16.7-20.09,35.16-21.44,56s5.58,38.94,17.39,55.56c16.44,23.14,38.27,40.09,62.85,53.65,50.18,27.67,104.2,43.85,160.56,52.78,13.9,2.2,27.87,4,42.08,6-4.9,9-9.73,18-14.6,26.9-6.08,11.12-12.26,22.2-18.28,33.36-3.24,6-1.32,9.56,5.11,10,19,1.35,38,2.29,57,2.69,51.32,1.08,102.27-3.22,153-11.08,37.43-5.8,74.22-14.27,110.07-26.56,36.83-12.63,71.93-28.76,103.39-52,19.76-14.61,37.16-31.48,49.16-53.24C909.06,589.15,913.23,567.59,907.32,544.68ZM725.19,421.84c17.39,5.07,34.74,10.26,51.58,17C790.43,444.36,804,450,817,457.07c9.19,5,18.08,10.44,26.81,16.25a242.71,242.71,0,0,1,25.94,20.4c-1.58,1.1-1.86,2.1-.26,3.61A124,124,0,0,1,881,509.9c8.19,10.27,14.86,21.35,18.29,34.15,1.21,4.51-.29,6.69-4.91,7.18-1.77.18-3.56.09-5.34.1-19.48.08-39,.13-58.43.27-2.9,0-6.08-.24-7.72,3.1-1.75,1.22-1.58,3.28-2.11,5-5.46,17.66-15.92,32.1-28.82,45a189.64,189.64,0,0,1-33.19,26.36,294.58,294.58,0,0,1-66.64,31.07c-5.77,1.86-11.54,3.69-17.32,5.53a9.46,9.46,0,0,0-3.48.54c-14.9,4.19-30.11,7.07-45.28,10-8.45,1.64-17.16,1.91-25.71,3.07a341.7,341.7,0,0,1-40.68,3.5c-22,.36-43.93.3-65.87-.84-5.08-.26-10.23-.06-15.25-.87a7.13,7.13,0,0,0-7.65,3.07c-5.25,7.12-10.38,14.34-16,21.2-1.53,1.89-2.41,5.69-6.45,4.4q6.28-8.37,12.54-16.72c.44-.6,1.59-1.15.77-2-2.62-2.86-2-6.7-3.17-10-.45-1.21-.22-3-2.3-3.07a5.93,5.93,0,0,0,1.3-2.91c4.73-5.85,6.55-13.46,11.88-19.62-3.82-.44-7.43-.75-11-1.27A507.63,507.63,0,0,1,404,645.55c-34-8.86-66.86-20.69-97-39.22-14.4-8.87-27.34-19.4-36.81-33.69-.58-.86-1.68-1.8-1.12-2.77s2-.43,3-.43q16-.09,32-.1a12.73,12.73,0,0,0-.73-1.87c-6.3-10.64-9.78-21.88-7.69-34.41A55.11,55.11,0,0,1,304,511.92c.71-1.1,1.58-1.73,2.92-1a49.28,49.28,0,0,0-9.29,24.48c-1.24,12.76,2.82,24.4,10.45,34.79,10.92,14.86,25.6,25,41.5,33.77,15.18,8.36,31.23,14.57,47.68,19.86a405.26,405.26,0,0,0,47.26,11.75c8.43,1.63,17,2.81,25.6,3.85,7.71.94,15.44,1.87,23.14,2.6,11.15,1.06,22.4,1.16,33.6,1.41,8.79.2,17.6.32,26.36-.1,7.08-.35,14.24.26,21.2-.6,13.74-1.69,27.6-2.2,41.28-4.67,9.8-1.76,19.7-3,29.42-5.2,8.14-1.84,16.22-3.91,24.27-6.12A283,283,0,0,0,725.53,605c13.83-7.19,26.74-15.74,37.49-27.17,9.19-9.77,15.8-21,16.9-34.66,1.14-14.16-4.16-26.26-12.83-37.11-1.4-1.75-2.88-3.42-4.32-5.13a2.77,2.77,0,0,1,3.45.72c12,13.57,18.81,28.85,15.72,47.45-.72,4.3-.47,4.51,3.86,4.53,10.81.06,21.61,0,32.41.2,1.24,0,1.23-.28,1.41-1.21a59.25,59.25,0,0,0,.7-14.39c-.46-11.48-4.88-21.44-11.21-30.79-5.07-7.49-11.29-13.9-17.9-20-.51-.46-1.64-1.15-1.21-1.52,3-2.6-.58-2.78-1.4-3.5-2.33-2.08-5-3.85-7.47-5.7a201.17,201.17,0,0,0-21.78-13.39c-10.55-5.83-21.74-10.28-32.81-15-3-1.28-6-2.85-9.34-3.14-9-3.26-18-6.78-27.39-8.7a4.68,4.68,0,0,1-1.21-.67A54.59,54.59,0,0,1,699,417.25c-.37-.35-1.58.58-2.41.14-2.06-1.07-5.49-.22-5.76-3.92C702.28,416.16,713.85,418.54,725.19,421.84ZM678.86,459c24.91,7.73,48.74,17.81,69.68,33.77,8.07,6.15,15.3,13.18,20.73,21.85,10.46,16.7,10.6,33.54.13,50.25-7.86,12.55-19.08,21.67-31.42,29.5-24.28,15.4-51,24.9-78.69,31.91a463.14,463.14,0,0,1-89.29,13A542.53,542.53,0,0,1,480.69,637c-41.19-4.63-81.35-13.36-119-31.3-17-8.11-33-17.87-45.58-32.26-9.13-10.42-15-22.19-14-36.5.88-13.09,7.25-23.63,16-32.91,13.14-14,29.36-23.51,46.58-31.47,27.82-12.87,57.17-20.64,87.29-25.79a515,515,0,0,1,87.92-7.24C587,439.7,633.58,444.91,678.86,459ZM177.51,541.63c-5.66-15.54-5.65-31.33-1.56-47.2,4.67-18.11,14.1-33.65,26.51-47.4,19.75-21.9,43.91-37.95,69.77-51.65,1.35-.72,2.72-1.41,4.08-2.12.8.52.76,1.33.75,2.12a6.18,6.18,0,0,0,3.27-1.07c7.41-3.67,14.8-7.37,22.5-10.38,2-.79,3.41-1.67,2.15-4.07,35.85-15,73-25.42,111.1-33,21.21-4.21,42.56-7.4,64-9.88,41.07-4.73,82.24-7.38,123.62-5.93,15.31.54,30.61,1.13,45.88,2.35,1.77.14,3.52.48,5.28.73.3,1.38-.69,2.16-1.38,3.11q-5.71,7.88-11.4,15.77h0C631.6,367,621,380.82,610.63,394.8c-2.75,3.71-6,5.1-10.64,4.82-24.64-1.45-49.28-2.78-74-1.54-15.4.77-30.76,1.8-46,3.86-39.92,5.39-79.18,13.55-116.64,29-25.13,10.33-48.54,23.46-69.09,41.43A156.7,156.7,0,0,0,275,493.21c-1.57-1.07-2.46-.94-3.67.91a100.56,100.56,0,0,0-11.92,24.81,5.85,5.85,0,0,1-4.23,4.25,19.32,19.32,0,0,1-6,.59q-32.57,0-65.14,0a28.26,28.26,0,0,0-4.59.4,3.18,3.18,0,0,0-2.82,4.14c.31,1.57.18,3.32,1.31,4.68,1.59,9,5.68,16.91,10.22,24.65A101.8,101.8,0,0,0,198,571.48a3.38,3.38,0,0,1-2.24.78A100,100,0,0,1,177.51,541.63ZM365.71,658l-.15-.08.15.08Z"/></g></svg>