<svg xmlns="http://www.w3.org/2000/svg" viewBox="0 0 1080 1080"><defs><style>.cls-1{fill:#f6f6f6;}.cls-2{fill:#c3c3c3;}</style></defs><g id="background"><rect class="cls-1" y="1079" width="1" height="1"/><rect class="cls-1" width="1" height="1"/><rect class="cls-1" y="1079" width="1" height="1"/><rect class="cls-1" x="1079" width="1" height="1"/><rect class="cls-1" x="1079" y="1079" width="1" height="1"/><rect class="cls-1" x="1079" y="1079" width="1" height="1"/></g><g id="Capa_1" data-name="Capa 1"><path class="cls-2" d="M245.1,651.75c7,.34,13.45.62,19.89,1,8.2.45,16.4,1,24.6,1.44,9.29.52,18.57,1,27.85,1.47,7.41.35,14.83.57,22.24.86,12.66.51,25.32,1,38,1.52,4.18.16,8.37.24,12.55.33,11.73.26,23.47.57,35.2.76,18.49.3,37,.59,55.47.76,33.49.3,67,.48,100.47.79,17.41.16,34.82.58,52.24.7,10.07.07,20-1,28.95-6.18,3.57-2.06,6.72-4.9,9.94-7.53.95-.79,1.47-2.09,2.58-3.73L245,570.48V499.25q295.1,54.64,589.94,109.9c0,2.69,0,4.83,0,7q-.48,19.83-1,39.65c-.23,8.76-.36,17.53-.77,26.28-.68,14.54-1.3,29.08-2.43,43.59a93.41,93.41,0,0,1-7.21,29c-5.2,12.43-13.87,21.68-25.35,28.54-10.86,6.48-22.74,9.75-35.09,11.73a402.16,402.16,0,0,1-43.82,4.42c-13.86.68-27.71,1.56-41.57,2.24-7.81.38-15.63.56-23.45.81-15.78.51-31.55,1.07-47.33,1.48-9.31.24-18.63.32-27.94.35-20.67,0-41.34.15-62,0-20-.17-40-.58-59.92-1.06-14.56-.35-29.12-.94-43.68-1.52q-20.81-.82-41.61-1.86c-13.18-.67-26.36-1.45-39.54-2.27-15.87-1-31.74-2-47.59-3.19-6.72-.52-13.38-1.52-19.74-4.09-6.68-2.69-11.06-7.29-12.06-14.48s-1.76-14.71-2.33-22.09c-.91-11.82-1.64-23.66-2.33-35.5-.47-8.07-.74-16.16-1.12-24.24q-.66-14.13-1.35-28.26c-.15-3.1-.42-6.18-.58-9.28C245,654.85,245.1,653.4,245.1,651.75Z"/><path class="cls-2" d="M834.57,418c-5.85,0-11.11.17-16.35,0-8.89-.35-17.76-.95-26.64-1.43-9.69-.51-19.38-1-29.07-1.49-9.43-.44-18.86-.78-28.29-1.17-11.71-.47-23.43-1-35.15-1.42-8.63-.32-17.26-.62-25.88-.83-12.42-.31-24.83-.53-37.24-.8-11.47-.25-22.93-.64-34.4-.74q-35.87-.33-71.72-.4-26.94,0-53.87.41c-12.95.19-25.9.59-38.84,1.09-9.1.35-18,1.82-26.08,6.4-3.65,2.06-7.06,4.4-9.29,8.69L835,506.75v63.4c-196.59-33.75-392.9-68.25-589.91-102,0-3.06-.07-6,0-8.92.2-6.46.54-12.92.71-19.39.3-11.19.3-22.4.82-33.58.81-17.63.28-35.34,2.75-52.88,1.52-10.72,3.91-21.19,8.83-31,6-11.94,15.21-20.47,26.84-26.63,10.76-5.69,22.4-8.55,34.33-10.37,15.34-2.35,30.81-3.32,46.29-4.11q19.79-1,39.59-1.83c13.05-.56,26.11-1.14,39.18-1.53,17.4-.51,34.84-.24,52.2-1.4s34.54-.59,51.8-.64c13.47,0,26.95.81,40.43,1.22,5.8.17,11.61.19,17.41.32,11.06.24,22.12.42,33.18.78,10.91.36,21.8.93,32.71,1.39,7.27.32,14.54.57,21.81.93,8.61.43,17.22,1,25.84,1.44,7.4.4,14.8.75,22.2,1.18,11.56.69,23.13,1.34,34.69,2.17,9.27.67,18.53,1.45,27.77,2.47a48.76,48.76,0,0,1,9.79,2.46c7.82,2.6,12.21,8.24,13.17,16.33Q829,319.79,830,333.11c.78,10.61,1.29,21.25,1.86,31.88s1,21.27,1.62,31.9c.3,5.51.74,11,1.07,16.53C834.65,414.86,834.57,416.32,834.57,418Z"/></g></svg>