<svg xmlns="http://www.w3.org/2000/svg" viewBox="0 0 1080 1080"><defs><style>.cls-1{fill:#f6f6f6;}.cls-2{fill:#c3c3c3;}</style></defs><g id="background"><rect class="cls-1" y="1079" width="1" height="1"/><rect class="cls-1" width="1" height="1"/><rect class="cls-1" y="1079" width="1" height="1"/><rect class="cls-1" x="1079" width="1" height="1"/><rect class="cls-1" x="1079" y="1079" width="1" height="1"/><rect class="cls-1" x="1079" y="1079" width="1" height="1"/></g><g id="Capa_1" data-name="Capa 1"><path class="cls-2" d="M539.67,865c-179,.62-324.59-145.12-324.67-325.56-.07-174.27,138.21-322,321.23-324.41C717.74,212.67,864.57,358.73,865,538.64,865.43,719.28,720.8,864.37,539.67,865Zm.18-27.65c163.69,0,297.25-132.82,297.43-295.82.17-165.59-132.75-299-297.84-298.93-164,.07-296.92,133.3-297.09,297.66C242.19,704.1,375.6,837.33,539.85,837.35Z"/><path class="cls-2" d="M458.25,294.27c13.81-3,27.48-7.15,41.44-8.68,18.95-2.08,38.1-2.41,57.18-2.84,3.8-.08,8.38,1.93,11.39,4.42,60.85,50.51,94.92,115.47,103,194,6,58.39-3.58,114.82-23.28,169.78-1.26,3.51-2.45,7-4.16,11.94,8.63,0,16.27.11,23.89-.12,1.17,0,2.46-1.58,3.39-2.68a10.81,10.81,0,0,0,1.25-3.07c5.7-14.87,5.69-14.84,21.47-10.82a135.85,135.85,0,0,1,58.63,31.79c1.15,1,2.22,2.18,3.27,3.32.27.29.3.8.59,1.64-9.92,10.79-21.61,19.76-35.13,25.54C709,713.65,696,716.94,683.33,721c-4.19,1.36-6.31-.38-7.89-4.51-5.38-14-5.54-13.91-20.39-13.91-73.18,0-146.37-.1-219.55.2-5.92,0-12.07,2.21-17.67,4.49-7.19,2.93-13.73,7.43-20.91,10.36-5.2,2.12-10.95,3.08-16.54,4-3.47.57-7.2-.42-10.65.2-14,2.54-23-3.78-31.15-14.71C325,688.88,312.49,670,302.71,649.46c-.83-1.73-1.35-3.61-2.36-6.37h7.86c21.58-.05,43.16-.31,64.73,0a46.27,46.27,0,0,1,15.47,3.29c9.54,3.66,18.8,8.06,28.14,12.22,11.15,5,18.64,5.87,33.15,3.4-.87-6.59-1.47-13.32-2.69-19.93-10.19-55.59-43.78-91.8-95.07-112.18-20.78-8.26-42.59-14-64.09-20.29-4.61-1.36-6.2-2.66-5.42-7.52,4.93-30.85,14.69-60,30.35-87.08,1-1.72,4.79-3.25,6.76-2.76,44,10.86,86.94,24.41,124.88,50.36,5.09,3.49,5.18,3.37,11.12-1-33-36-74.48-60.1-116.65-85.22,5.88-6.44,11.24-12.81,17.12-18.65a269.75,269.75,0,0,1,53.31-41c4.37-2.57,7.9-2.44,12.39-.46,29.6,13,54.28,33,77.57,54.8,13.46,12.61,26.2,26,38.88,39.41,4,4.26,7.44,4.79,12.55,1.09-21.84-45.66-55.18-81.92-92.55-115ZM584.13,632.71a32.36,32.36,0,0,0,.11-64.72c-17.84-.13-32.84,14.86-32.68,32.66A32.63,32.63,0,0,0,584.13,632.71Z"/></g></svg>