<svg xmlns="http://www.w3.org/2000/svg" viewBox="0 0 1080 1080"><defs><style>.cls-1{fill:#f6f6f6;}.cls-2{fill:#c3c3c3;}</style></defs><g id="background"><rect class="cls-1" y="1079" width="1" height="1"/><rect class="cls-1" width="1" height="1"/><rect class="cls-1" y="1079" width="1" height="1"/><rect class="cls-1" x="1079" width="1" height="1"/><rect class="cls-1" x="1079" y="1079" width="1" height="1"/><rect class="cls-1" x="1079" y="1079" width="1" height="1"/></g><g id="Capa_1" data-name="Capa 1"><path class="cls-2" d="M594.14,318.14c3.15-3.2,6.23-2.71,9.07-2.34a111.63,111.63,0,0,1,14.09,2.6c17.78,4.79,35.26,10.51,52,18.37.77.37,1.6.6,3,1.11-.35-1.69-.61-2.69-.76-3.72-.36-2.44.83-4,3.12-4.38a26.47,26.47,0,0,1,7.1-.35c13.63,1.6,26.68,5.74,39.21,11,14.9,6.26,29.31,13.7,43.92,20.66,1.65.78,3.22,1.72,4.83,2.59.3-.32.71-.56.69-.76-.64-6.38.4-7.58,6.85-6.58a47,47,0,0,1,11.13,3.06c36.34,15.53,68.9,36.53,95.13,66.51C895.89,440,906,455.74,911,473.93c6.1,21.92,5.76,43.59-5.19,64.38-12.55,23.84-30.47,42.74-52.47,58-17.06,11.82-35.65,20.58-55.14,27.58-29.84,10.73-60.57,18.27-91.44,25.25-30.68,6.94-61.49,13.28-92.24,19.9a43.32,43.32,0,0,0-5.9,1.41c-4,1.44-4.73,4.61-1.76,7.63,2.06,2.1,4.41,3.91,6.64,5.83,4.19,3.61,8.44,7.14,12.56,10.82,13.11,11.71,12.29,24.23-2.38,34A66.93,66.93,0,0,1,612,734.94a124.44,124.44,0,0,0-39.65,25.55c-9.52,9.18-21.57,12.47-34.54,11.92a48.48,48.48,0,0,1-33.53-14.68c-10-10-22.3-16.74-35.26-22.31a101.85,101.85,0,0,1-13.64-7.17,29.57,29.57,0,0,1-6.9-6.27c-4.88-5.86-5.52-12.44-1.57-19a42.07,42.07,0,0,1,7.42-8.8c5.11-4.76,10.55-9.18,15.86-13.74a32.49,32.49,0,0,0,2.49-2.19c3.15-3.29,2.46-6.59-1.88-7.95A100.68,100.68,0,0,0,460.62,668c-45.8-9.27-91.53-18.91-136.68-31-24.56-6.57-48.8-14.11-71.64-25.5-26.42-13.16-49.46-30.57-66.85-54.74A203.43,203.43,0,0,1,173.86,538c-8-14.13-9.67-29.49-8.54-45.42,1.64-23.2,12.11-42.6,25.92-60.48,16.18-21,36.53-37.27,58.83-51.27a261.37,261.37,0,0,1,39.07-20.49,64,64,0,0,1,13.17-3.94c6.72-1.19,7.85.13,7,7.51,1.81-.9,3.36-1.59,4.83-2.41,22.8-12.56,46.3-23.44,71.68-29.76,4.09-1,8.29-1.66,12.45-2.36a16.63,16.63,0,0,1,4.4-.12c4.95.52,5.94,1.92,5.07,6.81-.09.5-.11,1-.2,1.81a18.06,18.06,0,0,0,2.29-.72c16.8-8.11,34.47-13.84,52.44-18.65a130.58,130.58,0,0,1,16.28-2.8c2.3-.32,4.83-.36,6.63,2.22-.62,4.16-3.83,6.36-7.06,8.42-5.43,3.47-11,6.67-16.43,10.17-28.29,18.28-54.3,39.26-76.26,65-14.67,17.19-26.87,35.93-35.66,56.84-17,40.33-11,78.32,12.71,113.82,16.07,24,39.13,39.59,66.13,49.46,24.64,9,50.23,14.22,76,18.74,5.9,1,11.57,2.38,15.91,6.85,3.77,3.88,5.42,8.46,3.26,13.61a15.54,15.54,0,0,1-4.36,5.55c-5.9,5-12,9.7-18,14.61-7.93,6.53-12,14.79-10.68,25.23,1,7.52,5.15,13.3,10.78,18.07a52.73,52.73,0,0,0,25.92,11.54c13.94,2.31,27.63,1.42,40.41-5a51.12,51.12,0,0,0,13.39-9.52c11.95-12.13,10.62-29.44-2.62-40.19-5.86-4.76-11.72-9.52-17.68-14.15-10-7.79-5.8-18.34,2.09-22.58a43.94,43.94,0,0,1,11.4-3.8c17.6-3.9,35.36-7.1,52.83-11.48,20.24-5.08,39.74-12.24,57-24.38,37.38-26.21,55.54-62.32,55.26-107.78-.06-11.54-3.51-22.5-7.51-33.22-10.62-28.43-27.84-52.59-48.67-74.32-23.5-24.51-50.58-44.41-79.61-61.82a35.48,35.48,0,0,1-6.21-4.52C596.17,321.76,595.32,319.9,594.14,318.14ZM372.33,622.94l.69-1.07c-1.81-.85-3.61-1.73-5.44-2.55-24-10.75-46.42-24-65.78-42-16.27-15.11-29.25-32.53-36.89-53.59-3.68-10.12-5.83-20.47-4.72-31.36A117.89,117.89,0,0,1,276,444.6c11.61-20,27.11-36.62,44.56-51.54,21.51-18.38,45.17-33.55,70.23-46.57,1.58-.83,3.12-1.75,4.67-2.62a24.18,24.18,0,0,0-7.52,2,359,359,0,0,0-52.2,26.25c-20,12.28-38.58,26.38-54.29,44-14.28,16-25.26,33.88-30.87,54.78-9.15,34.13-2.26,64.48,21.66,90.66a166.53,166.53,0,0,0,15.51,14.89c18.29,15.45,39,26.89,60.82,36.54C356.41,616.44,364.4,619.62,372.33,622.94ZM684.51,343.2l-.27.65c1.7.94,3.42,1.83,5.1,2.81,12.22,7.16,24.71,13.91,36.6,21.58,23.32,15,44.59,32.58,62.33,54.1C800,436.52,809.48,452,814.92,469.67c4.54,14.77,7.16,29.79,2.72,45.07a133,133,0,0,1-7,19.12c-10.44,22.37-26.74,39.94-46.07,54.89-16.11,12.45-33.78,22.25-52.31,30.58-1.76.79-3.48,1.66-5.22,2.49.19.37.37.74.55,1.11,7.94-3.33,15.93-6.54,23.8-10,19.76-8.73,38.6-19.09,55.72-32.37,12-9.31,22.71-19.88,31.12-32.63,10.23-15.5,15.48-32.49,14.88-51.1a115.86,115.86,0,0,0-15.46-54.14c-9.65-17-22.4-31.46-37.16-44.15C752.65,374.61,721,357.28,687,344,686.15,343.7,685.32,343.47,684.51,343.2ZM291.37,374.88l-.39-.71a20.42,20.42,0,0,0-2.3,1c-20.55,11.68-39.88,25.09-57.17,41.27-12.57,11.77-23.63,24.75-31.73,40.09-10.17,19.23-12.5,39.39-7.57,60.49,5,21.41,16.77,38.65,32.83,53.18,20.54,18.59,44.79,30.74,70.63,40a11.71,11.71,0,0,0,2.35.26c-.43-.56-.57-.92-.83-1.05-1.48-.72-3-1.43-4.5-2.08-16.46-7.15-31.92-16-45.82-27.39-18.28-15-32.34-33.08-40.67-55.42a73,73,0,0,1-2-46.56c4.76-16.94,13-32,23.62-45.83,16.09-20.94,35.8-38,57.41-53ZM782.05,609.67l.27.88c.84-.21,1.71-.36,2.53-.64,18.64-6.58,36.38-15,52.73-26.19,15.82-10.81,29.67-23.65,39.37-40.38,12.64-21.81,16.72-45.05,10-69.6-4.47-16.28-13.58-30.11-24.59-42.7C841.85,407.6,816.9,389.85,790,374.57c-.38-.21-1,0-2.12,0,2.75,1.9,5,3.46,7.26,5,19.27,13.41,37,28.54,52.07,46.64,12.11,14.56,22,30.4,27.39,48.73,3.17,10.83,5.29,21.79,3.26,33.19-3.17,17.77-10.78,33.53-21.64,47.79-16.33,21.43-37.65,36.49-61.72,48C790.4,605.91,786.22,607.76,782.05,609.67Z"/></g></svg>