<svg xmlns="http://www.w3.org/2000/svg" viewBox="0 0 1080 1080"><defs><style>.cls-1{fill:#f6f6f6;}.cls-2{fill:#c3c3c3;}</style></defs><g id="background"><rect class="cls-1" y="1079" width="1" height="1"/><rect class="cls-1" width="1" height="1"/><rect class="cls-1" y="1079" width="1" height="1"/><rect class="cls-1" x="1079" width="1" height="1"/><rect class="cls-1" x="1079" y="1079" width="1" height="1"/><rect class="cls-1" x="1079" y="1079" width="1" height="1"/></g><g id="Capa_1" data-name="Capa 1"><path class="cls-2" d="M541.53,337.89c18.61.26,37.18,1,55.71,2.53,47.53,4,94.12,12.72,139.43,27.86,29,9.68,56.8,21.81,83,37.6,19.84,12,38.26,25.79,54.29,42.61,12.85,13.49,23.63,28.42,31.15,45.56a112.92,112.92,0,0,1,9.7,52.94,115.7,115.7,0,0,1-11.93,44c-9.4,19.24-22.71,35.49-38.31,50-18.55,17.21-39.44,31.06-61.72,42.89-29.9,15.87-61.43,27.6-94,36.55a594.89,594.89,0,0,1-74.55,15.25A644.1,644.1,0,0,1,532,742q-23.1-.43-46.18-2.14a601.93,601.93,0,0,1-68.8-9.2,556.36,556.36,0,0,1-82.14-21.94c-28.33-10.05-55.54-22.48-81-38.61-18.71-11.86-36-25.44-51-41.84-12.7-13.92-23.14-29.3-30-46.93A111,111,0,0,1,165.48,530a115.93,115.93,0,0,1,13.09-43.14c9.55-18.29,22.59-33.81,37.75-47.64,19.31-17.62,41-31.72,64.18-43.72,31.48-16.32,64.63-28.21,98.87-37.16a601.67,601.67,0,0,1,72.5-14.17c18.34-2.45,36.73-4.27,55.22-5.05C518.57,338.61,530.05,338.28,541.53,337.89Zm.3,21.27c-14.18.6-28.37,1.1-42.54,1.82-15.77.79-31.46,2.53-47.09,4.71q-28,3.9-55.56,10.49C361.77,384.6,328,396.07,296,412.46a276.65,276.65,0,0,0-50.93,33c-14,11.64-26.48,24.73-36.13,40.3-8.68,14-14.42,29.1-15.93,45.6a97.74,97.74,0,0,0,7.38,47.13C207.27,595,217.6,609.21,230.05,622c15.27,15.61,32.81,28.24,51.68,39.1C309.9,677.25,339.92,689,371.06,698a567.91,567.91,0,0,0,82.19,17q31.26,4.18,62.78,5.32c18.67.69,37.35.64,56-.26,20.07-1,40.05-2.81,59.94-5.64a552.62,552.62,0,0,0,72.83-15.28c31.82-9,62.51-20.84,91.33-37.2,17.69-10,34.28-21.62,49.05-35.68,12.47-11.88,23.25-25.07,31-40.55,14.53-29.08,15.15-58.47,1.52-88-7-15.11-17-28.11-28.64-39.85-14.79-14.88-31.64-27-49.71-37.57-25.7-15-53-26.21-81.34-35.08-38-11.9-77-19.12-116.57-22.88C581.63,360.4,561.75,359.58,541.83,359.16Z"/><path class="cls-2" d="M837.13,494.6c0,1.5-.77,2.37-2.66,2.64-3,.43-5.93.74-8.88,1.17q-22.71,3.34-45.42,6.74c-.92.14-1.82.38-2.73.6a16.29,16.29,0,0,0-12.27,10.79A196.94,196.94,0,0,0,758,542.12c-.44,2-.8,4-1.25,6a6.43,6.43,0,0,1-.74,2.09,2.33,2.33,0,0,1-4.24-.25,13.93,13.93,0,0,1-.66-2.42c-2.38-9.21-4.74-18.43-7.17-27.63a39.89,39.89,0,0,0-1.72-4.73,13.88,13.88,0,0,0-10.37-9c-5.1-1.1-10.25-2.06-15.42-2.76q-21.24-2.87-42.5-5.44a129.44,129.44,0,0,0-29.64.1c-11.6,1.27-23.21,2.42-34.81,3.69q-18.37,2-36.74,4.2c-11.12,1.33-22.24,2.68-33.34,4.16-17,2.26-34.09,4.25-50.91,7.85a62.42,62.42,0,0,0-9.6,3,30.59,30.59,0,0,0-16.12,14.47c-3.81,7-6.12,14.63-8.15,22.3-5.37,20.31-10.1,40.76-14,61.4-.43,2.3-.84,4.59-1.29,6.88a16.77,16.77,0,0,1-.62,2.44,2.53,2.53,0,0,1-2.49,1.91,2.32,2.32,0,0,1-2.39-2c-.39-1.53-.76-3.08-1.07-4.64-4.52-23-9.34-45.91-15.69-68.48-1.16-4.12-2.54-8.2-4-12.22C408.2,530,398.91,521.58,385.42,518a184.32,184.32,0,0,0-19.21-3.82q-23.52-3.56-47.13-6.66c-12.22-1.58-24.48-2.81-36.73-4.15q-22.43-2.46-44.84-4.84l-11.7-1.25c-.46-.05-.93,0-1.39-.13-1.83-.33-2.75-1.26-2.67-2.67s.86-2.13,2.65-2.35c6.31-.75,12.62-1.44,18.93-2.13l34.25-3.76c10.57-1.16,21.17-2.23,31.73-3.55,14.63-1.83,29.27-3.68,43.85-5.85,10.15-1.5,20.23-3.49,30.31-5.41a57.41,57.41,0,0,0,8-2.39A34.51,34.51,0,0,0,411,452.32a97.69,97.69,0,0,0,7.74-19.19c4.78-16.39,9.33-32.85,14-49.28.38-1.35.73-2.71,1.17-4a2.47,2.47,0,0,1,2.65-2,2.45,2.45,0,0,1,2.28,2.13c.84,3.15,1.55,6.34,2.35,9.51,4.52,17.82,9.12,35.62,15.67,52.85.79,2.09,1.67,4.15,2.57,6.2,5.33,12.16,14.45,19.8,27.48,22.43,8.59,1.73,17.25,3.2,25.92,4.46,11.08,1.62,22.21,3,33.33,4.32,10.56,1.29,21.15,2.38,31.72,3.62,9.73,1.14,19.46,2.37,29.19,3.55,10.19,1.24,20.38,2.52,30.59,3.66,5.93.67,11.89,1.25,17.85,1.6,9.55.57,19-.65,28.47-1.86,11.76-1.5,23.51-3.12,35.25-4.76,3.88-.54,7.75-1.17,11.58-2,6.57-1.37,11.06-5.23,13.09-11.7,2.32-7.39,4.55-14.8,6.82-22.21.33-1.07.66-2.14,1-3.19a2.32,2.32,0,0,1,2.35-1.66,2.38,2.38,0,0,1,2.28,1.76c.21.61.37,1.25.55,1.88,2,6.71,3.93,13.43,5.93,20.14.4,1.34.93,2.64,1.42,3.95,2.34,6.35,7,10.07,13.52,11.3q11.84,2.2,23.75,3.92c10.81,1.57,21.65,2.92,32.47,4.38C836.31,492.42,837.09,493.09,837.13,494.6Z"/><path class="cls-2" d="M617.52,647.1c-6.65.71-13.91,1.3-21.11,2.29-12.12,1.68-24.19,3.61-36.28,5.45-1.48.23-2.92.62-4.39.92A16.17,16.17,0,0,0,543.35,666a98.72,98.72,0,0,0-4.06,11.62c-1.88,7-3.42,14.14-5.11,21.22-.13.55-.28,1.09-.46,1.62a2.21,2.21,0,0,1-2.32,1.64,2.17,2.17,0,0,1-2.26-1.72c-.26-1-.42-2-.64-3-1.3-5.74-2.59-11.47-3.91-17.2A71.21,71.21,0,0,0,519,665a15.65,15.65,0,0,0-11.4-9.06c-5-1-10.07-2.06-15.16-2.69-14.82-1.84-29.67-3.47-44.51-5.19-1.94-.23-3.89-.48-5.81-.84a2.24,2.24,0,0,1-1.93-2.41,2.28,2.28,0,0,1,2-2.35c.64-.12,1.28-.26,1.93-.33l11.42-1.26c16-1.8,32-3.27,47.76-6.17,1.11-.2,2.2-.43,3.3-.64,6.93-1.31,11.62-5.4,14.19-11.82,1.7-4.24,3-8.62,4.44-13,1.17-3.65,2.19-7.34,3.27-11,.13-.45.23-.9.39-1.34.45-1.26.92-2.51,2.56-2.57,1.32-.05,2.15.7,2.75,2.7,1.74,5.82,3.31,11.68,5.19,17.45a98.42,98.42,0,0,0,4.19,10.36,15.16,15.16,0,0,0,10.48,8.6,107.53,107.53,0,0,0,10.71,2c12.37,1.85,24.76,3.6,37.13,5.45a100,100,0,0,0,31-.19c13.17-2.15,26.33-4.37,39.5-6.56,6.37-1.06,10.8-4.61,12.91-10.67s3.93-12.46,5.87-18.69c.36-1.16.67-2.33,1-3.5a2.38,2.38,0,0,1,2.32-2c1.49,0,2.17.84,2.54,2.13,1.23,4.3,2.38,8.64,3.73,12.91,1.07,3.37,2.34,6.68,3.64,10,2.22,5.62,6.5,8.74,12.37,9.77,5.6,1,11.2,2.09,16.84,2.82,13.89,1.78,27.8,3.37,41.71,5a8.21,8.21,0,0,1,1.11.14,2.36,2.36,0,0,1,2.06,2.32,2.39,2.39,0,0,1-1.91,2.46,33.14,33.14,0,0,1-3.59.58q-23.07,2.9-46.13,5.81c-3.52.44-7,1-10.52,1.64-5.11.91-9.1,3.57-11.16,8.39-1.88,4.36-3.38,8.89-4.87,13.4-1.12,3.36-1.95,6.82-2.94,10.22a8.92,8.92,0,0,1-.89,2.34,2.29,2.29,0,0,1-4.07-.27,13.61,13.61,0,0,1-.65-2.14c-1.68-6-3.28-12.06-5.09-18a39.26,39.26,0,0,0-2.9-6.66,12.43,12.43,0,0,0-8.53-6.72c-4.83-1-9.7-1.94-14.58-2.71-9.5-1.49-19-2.93-28.53-4.22C627.49,647.83,622.82,647.58,617.52,647.1Z"/><path class="cls-2" d="M553.17,568.9a2.18,2.18,0,0,1,2.11-2.37c1.84-.31,3.69-.55,5.55-.77,14.55-1.72,29.12-3.35,43.66-5.19,5.09-.65,10.11-1.76,15.15-2.72a27.29,27.29,0,0,0,3.48-1.06c4.3-1.44,7.6-4.13,9.24-8.38,2-5.21,3.76-10.53,5.5-15.85,1.1-3.37,2-6.81,2.94-10.22a10.49,10.49,0,0,1,.76-2.1,2.41,2.41,0,0,1,4.29-.06,15.43,15.43,0,0,1,1,2.89q3.36,11,6.7,22c2.16,7.11,7,11.37,14.16,12.84,6.77,1.39,13.56,2.67,20.37,3.79,8.2,1.34,16.43,2.46,24.65,3.66a102.17,102.17,0,0,0,33.47-.49c9.54-1.75,19.06-3.64,28.59-5.5a30.92,30.92,0,0,0,3.52-.93,14.45,14.45,0,0,0,8.75-7.37c2.58-4.92,4-10.26,5.55-15.53.64-2.14,1.17-4.32,1.81-6.47s1.29-2.69,2.72-2.69,2.13.63,2.73,2.67c1.32,4.47,2.52,9,4,13.43a82.59,82.59,0,0,0,3.11,7.79,14.39,14.39,0,0,0,10.95,8.71c7.6,1.47,15.25,2.75,22.9,3.94,7.93,1.24,15.89,2.29,23.84,3.42a10.27,10.27,0,0,1,1.36.29,2.27,2.27,0,0,1,1.85,2.18,2.19,2.19,0,0,1-1.78,2.5c-2.37.48-4.78.81-7.18,1.13-13.69,1.87-27.38,3.71-40.91,6.6-5.83,1.25-9.8,4.53-11.42,10.28-2.29,8.17-4.39,16.4-6.57,24.61-.17.63-.27,1.28-.48,1.89a2.39,2.39,0,0,1-2.3,1.74,2.32,2.32,0,0,1-2.36-1.64,17.52,17.52,0,0,1-.5-1.89c-1.84-7.14-3.66-14.28-5.51-21.41-.29-1.09-.74-2.12-1.07-3.19-1.8-5.94-5.91-9.35-11.85-10.67A342.53,342.53,0,0,0,738.16,572a98.68,98.68,0,0,0-24,.67c-11.19,1.52-22.37,3.09-33.53,4.87-4.86.78-9.67,2-14.46,3.23a16.31,16.31,0,0,0-12.35,12.16c-2.07,7.66-3.89,15.38-5.79,23.08-.6,2.44-1.09,4.92-1.64,7.38-.31,1.38-1,2.5-2.54,2.56s-2.3-1.05-2.63-2.42c-1.08-4.54-2.09-9.09-3.2-13.63-1.25-5.07-2.56-10.13-3.85-15.19-.24-.91-.52-1.8-.82-2.68-2.46-7-7.34-11.14-14.63-12.3q-9.67-1.53-19.4-2.79c-14-1.78-28-3.47-42-5.2a23.13,23.13,0,0,1-2.49-.43C553.64,571,553.17,570.19,553.17,568.9Z"/></g></svg>