<svg xmlns="http://www.w3.org/2000/svg" viewBox="0 0 1080 1080"><defs><style>.cls-1{fill:#f6f6f6;}.cls-2{fill:#c3c3c3;}</style></defs><g id="background"><rect class="cls-1" y="1079" width="1" height="1"/><rect class="cls-1" width="1" height="1"/><rect class="cls-1" y="1079" width="1" height="1"/><rect class="cls-1" x="1079" width="1" height="1"/><rect class="cls-1" x="1079" y="1079" width="1" height="1"/><rect class="cls-1" x="1079" y="1079" width="1" height="1"/></g><g id="Capa_1" data-name="Capa 1"><path class="cls-2" d="M459.52,384.26c3.22-5.27,8.83-6.29,14-4.27a27.8,27.8,0,0,1,5.5,3.23c18.67,12.94,37.13,26.19,56,38.83,24.09,16.13,48.53,31.76,72.78,47.66C619.63,477.44,632,484,645.5,488.2A161.51,161.51,0,0,0,705.63,495a216.34,216.34,0,0,0,40.27-6.58A301.24,301.24,0,0,0,832.35,450c.85-.54,1.59-1.25,2.65-2.09L541.31,238.72c-82.87,86-181.5,146.39-293.34,186.4,1.14.87,2.05,1.63,3,2.31q65.28,45.88,130.55,91.75,61.51,43.23,123,86.47L601,673.43q10,7,20,14.09c1.15.81,2.83,1.43,2.28,3.33-1.66,5.65-6.49,11.91-14.15,9.73a24.4,24.4,0,0,1-7.11-3.45c-13.5-9.38-26.7-19.19-40.38-28.29-31.17-20.72-62.52-41.15-93.85-61.6a134.85,134.85,0,0,0-34.46-15.91c-21.12-6.48-42.67-7.93-64.58-5.83A231.62,231.62,0,0,0,316.39,597a296.12,296.12,0,0,0-51.54,23c-6.48,3.68-12.81,7.61-19.85,11.81L539.16,841.28c82.92-86,181.5-146.47,293.56-186.42L456.48,390.36C457.62,388,458.43,386.06,459.52,384.26Z"/></g></svg>