<svg xmlns="http://www.w3.org/2000/svg" viewBox="0 0 1080 1080"><defs><style>.cls-1{fill:#f6f6f6;}.cls-2{fill:#c3c3c3;}</style></defs><g id="Capa_2" data-name="Capa 2"><g id="background"><rect class="cls-1" width="1" height="1"/><rect class="cls-1" width="1" height="1"/><rect class="cls-1" y="1079" width="1" height="1"/><rect class="cls-1" y="1079" width="1" height="1"/><path class="cls-2" d="M550.27,680.38,619.16,292.9c65.68,0,86.38,7.21,89.38,36.6,0,0,44.07-16.43,66.28-49.79-86.7-40.18-173.82-42-173.82-42l-50.84,61.91h.11l-50.84-61.91s-87.12,1.8-173.83,42c22.21,33.36,66.3,49.79,66.3,49.79,3-29.41,23.69-36.59,88.92-36.65l69.45,387.54Z"/><path class="cls-2" d="M550.24,219.83c70.08-.54,150.32,10.85,232.45,46.63,11-19.75,13.78-28.48,13.78-28.48-89.77-35.52-173.83-47.67-246.24-48-72.39.31-156.46,12.46-246.23,48,0,0,4,10.76,13.79,28.48,82.11-35.78,162.36-47.17,232.44-46.63Z"/><path class="cls-2" d="M405.87,833.55h52.46c7.3-1.45,12.73-7.89,14.25-14.11h-81c1.51,6.22,7,12.66,14.25,14.11Z"/><path class="cls-2" d="M405.87,861.37h52.46c7.3-1.45,12.73-7.89,14.25-14.11h-81c1.51,6.22,7,12.66,14.25,14.11Z"/><path class="cls-2" d="M405.87,889.94h52.46c7.3-1.46,12.73-7.88,14.25-14.11h-81c1.51,6.23,7,12.65,14.25,14.11Z"/><path class="cls-2" d="M743.9,833.6h52.46c7.3-1.44,12.72-7.88,14.24-14.11h-81c1.52,6.23,7,12.67,14.25,14.11Z"/><path class="cls-2" d="M269.4,819.61c1.57,6.15,6.9,12.43,14.21,14h22.08l1.12.44v55.72h13.8V834.07l1.24-.44H344a19.87,19.87,0,0,0,14.15-14v-.14H269.4v.14Z"/><path class="cls-2" d="M690.44,890a19.56,19.56,0,0,0,12-13.87H641.22l0-56.55-13.71,0V890Z"/><path class="cls-2" d="M525.5,833.4H574c7.3-2.12,13.44-7.68,14.94-13.85h-77v41.58h63v14.6l-49.43,0A27.62,27.62,0,0,0,507.92,890l4-.08h76.56v-42.6h-63V833.4Z"/><polygon class="cls-2" points="731.76 847.36 731.76 889.92 745.4 889.92 745.4 861.6 795.09 861.6 795.09 889.92 808.72 889.92 808.72 847.44 731.76 847.36 731.76 847.36"/><rect class="cls-1" x="1079" width="1" height="1"/><rect class="cls-1" x="1079" width="1" height="1"/><rect class="cls-1" x="1079" y="1079" width="1" height="1"/><rect class="cls-1" x="1079" y="1079" width="1" height="1"/><rect class="cls-1" x="1079" y="1079" width="1" height="1"/><rect class="cls-1" x="1079" y="1079" width="1" height="1"/></g></g></svg>