<svg xmlns="http://www.w3.org/2000/svg" viewBox="0 0 1080 1080"><defs><style>.cls-1{fill:#f6f6f6;}.cls-2{fill:#c3c3c3;fill-rule:evenodd;}</style></defs><g id="background"><rect class="cls-1" y="1079" width="1" height="1"/><rect class="cls-1" width="1" height="1"/><rect class="cls-1" y="1079" width="1" height="1"/><rect class="cls-1" x="1079" width="1" height="1"/><rect class="cls-1" x="1079" y="1079" width="1" height="1"/><rect class="cls-1" x="1079" y="1079" width="1" height="1"/></g><g id="Capa_1" data-name="Capa 1"><path class="cls-2" d="M517.44,750.65c-37.75-23.65-65.56-105.24-65.56-202.2,0-3.56,0-7.07.1-10.57h0l0,0h0c-105-16.51-180.86-61.72-182.81-115.18h0l-.31.62h0c-25.69,31.93-40.35,68.85-40.35,108.18,0,115.74,127.05,210.59,288.21,219h0l.68.13ZM180,540c0-129.51,161.18-234.52,360-234.52S900,410.49,900,540,738.82,774.52,540,774.52,180,669.51,180,540ZM540,339.32c38.38,0,71,58.23,83.13,139.47h0l0-.13h0c74.68-11.62,127-38.43,127-69.64,0-41.87-94.09-75.79-210.13-75.79S329.88,367.15,329.88,409c0,31.21,52.27,58,127,69.64h0l.05.13h0C469,397.55,501.63,339.32,540,339.32Zm23.24,411.2c161.16-8.38,288.23-103.23,288.23-219,0-39.33-14.68-76.25-40.37-108.18h0l-.31-.62h0C808.84,476.21,733,521.42,628,537.93h0l0,0h0c.07,3.5.11,7,.11,10.57,0,97-27.84,178.55-65.56,202.2h0l.66-.13ZM540,484.82c17.2,0,33.91-.73,49.91-2.14h0l0,0h0c-8-52.07-27.3-88.83-49.89-88.83s-41.92,36.76-49.89,88.83h0l0,0h0c16,1.41,32.72,2.14,49.91,2.14Zm0,192.85c28.9,0,52.47-60.13,53.73-135.56h0l.15.06h0c-17.41,1.61-35.43,2.45-53.88,2.45s-36.46-.84-53.87-2.45h0l.15-.06h0c1.25,75.43,24.82,135.56,53.72,135.56Z"/></g></svg>