<svg xmlns="http://www.w3.org/2000/svg" viewBox="0 0 1080 1080"><defs><style>.cls-1{fill:#f6f6f6;}.cls-2{fill:#c3c3c3;}</style></defs><g id="background"><rect class="cls-1" y="1079" width="1" height="1"/><rect class="cls-1" width="1" height="1"/><rect class="cls-1" y="1079" width="1" height="1"/><rect class="cls-1" x="1079" width="1" height="1"/><rect class="cls-1" x="1079" y="1079" width="1" height="1"/><rect class="cls-1" x="1079" y="1079" width="1" height="1"/></g><g id="Capa_1" data-name="Capa 1"><path class="cls-2" d="M540,215c176.31-.11,324.73,140.19,325,325.87.24,178.4-143.39,323.76-324.71,324.13C360.48,865.37,212.38,720.44,215,533.72,217.5,360.31,358.68,215.36,540,215ZM398.57,282a4.36,4.36,0,0,0-.89.18c-.66.33-1.32.69-2,1.06-41.08,23.46-74.55,55.07-101,94.26-1.93,2.85-2,4.94-.45,8q66.4,133.66,132.62,267.44c5.14,10.37,10.28,20.75,15.59,31,.67,1.28,2.51,2.86,3.66,2.76s2.4-2,3.51-3.18a4.73,4.73,0,0,0,.61-1.45q26.81-63.2,53.53-126.41c2-4.76,4.92-6.62,9.94-6.57,16.38.15,32.76.24,49.14,0,5.83-.1,9,2,11.39,7.4,18.1,41.68,36.46,83.25,54.76,124.84A22.78,22.78,0,0,0,631,685c1.86,2.78,4.2,2.7,6-.19.82-1.36,1.41-2.86,2.13-4.28q74-148.05,148.09-296.08c1.16-2.32,1-3.88-.44-6a304.73,304.73,0,0,0-92.47-89.72c-3.76-2.35-7.59-4.59-11.66-7.05-.9,1.93-1.67,3.53-2.39,5.15Q627.6,403.75,575.06,520.69c-2,4.37-4.76,6.36-9.53,6.33-16.8-.11-33.6-.07-50.41,0-4.43,0-7.25-1.87-9.11-6Q458.28,414.63,410.4,308.32,404.48,295.14,398.57,282Zm418.5,154.83c-.48.86-.82,1.4-1.1,2l-14,28.24Q723.51,624.81,645.07,782.56a26.29,26.29,0,0,1-4,6.12,8.85,8.85,0,0,1-13.5-.11,28.5,28.5,0,0,1-4.24-7q-38.93-86.92-77.76-173.88a22.46,22.46,0,0,0-2.33-4.15c-1.63-2.21-3.53-2.21-5.25-.06a11.63,11.63,0,0,0-1.35,2.51q-39.36,88.11-78.75,176.23a24.36,24.36,0,0,1-4,6.43,8.84,8.84,0,0,1-13.49,0,26.64,26.64,0,0,1-3.93-6.12Q351.58,611.78,266.74,441c-.65-1.3-1.32-2.59-2.11-4.16-38.23,96.26-23.55,233.94,83.89,326.79,107.2,92.65,259.24,94.71,368.17,12C831.8,688.28,859.71,545.49,817.07,436.84Zm-373.22-176c.52,1.28.77,2,1.07,2.65q45.34,102.17,90.76,204.3c.9,2,3,3.51,4.54,5.24,1.46-1.66,3.44-3.09,4.3-5q45.56-102.25,90.9-204.6c.32-.73.52-1.52.89-2.61C572.05,238.47,508.13,238.46,443.85,260.86Z"/></g></svg>