<svg xmlns="http://www.w3.org/2000/svg" viewBox="0 0 1080 1080"><defs><style>.cls-1{fill:#f6f6f6;}.cls-2{fill:#c3c3c3;}</style></defs><g id="background"><rect class="cls-1" y="1079" width="1" height="1"/><rect class="cls-1" width="1" height="1"/><rect class="cls-1" y="1079" width="1" height="1"/><rect class="cls-1" x="1079" width="1" height="1"/><rect class="cls-1" x="1079" y="1079" width="1" height="1"/><rect class="cls-1" x="1079" y="1079" width="1" height="1"/></g><g id="Capa_1" data-name="Capa 1"><path class="cls-2" d="M80.29,498.21a110.89,110.89,0,0,1-.07-14.91c3.45-1,114.48-1,118.23-.05a95.55,95.55,0,0,1,.11,13c-.06,1.68-1.38,1.94-2.72,2-3.54,0-7.08,0-10.63.08-5.16.08-10.32.2-15.49.31-.66,1.84.48,2.87,1.12,4q12.81,22.39,25.68,44.74,5.76,10,11.54,20.06c.62,1.07,1.32,2.09,2,3.17,2.15-2,36.74-66.64,38.5-72-1.4-.16-2.69-.42-4-.44-4.3-.06-8.61,0-12.91,0-1.36,0-2.73-.12-4.17-.19-1-3.36-.47-6.53-.5-9.64-.05-5.72-.9-5.77,5.72-5.77q35.29,0,70.59,0c1.6,0,3.2.19,4.95.3v14.92c-1.57.1-2.92.26-4.26.28-6.2.07-12.4.22-18.6.1-3-.07-4.73,1-6.19,3.74Q254.87,548,230.25,594c-3.7,6.93-1.72,5.64-9.38,5.68-18.47.07-36.94,0-55.4.09-3.06,0-4.74-.91-6.18-3.65q-24.48-46.26-49.2-92.39c-3.26-6.1-1.77-5.05-8.62-5.12-6.07-.07-12.14,0-18.21,0A29.73,29.73,0,0,1,80.29,498.21Z"/><path class="cls-2" d="M612.65,498.34v-15c2.84-1,113.78-1.2,117.87-.29.88,2.71,1,10.76.11,15-4.72.35-9.62.1-14.5.22s-9.51.23-14.34.35c.77,3.22,38.15,68.57,41.07,71.9a18.75,18.75,0,0,0,1.73-2.34q17.7-33.32,35.35-66.67c.4-.76.65-1.6,1.18-2.92-1.6-.18-2.91-.44-4.22-.45-4.68-.06-9.36,0-14-.05-3-.05-3.26-.36-3.31-3.31-.07-3.89,0-7.77,0-11.49,3.62-1,77.48-1,81.13-.06a131.69,131.69,0,0,1,0,14.47c-1.63.12-3,.31-4.3.32-5.95.08-11.9.3-17.83.08-3.63-.14-5.65,1.11-7.37,4.39q-24,45.63-48.37,91.09a32.55,32.55,0,0,0-1.77,3.35c-.86,2.26-2.48,2.77-4.75,2.77q-29.6-.11-59.19,0c-2.68,0-4-1-5.23-3.25Q672,559,652,521.54c-3.51-6.58-7.12-13.11-10.49-19.77-1.18-2.33-2.6-3.31-5.28-3.23-6.7.18-13.4.06-20.11,0C615.12,498.58,614.13,498.45,612.65,498.34Z"/><path class="cls-2" d="M918.75,602.86c-23.06,0-41.7-4.57-58.59-15.41a65.52,65.52,0,0,1-22.26-22.9c-11.36-20.06-8-43.41,8.67-60.69,10.82-11.22,24-18.39,38.93-22.49,25.81-7.1,51-5.5,75.49,5.69a74.66,74.66,0,0,1,25.7,19.07c18.26,21.1,17.67,49-1.38,69.43-10.29,11-22.95,18.08-37.19,22.55C937.54,601.43,926.71,603,918.75,602.86Zm-34.83-65.12c.13,9.14,1.2,16.61,3.84,23.8,2.47,6.72,6,12.81,11.45,17.6,9,7.91,20.82,8,30,.29a33.14,33.14,0,0,0,8.28-10.26c9.94-19.33,9.78-38.79.33-58.22a32.46,32.46,0,0,0-10.19-12.05c-8.23-6-17.88-6.23-26-.17a37.93,37.93,0,0,0-8.16,8.33C886.6,516.64,884.24,527.67,883.92,537.74Z"/><path class="cls-2" d="M386.52,602.91c-22-.08-39.45-4-55.52-13.21a70.14,70.14,0,0,1-21.22-18.12c-15.48-20.26-14.43-45.18,2.66-64.17,9.36-10.4,21-17.32,34.07-22a108.45,108.45,0,0,1,44.41-5.94c18.34,1.28,35.56,6.32,50.78,17,10.37,7.29,18.69,16.38,23,28.5,6.51,18.44,2.26,34.88-10.3,49.35-10.24,11.79-23.42,19.09-38.18,23.69C405.37,601.44,394.27,603,386.52,602.91Zm26-64c-.42-2.89-.84-8.2-2-13.35-2-8.77-5.9-16.64-12.66-22.85-9.39-8.63-22.1-8.64-31.51-.08a40.17,40.17,0,0,0-9.14,12.46c-4.89,10.19-6.33,21-5.22,32.13a54.37,54.37,0,0,0,7.74,23.94A32.44,32.44,0,0,0,370.14,582c8,4.91,16,4.79,23.94-.16a31.41,31.41,0,0,0,9.76-9.91C409.85,562.58,412.26,552.25,412.49,538.9Z"/><path class="cls-2" d="M584.54,483.33v14.74l-26.61.54c-.15,1.57-.39,2.9-.39,4.22q0,37.4,0,74.78c0,1.23.15,2.47.26,4.07,1.41.12,2.62.32,3.83.32,8.47,0,17,.07,25.43,0a36.62,36.62,0,0,0,36.3-30.51c.29-1.61.56-3.23.84-4.8,2.78-1,11.83-1.21,16.11-.36.85,2.7,1,48.73.15,53.1H475.4V582.19c9.43-.46,18.74.07,27.94-.29,1-3,1.15-78.37.2-83.15-8.66-.41-17.46.06-26.78-.27-.22-5.24-.11-10.22-.06-15.11C480.12,482.25,581.39,482.26,584.54,483.33Z"/></g></svg>